<svg
        xmlns="http://www.w3.org/2000/svg"
        xmlns:xlink="http://www.w3.org/1999/xlink"
        width="660px" height="660px">
    <path fill-rule="evenodd" fill="rgb(38, 99, 188)"
          d="M660.829,316.411 C660.896,317.898 660.953,319.386 661.0,320.877 C650.685,327.830 642.339,337.681 637.306,349.503 C645.239,352.204 652.816,355.939 659.902,360.653 C659.775,362.108 659.639,363.561 659.493,365.11 C643.630,353.957 625.61,348.121 605.581,348.121 C585.63,348.121 565.550,354.584 549.152,366.811 C533.989,378.118 522.387,394.23 516.247,411.803 C524.953,412.31 533.467,413.378 541.641,415.802 C552.361,390.244 577.661,373.281 605.581,373.281 C624.606,373.281 642.410,381.163 655.217,394.267 C654.920,395.810 654.610,397.348 654.292,398.884 C642.94,385.345 624.474,377.121 605.581,377.121 C579.322,377.121 555.520,393.7 545.320,416.972 C553.268,419.678 560.859,423.422 567.956,428.149 C573.895,412.569 588.680,402.282 605.581,402.282 C622.454,402.282 637.262,412.578 643.204,428.149 C644.662,427.179 646.145,426.260 647.644,425.372 C647.92,427.238 646.522,429.95 645.939,430.947 C644.314,432.11 642.708,433.111 641.139,434.281 C625.976,445.587 614.375,461.492 608.235,479.273 C614.50,479.425 619.776,480.88 625.376,481.226 C624.773,482.411 624.163,483.591 623.546,484.767 C617.682,483.644 611.678,483.60 605.581,483.60 C585.63,483.60 565.550,489.523 549.152,501.750 C533.989,513.57 522.387,528.962 516.247,546.742 C524.953,546.970 533.467,548.317 541.641,550.740 C552.361,525.183 577.661,508.220 605.581,508.220 C607.27,508.220 608.463,508.277 609.894,508.366 C609.101,509.615 608.301,510.858 607.492,512.96 C606.856,512.77 606.220,512.60 605.581,512.60 C579.322,512.60 555.520,527.945 545.320,551.911 C552.923,554.500 560.195,558.49 567.25,562.488 C566.115,563.419 565.200,564.345 564.279,565.265 C549.149,555.609 531.768,550.529 513.593,550.529 C493.75,550.529 473.563,556.992 457.165,569.219 C442.1,580.526 430.400,596.431 424.259,614.211 C432.965,614.440 441.480,615.786 449.654,618.210 C460.374,592.653 485.673,575.690 513.593,575.690 C524.675,575.690 535.339,578.370 544.847,583.191 C543.785,584.96 542.717,584.994 541.644,585.886 C533.40,581.789 523.492,579.529 513.593,579.529 C487.334,579.529 463.533,595.415 453.332,619.380 C460.578,621.848 467.523,625.187 474.73,629.337 C472.702,629.998 471.326,630.650 469.944,631.293 C455.374,622.580 438.849,617.999 421.607,617.999 C401.88,617.999 381.575,624.461 365.177,636.689 C355.950,643.569 348.52,652.159 341.890,661.832 C340.360,661.884 338.827,661.925 337.291,661.956 C343.879,650.996 352.590,641.284 362.881,633.611 C363.246,633.339 363.619,633.86 363.987,632.820 C358.846,618.235 345.203,608.529 329.619,608.529 C314.9,608.529 300.389,618.226 295.249,632.819 C295.617,633.85 295.992,633.339 296.357,633.611 C306.637,641.276 315.339,650.975 321.926,661.920 C320.383,661.881 318.843,661.829 317.306,661.769 C311.150,652.122 303.267,643.554 294.60,636.689 C277.662,624.461 258.149,617.999 237.631,617.999 C220.701,617.999 204.460,622.410 190.84,630.819 C188.698,630.168 187.318,629.507 185.943,628.837 C192.263,624.914 198.948,621.750 205.906,619.380 C195.705,595.415 171.903,579.529 145.645,579.529 C136.189,579.529 127.56,581.599 118.758,585.354 C117.676,584.451 116.600,583.541 115.529,582.625 C124.747,578.160 135.4,575.690 145.645,575.690 C173.564,575.690 198.864,592.653 209.584,618.210 C217.758,615.786 226.272,614.440 234.978,614.211 C228.838,596.431 217.236,580.526 202.73,569.219 C185.675,556.992 166.163,550.529 145.645,550.529 C127.913,550.529 110.937,555.365 96.68,564.568 C95.147,563.642 94.232,562.711 93.322,561.775 C99.829,557.667 106.725,554.360 113.919,551.911 C103.717,527.945 79.916,512.60 53.657,512.60 C53.613,512.60 53.568,512.62 53.524,512.62 C52.702,510.804 51.888,509.539 51.82,508.269 C51.938,508.237 52.796,508.220 53.657,508.220 C81.577,508.220 106.877,525.183 117.597,550.740 C125.771,548.317 134.285,546.970 142.991,546.742 C136.850,528.961 125.249,513.56 110.86,501.750 C93.688,489.523 74.175,483.60 53.657,483.60 C48.129,483.60 42.678,483.545 37.337,484.469 C36.718,483.285 36.105,482.97 35.499,480.904 C40.577,479.962 45.754,479.411 51.4,479.273 C44.863,461.492 33.261,445.587 18.98,434.281 C17.271,433.665 16.431,433.73 15.589,432.486 C14.974,430.567 14.374,428.642 13.794,426.708 C14.544,427.180 15.293,427.656 16.33,428.148 C21.972,412.569 36.756,402.282 53.657,402.282 C70.530,402.282 85.338,412.578 91.280,428.149 C98.378,423.423 105.970,419.678 113.919,416.972 C103.717,393.7 79.916,377.121 53.657,377.121 C35.513,377.121 18.544,384.709 6.422,397.303 C6.117,395.791 5.823,394.274 5.538,392.755 C18.216,380.557 35.374,373.281 53.657,373.281 C81.577,373.281 106.877,390.244 117.597,415.802 C125.771,413.378 134.285,412.32 142.991,411.803 C136.850,394.22 125.249,378.117 110.86,366.811 C93.688,354.584 74.175,348.121 53.657,348.121 C34.864,348.121 16.922,353.559 1.436,363.866 C1.296,362.431 1.166,360.994 1.45,359.554 C7.637,355.360 14.631,351.989 21.931,349.503 C17.189,338.361 9.503,328.968 0.0,322.103 C0.42,320.578 0.96,319.56 0.159,317.536 C11.282,324.970 20.261,335.581 25.610,348.333 C33.784,345.909 42.298,344.562 51.4,344.334 C44.863,326.554 33.261,310.648 18.98,299.342 C13.152,295.653 7.917,292.499 2.462,289.879 C2.629,288.549 2.805,287.221 2.988,285.896 C7.488,287.988 11.848,290.423 16.33,293.210 C21.972,277.630 36.756,267.343 53.657,267.343 C70.530,267.343 85.338,277.639 91.280,293.211 C98.378,288.484 105.970,284.740 113.919,282.34 C103.717,258.68 79.916,242.182 53.657,242.182 C35.944,242.182 19.357,249.418 7.300,261.479 C7.776,259.270 8.278,257.70 8.799,254.878 C21.84,244.462 36.896,238.343 53.657,238.343 C81.577,238.343 106.877,255.305 117.597,280.863 C125.771,278.439 134.285,277.93 142.991,276.864 C136.850,259.84 125.249,243.178 110.86,231.873 C93.688,219.645 74.175,213.183 53.657,213.183 C41.721,213.183 30.130,215.385 19.289,219.622 C19.859,218.39 20.438,216.460 21.31,214.887 C21.332,214.782 21.630,214.667 21.931,214.565 C21.796,214.247 21.649,213.937 21.510,213.623 C22.137,211.979 22.782,210.343 23.435,208.711 C24.215,210.237 24.940,211.799 25.610,213.394 C33.784,210.970 42.298,209.624 51.4,209.395 C47.541,199.369 42.341,189.939 35.746,181.594 C36.380,180.350 37.21,179.110 37.670,177.876 C44.440,186.146 49.879,195.489 53.657,205.456 C60.259,188.42 71.911,172.517 86.919,161.325 C87.283,161.54 87.657,160.800 88.25,160.534 C83.927,148.908 74.423,140.388 62.843,137.408 C63.649,136.300 64.460,135.196 65.279,134.98 C77.85,137.620 86.755,146.413 91.280,158.272 C98.378,153.545 105.970,149.801 113.919,147.95 C107.581,132.206 95.993,120.440 81.829,113.660 C82.703,112.663 83.584,111.672 84.470,110.686 C99.119,117.984 111.66,130.354 117.597,145.924 C125.771,143.500 134.285,142.154 142.991,141.926 C136.850,124.145 125.249,108.240 110.86,96.934 C107.684,95.143 105.209,93.492 102.681,91.951 C103.640,91.38 104.605,90.132 105.576,89.231 C106.396,89.743 107.213,90.264 108.20,90.802 C108.941,88.385 110.76,86.96 111.398,83.952 C117.918,78.181 124.669,72.666 131.633,67.416 C136.17,65.806 140.740,64.935 145.645,64.935 C162.518,64.935 177.325,75.230 183.267,90.803 C190.365,86.76 197.957,82.332 205.906,79.626 C198.695,62.684 184.683,49.790 167.815,43.681 C169.260,42.863 170.710,42.54 172.169,41.258 C188.765,48.168 202.427,61.391 209.584,78.455 C217.758,76.32 226.272,74.685 234.978,74.457 C228.838,56.676 217.236,40.771 202.73,29.464 C201.313,28.897 200.538,28.355 199.764,27.812 C201.141,27.219 202.524,26.634 203.912,26.59 C204.65,26.167 204.219,26.274 204.369,26.386 C219.378,37.578 231.29,53.103 237.631,70.517 C244.233,53.103 255.885,37.578 270.893,26.386 C271.258,26.115 271.632,25.862 271.999,25.596 C269.548,18.641 265.161,12.800 259.555,8.588 C261.158,8.238 262.765,7.900 264.377,7.573 C269.119,11.782 272.890,17.138 275.254,23.333 C282.352,18.607 289.944,14.862 297.893,12.156 C296.537,8.970 294.934,5.932 293.123,3.49 C294.528,2.891 295.936,2.742 297.347,2.602 C298.930,5.279 300.350,8.73 301.571,10.986 C309.745,8.562 318.259,7.215 326.966,6.987 C326.269,4.969 325.492,2.979 324.657,1.13 C326.32,0.989 327.408,0.974 328.787,0.966 C329.68,1.659 329.354,2.349 329.619,3.47 C329.885,2.345 330.173,1.652 330.455,0.956 C330.477,0.956 330.498,0.956 330.519,0.956 C331.879,0.956 333.237,0.965 334.594,0.981 C333.754,2.957 332.973,4.958 332.273,6.987 C340.978,7.215 349.492,8.562 357.666,10.986 C358.913,8.14 360.364,5.165 361.985,2.439 C363.403,2.573 364.819,2.716 366.232,2.868 C364.373,5.804 362.730,8.902 361.344,12.156 C369.293,14.862 376.884,18.606 383.982,23.333 C386.399,16.992 390.281,11.529 395.174,7.278 C396.812,7.603 398.446,7.938 400.76,8.287 C394.279,12.519 389.746,18.471 387.237,25.595 C387.605,25.861 387.979,26.114 388.344,26.386 C403.352,37.578 415.4,53.103 421.606,70.517 C428.208,53.103 439.860,37.578 454.868,26.386 C455.233,26.115 455.607,25.862 455.975,25.596 C455.972,25.589 455.970,25.583 455.968,25.577 C457.367,26.151 458.761,26.736 460.150,27.329 C459.145,28.21 458.148,28.731 457.165,29.464 C442.1,40.771 430.400,56.676 424.259,74.457 C432.965,74.685 441.480,76.31 449.654,78.455 C456.959,61.39 471.38,47.620 488.100,40.834 C489.583,41.640 491.57,42.460 492.526,43.287 C475.166,49.224 460.700,62.315 453.332,79.626 C461.280,82.332 468.871,86.76 475.969,90.802 C481.907,75.222 496.693,64.935 513.593,64.935 C520.117,64.935 526.329,66.480 531.842,69.268 C536.305,72.696 540.675,76.239 544.954,79.886 C547.552,83.117 549.682,86.782 551.216,90.803 C552.378,90.29 553.557,89.292 554.745,88.571 C555.721,89.472 556.691,90.378 557.656,91.290 C554.743,93.13 551.900,94.885 549.152,96.934 C533.989,108.240 522.387,124.146 516.247,141.926 C524.953,142.154 533.467,143.500 541.641,145.924 C548.357,129.913 560.796,117.277 576.15,110.70 C576.913,111.64 577.805,112.64 578.691,113.70 C563.947,119.743 551.846,131.761 545.320,147.95 C553.268,149.801 560.859,153.545 567.956,158.271 C572.669,145.907 582.957,136.882 595.450,133.681 C596.284,134.797 597.112,135.918 597.933,137.44 C585.645,139.638 575.489,148.386 571.211,160.533 C571.579,160.800 571.954,161.53 572.318,161.325 C587.327,172.517 598.978,188.42 605.581,205.456 C609.562,194.956 615.389,185.152 622.670,176.562 C623.320,177.784 623.963,179.11 624.599,180.243 C617.483,188.919 611.886,198.820 608.235,209.395 C616.940,209.624 625.454,210.970 633.628,213.394 C634.581,211.121 635.655,208.920 636.831,206.789 C637.471,208.357 638.95,209.933 638.711,211.513 C638.221,212.517 637.746,213.530 637.306,214.564 C638.305,214.904 639.298,215.261 640.285,215.634 C640.885,217.237 641.474,218.847 642.51,220.462 C630.613,215.668 618.291,213.183 605.581,213.183 C585.63,213.183 565.550,219.645 549.152,231.873 C533.989,243.179 522.387,259.84 516.247,276.864 C524.953,277.93 533.467,278.439 541.641,280.863 C552.361,255.305 577.661,238.343 605.581,238.343 C623.400,238.343 640.144,245.260 652.720,256.903 C653.255,259.224 653.762,261.556 654.248,263.896 C642.52,250.386 624.451,242.182 605.581,242.182 C579.322,242.182 555.520,258.68 545.320,282.34 C553.268,284.740 560.859,288.484 567.956,293.210 C573.895,277.630 588.680,267.343 605.581,267.343 C622.454,267.343 637.262,277.639 643.204,293.211 C647.912,290.75 652.842,287.382 657.946,285.128 C658.130,286.446 658.307,287.766 658.476,289.90 C652.406,291.856 646.597,295.272 641.139,299.342 C625.976,310.648 614.375,326.554 608.235,344.334 C616.940,344.562 625.454,345.909 633.628,348.333 C639.254,334.920 648.900,323.880 660.829,316.411 ZM551.216,360.680 C558.314,355.954 565.906,352.209 573.855,349.503 C563.655,325.538 539.852,309.652 513.593,309.652 C487.334,309.652 463.533,325.538 453.332,349.503 C461.280,352.209 468.871,355.953 475.969,360.679 C481.907,345.99 496.693,334.812 513.593,334.812 C530.466,334.812 545.275,345.108 551.216,360.680 ZM329.619,68.774 C314.9,68.774 300.389,78.471 295.249,93.64 C295.617,93.330 295.992,93.584 296.357,93.856 C311.365,105.47 323.17,120.572 329.619,137.986 C336.221,120.572 347.872,105.47 362.881,93.856 C363.246,93.585 363.619,93.331 363.987,93.65 C358.846,78.480 345.203,68.774 329.619,68.774 ZM367.242,90.803 C374.340,86.76 381.932,82.332 389.881,79.626 C379.680,55.660 355.878,39.774 329.619,39.774 C303.360,39.774 279.558,55.660 269.357,79.626 C277.306,82.332 284.897,86.76 291.995,90.802 C297.933,75.221 312.718,64.935 329.619,64.935 C346.492,64.935 361.300,75.230 367.242,90.803 ZM273.190,164.403 C258.27,175.709 246.425,191.615 240.285,209.395 C248.991,209.624 257.505,210.970 265.679,213.394 C276.399,187.837 301.699,170.874 329.619,170.874 C357.540,170.874 382.839,187.837 393.559,213.394 C401.733,210.970 410.247,209.624 418.952,209.395 C412.812,191.615 401.211,175.709 386.48,164.403 C369.650,152.176 350.137,145.713 329.619,145.713 C309.101,145.713 289.588,152.176 273.190,164.403 ZM329.619,469.751 C346.492,469.751 361.300,480.47 367.242,495.619 C374.340,490.892 381.932,487.148 389.881,484.442 C379.680,460.476 355.878,444.591 329.619,444.591 C303.360,444.591 279.558,460.476 269.357,484.442 C277.306,487.148 284.897,490.892 291.995,495.618 C297.933,480.38 312.718,469.751 329.619,469.751 ZM295.249,497.880 C295.617,498.147 295.992,498.400 296.357,498.672 C311.365,509.863 323.17,525.388 329.619,542.802 C336.221,525.388 347.872,509.863 362.881,498.672 C363.246,498.401 363.619,498.148 363.987,497.881 C358.846,483.296 345.203,473.590 329.619,473.590 C314.9,473.590 300.389,483.287 295.249,497.880 ZM329.619,440.751 C357.540,440.751 382.839,457.714 393.559,483.271 C401.733,480.848 410.247,479.501 418.952,479.273 C412.812,461.492 401.211,445.587 386.48,434.281 C369.650,422.53 350.137,415.590 329.619,415.590 C309.101,415.590 289.588,422.53 273.190,434.281 C258.27,445.587 246.425,461.492 240.285,479.273 C248.991,479.501 257.505,480.848 265.679,483.271 C276.399,457.714 301.699,440.751 329.619,440.751 ZM421.607,406.121 C405.996,406.121 392.376,415.818 387.237,430.411 C387.605,430.677 387.979,430.931 388.344,431.203 C403.352,442.394 415.4,457.919 421.606,475.333 C428.208,457.919 439.860,442.394 454.868,431.203 C455.233,430.931 455.607,430.678 455.975,430.412 C450.833,415.827 437.191,406.121 421.607,406.121 ZM459.229,428.149 C466.327,423.423 473.919,419.678 481.868,416.972 C471.666,393.7 447.865,377.121 421.607,377.121 C395.348,377.121 371.546,393.7 361.344,416.972 C369.293,419.678 376.884,423.422 383.982,428.149 C389.920,412.569 404.705,402.282 421.607,402.282 C438.479,402.282 453.287,412.578 459.229,428.149 ZM329.619,203.713 C314.9,203.713 300.389,213.410 295.249,228.3 C295.617,228.269 295.992,228.523 296.357,228.795 C311.365,239.986 323.17,255.511 329.619,272.925 C336.221,255.511 347.872,239.986 362.881,228.795 C363.246,228.523 363.619,228.270 363.987,228.4 C358.846,213.419 345.203,203.713 329.619,203.713 ZM367.242,225.742 C374.340,221.15 381.932,217.271 389.881,214.564 C379.680,190.599 355.878,174.713 329.619,174.713 C303.360,174.713 279.558,190.599 269.357,214.564 C277.306,217.271 284.897,221.14 291.995,225.741 C297.933,210.160 312.718,199.873 329.619,199.873 C346.492,199.873 361.300,210.169 367.242,225.742 ZM273.190,299.342 C258.27,310.648 246.425,326.554 240.285,344.334 C248.991,344.562 257.505,345.909 265.679,348.333 C276.399,322.775 301.699,305.812 329.619,305.812 C357.540,305.812 382.839,322.775 393.559,348.333 C401.733,345.909 410.247,344.563 418.952,344.334 C412.812,326.554 401.211,310.648 386.48,299.342 C369.650,287.114 350.137,280.652 329.619,280.652 C309.101,280.652 289.588,287.114 273.190,299.342 ZM329.619,309.652 C303.360,309.652 279.558,325.538 269.357,349.503 C277.306,352.209 284.897,355.953 291.995,360.679 C297.933,345.99 312.718,334.812 329.619,334.812 C346.492,334.812 361.300,345.108 367.242,360.680 C374.340,355.954 381.932,352.209 389.881,349.503 C379.680,325.538 355.878,309.652 329.619,309.652 ZM329.619,338.652 C314.9,338.652 300.389,348.349 295.249,362.941 C295.617,363.208 295.992,363.461 296.357,363.734 C311.365,374.924 323.17,390.449 329.619,407.863 C336.221,390.449 347.872,374.924 362.881,363.734 C363.246,363.462 363.619,363.209 363.987,362.943 C358.846,348.358 345.203,338.652 329.619,338.652 ZM270.893,431.203 C271.258,430.931 271.632,430.678 271.999,430.412 C266.858,415.827 253.216,406.121 237.631,406.121 C222.22,406.121 208.402,415.818 203.262,430.410 C203.630,430.677 204.5,430.930 204.369,431.203 C219.378,442.394 231.29,457.919 237.631,475.333 C244.233,457.919 255.885,442.394 270.893,431.203 ZM237.631,402.282 C254.504,402.282 269.312,412.578 275.254,428.150 C282.352,423.423 289.944,419.679 297.893,416.972 C287.692,393.7 263.890,377.121 237.631,377.121 C211.373,377.121 187.571,393.7 177.370,416.972 C185.319,419.678 192.910,423.422 200.7,428.148 C205.946,412.569 220.731,402.282 237.631,402.282 ZM237.631,373.281 C265.552,373.281 290.851,390.244 301.571,415.802 C309.745,413.378 318.259,412.31 326.966,411.803 C320.825,394.23 309.223,378.118 294.60,366.811 C277.662,354.584 258.149,348.121 237.631,348.121 C217.113,348.121 197.601,354.584 181.203,366.811 C166.39,378.117 154.438,394.22 148.298,411.803 C157.4,412.31 165.518,413.378 173.692,415.802 C184.412,390.244 209.711,373.281 237.631,373.281 ZM270.893,296.264 C271.258,295.992 271.632,295.739 271.999,295.473 C266.858,280.888 253.216,271.183 237.631,271.183 C222.22,271.183 208.402,280.879 203.262,295.472 C203.630,295.738 204.5,295.992 204.369,296.264 C219.378,307.455 231.29,322.980 237.631,340.395 C244.233,322.980 255.885,307.455 270.893,296.264 ZM237.631,267.343 C254.504,267.343 269.312,277.639 275.254,293.211 C282.352,288.484 289.944,284.740 297.893,282.34 C287.692,258.68 263.890,242.182 237.631,242.182 C211.373,242.182 187.571,258.68 177.370,282.34 C185.319,284.739 192.910,288.483 200.7,293.210 C205.946,277.630 220.731,267.343 237.631,267.343 ZM237.631,238.343 C265.552,238.343 290.851,255.305 301.571,280.863 C309.745,278.439 318.259,277.93 326.966,276.864 C320.825,259.84 309.223,243.179 294.60,231.873 C277.662,219.645 258.149,213.183 237.631,213.183 C217.113,213.183 197.601,219.645 181.203,231.873 C166.39,243.178 154.438,259.84 148.298,276.864 C157.4,277.93 165.518,278.439 173.692,280.863 C184.412,255.305 209.711,238.343 237.631,238.343 ZM270.893,161.325 C271.258,161.54 271.632,160.800 271.999,160.534 C266.858,145.950 253.216,136.244 237.631,136.244 C222.22,136.244 208.402,145.940 203.262,160.533 C203.630,160.799 204.5,161.53 204.369,161.325 C219.378,172.517 231.29,188.42 237.631,205.456 C244.233,188.42 255.885,172.517 270.893,161.325 ZM237.631,132.404 C254.504,132.404 269.312,142.700 275.254,158.272 C282.352,153.545 289.944,149.801 297.893,147.95 C287.692,123.129 263.890,107.244 237.631,107.244 C211.373,107.244 187.571,123.129 177.370,147.95 C185.319,149.801 192.910,153.545 200.7,158.271 C205.946,142.691 220.731,132.404 237.631,132.404 ZM383.982,158.271 C389.920,142.691 404.705,132.404 421.607,132.404 C438.479,132.404 453.287,142.700 459.229,158.272 C466.327,153.545 473.919,149.801 481.868,147.95 C471.666,123.129 447.865,107.244 421.607,107.244 C395.348,107.244 371.546,123.129 361.344,147.95 C369.293,149.801 376.884,153.545 383.982,158.271 ZM421.607,136.244 C405.996,136.244 392.376,145.941 387.237,160.533 C387.605,160.800 387.979,161.53 388.344,161.325 C403.352,172.517 415.4,188.42 421.606,205.456 C428.208,188.42 439.860,172.517 454.868,161.325 C455.233,161.54 455.607,160.800 455.975,160.534 C450.833,145.950 437.191,136.244 421.607,136.244 ZM365.177,231.873 C350.14,243.178 338.413,259.84 332.273,276.864 C340.978,277.93 349.492,278.439 357.666,280.863 C368.387,255.305 393.687,238.343 421.607,238.343 C449.526,238.343 474.826,255.305 485.546,280.863 C493.720,278.439 502.234,277.93 510.940,276.864 C504.800,259.84 493.199,243.178 478.35,231.873 C461.637,219.645 442.124,213.183 421.607,213.183 C401.88,213.183 381.575,219.645 365.177,231.873 ZM421.607,242.182 C395.348,242.182 371.546,258.68 361.344,282.34 C369.293,284.740 376.884,288.484 383.982,293.210 C389.920,277.630 404.705,267.343 421.607,267.343 C438.479,267.343 453.287,277.639 459.229,293.211 C466.327,288.484 473.919,284.740 481.868,282.34 C471.666,258.68 447.865,242.182 421.607,242.182 ZM421.607,271.183 C405.996,271.183 392.376,280.879 387.237,295.472 C387.605,295.739 387.979,295.992 388.344,296.264 C403.352,307.455 415.4,322.980 421.606,340.395 C428.208,322.980 439.860,307.455 454.868,296.264 C455.233,295.992 455.607,295.739 455.975,295.473 C450.833,280.889 437.191,271.183 421.607,271.183 ZM365.177,366.811 C350.14,378.117 338.413,394.22 332.273,411.803 C340.978,412.31 349.492,413.378 357.666,415.802 C368.387,390.244 393.687,373.281 421.607,373.281 C449.526,373.281 474.826,390.244 485.546,415.802 C493.720,413.378 502.234,412.31 510.940,411.803 C504.800,394.22 493.199,378.117 478.35,366.811 C461.637,354.584 442.124,348.121 421.607,348.121 C401.88,348.121 381.575,354.584 365.177,366.811 ZM546.855,363.734 C547.220,363.462 547.594,363.209 547.961,362.943 C542.820,348.358 529.178,338.652 513.593,338.652 C497.984,338.652 484.364,348.349 479.224,362.941 C479.592,363.208 479.967,363.461 480.332,363.734 C495.340,374.924 506.991,390.449 513.593,407.863 C520.195,390.449 531.847,374.924 546.855,363.734 ZM638.843,431.203 C639.207,430.931 639.581,430.678 639.949,430.412 C634.808,415.827 621.165,406.121 605.581,406.121 C589.971,406.121 576.350,415.818 571.211,430.411 C571.579,430.677 571.954,430.931 572.318,431.203 C587.327,442.394 598.978,457.919 605.581,475.333 C612.183,457.919 623.835,442.394 638.843,431.203 ZM602.927,479.273 C596.787,461.492 585.185,445.587 570.22,434.281 C553.624,422.53 534.111,415.590 513.593,415.590 C493.75,415.590 473.563,422.53 457.165,434.281 C442.1,445.587 430.400,461.492 424.259,479.273 C432.965,479.501 441.480,480.847 449.654,483.271 C460.374,457.714 485.673,440.751 513.593,440.751 C541.514,440.751 566.813,457.714 577.534,483.271 C585.707,480.848 594.221,479.501 602.927,479.273 ZM551.216,495.619 C558.314,490.892 565.906,487.148 573.855,484.442 C563.655,460.476 539.852,444.591 513.593,444.591 C487.334,444.591 463.533,460.476 453.332,484.442 C461.280,487.148 468.871,490.892 475.969,495.618 C481.907,480.38 496.693,469.751 513.593,469.751 C530.466,469.751 545.275,480.47 551.216,495.619 ZM546.855,498.672 C547.220,498.401 547.594,498.148 547.961,497.881 C542.820,483.296 529.178,473.590 513.593,473.590 C497.984,473.590 484.364,483.287 479.224,497.880 C479.592,498.147 479.967,498.400 480.332,498.672 C495.340,509.863 506.991,525.388 513.593,542.802 C520.195,525.388 531.847,509.863 546.855,498.672 ZM510.940,546.742 C504.800,528.961 493.199,513.56 478.35,501.750 C461.637,489.523 442.124,483.60 421.607,483.60 C401.88,483.60 381.575,489.523 365.177,501.750 C350.14,513.56 338.413,528.961 332.273,546.742 C340.978,546.970 349.492,548.316 357.666,550.740 C368.387,525.183 393.687,508.220 421.607,508.220 C449.526,508.220 474.826,525.183 485.546,550.740 C493.720,548.316 502.234,546.970 510.940,546.742 ZM459.229,563.88 C466.327,558.361 473.919,554.617 481.868,551.911 C471.666,527.945 447.865,512.60 421.607,512.60 C395.348,512.60 371.546,527.945 361.344,551.911 C369.293,554.617 376.884,558.361 383.982,563.87 C389.920,547.507 404.705,537.220 421.607,537.220 C438.479,537.220 453.287,547.516 459.229,563.88 ZM454.868,566.141 C455.233,565.870 455.607,565.617 455.975,565.350 C450.833,550.766 437.191,541.60 421.607,541.60 C405.996,541.60 392.376,550.757 387.237,565.349 C387.605,565.616 387.979,565.869 388.344,566.141 C403.352,577.333 415.4,592.858 421.606,610.272 C428.208,592.858 439.860,577.333 454.868,566.141 ZM291.995,630.557 C297.933,614.976 312.718,604.689 329.619,604.689 C346.492,604.689 361.300,614.985 367.242,630.558 C374.340,625.831 381.932,622.87 389.881,619.381 C379.680,595.415 355.878,579.529 329.619,579.529 C303.360,579.529 279.558,595.415 269.357,619.381 C277.306,622.87 284.897,625.831 291.995,630.557 ZM265.679,618.210 C276.399,592.653 301.699,575.690 329.619,575.690 C357.540,575.690 382.839,592.653 393.559,618.210 C401.733,615.786 410.247,614.440 418.952,614.211 C412.812,596.431 401.211,580.526 386.48,569.219 C369.650,556.992 350.137,550.529 329.619,550.529 C309.101,550.529 289.588,556.992 273.190,569.219 C258.27,580.526 246.425,596.431 240.285,614.211 C248.991,614.440 257.505,615.786 265.679,618.210 ZM204.369,566.141 C219.378,577.333 231.29,592.858 237.631,610.272 C244.233,592.858 255.885,577.333 270.893,566.141 C271.258,565.870 271.632,565.617 271.999,565.350 C266.858,550.766 253.216,541.60 237.631,541.60 C222.22,541.60 208.402,550.757 203.262,565.349 C203.630,565.616 204.5,565.869 204.369,566.141 ZM200.7,563.87 C205.946,547.507 220.731,537.220 237.631,537.220 C254.504,537.220 269.312,547.516 275.254,563.88 C282.352,558.361 289.944,554.617 297.893,551.911 C287.692,527.945 263.890,512.60 237.631,512.60 C211.373,512.60 187.571,527.945 177.370,551.911 C185.319,554.617 192.910,558.361 200.7,563.87 ZM173.692,550.740 C184.412,525.183 209.711,508.220 237.631,508.220 C265.552,508.220 290.851,525.183 301.571,550.740 C309.745,548.317 318.259,546.970 326.966,546.742 C320.825,528.962 309.223,513.57 294.60,501.750 C277.662,489.523 258.149,483.60 237.631,483.60 C217.113,483.60 197.601,489.523 181.203,501.750 C166.39,513.56 154.438,528.961 148.298,546.742 C157.4,546.970 165.518,548.317 173.692,550.740 ZM112.382,498.672 C127.390,509.863 139.42,525.388 145.645,542.802 C152.247,525.388 163.898,509.863 178.906,498.672 C179.271,498.401 179.645,498.148 180.13,497.881 C174.871,483.296 161.229,473.590 145.645,473.590 C130.34,473.590 116.414,483.288 111.275,497.880 C111.643,498.147 112.17,498.400 112.382,498.672 ZM108.20,495.618 C113.958,480.38 128.743,469.751 145.645,469.751 C162.518,469.751 177.325,480.47 183.267,495.619 C190.365,490.892 197.957,487.148 205.906,484.442 C195.705,460.476 171.903,444.591 145.645,444.591 C119.386,444.591 95.584,460.476 85.382,484.442 C93.331,487.148 100.922,490.892 108.20,495.618 ZM53.657,406.121 C38.47,406.121 24.427,415.818 19.288,430.410 C19.655,430.677 20.30,430.930 20.395,431.203 C35.403,442.394 47.55,457.919 53.657,475.333 C60.259,457.919 71.911,442.394 86.919,431.203 C87.283,430.931 87.657,430.678 88.25,430.412 C82.884,415.827 69.241,406.121 53.657,406.121 ZM89.215,434.281 C74.52,445.587 62.451,461.492 56.311,479.273 C65.16,479.501 73.530,480.847 81.704,483.271 C92.425,457.714 117.725,440.751 145.645,440.751 C173.564,440.751 198.864,457.714 209.584,483.271 C217.758,480.847 226.272,479.501 234.978,479.273 C228.838,461.492 217.236,445.587 202.73,434.281 C185.675,422.53 166.163,415.590 145.645,415.590 C125.127,415.590 105.613,422.53 89.215,434.281 ZM112.382,363.734 C127.390,374.924 139.42,390.450 145.645,407.864 C152.247,390.450 163.898,374.924 178.906,363.734 C179.271,363.462 179.645,363.209 180.13,362.943 C174.871,348.357 161.229,338.652 145.645,338.652 C130.34,338.652 116.414,348.349 111.275,362.942 C111.643,363.208 112.17,363.462 112.382,363.734 ZM108.20,360.680 C113.958,345.99 128.743,334.812 145.645,334.812 C162.518,334.812 177.325,345.108 183.267,360.680 C190.365,355.954 197.957,352.209 205.906,349.503 C195.705,325.538 171.903,309.652 145.645,309.652 C119.386,309.652 95.584,325.538 85.382,349.503 C93.331,352.209 100.922,355.953 108.20,360.680 ZM53.657,271.183 C38.47,271.183 24.427,280.879 19.288,295.472 C19.655,295.738 20.30,295.992 20.395,296.264 C35.403,307.455 47.55,322.980 53.657,340.395 C60.259,322.980 71.911,307.455 86.919,296.264 C87.283,295.992 87.657,295.739 88.25,295.473 C82.884,280.889 69.241,271.183 53.657,271.183 ZM89.215,299.342 C74.52,310.648 62.451,326.554 56.311,344.334 C65.16,344.562 73.530,345.909 81.704,348.333 C92.425,322.775 117.725,305.812 145.645,305.812 C173.564,305.812 198.864,322.775 209.584,348.333 C217.758,345.909 226.272,344.562 234.978,344.334 C228.838,326.554 217.236,310.648 202.73,299.342 C185.675,287.114 166.163,280.652 145.645,280.652 C125.127,280.652 105.613,287.114 89.215,299.342 ZM112.382,228.795 C127.390,239.986 139.42,255.511 145.645,272.925 C152.247,255.511 163.898,239.986 178.906,228.795 C179.271,228.523 179.645,228.270 180.13,228.4 C174.871,213.419 161.229,203.713 145.645,203.713 C130.34,203.713 116.414,213.410 111.275,228.3 C111.643,228.270 112.17,228.523 112.382,228.795 ZM108.20,225.741 C113.958,210.160 128.743,199.873 145.645,199.873 C162.518,199.873 177.325,210.169 183.267,225.742 C190.365,221.15 197.957,217.271 205.906,214.564 C195.705,190.599 171.903,174.713 145.645,174.713 C119.386,174.713 95.584,190.599 85.382,214.564 C93.331,217.271 100.922,221.15 108.20,225.741 ZM89.215,164.403 C74.52,175.709 62.451,191.615 56.311,209.395 C65.16,209.624 73.530,210.970 81.704,213.394 C92.425,187.837 117.725,170.874 145.645,170.874 C173.564,170.874 198.864,187.837 209.584,213.394 C217.758,210.970 226.272,209.624 234.978,209.395 C228.838,191.615 217.236,175.709 202.73,164.403 C185.675,152.176 166.163,145.713 145.645,145.713 C125.127,145.713 105.613,152.176 89.215,164.403 ZM145.645,68.774 C130.34,68.774 116.414,78.472 111.275,93.64 C111.643,93.331 112.17,93.584 112.382,93.856 C127.390,105.47 139.42,120.572 145.645,137.986 C152.247,120.572 163.898,105.47 178.906,93.856 C179.271,93.585 179.645,93.331 180.13,93.65 C174.871,78.480 161.229,68.774 145.645,68.774 ZM181.203,96.934 C166.39,108.240 154.438,124.145 148.298,141.926 C157.4,142.154 165.518,143.500 173.692,145.924 C184.412,120.367 209.711,103.404 237.631,103.404 C265.552,103.404 290.851,120.367 301.571,145.924 C309.745,143.500 318.259,142.154 326.966,141.926 C320.825,124.146 309.223,108.240 294.60,96.934 C277.662,84.707 258.149,78.244 237.631,78.244 C217.113,78.244 197.601,84.707 181.203,96.934 ZM386.48,29.464 C369.650,17.237 350.137,10.774 329.619,10.774 C309.101,10.774 289.588,17.237 273.190,29.464 C258.27,40.771 246.425,56.676 240.285,74.457 C248.991,74.685 257.505,76.32 265.679,78.455 C276.399,52.898 301.699,35.935 329.619,35.935 C357.540,35.935 382.839,52.898 393.559,78.455 C401.733,76.32 410.247,74.685 418.952,74.457 C412.812,56.676 401.211,40.771 386.48,29.464 ZM421.607,78.244 C401.88,78.244 381.575,84.707 365.177,96.934 C350.14,108.240 338.413,124.145 332.273,141.926 C340.978,142.154 349.492,143.500 357.666,145.924 C368.387,120.367 393.687,103.404 421.607,103.404 C449.526,103.404 474.826,120.367 485.546,145.924 C493.720,143.500 502.234,142.154 510.940,141.926 C504.800,124.145 493.199,108.240 478.35,96.934 C461.637,84.707 442.124,78.244 421.607,78.244 ZM546.855,93.856 C547.220,93.585 547.594,93.331 547.961,93.65 C542.820,78.480 529.178,68.774 513.593,68.774 C497.984,68.774 484.364,78.471 479.224,93.64 C479.592,93.330 479.967,93.584 480.332,93.856 C495.340,105.47 506.991,120.572 513.593,137.986 C520.195,120.572 531.847,105.47 546.855,93.856 ZM602.927,209.395 C596.787,191.615 585.185,175.709 570.22,164.403 C553.624,152.176 534.111,145.713 513.593,145.713 C493.75,145.713 473.563,152.176 457.165,164.403 C442.1,175.709 430.400,191.615 424.259,209.395 C432.965,209.624 441.480,210.970 449.654,213.394 C460.374,187.837 485.673,170.874 513.593,170.874 C541.514,170.874 566.813,187.837 577.534,213.394 C585.707,210.970 594.221,209.624 602.927,209.395 ZM551.216,225.742 C558.314,221.15 565.906,217.271 573.855,214.564 C563.655,190.599 539.852,174.713 513.593,174.713 C487.334,174.713 463.533,190.599 453.332,214.564 C461.280,217.270 468.871,221.14 475.969,225.741 C481.907,210.160 496.693,199.873 513.593,199.873 C530.466,199.873 545.275,210.169 551.216,225.742 ZM546.855,228.795 C547.220,228.523 547.594,228.270 547.961,228.4 C542.820,213.419 529.178,203.713 513.593,203.713 C497.984,203.713 484.364,213.410 479.224,228.3 C479.592,228.269 479.967,228.523 480.332,228.795 C495.340,239.986 506.991,255.511 513.593,272.925 C520.195,255.511 531.847,239.986 546.855,228.795 ZM513.593,280.652 C493.75,280.652 473.563,287.114 457.165,299.342 C442.1,310.648 430.400,326.554 424.259,344.334 C432.965,344.562 441.480,345.909 449.654,348.333 C460.374,322.775 485.673,305.812 513.593,305.812 C541.514,305.812 566.813,322.775 577.534,348.333 C585.707,345.909 594.221,344.563 602.927,344.334 C596.787,326.554 585.185,310.648 570.22,299.342 C553.624,287.114 534.111,280.652 513.593,280.652 ZM638.843,296.264 C639.207,295.992 639.581,295.739 639.949,295.473 C634.808,280.889 621.165,271.183 605.581,271.183 C589.971,271.183 576.350,280.879 571.211,295.472 C571.579,295.739 571.954,295.992 572.318,296.264 C587.327,307.455 598.978,322.980 605.581,340.395 C612.183,322.980 623.835,307.455 638.843,296.264 ZM87.516,555.645 C84.696,552.591 81.933,549.484 79.228,546.325 C82.435,548.956 85.236,552.93 87.516,555.645 ZM181.529,626.647 C179.308,625.524 177.101,624.377 174.909,623.206 C169.145,615.422 160.449,610.202 150.627,608.871 C148.528,607.508 146.446,606.122 144.381,604.713 C144.801,604.701 145.222,604.689 145.645,604.689 C161.60,604.689 174.748,613.286 181.529,626.647 ZM280.808,658.316 C277.910,657.879 275.24,657.407 272.151,656.896 C261.989,650.579 250.89,646.998 237.631,646.998 C235.860,646.998 234.100,647.77 232.354,647.219 C229.572,646.356 226.807,645.455 224.57,644.521 C228.475,643.632 233.16,643.159 237.631,643.159 C253.638,643.159 268.777,648.742 280.808,658.316 ZM436.295,644.754 C433.631,645.653 430.951,646.517 428.258,647.349 C426.63,647.123 423.845,646.998 421.607,646.998 C408.876,646.998 396.728,650.741 386.422,657.320 C383.637,657.794 380.839,658.234 378.31,658.638 C390.125,648.868 405.422,643.159 421.607,643.159 C426.611,643.159 431.528,643.713 436.295,644.754 ZM513.593,604.689 C514.581,604.689 515.562,604.728 516.534,604.798 C514.627,606.97 512.706,607.377 510.771,608.637 C499.417,609.496 489.373,615.508 483.260,624.721 C481.224,625.783 479.178,626.827 477.118,627.847 C483.668,613.796 497.693,604.689 513.593,604.689 ZM584.536,543.101 C579.603,549.11 574.468,554.748 569.141,560.299 C572.538,553.52 577.928,547.132 584.536,543.101 Z"/>
</svg>