<?xml version="1.0" encoding="UTF-8"?>
<svg width="552px" height="116px" viewBox="0 0 552 116" version="1.1" xmlns="http://www.w3.org/2000/svg" xmlns:xlink="http://www.w3.org/1999/xlink">
    <title>title</title>
    <g id="页面-1" stroke="none" stroke-width="1" fill="none" fill-rule="evenodd">
        <g id="home-classics" transform="translate(-692.000000, -106.000000)">
            <g id="title" transform="translate(692.000000, 106.000000)">
                <path d="M473.383332,116 C491.263264,116 522.422449,109.641526 516.10426,92.05622 C509.786071,74.4709143 498.19249,66.3937763 480.319596,66.3937763 C473.383332,66.3937763 459.18406,48.2868926 453.175081,52.6901576 C442.579189,60.4546251 440.798548,84.0281675 440.798548,95.2496941" id="椭圆形" fill="#F70000"></path>
                <path d="M46.44455,110.392405 C47.8846911,110.392405 50.0449027,107.025316 50.0449027,106.063291 C50.5249497,104.860759 51.9650908,102.455696 51.9650908,102.455696 C51.9650908,99.8101266 52.2051143,98.7278481 52.2051143,92.3544304 C52.2051143,88.2658228 51.9650908,84.6582278 51.9650908,80.6898734 C51.9650908,78.5253165 52.6851614,76.3607595 52.6851614,74.1962025 C52.6851614,72.5126582 52.0851026,70.7088608 52.2051143,69.1455696 C52.2051143,68.7848101 52.6851614,67.3417722 52.6851614,66.9810127 L52.6851614,62.6518987 L53.6452554,61.5696203 L69.6068191,60.8481013 C69.9668544,60.4873418 70.3268896,60.4873418 70.6869249,60.4873418 C74.2872776,60.4873418 73.5672071,64.8164557 78.6077009,64.8164557 C83.0481359,64.8164557 80.4078772,60.7278481 85.0883358,60.7278481 C88.6911629,60.7278481 88.8450392,54.5763664 88.7855783,48.3871194 L88.7779548,47.6731557 C88.7765878,47.5542498 88.7751879,47.4354169 88.7737781,47.3167004 L88.7653853,46.6061472 C88.711099,41.8830819 88.7146704,37.4855148 90.2488413,36.1962025 C90.9689119,35.2341772 92.5290647,35.2341772 92.4090529,33.0696203 C91.0229172,29.1012658 87.5947063,27.0153995 83.8765208,24.8538245 L83.1976818,24.4595406 C82.6299699,24.1295491 82.0580389,23.7950949 81.4879831,23.4493671 C80.7679125,23.2088608 80.4078772,23.2088608 79.6878067,23.2088608 C76.087454,23.2088608 75.0073482,29.943038 70.3268896,29.943038 C67.206584,29.943038 62.6461372,29.4620253 60.9659726,29.7025316 C60.6059373,29.7025316 59.1657962,29.943038 58.6857492,29.943038 C52.9251849,29.943038 53.0451966,28.7405063 52.6851614,26.335443 C53.4052319,22.7278481 53.4052319,19.721519 55.5654435,16.7151899 C57.0055846,14.6708861 59.1657962,14.7911392 59.1657962,11.664557 C59.1657962,6.73417722 51.365032,3.96835443 49.8048792,3.96835443 C46.0845147,3.96835443 41.8841032,6.61392405 38.523774,6.61392405 C38.2837505,6.61392405 37.8037035,7.09493671 37.8037035,7.57594937 C41.2404038,9.29775604 41.3966174,12.3343969 41.4037181,16.790461 L41.4040562,17.4367089 L41.4040562,17.4367089 C41.4040562,17.6772152 41.8841032,19.1202532 41.8841032,19.6012658 C41.6440797,20.178481 41.5000656,21.4675949 41.3752534,22.799038 L41.3291989,23.2990055 C41.1625325,25.1299051 41.014018,26.8825949 40.6839856,26.8164557 C41.0440209,27.4177215 41.1640327,27.2974684 41.1640327,28.2594937 C41.1640327,29.7025316 40.6839856,30.4240506 39.2438446,30.9050633 C30.9630333,30.9050633 21.1220692,31.1455696 18.7218341,31.1455696 C16.2015872,30.664557 16.5616225,27.056962 14.0413756,27.056962 C12.4812227,26.335443 10.4410229,25.2531646 9.00088178,25.3734177 C7.5607407,25.4936709 1.44014108,25.6139241 0,27.778481 C0.240023514,28.5 0.960094057,28.5 1.6801646,28.9810127 C4.32042325,29.943038 4.68045853,33.3101266 4.68045853,35.9556962 C4.68045853,37.3987342 4.67235773,38.6794304 4.65858638,39.9012777 L4.65278117,40.3871233 C4.64262098,41.1924528 4.63008455,41.97776 4.61589196,42.7737097 L4.60718343,43.2528019 C4.50191703,48.9429778 4.32042325,55.4787975 4.32042325,73.835443 C5.16050555,75.8797468 7.20070542,78.164557 9.72095232,78.164557 C13.4413168,78.164557 14.7614461,70.3481013 14.7614461,68.0632911 C14.9036823,67.6000938 14.9300223,67.0313243 14.9341196,66.4320563 L14.9342843,65.7489722 C14.9354549,64.5258026 14.988135,63.2932489 15.8415519,62.6518987 L16.9425429,62.6514054 C33.0673234,62.6368756 40.0187405,62.3061624 40.4263655,62.2916326 L40.4439621,62.2911392 L40.4439621,62.2911392 C41.1640327,62.6518987 41.8841032,63.7341772 41.8841032,64.4556962 C41.5240679,64.9367089 41.1640327,66.6202532 41.1640327,67.3417722 C41.1640327,69.2658228 41.4040562,71.4303797 41.4040562,73.835443 C41.1640327,74.1962025 40.6839856,81.5316456 40.6839856,82.4936709 C40.6839856,84.6582278 40.5639739,86.7025316 41.4040562,88.2658228 C41.4040562,98.4873418 39.6038798,107.14557 46.44455,110.392405 Z M64.31434,57.9620253 L63.8462548,57.9620253 L63.8462548,57.9620253 C60.6059373,57.9620253 57.2456081,57.6012658 54.1253024,57.6012658 C52.8051731,56.8797468 52.6851614,55.0759494 52.6851614,53.3924051 C52.6851614,47.1392405 52.5651496,40.5253165 53.4052319,34.5126582 L53.6452554,34.0316456 C54.365326,33.9113924 57.7256552,33.7911392 59.4058198,33.7911392 C60.9659726,33.7911392 62.4061137,34.0316456 64.20629,34.0316456 C65.1663841,34.0316456 66.9665604,33.5506329 67.0865722,33.7911392 C70.2068779,34.6329114 74.2872776,33.4303797 74.2872776,36.9177215 L74.2872776,42.4493671 L74.2872776,42.4493671 L73.9272424,44.1329114 L73.9272424,53.9936709 C73.9272424,57.8202984 68.5707992,57.9569636 64.31434,57.9620253 L64.31434,57.9620253 Z M21.9621515,59.7658228 L21.6021163,59.7658228 C15.2414931,59.7658228 15.8415519,58.443038 15.1214814,54.9556962 C16.0815754,54.1139241 15.8415519,48.943038 15.8415519,46.2974684 C15.8415519,43.4113924 15.4815167,35.7151899 18.7218341,35.2341772 C23.4022926,35.2341772 29.162857,35.2341772 33.4832802,34.7531646 C34.8034096,34.7531646 34.6833978,34.5126582 37.0836329,34.5126582 C40.5087304,34.5126582 41.1442575,35.4443854 41.16357,42.8094672 L41.1640327,57.9620253 C38.7637975,59.1072936 35.8192914,59.052757 32.9525382,59.044966 L32.5231862,59.0443038 C31.8982193,59.0443038 29.7815861,59.2028291 27.6052523,59.3724639 L27.0371002,59.4168716 C24.388192,59.6243787 21.8353467,59.8293528 21.9621515,59.7658228 Z M127.932533,111.835443 C130.092745,111.835443 133.693097,105.582278 134.413168,103.898734 C134.413168,100.772152 138.013521,100.531646 139.813697,100.531646 C144.734179,99.0886076 148.934591,99.3291139 153.975084,98.3670886 C156.855366,98.3670886 159.255602,98.8481013 162.135884,98.8481013 C163.576025,98.8481013 165.496213,98.3670886 167.176378,98.3670886 C167.913194,99.0438622 172.482598,99.2169904 178.1201,99.2246768 L178.895211,99.2247313 C180.71804,99.2226138 182.63628,99.2053034 184.560882,99.1836945 L185.798126,99.1693182 C188.957733,99.1316132 192.083004,99.0886076 194.779082,99.0886076 C196.459246,100.291139 196.219223,106.78481 199.339529,106.78481 C204.380022,106.78481 208.460422,96.2025316 208.700446,91.8734177 C208.700446,90.9113924 209.180493,86.4620253 209.180493,86.1012658 L209.180493,53.5126582 C209.180493,48.1012658 208.940469,43.0506329 207.980375,38.721519 C207.980375,34.8734177 208.580434,30.9050633 208.460422,26.4556962 C207.980375,25.4936709 207.860363,25.0126582 207.980375,24.6518987 C207.980375,14.1898734 213.140881,16.5949367 213.140881,11.3037975 C213.140881,9.5 209.180493,5.7721519 208.700446,5.7721519 C206.420222,5.17088608 204.139999,2.16455696 201.49974,2.16455696 C199.339529,2.16455696 199.339529,4.81012658 197.659364,5.05063291 C193.338941,5.7721519 188.53847,5.7721519 184.218047,6.25316456 C181.817812,6.25316456 179.177553,7.21518987 176.537295,7.21518987 L176.297271,7.69620253 C172.936942,7.69620253 169.096566,7.69620253 165.496213,7.93670886 C165.24476,7.93670886 164.268882,8.13467666 163.3275,8.32321741 L162.822002,8.42387636 C162.16473,8.55351761 161.598688,8.65822785 161.415813,8.65822785 C154.043662,8.65822785 152.365947,9.02634978 151.003131,9.23670517 L150.840761,9.26115688 C150.786911,9.26903259 150.733222,9.27662221 150.679347,9.28389209 L150.516826,9.30470886 C150.134708,9.35088608 149.726668,9.37974684 149.174614,9.37974684 C148.814579,9.37974684 144.494156,10.5822785 144.13412,10.5822785 L143.774085,10.5822785 C143.174026,9.98101266 141.013815,10.1012658 139.813697,10.1012658 C136.57338,9.62025316 133.933121,5.05063291 129.732709,2.88607595 C125.892333,2.88607595 122.29198,6.25316456 119.291687,6.97468354 C119.291687,7.78278481 120.0444,8.21377215 120.833244,8.64777641 L121.171443,8.83507119 C121.675792,9.11961519 122.152767,9.4278481 122.411992,9.86075949 C124.692216,12.7468354 124.33218,15.9936709 124.33218,19.4810127 C124.33218,24.0506329 125.052251,30.9050633 125.052251,38 L125.052251,67.221519 L125.412286,68.4240506 L125.412286,87.1835443 C125.412286,91.0316456 125.052251,92.835443 125.052251,97.4050633 C125.052251,98.308841 125.032444,99.4408531 125.02904,100.67109 L125.028765,101.245392 C125.029727,101.729001 125.033939,102.224181 125.043461,102.723535 L125.057569,103.324291 L125.057569,103.324291 L125.077566,103.926214 C125.232269,107.93661 125.832327,111.835443 127.932533,111.835443 Z M129.372674,4.81012658 C129.252662,4.81012658 129.012639,4.56962025 129.012639,4.44936709 C129.012639,4.20886076 129.252662,4.08860759 129.372674,4.08860759 C129.492686,4.08860759 129.612698,4.20886076 129.612698,4.44936709 C129.612698,4.56962025 129.492686,4.81012658 129.372674,4.81012658 Z M197.659364,7.93670886 C197.299329,7.93670886 197.299329,7.8164557 197.299329,7.69620253 C197.299329,7.33544304 197.299329,7.21518987 197.659364,7.21518987 C197.779376,7.21518987 197.779376,7.33544304 197.779376,7.69620253 C197.779376,7.8164557 197.779376,7.93670886 197.659364,7.93670886 Z M140.173732,95.4810127 C136.693391,95.4810127 134.773203,95.3607595 134.773203,91.8734177 L134.773203,76.3607595 C135.133238,75.7594937 135.013227,72.7531646 135.853309,72.7531646 C136.557894,72.7531646 137.703064,73.6361056 138.857708,74.6044925 L139.351879,75.0224218 C140.582472,76.0686982 141.753242,77.0822785 142.333944,77.0822785 C146.894391,77.0822785 157.815461,68.4240506 165.736237,68.4240506 C166.936354,68.4240506 167.176378,68.4240506 167.176378,69.5063291 C167.176378,72.0316456 163.21599,77.443038 159.735649,80.3291139 C157.695449,80.3291139 153.255014,85.6202532 150.97479,87.1835443 C150.97479,87.1835443 150.963989,87.2015823 150.944187,87.2344114 L150.859579,87.3740253 C150.571551,87.8473418 149.822678,89.0594937 149.534649,89.3481013 C149.534649,90.0696203 149.774673,90.1898734 150.25472,90.1898734 C153.31502,89.0995781 155.758726,87.0053024 158.197294,84.8698378 L159.058747,84.1160019 C160.641337,82.7365823 162.251895,81.3873418 164.056072,80.3291139 C164.492478,79.8371692 165.771942,78.5998535 167.15059,77.2947769 L167.705575,76.7707386 C169.190239,75.3722321 170.674902,73.9994246 171.256777,73.4746835 C172.576907,72.6329114 173.176965,72.3924051 175.577201,72.3924051 C177.857424,73.3544304 179.777612,76.9620253 181.097741,78.164557 C183.978024,81.2911392 187.338353,87.3037975 191.418753,88.6265823 C191.8988,88.6265823 194.059011,87.3037975 194.059011,84.6582278 C194.059011,82.1329114 193.338941,79.9683544 193.338941,77.443038 C193.338941,73.5949367 194.059011,70.8291139 194.059011,66.2594937 C190.458658,68.0632911 193.098917,72.0316456 189.018517,72.0316456 C186.843759,72.0316456 185.485168,70.4544408 184.211375,68.887857 L183.880523,68.4804679 C183.440671,67.9403878 183.003383,67.4182969 182.537883,66.9810127 C181.217753,65.778481 179.177553,63.4936709 179.897624,63.3734177 C179.897624,61.9303797 182.537883,58.5632911 183.257953,57.1202532 C184.698094,55.6772152 185.538176,52.6708861 186.858306,51.3481013 C188.53847,47.1392405 190.458658,44.6139241 190.458658,41.0063291 C190.458658,37.7594937 187.8184,37.6392405 186.138235,35.1139241 L183.497977,35.1139241 C182.777906,35.1139241 182.177847,35.2341772 181.817812,35.835443 C182.057835,37.3987342 183.01793,38.9620253 182.777906,40.164557 C181.577788,43.0506329 180.137647,46.778481 179.297565,46.778481 C176.89733,46.778481 177.257365,39.0822785 177.017342,35.835443 C177.017342,34.7531646 176.537295,34.3924051 176.537295,32.9493671 L176.537529,32.7076424 C176.544795,30.2744388 176.777318,29.8303006 184.218047,30.0632911 C184.698094,30.0632911 186.138235,30.4240506 186.138235,30.4240506 L186.685098,30.4236611 C190.318237,30.4158701 193.681831,30.2522604 195.739176,26.8164557 C195.499152,26.4556962 194.779082,25.0126582 194.299035,24.6518987 C194.299035,23.5696203 191.8988,22.1265823 191.8988,20.9240506 C191.8988,19.9620253 193.338941,19.9620253 193.338941,17.7974684 C193.338941,14.6708861 187.8184,13.5886076 187.8184,12.0253165 C187.8184,10.8603639 191.647759,10.5982496 192.759963,10.5822785 L192.858894,10.5822785 C194.299035,10.5822785 195.739176,10.5822785 196.939293,12.0253165 C196.939293,19.2405063 197.299329,24.5316456 197.179317,25.3734177 C197.179317,26.6962025 196.579258,27.4177215 196.939293,27.5379747 C196.939293,27.8987342 196.939293,28.2594937 197.179317,28.6202532 C197.659364,29.7025316 197.899387,34.7531646 197.899387,35.835443 L197.899387,45.9367089 L197.659364,56.8797468 C197.899387,57.6012658 197.899387,57.8417722 197.899387,58.3227848 C197.899387,61.0886076 197.299329,66.5 197.659364,68.4240506 C197.659364,70.1075949 198.379434,75.0379747 198.379434,79.2468354 C197.779376,79.9683544 197.779376,80.5696203 197.779376,80.9303797 C197.779376,81.4113924 197.899387,81.7721519 197.899387,82.1329114 C197.899387,82.8544304 197.779376,83.2151899 197.179317,83.9367089 L197.179317,90.4303797 C195.859188,93.3164557 191.298741,93.7974684 188.298447,93.7974684 C180.137647,94.0379747 171.976848,94.6392405 164.056072,94.5189873 C162.855954,94.0379747 162.135884,94.0379747 161.17579,94.0379747 C153.01499,94.0379747 146.894391,94.7594937 142.693979,94.7594937 C142.549965,94.7594937 142.175528,94.8749367 141.755007,95.0134684 L141.325952,95.1562757 C140.823396,95.3238819 140.341749,95.4810127 140.173732,95.4810127 Z M177.257365,25.0126582 C177.257365,21.164557 177.6174,20.3227848 179.177553,17.7974684 L179.177553,16.5949367 C179.297565,15.2721519 175.097154,14.6708861 175.097154,12.9873418 C175.097154,11.5443038 179.6576,10.8227848 182.777906,10.8227848 C185.418165,11.7848101 186.378259,17.3164557 186.378259,18.7594937 C186.378259,21.164557 187.098329,22.2468354 188.53847,23.8101266 C188.53847,25.3734177 183.257953,26.0949367 181.817812,26.0949367 C180.497683,26.0949367 178.217459,26.4556962 177.257365,25.0126582 Z M135.493274,69.1455696 L134.773203,68.4240506 C134.773203,61.0886076 134.413168,53.8734177 134.413168,46.2974684 C134.413168,45.1540442 134.438198,43.9144797 134.478924,42.651252 L134.502639,41.9603077 C134.695528,36.6517551 135.133238,31.1598369 135.133238,30.7848101 C135.181243,30.0632911 135.186044,29.0243038 135.185084,27.8236962 L135.184368,27.2586611 C135.184226,27.1627651 135.184084,27.0660546 135.183959,26.9686006 L135.183754,26.0733549 C135.184799,25.2631412 135.190208,24.4189621 135.208705,23.5771369 L135.225169,22.946777 C135.340312,19.1740754 135.764685,15.6329114 137.29345,15.6329114 C137.797499,15.6329114 139.320849,15.4757806 140.912151,15.3081744 L141.595525,15.2361294 C143.186827,15.0685232 144.710177,14.9113924 145.214226,14.9113924 C152.414931,14.9113924 159.85566,12.7468354 167.176378,12.7468354 C171.016754,12.7468354 170.05666,18.278481 170.05666,21.4050633 L170.05622,21.6810851 C170.049185,23.2612895 169.929589,26.4769173 167.896448,26.8164557 C166.216284,27.1772152 164.296095,27.2974684 162.615931,27.2974684 L160.995772,27.2786788 L160.995772,27.2786788 L157.755455,27.1960047 C157.215402,27.184731 156.675349,27.1772152 156.135296,27.1772152 C155.312358,27.1772152 154.425741,27.1919401 153.511832,27.2171827 L152.898916,27.2355232 C152.488142,27.2487274 152.073574,27.2638245 151.658408,27.2804451 L151.035608,27.3064727 C146.470973,27.5050435 142.027134,27.8656198 141.956093,27.8965989 L141.956227,27.8980113 L141.716106,27.8809189 C141.260505,27.8252461 140.693783,27.6582278 140.293744,27.6582278 C139.693685,27.6582278 139.453662,28.0189873 139.453662,29.3417722 C140.173732,30.9050633 141.853897,31.9873418 143.41405,31.8670886 C148.094508,31.5063291 152.774967,31.5063291 157.575437,31.1455696 L157.576223,31.1447153 L157.624318,31.1380889 C158.015201,31.0892565 160.615549,30.8118469 163.325635,30.6175563 L163.868494,30.5798987 L163.868494,30.5798987 L164.410545,30.5450118 C165.581421,30.4728253 166.720333,30.4240506 167.656425,30.4240506 C168.616519,30.7848101 169.096566,30.7848101 169.336589,31.8670886 C169.336589,32.9493671 170.05666,37.6392405 170.05666,38.721519 C170.28647,40.1031511 170.445869,41.9433675 170.63598,43.722039 L170.700626,44.3119366 C170.997902,46.9497969 171.389556,49.3191489 172.216871,49.664557 C172.216871,53.8734177 172.81693,57.9620253 172.696918,61.4493671 C172.696918,62.6518987 169.816636,65.778481 168.616519,65.778481 C167.656425,65.778481 166.456307,65.5379747 165.016166,65.5379747 C160.455719,65.5379747 155.175202,67.7025316 150.614755,67.7025316 C145.934297,67.7025316 140.533768,69.3860759 135.493274,69.1455696 Z M146.654367,65.778481 C148.094508,65.778481 149.894685,62.1708861 150.97479,61.2088608 C152.909525,59.8824319 156.399454,59.7680313 157.925754,59.7638151 L158.221481,59.7641965 C158.353034,59.764829 158.45916,59.7658228 158.535531,59.7658228 C161.89586,59.7658228 165.016166,60.4873418 165.016166,57.1202532 C165.016166,55.6772152 164.776142,54.7151899 164.776142,53.2721519 C164.776142,51.1075949 165.016166,49.1835443 165.016166,47.0189873 C165.016166,46.778481 165.016166,46.2974684 164.776142,45.5759494 L164.776142,39.0822785 C164.296095,38.4810127 162.735943,36.9177215 160.695743,36.9177215 C159.255602,36.9177215 158.535531,39.0822785 156.375319,39.443038 C154.215108,40.164557 150.97479,39.8037975 149.174614,39.8037975 C147.974496,38.3607595 146.17432,36.7974684 144.13412,36.9177215 L143.774085,39.0822785 L143.774085,61.2088608 C144.014108,61.3291139 144.614167,65.778481 146.654367,65.778481 Z M171.256777,38 C171.016754,38 171.016754,38 171.016754,37.7594937 C171.016754,37.7594937 171.016754,37.6392405 171.256777,37.6392405 C171.376789,37.6392405 171.376789,37.7594937 171.376789,37.7594937 C171.376789,38 171.376789,38 171.256777,38 Z M205.58014,43.7721519 C205.256108,43.7721519 205.223705,43.5773418 205.220465,43.4507152 L205.220105,43.4113924 C205.220105,43.1708861 205.220105,43.0506329 205.58014,43.0506329 C205.683007,43.0506329 205.697702,43.1389822 205.699802,43.3156807 L205.700152,43.4113924 C205.700152,43.5316456 205.700152,43.7721519 205.58014,43.7721519 Z M152.534943,57.1202532 C149.054602,57.1202532 149.894685,51.3481013 149.894685,49.1835443 C149.894685,44.4936709 151.094802,43.7721519 154.215108,43.7721519 C154.321597,43.7721519 154.425515,43.7715078 154.526889,43.7709635 L154.918882,43.7709635 C156.937834,43.793359 157.815461,44.3124443 157.815461,52.5506329 C157.815461,56.1582278 155.895272,57.1202532 152.534943,57.1202532 Z M176.297271,60.7278481 C176.087251,60.7278481 176.060998,60.6357793 176.057716,60.5322018 L176.057248,60.4873418 C176.057248,60.1265823 176.057248,60.0063291 176.297271,60.0063291 C176.403948,60.0063291 176.415801,60.101344 176.417118,60.3758313 L176.417283,60.4873418 C176.417283,60.6075949 176.417283,60.7278481 176.297271,60.7278481 Z M174.13706,63.6139241 C174.017048,63.0126582 174.85713,61.5696203 175.097154,60.7278481 L175.577201,61.2088608 C175.577201,62.1708861 174.85713,63.3734177 174.13706,63.6139241 Z M173.416989,66.2594937 L172.936942,66.2594937 L173.416989,65.778481 L173.416989,66.2594937 Z M302.429628,47.3797468 C300.629451,47.3797468 300.029393,46.1772152 298.709263,44.8544304 C298.709263,43.9479065 298.616473,42.6384832 298.497511,41.3099877 L298.44512,40.7405838 C298.239632,38.5619721 297.989193,36.4798767 297.989193,36.1962025 L297.988383,35.872479 C297.987926,35.7656574 297.987362,35.6599368 297.986937,35.5553612 L297.986793,35.0926482 C298.002319,32.2129632 298.429861,30.3169502 304.949875,30.4240506 C305.669945,30.4240506 307.470122,30.9050633 307.470122,30.9050633 L307.830157,31.6265823 C307.950169,31.7468354 308.190192,38.2405063 308.190192,39.5632911 C308.190192,41.2468354 308.07018,42.6898734 307.830157,44.8544304 C307.35011,47.7405063 303.629745,47.3797468 302.429628,47.3797468 Z M265.946054,47.8607595 C261.025572,47.8607595 263.785842,36.0759494 262.345701,36.9177215 L262.345701,34.7531646 C262.345701,33.9113924 261.985666,31.6265823 263.065772,31.6265823 C263.945858,31.185654 265.02763,31.14891 266.033771,31.145848 L272.786724,31.1455696 C273.86683,31.7468354 273.986841,33.3101266 273.986841,34.6329114 L273.986841,35.9556962 C273.986841,36.3618847 274.029631,37.8399594 274.079076,39.3761541 L274.102853,40.1041816 C274.158831,41.7944324 274.215971,43.3601425 274.225485,43.4325279 L274.226479,43.4329739 L274.225946,43.4745867 C274.209414,44.1454889 273.969697,47.5 273.506794,47.5 C270.5065,48.1012658 269.666418,47.8607595 265.946054,47.8607595 Z M289.348346,47.5 L282.867711,47.5 C279.267359,47.5 279.987429,41.0063291 279.987429,38.3607595 C279.987429,34.7531646 279.267359,31.1455696 282.627688,31.1455696 L289.108323,31.1455696 C291.93426,31.1455696 291.294425,37.8595405 291.269274,40.15723 L291.268534,40.2848101 C291.268534,41.7278481 291.508558,41.7278481 291.508558,46.056962 C291.508558,46.778481 290.068417,47.5 289.348346,47.5 Z M303.509734,70.7088608 C303.149698,70.7088608 300.629451,70.2278481 300.149404,70.2278481 C299.909381,69.9873418 298.709263,68.7848101 298.709263,68.0632911 L299.429334,53.2721519 C299.429334,51.9286338 301.197831,51.8359774 302.507164,51.8295873 L302.789663,51.8291139 L302.789663,51.8291139 C303.67535,51.8291139 304.428832,51.7706709 305.069006,51.7652941 L305.278227,51.7656203 C308.012575,51.8002532 308.550227,53.1278481 308.550227,65.5379747 C308.550227,71.3101266 306.510028,70.7088608 303.509734,70.7088608 Z M288.379216,71.7149233 L288.024577,71.7087772 C287.199988,71.6893612 286.401391,71.6397093 285.747994,71.6708861 C284.067829,71.6708861 281.907617,71.4303797 281.187547,69.5063291 C281.187547,67.7025316 280.587488,63.9746835 280.467476,63.7341772 L280.466951,62.7725025 C280.463487,57.0466356 280.505375,52.1898734 283.347758,52.1898734 L290.548464,52.1898734 C292.588664,52.1898734 292.708676,61.2088608 292.708676,64.0949367 C292.708676,65.5379747 292.948699,66.9810127 292.948699,68.5443038 C292.948699,71.4214721 290.630941,71.7380233 288.379216,71.7149233 L288.379216,71.7149233 Z M266.336242,72.3920443 L265.225983,72.3924051 L265.225983,72.3924051 C263.905854,71.9113924 263.545819,70.7088608 263.545819,69.3860759 C263.545819,68.5443038 263.785842,67.7025316 263.785842,66.9810127 C263.785842,65.6582278 263.425807,64.0949367 263.425807,62.6518987 C263.425807,62.2911392 263.425807,61.2088608 263.785842,60.8481013 L263.785842,55.0759494 C265.946054,51.7088608 265.946054,52.7911392 270.266477,52.5506329 C271.346583,52.5506329 273.986841,52.9113924 273.986841,52.9113924 L274.226865,53.2721519 C274.856927,55.7072785 274.946935,61.0510285 274.952607,65.4985166 L274.952607,66.4705476 C274.951473,67.5837631 274.946935,68.6177918 274.946935,69.5063291 C274.946935,72.2481013 273.105655,72.3851899 266.336242,72.3920443 L266.336242,72.3920443 Z M234.502973,113.759494 C237.503267,113.759494 253.464831,106.905063 257.305207,104.620253 C265.225983,100.892405 271.466595,95.4810127 279.267359,90.9113924 C279.987429,90.1898734 279.987429,90.1898734 279.987429,88.7468354 C279.987429,87.3037975 275.787018,82.0126582 273.986841,78.8860759 C273.506794,78.6455696 273.266771,78.6455696 272.5467,78.6455696 C270.626512,78.6455696 266.906148,85.6202532 265.586018,87.3037975 C258.86536,96.0822785 249.144408,102.696203 242.183726,107.506329 C239.543467,109.189873 233.542879,111.71519 233.542879,113.037975 C233.542879,113.759494 233.782903,113.759494 234.502973,113.759494 Z M313.950757,108.227848 C316.591015,108.227848 322.591603,100.772152 322.591603,96.6835443 C322.591603,92.9556962 318.99125,91.5126582 316.110968,89.7088608 C309.270298,85.7405063 302.669651,81.7721519 294.868887,79.3670886 C294.148817,79.3670886 293.66877,80.0886076 293.66877,80.3291139 L293.66877,81.0506329 C295.108911,82.9746835 297.149111,84.1772152 298.709263,85.8607595 C302.669651,90.3101266 306.270004,95.2405063 307.470122,100.772152 C307.470122,103.898734 310.950463,108.227848 313.950757,108.227848 Z M254.424925,72.3924051 C251.544643,72.8734177 249.384431,72.8734177 246.864184,72.8734177 C241.823691,72.8734177 237.383255,72.3924051 232.342762,72.3924051 C232.342762,72.3924051 231.022632,73.5949367 231.382668,73.835443 C234.382962,76.9620253 237.263244,80.8101266 240.023514,80.8101266 C245.064008,80.8101266 249.744466,79.2468354 254.78496,78.8860759 C269.668818,77.9937975 276.664232,77.6082057 283.346804,77.4249508 L284.102392,77.405053 C289.765387,77.262057 295.40894,77.2566456 305.669945,77.2025316 C307.683702,77.2025316 313.23472,77.2647137 318.694229,77.3258418 L319.783836,77.3380346 C324.671899,77.3926705 329.289886,77.443038 330.992426,77.443038 C333.152638,77.443038 335.552873,78.164557 338.193131,78.164557 C339.153225,78.164557 341.313437,76 341.313437,75.0379747 C341.313437,73.835443 341.313437,73.835443 340.593367,73.1139241 C340.041313,72.5607595 338.42269,70.6080886 336.695379,68.6605068 L336.24294,68.153481 C334.352755,66.0490506 332.432567,64.0949367 331.712497,64.0949367 L331.23245,64.0949367 L326.551991,68.5443038 C325.543892,69.2177215 323.908532,69.262616 322.816798,69.265609 L322.255658,69.2655601 C319.490613,69.258861 319.009249,69.0813359 318.991758,64.3769212 L318.990467,64.097093 L318.99125,64.0949367 L318.989051,64.0839169 C318.962946,63.8157359 318.709734,59.9771367 318.51134,56.1699258 L318.478831,55.5362989 C318.361844,53.2185948 318.27118,50.9873418 318.27118,49.664557 L318.27118,33.0696203 C316.831039,32.4683544 323.311674,28.7405063 323.311674,25.8544304 C323.311674,24.4113924 314.310792,19.6012658 313.230686,19.6012658 C310.350404,19.6012658 308.550227,26.6962025 304.949875,26.0949367 C303.389722,26.0949367 300.629451,25.7341772 299.18931,25.3734177 C296.669063,23.8101266 298.709263,17.9177215 297.989193,17.7974684 C297.989193,11.7848101 299.909381,10.7025316 302.069593,7.69620253 C302.429628,7.33544304 302.429628,6.73417722 302.429628,5.89240506 C300.149404,3.60759494 297.149111,2.0443038 293.428746,0.481012658 C290.188429,0.481012658 284.7879,1.56329114 285.747994,3.00632911 C284.907911,3.48734177 288.388252,4.56962025 288.388252,5.89240506 C290.068417,8.77848101 289.828393,11.664557 290.068417,14.9113924 C290.068417,17.3164557 290.908499,19.6012658 290.788487,22.1265823 C290.788487,23.6898734 290.548464,25.8544304 289.828393,26.8164557 C282.7477,26.8164557 280.467476,28.2594937 280.467476,20.3227848 C280.467476,19 281.187547,17.7974684 281.42757,15.6329114 C282.147641,13.8291139 284.307853,11.664557 284.307853,9.5 C284.307853,7.33544304 274.826924,2.64556962 274.706912,2.64556962 C272.906736,2.64556962 269.306383,5.29113924 269.906442,6.61392405 C271.346583,8.77848101 273.986841,11.664557 273.986841,14.5506329 L273.986841,25.8544304 L273.266771,26.5759494 C269.78643,26.9367089 266.906148,27.2974684 263.065772,27.2974684 C260.425513,25.8544304 257.425219,24.5316456 254.424925,23.9303797 C252.984784,23.9303797 249.384431,25.8544304 249.384431,26.8164557 C249.384431,28.2594937 250.464537,28.0189873 251.184608,28.7405063 C255.709051,30.4841772 255.859866,38.9700422 255.864893,44.7477925 L255.865841,45.8934796 C255.883753,52.5399283 256.206415,63.7988157 256.224327,64.0966175 L256.224355,64.1001031 L256.225697,64.2497092 C256.243905,66.7429594 256.657644,72.3924051 254.424925,72.3924051 Z M414.400597,64.335443 C416.200774,64.335443 421.361279,63.6139241 424.961632,63.6139241 L435.522666,63.6139241 C437.922902,63.6139241 439.84309,62.2911392 442.003301,62.6518987 C442.363337,63.3734177 445.603654,62.5316456 446.563748,63.3734177 C446.563748,63.3549172 446.617718,63.3478017 446.70774,63.3455028 L446.867574,63.344846 C447.475553,63.3492248 448.760886,63.3919182 448.483936,62.6518987 C448.327399,62.5996147 447.966683,62.1608839 447.599063,61.6915141 L447.37924,61.409062 C446.9805,60.8949295 446.621145,60.4298294 446.563748,60.4873418 C444.370302,58.8888997 444.164763,59.1163703 444.158014,54.2746988 L444.157991,53.7155243 C444.158809,52.9412099 444.162536,52.0500338 444.163354,51.0195764 L444.163513,50.6265823 C444.163513,50.3860759 444.163513,48.4620253 444.883583,47.7405063 L445.603654,48.221519 L456.404712,48.221519 C458.924959,48.221519 458.924959,46.8987342 460.005065,47.5 L461.805241,46.056962 C461.861913,44.5237342 461.41011,44.3044763 460.904783,44.1708797 L460.634756,44.1014047 C460.154709,43.96812 459.698368,43.718706 459.64503,42.3291139 C459.284994,41.6075949 458.564924,41.6075949 458.204889,41.6075949 C456.404712,41.6075949 456.044677,42.3291139 455.324606,43.7721519 C453.284406,43.7721519 450.884171,44.4936709 449.204007,44.4936709 C446.803772,44.4936709 444.883583,44.1329114 444.883583,41.2468354 C444.883583,37.3987342 449.924077,36.9177215 451.364218,33.3101266 C451.004183,32.5886076 448.003889,31.8670886 447.283819,31.5063291 C447.043795,31.2658228 444.64356,29.7025316 442.963395,29.7025316 C442.243325,29.3417722 442.003301,28.9810127 442.003301,28.2594937 C442.003301,26.4556962 444.883583,25.3734177 444.883583,24.6518987 C443.683466,23.9303797 442.003301,22.3670886 442.003301,20.9240506 C442.003301,20.0360273 444.048472,19.9677178 444.929469,19.9624632 L445.123607,19.9620253 L445.123607,19.9620253 C449.324018,19.9620253 452.564336,20.2025316 457.484818,20.2025316 C458.204889,19.9620253 458.564924,19.9620253 458.564924,19.2405063 C458.564924,18.278481 455.684642,17.7974684 455.684642,16.5949367 C455.324606,15.8734177 450.644148,12.0253165 449.924077,12.0253165 L449.44403,12.0253165 C448.243913,12.0253165 447.043795,13.7088608 445.603654,13.4683544 C443.083407,13.9493671 441.283231,15.6329114 437.682878,15.8734177 L437.337159,15.8731768 C434.682747,15.8677562 430.722196,15.7403717 430.722196,12.7468354 C430.722196,10.5822785 431.922314,9.37974684 433.602478,7.93670886 C433.72249,7.93670886 433.842502,8.05696203 434.082525,8.05696203 C435.282643,8.05696203 437.682878,6.37341772 437.682878,5.53164557 C437.682878,2.76582278 430.242149,0 428.561985,0 C426.88182,0 423.641502,1.32278481 422.08135,2.16455696 C422.08135,3.36708861 422.80142,3.60759494 422.80142,4.08860759 C421.841326,6.25316456 419.921138,11.3037975 419.441091,13.4683544 C419.103558,14.2950949 418.625386,14.9574268 418.127437,15.5948038 L417.827261,15.9753511 C416.82521,17.2412975 415.840738,18.5189873 415.840738,20.9240506 C415.600715,22.2468354 412.480409,21.8860759 411.280292,24.6518987 C409.600127,27.2974684 406.959868,29.3417722 405.759751,32.5886076 C405.03968,32.4683544 401.919374,33.4303797 401.919374,35.835443 C405.279704,35.835443 407.679939,30.5443038 409.84015,30.4240506 C410.680233,30.4240506 411.16028,28.9810127 412.240386,28.2594937 C412.608603,28.0271864 412.979921,27.8057492 413.349583,27.5886528 L413.792078,27.3298031 C416.512147,25.7412582 419.037415,24.2474108 419.441091,20.2025316 C419.921138,19.6012658 424.481585,21.4050633 423.521491,20.9240506 C426.401773,21.0443038 429.882114,20.6835443 433.362455,20.6835443 C434.202537,20.6835443 434.322549,21.7658228 434.322549,22.3670886 C434.322549,26.0949367 429.282055,28.8607595 429.042032,31.1455696 C428.561985,31.8670886 427.121843,32.9493671 427.121843,34.0316456 C429.762102,34.0316456 431.442267,31.8670886 434.082525,31.8670886 C436.056052,31.8670886 436.244633,35.2815659 436.249311,37.698799 L436.248711,38.0813446 C436.247004,38.4537553 436.242737,38.7936709 436.242737,39.0822785 C436.962808,40.164557 436.962808,41.6075949 436.962808,43.0506329 C436.962808,44.2531646 435.882702,44.6139241 434.922608,44.6139241 C434.202537,44.6139241 433.482467,44.4936709 432.882408,44.4936709 C431.202243,44.4936709 429.282055,46.056962 427.60189,45.5759494 C421.841326,45.5759494 421.841326,40.8860759 422.08135,39.8037975 C421.841326,39.0822785 419.441091,39.443038 418.72102,38.721519 C418.090959,38.2705696 417.832183,37.7181566 417.602942,37.1784266 L417.489201,36.910147 C417.145866,36.1116495 416.740826,35.3844937 415.120668,35.1139241 C414.160574,34.3924051 414.880644,34.3924051 413.680527,34.3924051 L413.680527,35.4746835 C415.120668,36.556962 416.080762,39.8037975 416.320785,39.443038 L416.320785,45.2151899 C416.320785,46.056962 417.280879,45.5759494 417.280879,46.2974684 C417.280879,47.0189873 416.320785,47.5 415.600715,47.5 C415.060662,47.5 414.520609,47.4323576 413.980556,47.3478046 L412.90045,47.1711828 C412.360397,47.0866297 411.820344,47.0189873 411.280292,47.0189873 C410.080174,47.0189873 409.84015,47.7405063 408.640033,48.221519 L407.559927,48.221519 C406.839856,48.221519 406.119786,48.3417722 406.239798,49.1835443 C406.359809,50.0253165 407.919962,51.8291139 407.919962,51.8291139 C411.520315,51.8291139 411.280292,50.3860759 412.720433,50.3860759 L412.720433,51.3481013 C412.720433,51.8291139 418.00095,51.9493671 418.00095,52.7911392 C418.00095,53.9936709 416.320785,53.9936709 416.320785,55.4367089 C416.320785,56.8797468 418.480997,55.4367089 418.480997,57.1202532 C418.480997,59.0443038 416.320785,57.8417722 415.600715,59.0443038 C415.390694,59.2547468 415.24193,59.5470288 415.100822,59.8555081 L414.980498,60.1223546 C414.678124,60.7917326 414.340591,61.4493671 413.440503,61.4493671 L406.959868,61.4493671 C406.959868,61.9303797 406.839856,62.6518987 406.839856,63.2531646 C406.839856,63.9746835 406.959868,64.335443 407.679939,64.335443 C408.640033,64.335443 409.360103,64.0949367 410.560221,64.0949367 C411.760339,64.0949367 413.560515,64.4556962 414.400597,64.335443 Z M353.074589,46.2974684 C354.61474,46.157173 355.828192,45.3212465 357.000807,44.4341706 L357.50169,44.0527426 C358.168422,43.545007 358.835154,43.0506329 359.555224,42.6898734 C360.875354,42.6898734 362.795542,41.0063291 362.915553,40.8860759 C366.635918,38.2405063 372.156459,35.5949367 374.436682,32.2278481 C374.436682,32.2278481 375.156753,31.8670886 375.516788,31.8670886 C377.556988,29.8227848 381.877411,25.1329114 381.997423,25.7341772 C383.797599,24.2911392 384.51767,23.2088608 387.397952,23.2088608 C389.914198,23.2088608 389.925533,26.6841772 389.921452,29.6961181 L389.921079,30.2220253 C389.922999,32.3 389.990206,34.0316456 390.998305,34.0316456 C393.998598,34.0316456 394.958693,31.1455696 396.15881,29.3417722 C395.678763,27.1772152 392.07841,26.4556962 392.07841,23.9303797 C392.07841,22.0379747 395.674109,22.2848101 399.175184,22.3597952 L399.712566,22.3696639 C401.140942,22.3907025 402.521539,22.3628692 403.599539,22.1265823 C409.006069,22.1265823 408.863255,20.8233386 408.698764,19.7677112 L408.679645,19.6447557 C408.658001,19.5028586 408.640033,19.3667722 408.640033,19.2405063 C408.640033,17.3164557 407.199892,15.6329114 407.199892,13.4683544 C406.839856,12.5063291 406.119786,12.7468354 405.03968,12.7468354 C404.919668,13.7088608 404.799657,14.4303797 404.079586,14.9113924 C401.919374,17.3164557 402.159398,17.7974684 398.559045,17.7974684 C397.118904,17.7974684 393.518551,17.3164557 393.518551,15.1518987 C393.39854,13.5886076 396.638857,11.664557 397.118904,9.86075949 L396.878881,9.37974684 C394.958693,9.37974684 393.39854,7.09493671 392.798481,6.97468354 C388.958105,4.81012658 388.118022,2.16455696 384.157634,2.16455696 C382.357458,2.16455696 381.277352,2.88607595 380.917317,4.81012658 C380.077235,8.89873418 379.357164,12.2658228 376.956929,17.0759494 C376.41269,18.1666176 375.590976,19.564585 374.751601,20.9788873 L374.415526,21.5447897 C372.960453,23.9948313 371.5564,26.3773918 371.5564,27.1772152 C369.396188,31.7468354 365.315789,33.9113924 362.195483,37.6392405 C359.435212,41.0063291 356.434919,42.6898734 353.074589,46.056962 L353.074589,46.2974684 Z M425.441679,12.9873418 C424.721608,12.9873418 424.241561,12.7468354 424.241561,12.0253165 C424.241561,11.5443038 424.241561,11.3037975 424.721608,10.8227848 C425.441679,11.5443038 426.401773,10.8227848 426.401773,12.2658228 C426.401773,12.9873418 426.161749,12.9873418 425.441679,12.9873418 Z M387.757987,15.8734177 C387.037917,15.8734177 386.677881,15.8734177 386.677881,14.9113924 L386.677881,14.4303797 C387.037917,14.9113924 387.757987,15.1518987 387.757987,15.8734177 Z M455.129353,18.9995303 L455.084583,19 C455.084583,19 454.964571,19 454.964571,18.7594937 C454.964571,18.6592827 455.047913,18.6425809 455.075693,18.6397972 C455.204595,18.6392405 455.324606,18.6392405 455.324606,18.7594937 C455.324606,18.9699367 455.232722,18.9962421 455.129353,18.9995303 L455.129353,18.9995303 Z M435.042619,30.0632911 L434.322549,30.0632911 L434.322549,29.3417722 L434.802596,29.3417722 C435.042619,29.3417722 435.042619,29.7025316 435.042619,30.0632911 Z M381.277352,112.556962 C383.077529,112.556962 385.23774,111.835443 386.317846,109.911392 C387.037917,108.949367 386.677881,107.025316 387.037917,106.063291 C387.131259,105.845054 387.240735,105.69148 387.347522,105.545988 L387.437956,105.421941 C387.704649,105.04782 387.918003,104.620253 387.757987,103.177215 L387.397952,101.734177 C387.397952,100.291139 388.118022,98.8481013 388.118022,97.6455696 C388.118022,96.2025316 387.757987,95.2405063 387.397952,94.0379747 C387.397952,89.4683544 387.037917,85.1392405 386.677881,85.3797468 C386.917905,85.0189873 387.037917,84.8987342 387.037917,83.9367089 C387.037917,83.5759494 387.037917,83.2151899 386.677881,82.8544304 C386.677881,81.0506329 387.517964,78.5253165 388.478058,78.5253165 C392.02302,79.0803311 393.931846,86.1930567 394.204536,87.0948733 L394.2301,87.1743283 C394.235781,87.1894147 394.238622,87.1927945 394.238622,87.1835443 C394.238622,93.3164557 396.278822,95.4810127 399.039092,95.4810127 C400.479233,95.4810127 401.439327,94.0379747 401.439327,92.3544304 C401.439327,91.3022152 400.888023,90.6182753 400.267806,89.9803699 L399.999186,89.7088608 L399.999186,89.7088608 L397.598951,84.6582278 C397.718963,84.4177215 395.558751,83.4556962 394.718669,82.4936709 C394.039745,82.1535262 391.013686,77.9648876 390.670067,77.4872967 L390.638269,77.443038 L390.638269,77.443038 C390.638269,75.0668354 393.064427,75.0522127 395.756769,75.182063 L396.183773,75.203443 C396.898083,75.24 397.622954,75.278481 398.319022,75.278481 C400.95928,75.278481 402.639445,74.9177215 402.639445,73.4746835 C401.079292,71.1898734 401.319316,70.9493671 398.559045,70.9493671 L398.558324,71.1624076 C398.551111,71.9213307 398.471764,73.1139241 397.598951,73.1139241 C396.878881,73.1139241 396.398834,72.7531646 396.15881,72.7531646 C395.318728,72.7531646 393.158516,73.1139241 390.998305,73.1139241 C388.958105,73.1139241 385.957811,72.9936709 385.957811,70.5886076 C385.957811,65.3013475 389.738743,65.0654711 395.237357,65.0570428 L396.398834,65.056962 L396.398834,65.056962 C398.078998,65.056962 399.039092,63.6139241 399.039092,62.8924051 C399.039092,62.1708861 398.559045,59.7658228 397.598951,59.7658228 C396.15881,59.7658228 394.718669,60.4873418 393.518551,61.2088608 L387.397952,61.2088608 C386.677881,61.2088608 386.317846,59.0443038 386.317846,58.5632911 C386.317846,56.3987342 387.037917,52.7911392 389.558163,52.7911392 L390.435492,52.7905841 C394.422389,52.7835066 401.439327,52.686191 401.439327,51.3481013 C401.439327,49.664557 399.999186,48.4620253 399.759163,46.778481 C397.478939,46.6582278 395.918787,47.6202532 394.718669,48.943038 L388.838093,48.943038 C387.844396,48.943038 387.7649,47.9252152 387.75854,46.6386872 L387.757987,46.2974684 L387.757987,46.2974684 C387.757987,45.0605787 388.228237,44.7660811 388.765666,44.4715836 L388.969564,44.3593064 C389.312017,44.1660424 389.661031,43.9267631 389.918199,43.4113924 C389.918199,41.6075949 383.317552,35.835443 378.757105,35.835443 C377.677,35.835443 376.836917,35.835443 376.596894,36.9177215 C375.996835,37.3987342 378.39707,38.4810127 378.39707,39.8037975 C379.117141,41.7278481 378.39707,43.8924051 379.117141,45.5759494 C379.117141,47.8607595 377.917023,50.9873418 375.156753,49.9050633 C373.356576,51.3481013 363.755636,50.3860759 360.755342,50.6265823 C360.275295,50.6265823 356.434919,49.9050633 355.954871,49.9050633 C355.234801,49.9050633 354.874766,49.9050633 354.994777,50.6265823 C355.594836,51.4683544 358.235095,55.4367089 360.035271,55.4367089 C360.63533,55.4367089 363.755636,54.835443 363.995659,54.7151899 C365.075765,54.2341772 366.875941,54.9556962 367.596012,53.5126582 L368.316082,54.2341772 L368.676118,54.2341772 C369.396188,54.2341772 374.436682,53.9936709 375.156753,53.9936709 C378.404271,53.5006329 378.988824,55.5142 379.094044,57.6474373 L379.106273,57.9601955 C379.117141,58.3254304 379.117141,58.6907595 379.117141,59.0443038 C379.117141,60.4873418 379.117141,61.4493671 377.677,61.9303797 C370.236271,61.9303797 365.915847,62.1708861 365.795836,62.1708861 C362.435506,62.1708861 359.675236,61.4493671 355.954871,61.4493671 C355.714848,62.2911392 358.115083,63.3734177 358.115083,64.335443 C359.675236,66.9810127 360.875354,67.3417722 363.275589,67.221519 C363.635624,67.221519 365.4358,66.9810127 365.795836,66.9810127 C369.396188,66.5 373.356576,66.2594937 377.316964,66.2594937 C378.997129,66.2594937 379.837211,67.8227848 379.837211,70.4683544 C379.837211,71.5506329 379.717199,72.9936709 378.757105,73.4746835 L376.836917,73.4746835 C375.996835,73.4746835 375.036741,73.4746835 374.436682,73.835443 L366.155871,73.835443 C365.4358,73.4746835 364.71573,73.4746835 363.635624,73.4746835 C361.475412,73.4746835 359.555224,73.835443 357.395013,73.835443 C355.234801,73.835443 353.554636,73.4746835 351.394425,73.4746835 C350.674354,73.4746835 350.194307,73.4746835 350.194307,74.1962025 C350.194307,75.8797468 352.474531,78.164557 355.954871,78.164557 C361.355401,78.164557 366.035859,77.0822785 371.5564,77.0822785 C372.27647,77.443038 372.27647,78.164557 372.27647,78.8860759 C372.27647,81.0506329 371.436388,81.6518987 365.795836,87.5443038 C363.875647,89.5886076 361.835448,92.835443 359.555224,94.0379747 C357.034977,96.443038 354.994777,99.0886076 352.834566,101.734177 C350.194307,103.177215 347.314025,104.620253 345.63386,106.78481 L346.353931,107.506329 C347.314025,107.506329 348.034096,106.063291 348.754166,105.582278 C353.554636,102.455696 363.515612,98.9683544 369.756224,90.0696203 C370.836329,90.0696203 372.396482,87.7848101 372.636506,87.9050633 C373.716612,86.8227848 374.436682,85.0189873 375.516788,84.2974684 C375.876823,84.2974684 378.157047,82.8544304 378.757105,82.8544304 C380.197246,82.8544304 380.557282,87.1835443 380.557282,88.2658228 C380.917317,88.9873418 380.917317,89.3481013 380.917317,89.7088608 C380.917317,91.3924051 380.557282,93.1962025 380.557282,94.7594937 C380.557282,95.2405063 379.837211,96.2025316 379.837211,96.6835443 C379.837211,98.0739715 379.802051,99.1708119 379.753707,100.260313 L379.733718,100.6964 C379.627347,102.954507 379.477176,105.344277 379.477176,110.392405 C379.477176,111.113924 380.197246,112.556962 381.277352,112.556962 Z M459.284994,46.778481 C459.044971,46.778481 458.924959,46.6582278 458.924959,46.4177215 C458.924959,46.1772152 459.044971,46.056962 459.284994,46.056962 C459.405006,46.056962 459.525018,46.1772152 459.525018,46.4177215 C459.525018,46.6582278 459.405006,46.778481 459.284994,46.778481 Z M428.321961,62.1708861 C427.721902,62.1708861 427.361867,61.8101266 427.121843,61.2088608 C425.801714,60.3670886 421.361279,60.7278481 421.361279,58.3227848 C421.361279,55.4367089 422.08135,49.1835443 424.001538,49.1835443 C425.681702,49.1835443 427.361867,49.0632911 428.321961,48.943038 C429.042032,48.943038 429.282055,49.1835443 430.002126,49.1835443 C430.722196,49.1835443 431.442267,47.0189873 431.442267,46.056962 C431.757298,46.1922468 431.920439,46.5473695 432.070922,46.9320856 L432.170897,47.1908596 C432.390068,47.7519888 432.647385,48.2866561 433.362455,48.221519 C434.082525,48.3417722 435.162631,48.4620253 435.042619,48.943038 C435.522666,50.3860759 435.522666,51.3481013 435.522666,52.7911392 C435.522666,54.7151899 435.522666,60.4873418 433.602478,60.7278481 C433.00242,60.7278481 431.202243,60.4873418 431.202243,60.4873418 C429.282055,60.4873418 428.321961,62.1708861 428.321961,62.1708861 Z M418.480997,50.3860759 L417.760926,50.3860759 C417.160868,50.3860759 416.560809,50.3860759 416.560809,49.664557 C416.560809,49.2179024 416.974727,49.1859985 417.418211,49.1837196 L418.480997,49.1835443 L418.480997,50.3860759 Z M462.725276,63.6138385 L463.123889,63.6116147 C464.712193,63.5931396 466.205672,63.4268636 466.845735,61.9303797 C464.805535,59.7658228 462.645324,56.7594937 460.005065,55.6772152 C458.084877,55.6772152 457.60483,57.8417722 456.404712,57.8417722 C456.044677,57.8417722 453.52443,59.0443038 453.164395,59.0443038 C452.444324,59.0443038 450.044089,62.0506329 450.284113,62.1708861 L450.284113,62.6518987 L450.644148,62.8924051 L456.044677,62.8924051 C456.404712,62.6518987 456.764747,62.1708861 457.124783,62.1708861 C457.484818,62.1708861 457.484818,62.8924051 457.844853,63.3734177 C458.204889,63.2531646 458.684936,63.2531646 459.044971,63.2531646 C460.3651,63.2531646 461.085171,63.6139241 462.525312,63.6139241 L462.725276,63.6138385 L462.725276,63.6138385 Z M454.964571,62.1708861 C454.724548,62.1708861 454.604536,62.0506329 454.604536,61.9303797 C454.604536,61.5696203 454.724548,61.4493671 454.964571,61.4493671 C455.084583,61.4493671 455.204595,61.5696203 455.204595,61.9303797 C455.204595,62.0506329 455.084583,62.1708861 454.964571,62.1708861 Z M409.360103,114 C411.400303,114 413.20048,111.71519 415.120668,109.670886 C416.320785,107.506329 414.880644,106.063291 417.280879,104.139241 C418.601009,103.297468 422.80142,102.696203 424.001538,102.696203 C424.75991,102.696203 425.597167,102.735724 426.434844,102.768519 L426.891329,102.785462 C429.472966,102.874541 431.922314,102.819014 431.922314,101.253165 C431.922314,100.291139 431.202243,98.8481013 430.002126,98.8481013 L422.08135,98.8481013 C421.601303,98.8481013 420.881232,99.5696203 420.161162,99.5696203 C420.161162,99.5696203 419.441091,98.8481013 419.441091,98.3670886 L416.320785,98.3670886 C415.840738,98.3670886 415.600715,96.9240506 415.600715,96.9240506 C415.600715,94.278481 415.000656,88.6265823 419.441091,88.6265823 C421.481291,88.6265823 429.282055,88.2658228 434.802596,88.2658228 C436.48276,87.5443038 436.962808,87.1835443 436.962808,85.3797468 C436.962808,84.2974684 436.48276,83.5759494 435.76269,82.8544304 C435.522666,83.2151899 434.082525,83.9367089 433.602478,83.9367089 C431.68229,84.1772152 430.482173,83.4556962 429.282055,83.5759494 C429.216906,84.0329114 427.737087,84.0291811 426.167336,84.0264633 L425.670181,84.0261772 C424.510388,84.0281013 423.377477,84.056962 422.80142,84.2974684 C422.561397,84.2974684 421.361279,85.3797468 421.121256,85.3797468 C420.521197,85.3797468 416.200774,83.8164557 416.320785,83.9367089 C416.320785,82.7341772 415.120668,82.1329114 415.120668,80.6898734 C415.120668,76.3607595 416.200774,74.556962 419.441091,74.556962 C420.76122,74.556962 422.08135,75.0379747 423.281467,74.9177215 C426.161749,74.556962 430.96222,73.835443 437.922902,73.835443 L439.123019,73.4746835 C440.083113,73.4746835 439.84309,80.3291139 440.56316,80.3291139 C441.283231,80.3291139 441.523254,79.9683544 442.723372,79.9683544 C443.443442,79.9683544 444.403536,79.9683544 444.403536,81.0506329 L444.404562,81.2215035 L444.404562,81.2215035 L444.408813,81.56721 C444.415994,82.3759143 444.375298,83.1798213 443.683466,83.5759494 C442.723372,83.5759494 442.363337,82.9746835 440.803184,82.1329114 C439.84309,82.1329114 440.083113,83.8164557 440.083113,83.9367089 C440.083113,85.0189873 440.083113,85.7405063 440.56316,86.8227848 L440.56316,96.6835443 C439.603066,97.6455696 438.52296,98.1265823 435.042619,98.1265823 C434.322549,98.1265823 433.362455,98.1265823 433.362455,99.0886076 L434.802596,101.974684 L438.402949,101.974684 C439.363043,102.696203 439.84309,110.392405 442.963395,110.392405 C451.339161,110.392405 451.707326,98.0820591 451.72351,91.9558744 L451.724254,91.1518987 L451.724254,91.1518987 C451.724254,90.7911392 451.124195,90.3101266 451.364218,89.7088608 L451.724254,88.9873418 C451.724254,87.9050633 451.364218,86.4620253 451.364218,85.3797468 C451.364218,84.2974684 451.724254,82.8544304 451.724254,81.4113924 C451.724254,80.3291139 451.364218,79.2468354 451.364218,78.164557 C451.364218,75.6392405 454.244501,74.1962025 454.244501,72.0316456 C454.244501,70.2278481 451.724254,70.2278481 450.644148,69.5063291 C450.480495,69.5063291 449.92011,69.1336437 449.334929,68.7270778 L448.98382,68.481783 C448.403598,68.0752171 447.872967,67.7025316 447.763866,67.7025316 C443.563454,67.7025316 444.403536,67.8227848 442.963395,69.8670886 C440.083113,69.8670886 438.402949,71.4303797 436.962808,71.6708861 C431.68229,71.6708861 427.241855,72.0316456 421.841326,72.0316456 C420.161162,72.3924051 419.201067,73.1139241 417.760926,73.1139241 C415.840738,73.1139241 416.320785,72.0316456 415.120668,72.0316456 C414.160574,72.0316456 413.680527,72.0316456 412.960456,72.7531646 C412.670773,72.6287647 412.566601,72.3756754 412.470794,72.1122318 L412.412897,71.9538698 C412.243668,71.5070215 411.996224,71.0986469 410.800244,71.3101266 C409.720139,71.3101266 407.199892,71.6708861 407.199892,72.3924051 C409.000068,75.278481 409.000068,76.2405063 409.84015,78.8860759 C409.84015,81.0506329 409.12008,82.8544304 409.12008,85.0189873 C409.12008,85.3797468 409.600127,85.9810127 409.360103,86.4620253 L409.12008,87.5443038 C409.028871,87.5443038 409.977444,87.8915949 411.017518,88.2694477 L411.347897,88.3894161 C411.568704,88.4695797 411.789141,88.5496203 412.000362,88.6265823 C412.000362,90.4303797 408.640033,90.0696203 408.640033,91.8734177 L408.640033,99.5696203 C408.880056,100.170886 409.240092,100.892405 409.12008,101.012658 C409.12008,104.139241 408.400009,107.506329 408.400009,111.113924 C408.400009,111.594937 408.279998,111.955696 408.279998,112.556962 C408.279998,113.278481 408.520021,114 409.360103,114 Z M374.436682,78.8860759 C374.076647,78.8860759 372.996541,78.8860759 372.996541,78.5253165 C372.996541,75.6392405 374.076647,74.556962 376.596894,74.556962 L376.596894,76 C376.596894,77.443038 376.236858,78.8860759 374.436682,78.8860759 Z M410.080174,93.0759494 L409.84015,93.0759494 L409.84015,92.5949367 L410.080174,92.5949367 L410.080174,93.0759494 Z M424.961632,100.291139 C424.84162,100.291139 424.721608,100.170886 424.721608,100.050633 C424.721608,99.6898734 424.84162,99.5696203 424.961632,99.5696203 C425.081644,99.5696203 425.201655,99.6898734 425.201655,100.050633 C425.201655,100.170886 425.081644,100.291139 424.961632,100.291139 Z M352.834566,103.177215 C352.510534,103.177215 352.478131,103.07981 352.474891,102.972665 L352.474531,102.936709 C352.474531,102.575949 352.474531,102.455696 352.834566,102.455696 C352.941243,102.455696 352.953096,102.550711 352.954413,102.825198 L352.954578,102.936709 C352.954578,103.056962 352.954578,103.177215 352.834566,103.177215 Z M383.797599,110.392405 L383.077529,109.670886 L383.797599,109.670886 L383.797599,110.392405 Z" id="中國典籍" fill-opacity="0.8" fill="#000000" fill-rule="nonzero"></path>
                <path d="M489.157088,33.6705441 L489.157088,33.2022514 C487.441863,33.1662289 487.259392,32.9861163 487.259392,31.3290807 L487.259392,20.6664165 C488.773899,20.702439 489.595017,20.9545966 490.233665,21.5669794 C490.835818,22.1253283 491.20076,23.0619137 491.492713,24.8090056 L492.149607,24.7729831 L491.802913,20.1981238 L480.325505,20.1981238 L479.978811,24.7729831 L480.635705,24.8090056 C480.909412,23.2060038 481.219612,22.2874296 481.73053,21.7110694 C482.369177,20.9906191 483.22679,20.702439 484.850779,20.6664165 L484.850779,31.3290807 C484.850779,32.9861163 484.668308,33.1662289 482.971331,33.2022514 L482.971331,33.6705441 L489.157088,33.6705441 Z M497.842693,33.6705441 L497.842693,33.2382739 C496.601893,33.2202627 496.474163,33.0401501 496.474163,31.4371482 L496.474163,27.9789869 C496.474163,27.2405253 496.62014,26.6641651 496.966834,26.0697936 C497.441258,25.2412758 498.098152,24.8270169 498.937518,24.8270169 C499.630906,24.8270169 500.087083,25.0971857 500.342542,25.6555347 C500.525013,26.0337711 500.598001,26.6641651 500.598001,27.6007505 L500.598001,31.4371482 C500.598001,33.0581614 500.470272,33.2202627 499.229471,33.2382739 L499.229471,33.6705441 L504.210921,33.6705441 L504.210921,33.2382739 C502.951873,33.2202627 502.824144,33.0581614 502.824144,31.4371482 L502.824144,27.4746717 C502.824144,26.44803 502.696414,25.7816135 502.422708,25.2592871 C501.966531,24.412758 501.108919,23.9984991 499.79513,23.9984991 C498.280623,23.9984991 497.386517,24.484803 496.474163,25.817636 L496.474163,23.6923077 C496.474163,22.2514071 496.49241,21.3868668 496.583645,20 L492.842996,20.1981238 L492.842996,20.6123827 C494.072984,20.6123827 494.236982,20.7626989 494.247443,22.1891561 L494.24802,31.4371482 C494.24802,33.0581614 494.120291,33.2202627 492.861243,33.2382739 L492.861243,33.6705441 L497.842693,33.6705441 Z M510.159466,33.9407129 C512.038915,33.9407129 513.261468,33.1842402 514.173822,31.4731707 L513.717645,31.1849906 C513.042503,32.4998124 511.965926,33.2382739 510.706878,33.2382739 C509.593807,33.2382739 508.754442,32.6439024 508.225277,31.4551595 C507.896829,30.6986867 507.7691,29.9242026 507.750853,28.5913696 L514.082587,28.5913696 C514.046092,27.4566604 513.954857,26.9163227 513.754139,26.375985 C513.151986,24.8270169 511.838197,23.9984991 509.976996,23.9984991 C507.203441,23.9984991 505.396981,25.9797373 505.396981,29.0056285 C505.396981,32.0135084 507.258182,33.9407129 510.159466,33.9407129 Z M511.801703,28.0690432 L507.7691,28.0690432 C507.842088,27.1324578 507.951571,26.5560976 508.152288,25.9977486 C508.535477,24.9530957 509.13763,24.412758 509.922254,24.412758 C510.63389,24.412758 511.144808,24.8630394 511.491502,25.817636 C511.69222,26.375985 511.765209,26.934334 511.801703,28.0690432 Z M484.558826,55.6843027 L484.558826,55.21601 C483.354519,55.1799875 482.843601,54.8557849 482.843601,54.1533458 C482.843601,53.7390869 482.971331,53.180738 483.245037,52.4963102 L483.755955,51.1274547 L488.554934,51.1274547 L489.248323,53.1086929 C489.412547,53.5589744 489.503782,54.0092558 489.522029,54.2974359 L489.522029,54.3514697 L489.522029,54.3514697 C489.522029,54.9458412 489.102346,55.1799875 487.952781,55.21601 L487.952781,55.6843027 L493.901326,55.6843027 L493.901326,55.21601 C493.299173,55.143965 493.134949,55.1079425 492.934231,55.0178862 C492.514549,54.8017511 492.167854,54.2253909 491.748172,53.1086929 L487.77031,42.0677924 L486.420027,42.2118824 L482.533401,52.3702314 C481.712283,54.4955597 481.055388,55.1979987 479.869328,55.21601 L479.869328,55.6843027 L484.558826,55.6843027 Z M488.317722,50.4250156 L484.011414,50.4250156 L486.237556,44.5713571 L488.317722,50.4250156 Z M499.557918,55.6843027 L499.557918,55.2520325 C498.363073,55.2346883 498.200376,55.0837298 498.189963,53.6250824 L498.189388,49.8486554 C498.189388,49.2542839 498.390106,48.5158224 498.682059,47.9934959 C499.138235,47.2190119 499.79513,46.804753 500.561507,46.804753 C501.692825,46.804753 502.167249,47.6152595 502.167249,49.5604753 L502.167249,53.4509068 C502.167249,55.0358974 502.021273,55.2340213 500.798719,55.2520325 L500.798719,55.6843027 L505.761922,55.6843027 L505.761922,55.2520325 C504.551299,55.234714 504.386644,55.0675237 504.375769,53.6296257 L504.375145,49.4524078 C504.375145,48.3717323 504.247415,47.7773609 503.918968,47.2370231 C503.444544,46.4085053 502.623426,46.0122577 501.437366,46.0122577 C499.977601,46.0122577 498.974012,46.5706066 498.189388,47.8313946 L498.171141,46.0482802 L494.612962,46.2824265 L494.612962,46.7146967 C495.769096,46.7319875 495.949874,46.91527 495.962486,48.2843976 L495.963245,53.4509068 C495.963245,55.0539087 495.835516,55.2340213 494.576468,55.2520325 L494.576468,55.6843027 L499.557918,55.6843027 Z M511.655726,55.9724828 C513.480433,55.9724828 514.830716,55.1259537 515.651835,53.4509068 L515.177411,53.1447154 C514.55701,54.4775485 513.480433,55.2700438 512.221385,55.2700438 C511.290785,55.2700438 510.524408,54.7657286 510.049984,53.8471545 C509.630301,53.0186366 509.411336,51.9559725 509.411336,50.7852408 C509.411336,49.6685428 509.612054,48.3897436 509.922254,47.5972483 C510.214208,46.8948093 510.852855,46.4445278 511.600985,46.4445278 C512.495091,46.4445278 513.024256,47.0569106 513.097245,48.137586 C513.133739,48.7859912 513.133739,48.7859912 513.243221,48.9300813 C513.407445,49.1282051 513.754139,49.2542839 514.173822,49.2542839 C514.921952,49.2542839 515.414623,48.91207 515.414623,48.3717323 C515.414623,47.0929331 513.681151,46.0122577 511.655726,46.0122577 C510.341937,46.0122577 509.210619,46.4445278 508.407747,47.2190119 C507.495394,48.1555972 506.966229,49.5604753 506.966229,51.1094434 C506.966229,54.0092558 508.845677,55.9724828 511.655726,55.9724828 Z M519.155272,44.4993121 C519.885155,44.4993121 520.469061,43.9229518 520.469061,43.2025016 C520.469061,42.4820513 519.885155,41.9056911 519.155272,41.9056911 C518.425389,41.9056911 517.841483,42.4820513 517.841483,43.2025016 C517.841483,43.9229518 518.425389,44.4993121 519.155272,44.4993121 Z M521.673368,55.6843027 L521.673368,55.2520325 C520.377826,55.2340213 520.250097,55.0539087 520.250097,53.4509068 L520.250097,49.542464 C520.250097,48.3897436 520.286591,47.1289556 520.359579,46.0482802 L516.655424,46.2824265 L516.655424,46.7146967 C517.932719,46.7327079 518.023954,46.8587867 518.023954,48.4617886 L518.023954,53.4509068 C518.023954,55.0539087 517.896224,55.2340213 516.600682,55.2520325 L516.600682,55.6843027 L521.673368,55.6843027 Z M527.731396,55.9544715 C529.610844,55.9544715 530.833398,55.1979987 531.745751,53.4869293 L531.289574,53.1987492 C530.614433,54.513571 529.537856,55.2520325 528.278808,55.2520325 C527.165736,55.2520325 526.326371,54.657661 525.797206,53.4689181 C525.468759,52.7124453 525.341029,51.9379612 525.322782,50.6051282 L531.654516,50.6051282 C531.618022,49.470419 531.526786,48.9300813 531.326069,48.3897436 C530.723915,46.8407755 529.410126,46.0122577 527.548925,46.0122577 C524.77537,46.0122577 522.96891,47.9934959 522.96891,51.0193871 C522.96891,54.027267 524.830111,55.9544715 527.731396,55.9544715 Z M529.373632,50.0828018 L525.341029,50.0828018 C525.414018,49.1462164 525.5235,48.5698562 525.724218,48.0115072 C526.107406,46.9668543 526.70956,46.4265166 527.494184,46.4265166 C528.205819,46.4265166 528.716737,46.876798 529.063432,47.8313946 C529.26415,48.3897436 529.337138,48.9480926 529.373632,50.0828018 Z M537.876767,55.6843027 L537.876767,55.2520325 C536.635966,55.2340213 536.508237,55.0719199 536.508237,53.4509068 L536.508237,49.8486554 C536.508237,49.2542839 536.708955,48.5158224 537.000908,47.9934959 C537.457084,47.2190119 538.113979,46.804753 538.880356,46.804753 C540.011674,46.804753 540.486098,47.6152595 540.486098,49.5604753 L540.486098,53.4509068 C540.486098,55.0358974 540.340122,55.2340213 539.117568,55.2520325 L539.117568,55.6843027 L544.080771,55.6843027 L544.080771,55.2520325 C542.821723,55.2340213 542.693994,55.0539087 542.693994,53.4509068 L542.693994,49.4524078 C542.693994,48.3717323 542.566264,47.7773609 542.237817,47.2370231 C541.763393,46.4085053 540.942275,46.0122577 539.756215,46.0122577 C538.29645,46.0122577 537.292861,46.5706066 536.508237,47.8313946 L536.48999,46.0482802 L532.931811,46.2824265 L532.931811,46.7146967 C534.087945,46.7319875 534.268723,46.91527 534.281335,48.2843976 L534.282094,53.4509068 C534.282094,55.0539087 534.154365,55.2340213 532.895317,55.2520325 L532.895317,55.6843027 L537.876767,55.6843027 Z M548.587798,55.9544715 C549.536645,55.9544715 550.339517,55.6662914 551.087646,55.0539087 L550.832187,54.6036273 C550.376011,54.9638524 549.938081,55.1619762 549.554892,55.1619762 C549.171704,55.1619762 548.806763,54.8918074 548.660786,54.4955597 C548.533057,54.1353346 548.478315,53.6670419 548.478315,52.8745466 L548.478315,46.8587867 L550.686211,46.8587867 L550.686211,46.2824265 L548.478315,46.2824265 C548.478315,44.6434021 548.496562,44.0850532 548.533057,43.3465916 L547.620703,43.4366479 C547.456479,44.3372108 547.274009,44.8595372 546.945561,45.3638524 C546.525879,46.0122577 546.014961,46.2824265 545.21209,46.318449 L545.21209,46.8587867 L546.252173,46.8587867 L546.252173,52.4782989 C546.252173,54.0813008 546.306914,54.513571 546.525879,54.9638524 C546.872573,55.5942464 547.602456,55.9544715 548.587798,55.9544715 Z M487.076922,77.9862414 C489.795735,77.9862414 491.565701,76.7434647 492.551043,74.1858662 L492.021878,73.8976861 C491.748172,74.5641026 491.529207,74.9603502 491.219007,75.3746091 C490.3249,76.5633521 489.029358,77.2297686 487.660828,77.2297686 C484.978508,77.2297686 483.336272,74.7622264 483.336272,70.7637273 C483.336272,68.8005003 483.682966,67.233521 484.394602,66.0627892 C484.996755,65.0721701 486.055086,64.4777986 487.222898,64.4777986 C488.408958,64.4777986 489.540276,65.0901814 490.288406,66.1528455 C490.799324,66.8732958 491.054783,67.5757348 491.255501,68.7464665 L491.912395,68.7464665 L491.912395,64.3517198 C491.328489,64.5498437 491.20076,64.5858662 490.927053,64.5858662 C490.653347,64.5858662 490.416136,64.5498437 490.160677,64.4777986 C488.481946,64.0275172 488.08051,63.9554722 487.131663,63.9554722 C483.22679,63.9554722 480.708694,66.7652283 480.708694,71.1059412 C480.708694,73.2853033 481.365588,75.1044403 482.588142,76.2931832 C483.701213,77.3738587 485.325203,77.9862414 487.076922,77.9862414 Z M498.627317,77.6980613 L498.627317,77.2657911 C497.43424,77.2484726 497.270259,77.0812823 497.25941,75.6433843 L497.258787,72.0065041 C497.258787,71.2680425 497.404764,70.6916823 497.751458,70.0973108 C498.225882,69.268793 498.882776,68.8545341 499.722142,68.8545341 C500.41553,68.8545341 500.871707,69.1247029 501.127166,69.6830519 C501.309637,70.0612883 501.382625,70.6916823 501.382625,71.6282677 L501.382625,75.4646654 C501.382625,77.0856785 501.254896,77.2477799 500.014095,77.2657911 L500.014095,77.6980613 L504.995545,77.6980613 L504.995545,77.2657911 C503.783129,77.2484469 503.619781,77.0974884 503.609344,75.638841 L503.608768,71.5021889 C503.608768,70.4755472 503.481038,69.8091307 503.207332,69.2868043 C502.751155,68.4402752 501.893543,68.0260163 500.579754,68.0260163 C499.065247,68.0260163 498.171141,68.5123202 497.258787,69.8451532 L497.258787,67.7198249 C497.258787,66.2789243 497.277034,65.414384 497.36827,64.0275172 L493.62762,64.225641 L493.62762,64.6398999 C494.904915,64.6398999 495.032644,64.8020013 495.032644,66.3869919 L495.032644,75.4646654 C495.032644,77.0856785 494.904915,77.2477799 493.645867,77.2657911 L493.645867,77.6980613 L498.627317,77.6980613 Z M508.444242,66.5130707 C509.174124,66.5130707 509.758031,65.9367104 509.758031,65.2162602 C509.758031,64.4958099 509.174124,63.9194497 508.444242,63.9194497 C507.714359,63.9194497 507.130453,64.4958099 507.130453,65.2162602 C507.130453,65.9367104 507.714359,66.5130707 508.444242,66.5130707 Z M510.962337,77.6980613 L510.962337,77.2657911 C509.714778,77.2484469 509.550129,77.0807866 509.539644,75.6369853 L509.539066,71.5562226 C509.539066,70.4035022 509.57556,69.1427142 509.648548,68.0620388 L505.944393,68.2961851 L505.944393,68.7284553 C507.221688,68.7464665 507.312923,68.8725453 507.312923,70.4755472 L507.312923,75.4646654 C507.312923,77.0676673 507.185194,77.2477799 505.889652,77.2657911 L505.889652,77.6980613 L510.962337,77.6980613 Z M516.947377,77.6980613 L516.947377,77.2657911 C515.752531,77.2484469 515.589835,77.0974884 515.579422,75.638841 L515.578846,71.862414 C515.578846,71.2680425 515.779564,70.529581 516.071517,70.0072545 C516.527694,69.2327705 517.184589,68.8185116 517.950966,68.8185116 C519.082284,68.8185116 519.556708,69.6290181 519.556708,71.5742339 L519.556708,75.4646654 C519.556708,77.049656 519.410731,77.2477799 518.188178,77.2657911 L518.188178,77.6980613 L523.151381,77.6980613 L523.151381,77.2657911 C521.940758,77.2484726 521.776102,77.0812823 521.765227,75.6433843 L521.764603,71.4661664 C521.764603,70.3854909 521.636874,69.7911194 521.308427,69.2507817 C520.834003,68.4222639 520.012885,68.0260163 518.826825,68.0260163 C517.367059,68.0260163 516.36347,68.5843652 515.578846,69.8451532 L515.560599,68.0620388 L512.00242,68.2961851 L512.00242,68.7284553 C513.206727,68.7464665 513.352704,68.9445904 513.352704,70.4755472 L513.352704,75.4646654 C513.352704,77.0676673 513.224974,77.2477799 511.965926,77.2657911 L511.965926,77.6980613 L516.947377,77.6980613 Z M529.118173,77.9682301 C530.997621,77.9682301 532.220175,77.2117573 533.132529,75.5006879 L532.676352,75.2125078 C532.00121,76.5273296 530.924633,77.2657911 529.665585,77.2657911 C528.552514,77.2657911 527.713149,76.6714196 527.183983,75.4826767 C526.855536,74.7262039 526.727807,73.9517198 526.70956,72.6188868 L533.041293,72.6188868 C533.004799,71.4841776 532.913564,70.9438399 532.712846,70.4035022 C532.110693,68.8545341 530.796904,68.0260163 528.935702,68.0260163 C526.162148,68.0260163 524.355687,70.0072545 524.355687,73.0331457 C524.355687,76.0410256 526.216889,77.9682301 529.118173,77.9682301 Z M530.760409,72.0965604 L526.727807,72.0965604 C526.800795,71.159975 526.910277,70.5836148 527.110995,70.0252658 C527.494184,68.9806129 528.096337,68.4402752 528.880961,68.4402752 C529.592597,68.4402752 530.103515,68.8905566 530.450209,69.8451532 C530.650927,70.4035022 530.723915,70.9618512 530.760409,72.0965604 Z M538.150473,77.9862414 C540.212392,77.9862414 541.434946,76.8515322 541.434946,74.9783615 C541.434946,73.6275172 540.832793,72.9250782 538.971591,72.0785491 C537.329355,71.3400876 537.329355,71.3400876 536.927919,71.0338962 C536.526484,70.7277048 536.36226,70.4035022 536.36226,69.9352095 C536.36226,69.0346467 537.000908,68.4402752 537.98625,68.4402752 C539.300039,68.4402752 540.066416,69.4128831 540.194145,71.2500313 L540.869287,71.2500313 L541.03351,68.0980613 C540.613828,68.2421513 540.41311,68.2781739 540.157651,68.2781739 C539.956933,68.2781739 539.865698,68.2601626 539.35478,68.1701063 C538.825615,68.08005 538.351191,68.0260163 538.059238,68.0260163 C535.997319,68.0260163 534.68353,69.1427142 534.68353,70.8898061 C534.68353,71.5382114 534.884247,72.0605378 535.322177,72.5108193 C535.760107,72.9791119 536.216284,73.2672921 537.292861,73.7355847 C539.409521,74.7081926 539.883945,75.1044403 539.883945,75.9869919 C539.883945,76.977611 539.208803,77.5539712 538.095732,77.5539712 C537.201625,77.5539712 536.562978,77.1937461 536.05206,76.419262 C535.760107,75.9509694 535.61413,75.4646654 535.504648,74.5280801 L534.847753,74.5280801 L534.701777,77.8241401 C535.30393,77.7160725 535.358671,77.7160725 535.632377,77.7160725 C535.851342,77.7160725 536.070307,77.7340838 536.289272,77.7701063 C537.365849,77.9502189 537.621308,77.9862414 538.150473,77.9862414 Z M547.985644,77.9682301 C549.865093,77.9682301 551.087646,77.2117573 552,75.5006879 L551.543823,75.2125078 C550.868682,76.5273296 549.792104,77.2657911 548.533057,77.2657911 C547.419985,77.2657911 546.58062,76.6714196 546.051455,75.4826767 C545.723008,74.7262039 545.595278,73.9517198 545.577031,72.6188868 L551.908765,72.6188868 C551.872271,71.4841776 551.781035,70.9438399 551.580317,70.4035022 C550.978164,68.8545341 549.664375,68.0260163 547.803174,68.0260163 C545.029619,68.0260163 543.223159,70.0072545 543.223159,73.0331457 C543.223159,76.0410256 545.08436,77.9682301 547.985644,77.9682301 Z M549.627881,72.0965604 L545.595278,72.0965604 C545.668266,71.159975 545.777749,70.5836148 545.978467,70.0252658 C546.361655,68.9806129 546.963808,68.4402752 547.748432,68.4402752 C548.460068,68.4402752 548.970986,68.8905566 549.317681,69.8451532 C549.518398,70.4035022 549.591387,70.9618512 549.627881,72.0965604 Z M487.076922,100 C489.795735,100 491.565701,98.7572233 492.551043,96.1996248 L492.021878,95.9114447 C491.748172,96.5778612 491.529207,96.9741088 491.219007,97.3883677 C490.3249,98.5771107 489.029358,99.2435272 487.660828,99.2435272 C484.978508,99.2435272 483.336272,96.775985 483.336272,92.7774859 C483.336272,90.8142589 483.682966,89.2472795 484.394602,88.0765478 C484.996755,87.0859287 486.055086,86.4915572 487.222898,86.4915572 C488.408958,86.4915572 489.540276,87.10394 490.288406,88.1666041 C490.799324,88.8870544 491.054783,89.5894934 491.255501,90.7602251 L491.912395,90.7602251 L491.912395,86.3654784 C491.328489,86.5636023 491.20076,86.5996248 490.927053,86.5996248 C490.653347,86.5996248 490.416136,86.5636023 490.160677,86.4915572 C488.481946,86.0412758 488.08051,85.9692308 487.131663,85.9692308 C483.22679,85.9692308 480.708694,88.7789869 480.708694,93.1196998 C480.708694,95.2990619 481.365588,97.1181989 482.588142,98.3069418 C483.701213,99.3876173 485.325203,100 487.076922,100 Z M498.864529,99.7118199 L498.864529,99.2795497 C497.532493,99.2435272 497.423011,99.1174484 497.423011,97.478424 L497.423011,89.7335835 C497.423011,88.5268293 497.459505,87.3741088 497.532493,86.0412758 L493.773597,86.2393996 L493.773597,86.6536585 C495.069139,86.6536585 495.196868,86.8157598 495.196868,88.4007505 L495.196868,97.478424 C495.196868,99.1174484 495.087386,99.2435272 493.755349,99.2795497 L493.755349,99.7118199 L498.864529,99.7118199 Z M502.824144,99.9639775 C504.010203,99.9639775 504.995545,99.5136961 505.944393,98.5050657 C506.035628,99.6037523 506.218099,99.8739212 506.802005,99.8739212 C507.276429,99.8739212 508.243524,99.7838649 509.320101,99.6577861 L509.320101,99.2255159 C508.192558,99.2081258 508.085636,99.106783 508.079602,97.3165457 L508.079976,96.9220763 C508.081328,96.7459662 508.085383,96.4818011 508.097547,96.145591 L508.115794,94.5786116 L508.134041,93.0116323 C508.134041,91.8949343 507.915077,91.2465291 507.422406,90.7782364 C506.874994,90.2739212 505.980887,90.0397749 504.721839,90.0397749 C503.481038,90.0397749 502.495696,90.2559099 501.72932,90.7242026 C501.017684,91.1564728 500.598001,91.7688555 500.598001,92.3992495 C500.598001,92.9395872 501.035931,93.2277674 501.875296,93.2277674 C502.641673,93.2277674 502.951873,92.993621 502.988367,92.3452158 C503.043109,91.660788 503.09785,91.3726079 503.280321,91.0664165 C503.53578,90.6341463 503.918968,90.4540338 504.502874,90.4540338 C505.597699,90.4540338 505.926146,91.0123827 505.926146,92.921576 L505.926146,94.0923077 C504.794827,94.1463415 503.827733,94.2724203 502.933626,94.4345216 C500.98119,94.812758 500.014095,95.7673546 500.014095,97.3163227 C500.014095,98.9373358 501.090672,99.9639775 502.824144,99.9639775 Z M503.827733,99.1714822 C502.933626,99.1714822 502.34972,98.3249531 502.34972,97.0461538 C502.34972,95.3711069 503.280321,94.7046904 505.926146,94.5065666 L505.926146,95.8934334 C505.926146,96.920075 505.83491,97.5144465 505.597699,97.9827392 C505.251004,98.7212008 504.557616,99.1714822 503.827733,99.1714822 Z M514.210316,100 C516.272235,100 517.494789,98.8652908 517.494789,96.9921201 C517.494789,95.6412758 516.892635,94.9388368 515.031434,94.0923077 C513.389198,93.3538462 513.389198,93.3538462 512.987762,93.0476548 C512.586327,92.7414634 512.422103,92.4172608 512.422103,91.9489681 C512.422103,91.0484053 513.060751,90.4540338 514.046092,90.4540338 C515.359882,90.4540338 516.126258,91.4266417 516.253988,93.2637899 L516.92913,93.2637899 L517.093353,90.1118199 C516.673671,90.2559099 516.472953,90.2919325 516.217494,90.2919325 C516.016776,90.2919325 515.925541,90.2739212 515.414623,90.1838649 C514.885458,90.0938086 514.411034,90.0397749 514.119081,90.0397749 C512.057162,90.0397749 510.743373,91.1564728 510.743373,92.9035647 C510.743373,93.55197 510.94409,94.0742964 511.38202,94.5245779 C511.81995,94.9928705 512.276127,95.2810507 513.352704,95.7493433 C515.469364,96.7219512 515.943788,97.1181989 515.943788,98.0007505 C515.943788,98.9913696 515.268646,99.5677298 514.155575,99.5677298 C513.261468,99.5677298 512.622821,99.2075047 512.111903,98.4330206 C511.81995,97.964728 511.673973,97.478424 511.564491,96.5418386 L510.907596,96.5418386 L510.76162,99.8378987 C511.363773,99.7298311 511.418514,99.7298311 511.69222,99.7298311 C511.911185,99.7298311 512.13015,99.7478424 512.349115,99.7838649 C513.425692,99.9639775 513.681151,100 514.210316,100 Z M522.859428,100 C524.921347,100 526.1439,98.8652908 526.1439,96.9921201 C526.1439,95.6412758 525.541747,94.9388368 523.680546,94.0923077 C522.038309,93.3538462 522.038309,93.3538462 521.636874,93.0476548 C521.235438,92.7414634 521.071215,92.4172608 521.071215,91.9489681 C521.071215,91.0484053 521.709862,90.4540338 522.695204,90.4540338 C524.008993,90.4540338 524.77537,91.4266417 524.9031,93.2637899 L525.578241,93.2637899 L525.742465,90.1118199 C525.322782,90.2559099 525.122064,90.2919325 524.866605,90.2919325 C524.665888,90.2919325 524.574652,90.2739212 524.063734,90.1838649 C523.534569,90.0938086 523.060145,90.0397749 522.768192,90.0397749 C520.706273,90.0397749 519.392484,91.1564728 519.392484,92.9035647 C519.392484,93.55197 519.593202,94.0742964 520.031132,94.5245779 C520.469061,94.9928705 520.925238,95.2810507 522.001815,95.7493433 C524.118476,96.7219512 524.592899,97.1181989 524.592899,98.0007505 C524.592899,98.9913696 523.917758,99.5677298 522.804686,99.5677298 C521.91058,99.5677298 521.271933,99.2075047 520.761015,98.4330206 C520.469061,97.964728 520.323085,97.478424 520.213602,96.5418386 L519.556708,96.5418386 L519.410731,99.8378987 C520.012885,99.7298311 520.067626,99.7298311 520.341332,99.7298311 C520.560297,99.7298311 520.779262,99.7478424 520.998226,99.7838649 C522.074804,99.9639775 522.330263,100 522.859428,100 Z M530.19475,88.5268293 C530.924633,88.5268293 531.508539,87.950469 531.508539,87.2300188 C531.508539,86.5095685 530.924633,85.9332083 530.19475,85.9332083 C529.464867,85.9332083 528.880961,86.5095685 528.880961,87.2300188 C528.880961,87.950469 529.464867,88.5268293 530.19475,88.5268293 Z M532.712846,99.7118199 L532.712846,99.2795497 C531.417304,99.2615385 531.289574,99.0814259 531.289574,97.478424 L531.289574,93.5699812 C531.289574,92.4172608 531.326069,91.1564728 531.399057,90.0757974 L527.694901,90.3099437 L527.694901,90.7422139 C528.972196,90.7602251 529.063432,90.8863039 529.063432,92.4893058 L529.063432,97.478424 C529.063432,99.0814259 528.935702,99.2615385 527.64016,99.2795497 L527.64016,99.7118199 L532.712846,99.7118199 Z M538.697885,100 C540.522592,100 541.872876,99.1534709 542.693994,97.478424 L542.21957,97.1722326 C541.59917,98.5050657 540.522592,99.297561 539.263544,99.297561 C538.332944,99.297561 537.566567,98.7932458 537.092143,97.8746717 C536.67246,97.0461538 536.453496,95.9834897 536.453496,94.812758 C536.453496,93.69606 536.654213,92.4172608 536.964414,91.6247655 C537.256367,90.9223265 537.895014,90.472045 538.643144,90.472045 C539.537251,90.472045 540.066416,91.0844278 540.139404,92.1651032 C540.175898,92.8135084 540.175898,92.8135084 540.28538,92.9575985 C540.449604,93.1557223 540.796298,93.2818011 541.215981,93.2818011 C541.964111,93.2818011 542.456782,92.9395872 542.456782,92.3992495 C542.456782,91.1204503 540.72331,90.0397749 538.697885,90.0397749 C537.384096,90.0397749 536.252778,90.472045 535.449907,91.2465291 C534.537553,92.1831144 534.008388,93.5879925 534.008388,95.1369606 C534.008388,98.036773 535.887836,100 538.697885,100 Z M547.511221,100 C549.57314,100 550.795693,98.8652908 550.795693,96.9921201 C550.795693,95.6412758 550.19354,94.9388368 548.332339,94.0923077 C546.690102,93.3538462 546.690102,93.3538462 546.288667,93.0476548 C545.887231,92.7414634 545.723008,92.4172608 545.723008,91.9489681 C545.723008,91.0484053 546.361655,90.4540338 547.346997,90.4540338 C548.660786,90.4540338 549.427163,91.4266417 549.554892,93.2637899 L550.230034,93.2637899 L550.394258,90.1118199 C549.974575,90.2559099 549.773857,90.2919325 549.518398,90.2919325 C549.317681,90.2919325 549.226445,90.2739212 548.715527,90.1838649 C548.186362,90.0938086 547.711938,90.0397749 547.419985,90.0397749 C545.358066,90.0397749 544.044277,91.1564728 544.044277,92.9035647 C544.044277,93.55197 544.244995,94.0742964 544.682925,94.5245779 C545.120854,94.9928705 545.577031,95.2810507 546.653608,95.7493433 C548.770268,96.7219512 549.244692,97.1181989 549.244692,98.0007505 C549.244692,98.9913696 548.569551,99.5677298 547.456479,99.5677298 C546.562373,99.5677298 545.923725,99.2075047 545.412807,98.4330206 C545.120854,97.964728 544.974878,97.478424 544.865395,96.5418386 L544.208501,96.5418386 L544.062524,99.8378987 C544.664677,99.7298311 544.719419,99.7298311 544.993125,99.7298311 C545.21209,99.7298311 545.431054,99.7478424 545.650019,99.7838649 C546.726596,99.9639775 546.982055,100 547.511221,100 Z" id="TheAncientChineseClassics" fill-opacity="0.8" fill="#000000" fill-rule="nonzero"></path>
            </g>
        </g>
    </g>
</svg>