<?xml version="1.0" encoding="UTF-8"?>
<svg width="343px" height="72px" viewBox="0 0 343 72" version="1.1" xmlns="http://www.w3.org/2000/svg" xmlns:xlink="http://www.w3.org/1999/xlink">
    <title>title</title>
    <g id="home" stroke="none" stroke-width="1" fill="none" fill-rule="evenodd">
        <g id="home备份" transform="translate(-667.000000, -396.000000)">
            <g id="title" transform="translate(667.000000, 396.000000)">
                <path d="M294.149426,72 C305.2596,72 324.621196,68.0533608 320.69522,57.1383434 C316.769244,46.2233261 309.565261,41.2099301 298.459459,41.2099301 C294.149426,41.2099301 285.326327,29.9711747 281.592487,32.7042358 C275.008446,37.5235604 273.901996,52.1554143 273.901996,59.1204998" id="椭圆形" fill="#F70000"></path>
                <path d="M28.8595664,68.5194238 C29.7544367,68.5194238 31.0967421,66.4295068 31.0967421,65.8323876 C31.3950322,65.0859887 32.2899024,63.5931907 32.2899024,63.5931907 C32.2899024,61.9511131 32.4390475,61.279354 32.4390475,57.3234395 C32.4390475,54.7856831 32.2899024,52.5464863 32.2899024,50.0833697 C32.2899024,48.7398516 32.7373376,47.3963335 32.7373376,46.0528154 C32.7373376,45.0078568 32.364475,43.8882584 32.4390475,42.9179398 C32.4390475,42.6940201 32.7373376,41.7983413 32.7373376,41.5744216 L32.7373376,38.8873854 L33.3339178,38.2156264 L43.2520633,37.767787 C43.4757809,37.5438673 43.6994985,37.5438673 43.923216,37.5438673 C46.1603917,37.5438673 45.7129566,40.2309035 48.8450025,40.2309035 C51.6041859,40.2309035 49.9635904,37.6931471 52.8719188,37.6931471 C55.110632,37.6931471 55.2062472,33.8749861 55.1692996,30.0333844 L55.1645625,29.5902346 C55.163713,29.5164309 55.1628432,29.4426725 55.1619672,29.3689865 L55.1567521,28.9279534 C55.1230199,25.9963957 55.125239,23.2668713 56.0785373,22.4666085 C56.5259724,21.8694893 57.4954152,21.8694893 57.4208427,20.5259712 C56.55953,18.0628546 54.4293193,16.768179 52.1189251,15.4265117 L51.6971102,15.1817838 C51.3443473,14.9769615 50.9889626,14.7693693 50.6347431,14.5547796 C50.187308,14.4054998 49.9635904,14.4054998 49.5161552,14.4054998 C47.2789796,14.4054998 46.6078269,18.5853339 43.6994985,18.5853339 C41.7606129,18.5853339 38.926857,18.2867743 37.8828417,18.4360541 C37.6591241,18.4360541 36.7642538,18.5853339 36.4659637,18.5853339 C32.8864826,18.5853339 32.9610552,17.838935 32.7373376,16.3461371 C33.1847727,14.1069402 33.1847727,12.2409428 34.5270781,10.3749454 C35.4219484,9.10606722 36.7642538,9.18070711 36.7642538,7.24006984 C36.7642538,4.17983413 31.9170398,2.46311654 30.947597,2.46311654 C28.6358488,2.46311654 26.0258105,4.10519424 23.9377799,4.10519424 C23.7886348,4.10519424 23.4903447,4.40375382 23.4903447,4.7023134 C25.6258306,5.77102099 25.7228982,7.65583256 25.7273103,10.4216655 L25.7275204,10.8227848 L25.7275204,10.8227848 C25.7275204,10.9720646 26.0258105,11.8677433 26.0258105,12.1663029 C25.8766655,12.5245744 25.7871784,13.3247141 25.709623,14.151127 L25.6810058,14.4614517 C25.5774432,15.5978721 25.4851597,16.6857486 25.2800853,16.6446966 C25.5038029,17.0178961 25.5783754,16.9432562 25.5783754,17.5403754 C25.5783754,18.4360541 25.2800853,18.8838935 24.385215,19.1824531 C19.2397109,19.1824531 13.124764,19.3317329 11.6333136,19.3317329 C10.0672906,19.0331733 10.2910082,16.7939764 8.72498519,16.7939764 C7.75554239,16.3461371 6.4878095,15.674378 5.59293922,15.7490179 C4.69806895,15.8236578 0.894870276,15.8982977 1.13645422e-13,17.2418158 C0.149145046,17.6896552 0.596580184,17.6896552 1.04401532,17.9882148 C2.68461083,18.5853339 2.9083284,20.675251 2.9083284,22.3173287 C2.9083284,23.2130074 2.90329475,24.0079223 2.89473755,24.7663103 L2.89113033,25.0678696 C2.88481702,25.5677293 2.87702718,26.0551614 2.86820823,26.5491991 L2.86279695,26.8465667 C2.79738685,30.3784 2.68461083,34.4351157 2.68461083,45.8288957 C3.20661849,47.0977739 4.47435138,48.5159319 6.04037436,48.5159319 C8.35212257,48.5159319 9.17242032,43.6643387 9.17242032,42.2461807 C9.26080257,41.9586789 9.27716966,41.6056496 9.27971565,41.2336901 L9.27981794,40.8097069 C9.28054537,40.0504982 9.31327953,39.2854649 9.84357303,38.8873854 L10.5277033,38.8870792 C20.547268,38.8780607 24.8667174,38.6727905 25.1200061,38.663772 L25.1309402,38.6634657 L25.1309402,38.6634657 C25.5783754,38.8873854 26.0258105,39.5591445 26.0258105,40.0069838 C25.8020929,40.3055434 25.5783754,41.350502 25.5783754,41.7983413 C25.5783754,42.9925797 25.7275204,44.3360978 25.7275204,45.8288957 C25.5783754,46.0528154 25.2800853,50.605849 25.2800853,51.2029681 C25.2800853,52.5464863 25.2055128,53.8153645 25.7275204,54.7856831 C25.7275204,61.1300742 24.6089326,66.5041467 28.8595664,68.5194238 Z M39.9634395,35.9764295 L39.6725822,35.9764295 L39.6725822,35.9764295 C37.6591241,35.9764295 35.5710935,35.7525098 33.6322079,35.7525098 C32.8119101,35.3046704 32.7373376,34.185072 32.7373376,33.1401135 C32.7373376,29.2588389 32.6627651,25.1536447 33.1847727,21.4216499 L33.3339178,21.1230904 C33.7813529,21.0484505 35.8693835,20.9738106 36.9133989,20.9738106 C37.8828417,20.9738106 38.7777119,21.1230904 39.8962998,21.1230904 C40.49288,21.1230904 41.6114678,20.8245308 41.6860403,20.9738106 C43.6249259,21.4962898 46.1603917,20.7498909 46.1603917,22.9144478 L46.1603917,26.347883 L46.1603917,26.347883 L45.9366741,27.3928416 L45.9366741,33.513313 C45.9366741,35.8884611 42.6083046,35.9732878 39.9634395,35.9764295 L39.9634395,35.9764295 Z M13.6467717,37.0960279 L13.4230541,37.0960279 C9.47071042,37.0960279 9.84357303,36.2749891 9.39613789,34.1104321 C9.99271808,33.5879529 9.84357303,30.3784374 9.84357303,28.7363597 C9.84357303,26.9450022 9.61985546,22.1680489 11.6333136,21.8694893 C14.541642,21.8694893 18.1211231,21.8694893 20.8057339,21.5709297 C21.6260317,21.5709297 21.5514591,21.4216499 23.0429096,21.4216499 C25.1711857,21.4216499 25.5660875,21.9999634 25.5780879,26.5713935 L25.5783754,35.9764295 C24.0869249,36.6872857 22.2572771,36.6534354 20.4759431,36.6485996 L20.2091537,36.6481886 C19.8208138,36.6481886 18.505587,36.7465836 17.1532636,36.8518742 L16.8002271,36.8794375 C15.154257,37.0082351 13.5679781,37.1354603 13.6467717,37.0960279 Z M79.4943095,69.4151026 C80.8366149,69.4151026 83.0737906,65.533828 83.5212257,64.4888695 C83.5212257,62.5482322 85.7584014,62.3989524 86.8769893,62.3989524 C89.9344627,61.5032737 92.544501,61.6525535 95.676547,61.0554343 C97.4662875,61.0554343 98.957738,61.3539939 100.747479,61.3539939 C101.642349,61.3539939 102.835509,61.0554343 103.879524,61.0554343 C104.337365,61.4755007 107.176687,61.5829595 110.6797,61.5877304 L111.161336,61.5877642 C112.293999,61.5864499 113.48595,61.5757056 114.681853,61.5622931 L115.450647,61.5533699 C117.413953,61.5299668 119.355924,61.5032737 121.031205,61.5032737 C122.07522,62.2496726 121.926075,66.280227 123.864961,66.280227 C126.997007,66.280227 129.532472,59.7119162 129.681617,57.02488 C129.681617,56.4277608 129.979908,53.6660847 129.979908,53.442165 L129.979908,33.2147534 C129.979908,29.8559581 129.830762,26.7210825 129.234182,24.0340463 C129.234182,21.6455696 129.607045,19.1824531 129.532472,16.420777 C129.234182,15.8236578 129.15961,15.5250982 129.234182,15.3011785 C129.234182,8.80750764 132.440801,10.3003055 132.440801,7.01615015 C132.440801,5.89655172 129.979908,3.58271497 129.681617,3.58271497 C128.26474,3.2095155 126.847862,1.34351811 125.207266,1.34351811 C123.864961,1.34351811 123.864961,2.98559581 122.820945,3.1348756 C120.136334,3.58271497 117.153434,3.58271497 114.468823,3.88127455 C112.977372,3.88127455 111.336777,4.47839371 109.696181,4.47839371 L109.547036,4.7769533 C107.459006,4.7769533 105.072685,4.7769533 102.835509,4.92623309 C102.679262,4.92623309 102.072874,5.04910965 101.487921,5.16613495 L101.173817,5.22861291 C100.765403,5.3090799 100.413678,5.37407246 100.300043,5.37407246 C95.7191598,5.37407246 94.6766664,5.60256193 93.8298443,5.73312735 L93.7289509,5.74830427 C93.6954903,5.75319264 93.6621288,5.75790344 93.6286524,5.76241578 L93.5276651,5.77533653 C93.2902262,5.80399825 93.0366797,5.82191183 92.693646,5.82191183 C92.4699285,5.82191183 89.7853177,6.56831078 89.5616001,6.56831078 L89.3378825,6.56831078 C88.9650199,6.19511131 87.6227145,6.2697512 86.8769893,6.2697512 C84.8635311,5.97119162 83.2229356,3.1348756 80.6128973,1.79135749 C78.2265766,1.79135749 75.9894009,3.88127455 74.1250878,4.32911392 C74.1250878,4.83069402 74.5928067,5.0982034 75.0829761,5.36758535 L75.293125,5.48383729 C75.6065157,5.66045081 75.9028968,5.85176779 76.0639734,6.12047141 C77.4808514,7.9118289 77.2571338,9.92710607 77.2571338,12.091663 C77.2571338,14.927979 77.7045689,19.1824531 77.7045689,23.5862069 L77.7045689,41.7237014 L77.9282865,42.4701004 L77.9282865,54.1139241 C77.9282865,56.5024007 77.7045689,57.6219991 77.7045689,60.4583151 C77.7045689,61.0192806 77.6922616,61.7219088 77.6901462,62.4855039 L77.6899755,62.8419676 C77.6905729,63.1421385 77.6931901,63.4494916 77.6991071,63.7594358 L77.7078734,64.1323187 L77.7078734,64.1323187 L77.7202991,64.5059259 C77.8164277,66.9951372 78.1892903,69.4151026 79.4943095,69.4151026 Z M80.3891798,2.98559581 C80.3146072,2.98559581 80.1654622,2.83631602 80.1654622,2.76167612 C80.1654622,2.61239633 80.3146072,2.53775644 80.3891798,2.53775644 C80.4637523,2.53775644 80.5383248,2.61239633 80.5383248,2.76167612 C80.5383248,2.83631602 80.4637523,2.98559581 80.3891798,2.98559581 Z M122.820945,4.92623309 C122.597228,4.92623309 122.597228,4.85159319 122.597228,4.7769533 C122.597228,4.55303361 122.597228,4.47839371 122.820945,4.47839371 C122.895518,4.47839371 122.895518,4.55303361 122.895518,4.7769533 C122.895518,4.85159319 122.895518,4.92623309 122.820945,4.92623309 Z M87.1007068,59.2640768 C84.9381037,59.2640768 83.7449433,59.1894369 83.7449433,57.02488 L83.7449433,47.3963335 C83.9686609,47.023134 83.8940883,45.1571366 84.416096,45.1571366 C84.8539089,45.1571366 85.5654906,45.705169 86.2829598,46.3062367 L86.5900261,46.5656411 C87.354688,47.2150541 88.0821774,47.8441729 88.4430122,47.8441729 C91.2767681,47.8441729 98.0628677,42.4701004 102.984654,42.4701004 C103.730379,42.4701004 103.879524,42.4701004 103.879524,43.1418595 C103.879524,44.7092973 101.418631,48.0680925 99.2560281,49.85945 C97.9882952,49.85945 95.2291118,53.1436054 93.8122339,54.1139241 C93.8122339,54.1139241 93.8055224,54.12512 93.7932179,54.1454967 L93.7406443,54.2321536 C93.5616702,54.5259363 93.0963377,55.2783064 92.9173636,55.4574422 C92.9173636,55.9052815 93.0665087,55.9799214 93.3647988,55.9799214 C95.2663981,55.3031864 96.7848604,54.0032911 98.3001298,52.6778304 L98.8354169,52.2099322 C99.818802,51.3537407 100.819565,50.5162811 101.940639,49.85945 C102.211812,49.554105 103.006841,48.786116 103.863501,47.9760684 L104.208356,47.6508032 C105.130891,46.7827648 106.053427,45.9306774 106.41499,45.604976 C107.235288,45.0824967 107.608151,44.9332169 109.099601,44.9332169 C110.516479,45.5303361 111.709639,47.769533 112.529937,48.5159319 C114.319678,50.4565692 116.407708,54.1885639 118.943174,55.0096028 C119.241464,55.0096028 120.58377,54.1885639 120.58377,52.5464863 C120.58377,50.9790485 120.136334,49.6355303 120.136334,48.0680925 C120.136334,45.6796159 120.58377,43.9628983 120.58377,41.1265823 C118.346594,42.2461807 119.987189,44.7092973 117.451724,44.7092973 C116.100379,44.7092973 115.256183,43.7303426 114.464677,42.7579802 L114.259093,42.505118 C113.985779,42.1698959 113.714058,41.8458395 113.424807,41.5744216 C112.60451,40.8280227 111.336777,39.4098647 111.784212,39.3352248 C111.784212,38.439546 113.424807,36.349629 113.872243,35.4539502 C114.767113,34.5582715 115.289121,32.6922741 116.109418,31.8712353 C117.153434,29.2588389 118.346594,27.6914011 118.346594,25.4522043 C118.346594,23.4369271 116.705998,23.3622872 115.661983,21.7948494 L114.021388,21.7948494 C113.573952,21.7948494 113.20109,21.8694893 112.977372,22.2426888 C113.126517,23.2130074 113.723098,24.1833261 113.573952,24.929725 C112.828227,26.7210825 111.933357,29.0349192 111.411349,29.0349192 C109.919899,29.0349192 110.143616,24.257966 109.994471,22.2426888 C109.994471,21.5709297 109.696181,21.34701 109.696181,20.4513313 L109.696327,20.3012953 C109.700842,18.791031 109.845326,18.515359 114.468823,18.6599738 C114.767113,18.6599738 115.661983,18.8838935 115.661983,18.8838935 L116.001791,18.8836517 C118.259339,18.878816 120.349399,18.7772651 121.627785,16.6446966 C121.47864,16.420777 121.031205,15.5250982 120.732915,15.3011785 C120.732915,14.6294195 119.241464,13.7337407 119.241464,12.9873418 C119.241464,12.3902226 120.136334,12.3902226 120.136334,11.0467045 C120.136334,9.10606722 116.705998,8.43430816 116.705998,7.46398952 C116.705998,6.74091554 119.085474,6.57822389 119.776571,6.56831078 L119.838044,6.56831078 C120.732915,6.56831078 121.627785,6.56831078 122.37351,7.46398952 C122.37351,11.9423832 122.597228,15.2265386 122.522655,15.7490179 C122.522655,16.5700567 122.149793,17.0178961 122.37351,17.092536 C122.37351,17.3164557 122.37351,17.5403754 122.522655,17.7642951 C122.820945,18.4360541 122.97009,21.5709297 122.97009,22.2426888 L122.97009,28.51244 L122.820945,35.3046704 C122.97009,35.7525098 122.97009,35.9017896 122.97009,36.2003492 C122.97009,37.9170668 122.597228,41.2758621 122.820945,42.4701004 C122.820945,43.5150589 123.26838,46.5752946 123.26838,49.187691 C122.895518,49.6355303 122.895518,50.0087298 122.895518,50.2326495 C122.895518,50.5312091 122.97009,50.7551288 122.97009,50.9790485 C122.97009,51.4268878 122.895518,51.6508075 122.522655,52.0986469 L122.522655,56.1292012 C121.702357,57.9205587 118.868602,58.2191183 117.004289,58.2191183 C111.933357,58.3683981 106.862425,58.7415976 101.940639,58.6669577 C101.194914,58.3683981 100.747479,58.3683981 100.150898,58.3683981 C95.0799668,58.3683981 91.2767681,58.8162375 88.6667298,58.8162375 C88.5772428,58.8162375 88.3445765,58.8878918 88.0832744,58.9738769 L87.8166693,59.0625159 C87.5043927,59.1665474 87.2051084,59.2640768 87.1007068,59.2640768 Z M110.143616,15.5250982 C110.143616,13.1366216 110.367334,12.6141423 111.336777,11.0467045 L111.336777,10.3003055 C111.411349,9.4792667 108.801311,9.10606722 108.801311,8.06110869 C108.801311,7.16542994 111.635067,6.71759057 113.573952,6.71759057 C115.214548,7.31470973 115.811128,10.7481449 115.811128,11.6438237 C115.811128,13.1366216 116.258563,13.8083806 117.153434,14.7786993 C117.153434,15.7490179 113.872243,16.1968573 112.977372,16.1968573 C112.157075,16.1968573 110.740197,16.420777 110.143616,15.5250982 Z M84.1923784,42.9179398 L83.7449433,42.4701004 C83.7449433,37.9170668 83.5212257,33.4386731 83.5212257,28.7363597 C83.5212257,28.0266481 83.5367786,27.2572633 83.562085,26.4731909 L83.576821,26.0443289 C83.6966779,22.7493652 83.9686609,19.3405884 83.9686609,19.1078132 C83.9984899,18.6599738 84.0014728,18.0150851 84.0008762,17.2698804 L84.0004314,16.919169 C84.0003432,16.8596473 84.0002549,16.7996201 84.0001772,16.7391314 L84.0000502,16.1834616 C84.0006997,15.6805704 84.0040603,15.1565971 84.0155542,14.634085 L84.0257843,14.2428271 C84.0973316,11.9011502 84.3610271,9.70318638 85.3109663,9.70318638 C85.6241709,9.70318638 86.5707448,9.60565692 87.5595433,9.50162549 L87.9841758,9.4569079 C88.9729743,9.35287647 89.9195482,9.25534701 90.2327528,9.25534701 C94.7071042,9.25534701 99.3306006,7.9118289 103.879524,7.9118289 C106.265845,7.9118289 105.669265,11.3452641 105.669265,13.2859014 L105.668992,13.4572252 C105.66462,14.4380417 105.590306,16.4339487 104.32696,16.6446966 C103.282944,16.8686163 102.089784,16.9432562 101.045769,16.9432562 L100.03904,16.9315937 L100.03904,16.9315937 L98.0255814,16.8802788 C97.6900051,16.8732813 97.3544287,16.8686163 97.0188524,16.8686163 C96.5074979,16.8686163 95.9565744,16.8777559 95.3886927,16.8934238 L95.0078407,16.9048075 C94.7525953,16.9130032 94.4949927,16.9223738 94.2370179,16.9326901 L93.8500246,16.9488451 C91.0136664,17.072096 88.2523676,17.2959019 88.2082242,17.3151303 L88.2083074,17.316007 L88.0591018,17.3053979 C87.7760024,17.2708424 87.4238544,17.1671759 87.1752793,17.1671759 C86.8024167,17.1671759 86.6532717,17.3910956 86.6532717,18.2121344 C87.1007068,19.1824531 88.1447221,19.8542121 89.1141649,19.7795722 C92.0224933,19.5556526 94.9308217,19.5556526 97.9137227,19.3317329 L97.9142113,19.3312026 L97.9440963,19.3270897 C98.186982,19.2967799 99.8027777,19.1245946 101.486762,19.0040004 L101.824082,18.9806268 L101.824082,18.9806268 L102.1609,18.9589729 C102.888456,18.9141674 103.596149,18.8838935 104.177815,18.8838935 C104.774395,19.1078132 105.072685,19.1078132 105.22183,19.7795722 C105.22183,20.4513313 105.669265,23.3622872 105.669265,24.0340463 C105.812063,24.891611 105.911111,26.0338143 106.029241,27.1378173 L106.069411,27.5039606 C106.254131,29.1412532 106.497496,30.6118855 107.01157,30.8262767 C107.01157,33.4386731 107.384433,35.9764295 107.309861,38.1409865 C107.309861,38.8873854 105.52012,40.8280227 104.774395,40.8280227 C104.177815,40.8280227 103.432089,40.6787429 102.537219,40.6787429 C99.7034632,40.6787429 96.4222722,42.022261 93.5885163,42.022261 C90.6801879,42.022261 87.3244244,43.0672196 84.1923784,42.9179398 Z M91.1276231,40.8280227 C92.0224933,40.8280227 93.1410812,38.5888258 93.8122339,37.9917067 C95.0144334,37.168406 97.1829941,37.0973987 98.1314017,37.0947818 L98.3151593,37.0950185 C98.3969033,37.0954111 98.4628476,37.0960279 98.5103028,37.0960279 C100.598333,37.0960279 102.537219,37.5438673 102.537219,35.4539502 C102.537219,34.5582715 102.388074,33.9611523 102.388074,33.0654736 C102.388074,31.7219555 102.537219,30.5277172 102.537219,29.184199 C102.537219,29.0349192 102.537219,28.7363597 102.388074,28.2885203 L102.388074,24.257966 C102.089784,23.8847665 101.120341,22.9144478 99.8526083,22.9144478 C98.957738,22.9144478 98.5103028,24.257966 97.1679974,24.4818856 C95.825692,24.929725 93.8122339,24.7058053 92.693646,24.7058053 C91.9479208,23.8101266 90.829333,22.8398079 89.5616001,22.9144478 L89.3378825,24.257966 L89.3378825,37.9917067 C89.4870276,38.0663466 89.8598902,40.8280227 91.1276231,40.8280227 Z M106.41499,23.5862069 C106.265845,23.5862069 106.265845,23.5862069 106.265845,23.4369271 C106.265845,23.4369271 106.265845,23.3622872 106.41499,23.3622872 C106.489563,23.3622872 106.489563,23.4369271 106.489563,23.4369271 C106.489563,23.5862069 106.489563,23.5862069 106.41499,23.5862069 Z M127.742732,27.1689219 C127.541386,27.1689219 127.521251,27.0480052 127.519238,26.9694094 L127.519014,26.9450022 C127.519014,26.7957224 127.519014,26.7210825 127.742732,26.7210825 C127.806651,26.7210825 127.815782,26.77592 127.817087,26.8855949 L127.817304,26.9450022 C127.817304,27.0196421 127.817304,27.1689219 127.742732,27.1689219 Z M94.7816767,35.4539502 C92.6190735,35.4539502 93.1410812,31.8712353 93.1410812,30.5277172 C93.1410812,27.6167612 93.8868064,27.1689219 95.825692,27.1689219 C95.891862,27.1689219 95.9564343,27.1685221 96.0194258,27.1681843 L96.2630011,27.1681843 C97.5175312,27.1820849 98.0628677,27.5042758 98.0628677,32.6176342 C98.0628677,34.8568311 96.8697073,35.4539502 94.7816767,35.4539502 Z M109.547036,37.6931471 C109.416534,37.6931471 109.400222,37.6360009 109.398182,37.5717115 L109.397891,37.5438673 C109.397891,37.3199476 109.397891,37.2453077 109.547036,37.2453077 C109.613323,37.2453077 109.620688,37.3042825 109.621506,37.4746539 L109.621609,37.5438673 C109.621609,37.6185072 109.621609,37.6931471 109.547036,37.6931471 Z M108.204731,39.4845046 C108.130158,39.1113051 108.652166,38.2156264 108.801311,37.6931471 L109.099601,37.9917067 C109.099601,38.5888258 108.652166,39.3352248 108.204731,39.4845046 Z M107.757296,41.1265823 L107.459006,41.1265823 L107.757296,40.8280227 L107.757296,41.1265823 Z M187.922758,29.4081187 C186.80417,29.4081187 186.431307,28.6617198 185.61101,27.8406809 C185.61101,27.2780109 185.553352,26.4652654 185.479432,25.640682 L185.446877,25.2872589 C185.319191,23.9350171 185.163575,22.6426821 185.163575,22.4666085 L185.163072,22.2656766 C185.162787,22.1993736 185.162437,22.1337539 185.162173,22.0688449 L185.162083,21.7816437 C185.171731,19.9942531 185.437396,18.8174173 189.488781,18.8838935 C189.936216,18.8838935 191.054804,19.1824531 191.054804,19.1824531 L191.278521,19.6302924 C191.353094,19.7049323 191.502239,23.7354867 191.502239,24.5565255 C191.502239,25.6014841 191.427666,26.4971628 191.278521,27.8406809 C190.980231,29.6320384 188.668483,29.4081187 187.922758,29.4081187 Z M165.252711,29.7066783 C162.195237,29.7066783 163.910405,22.3919686 163.015535,22.9144478 L163.015535,21.5709297 C163.015535,21.0484505 162.791818,19.6302924 163.46297,19.6302924 C164.009836,19.3566128 164.682024,19.3338062 165.307216,19.3319056 L169.503345,19.3317329 C170.174497,19.7049323 170.24907,20.675251 170.24907,21.4962898 L170.24907,22.3173287 C170.24907,22.5694457 170.275658,23.4868713 170.306383,24.4403715 L170.321157,24.8922507 C170.35594,25.9413718 170.391446,26.9131919 170.397357,26.9581208 L170.397975,26.9583976 L170.397644,26.9842262 C170.387372,27.4006483 170.238417,29.4827586 169.95078,29.4827586 C168.086467,29.8559581 167.564459,29.7066783 165.252711,29.7066783 Z M179.794353,29.4827586 L175.767437,29.4827586 C173.530261,29.4827586 173.977696,25.4522043 173.977696,23.8101266 C173.977696,21.5709297 173.530261,19.3317329 175.618292,19.3317329 L179.645208,19.3317329 C181.40118,19.3317329 181.003601,23.4990252 180.987973,24.9251772 L180.987513,25.0043649 C180.987513,25.9000436 181.136658,25.9000436 181.136658,28.5870799 C181.136658,29.0349192 180.241788,29.4827586 179.794353,29.4827586 Z M188.593911,43.8882584 C188.370193,43.8882584 186.80417,43.5896988 186.50588,43.5896988 C186.356735,43.440419 185.61101,42.6940201 185.61101,42.2461807 L186.058445,33.0654736 C186.058445,32.2315658 187.157348,32.1740549 187.970937,32.1700886 L188.146475,32.1697948 L188.146475,32.1697948 C188.696821,32.1697948 189.165017,32.1335199 189.562806,32.1301826 L189.692811,32.130385 C191.391872,32.1518813 191.725957,32.9759057 191.725957,40.6787429 C191.725957,44.2614579 190.458224,43.8882584 188.593911,43.8882584 Z M179.192158,44.512711 L178.971793,44.5088962 C178.459413,44.4968449 177.963183,44.4660265 177.557177,44.4853776 C176.513162,44.4853776 175.170856,44.3360978 174.723421,43.1418595 C174.723421,42.022261 174.350559,39.7084243 174.275986,39.5591445 L174.27566,38.962243 C174.273507,35.4082566 174.299535,32.3937145 176.065727,32.3937145 L180.540078,32.3937145 C181.807811,32.3937145 181.882384,37.9917067 181.882384,39.7830642 C181.882384,40.6787429 182.031529,41.5744216 182.031529,42.5447403 C182.031529,44.3305689 180.591328,44.5270489 179.192158,44.512711 L179.192158,44.512711 Z M165.495165,44.932993 L164.805276,44.9332169 L164.805276,44.9332169 C163.984978,44.6346574 163.76126,43.8882584 163.76126,43.0672196 C163.76126,42.5447403 163.910405,42.022261 163.910405,41.5744216 C163.910405,40.7533828 163.686688,39.7830642 163.686688,38.8873854 C163.686688,38.6634657 163.686688,37.9917067 163.910405,37.767787 L163.910405,34.185072 C165.252711,32.095155 165.252711,32.766914 167.937322,32.6176342 C168.608474,32.6176342 170.24907,32.8415539 170.24907,32.8415539 L170.398215,33.0654736 C170.789721,34.5769315 170.84565,37.8937418 170.849174,40.6542517 L170.849174,41.2575812 C170.84847,41.9485426 170.84565,42.5903536 170.84565,43.1418595 C170.84565,44.8436491 169.701521,44.9287385 165.495165,44.932993 L165.495165,44.932993 Z M145.71471,70.6093409 C147.579023,70.6093409 157.497169,66.3548669 159.883489,64.9367089 C164.805276,62.6228721 168.683047,59.2640768 173.530261,56.4277608 C173.977696,55.9799214 173.977696,55.9799214 173.977696,55.0842427 C173.977696,54.1885639 171.367658,50.9044086 170.24907,48.9637713 C169.95078,48.8144915 169.801635,48.8144915 169.3542,48.8144915 C168.161039,48.8144915 165.849291,53.1436054 165.028993,54.1885639 C160.852932,59.6372763 154.812558,63.7424705 150.487351,66.7280663 C148.846756,67.7730249 145.11813,69.3404627 145.11813,70.1615015 C145.11813,70.6093409 145.267275,70.6093409 145.71471,70.6093409 Z M195.08172,67.1759057 C196.722316,67.1759057 200.450942,62.5482322 200.450942,60.0104758 C200.450942,57.696639 198.213766,56.8009603 196.424025,55.6813619 C192.173392,53.2182453 188.071903,50.7551288 183.224689,49.2623309 C182.777254,49.2623309 182.478964,49.7101702 182.478964,49.85945 L182.478964,50.3072894 C183.373834,51.5015277 184.641567,52.2479267 185.61101,53.2928852 C188.071903,56.0545613 190.309079,59.114797 191.054804,62.5482322 C191.054804,64.4888695 193.217407,67.1759057 195.08172,67.1759057 Z M158.093749,44.9332169 C156.304008,45.2317765 154.961703,45.2317765 153.39568,45.2317765 C150.263634,45.2317765 147.50445,44.9332169 144.372404,44.9332169 C144.372404,44.9332169 143.552107,45.6796159 143.775824,45.8288957 C145.640137,47.769533 147.429878,50.1580096 149.145046,50.1580096 C152.277092,50.1580096 155.18542,49.187691 158.317466,48.9637713 C167.565951,48.4099433 171.912738,48.1706104 176.065134,48.056866 L176.534639,48.0445157 C180.053492,47.9557595 183.560265,47.9524007 189.936216,47.9188127 C191.187518,47.9188127 194.636791,47.9574085 198.029204,47.9953501 L198.70626,48.002918 C201.743589,48.03683 204.6131,48.0680925 205.671018,48.0680925 C207.013324,48.0680925 208.504774,48.5159319 210.14537,48.5159319 C210.74195,48.5159319 212.084255,47.1724138 212.084255,46.5752946 C212.084255,45.8288957 212.084255,45.8288957 211.63682,45.3810563 C211.293787,45.0377128 210.288012,43.8257102 209.214701,42.6168663 L208.933566,42.3021606 C207.759049,40.9959625 206.565889,39.7830642 206.118453,39.7830642 L205.820163,39.7830642 L202.911835,42.5447403 C202.285426,42.9627237 201.269251,42.9905893 200.590873,42.992447 L200.242193,42.9924166 C198.524059,42.9882586 198.22495,42.8780706 198.214081,39.958089 L198.213279,39.7844025 L198.213766,39.7830642 L198.212399,39.7762243 C198.196179,39.6097671 198.038838,37.2271883 197.915561,34.8640919 L197.89536,34.4708062 C197.822668,33.0322313 197.766331,31.6473156 197.766331,30.8262767 L197.766331,20.5259712 C196.871461,20.1527717 200.898377,17.838935 200.898377,16.0475775 C200.898377,15.1518987 195.305438,12.1663029 194.634285,12.1663029 C192.844544,12.1663029 191.725957,16.5700567 189.488781,16.1968573 C188.519338,16.1968573 186.80417,15.9729376 185.9093,15.7490179 C184.343277,14.7786993 185.61101,11.1213444 185.163575,11.0467045 C185.163575,7.31470973 186.356735,6.64295068 187.69904,4.7769533 C187.922758,4.55303361 187.922758,4.17983413 187.922758,3.65735487 C186.50588,2.23919686 184.641567,1.26887822 182.329819,0.298559581 C180.316361,0.298559581 176.960597,0.970318638 177.557177,1.86599738 C177.03517,2.16455696 179.197773,2.83631602 179.197773,3.65735487 C180.241788,5.44871235 180.092643,7.24006984 180.241788,9.25534701 C180.241788,10.7481449 180.763796,12.1663029 180.689223,13.7337407 C180.689223,14.7040594 180.540078,16.0475775 180.092643,16.6446966 C175.692864,16.6446966 174.275986,17.5403754 174.275986,12.6141423 C174.275986,11.7931034 174.723421,11.0467045 174.872566,9.70318638 C175.320001,8.58358795 176.662307,7.24006984 176.662307,5.89655172 C176.662307,4.55303361 170.771078,1.6420777 170.696505,1.6420777 C169.577917,1.6420777 167.340742,3.28415539 167.713604,4.10519424 C168.608474,5.44871235 170.24907,7.24006984 170.24907,9.03142732 L170.24907,16.0475775 L169.801635,16.4954168 C167.639032,16.7193365 165.849291,16.9432562 163.46297,16.9432562 C161.822375,16.0475775 159.958062,15.2265386 158.093749,14.8533392 C157.198878,14.8533392 154.961703,16.0475775 154.961703,16.6446966 C154.961703,17.5403754 155.632855,17.3910956 156.080291,17.838935 C158.891675,18.9212134 158.985387,24.1883021 158.988511,27.7744919 L158.9891,28.4856081 C159.00023,32.61099 159.200725,39.5992649 159.211855,39.7841074 L159.211873,39.7862709 L159.212707,39.8791298 C159.224021,41.4266645 159.481108,44.9332169 158.093749,44.9332169 Z M257.498922,39.932344 C258.61751,39.932344 261.824128,39.4845046 264.061304,39.4845046 L270.623686,39.4845046 C272.115136,39.4845046 273.308297,38.6634657 274.650602,38.8873854 C274.87432,39.3352248 276.887778,38.8127455 277.484358,39.3352248 C277.484358,39.3237417 277.517894,39.3193252 277.573831,39.3178983 L277.673148,39.3174906 C278.050933,39.3202085 278.849609,39.3467079 278.677518,38.8873854 C278.58025,38.8549333 278.356109,38.5826176 278.127679,38.2912846 L277.991086,38.1159695 C277.743318,37.7968528 277.520023,37.50817 277.484358,37.5438673 C276.121402,36.5517309 275.993684,36.6929195 275.98949,33.6877441 L275.989476,33.3406702 C275.989985,32.8600613 275.9923,32.3069175 275.992809,31.6673233 L275.992907,31.4233959 C275.992907,31.2741161 275.992907,30.0798778 276.440343,29.6320384 L276.887778,29.930598 L283.599305,29.930598 C285.165328,29.930598 285.165328,29.1095591 285.836481,29.4827586 L286.955068,28.5870799 C286.990283,27.6354212 286.709543,27.4993301 286.395544,27.4164081 L286.227756,27.3732857 C285.929466,27.2905573 285.645906,27.1357486 285.612763,26.2732431 C285.389045,25.8254038 284.94161,25.8254038 284.717893,25.8254038 C283.599305,25.8254038 283.375587,26.2732431 282.928152,27.1689219 C281.660419,27.1689219 280.168969,27.6167612 279.124953,27.6167612 C277.633503,27.6167612 276.440343,27.3928416 276.440343,25.6014841 C276.440343,23.2130074 279.572389,22.9144478 280.467259,20.675251 C280.243541,20.2274116 278.379228,19.7795722 277.931793,19.5556526 C277.782648,19.4063728 276.291198,18.4360541 275.247182,18.4360541 C274.799747,18.2121344 274.650602,17.9882148 274.650602,17.5403754 C274.650602,16.420777 276.440343,15.7490179 276.440343,15.3011785 C275.694617,14.8533392 274.650602,13.8830205 274.650602,12.9873418 C274.650602,12.4361549 275.921424,12.3937559 276.468855,12.3904944 L276.589488,12.3902226 L276.589488,12.3902226 C279.199526,12.3902226 281.212984,12.5395024 284.270458,12.5395024 C284.717893,12.3902226 284.94161,12.3902226 284.94161,11.9423832 C284.94161,11.3452641 283.15187,11.0467045 283.15187,10.3003055 C282.928152,9.85246617 280.019824,7.46398952 279.572389,7.46398952 L279.274099,7.46398952 C278.528373,7.46398952 277.782648,8.50894806 276.887778,8.35966827 C275.321755,8.65822785 274.203167,9.70318638 271.965991,9.85246617 L271.751169,9.85231664 C270.101779,9.84895212 267.640785,9.76988586 267.640785,7.9118289 C267.640785,6.56831078 268.38651,5.82191183 269.430525,4.92623309 C269.505098,4.92623309 269.579671,5.00087298 269.728816,5.00087298 C270.474541,5.00087298 271.965991,3.95591445 271.965991,3.43343518 C271.965991,1.71671759 267.342495,0 266.29848,0 C265.254464,0 263.241006,0.821038848 262.271563,1.34351811 C262.271563,2.08991707 262.718998,2.23919686 262.718998,2.53775644 C262.122418,3.88127455 260.929258,7.01615015 260.630968,8.35966827 C260.421233,8.87281755 260.124108,9.28392009 259.814694,9.67953341 L259.628171,9.91573515 C259.00552,10.701495 258.393792,11.4945439 258.393792,12.9873418 C258.244647,13.8083806 256.305761,13.5844609 255.560036,15.3011785 C254.516021,16.9432562 252.875425,18.2121344 252.1297,20.2274116 C251.682265,20.1527717 249.743379,20.7498909 249.743379,22.2426888 C251.83141,22.2426888 253.322861,18.9585334 254.665166,18.8838935 C255.187174,18.8838935 255.485464,17.9882148 256.156616,17.5403754 C256.385418,17.3961847 256.616146,17.2587409 256.845846,17.1239914 L257.120802,16.963326 C258.81099,15.9773327 260.380133,15.0501171 260.630968,12.5395024 C260.929258,12.1663029 263.763014,13.2859014 263.166434,12.9873418 C264.956174,13.0619817 267.118777,12.838062 269.28138,12.838062 C269.803388,12.838062 269.877961,13.509821 269.877961,13.8830205 C269.877961,16.1968573 266.745915,17.9135749 266.59677,19.3317329 C266.29848,19.7795722 265.403609,20.4513313 265.403609,21.1230904 C267.044205,21.1230904 268.08822,19.7795722 269.728816,19.7795722 C270.955119,19.7795722 271.072299,21.898903 271.075206,23.3992545 L271.074833,23.6366966 C271.073772,23.8678481 271.071121,24.0788302 271.071121,24.257966 C271.518556,24.929725 271.518556,25.8254038 271.518556,26.7210825 C271.518556,27.4674814 270.847403,27.6914011 270.250823,27.6914011 C269.803388,27.6914011 269.355953,27.6167612 268.98309,27.6167612 C267.939075,27.6167612 266.745915,28.5870799 265.701899,28.2885203 C262.122418,28.2885203 262.122418,25.3775644 262.271563,24.7058053 C262.122418,24.257966 260.630968,24.4818856 260.183533,24.0340463 C259.792027,23.7541467 259.63123,23.4112696 259.488785,23.0762648 L259.418108,22.9097464 C259.204768,22.4141273 258.953086,21.9627892 257.946357,21.7948494 C257.349777,21.34701 257.797212,21.34701 257.051487,21.34701 L257.051487,22.0187691 C257.946357,22.6905282 258.542937,24.7058053 258.692082,24.4818856 L258.692082,28.0646006 C258.692082,28.5870799 259.288662,28.2885203 259.288662,28.7363597 C259.288662,29.184199 258.692082,29.4827586 258.244647,29.4827586 C257.909071,29.4827586 257.573494,29.4407737 257.237918,29.3882925 L256.566765,29.2786652 C256.231189,29.226184 255.895613,29.184199 255.560036,29.184199 C254.814311,29.184199 254.665166,29.6320384 253.919441,29.930598 L253.248288,29.930598 C252.800853,29.930598 252.353418,30.0052379 252.42799,30.5277172 C252.502563,31.0501964 253.472006,32.1697948 253.472006,32.1697948 C255.709181,32.1697948 255.560036,31.2741161 256.454906,31.2741161 L256.454906,31.8712353 C256.454906,32.1697948 259.736097,32.2444347 259.736097,32.766914 C259.736097,33.513313 258.692082,33.513313 258.692082,34.4089917 C258.692082,35.3046704 260.034388,34.4089917 260.034388,35.4539502 C260.034388,36.6481886 258.692082,35.9017896 258.244647,36.6481886 C258.114145,36.7788084 258.021706,36.9602248 257.934025,37.1516947 L257.859259,37.3173236 C257.671371,37.7327995 257.461636,38.1409865 256.902342,38.1409865 L252.875425,38.1409865 C252.875425,38.439546 252.800853,38.8873854 252.800853,39.2605849 C252.800853,39.7084243 252.875425,39.932344 253.322861,39.932344 C253.919441,39.932344 254.366876,39.7830642 255.112601,39.7830642 C255.858326,39.7830642 256.976914,40.0069838 257.498922,39.932344 Z M219.392363,28.7363597 C220.349377,28.6492798 221.103388,28.1304289 221.832023,27.57983 L222.14326,27.3430816 C222.557552,27.0279354 222.971844,26.7210825 223.419279,26.4971628 C224.239577,26.4971628 225.432737,25.4522043 225.507309,25.3775644 C227.819058,23.7354867 231.249394,22.093409 232.666272,20.0034919 C232.666272,20.0034919 233.113707,19.7795722 233.337424,19.7795722 C234.605157,18.510694 237.289768,15.5997381 237.364341,15.9729376 C238.482928,15.0772588 238.930364,14.4054998 240.720104,14.4054998 C242.283641,14.4054998 242.290684,16.5625928 242.288149,18.4320733 L242.287917,18.7584985 C242.28911,20.0482759 242.330871,21.1230904 242.95728,21.1230904 C244.821593,21.1230904 245.418173,19.3317329 246.163898,18.2121344 C245.865608,16.8686163 243.628433,16.420777 243.628433,14.8533392 C243.628433,13.6787429 245.862716,13.8319511 248.038203,13.8784936 L248.37212,13.884619 C249.259679,13.8976774 250.11755,13.8804016 250.787395,13.7337407 C254.146887,13.7337407 254.058146,12.9248309 253.955935,12.2696139 L253.944055,12.1932966 C253.930606,12.1052226 253.919441,12.0207551 253.919441,11.9423832 C253.919441,10.7481449 253.02457,9.70318638 253.02457,8.35966827 C252.800853,7.76254911 252.353418,7.9118289 251.682265,7.9118289 C251.607692,8.50894806 251.53312,8.95678743 251.085685,9.25534701 C249.743379,10.7481449 249.892524,11.0467045 247.655349,11.0467045 C246.760478,11.0467045 244.523303,10.7481449 244.523303,9.4046268 C244.44873,8.43430816 246.462188,7.24006984 246.760478,6.12047141 L246.611333,5.82191183 C245.418173,5.82191183 244.44873,4.40375382 244.075868,4.32911392 C241.689547,2.98559581 241.167539,1.34351811 238.706646,1.34351811 C237.588058,1.34351811 236.916905,1.79135749 236.693188,2.98559581 C236.17118,5.52335225 235.723745,7.61326931 234.232295,10.5988651 C233.894117,11.2758316 233.383523,12.1435355 232.861955,13.0213783 L232.653126,13.3726281 C231.748977,14.8933436 230.876531,16.3721742 230.876531,16.8686163 C229.534226,19.7049323 226.99876,21.0484505 225.059874,23.3622872 C223.344706,25.4522043 221.480393,26.4971628 219.392363,28.5870799 L219.392363,28.7363597 Z M264.359594,8.06110869 C263.912159,8.06110869 263.613869,7.9118289 263.613869,7.46398952 C263.613869,7.16542994 263.613869,7.01615015 263.912159,6.71759057 C264.359594,7.16542994 264.956174,6.71759057 264.956174,7.61326931 C264.956174,8.06110869 264.807029,8.06110869 264.359594,8.06110869 Z M240.943822,9.85246617 C240.496387,9.85246617 240.272669,9.85246617 240.272669,9.25534701 L240.272669,8.95678743 C240.496387,9.25534701 240.943822,9.4046268 240.943822,9.85246617 Z M282.806826,11.7928119 L282.779007,11.7931034 C282.779007,11.7931034 282.704435,11.7931034 282.704435,11.6438237 C282.704435,11.5816237 282.756221,11.5712571 282.773483,11.5695293 C282.85358,11.5691838 282.928152,11.5691838 282.928152,11.6438237 C282.928152,11.7744435 282.871058,11.790771 282.806826,11.7928119 L282.806826,11.7928119 Z M270.325396,18.6599738 L269.877961,18.6599738 L269.877961,18.2121344 L270.176251,18.2121344 C270.325396,18.2121344 270.325396,18.4360541 270.325396,18.6599738 Z M236.916905,69.8629419 C238.035493,69.8629419 239.377799,69.4151026 240.048951,68.2208643 C240.496387,67.6237451 240.272669,66.4295068 240.496387,65.8323876 C240.554387,65.69693 240.622413,65.601608 240.688768,65.511303 L240.744962,65.4343082 C240.910678,65.2020952 241.043252,64.9367089 240.943822,64.0410301 L240.720104,63.1453514 C240.720104,62.2496726 241.167539,61.3539939 241.167539,60.6075949 C241.167539,59.7119162 240.943822,59.114797 240.720104,58.3683981 C240.720104,55.5320821 240.496387,52.8450458 240.272669,52.9943256 C240.421814,52.7704059 240.496387,52.695766 240.496387,52.0986469 C240.496387,51.8747272 240.496387,51.6508075 240.272669,51.4268878 C240.272669,50.3072894 240.794677,48.7398516 241.391257,48.7398516 C243.594014,49.0843434 244.780115,53.4991386 244.949558,54.0588869 L244.965443,54.1082038 C244.968973,54.1175677 244.970738,54.1196656 244.970738,54.1139241 C244.970738,57.9205587 246.238471,59.2640768 247.953639,59.2640768 C248.848509,59.2640768 249.445089,58.3683981 249.445089,57.3234395 C249.445089,56.6703405 249.102522,56.2458261 248.717133,55.8498847 L248.550219,55.6813619 L248.550219,55.6813619 L247.058769,52.5464863 C247.133341,52.3972065 245.791036,51.8000873 245.269028,51.2029681 C244.847161,50.9918439 242.966837,48.3919992 242.753321,48.0955635 L242.733562,48.0680925 L242.733562,48.0680925 C242.733562,46.5932082 244.24112,46.584132 245.914079,46.6647288 L246.179409,46.6779991 C246.623265,46.7006897 247.073683,46.7245744 247.506204,46.7245744 C249.146799,46.7245744 250.190815,46.5006547 250.190815,45.604976 C249.221372,44.186818 249.370517,44.0375382 247.655349,44.0375382 L247.654901,44.1697703 C247.650418,44.6408259 247.601114,45.3810563 247.058769,45.3810563 C246.611333,45.3810563 246.313043,45.1571366 246.163898,45.1571366 C245.641891,45.1571366 244.299585,45.3810563 242.95728,45.3810563 C241.689547,45.3810563 239.825234,45.3064164 239.825234,43.8136185 C239.825234,40.5318709 242.174618,40.3854648 245.591329,40.3802334 L246.313043,40.3801833 L246.313043,40.3801833 C247.357059,40.3801833 247.953639,39.4845046 247.953639,39.0366652 C247.953639,38.5888258 247.655349,37.0960279 247.058769,37.0960279 C246.163898,37.0960279 245.269028,37.5438673 244.523303,37.9917067 L240.720104,37.9917067 C240.272669,37.9917067 240.048951,36.6481886 240.048951,36.349629 C240.048951,35.0061109 240.496387,32.766914 242.06241,32.766914 L242.607561,32.7665695 C245.084926,32.7621765 249.445089,32.7017737 249.445089,31.8712353 C249.445089,30.8262767 248.550219,30.0798778 248.401074,29.0349192 C246.984196,28.9602794 246.014753,29.5573985 245.269028,30.3784374 L241.614974,30.3784374 C240.997514,30.3784374 240.948117,29.7466853 240.944165,28.9481507 L240.943822,28.7363597 L240.943822,28.7363597 C240.943822,27.968635 241.236024,27.7858435 241.56997,27.6030519 L241.696667,27.5333626 C241.90946,27.4134056 242.126329,27.2648874 242.286127,26.9450022 C242.286127,25.8254038 238.184638,22.2426888 235.350882,22.2426888 C234.67973,22.2426888 234.157722,22.2426888 234.008577,22.9144478 C233.635714,23.2130074 235.127165,23.8847665 235.127165,24.7058053 C235.5746,25.9000436 235.127165,27.2435618 235.5746,28.2885203 C235.5746,29.7066783 234.828875,31.6473156 233.113707,30.9755565 C231.995119,31.8712353 226.029317,31.2741161 224.165004,31.4233959 C223.866714,31.4233959 221.480393,30.9755565 221.182103,30.9755565 C220.734668,30.9755565 220.51095,30.9755565 220.585523,31.4233959 C220.958386,31.9458752 222.598981,34.4089917 223.717569,34.4089917 C224.090432,34.4089917 226.029317,34.0357922 226.178462,33.9611523 C226.849615,33.6625928 227.968203,34.1104321 228.415638,33.2147534 L228.863073,33.6625928 L229.086791,33.6625928 C229.534226,33.6625928 232.666272,33.513313 233.113707,33.513313 C235.131639,33.2072894 235.494867,34.4570897 235.560248,35.781168 L235.567847,35.9752938 C235.5746,36.2019913 235.5746,36.4287473 235.5746,36.6481886 C235.5746,37.5438673 235.5746,38.1409865 234.67973,38.439546 C230.056233,38.439546 227.371623,38.5888258 227.29705,38.5888258 C225.209019,38.5888258 223.493851,38.1409865 221.182103,38.1409865 C221.032958,38.6634657 222.524409,39.3352248 222.524409,39.932344 C223.493851,41.5744216 224.239577,41.7983413 225.731027,41.7237014 C225.954745,41.7237014 227.073332,41.5744216 227.29705,41.5744216 C229.534226,41.2758621 231.995119,41.1265823 234.456012,41.1265823 C235.500028,41.1265823 236.022035,42.0969009 236.022035,43.7389786 C236.022035,44.4107377 235.947463,45.3064164 235.350882,45.604976 L234.157722,45.604976 C233.635714,45.604976 233.039134,45.604976 232.666272,45.8288957 L227.520768,45.8288957 C227.073332,45.604976 226.625897,45.604976 225.954745,45.604976 C224.612439,45.604976 223.419279,45.8288957 222.076973,45.8288957 C220.734668,45.8288957 219.690653,45.604976 218.348347,45.604976 C217.900912,45.604976 217.602622,45.604976 217.602622,46.0528154 C217.602622,47.0977739 219.0195,48.5159319 221.182103,48.5159319 C224.537867,48.5159319 227.446195,47.8441729 230.876531,47.8441729 C231.323966,48.0680925 231.323966,48.5159319 231.323966,48.9637713 C231.323966,50.3072894 230.801959,50.6804889 227.29705,54.3378437 C226.10389,55.606722 224.836157,57.6219991 223.419279,58.3683981 C221.853256,59.861196 220.585523,61.5032737 219.243218,63.1453514 C217.602622,64.0410301 215.812881,64.9367089 214.768866,66.280227 L215.216301,66.7280663 C215.812881,66.7280663 216.260317,65.8323876 216.707752,65.533828 C219.690653,63.5931907 225.880172,61.4286338 229.757943,55.9052815 C230.429096,55.9052815 231.398539,54.4871235 231.547684,54.5617634 C232.218837,53.8900044 232.666272,52.7704059 233.337424,52.3225666 C233.561142,52.3225666 234.97802,51.4268878 235.350882,51.4268878 C236.245753,51.4268878 236.46947,54.1139241 236.46947,54.7856831 C236.693188,55.2335225 236.693188,55.4574422 236.693188,55.6813619 C236.693188,56.7263204 236.46947,57.8459188 236.46947,58.8162375 C236.46947,59.114797 236.022035,59.7119162 236.022035,60.0104758 C236.022035,60.8734996 236.000188,61.554297 235.970148,62.2305389 L235.957727,62.5012138 C235.89163,63.9027973 235.798318,65.3861032 235.798318,68.5194238 C235.798318,68.9672632 236.245753,69.8629419 236.916905,69.8629419 Z M285.389045,29.0349192 C285.2399,29.0349192 285.165328,28.9602794 285.165328,28.8109996 C285.165328,28.6617198 285.2399,28.5870799 285.389045,28.5870799 C285.463618,28.5870799 285.53819,28.6617198 285.53819,28.8109996 C285.53819,28.9602794 285.463618,29.0349192 285.389045,29.0349192 Z M266.149334,38.5888258 C265.776472,38.5888258 265.552754,38.3649062 265.403609,37.9917067 C264.583311,37.4692274 261.824128,37.6931471 261.824128,36.2003492 C261.824128,34.4089917 262.271563,30.5277172 263.464724,30.5277172 C264.508739,30.5277172 265.552754,30.4530773 266.149334,30.3784374 C266.59677,30.3784374 266.745915,30.5277172 267.19335,30.5277172 C267.640785,30.5277172 268.08822,29.184199 268.08822,28.5870799 C268.283973,28.6710498 268.385345,28.8914707 268.478852,29.1302601 L268.540974,29.2908784 C268.677162,29.6391655 268.837052,29.9710279 269.28138,29.930598 C269.728816,30.0052379 270.399968,30.0798778 270.325396,30.3784374 C270.623686,31.2741161 270.623686,31.8712353 270.623686,32.766914 C270.623686,33.9611523 270.623686,37.5438673 269.430525,37.6931471 C269.057663,37.6931471 267.939075,37.5438673 267.939075,37.5438673 C266.745915,37.5438673 266.149334,38.5888258 266.149334,38.5888258 Z M260.034388,31.2741161 L259.586952,31.2741161 C259.21409,31.2741161 258.841227,31.2741161 258.841227,30.8262767 C258.841227,30.5490428 259.098426,30.5292404 259.373997,30.527826 L260.034388,30.5277172 L260.034388,31.2741161 Z M287.526757,39.4844515 L287.774445,39.4830712 C288.761381,39.4716039 289.689394,39.3683981 290.087114,38.439546 C288.819381,37.0960279 287.477076,35.2300306 285.836481,34.5582715 C284.64332,34.5582715 284.34503,35.9017896 283.599305,35.9017896 C283.375587,35.9017896 281.809564,36.6481886 281.585847,36.6481886 C281.138412,36.6481886 279.646961,38.5141859 279.796106,38.5888258 L279.796106,38.8873854 L280.019824,39.0366652 L283.375587,39.0366652 C283.599305,38.8873854 283.823022,38.5888258 284.04674,38.5888258 C284.270458,38.5888258 284.270458,39.0366652 284.494175,39.3352248 C284.717893,39.2605849 285.016183,39.2605849 285.2399,39.2605849 C286.060198,39.2605849 286.507633,39.4845046 287.402504,39.4845046 L287.526757,39.4844515 L287.526757,39.4844515 Z M282.704435,38.5888258 C282.55529,38.5888258 282.480717,38.5141859 282.480717,38.439546 C282.480717,38.2156264 282.55529,38.1409865 282.704435,38.1409865 C282.779007,38.1409865 282.85358,38.2156264 282.85358,38.439546 C282.85358,38.5141859 282.779007,38.5888258 282.704435,38.5888258 Z M254.366876,70.7586207 C255.634609,70.7586207 256.753197,69.3404627 257.946357,68.0715845 C258.692082,66.7280663 257.797212,65.8323876 259.288662,64.6381493 C260.10896,64.11567 262.718998,63.7424705 263.464724,63.7424705 C263.935959,63.7424705 264.456211,63.7670013 264.976724,63.7873567 L265.260373,63.797873 C266.864542,63.8531633 268.38651,63.8186985 268.38651,62.8467918 C268.38651,62.2496726 267.939075,61.3539939 267.19335,61.3539939 L262.271563,61.3539939 C261.973273,61.3539939 261.525838,61.8018333 261.078403,61.8018333 C261.078403,61.8018333 260.630968,61.3539939 260.630968,61.0554343 L258.692082,61.0554343 C258.393792,61.0554343 258.244647,60.1597556 258.244647,60.1597556 C258.244647,58.5176779 257.871784,55.0096028 260.630968,55.0096028 C261.898701,55.0096028 266.745915,54.7856831 270.176251,54.7856831 C271.220266,54.3378437 271.518556,54.1139241 271.518556,52.9943256 C271.518556,52.3225666 271.220266,51.8747272 270.772831,51.4268878 C270.623686,51.6508075 269.728816,52.0986469 269.430525,52.0986469 C268.237365,52.2479267 267.49164,51.8000873 266.745915,51.8747272 C266.705432,52.1583588 265.785908,52.1560434 264.810501,52.1543565 L264.50158,52.154179 C263.780911,52.1553732 263.076947,52.1732868 262.718998,52.3225666 C262.569853,52.3225666 261.824128,52.9943256 261.674983,52.9943256 C261.30212,52.9943256 258.61751,52.024007 258.692082,52.0986469 C258.692082,51.3522479 257.946357,50.9790485 257.946357,50.0833697 C257.946357,47.3963335 258.61751,46.2767351 260.630968,46.2767351 C261.451266,46.2767351 262.271563,46.5752946 263.017289,46.5006547 C264.807029,46.2767351 267.78993,45.8288957 272.115136,45.8288957 L272.860862,45.604976 C273.457442,45.604976 273.308297,49.85945 273.755732,49.85945 C274.203167,49.85945 274.352312,49.6355303 275.098037,49.6355303 C275.545472,49.6355303 276.142053,49.6355303 276.142053,50.3072894 L276.14269,50.413347 L276.14269,50.413347 L276.145331,50.6279234 C276.149794,51.1298779 276.124506,51.6288546 275.694617,51.8747272 C275.098037,51.8747272 274.87432,51.5015277 273.904877,50.9790485 C273.308297,50.9790485 273.457442,52.024007 273.457442,52.0986469 C273.457442,52.7704059 273.457442,53.2182453 273.755732,53.8900044 L273.755732,60.0104758 C273.159152,60.6075949 272.487999,60.9061545 270.325396,60.9061545 C269.877961,60.9061545 269.28138,60.9061545 269.28138,61.5032737 L270.176251,63.2946312 L272.413426,63.2946312 C273.010007,63.7424705 273.308297,68.5194238 275.247182,68.5194238 C280.451689,68.5194238 280.680458,60.8785195 280.690514,57.07606 L280.690976,56.5770406 L280.690976,56.5770406 C280.690976,56.3531209 280.318114,56.0545613 280.467259,55.6813619 L280.690976,55.2335225 C280.690976,54.5617634 280.467259,53.6660847 280.467259,52.9943256 C280.467259,52.3225666 280.690976,51.4268878 280.690976,50.5312091 C280.690976,49.85945 280.467259,49.187691 280.467259,48.5159319 C280.467259,46.9484941 282.256999,46.0528154 282.256999,44.7092973 C282.256999,43.5896988 280.690976,43.5896988 280.019824,43.1418595 C279.918134,43.1418595 279.569923,42.9105375 279.206305,42.6581862 L278.988134,42.5059343 C278.627598,42.253583 278.297876,42.022261 278.230083,42.022261 C275.620045,42.022261 276.142053,42.0969009 275.247182,43.3657791 C273.457442,43.3657791 272.413426,44.3360978 271.518556,44.4853776 C268.237365,44.4853776 265.478182,44.7092973 262.122418,44.7092973 C261.078403,44.9332169 260.481823,45.3810563 259.586952,45.3810563 C258.393792,45.3810563 258.692082,44.7092973 257.946357,44.7092973 C257.349777,44.7092973 257.051487,44.7092973 256.604052,45.1571366 C256.424049,45.0799229 256.359319,44.922833 256.299787,44.7593163 L256.263811,44.6610226 C256.158656,44.3836685 256.0049,44.1301946 255.261746,44.2614579 C254.590593,44.2614579 253.02457,44.4853776 253.02457,44.9332169 C254.143158,46.7245744 254.143158,47.3216936 254.665166,48.9637713 C254.665166,50.3072894 254.217731,51.4268878 254.217731,52.7704059 C254.217731,52.9943256 254.516021,53.3675251 254.366876,53.6660847 L254.217731,54.3378437 C254.161056,54.3378437 254.750477,54.5534038 255.396755,54.7879331 L255.602045,54.8623962 C255.739249,54.9121529 255.876224,54.9618333 256.007471,55.0096028 C256.007471,56.1292012 253.919441,55.9052815 253.919441,57.02488 L253.919441,61.8018333 C254.068586,62.1750327 254.292303,62.6228721 254.217731,62.697512 C254.217731,64.6381493 253.770296,66.7280663 253.770296,68.9672632 C253.770296,69.2658228 253.695723,69.4897425 253.695723,69.8629419 C253.695723,70.3107813 253.844868,70.7586207 254.366876,70.7586207 Z M232.666272,48.9637713 C232.442554,48.9637713 231.771401,48.9637713 231.771401,48.7398516 C231.771401,46.9484941 232.442554,46.2767351 234.008577,46.2767351 L234.008577,47.1724138 C234.008577,48.0680925 233.784859,48.9637713 232.666272,48.9637713 Z M254.814311,57.7712789 L254.665166,57.7712789 L254.665166,57.4727193 L254.814311,57.4727193 L254.814311,57.7712789 Z M264.061304,62.2496726 C263.986731,62.2496726 263.912159,62.1750327 263.912159,62.1003928 C263.912159,61.8764732 263.986731,61.8018333 264.061304,61.8018333 C264.135876,61.8018333 264.210449,61.8764732 264.210449,62.1003928 C264.210449,62.1750327 264.135876,62.2496726 264.061304,62.2496726 Z M219.243218,64.0410301 C219.041872,64.0410301 219.021737,63.9805718 219.019724,63.9140677 L219.0195,63.8917503 C219.0195,63.6678306 219.0195,63.5931907 219.243218,63.5931907 C219.309504,63.5931907 219.316869,63.6521655 219.317688,63.8225369 L219.31779,63.8917503 C219.31779,63.9663902 219.31779,64.0410301 219.243218,64.0410301 Z M238.482928,68.5194238 L238.035493,68.0715845 L238.482928,68.0715845 L238.482928,68.5194238 Z" id="中國典籍" fill="#FFFFFF" fill-rule="nonzero"></path>
                <path d="M303.950871,20.8989584 L303.950871,20.608294 C302.885071,20.5859352 302.771688,20.4741412 302.771688,19.4456363 L302.771688,12.8274309 C303.712767,12.8497897 304.222991,13.0063014 304.619832,13.386401 C304.993996,13.7329624 305.220762,14.3142913 305.402175,15.3986931 L305.810354,15.3763343 L305.594926,12.5367665 L298.463131,12.5367665 L298.247703,15.3763343 L298.655882,15.3986931 C298.825957,14.4037265 299.018708,13.833577 299.336181,13.4758362 C299.733021,13.0286602 300.265922,12.8497897 301.275031,12.8274309 L301.275031,19.4456363 C301.275031,20.4741412 301.161648,20.5859352 300.107185,20.608294 L300.107185,20.8989584 L303.950871,20.8989584 Z M309.347905,20.8989584 L309.347905,20.6306528 C308.576901,20.6194734 308.497532,20.5076794 308.497532,19.5127127 L308.497532,17.3662677 C308.497532,16.9079123 308.588239,16.5501714 308.803667,16.1812512 C309.098463,15.6669988 309.506642,15.4098725 310.028204,15.4098725 C310.45906,15.4098725 310.742517,15.5775636 310.901254,15.924125 C311.014637,16.1588924 311.05999,16.5501714 311.05999,17.1315003 L311.05999,19.5127127 C311.05999,20.5188588 310.980622,20.6194734 310.209617,20.6306528 L310.209617,20.8989584 L313.304975,20.8989584 L313.304975,20.6306528 C312.522631,20.6194734 312.443263,20.5188588 312.443263,19.5127127 L312.443263,17.0532445 C312.443263,16.4160186 312.363895,16.0023808 312.19382,15.6781782 C311.910363,15.1527463 311.377462,14.8956201 310.561104,14.8956201 C309.620025,14.8956201 309.064448,15.1974639 308.497532,16.0247396 L308.497532,14.7055703 C308.497532,13.8112182 308.508871,13.274607 308.565562,12.4137931 L306.241209,12.5367665 L306.241209,12.7938927 C307.005495,12.7938927 307.1074,12.8871924 307.1139,13.7725796 L307.114259,19.5127127 C307.114259,20.5188588 307.034891,20.6194734 306.252548,20.6306528 L306.252548,20.8989584 L309.347905,20.8989584 Z M317.001263,21.0666494 C318.169108,21.0666494 318.928775,20.5971146 319.49569,19.5350715 L319.212232,19.3562011 C318.792715,20.1722973 318.123755,20.6306528 317.341412,20.6306528 C316.649775,20.6306528 316.128213,20.2617325 315.799402,19.5238921 C315.595313,19.0543572 315.515944,18.573643 315.504606,17.7463673 L319.438999,17.7463673 C319.416322,17.0420651 319.35963,16.7066831 319.234909,16.371301 C318.860745,15.4098725 318.044387,14.8956201 316.887879,14.8956201 C315.164457,14.8956201 314.041964,16.1253542 314.041964,18.0034936 C314.041964,19.8704535 315.198472,21.0666494 317.001263,21.0666494 Z M318.02171,17.4221647 L315.515944,17.4221647 C315.561298,16.8408359 315.629327,16.483095 315.754049,16.1365336 C315.992153,15.4881284 316.366317,15.1527463 316.853865,15.1527463 C317.296059,15.1527463 317.613531,15.4322314 317.828959,16.0247396 C317.95368,16.371301 317.999034,16.7178625 318.02171,17.4221647 Z M301.093618,34.5626706 L301.093618,34.2720062 C300.34529,34.2496474 300.027817,34.0484182 300.027817,33.6124216 C300.027817,33.3552953 300.107185,33.0087339 300.27726,32.5839167 L300.594733,31.7342822 L303.576707,31.7342822 L304.007563,32.9640163 C304.109608,33.2435013 304.166299,33.5229863 304.177638,33.7018568 L304.177638,33.735395 L304.177638,33.735395 C304.177638,34.1043152 303.916857,34.2496474 303.202543,34.2720062 L303.202543,34.5626706 L306.898831,34.5626706 L306.898831,34.2720062 C306.524667,34.2272886 306.422622,34.2049298 306.297901,34.1490328 C306.03712,34.01488 305.821692,33.6571392 305.560911,32.9640163 L303.08916,26.1110435 L302.250125,26.2004787 L299.835066,32.5056609 C299.324842,33.8248302 298.916663,34.2608268 298.179673,34.2720062 L298.179673,34.5626706 L301.093618,34.5626706 Z M303.429309,31.2982856 L300.753469,31.2982856 L302.136742,27.6649803 L303.429309,31.2982856 Z M310.413706,34.5626706 L310.413706,34.294365 C309.671257,34.2835997 309.570161,34.1899013 309.563691,33.2845339 L309.563333,30.9405447 C309.563333,30.5716245 309.688055,30.1132691 309.869468,29.7890664 C310.152925,29.3083522 310.561104,29.051226 311.037313,29.051226 C311.740288,29.051226 312.035084,29.554299 312.035084,30.7616743 L312.035084,33.1764249 C312.035084,34.1602122 311.944378,34.2831856 311.184711,34.294365 L311.184711,34.5626706 L314.268731,34.5626706 L314.268731,34.294365 C313.516478,34.2836156 313.414164,34.1798423 313.407407,33.2873539 L313.407019,30.6945979 C313.407019,30.0238339 313.327651,29.6549136 313.123562,29.3195316 C312.828766,28.8052792 312.318542,28.5593323 311.581552,28.5593323 C310.674487,28.5593323 310.050881,28.9058938 309.563333,29.6884518 L309.551995,28.5816911 L307.341025,28.7270234 L307.341025,28.995329 C308.05942,29.0060612 308.171751,29.1198228 308.179588,29.9696261 L308.18006,33.1764249 C308.18006,34.1713916 308.100692,34.2831856 307.318349,34.294365 L307.318349,34.5626706 L310.413706,34.5626706 Z M317.931004,34.741541 C319.064834,34.741541 319.903869,34.2161092 320.414093,33.1764249 L320.119297,32.9863751 C319.733794,33.8136508 319.064834,34.3055444 318.282491,34.3055444 C317.704238,34.3055444 317.228029,33.9925212 316.933233,33.4223717 C316.672452,32.9081193 316.536392,32.2485346 316.536392,31.5218736 C316.536392,30.8287507 316.661113,30.0350133 316.853865,29.5431196 C317.035277,29.107123 317.432118,28.827638 317.896989,28.827638 C318.452566,28.827638 318.781377,29.2077376 318.82673,29.8785016 C318.849407,30.2809601 318.849407,30.2809601 318.917436,30.3703953 C319.019481,30.4933687 319.234909,30.5716245 319.49569,30.5716245 C319.960561,30.5716245 320.266695,30.3592159 320.266695,30.0238339 C320.266695,29.2300964 319.189556,28.5593323 317.931004,28.5593323 C317.114646,28.5593323 316.411671,28.827638 315.912785,29.3083522 C315.34587,29.8896811 315.017059,30.7616743 315.017059,31.7231028 C315.017059,33.5229863 316.184904,34.741541 317.931004,34.741541 Z M322.591048,27.6202627 C323.04458,27.6202627 323.407406,27.2625218 323.407406,26.8153458 C323.407406,26.3681698 323.04458,26.0104289 322.591048,26.0104289 C322.137516,26.0104289 321.77469,26.3681698 321.77469,26.8153458 C321.77469,27.2625218 322.137516,27.6202627 322.591048,27.6202627 Z M324.155734,34.5626706 L324.155734,34.294365 C323.350714,34.2831856 323.271346,34.1713916 323.271346,33.1764249 L323.271346,30.7504949 C323.271346,30.0350133 323.294023,29.2524552 323.339376,28.5816911 L321.0377,28.7270234 L321.0377,28.995329 C321.831381,29.0065084 321.888073,29.0847642 321.888073,30.0797309 L321.888073,33.1764249 C321.888073,34.1713916 321.808705,34.2831856 321.003685,34.294365 L321.003685,34.5626706 L324.155734,34.5626706 Z M327.920052,34.7303616 C329.087898,34.7303616 329.847564,34.2608268 330.414479,33.1987837 L330.131022,33.0199133 C329.711504,33.8360096 329.042544,34.294365 328.260201,34.294365 C327.568564,34.294365 327.047002,33.9254448 326.718191,33.1876043 C326.514102,32.7180695 326.434734,32.2373552 326.423395,31.4100796 L330.357788,31.4100796 C330.335111,30.7057773 330.27842,30.3703953 330.153698,30.0350133 C329.779534,29.0735848 328.963176,28.5593323 327.806669,28.5593323 C326.083246,28.5593323 324.960754,29.7890664 324.960754,31.6672058 C324.960754,33.5341658 326.117261,34.7303616 327.920052,34.7303616 Z M328.9405,31.0858769 L326.434734,31.0858769 C326.480087,30.5045481 326.548117,30.1468073 326.672838,29.8002458 C326.910943,29.1518406 327.285107,28.8164586 327.772654,28.8164586 C328.214848,28.8164586 328.532321,29.0959436 328.747748,29.6884518 C328.87247,30.0350133 328.917823,30.3815747 328.9405,31.0858769 Z M334.224151,34.5626706 L334.224151,34.294365 C333.453146,34.2831856 333.373778,34.182571 333.373778,33.1764249 L333.373778,30.9405447 C333.373778,30.5716245 333.498499,30.1132691 333.679912,29.7890664 C333.96337,29.3083522 334.371549,29.051226 334.847757,29.051226 C335.550732,29.051226 335.845528,29.554299 335.845528,30.7616743 L335.845528,33.1764249 C335.845528,34.1602122 335.754822,34.2831856 334.995155,34.294365 L334.995155,34.5626706 L338.079175,34.5626706 L338.079175,34.294365 C337.296832,34.2831856 337.217464,34.1713916 337.217464,33.1764249 L337.217464,30.6945979 C337.217464,30.0238339 337.138095,29.6549136 336.934006,29.3195316 C336.63921,28.8052792 336.128986,28.5593323 335.391996,28.5593323 C334.484932,28.5593323 333.861325,28.9058938 333.373778,29.6884518 L333.362439,28.5816911 L331.151469,28.7270234 L331.151469,28.995329 C331.869865,29.0060612 331.982195,29.1198228 331.990032,29.9696261 L331.990504,33.1764249 C331.990504,34.1713916 331.911136,34.2831856 331.128793,34.294365 L331.128793,34.5626706 L334.224151,34.5626706 Z M340.879737,34.7303616 C341.469329,34.7303616 341.968214,34.5514912 342.433085,34.1713916 L342.274348,33.8919066 C341.990891,34.1154946 341.718771,34.238468 341.480667,34.238468 C341.242562,34.238468 341.015796,34.070777 340.92509,33.8248302 C340.845722,33.6012422 340.811707,33.3105777 340.811707,32.8186841 L340.811707,29.0847642 L342.183642,29.0847642 L342.183642,28.7270234 L340.811707,28.7270234 C340.811707,27.7096979 340.823045,27.3631364 340.845722,26.904781 L340.278806,26.960678 C340.176762,27.5196481 340.063379,27.8438507 339.859289,28.1568739 C339.598508,28.5593323 339.281035,28.7270234 338.78215,28.7493822 L338.78215,29.0847642 L339.428433,29.0847642 L339.428433,32.5727373 C339.428433,33.567704 339.462448,33.8360096 339.598508,34.1154946 C339.813936,34.5067736 340.267468,34.7303616 340.879737,34.7303616 Z M302.658304,48.4052533 C304.347712,48.4052533 305.447528,47.6338746 306.059797,46.0463997 L305.730986,45.8675293 C305.560911,46.2811671 305.424851,46.5271139 305.2321,46.7842402 C304.676523,47.5220806 303.871503,47.9357184 303.02113,47.9357184 C301.354399,47.9357184 300.333952,46.4041405 300.333952,43.9223135 C300.333952,42.7037588 300.549379,41.7311509 300.991573,41.0044899 C301.365738,40.3896228 302.023359,40.0207026 302.749011,40.0207026 C303.486001,40.0207026 304.188976,40.4008022 304.653846,41.0603869 C304.971319,41.5075629 305.130055,41.9435596 305.254777,42.6702206 L305.662956,42.6702206 L305.662956,39.9424468 C305.30013,40.0654202 305.220762,40.087779 305.050687,40.087779 C304.880613,40.087779 304.733215,40.0654202 304.574478,40.0207026 C303.531354,39.7412176 303.281911,39.6965 302.692319,39.6965 C300.265922,39.6965 298.701235,41.4404865 298.701235,44.1347221 C298.701235,45.4874296 299.109414,46.6165491 299.869081,47.3543896 C300.560718,48.0251537 301.569827,48.4052533 302.658304,48.4052533 Z M309.835453,48.2263829 L309.835453,47.9580772 C309.094102,47.9473278 308.992208,47.8435545 308.985467,46.9510661 L308.98508,44.6936922 C308.98508,44.2353367 309.075786,43.8775959 309.291214,43.5086757 C309.58601,42.9944232 309.994189,42.737297 310.515751,42.737297 C310.946607,42.737297 311.230064,42.904988 311.388801,43.2515495 C311.502184,43.4863169 311.547537,43.8775959 311.547537,44.4589248 L311.547537,46.8401372 C311.547537,47.8462832 311.468169,47.9468978 310.697164,47.9580772 L310.697164,48.2263829 L313.792522,48.2263829 L313.792522,47.9580772 C313.039154,47.9473119 312.937654,47.8536135 312.931169,46.9482462 L312.93081,44.380669 C312.93081,43.7434431 312.851442,43.3298053 312.681368,43.0056026 C312.39791,42.4801708 311.86501,42.2230446 311.048652,42.2230446 C310.107572,42.2230446 309.551995,42.5248884 308.98508,43.3521641 L308.98508,42.0329948 C308.98508,41.1386427 308.996418,40.6020314 309.05311,39.7412176 L306.728757,39.864191 L306.728757,40.1213172 C307.522438,40.1213172 307.601806,40.2219318 307.601806,41.2057191 L307.601806,46.8401372 C307.601806,47.8462832 307.522438,47.9468978 306.740095,47.9580772 L306.740095,48.2263829 L309.835453,48.2263829 Z M315.935462,41.2839749 C316.388994,41.2839749 316.75182,40.9262341 316.75182,40.479058 C316.75182,40.031882 316.388994,39.6741412 315.935462,39.6741412 C315.481929,39.6741412 315.119104,40.031882 315.119104,40.479058 C315.119104,40.9262341 315.481929,41.2839749 315.935462,41.2839749 Z M317.500148,48.2263829 L317.500148,47.9580772 C316.724944,47.9473119 316.622635,47.8432469 316.61612,46.9470943 L316.61576,44.4142072 C316.61576,43.6987255 316.638437,42.9161674 316.68379,42.2454034 L314.382114,42.3907356 L314.382114,42.6590412 C315.175795,42.6702206 315.232487,42.7484764 315.232487,43.7434431 L315.232487,46.8401372 C315.232487,47.8351038 315.153119,47.9468978 314.348099,47.9580772 L314.348099,48.2263829 L317.500148,48.2263829 Z M321.219113,48.2263829 L321.219113,47.9580772 C320.476664,47.9473119 320.375568,47.8536135 320.369097,46.9482462 L320.36874,44.604257 C320.36874,44.2353367 320.493461,43.7769813 320.674874,43.4527787 C320.958332,42.9720644 321.366511,42.7149382 321.84272,42.7149382 C322.545695,42.7149382 322.840491,43.2180113 322.840491,44.4253866 L322.840491,46.8401372 C322.840491,47.8239244 322.749784,47.9468978 321.990118,47.9580772 L321.990118,48.2263829 L325.074137,48.2263829 L325.074137,47.9580772 C324.321884,47.9473278 324.219571,47.8435545 324.212813,46.9510661 L324.212426,44.3583102 C324.212426,43.6875461 324.133058,43.3186259 323.928968,42.9832438 C323.634172,42.4689914 323.123948,42.2230446 322.386958,42.2230446 C321.479894,42.2230446 320.856287,42.569606 320.36874,43.3521641 L320.357401,42.2454034 L318.146432,42.3907356 L318.146432,42.6590412 C318.89476,42.6702206 318.985466,42.793194 318.985466,43.7434431 L318.985466,46.8401372 C318.985466,47.8351038 318.906098,47.9468978 318.123755,47.9580772 L318.123755,48.2263829 L321.219113,48.2263829 Z M328.781763,48.3940739 C329.949609,48.3940739 330.709275,47.924539 331.276191,46.862496 L330.992733,46.6836255 C330.573216,47.4997218 329.904256,47.9580772 329.121913,47.9580772 C328.430276,47.9580772 327.908714,47.589157 327.579903,46.8513166 C327.375813,46.3817817 327.296445,45.9010675 327.285107,45.0737918 L331.219499,45.0737918 C331.196823,44.3694896 331.140131,44.0341075 331.01541,43.6987255 C330.641246,42.737297 329.824888,42.2230446 328.66838,42.2230446 C326.944958,42.2230446 325.822465,43.4527787 325.822465,45.330918 C325.822465,47.197878 326.978973,48.3940739 328.781763,48.3940739 Z M329.802211,44.7495892 L327.296445,44.7495892 C327.341798,44.1682603 327.409828,43.8105195 327.53455,43.4639581 C327.772654,42.8155528 328.146818,42.4801708 328.634365,42.4801708 C329.076559,42.4801708 329.394032,42.7596558 329.60946,43.3521641 C329.734181,43.6987255 329.779534,44.0452869 329.802211,44.7495892 Z M334.394225,48.4052533 C335.675454,48.4052533 336.43512,47.700951 336.43512,46.5382933 C336.43512,45.6998383 336.060956,45.2638416 334.904449,44.7384098 C333.884001,44.2800543 333.884001,44.2800543 333.634559,44.0900045 C333.385116,43.8999547 333.283071,43.6987255 333.283071,43.4080611 C333.283071,42.849091 333.679912,42.4801708 334.29218,42.4801708 C335.108538,42.4801708 335.584747,43.0838584 335.664116,44.2241573 L336.083633,44.2241573 L336.185678,42.2677622 C335.924897,42.3571974 335.800175,42.3795562 335.641439,42.3795562 C335.516718,42.3795562 335.460026,42.3683768 335.142553,42.3124798 C334.813743,42.2565828 334.518947,42.2230446 334.337534,42.2230446 C333.056305,42.2230446 332.239947,42.9161674 332.239947,44.0005693 C332.239947,44.4030278 332.364668,44.7272304 332.636788,45.0067154 C332.908907,45.2973798 333.192365,45.4762502 333.861325,45.7669147 C335.176568,46.3706023 335.471364,46.6165491 335.471364,47.1643398 C335.471364,47.7792068 335.051847,48.1369477 334.36021,48.1369477 C333.804633,48.1369477 333.407792,47.9133596 333.09032,47.4326454 C332.908907,47.141981 332.818201,46.8401372 332.750171,46.2588083 L332.341992,46.2588083 L332.251285,48.3046387 C332.625449,48.2375623 332.659464,48.2375623 332.829539,48.2375623 C332.965599,48.2375623 333.101658,48.2487417 333.237718,48.2711005 C333.906678,48.3828945 334.065414,48.4052533 334.394225,48.4052533 Z M340.505573,48.3940739 C341.673418,48.3940739 342.433085,47.924539 343,46.862496 L342.716542,46.6836255 C342.297025,47.4997218 341.628065,47.9580772 340.845722,47.9580772 C340.154085,47.9580772 339.632523,47.589157 339.303712,46.8513166 C339.099622,46.3817817 339.020254,45.9010675 339.008916,45.0737918 L342.943308,45.0737918 C342.920632,44.3694896 342.86394,44.0341075 342.739219,43.6987255 C342.365055,42.737297 341.548697,42.2230446 340.392189,42.2230446 C338.668767,42.2230446 337.546274,43.4527787 337.546274,45.330918 C337.546274,47.197878 338.702782,48.3940739 340.505573,48.3940739 Z M341.52602,44.7495892 L339.020254,44.7495892 C339.065608,44.1682603 339.133637,43.8105195 339.258359,43.4639581 C339.496463,42.8155528 339.870627,42.4801708 340.358175,42.4801708 C340.800368,42.4801708 341.117841,42.7596558 341.333269,43.3521641 C341.45799,43.6987255 341.503344,44.0452869 341.52602,44.7495892 Z M302.658304,62.0689655 C304.347712,62.0689655 305.447528,61.2975869 306.059797,59.7101119 L305.730986,59.5312415 C305.560911,59.9448793 305.424851,60.1908262 305.2321,60.4479524 C304.676523,61.1857928 303.871503,61.5994307 303.02113,61.5994307 C301.354399,61.5994307 300.333952,60.0678528 300.333952,57.5860257 C300.333952,56.367471 300.549379,55.3948632 300.991573,54.6682021 C301.365738,54.0533351 302.023359,53.6844148 302.749011,53.6844148 C303.486001,53.6844148 304.188976,54.0645145 304.653846,54.7240991 C304.971319,55.1712752 305.130055,55.6072718 305.254777,56.3339328 L305.662956,56.3339328 L305.662956,53.606159 C305.30013,53.7291324 305.220762,53.7514912 305.050687,53.7514912 C304.880613,53.7514912 304.733215,53.7291324 304.574478,53.6844148 C303.531354,53.4049298 303.281911,53.3602122 302.692319,53.3602122 C300.265922,53.3602122 298.701235,55.1041987 298.701235,57.7984344 C298.701235,59.1511419 299.109414,60.2802614 299.869081,61.0181018 C300.560718,61.6888659 301.569827,62.0689655 302.658304,62.0689655 Z M309.982851,61.8900951 L309.982851,61.6217895 C309.155154,61.5994307 309.087124,61.5211749 309.087124,60.5038494 L309.087124,55.696707 C309.087124,54.9476871 309.109801,54.2322055 309.155154,53.4049298 L306.819463,53.5279032 L306.819463,53.7850294 C307.624483,53.7850294 307.703851,53.885644 307.703851,54.8694313 L307.703851,60.5038494 C307.703851,61.5211749 307.635821,61.5994307 306.808125,61.6217895 L306.808125,61.8900951 L309.982851,61.8900951 Z M312.443263,62.0466067 C313.180253,62.0466067 313.792522,61.7671217 314.382114,61.1410752 C314.438805,61.8230187 314.552188,61.9907097 314.915014,61.9907097 C315.20981,61.9907097 315.81074,61.9348127 316.4797,61.8565569 L316.4797,61.5882513 C315.779071,61.5774574 315.712632,61.514555 315.708883,60.4033732 L315.709116,60.1585301 C315.709955,60.0492204 315.712475,59.8852559 315.720034,59.6765737 L315.731372,58.7039658 L315.742711,57.731358 C315.742711,57.0382351 315.606651,56.6357767 315.300517,56.3451122 C314.960367,56.032089 314.40479,55.8867568 313.622447,55.8867568 C312.851442,55.8867568 312.239174,56.0209096 311.762965,56.311574 C311.320771,56.5798797 311.05999,56.9599793 311.05999,57.3512583 C311.05999,57.6866404 311.332109,57.8655108 311.853671,57.8655108 C312.32988,57.8655108 312.522631,57.7201786 312.545308,57.3177201 C312.579323,56.8929029 312.613338,56.7140325 312.726721,56.5239827 C312.885457,56.255677 313.123562,56.143883 313.486387,56.143883 C314.166686,56.143883 314.370775,56.4904445 314.370775,57.675461 L314.370775,58.402122 C313.6678,58.4356602 313.06687,58.513916 312.511293,58.6145306 C311.298094,58.8492981 310.697164,59.4418063 310.697164,60.4032348 C310.697164,61.4093809 311.366124,62.0466067 312.443263,62.0466067 Z M313.06687,61.5547131 C312.511293,61.5547131 312.148467,61.0292812 312.148467,60.2355438 C312.148467,59.1958595 312.726721,58.7822216 314.370775,58.6592482 L314.370775,59.5200621 C314.370775,60.157288 314.314084,60.5262082 314.166686,60.8168726 C313.951258,61.2752281 313.520402,61.5547131 313.06687,61.5547131 Z M319.518367,62.0689655 C320.799595,62.0689655 321.559262,61.3646633 321.559262,60.2020056 C321.559262,59.3635505 321.185098,58.9275539 320.02859,58.402122 C319.008143,57.9437666 319.008143,57.9437666 318.7587,57.7537168 C318.509257,57.5636669 318.407213,57.3624377 318.407213,57.0717733 C318.407213,56.5128033 318.804053,56.143883 319.416322,56.143883 C320.23268,56.143883 320.708889,56.7475707 320.788257,57.8878696 L321.207774,57.8878696 L321.309819,55.9314744 C321.049038,56.0209096 320.924317,56.0432684 320.76558,56.0432684 C320.640859,56.0432684 320.584168,56.032089 320.266695,55.976192 C319.937884,55.920295 319.643088,55.8867568 319.461675,55.8867568 C318.180446,55.8867568 317.364088,56.5798797 317.364088,57.6642816 C317.364088,58.06674 317.48881,58.3909426 317.760929,58.6704276 C318.033048,58.9610921 318.316506,59.1399625 318.985466,59.4306269 C320.30071,60.0343146 320.595506,60.2802614 320.595506,60.828052 C320.595506,61.4429191 320.175988,61.8006599 319.484352,61.8006599 C318.928775,61.8006599 318.531934,61.5770719 318.214461,61.0963576 C318.033048,60.8056932 317.942342,60.5038494 317.874312,59.9225205 L317.466133,59.9225205 L317.375427,61.9683509 C317.749591,61.9012745 317.783606,61.9012745 317.95368,61.9012745 C318.08974,61.9012745 318.2258,61.9124539 318.361859,61.9348127 C319.030819,62.0466067 319.189556,62.0689655 319.518367,62.0689655 Z M324.892724,62.0689655 C326.173953,62.0689655 326.933619,61.3646633 326.933619,60.2020056 C326.933619,59.3635505 326.559455,58.9275539 325.402948,58.402122 C324.3825,57.9437666 324.3825,57.9437666 324.133058,57.7537168 C323.883615,57.5636669 323.78157,57.3624377 323.78157,57.0717733 C323.78157,56.5128033 324.178411,56.143883 324.790679,56.143883 C325.607037,56.143883 326.083246,56.7475707 326.162614,57.8878696 L326.582132,57.8878696 L326.684177,55.9314744 C326.423395,56.0209096 326.298674,56.0432684 326.139938,56.0432684 C326.015216,56.0432684 325.958525,56.032089 325.641052,55.976192 C325.312241,55.920295 325.017445,55.8867568 324.836033,55.8867568 C323.554804,55.8867568 322.738446,56.5798797 322.738446,57.6642816 C322.738446,58.06674 322.863167,58.3909426 323.135287,58.6704276 C323.407406,58.9610921 323.690864,59.1399625 324.359824,59.4306269 C325.675067,60.0343146 325.969863,60.2802614 325.969863,60.828052 C325.969863,61.4429191 325.550346,61.8006599 324.858709,61.8006599 C324.303132,61.8006599 323.906291,61.5770719 323.588819,61.0963576 C323.407406,60.8056932 323.316699,60.5038494 323.24867,59.9225205 L322.840491,59.9225205 L322.749784,61.9683509 C323.123948,61.9012745 323.157963,61.9012745 323.328038,61.9012745 C323.464097,61.9012745 323.600157,61.9124539 323.736217,61.9348127 C324.405177,62.0466067 324.563913,62.0689655 324.892724,62.0689655 Z M329.450723,54.9476871 C329.904256,54.9476871 330.267081,54.5899463 330.267081,54.1427703 C330.267081,53.6955942 329.904256,53.3378534 329.450723,53.3378534 C328.997191,53.3378534 328.634365,53.6955942 328.634365,54.1427703 C328.634365,54.5899463 328.997191,54.9476871 329.450723,54.9476871 Z M331.01541,61.8900951 L331.01541,61.6217895 C330.21039,61.6106101 330.131022,61.4988161 330.131022,60.5038494 L330.131022,58.0779194 C330.131022,57.3624377 330.153698,56.5798797 330.199052,55.9091156 L327.897375,56.0544478 L327.897375,56.3227534 C328.691057,56.3339328 328.747748,56.4121887 328.747748,57.4071553 L328.747748,60.5038494 C328.747748,61.4988161 328.66838,61.6106101 327.86336,61.6217895 L327.86336,61.8900951 L331.01541,61.8900951 Z M334.734374,62.0689655 C335.868205,62.0689655 336.70724,61.5435337 337.217464,60.5038494 L336.922668,60.3137996 C336.537165,61.1410752 335.868205,61.6329689 335.085862,61.6329689 C334.507608,61.6329689 334.031399,61.3199457 333.736603,60.7497962 C333.475822,60.2355438 333.339763,59.5759591 333.339763,58.8492981 C333.339763,58.1561752 333.464484,57.3624377 333.657235,56.8705441 C333.838648,56.4345475 334.235489,56.1550624 334.700359,56.1550624 C335.255936,56.1550624 335.584747,56.5351621 335.630101,57.2059261 C335.652777,57.6083846 335.652777,57.6083846 335.720807,57.6978198 C335.822852,57.8207932 336.03828,57.899049 336.299061,57.899049 C336.763931,57.899049 337.070066,57.6866404 337.070066,57.3512583 C337.070066,56.5575209 335.992926,55.8867568 334.734374,55.8867568 C333.918016,55.8867568 333.215041,56.1550624 332.716156,56.6357767 C332.14924,57.2171055 331.82043,58.0890988 331.82043,59.0505273 C331.82043,60.8504108 332.988275,62.0689655 334.734374,62.0689655 Z M340.210777,62.0689655 C341.492005,62.0689655 342.251672,61.3646633 342.251672,60.2020056 C342.251672,59.3635505 341.877508,58.9275539 340.721,58.402122 C339.700553,57.9437666 339.700553,57.9437666 339.45111,57.7537168 C339.201667,57.5636669 339.099622,57.3624377 339.099622,57.0717733 C339.099622,56.5128033 339.496463,56.143883 340.108732,56.143883 C340.92509,56.143883 341.401299,56.7475707 341.480667,57.8878696 L341.900184,57.8878696 L342.002229,55.9314744 C341.741448,56.0209096 341.616727,56.0432684 341.45799,56.0432684 C341.333269,56.0432684 341.276577,56.032089 340.959105,55.976192 C340.630294,55.920295 340.335498,55.8867568 340.154085,55.8867568 C338.872856,55.8867568 338.056498,56.5798797 338.056498,57.6642816 C338.056498,58.06674 338.18122,58.3909426 338.453339,58.6704276 C338.725458,58.9610921 339.008916,59.1399625 339.677876,59.4306269 C340.99312,60.0343146 341.287916,60.2802614 341.287916,60.828052 C341.287916,61.4429191 340.868398,61.8006599 340.176762,61.8006599 C339.621185,61.8006599 339.224344,61.5770719 338.906871,61.0963576 C338.725458,60.8056932 338.634752,60.5038494 338.566722,59.9225205 L338.158543,59.9225205 L338.067837,61.9683509 C338.442001,61.9012745 338.476016,61.9012745 338.64609,61.9012745 C338.78215,61.9012745 338.91821,61.9124539 339.054269,61.9348127 C339.723229,62.0466067 339.881966,62.0689655 340.210777,62.0689655 Z" id="TheAncientChineseClassics" fill="#FFFFFF" fill-rule="nonzero"></path>
            </g>
        </g>
    </g>
</svg>