<svg xmlns="http://www.w3.org/2000/svg" xmlns:xlink="http://www.w3.org/1999/xlink" width="104" height="163">
  <defs>
    <path id="a" d="M0 0h103v142.4H0z"/>
    <path id="c" d="M0 0h1v2.1H0z"/>
    <path id="e" d="M0 0h17.5v16.6H0z"/>
  </defs>
  <g fill="none" fill-rule="evenodd">
    <path fill="#000" d="M37.7 76.9Zm51.5 18.8"/>
    <g transform="translate(0 20)">
      <mask id="b" fill="#fff">
        <use xlink:href="#a"/>
      </mask>
      <path fill="#000" d="m102.4 85-.5.2c-1.2-.2-1.6.2-1.5 1.4 0 .9.6 1.4 1 2l.4.7c.2.5 0 .8-.5.8-.4 0-.8 0-1 .2-.9.4-.6 1.2-.6 1.8.2 1.2.4 2.3.2 3.4 0 .3-.2.6-.3.6-.3.2-.5 0-.6-.3l-1.2-3.2-.2-.5c-.2-.8-.7-1-1.5-.8l.7-.5c.5-.2.9.2 1.1.6l.5 1 .8 2.5c.3-.5.3-.8.3-1.2-.2-1-.4-2-.2-3 .1-.3.2-.5.6-.6l1.6-.8-.8-1c-.4-.3-.5-.7-.6-1.2l.1-1.6c0-.3.3-.5.6-.6l1.3-.2-1-.8a2 2 0 0 1-1.2-1.6l-.1-1.4c0-.7.3-1 1.2-1l-.6-.7-1.6-1.5v-.2c0-.7 0-1.4.4-2l.2-.3c.5 0 .8-.3.7-.8h.2c.2.2.6.4.6.7 0 .4-.5.4-.8.5-.7.2-1.1 1-.8 1.6.2.6.6 1.2 1.2 1.5l1 .7c.3.3.2.7-.2.8l-.4.1c-1 .2-1.1.6-.8 1.5.2.8.7 1.5 1.3 2l1 .7v.5m-7.5-1.2-2-4.5-1-2.8A29 29 0 0 0 86 68l-.3-.5 1 .7.3.2 2.6 3.5 2.3 4 1.3 2.9.9 2.4 1.3 3.2 2 3.3v.5l-.9-1.1-1.7-3.4m3.5 5.2v.5c-.3-.3-.8-.6-.8-1.2l.8.7m-12.6-1.4-.4-1a6 6 0 0 1-.2-1.4l1.4 3c-.5.6-1-.3-1.6 0V88h.7l.3-.2-.2-.2m.4-3.8-.4-.5.2-.1.7.8v.7c-.1.3-.4.2-.6 0l-.4-.2.3-.1.3-.2v-.4M75.7 115c.4.1.8.4 1.1.6.4.2.7.6.9 1l.6 1.5c.3.6.4 1.3.5 2 .2 1.2 0 2.4-.4 3.6-.7 1.8-2 3.1-3.9 3.6h-1.3l-1 .1c.3-.8.9-.7 1.4-.8 1-.3 1.9-.8 2.5-1.7a7 7 0 0 0 1.2-5.2 4.7 4.7 0 0 0-2.1-3.5l-.7-.7c0-.2 0-.6.2-1l1 .5m2.9 10.9c.6.5.9 1.1.9 1.9v2.7a6.8 6.8 0 0 1-3.1 5.5l-.7.4c-.3.3-.6.1-.8-.2l-.1-.3c.6-.5 1.2-.9 1.6-1.4a6.5 6.5 0 0 0 1.7-5.2l-.3-1.6-.4-.7c-.4-.3-.4-.5 0-.9l.2-.2c.5-.4.5-.4 1 0m-.4 12c-.6.7-1.7.3-2.6-1l1.5-.8.7.5c.2.2.3.3.1.6l.3.7m.2-2.2 1.2 1.1c.5.6.5 1.3.3 2-.1.3-.7.6-1.1.7a4 4 0 0 1-1.5.2c-.9 0-1.5-.7-2.2-1.2l-.2-.2a1 1 0 0 0-.5-.6c-.2-.2-.5-.4-.3-.8-.5-.1-.6-.6-.7-1l.4-.6 1.5 2 1.4 1.2c1 .7 1.8 0 2.3-.7v-.3l-1.5-1.8c.4-.5.4-.5 1 0m-5.5.3.4 1-1.8 2c-.2.2-.5.2-.7.3-.1 0-.3-.1-.3-.3l.1-.3 1.2-1.4L73 136m.7 3-1.4 2-.2.2c-.7.5-.8.5-1.5 0l-1.8-1.5c-.5-.5-.5-1.2 0-1.7.8-.6 1.4-1.3 2.1-2 1.2-1 2.4-1.8 4-2l1.1.2c-.4.5-.8.8-1.4.7-1 0-1.6.6-2.2 1.2l-2.2 2.5c-.3.4-.2.9.3 1 .6.3 1.3 0 1.8-.5l1.4-1.6c.3.4.4 1 0 1.6m-6-.7v-.3l-.5-5.5c0-.6-.2-1.2-.3-1.7l.2-.5L69 127l.5.2-.3 2.5a5 5 0 0 0 2 5.1l.3.1-3.7 3.5m1.3-12.1.4-1.3c.1-.3.3-.2.5 0l.7.5-.8 1-.4.3-.4-.5m2 5.6c0 .3.3.6.5.8h.1c0-.4-.2-.7-.3-1-.4-1.3-.1-2.5.2-3.6 0-.2.5-.3.7-.3 1.2.2 2.3 0 3.4-.5h.2c.2-.2.6-.5.7-.4.3.3.7.6.8 1 .5 1.2.4 2.5 0 3.7-.2.7-.4 1.4-.9 2-.2.2-.4.2-.7.2-.7-.1-1.4-.4-2-.2-1 .3-1.3-.4-2-.6l1 1-1.1.7c-.8-1-1.8-1.8-1.8-3.3l-.2-2.2c0-1 .4-2 1-2.9 0-.2.3-.3.5-.5.1 0 .2 0 .3-.2l.6-.6c1.2-.3 2.4-.8 3.7-.5a1 1 0 0 1-1 .9c-1.3 0-2.4.5-3 1.4-1 1.5-1.6 3.3-.8 5.1m-.6-8.3a32 32 0 0 0 2.7-4.5l1-2.7.3-.5 2 2.3c.2.2.3.5.3.7a7 7 0 0 1-.5 5.2l-.3.1c-1-.4-1.8 0-2.7.2-.6.1-1 .4-1.6.7-.4.1-1 0-1.3-.6-.3-.3 0-.5.1-.9m10.1-57.2H80l-.3 1.1v.4c-.4 0-.6-.2-.7-.6l-.7-2.2-.6-.8v-.1c.5.3 1 .5 1.3 1l.4 1.5.7-.6c.1-.2.3-.2.5 0v.3m-3.2-3.9 2.5 1.2-.1.1-2.4-1.3m-.3-.1-1-.6v-.1l1.1.6-.1.1M72 60.1l-2-.7h-.2c-.5.3-.7-.1-1-.4l-1.4-.8-.1.1.6.6v.2l-2.4-.9v-.1h.4c.4.2.8.2 1.2-.1.2-.2.6-.2.8-.1 1.1.2 2.3.5 3.4.9 1 .3 1.8.8 2.5 1.5-.7.4-1.3-.1-1.8-.2m-.3 2.5a1 1 0 0 1-.7.2c-.7 0-.9-.7-1-1.2-.3-.4-.4-1-.5-1.4.4 0 .5.3.6.6l.4.9.5.9.7-.8c.2.2.2.6 0 .8M59 56h-.9c-.2 0-.4-.2-.2-.4l.9-1.9c0-.2.3-.2.4-.4l.5-.4.7-1.8c.1-.6.5-1 .9-1.6.1-.2.3-.5.8-.5.2 0 .4-.3.6-.5l.1-.2.2.1-.6.7c-1 .8-1.6 2-1.8 3.3l-.7 2.6-.1.4c-.1.4-.3.7-.8.6m-1.5-.6c0 .2-.2.5-.3.5l-.8-.2-.3-.3 2.2-3c.6.4.6.4.2.9a5 5 0 0 0-1 2.1m-2.7.4c-.3-.2-.5-.6-.7-1h.3c.7 0 1.2.6 1.7 1.2-.5 0-1 0-1.3-.2m-1.5.4-.1-.1.6-.7.3.5c-.3 0-.6.2-.8.3m3.7-4.9c-.4-.3-.3-.7.3-1 0 .8.9.6 1.1 1l.4.5-.2-.1c-.6.3-1 0-1.1-.6l-.4 1.1.8-.1-2 3-1.5-.8c1-.8 2.1-1.6 2.6-3m2.1 0-.1-.1 2-3 .3.2c.3 0 .3.3.1.5L59.9 51c-.2.2-.5.2-.8.3m-.2.5h-.1c.2-.4.7-.2.7 0v1c-.2.2-.4 0-1-.6a62.3 62.3 0 0 0 .4-.4m.4-4c0-.3.2-.4.3-.6l.1-.4.1-.3h.4l1.8.8.5.5-.4.7-.3-.1-1.3-1-.5-.1-.1.2h.1c.7.5.7.5.3 1.2L58.7 51l-1-.6V50c.7-.6 1.2-1.2 1.6-2m1.2-1.8c0-.2.4-.4.6-.6l.2-.2.7-.8.8-1.6v-1c.2-.2.3-.3.6 0 .5.5 1.2.7 1.9 1l.3.2c0 .3-.2.6-.3.8h-.5c-.5-.5-1-1-1.9-1l.6.6-2 3h-.3c-.5 0-.7-.3-.7-.6m3.4-4.4c.8-.5 1.4-1 1.9-1.8l.5-1.1.3-.4.4.6-2.2 3.4-1-.5.1-.2m2.9-4.4.4.2 1.5 1c.2 0 .3.2.2.4l-.4.4c-.2 0-.4 0-.5-.4 0-.3-.2-.4-.5-.4l-1-.1.1-.6.2-.5m1-.7 1.6-1.8.5-1c0-.1 0-.2.2-.3l.2.3c0 .2.2.3.3.5l-2.3 3.3-.4-.2-.5-.2.4-.6m2.4-4.2.7-.4a3.3 3.3 0 0 0 2.1-2.4l.9.5-1.3 1.4-1.1 1.3-.4-.2c.3 1 1.2 1 2 1.3-.2.6-.4.8-1 .7-.3 0-.5-.3-.5-.7-.6-.2-1.1-.4-1.5-.9-.2-.3 0-.4 0-.6m3.8-4.2-.1-.3c1.2-.5 2-1.4 2.3-2.6l.4-1.2s0-.2.2-.2c.5 0 .8-.5 1.2-.8.5-.3.8-.8.8-1.4l.1-.2 1 .5-1.8 2.6-.5-.6c0 .5 0 .8.5 1 .2 0 .4.2.6.4l.3.3-.4.5-.4-.3-1.4-1h-.2l-.1.2.6.7-2.2 2.8h.4l1.6-2c.2-.3.4-.7.8-.6.4.2.4.4 0 .6l-.7.6c-.6.6-.9 1.4-1 2.2-.8.2-1.2-.6-1.8-1-.1.6.4 1 1.9 1.5l-.4.9c-.8-.6-1.3-1.3-2.3-1.4-.2-1-.1-1.2.6-1.2m5.6-7.7.6.6 1.2.7c.3.2.5.2.3.5-.5.2-.8-.2-1.1-.5-.2-.2-.4-.5-.8-.2l-.4-.1-.3-.6c-.1-.4 0-.5.5-.4m2.4-1 .5-.7c.3-.4.7-.4 1 .1-.8.3-1.2.9-1.6 1.6l-.1.4c-.2.6-.2.6-.9.3l1.1-1.8M80.4 23c-.7.3-1 1-1.3 1.6-.1.6-.2.7-.7.4l-.3-.2 1.9-2.3c.1-.2.4-.2.6 0 .2.3 0 .4-.2.5m-7.5 10.6-.8-.2c.8-1 1-2.4 2.4-2.9l-.1.4c-.8.7-1.2 1.6-1.5 2.7m.4.6c.1-1.7 1.1-3.3 2.1-3.2-.8 1-1 2.4-2 3.2m-2 2.2c-.4.5-.6 1-.8 1.6-.2.6-.4 1-1 1.4l.1-1c.3-1.2.7-2.2 1.8-3 .3-.2.6-.2 1 0-.5.3-.9.6-1.1 1M68.6 38l.7-1 1.5-2.1c.3-.4.5-.4.8 0l-1.1 1c-.5.5-1 1.2-1 2 0 .4-.3.4-.9.1m-3.5 4.7.3-.5 1.7-2.4.1-.2.5-.2.2.2-.4.4-.9 1.1-.8 1.8-.7-.2m2.4-.2c0 .2-.3.4-.5.5l-1.2.9c0-.3 0-.4.2-.6l.3-.8c.4-1 1-1.8 1.7-2.5.2-.2.5 0 .9 0l-1.4 2.5m-4.9 5-.6-.3c-.1 0-.2-.3-.1-.4l1.4-2 .7-.8.6.5c-1.2.7-1.7 1.8-2 3m.3.8c0-1.1 1-3.6 2.2-3.6-1 1-1.2 2.5-2.2 3.6M45 58.8l-1.5-.7c-.4-.1-.7-.3-1.1-.1l-1.1.1-.4.2-.5.3c-.3.1-.7.3-.8.7 0 .1-.4.2-.5.1-.4-.2-1-.3-1.3-.8-.1-.3-.4-.4-.7-.7 3.5-.6 7-1 10.7-.8L45 58.8m-3.1.7c-.5 0-1 0-1.4-.2l.4-.2 1.8-.2c.7 0 1.6.4 1.9 1v.3c-.8-.7-1.8-.6-2.7-.7m-16.7.2-2.3 2c-1.2.8-2.3 1.8-3.8 2.1l-.7.2c0-.3.1-.5.3-.8a6.7 6.7 0 0 1 3-3 9 9 0 0 1 3.9-1h.4l-.8.5m59.4-42.5-.2.5-.8-.4 1.7-2c0-.1.4-.2.5-.1.2.2 0 .4-.2.5a2 2 0 0 0-1 1.5m-1.8-.7a4 4 0 0 0 1.6-2.2l.8.5-1.5 2-.2.2-.7-.5m3.4-2.6 1.8-2c0 .2.2.3.3.4-.6.4-1 1-1.3 1.6 0 .3-.3.3-.8 0m-.4-.3c0-.2 0-.4.2-.5l.8-1.5c.2-.2.4-.2.9.2L86 13.7l-.2-.1m1.6-3.3C88.6 10 89 9 89.7 8l.5.3-1.8 2.2H88c0 .2 0 .5.2.6l.8.4.4.2-.4.4-.6-.2c-.2-.5-.6-.6-1-.8l-.4-.4c.1-.1.2-.4.4-.4m2.5-3 .4-.4.3.3.8.7c.5.4.5.4.2.8l-.2.2v-.4L90 7.7l-.2-.4m3-1.7v.6l-1 1.4-.6-.2c.3-.8 1-1.2 1.5-1.8m-.6-1.1.7.3.6.3c.2 0 .4.2.3.5-.4 0-1.5-.6-1.6-1.1m1-1.3 1.3 1c-.4.2-.7.4-1 .4l-.4-.2V3.2m2-2.4c.1-.2.4-.2.6-.2l.2.1.3 1c0 1-.4 1.7-1.3 2h-.7c-.2-.2-.6-.3-.6-.8 0-1 .7-1.6 1.4-2.1m-5 8.9.2.2-.7.7c-.2.6-.2.6-.9.2l2-2.4.6.6-1.2.7m-4.7 29.6-.2.3-.3.3c-.1 0-.3-.2-.3-.4v-2c0-.6.3-1 .8-1 .3-.1.6.2.7.7l-.7 2m-.3-3.9.6.9h-.9l.3-.9M103 85a2 2 0 0 0-.5-.7c-.7-.6-1.5-1-1.9-2l-.1-.9c0-.5.1-.6.7-.6s.7 0 .8-.6c.2-.6-.1-.8-.5-1l-1.6-1.5c-.6-.8-.4-1.9.7-1.8.2 0 .4 0 .5-.2l.3-.3c0-.3 0-.6-.3-.8l-1.1-.7-1.2-.7h-.1l.6.7.8.5c-.6 0-1.4-.3-1.8-1l-.6-1.5c-.1-.3.2-1.1.5-1.3h.3c.6 0 .9-.3 1.3-.6.1.2.3.4.2.5 0 .2-.3.3-.5.4h-.7c-.5.1-.8.7-.5 1.3l.1-.2c.1-.8.1-.8 1-.8.3 0 .6.2.9-.2.3-.4 0-1-.6-1.4l-.7-.3a3.8 3.8 0 0 1-1.5-2c-.3-.9 0-1 .8-1.3h.4l-.1-.8s-.3 0-.5-.2v.2l.4.4-.8.2c-.7.2-.9.4-.7 1 .3 1.2.9 2 1.8 2.8-.2 0-.4 0-.6-.2a4.4 4.4 0 0 1-1.7-2.5c-.2-.8.3-1.4 1-1.3l.4-.1-.7-.7-2-1.6c-.1-.1-.2-.4-.4-.4-.6-.1-.5-.7-.8-1v-.3l-.1-.5c-.5-.8-1-1.4-1.3-2.3l-.7-2.4c-.1-.9 0-1.7-.2-2.6 0-.9-.2-1.7-.5-2.5s-.8-1.4-1.2-2l-.1-.5.7.5c.5-.3.6-.6.3-1.2l-1.4-2.4c0 .4.1.8.3 1l.7 1.2.1.6H90l-.4-.2c-.3 0-.4 0-.4.4l-.1.3c-.1.6 0 1.1.4 1.7.4.6 1 1.3.6 2.2.4 0 .5-.2.4-.4l-.8-1.8c-.2-.4-.5-.8-.4-1.3a4 4 0 0 1 1.5 2.2c.3 1.3.6 2.6.6 3.8.1 1.8.6 3.4 1.4 5l1.5 2.8c.5 1.1 1 2.2 1.2 3.4 0 .2 0 .4.2.4.3.2.2.3.1.5l.1.3.7 2.3.5 1.8.6 2.1v.8l.6 3c.2.6.3 1.2.3 1.9l.2 1.9.2 4.1-.2 2.2-.2.4-.5-.1-1.4-2.2c-.8-1.4-1.4-3-2-4.5l-1.5-3.7-1.9-3.6-2-3.3-.8-1.2h.1a17 17 0 0 1 3.5 5.3l.1-.3c-1-3-2.7-5.3-5.5-6.8.6 0 1.1-.3 1.2-.7 0-.5-.3-.7-.7-1 .1.4.8.7.2 1.2-.2.2-.8 0-1.1-.2-.3.2-.6.4-.7.7v1.4l.7 1.2v.4l-.3-.1-.3-.4c-.8-.9-.8-1.8-.4-2.8l.8-.7.8-.1v-.2l-.7-.7c-.2-.2-.5-.4-.5-.6 0-.5 0-1 .2-1.5.3-.7.7-.8 1.5-.7l-.4-1c-.6-.8-.6-2 0-2.6l.5-.2 1 .3-.3-.6a3 3 0 0 1-.5-2.5c.2-.8.5-1 1.4-.9v-.1l-.2-.2c-.7-.7-.8-1.5-.8-2.4 0-.3.3-.6.5-1h.3v.3c-.5.2-.3.6-.3 1l.2.9h.1v-1.3c0-.4.4-.2.7-.3l-.3-.5.5.1c-.1-.4-.2-.8-.4-1-.7-.5-.7-1.2-.6-2 0-.8.5-1.3 1.5-1.2l-.3-.4c-1-1-1.2-2.1-.8-3.4.1-.4.4-.7 1-.7l.2-.1-.2-.2c-.9-.8-1.1-1.8-1-3 0-.7.4-1 1-.8h.3c-.1-.2-.1-.5-.3-.6a3.6 3.6 0 0 1-1.4-2.6l.2-.6c.3-.2.5-1.1.3-1.3l-1-.8-.1.2 1 .7-.1.2a7 7 0 0 1-2.9-2l.1.6.5 1 .9 2.7c.2 1 .5 2.1.6 3.2a41.9 41.9 0 0 1-.5 10.6c-.2 1.7-.5 3.4-.9 5L85.4 61c-.5 2.4-.8 4.9-1.1 7.3l-.8 5.5c-.3 1.3-.3 2.5-.2 3.8l.7 7 .2 2.1H84c0-.7-.2-1.4-.3-2l-.5-3.6-.3-5.4c0-1.9.3-3.7.6-5.5l.3-2.1.4-2.6c.3-1.6.5-3.3.9-4.9.2-1 .7-1.9.9-3l.7-4 .7-3.7.3-4.3c.1-1 .2-1.8.1-2.7-.1-2-.4-4-.7-6 0-.8-.4-1.6-.6-2.4l-.2-.2v.5c-.4-.3-.5-.6-.6-1-.1-.5 0-1.2-.4-1.7h-.1l.2 1.4-.3-.7H85l.1 1.2-.5-.2c.5.5.2 1.6-.3 2.3l-.1-.5v-2.1l-.5-1.6h-.2v.5c.3 1.3.2 2.5-.3 3.7-.4 1-.9 2-1.1 3.1l-.7 4.4V46a88 88 0 0 0 .8 6.8L82 49c-.2-1.8-.4-3.5-.1-5.3l.8-5.2c.2-.9.6-1.7 1-2.6l.1.3c.2 1.3.2 2.6.2 4 0 1 0 2 .2 3l.2 1.8.3 2.5.1.2c.2-.5.2-1 .1-1.4l-.5-5.4v-1l.3.2.9 2.2-.1.6-.2 1c0 .2 0 .3.4.1.5-.3 1 0 .9.5l-.5 1.7-.5 1h.1c.5-.8 1.2-1.6 1-2.7 0-.6 0-.7-.6-.8-.4 0-.6-.5-.4-.8l.5-.9.4-1.3c-.3.4-.4 1-.6 1.5-.8-1.1-.9-1.8-.3-2.3-.5 0-.5-.3-.3-.7l.3-.6.5-1.7v1.3l-.2.9c0 .2 0 .4.4.5l.3.3c0 .3.2.7.1 1 0 .5-.3 1.1-.4 1.7v.7l.5.6c.3 1 .3 2.1-.5 3-.2.3-.4.7 0 1 .2.3.4.8.3 1 0 .7 0 1.4-.8 1.8-.2 0-.3.3-.5.5h.3c.5.7.7 1.4.4 2.2-.2.8-.8 1.2-1.6 1.6.2.2.5.4.5.6 0 1 0 2.2-.7 3-.3.3-.7.6-.2 1v.1c0 1-.1 1.8-1 2.3a1 1 0 0 0-.4 1l.5-.2c.3.8.7 1.6.2 2.4-.2.5-.3 1-1 1-.2 0-.7.2-.7.6l-.3.2-.2-.3c-.1-.5.2-1 .8-1 .7-.1 1.5-1.1 1.2-2l-.3-.4v1c0 .2 0 .4-.2.5 0 0-.3 0-.4-.2L79 62.7l-2.5-1.3c-.6-.4-1.4-.4-2-1-.6-.8-1.5-1.2-2.4-1.8l-1.6-1c-1-.7-1.7-1.7-2.3-2.8-.9-1.4-.4-2.8.5-3.8l1.4-1.3a3 3 0 0 0 1-1.2 4 4 0 0 0-.6.5c-.8 1-2 1.4-2.7 2.6-.6 1-.7 2.3-.2 3.2.6 1 1.4 2 2.4 2.8l.4.4-1.8-.3-1-.5-.5-.2-1.6-1.3c-.6-.6-1-1.3-.9-2.2.1-.7.6-1.3 1.1-1.7l.3-.3v-.1c-.4.2-.8.5-1 .8-1.1 1.1-1 2.4 0 3.4.7.6 1.1 1.4 2 1.7l.1.2-.3.1c-1 .3-2.1 0-3.1-.2l-2.2-.8-1.7-.5v-.3c.7-1 1-2 1-3 .3-1 .5-2 1.2-2.8l1-1c0 1.4-.7 2.5-.8 3.8h.3l.8-3.3c.3-1.6.8-3 1.7-4.3.6-.8 1.2-1.4 1.9-2-.1.6.2.3.4.3L67 45c0 .3 0 .7-.2 1-.4.8-.7 1.5-.7 2.4l.7-1.4.3-1c.2-.6.5-1.2.6-1.9.2-1.2.5-2.4 1.2-3.5.4-.5.7-1 1.4-1.3l-.2 4.1c.4-.7.5-1.7.5-2.6 0-1 0-2.2.4-3.2.2-.7.5-1.3 1.3-1.8l-.6 4.5.2-.3.7-3.6c.2-.9.5-1.6 1.3-2.3l-.5 4.8.3-.5c.1-.6.3-1 .3-1.6.2-1.5.2-2.9.9-4.2.8-1.7 2-3 3.5-4l1.7-1.2h-.3c-1.2.8-2.6 1.4-3.6 2.6 0-.7.2-1.3.5-1.8.3-.8.8-1.4 1.8-1.5.3 0 .7-.3.8-.8l.2-1c0-.8.7-1.7 1.7-1.9l-.2.9-.6.8v.4l.3-.2.6-1.2.4-.9 1.5-1-1.2.3c0-.4 1-1 2.3-1.4l.2.6c.2-.5 0-1.2.7-1.2-.3-.3-.6-.3-.8.2 0 .2-.2.3-.4.3l-1.1.4-1 .6.1-.8c.3-.8.8-1.3 1.5-1.7h.4c.5.2 1-.2 1-.7 0-.3.2-.7-.2-1v-.1c0-.6.4-1 .8-1.5.3-.3.6-.1.9-.1.6 0 .8-.2.8-.8 0-.9.1-1.7 1-2.2 0-.1.4-.2.5-.1.3.2.5 0 .7-.2l.2-.5c-.1-.8 0-1.4.5-2l1.6-.8c.4-.1.5-.3.4-.6 0-.4 0-.7.4-.8l.1-.3-.4.2c0-.4.3-.7.4-1 .2-.2.3-.4.7-.4.6 0 .8-.2.8-.7 0-.7.4-1.2.9-1.5 1-.6 1.6-1.8 1.3-3V.3l.2-.1L96 0a4 4 0 0 0-2.5 1.5l-1 2.1c0 .3 0 .7-.5.6h-.2l-1 2.1v.1l1-1.4.6.3L91 7.2l-.5-.7c-.2 0-.3.2-.5.3-.4 0-.5.2-.6.5L89 8.7a4 4 0 0 1-1.4 1.2c-.8.3-1.1.5-1.1 1.4 0 .6-.2 1.1-.7 1.5l-.8.5c.5.6.9 1 1.6 1.2.1 0 .3.2.3.4l-.3.4-.5-.2-.3-.5-1.2-.5c-.5-.3-.4-.6.1-.9h.1V13l-.4.1c-.4.3-.5.7-.5 1.1 0 1-.6 1.5-1.3 2-.4.2-.8.4-1 1-.3 1-.6 2-1.7 2.6l-.2.2h.4c1.1-.6 1.6-1.7 2-3 0 0 0-.3.2-.3.1 0 .3 0 .4.2l.4.4c0 .1 0 .2.2.3l1 .4.2.4c-.2 0 0 .7-.5.4l-1-.8-.8-.2h-.1c0 .2.2.3.3.5l-1.8 2.5-1.2-.3V20H79l-.3.2c0 .5-.1.8-.3 1.2-.2.7-.7 1.3-1.2 1.8l-.6.3c-.4 0-.5.3-.6.6-.2.7-.3 1.4-.8 2-.6.6-1 1.3-1.7 1.6-.8.3-.7.6-.8 1.2 0 .3 0 .7-.2 1-.4 1-1 1.5-2 1.7-.7.3-1 .8-1 1.6v.2a5.2 5.2 0 0 1-2.8 3.4c-.4.2-.7.4-.4.9l-.1.4c-.3.9-.8 1.7-1.4 2.4-.5.4-1 .9-1.7.9-.2 0-.5 0-.6.3-.2.3-.2.7-.2 1l-.1.6-1.4 1.9c-.1.2-.5.4-.7.3-.6-.2-.7.1-.9.5-.1.5 0 1-.5 1.3.2 1-.6 1.6-1 2.2h-.1l-.2-.2c.3.8-.7.5-.9 1 0-.7-.2-1.2-.3-1.7v.3l.1 2.8v.3l-.8 1c-.4.4-1 .6-1.4 1.1-.2.2-.4.4-.4.7-.2.7-.8 1.2-1.5 1.2h-1.4c-1 .4-2.2.6-3.3.6h-7c-.4 0-.4-.2-.4-.5l.3-1.1a529 529 0 0 0 1.5-6.9l.3-2.5v-.5H42l-.9 2.8-.6 2.9-.8 3.8v2c-.7 0-1.3.7-1.8 0l-.3.2c.2.1.2.3 0 .3-1 0-1.8.2-2.7.1-1 0-1.9-.4-2.8-.9-.5-.2-.6-.4-.4-1 .2-.3.4-.6.4-1l.4-3.7c0-.3 0-.7.2-1l.8-2.3 1.4-2.8 1-1.8c.2-.2.2-.5.4-.6.5-.5.5-1.1.8-1.7l.4-1.2.2-.7c0-.7.3-1.3.2-2-.1-.7.1-1.4.2-2.1v-1.7l-.3-1.1-.2.5-.3 2.6c-.2 2.3-.5 4.6-1.5 6.7a23 23 0 0 1-1.3 2.4c-.5.7-.8 1.5-1.2 2.2l-.5 1.3.5-3c-.3 0-.5 0-.6.3v.6a2 2 0 0 0-.3 1l-.2 1.5-.2 1-.1 2.5c0 1.3 0 2.6-.5 3.8v.6H31l-.7-.3c-.5-.3-.6-.5-.4-1v-.4h.1l-.2.5c0 .3 0 .4-.4.3l-1.8-.6c-1.4-.4-2.8-.6-4.2-.6h-4.1c-1 0-2 .2-2.8.7l-1.1.7v-.4l2.2-2.9c.7-.9 1.3-1.9 2.2-2.7l1.6-1.5 2.8-2.1 2-1.3 3.4-3.6.2-.4-.3.2-2.7 2.4c-.8.8-1.6 1.6-2.7 2-.4.1-1 .3-1 .9h-.5l-2 1.5c-.6.5-.8 1.2-1.3 1.7-.8.6-1.4 1.4-2 2.2l-1.9 3c-.2.3-.3.8-.6 1.1L13 56.4c-.7.6-1.6 1.2-2.2 1.9-1 .9-1.8 2-2.6 3C7 62.9 6 64.8 5 66.6c-.4.8-.7 1.7-1.2 2.4-.6 1-.7 2-1 3 0 .6 0 1.2-.2 1.8a19 19 0 0 0 0 3.2c0 .5 0 1-.3 1.5-.2.2-.3.6-.3 1l-.7 2.4c-.2.6-.3 1.3-.2 2 .2 1.1.2 2.2-.4 3.3a9 9 0 0 0-.6 2.3c-.2.6 0 1.2 0 1.9v2.3c0 .4.3.5.6.5.4 0 .3-.3.3-.5v-5.5c0-.4 0-1 .5-1.3l1.3 6.5.7-.2-.3-1.5-.7-4.4-.3-3.9c0-1.3.2-2.5.3-3.8l.2-.5a216.7 216.7 0 0 0 1.8 5.7L6 88.5 8.5 95c.2.6.1.8-.5.8-.2 0-.4 0-.6-.2l-.6-.8L5.2 91 4 86.6l-.3-2h-.1c0 .9 0 1.8.2 2.6a77 77 0 0 0 1.3 5 16 16 0 0 0 1.8 4c.4.7.7.8 1.3.7l1.4-.4c0-.5.1-1.2-.4-1.7a1 1 0 0 1-.5-.6L8 92.6l-1.7-4.5-1.7-5.6-1.1-4-.2-1V76c0-1.7.2-3.4.7-5l1.3-3.3.8-1.6c.3-.6.5-1.3 1-1.8a43.6 43.6 0 0 1 4.4-5.8 28.6 28.6 0 0 1 4.2-3.2c.7-.4 1.5-.8 2.3-.9a27.6 27.6 0 0 1 7.6-.1l3 .6 1.3.6v.2h-.2c-.9-.2-1.8-.4-2.7-.4h-2.3c-.9 0-1.8.3-2.7.4-1 .2-2.1.1-3.2.4l-2 .6c-.2 0-.4.3-.4.4.1.3-.2.3-.3.4l-1 .3-1.2.8v.1h.4l1.5-.7 1.2-.5c1.1-.4 2.2-.7 3.3-.8 1 0 2.1 0 3.1-.3a16.6 16.6 0 0 1 9.2.8l.2.2h-.1l-5.1 1.3c-.6.1-1.3.3-1.9.2-1 0-2 0-3 .4-.9.4-1.9.7-2.6 1.4l-3 3.3-.2.8c.3 0 .6.2.8.1a6 6 0 0 0 1.2-.4l1.7-1 4-2.7c.9-.7 1.9-1.3 3-1.6l4.2-1.1c1.4-.4 3-.3 4.4.1l1 .4h-.5c-1.7-.2-3.4 0-5 .6-1.2.4-2.3 1-3.5 1.5-1.6.6-3.2 1.4-4.5 2.6-.8.7-1.6 1.4-2.2 2.3l-1.2 2-1.1 1.6-1.4 2.5-1.3 2.5-.7 1.8-1 3.5-.4 1.7-.4 1.6-.1 2-.2 1-.1.6v1.5c-.4 1-.2 2.2-.5 3.3-.2.7-.1 1.4-.2 2l-.7 3v.2l-.5 1.8c0 .4-.5.7-.2 1l-.4 1h.4L12 99l1-2.4.6-2.9c.2-.7.4-1.5.4-2.3l.8-7.6.6-3.6.7-3 1.8-4.6 1.7-3.4.3-.4-.1.5c-.7 1.8-1.5 3.6-1.8 5.5l-1.4 8.3c-.3 1.8-.3 3.6-.5 5.3-.2 2 0 4 0 5.9l.1 2v7.2a105.8 105.8 0 0 1-.3 8c0 .6-.3 1.2-.4 1.9v.3l-.2.8-.1.5c.5-.4.5-.8.6-1.3l.6-2.4.2-3.4V89.8l.2-5.6.5-3.3c0-.6 0-1.2.2-1.7.2-1.3.4-2.6.8-3.9l1.3-4.4c.4-1.3 1-2.5 1.5-3.8a7.6 7.6 0 0 1 2.9-3.7 47.1 47.1 0 0 1 7.4-3.7c1.5-.5 3-1 4.7-.7l1.5.2h-.9l-2.6.4c-1.8.3-3.5 1-4.9 2.3-1 1-1.7 2-2.4 3.2l-.8 1-1.7 1.8c-1 1.2-1.8 2.5-2.2 4L20.9 76l-.2 1.6-.4 4.5-.2 3.1.2 3.7c0 2.7.4 5.5.3 8.2v2.7l-.3 1.7h.1l.3-.3.2-1.1c0-1.6.2-3.2.1-4.8l-.2-6.7c0-1.5-.2-3-.1-4.6 0-1 0-2 .2-2.9.2-1.7.3-3.5.6-5.2.3-1.4.6-2.8 1.3-4l2-3.6c.2-.6.7-1 1-1.5h.2c-.1.5-.1 1-.3 1.3-.6 1.4-.7 2.9-.9 4.4l-.7 6.6a30 30 0 0 0-.3 4.3v7.3-.3c.2-1.3.4-2.6.4-3.9.1-2.3.1-4.7.3-7 .1-2.6.4-5 .6-7.6a16.2 16.2 0 0 1 5.5-10.4c1-.8 2.1-1.3 3.3-1.6 1.1-.2 2.3-.2 3.4-.3h.7l-1.2.4a8.7 8.7 0 0 0-3.5 3.2l-1.7 2.9-2 4-1 3.5-.2 2.3-.3 3.5v1c-1 1.4-1.4 3-1.9 4.4-.4 1.1-.6 2.3-.8 3.5l-.4 3-.1 1-.3 1.9-.2 2.4.1.4c.2 0 .5-.1.5-.3l.2-1.2.4-3 .7-4.2 1-3.5.8-2.9v-.6c.4.9.8 1.7 1 2.6v.5c-.4 1.1-.3 2.4-.4 3.6l-.1 1.4c-.4 1.1-1 2.3-1.2 3.5-.6 1.8-.7 3.7-.7 5.5v3.8l.3 2.5.2.4v1.3c0 .4.3.8.3 1.1.1 1.5.4 2.8.9 4.1l.2 1.2-.2.3-.5 4v4.3c0 .5.3 1 .4 1.6l.3 2.4a41 41 0 0 0 1.6 5.4l1.2 2.2c.2.3.2.8.7.7 0 .6.2 1.2.5 1.5l.7 1 .2.2c1 1.2 2 2.4 3.4 3.5l1.8 1.7.7.7h1.1l-.1-.2-2.3-2a56.1 56.1 0 0 1-4.7-4.8l-.7-1-.6-.6c0-.2 0-.4-.2-.6L31 131a36.6 36.6 0 0 1-1.4-5c-.3-1.9-.7-3.7-.8-5.5-.2-2.6-.1-5-.2-7.6l.3.3 1 1.9.7 1h.1c0 .7.6 1 .8 1.6l.7 1 .3.5 1.2 1.9.6 1.3.5.9.9 1.8.7 1.6.5 1.6 1.2 3.3.2.4h.2l-.1-.5a22 22 0 0 0-1.3-4.1l-1.9-4.5c-.6-1.3-1.4-2.6-2.1-3.8l-1.5-2.2-1.6-3-.8-1.2v-.6l-.7-2.5-.6-2.2a60.3 60.3 0 0 1-.6-8.6c0-2 0-4.2.7-6.3l.7-2.6.7 3.3 1 4 .8 2.2.8 2.4 1.2 2.8a9.7 9.7 0 0 0 2.2 3.8v-.5l-2-4.1-.4-.8-.5-1.5-1.4-3.8-1.2-4.5c-.5-1.9-.7-3.8-.6-5.7l.2-2.8h.2l.9 1c.4.4.4.8.4 1.3v1.2a12.3 12.3 0 0 0 1.7 3.5l1.5 1.9c.6.6 1.3 1 2 1.4.4.3 1 .5 1.5.7.2 0 .5 0 .6-.2V95c0-.5-.4-.9-.8-1.2l-1.2-1.2c-.2-.3-.2-.8-.7-.7l-.1-.2c0-.5-.5-.8-.7-1.1l-.7-1-.2.2c1 1.5 1.9 3 3.1 4.4h-.4c-1-.1-1.6-.7-2.3-1.3-1.2-1.3-2-2.8-2.6-4.4l-.4-1.6h.2l1 1.3c.5.5.8 1 1.3 1.3-.1-.3-.3-.7-.6-1l-2-2.6-.2-.6c-.7-.3-1-1-1.4-1.5l-.8-2.2-.3-2.8.2-2.5c0-1.2.2-2.4.5-3.5l1-3 1.6-3.1a11.2 11.2 0 0 1 4.4-5.5c.4-.2 1-.3 1-.9h.9c.5 0 1-.5 1.4 0l.5-.3c1.5 0 2.8.3 4.2.7.2 0 .5.2.6.5l.5 2c.4 1.5 1 3 1 4.6 0 1.6.2 3 0 4.6 0 1.8-.3 3.6-.4 5.4a131.5 131.5 0 0 0-.2 11.7 168.6 168.6 0 0 0 1.5 11.1l1.6 5.6 2 6.4a140.5 140.5 0 0 1 2.4 11.3c.4 2.4.6 4.7.5 7v1.5l.3-1.8c.1-2.5-.1-5-.6-7.6a241.6 241.6 0 0 0-2.9-12.4l-2.3-8.1a143.8 143.8 0 0 1-1.6-9c-.2-2-.5-3.9-.5-5.8V82l.5-6c.1-1.5.4-3 .4-4.5l-.2-4.4-.4-2.5-1.4-5.2h.7a6 6 0 0 1 3.5 3.5c.8 1.7.8 3.5.8 5.2l-.2 4.7v2.9c-.2 1 0 1.9 0 2.8-.1 1 0 1.9.1 2.8l.3 2.8.1 3.9.2 3 .3 3 .2 3c0 .3.4.8 0 1.2v.3c.5 0 .5.2.5.6v.9l.7 3.9c0 .4.3.7.4 1l.3 2.2.8 3.4.6 2.2.3 1.4.6 2.4.1.2c.1-.1 0-.3 0-.4l-.3-1.9-1-4.6-.8-3-.7-4.8-1.1-7.7L51 88l-.3-5-.3-5v-3.7l.2-4.9v-3.9c.6 1 1.2 1.8 1.4 2.8.3 1.1.4 2.3.4 3.4l.4 6.3.1 2.9v1.7l.2 3.8c0 1.4.2 2.7.3 4v.6c.4.4.4 1 .3 1.4l.1 1.7 1 3.6.6 2.4v.2l.2-.1v-.5l-.2-2.3-.4-1.5-.3-2.5-.6-3.6L54 86l-.2-3.9c0-1.6-.3-3.2-.4-4.7l-.4-7.2c-.1-2-.7-3.6-2-5-.4-.4-.7-.8-.8-1.3a7 7 0 0 0-2-3.7 5 5 0 0 0-2.7-1.3l.5-.4 1.4-.6c.9-.3 1.8-.4 2.6 0 1.1.5 1.9 1.3 2.6 2.3l1 1.7c.7 1.1 1.3 2.3 1.7 3.6v.6H55l.1.2c.7.4.7 1 .8 1.6l1.2 5.6.8 3.8.5 3.7a134.7 134.7 0 0 0 2.3 9.7l1 3.2c0 .5.3 1 .4 1.5h.1v-.3l-.5-1.7c-.5-1.7-1-3.3-1.3-5l-1-3.9-.6-3.8-1.1-6.2-1-5.7-.4-1.9c1.6.8 2.7 1.7 3.3 3.2l1 4 .7 4.1.3 1.3.7 2.6.1.6.6 1.9.5 2.3 1 2.6c0 .3.2.5.3.7l.4.6.2-.2-.5-1c0-.3 0-.7-.3-.8-.3-.3-.3-.6-.4-1-.1-1-.4-2-1-2.9v-.8l-.4-1.3-.9-3.5c-.3-1.6-.8-3.1-1-4.7 0-1-.2-1.8-.4-2.7a6.3 6.3 0 0 0-3.9-5.2 1 1 0 0 1-.4-.5l-.5-1.5c-.5-1.1-.9-2.3-1.5-3.4-1-1.6-2.2-3.2-4.1-3.9l-.2-.2 1.1-.5c1.1-.3 2.1.2 3 .8l1.8 1.5 1 1.4c.6.6.8 1.5 1.6 1.9.3 0 .6.4.4.8v.4l.6 1c0 .3.3.5.4 1 0 .5.4 1 .6 1.7l1.1 2.8c0 .2.2.3.3.4 0-.2.2-.4.1-.5 0-.4-.3-.7-.4-1.1l-.5-2.2-.2-.8c0-.5-.2-.8-.5-1l-.1-.6c-.2-.7-.7-1.3-1-2-.2-.7-.8-1.4-1.3-2l-2.3-2.4-1.5-1.1c.4-.3.8 0 1.2 0 .9.3 1.9.4 2.8.8 1.2.6 2.3 1.3 3 2.5.6.8 1 1.7 1.5 2.6l1 2.2.3.4c.2-1.5-.7-2.5-1.1-3.6-.5-1.2-1.4-2-2.2-3a8.9 8.9 0 0 0-3-2l.4-.1 1.6.3c1 .2 2 .3 2.8.7 1.1.4 2.2 1.1 3.3 1.6.4.3 1 .3 1.5.5.4 0 1 0 1.4.2.1 0 .3 0 .3.2.2.4.5.9.6 1.4.2.8.6 1.4 1.4 1.8.4.2.9 0 1-.4l.2-.6c.2-.6.5-.7 1-.4 1 .6 1.2 1.6 1.5 2.6.1.5.2 1 .8 1.3l-.1-.5c-.5-.5-.5-1.2-.7-1.8a3 3 0 0 0-1.4-1.9c-.4-.2-1 0-1.5-.1 0-.3.4-.6.9-.4l1.6 1a3 3 0 0 1 1.2 2.1l.2.4.4-.2c.3-.5.8-.6 1.3-.2-.5 0-.8.3-.9.8 0 .5-.3.7-.7.6l-.3.2.2.2h.6l.6-1c.2-.3.5-.4 1-.1.5.4.7 1 .8 1.7 0 .9.1 1.6 1.1 2l.4-1.1c0-.4.2-.6.4-.7l.8 1c0-.3.1-.4.2-.5.5.1.7.4.5 1 0 .5-.3 1-.4 1.4.9-.7.7-1.6.6-2.5.5.6.6 1.4.2 2-.2.5-.5.8-.8 1.2l.2.2c.6 0 .6.4.6.8v.8l-.5 1.3-.7.6c-.2.2-.2.5 0 .6.6 0 .6.3.8.6.3.7.3 1.5 0 2.1l-.8 1.3c.6-.2.8.1.8.5v1c.3.9.2 1.7-.5 2.5-.2.2-.2.4.1.4.6.2 1 .7.8 1.3l-.1 1 .1.5c.2.2.6.4.6.7.3.8.4 1.5.5 2.3 0 .4 0 1 .6 1.2l.4-.5c.2.6 0 1.3-.5 1.5-1-1.3-.7-2.9-1.1-4.3l-.1.3-.4-.7-.4-.3-.1.2v.5c.5.3.5.7.7 1.1L83 89c-.5.3 0 .9 0 1.4l-.3-.1-.2 1.8c-.1 1.3 0 2.6-.3 3.9-.3 1.5-.9 3-1.3 4.4-.1.6-.5 1-.4 1.7 0 .1 0 .3-.2.5l-.8 1.5-.6 1.3c-.3.3-.3.8-.8 1l-.7.8-2.6 2.2c-1 .9-2 1.5-3.3 2-.4 0-.8.2-1.2.4l-3.6 1.8c-.6.3-1 .7-1.3 1.3-.3.5-.1 1 .2 1.4.2.2.6.3 1 .3 1.2-.1 2.2-.8 3-1.5.2 0 .2-.2.3-.4l-.9.3c-.7.4-1.5.5-2.2.5-.3 0-.6-.1-.7-.3l.2-.7.2-.2c.7-.4 1.4-.9 2.2-1.2l2.9-1.2 2.7-1.5.5-.3c0 .8 0 1.5-.2 2.1-.4 1.7-.8 3.3-1.4 5-.3 1-.9 1.9-1.3 2.8l-.8 1.7-2.4 3-1.5 1.6-.7.6-2.8 2.2-1.5 1-.2.4h.1l.3-.3 1.3-.5 1.6-.8 3.3-2.7-.1.5c-.8 1.7-1.6 3.3-3 4.7l-2.1 2.7c-.6.6-1 1.4-1.8 1.8 0 0-.2.2-.1.3l.1.5h.4l1.4-1.5.9-1v.4l-.4 4.2-.5 3.6h.3l.7-4c.1-1.3.3-2.6.2-4 0-.6.5-1 .6-1.5l.4-.2.2 3v5.6l-.1 1.1h.3c.1-.6.3-1.3.3-2v-4.6l-.3-3.4c0-.2 0-.4.2-.6l.5-.6v.4a2 2 0 0 0 0 1.2c.2.5.2 1 .2 1.6l.6 5.9.2 2.1h.5L68 140l.2-.2.1.4c.7.8 1.6 1.2 2.5 1.7.9.5 1.5 0 2-.6l1-1.1c.2.8.2 1.6.1 2.3h.4V140c0-.5 0-1 .5-1.3.5 1.2.4 2.5.3 3.7h.4v-2.8l1 .3.3.4.5 2.1h.2l-.6-2.3.8.2a4 4 0 0 0 1.3-.3l1.1-.7.5-.2c-.1-.8.1-1.6-.3-2.4a3.4 3.4 0 0 0-2.1-1.6l.5-.7a4 4 0 0 0 1.2-2.7c.1-1.1.2-2.2.1-3.3 0-1.2-.4-2.4-1.5-3v-.5l.7-2a7 7 0 0 0 0-3.2 7 7 0 0 0-.3-2c-.2-.4-.4-1-.7-1.3-.8-1-1.6-2-3-2.2h-.3c.2-1.2.4-2.4.4-3.5 0-.9.4-1.2 1-1.7 1.1-.9 2.2-1.9 3-3.1l.5-.7.1 2.2.2 3.1v3l.1 1h.2V113l.2-2.7c0-.8 0-1.7-.2-2.6l-.2-2.8c0-.4.3-.9.5-1.3l.6-1.5h.2l.4 2c.3 1.5.2 3 .2 4.3v4.5l-.1 1.7.2.7v3.9l-.2 1.6.1 4.3v7.1L82 138l.2 2.2v2.3h.4l.1-5v-8.3c-.2-2.4-.2-5-.2-7.4l.2-4.3V106c0-1-.2-1.8-.4-2.7 0-.5 0-1.1-.3-1.6-.4-1.2 0-2.2.3-3.3 0-.5.2-1.1.4-1.8l.6 1.1c.8 2 1.4 4 1.4 6.3l.3 3.5v6.2l.1 5.5.2 3.9v4.5l.1 3.5-.1 2.4v2.7l.2 3.3.1 3h1l-.2-3.8-.1-3.7v-6.6l-.3-4.5-.1-4-.3-5v-5.7c0-1.7-.2-3.4-.3-5-.1-2-.6-4-1.3-6-.3-1-1-1.8-.9-2.8v-.1l-.3-.8c.3-.8.2-1.7.3-2.6v-1.1h.1c0 .3 1 .3.3 1 .4.2.7 0 1-.3.3-.6.6-1.2.7-2V89l.4-.2.9.3c.6-.4.7-.7.4-1.3l-.8-1.1c-.2-.6-.6-1.1-.2-1.8l.4.2h.8v-1l-.2-.3-1.7-1.8.5 1.2-.4-.4c-.5-.7-.6-1.5-.4-2.4.2-.5.3-.6.9-.4h.2l-1-1.5c-.7-.6-.8-1.4-.7-2.2.1-.7.3-.8 1-.9h.2l-.7-1.2c-.5-.8-.5-1.6-.1-2.4.2-.5.5-.7 1-.5.4.1.7 0 .8-.5l.3.5c0 .2.2.4 0 .6H86c-.2 0-.4-.3-.7-.5-.2.4-.5.8-.5 1.2 0 1 .2 1.9 1 2.6 0 0 .2.3.1.4l-.4.2h-.7l-.3.4c.1.6.1 1.2.4 1.6.3.7.8 1.2 1.3 1.7.4.6.4.7 0 1.3l.5.2c.2-.6 0-1.2-.5-1.7s-1-1-1.2-1.7v-1.3c0-.2.1-.3.3-.2.4.3.7 0 .9-.3l-.1-.6-.5-.8c-.4-.5-.5-1.1-.5-1.7 0-.3.2-.5.3-.7.7.5 1 .5 2 0-.2-.1-.3-.3-.3-.4v-.1l.7.5c.9 1 .8 2 .5 3-.2.4-.2.8-.3 1.3l1.1-.6.4-.5c.3 0 .7 0 .8.5l.1.2c.7 1 .7 2.1.4 3.2l-.4 1.4v.5c.5-.5 1-.8 1.7-.8.4.3 1 .8.8 1.6v.1c.4.8.4 1.6.1 2.4a30 30 0 0 0-.4 1.8v.6l.6-.6c.7-.6 1.5-.4 1.9.5l.2 1.2a8 8 0 0 1 0 3.7v.3h.2l.3.2c0 .2 0 .4-.2.6h-.4c-.4-.4-.6-.8-.5-1.3l.2-1v-.9l-.4 1.2c-.4 1 0 1.6.5 2.3.3.4.7.4 1 0l.4-.9.3-.3.4.2.3.7 1 3c0 .3.3.6.5.8.2.2.5.2.7.2.1 0 .3-.3.3-.5l.1-.8c.1-.9.2-1.8 0-2.6v-1.4c0-.7.3-.8 1-.7.4 0 .7.2 1-.1.3-.4.4-.8.2-1.2l-1.1-1.5c-.5-.6-.7-1.1-.5-1.8 0-.2.3-.4.5-.5l.8.2c.3 0 .6 0 .9-.2.1 0 .2-.4 0-.6" mask="url(#b)"/>
    </g>
    <path fill="#000" d="m33.6 160.5-2.1-1.7c-1.2-1-2.6-1.9-3-3.6-.2-.6-.6-1.1-.9-1.7l-1-2.5a70.8 70.8 0 0 1-1.5-10l-.3-4.2-.2-2.6c0-2.6-.3-5.2-.2-7.9v-3.8l.4-5c-.2 0-.4 0-.4.2v1.4l-.3.7-.1 3.6v1.8l-.1 1.6.1.7v2l-.1 3.4c0 .2.3.5.3.8v1.8l.1.9v1.5l.2 1.1c.2 1.3.1 2.6.1 3.8 0 1 .2 2 .4 3 0 .6.3 1.2.4 1.8l.3 1.8c.2.6.5 1.1.6 1.7 0 .9.4 1.6.8 2.3.2.4.2.7.1 1.1l-.6 2.5-.2 4c0 .5-.2 1-.6 1.4H27l.4-.2.3-7.3c.8 2.7 3.2 4 5.3 5.6l-1 .7c-1 .6-2 1-3.2 1l-.6-.2h-.6v.4H31l2.2-1.6v-.2l.5.3c.4.3.7.5.4 1l-.1.5h.6v-.9l1.3.9h1l-1.9-1.2-1.3-.7m-15.5.3c-1-.6-1.7-1.3-2.6-2l-.5-.2c0-.2 0-.4-.2-.5l-1.7-1.8c-.5-.6-1.1-1-1.5-1.6-.6-1-1.6-2-2.2-3.1-.2-.5-.6-.9-1-1.3L8 150c0-.3-.3-.6-.4-1-.2-.5-.8-.7-1-1.3 0-.6-.5-1-.8-1.6a99 99 0 0 1-1.8-4l-.8-2.4-.1-.6v-.3h-.2c0 .1-.2.3-.1.4l.2.6c.3 1.1.5 2.3.9 3.4.4 1 .8 2 1.4 3l2 3.4 1 1.2c.2.5.6 1 1 1.4l.9 1 .7 1.1 1.4 1.7 1.6 1.9 3 2.7c.8.7 1.7 1.2 2.5 1.8h1.7l-.7-.2-2.2-1.4m42.5-4.1-.6.7-.6.8-.4.1-.2.1c-.6.6-1.4 1-1.8 1.9l-.2.2c-.6.1-1 .7-1.4 1l-1.2.9H56c.3-.4.5-.9 1-1.2l1.1-1 1-.9c.3-.5 1.1-.7 1.2-1.5l.2-.2c.3-.2.7-.2.8-.5v-.6c-.3 0-.5 0-.6.2"/>
    <g transform="translate(75.6 160.3)">
      <mask id="d" fill="#fff">
        <use xlink:href="#c"/>
      </mask>
      <path fill="#000" d="M.3 0v2.1h.5A722 722 0 0 0 .3 0" mask="url(#d)"/>
    </g>
    <path fill="#000" d="M55 10Z"/>
    <g transform="translate(53.2)">
      <mask id="f" fill="#fff">
        <use xlink:href="#e"/>
      </mask>
      <path fill="#000" d="M3.4 8.5h.5l3.5 1.3 4 1.4-.5.6-1.2-.6-5.3-2h-.9L3.1 9c0-.2.1-.4.3-.5Zm3-6.6c.1.2.3.4.3.7V3c0 .4.1.6.5.8a3 3 0 0 1 1.2 2.3c0 .8-.9 1.5-1.6 1.3-.5-.2-.6-.5-.5-1l.5.2h.9c.3-.3.3-.7 0-1-.2-.5-.5-.8-.8-1.2-.4-.4-.7-.8-.6-1.4 0-.3-.3-.7.1-1.2ZM10 3c-1 .6-.8 1.7-1.3 2.5C8.3 4.6 9.1 3 10 3Zm1 3.3a2 2 0 0 1 1.5 0c.5.3.9.2 1.3 0 .7-.6 1.5-.4 2.4-.2-.2 0-.3.3-.5.3-1-.2-1.7.3-2.5.7l-1.5-.5c-.6 0-1.3.4-1.4 1l.3.7h1.1L11 9l-.3-.1c-.9 0-1.3-.5-.9-1.3.3-.6.6-1.1 1.3-1.3Zm.3-3.7c.6 0 1.2.6 1.1 1.2 0 .6-.2 1.2-.4 1.7 0 .3-.2.6-.6.3l.4-.8c.3-.6.3-1.1 0-1.6L11 3h-.4v-.3l.7-.1ZM10 13c.5-.4 1-.3 1.4.2L10 13ZM.8 9.7c.5-.4 1 0 1.5-.1v.1l-.5.3h.6c.6 0 1.2-.2 1.7 0l1.1.2c.3 0 .6-.2.7.3h.3l1.4.4-.6.3.1.2.8-.2h.8v.2l-2.4.3c.3.4 0 .4-.3.5 1.6-.4 3 0 4.3.4-.9 0-1.8-.2-2.8 0 .2.5.5.3.7.3.5-.3.9.1 1.4 0v.2l-1.8.5v.2l.4-.1c.8-.3 1.7-.4 2.7-.2l.4.3-2 .3h1.5c.5 0 1.1-.2 1.5.5l-1-.1v.1l1.5.3v.2c-1 0-2 0-2.8.4l1.5-.1 1.7.1c.2 0 .3.2.4.3-2.3-.2-2.3-.2-2.7.3 1.2-.4 2.3 0 3.4.5v-.2l-.6-.4.3-.2-1.2-1.7-1.3-1.4c0-.3 0-.7.2-1l1.5-2.3.2-.1.6-.6 2-2.2c.6-.5 1.2-1 1.5-1.8l-.6.5c-.2.3-.6.4-1 .4-.7 0-1.4-.2-2.1.3-.3.2-.8.1-1.2.1-.4 0-.5-.1-.3-.5.3-.8.5-1.6.2-2.5l.2-.3c.4-.2.5-.4.5-.8L13 1c0-.4 0-.8-.6-.6h-.2c-1.1-.4-1.9.1-2 1.3 0 .3 0 .5-.4.7-.6.2-1.1.6-1.4 1.2l-.5.8-.3-.6-.2-1L7 .4 6.8 0h-.2l-.4 1.1A91.3 91.3 0 0 1 4 6.8c-.1.4-.2.9-.5 1-.5.3-.6.8-1 1.1 0 .2-.2.3-.4.3H.5c-.3 0-.5 0-.5.5h.8Z" mask="url(#f)"/>
    </g>
    <path fill="#000" d="m69.3 37.3-3.7-.6v-3.3c0-1.1.6-2 1-3 0-.3.3-.5.5-.8l.6-1.3c.1 1-.5 1.6-.7 2.3l.8-1.1.5-.7.2-2.1c0-.5 0-1-.4-1.2v-.3l.1-.5h.1l.3-.4-.3.1c-.3-.3-.6-.5-.3-1v-.2l.4.8h.2l-.4-2v-.6a311 311 0 0 1-.3-1.5l.3.4.3.4c0-.4 0-.7-.2-1l-.7-.9h-.1v.7c-.7-.7-1.1-1-1.4-.8l.7.5h-.6l.3.4c-1.3 0-1.3 0-1.3.4 1.2-.1 1.9.1 2.2.8-.3 0-.5-.2-.7-.3l.9 1c.2.6.8 1 .4 1.8l-.6-1.4c-.3-.4-.6-.7-1.1-.6l1 1v.2l-1.1-.1c.4.3 1 .2 1.2.8l-1-.3.8.6c-.7 0-1.3-.4-2-.1-1 .3-1.6.8-1.8 1.9l-.2.5-.2.5h.1l.8-1.6c.3-.6 1.2-1.2 1.8-1.1 1 0 1.6.6 1.8 1.4l.1.7a4 4 0 0 1-.2 2.2c-.6 1.2-1.2 2.3-1.7 3.6-.4.9-.6 1.8-.6 2.8v1.2c0 1-.2 1.9-1.3 2.3l-.2.2c.7.2 1-.4 1.4-.6.2 1.3.5 2.7.2 4-.3 1.3 0 2.7-.9 3.9l-.4-2.2c-.1-.8-.3-1.5-.7-2.2v.2l.8 3.5c.1.8.2 1.5-.2 2.1 0-2.2-.3-4.3-1.5-6.2l.1.7c.3.6.6 1.3.7 2l.4 4.2.1.5h.2l1.8-5.3c.5-1.8.1-3.7 0-5.6l3.5.8.3.2.2 1.7c-.1 1-.2 2-.5 3l-1.6 4.8c-.1.4-.6.9 0 1.2l-.7.7-1 2.6-1 2.2-1 2-2.3 3.9-.2.4h.3l1.2-1.9.8-1.4 1.6-2.7 1.6-3.2.7-1.4 1-2.7c.5-1.6 1.2-3.2 1.6-4.9.4-1 .6-2.2.4-3.4l-.3-.8c3 .6 5.8 1.1 8 3.2-.4-1-1.1-1.6-2-2l-2.1-1-2.8-.8c-.5.4-1-.1-1.4-.1l-.6-.1M52.6 68.6v1h.2l.2-.4-.4-2.8-.5-3-.6-2.3-.8-3.1-.4-2v-2.6c0-1.5.1-3 .5-4.4l.5-1.4v.2a16 16 0 0 0-.6 6.5l.8 4.9c0 .6.4 1.2.6 1.9l.2 1.3.3.3c0-.1.2-.3.1-.4l-.5-1.8-.8-3.1-.3-2.7V51c0-1.4.3-2.7.9-3.9l.3-1.3h-.1l-.2.2-.3.1-.3.7c-1.2 2-1.4 4.1-1.5 6.3a10 10 0 0 0 .3 3.8l.7 3 .8 3.3c.3 1 .4 2.2.6 3.3l.3 2.1m-21-16.3a51 51 0 0 1 6-7.2h-.4l-1.8 1.5-1 1c-.7.9-1.6 1.6-2.3 2.6l-3.8 6-1.7 2.6c-.4.7-.4.8 0 1.3 1.6-2.7 3.3-5.2 5-7.8M90.2 38l-1.7 1.3-.6.5-.2-.2c1.1-1.4 2.4-2.7 3.7-4v.9c-.1.7-.7 1-1.2 1.4m-2.8 3.3-.4.1h-.3c-.4-.1-.6-.3-.3-.7v-.2c.2-.7.2-.7 1-.7 0 .3.3.5.3.8 0 .2-.1.5-.3.7m.4-3 1.6-2.2c.3-.3 1-.4 1.4-.6l.1.1-3.5 4-.2-.2c.2-.3.3-.7.6-1M92 34l-.2.1c-.3.8-.9 1.1-1.6 1.2l-.9.3-.2.2-.8 1.4-1.3 2-.9.6-.4.4.2.5c0 .9.8 1.2 1.5 1.1.3 0 .5.1.6.4l.3.6H87v.2l1.3.1c0 .9-.3 1.7-.7 2.4a6 6 0 0 0-1 2.6l.1.5 1-2.7.8-2c.2-.6.2-1.2-.2-1.7-.3-.4-.2-.7 0-1.1.2-.2.2-.5.2-.7l.1-.5 2.3-2 .6-.2.6-3.7M53 27.8l-.1-.1.4-.4L55 27a4 4 0 0 1-2 .8m-1 .4c0-.7.1-.8.7-.7l-.7.7m-3.3 1.3h-.1l.5-.7.4.4-.8.3m9.4-5.9c.3-.3 0-.4-.2-.6.2.4 0 .6-.3.8l-.5 1a4.7 4.7 0 0 1-4 2.2l-1.4.1c-1 0-1.9.4-2.5 1-.4.5-.8.9-.8 1.5.6.2 1.1 0 1.6-.3l1-.7 2.4-.6 1.7-.7c.4-.2.7-.5 1.1-.6.6-.2 1.2-.2 1.7-.2l.5.2.3.3c.4.2.5.6.3 1v.6c.6-1 .5-1.5-.4-2.1.4 0 .8 0 1 .2.6.3.7.9.4 1.5.4-.3.6-.8.3-1.2-.2-.5-.6-.8-1.1-.9l-1.2.1h-1c.8-.5 1.7-1 2-1.9-.7.6-1.4 1.5-2.5 1.7l1.1-1.6c.2-.2.2-.6.5-.8m-.5.2ZM9 131.3l-1.4-3.8-1.4-4.2-1.8-5.5a9 9 0 0 1-.3-1.2l-.5-2.8-.4-.3-.3.4c0 .4 0 .8.2 1.2.3 1.2.5 2.3.9 3.4l1 3 1.3 3.6 1.3 4 2 4.4.2.3h.1l-.1-.6-.8-1.9M46.8 73v.5c.1-1.1.2-2.2.1-3.3 0-1.4-.2-2.8-.4-4.1l-.5-5.4c-.2-1.8-.2-3.7-.3-5.6.4 1.3.1 2.7.5 4v-5.6l.1-3.3c.1-1.2.1-2.5.7-3.7l.3-1.2h-.1a7 7 0 0 0-1 3l-.3 4.6v1.7h-.2c0-3-.2-6 .6-9h-.1l-.2.5c-.2.7-.5 1.5-.4 2.3l-.2 3c0 2.6 0 5 .2 7.6l.5 6 .7 8m13-15.4.4 1.6.3 1.5h.2c-.3-2.7-1.3-5.2-.8-8 .1 1 .1 1.8.4 2.7l.1-.2v-4.9l-.1-3.6-.2-1h-.2c.2 1 .3 2.2 0 3.3v-.2l-.6-2.8v-.4c0-.2.2-.4.1-.6l-.7-1.7-.2-.2v.5l-.3-.3.5 1.2.8 3.2c.3 1.6.2 3.1 0 4.7v2.8c0 .4 0 .9.2 1.4l.1 1M2.3 126.5v-.7l-.1-.3-.5-2.2-.4-3.8c0-1.2 0-2.4-.2-3.5 0-.5-.2-.9-.3-1.4l-.3.2a4 4 0 0 0-.3 2.4l.3 2.2c0 .7.2 1.3.3 2l.2 1v.6c.2.3.4.6 0 1h.7l-.2.4v.7l.2 1c0 .5.2.4.6.4m48.1-88.4.4 1.2v.2h-.3l-.3-1.3h.2m.8.3c.3.5.3 1 .7 1.5v.2l.1.2h.2a9 9 0 0 0-1-2.4c-.4-.8-1.3-1.3-2-1.9h-.5c0 .2 0 .4.2.5a3 3 0 0 1 1.1 2v.2c0 .3-1 .6-1.4.4a2 2 0 0 0-2.2 0c-.5.4-1 .2-1.4 0h-.3c-.5 0-.4-.3-.4-.6l.1-1.3h-.1l-.2 1.4c0 .3 0 .4-.4.6-.4 0-.7.4-1 .6l-.2.3v.5l1.1.4c.2 0 .4.2.5.3.4 0 .8.5 1.3.2l-.2-.1c-.5-.2-1-.2-1.4-.6l-.8-.5-.2-.2c0-.1 0-.2.2-.3.8-.6 1.7-.7 2.6-.2.2.2.3.1.6 0 .6-.4 1.2-.6 2-.4v.2l-1.5.6v.2l3.6-1.2v.5l-.9.3-.1.1v.2h.3l1.4-.5.3 1h.2A9 9 0 0 0 50 37l.3.2 1 1.3M30.8 61.9l.1-1-.3.3c-.2.6-.7 1.2-.5 2a19 19 0 0 0-1 5.7c-.1 1 0 1.9.1 2.8 0 .7.2 1.3.4 2 .3 0 .4-.2.3-.5V71c-.2-1.5-.2-3 0-4.6l.9-4.5m13.3-29.3a5.9 5.9 0 0 0 0 3.2c-.5-.3-1-.6-1.1-1.2-.2-.7.4-1.7 1.1-2m-1.2.9c-.3.5-.4 1.2 0 1.7.3.5.7 1 1.5.8h.3l.8.4c.5-.1 1-.7 1.7-.4h.2c.7-.3 1.2-1.3 1-2l-.8-1.2c0-.2-.3-.4-.4-.6l-.2.2.4.5c.5.5.8 1 .6 1.8a1 1 0 0 1-1 .8c.4-.8.2-1.5-.3-2.2l.1.5c.3.7 0 1.6-.6 2-.7.2-1.6 0-2-.8a6 6 0 0 1 0-2.3c.4-1.3.8-2.7 1-4 0-1 .3-2 .5-3l.4-1H46a9 9 0 0 0-1 3.2l-.4 3.4c0 .4-.3 1-.7 1.1-.4.3-.7.6-.9 1m15 13.5-.4-1.1-.5-2.4-.1-1h-.2v.7c.2 1 .3 2 .6 2.9.8 2 .7 4 .6 6.2l-.1 4.5v1.2c-.2.8.2 1.6.2 2.4h.1v-3l.1-1.8v-5.2c.1-1.2 0-2.3-.3-3.4m-8.7 16.2c-.7-2.4-1.2-4.8-1-7.3H48l-.2.3c-.1-.6-.2-1.1-.1-1.6 0-1.2.2-2.4.4-3.6l1-3 .7-2.3h-.2A21.9 21.9 0 0 0 48 59.2h.4l-.3.3-.1.3h.3a72010.8 72010.8 0 0 1 1 3.3"/>
    <path fill="#000" d="m58.3 66.5.1-.2-.3-1.2-.3-1.9-.4-1.8-.1-5.7V47l-.3-1h-.1v.6l.3 5.4-.2 4.2c-.1 1.8 0 3.6.3 5.4l.5 3.2c0 .6.3 1.1.5 1.7M37 72.4c0-1.5 0-3.1.3-4.7v-.5h-.2l-.3 1-.4 2.7a7.3 7.3 0 0 0 1.3 6l-.1-1c-.4-1.2-.6-2.3-.6-3.5m21.8-17.8v2.2c0 .7 0 1.3.2 2l.2 1.1h.2v-1a27 27 0 0 1-.3-4l.2-3.1c0-1.5 0-3-.3-4.4L58 44l-.2-.3-.1.5.4 1.6c.3 1.1 1 2.1.9 3.3l-.2 5.6m-8.4 5.1-.3-1.2c-.2-1.1-.5-2.2-.6-3.4v-3.1c.2-1.8.6-3.5 1.5-5l.5-1.1h-.3l-.2.4c-.8 1.6-1.4 3.3-1.7 5a12 12 0 0 0 0 4.8l.5 2.4.5 2.2c.2.8.3 1.7.7 2.5l-.6-3.5m-.1 15.3.2-.3c.3-1 .5-2.2.5-3.3v-3.7l-1-6.3-.6-2.8H49v.7l.4-.3.4 2.2h-.1l-.2-.3v.6l.4.2V63h.3l-.1.6v.3c.4.1.3.4.2.7v.3c.3.4.2 1 .3 1.4l.2 2.8-.2 4.7-.2 1.3M43.1 15l-.7 2.5h.2l.8-1.8c.4-.8.7-1.7 1.4-2.4.3-.2.4-.6.6-.9l-.1-.1a773 773 0 0 1-1.1.8l.6-1V12l-.9.5a7.5 7.5 0 0 0-1.6 4.3l.7-2 .1.1m-9.6 46.6-.3 1c-.1.5-.4 1 .1 1.3a51 51 0 0 0 2.2-10.3l-.6 1.7-1.4 6.3M62.2 35v.1c.4 0 .8 0 1-.2a3 3 0 0 0 .9-2c0-1 .2-2 1-2.9l.3-.4c.3-.6.6-1.3.4-2v-.8l-.4-.3c-.3-.3-.6-.4-.8 0l-1.8 2.2c.5-.1.8-.6 1.2-1l.8-.9c.3-.2.5 0 .6.3.2.6.3 1.2 0 1.7-.3.7-.7 1.3-1.2 2-.3.3-.5.8-.5 1.3l-.1 1.3c-.1.9-.3 1-1.2 1.3l-.2.2m-22 3.2c0 .7-.2 1.3-.3 2h.1l1.1-3.5h.2v.4l-.8 2c-.2.6-.2 1.2 0 1.4l.5-1.9.8-1.8a3.3 3.3 0 0 1-1.7-2l-.4-2.7v-2l.3.2-.6-1.1V32a6 6 0 0 0 1.6 4.5l-.6.7-.2 1m17.9-2.3c-.8-.2-1.6-.3-2.4-.2-.7 0-1.5.1-2.2-.1a5.3 5.3 0 0 1-3-2.8c-.6-1.2-1.5-1.8-2.6-1.6l-.4.1v.1c1.4-.3 2.1.4 2.7 1.5 1 2 2.5 3 4.7 3.2.7 0 1.2.4 1.5.9l.7.7c0-.9-.8-1.2-1.2-1.7h1.7c.6.2 1 .6 1.5.9-.2-.5-.5-1-1-1M70.2 71c0 .6-.3 1.4.2 2 .8 1 1.8 1.9 3 2.4a19 19 0 0 1 3.6 2.2l1.6 1.3h.1l-.6-.7c-.9-.9-1.8-1.7-3-2.3l-3-1.6c-.7-.6-1.5-1.3-1.6-2.3l.2-2.2c-.3.3-.4.7-.5 1.1m-7.1-52.2c1.7-1 3.4-.7 5 0l-1-.9c.4-.1.7.7 1.2.2l-.5-.3.2-.2c-1.6-1-3.5-1.4-3.8-.7h1.5c.5 0 1 .2 1.4.4v.1c-2-.2-2.5-.1-2.9.4l.9-.2h.9v.2c-1 0-2 .2-2.9 1M6.7 137.5l-.2-.3h-.2v.5l1 1.8 3 5 2.4 3.6.4.3-.1-.4-1.6-2.4-2.7-4-2-4M41.2 27.4l.6 1.3c-.6-.1-.6-.2-.6-.5l-.1-.6v-.2m-1.8 0c0 .2.2.4.4.5l1.6 1 .8.2v-.7l1.3.7v-.2l-.7-.4-1-.9-.5-.2c0-.1-.1-.3-.3-.3l-1.2-.3c-.4 0-.6.3-.4.6m15.6 20-.3-2.6-.1.3-.1 2.5L54 52c-.2 1.4-.2 2.8 0 4.2l.2-.5v-1.5l.7-6.8m.5-4.8v-.9l-.7-2.3c-.4-.9-.9-1.7-1.6-2.3l-.7-.8-.3-.2c0 .2.1.3 0 .4 0 .4 0 .5.4.6.8.3 1 1 1.4 1.7l-1.3-1.4c.5.9 1.1 1.6 1.5 2.5.4 1 .5 2 .8 2.9 0-1-.2-1.9-.3-2.8h.1a1441.8 1441.8 0 0 0 .7 2.6m.7 6.2c0-1-.3-1.9-.5-2.8l-.2-2-.2.2v2.3c.2.5.5 1 .6 1.6l.2 2.2c0 .9-.3 1.7-.3 2.6v4.6h.2V55l.2-3.6v-2.6m7.4 4.2-.3-2.4-.3-5c0-.8 0-1.8-.3-2.7l-1.1-2.6-.6-1.2h-.1c0 .4.2.7.3 1.1l1 2.4c.2.6.4 1.3.4 2 0 2.4.2 4.7.7 7l.3 1.4"/>
    <path fill="#000" d="m62.4 51.4.5 2.4c0-1-.3-2-.4-3l-.1-3.6c-.1-1-.1-2-.4-3-.1-.8-.5-1.5-.8-2.3l-.7-1.4h-.1v.2c.3.8.5 1.7 1 2.5s.7 1.7.7 2.7c0 1.8-.2 3.7.3 5.5m-9.1-10.6-1-2.6c.8 1 1 2.1 1.4 3.2.3-.5.4-.7-.6-2.7a5.2 5.2 0 0 0-3.4-2.7c.7.8 1.5 1.4 2 2.2.6.8 1 1.8 1.5 2.6M45.5 46l.3-1.1-.9 1.8c-.2.4 0 .8 0 1.2 0 1.9-.2 3.8-.1 5.7 0 2.3.3 4.7.4 7l.1.4h.1v-.3l-.2-2.4-.3-5.6.1-2.4c.1-1.5 0-3 .5-4.4"/>
    <path fill="#000" d="M61.6 45.8a13 13 0 0 0-1.2-3.8l-.6-1.2v.3l.8 2.2c.9 1.8 1 3.6.8 5.5l-.1 4 .2 1.3h.2v-.4l-.1-3v-1.9c.1-1 .2-2 0-3m-19.4-1.5.3.1v-1.9c-2 5-2.2 10-1.2 15.1a29.2 29.2 0 0 1 .9-13.3m7.1-33.8c.1.6.4.3.6.2h.3v.6c.2-.1.5-.2.4.2h.2a5 5 0 0 1 1.7-.9c.3 0 .6-.4.8-.6-.6-.1-1-.3-1.5.2l-.4.1-.4-.2.4-.2v-.2l-2.4.5.3.3M45 60.7l-.4-2.4c-.5-3-.6-5.9-.4-8.8l.3-1.3.2-2.1.2-1-.6 1.4c-.2.4-.4.8-.3 1 .2.5.1 1 0 1.4v3.4c-.2 1.7.1 3.3.3 4.9l.3 2.3.2 1.2h.2"/>
    <path fill="#000" d="m41.4 43.8-.4.8c-.5 1.2-.8 2.5-.9 3.9 0 .9 0 1.8-.2 2.7-.1 1.5 0 3 .2 4.4 0 .2.2.3.3.5a31.6 31.6 0 0 1 1-12.2m10.4 12.6.2-.3-.2-1.6c-.2-2-.1-4.2.3-6.2 0-.3 0-.5.2-.7.7-.7.5-1.6.6-2.4-.6 1.8-1.5 3.5-1.5 5.5 0 1.9 0 3.8.4 5.7m9.7 1.5v-.6c-.2-1.6-.5-3.2-.5-4.8V48l-.2-2.4-.3-.3.2 1.5V54c0 .6.3 1 .3 1.6l.3 2.2.2.2m-7.8-9.6c.6-1 .2-1.9.3-2.8a30.4 30.4 0 0 0-.3 12.6l-.4-5 .2-3.9c0-.3 0-.7.2-1"/>
    <path fill="#000" d="M39.8 56.5c-1-4.4-.8-8.6 1.2-12.7-1.9 1.7-2.7 10.4-1.2 12.7m7.4.8v-3.4c0-1.7.5-3.4.9-5 .2-1 .3-2 .7-2.9v-.4l-.4 1-.4 1v.9a28 28 0 0 0-1 3.9l-.1 4 .2 1 .1-.1m47.8 50-.5-1c-.3-.3-.9-.2-1 .3l-.2.6c-.2.3-.4.3-.7.2-.3-.2-.6-1-.5-1.2l.5-1.5.2-1.3h-.1l-.2.7-.6 1.5c-.5 1.3-.2 1.9 1 2.5.4-.2.6-.6.7-1 0-.2.3-.5.4-.5l.6.3.3.4M55.2 52.8l.3-3.7-.3-1.8h-.1v.3a14 14 0 0 1 0 4.1l-.4 3v2.5l.3 1 .1-.2v-2.8l.1-2.4M43 59.5l-.4-9.8c-.5.5 0 9.4.3 9.8M92 101c.4 0 .5.3.5.6v.8h.2v-1.2c0-.5-.6-.8-1-.6-.3 0-.4.3-.6.6-.2.2-.4.5-.8.3-.3-.1-.3-.4-.2-.8l.6-2.4v-1.2h-.2a7 7 0 0 1-.7 3.3l-.2.8c0 .3 0 .6.5.8.4.1.7 0 1-.3l.4-.5.6-.3m-1.7-37.2c-.7 0-1.2.5-1 1 .3-.7.4-.7 1.1-.5.5.1.7 0 .6-.6 0-.1 0-.3-.2-.4l-1-1.5c-.4-.6-.6-1.4 0-2l.6.1c.6 0 .7-.1.6-.6l-.5-1-.2.1.2.5.2.5-.6.1h-.4l-.3.2c-.4.9-.1 2.2.6 2.8l.6.6.1.6-.4.1M54.6 63l-.7-1.8c-.3-1-.7-2.1-.9-3.2l-.4-4.5v-.7c-.7 1.4.5 7.8 2 10.6v-.3M39.3 39.6l.1-.4 1-2-.5.5a8.5 8.5 0 0 0-1.3 3.8l-.1 1.6-.1 1.6a6331.2 6331.2 0 0 1 1-5m13.8-20.1c-3.3 1-6.5 2-9.8.1 1.5 1.7 8 1.6 9.8 0m-9.8 33.5.2-3.5.4-3.5a32 32 0 0 0-.6 10.4c.3-1.1 0-2.3 0-3.4m12.5 11.5-1.7-8.2H54l-.1.5a166.3 166.3 0 0 0 1.4 6.4l.5 1.3m-6.3-.1c.5 3 .5 6 0 9.1.8-.6.7-8 0-9.1m-2.9-6.9c0-3.1 0-6.2.6-9.3-1 .9-1 8.6-.6 9.3M88.2 97l-.3-.4v-1l.3-2v-.8H88v1.5l-.5 2.2c0 .3.1.6.3.8.2.2.5 0 .7-.1l.5-.6c.2-.4.5-.8 1-.5 0-.6-.4-.5-.8-.4l-.6 1c0 .2-.3.3-.4.3M56.4 58.8c-.4.8.4 7.6 1 8.3l-1-8.3m-4-6.2h.1l.1-.6c0-.9 0-1.7.2-2.5.1-.7.1-1.5.6-2.2.4-.6.2-1.5.3-2.3a19 19 0 0 0-1.3 7.6M48.6 66c0-.5-.2-.8-.3-1.2l-.6-3.6-.2-2-.2-1.7H47c.1 3 .8 6 1.5 8.9v-.5m-6.7-15.2V50l-.2-.3c-.1 3.2-.1 6.2.5 9.1a48 48 0 0 1-.3-8.1m14.9-5.2h.1l-.1-1.3h-.2l-.1.3-.2-.2c0 1.3.3 2.6.4 3.8v4-.2c.1-2.1.4-4.2-.2-6.3l.1-.5.2.4m22 12.5c-.7.7-1.2 1.5-1.9 2-1 .8-2.1 1.4-3.2 2.1l-.8.5.2.2c2.1-1.3 4.6-2.2 5.7-4.9M48.1 42c-.6-.3-1 .1-1.3.6-.2.2-.1.6-.1 1h.2V43c0-.2.2-.4.3-.5.3-.1.3.1.3.3l.3 1.1h.2c.2-.5-.3-1-.3-1.6.6.9.8 1.8 1 2.8.3-1.1-.5-2-.6-3.1m-3-3.2.2-1.3.2.6.1.5h.2v-.8l.3.8.2-.1-.2-1.1h.1l.6 1.2.2-.1-.6-1.4-.6-.2-.1.3-.2-.8c-.3.8-.7 1.5-.4 2.4M53.6 63l-.7-2.7-.6-2c0-.6-.2-1.1-.3-1.6h-.2c0 .4 0 .7.2 1l.4 1.8.9 3.6.2.2.1-.3m16.8 3c-.3.6-.8 1-1.2 1.5l-.5.6h.3l1.7-2L72 65l2-1.5-2 1.1c-.6.4-1 .8-1.5 1.5m-17.1 5.5c.4-.1.3-.3.3-.7-.5.4-.6 0-.6-.3l-.1-.8c-.3.5-.3.8-.2 1.3.1.5 0 1 0 1.6v1.6l-.2 1.4.2-.4v-.7l.3-1.6v-.7c0-.3.2-.7.3-.7M41.3 40.9l.3-.9.6.2-.2-.2c-.5 0-.5-.4-.4-.7l.6-2 .2-.7c-1 .6-1.5 2.8-1 4.3M86 52c0-1.2-.6-2.2-.4-3.3.2-1 .2-2.1.3-3.3l-.3.6-.2 2.8.1 1.6c0 .3.3.6.2.8-.2.4 0 .5.4.8M2.8 129.4l.2.5.4-.2-.5-1.5c-.1-.5-.2-1.1-.7-1.4-.3.5 0 1.3.6 1.5l-.3.3.3.8m86.9-53.8h-.2l-.4.7-.2-.6c-.4-.2-.7-.1-.9.3-.3 1.1 0 2 .8 2.9 0-.3-.3-.5-.3-.7-.2-.5-.3-1-.3-1.6 0-.5.4-.6.8-.2l.5.3.2-1M49 27.3c1.5-1 3.2-1.3 5-1.3-1.1-.6-4.5.2-5 1.3M25.2 62.8a36 36 0 0 0 1.2-2.4l-.2-.4s-.3 0-.3.2l-.5 1.3-.6 1.5.4-.2M64 30.1l-.3.5c1-.3 1.4-1.4 1-2.1-1.3-.3-2 .7-2 2l.2-.4.6-1c.2-.3.6-.4.9-.3.3 0 .2.5 0 .7l-.3.6m25.7 25.7h.5l.2-.6-.2-.2-.2.2c0 .4-.3.3-.6.3-.3-.1-.6 0-.6.4 0 1.2 1 1.5 1.3 2.3h.2l-.3-.6-.9-1.3v-.5h.6M63 40.1c.7.7 1.1 1.7 1.3 2.7l.2 1.3c.4-1-.4-3-.9-3.6l-1.1-1.6c0 .3.1.8.5 1.2m-3.7 1.2L59 41v.6l.5 1 1.1 2.7-.4-1.8-.8-2.2m1.1 4ZM51 29.4c1 .3 4-.5 4.2-1.5a8.6 8.6 0 0 1-4.1 1.5m-2.5 28.3.1.2.3-.3.2.9h.1l-.4-3.3-.4 1.7.1.8m33-5.1a10 10 0 0 1-3.4 3.7c1 0 3.1-2.3 3.4-3.7M49 50.4l1.6-4.6c-1 1.7-1.8 4-1.6 4.6m-.5-39.1h-.1l-1.9 1-.3.1c-.2-.3-.4 0-.5.1l-.4.9 3.3-2v-.1m-6.9 38.2.8-4c-.6.4-1.1 2.9-.8 4m13-38.8h.7c.5 0 .9-.3 1.4 0H58l.1-.1H58l-2.5-.4-.4-.2-.4.3v.4M40.8 42.6c-.8.7-2 3.4-1.7 3.8l1.7-3.8m15.6 10.2-.2 4.9.1.4.4-5.6h-.2v.3m-13 4.2h-.2l.9 4.6h.1c0-1.6-.5-3-.8-4.6m40.9 14.6c.2.2.4.4.7.2 0 0 .4.1.4.3v.7l-.8 1.4c.6-.4 1-1.3 1-1.8 0-.7 0-.8-.7-1h-.4l.2-.7c-.3.3-.5.6-.4.9"/>
    <path fill="#000" d="M86.5 46.2c-.7 1-.8 3.6-.2 4.6-.1-1.6-.3-3 .2-4.6m1.4 6.9-.9-1.5-.2.3-.2-.4-.1-.4h-.2c-.2.9.6 1.2 1 1.8.2.3.3.3.6.2M85 45.5c-.5 1.4-.7 3-.3 3.5l.4-3.5M44.7 21.8c.5.7 2.8 1 3.7.5-1.3 0-2.6.1-3.7-.5M54 59.2c0 1.1.7 4 1.1 4.3L54 59.2M45.3 64l.2 3c.4-.5.3-1.2 0-1.4.6-.6 0-1-.2-1.6m-2.9-14.5h.2l.6-3.5a7.6 7.6 0 0 0-.8 3.5m41.2 30.3-.5-1.2c-.5.6-.5.8 0 1l.2.4v.6h.2l.4-.8-.1-.1-.2.1m-36-69v.2c-.1.1 0 .2 0 .4l.2-.1.6-.2.3-.3H48l.3-.5c-.7 0-1.5.4-1.6.7l.8-.3v.1m1.6 29.3V40c-.5.2-1 .2-1.2.5-.4.5-.8.8-1.4 1l-.3.2a2 2 0 0 0 1.7-.8c.2-.3.5-.6 1-.5l.2-.2M43 27.3v-.2l-1.3-.7-1.2-.5-1 .3c1.4.1 2.5.2 3.5 1.1m12 2.1-3 1c1 .2 2.9-.5 3-1M1.6 132l.2 1v.6c0 .5 0 1 .3 1.3h.2l-.4-3h-.3M43.2 24l-.3.7h.4v1.2h.2l.4-2.1h-.2l-.5.7V24m4.3 24 .8-3-.3.2-.7 2.8h.2m10.2-37c-.5 0-1 .2-1.6.4-.4 0-.7.3-1 .4l.1.2.8-.3c.5-.3 1.2-.4 1.8-.4l.3-.1V11h-.4M84 44.9c-.6 1-1 2-.8 3.4L84 45M61.7 31.4l-.1-3.7c-.5 1.2-.2 2.4.1 3.7m-2.6 11.4h-.3l1 2.6c0-.9-.1-1.8-.7-2.6m-7.4 23.7-.5-3.1c-.2.4.2 2.9.5 3M5.2 134.5c0 1 0 1 .6 2.2l.2-.5a18 18 0 0 0-.5-1.3l-.3-.4m57.1-96.3c.4.3.4.8 1 .9l-.1-.4.7-.4-.1-.1h-1.5Zm-8.6 32.5v-2.4h-.2c-.3.8 0 1.6 0 2.6l.2-.2m2.9-48.5c-.5-1-1.3-1.5-1.9-1l1 .6-.2-.4 1 .8m29.5 62c-.2.5.1 1 .5 1.2-.3-1.2-.3-1.2 0-2.1-.3 0-.5.2-.6.9M48.1 36.3c0 .5.5.7.7 1l.7 1.2c0-1-.9-1.5-1.4-2.2m12.7 25h-.1a3136.5 3136.5 0 0 1 .1 0m34.8 21.8 2 1.7a4.5 4.5 0 0 0-2-1.8v.1m-55-57.5c0-1.1.4-2.2 1-3-.6.3-1.3 2.2-1 3M60 11.2c-.4-.3-.8-.1-1.3-.2-.3 0-.4 0-.3.5l1.6-.2v-.1m-7.1 53.4.3 2.6h.2l-.3-2.6h-.2M42 39.3h.1l.7-2.2a3 3 0 0 0-.8 2.2M45.3 63v-.2l-.3-1.5V61h-.2l.4 2.8c.4-.4.4-.4.1-.8M63 32.9c.6-1 .1-2.1.6-3.1-.8.8-.1 1.9-.6 2.7v.4m-19.5 7.2c.5.3 2.5.3 3 0h-3ZM52.2 22l1.5 2.8c-.3-1.2-.8-2.6-1.5-2.9m-9.7 3.8.6-2.5c-.5.3-.9 2-.6 2.5m-1.1-.2.7-2.7c-.7.8-.8 1.7-.7 2.7m41.2 21.3 1-2.8c-.6 1-1 1.8-1 2.8m-34 26.8.3-2.3h-.3c0 .7-.3 1.5-.2 2.3h.2Zm13.5-33.3h.2l-.6-2c-.3.8.1 1.4.4 2m-2.6-14.7 1.9 1.4-.8-1.2-1.1-.2M41 41.6a8 8 0 0 0-1.7 2.4l1.8-2.4m40.6 41.6c0 .2.3.4.5.6l.4-.3v-.1c-.8 0-.6-.5-.4-1-.5.3-.6.5-.5.8M44.2 66.8h-.1v3.1h.1zm4.2-13.6.3.2a2353.3 2353.3 0 0 0 .1-2.4l-.4 2.2M38.5 49c.2-.7.4-1.4.4-2.2h-.2l-.4 2.2h.2m4.3-10 .8-2.1c-.6.4-1 1.5-.8 2.2m3.8 22.4h-.1l.3 2.6h.2l-.4-2.6m42.6 18.6v-.8h-.3c.2.5 0 .7-.4.8l-.3-.3-.2.2.6.4.6-.3m-4.7-34.8h-.1c-.3.9-.6 1.8-.4 2.7l.5-2.7m-37-8.6 1.5 1.9c-.2-1-.8-1.5-1.5-2M88 83c0-.4-.3-.8-.6-1.2l-.2.1.5.8v.9c.4 0 .5-.3.4-.6M87 79.7c-.2.2-.2.8.2 1.1 0-.4 0-.9.5-1-.3-.3-.4-.3-.7 0M54.4 69v2c.4-.4.3-1.5 0-2m-8.3-26.3v2.1h.2c.2-.7 0-1.4-.2-2.1m-1.7 1.9.2-2h-.1c-.3.7-.4 1.6 0 2M84.4 76h.3v-.3l-.6-.3v-.5c-.5.6-.3 1 .3 1.2m-79.9 58c.3-.4.2-1.2-.4-1.5l.4 1.5M85 68.5l.5-.3h.5l-.6-.8-.4 1M46.7 11.8l.1-.4-1 .2-.3.8 1.1-.7m-2.5 25.5c-.5.3-.7 1-.5 1.7l.5-1.7m-1.6-19.5h-.2a1256.3 1256.3 0 0 1-.9 2.4l1-2.4m6.2 45.1-.6-2.4h-.1l.5 2.4h.2m5.2-40.6.8 1.6h.2c-.1-.7-.4-1.2-.9-1.7M43.8 63.2l-.3-1.5c-.3.4-.2 1.2.3 1.5m0-18.6.1-1.9h-.2a606.7 606.7 0 0 1 0 2m12.5-21.5.6.8h.1l-1.3-2.2v.4c.3.3.4.6.6 1m-16.4.2 1.2-1.6c-.5.1-1.3 1.2-1.2 1.6m17 43.3-.5-1.5h-.1c-.2.6.3 1 .4 1.6h.2m7.6-47.4L66 19l-1.6.3v.2M82.1 43l-.8 1.1.2.2.8-1.3H82M4 132c0-.4-.2-.9-.4-1.4-.2.5 0 1.1.5 1.5m49.6-90.5.2 1.6c.3-.6.2-1.4-.2-1.6M42 25l.6-1.9c-.3.6-.7 1.2-.5 1.9m9.1-1.3-.6-1.5h-.2l.6 1.6h.2ZM85 101.5h.2l.1-.7.5-.3-.6-.2-.1 1.2m-2.9-56.9-.4 1.3h.2l.5-1.4h-.3m-30.7-22h-.2l.6 1.8h.2l-.6-1.8Zm-11 6.8c.9.5 1 .6 1.7.4l-1.7-.4M54 9.7Zm-.5.9c.7 0 .4-.6.5-1l-.5.3v.7Zm-15.1 13 .5-1c-.4.3-.8.6-1 1.1l.6-.5-.1.4M58 11.4l-1 .4.5.1-.5.3c.7-.2.9-.3 1-.8m-3.9 56.2.2 1.4c.3-.3.2-1-.2-1.4m-6-44.6.7 1.3c0-.6-.2-1.2-.7-1.4M46.7 37l.7 1.3.2-.1-.7-1.3h-.2m-2.8-18.5 1.4.7.1-.2-1.4-.6-.1.1m-.8 24.5-.2 1.6h.1l.3-1.6h-.2M50.7 25l.1-.1c0-.5 0-1-.3-1.5h-.2l.4 1.5m31.7 25.6-.3-1h-.2v.4c0 .2 0 .6.5.6M39.8 23.7l-.2-.1-.4 1.4h.2l.4-1.3M45.2 43H45l-.1 1.3h.2V43M54 19.4l1.6-.5v-.1l-1.6.4v.2m-5.1 5.2c-.2.4 0 .9.3 1.3l-.2-1.4h-.1M84 78l.7-1-.1-.1-.8 1 .2.1M47.6 12.3l-1.2.9h.1l1.3-.7-.2-.2m-5.1 18h-1.8c.7.4 1.3.3 1.8 0m43.9 38.1-.4 1.2c.4-.1.5-.7.4-1.2m-38.8.4h.1l-.2-1.5h-.2l.3 1.5m-3.2-44.6c-.3.5-.6 1-.3 1.6l.3-1.6Zm21.3-2.3 1.4.4c-.6-.5-1-.7-1.4-.4m-21 41.8-.2-1.2h-.2l.3 1.3h.1m9.6 2.2-.4-1h-.1l.2 1h.3m-2.6-47.5-1.3.7 1.4-.5v-.2Zm-2.5 5.9.3 1.1c.1-.7 0-1-.3-1.1m6.6-.7-.6-1.1h-.1l.6 1.2h.1m-2 39.9h-.2v1h.3l-.1-1M40.6 40.5h-.2v1h.2v-1M82 46.2h-.2c0 .3 0 .6-.2 1 .4-.1.4-.1.4-1m-23.6-4.8h-.2l.6 1.3c.2-.5-.3-.9-.4-1.3M48.3 19.7l-1.4-.3v.2l1.4.2v-.1m10 42.3v1.2c.4-.4.4-.6 0-1.1m-4.6-39.3a817.8 817.8 0 0 1 .6 1.4l-.5-1.4h-.1m-52 107.8c0 .2-.2.6.1.8 0-.3.4-.6-.1-.8m45.7-86.5v.9h.1v-.9h-.1m17.7-22.8h1.1c-.4-.4-1-.3-1.1 0m-14.8-2-1.6.3c.6 0 1.2 0 1.6-.3M61.5 32l-.3 1.3h.1l.3-1.3h-.1m24.7 10.5-.8-.5-.1.2.8.4.1-.1M48.7 22.9l.3.9.2-.1-.3-.9h-.2M39 24.2h-.3l-.2 1h.2l.2-1m18-1.5c.2.4.4.8.7 1 0-.2-.3-.8-.7-1M38 23.8c-.5.3-.5.7-.6 1.1v.1l.5-1.2M35.7 129l1.1 2.1.6 1 1.2 2.5.9 2.2c0 .2.2.5.7.3-1.4-3-2.6-5.9-4.5-8.6v.5M81 97.6c-.4.5-.6 1-.7 1.4-.2.5 0 .7.5.6.2 0 .4 0 .5.2l.2.8c.1.5-.2 1-.5 1.3-.4.4-.9.8-.9 1.4 0 .2 0 .6.2.6l.8-.1v-.1l-.9-.2c.3-.5.4-.9.7-1.1.6-.5.9-1 .9-1.8l-.2-1c-.1-.8-.1-.8-1-.5l.2-.8.8-1.5c.2-.4.2-1-.1-1.3.1.8-.2 1.4-.6 2.1M64.6 87.1l.3 1 1.2 2.2.9 1.7h.1v-.8c-.4-1-.8-2-1.5-2.9 0-.4-.5-1.1-1-1.2Zm.6 24.2.5 1.5 1.6 3.8.4.6-2.3-6.3-.2.4m16.3-21.6c-.5.2-.9.8-.7 1.2 0 .2.2.4.4.5.7.2.7.3.5 1l-.7 1.1h.1l.7-.8c.4-.6.3-1.2-.3-1.6-.3-.3-.4-.7-.2-1l.2-.4M80.4 107c0 .3 0 .7.4.8l.4-.9c-.4 0-.4-.2-.3-.4l.6-.8c.4-.5.5-1 .5-1.7l-.2-.5-.1.1a2 2 0 0 1-.5 2l-.8 1.4M62 90.5c-.4.7.2 1.1.4 1.7 0 .4.2.7.4 1h.3l-1-2.8-.2.1m18.4 5.2c.4-.6.6-.6 1.2-.3 0-.3-.3-.4-.5-.4-.5 0-.6-.2-.4-.7l.3-.6c-.7.3-1 1.6-.6 2m-40.2 41.8.7 2.4.3.7h.2c.1-.5-.8-3-1.2-3m24.4-51.8-.2-.2-.2.2.1.5.4.8.4-.2-.5-1.1m3.8 33-.3-1.2h-.2l.4 1.2h.1m11.5 17.7c.7-.5.4-1.1.4-1.7l-.4 1.7"/>
  </g>
</svg>
