<svg xmlns="http://www.w3.org/2000/svg" xmlns:xlink="http://www.w3.org/1999/xlink" width="115" height="140">
  <defs>
    <path id="a" d="M0 0h4v10.2H0z"/>
    <path id="c" d="M0 0h17.7v25.3H0z"/>
    <path id="e" d="M0 0h9.1v2.9H0z"/>
    <path id="g" d="M0 0h3v1.3H0z"/>
    <path id="i" d="M0 0h1v2.1H0z"/>
  </defs>
  <g fill="none" fill-rule="evenodd">
    <g transform="translate(110.2 82.5)">
      <mask id="b" fill="#fff">
        <use xlink:href="#a"/>
      </mask>
      <path fill="#000" d="m2 6.1.4-.8H3v.2c-.5 0-.3.8-1 .6m.8.8-.4.1.3-.6h.1V7m-1 .3c-.3-.3-.6-.6-.7-.9 0-.3.3-.4.6-.3-.1.3-.2.6.3.7 0 0 0 .2.2.3l-.4.2M3.4 7c.1.2.3.4.2.5l-.2.4-.3-.4c0-.2.2-.3.3-.5m-.3-3.8c-.2.1-.5.3-.6.2-.2 0-.3-.4-.3-.6l.2-1.6-.3-.3-.4-.1-.4.1V.3L1.1 0 1 .3v.4c0 .3 0 .4-.3.5l-.3.2c.6.2.5.6.6 1 0 .5-.1.8-.7.8.1.2.3.5.4.4L1.8 3l-.6-.3v-1c.1-.3.5-.4.8-.3 0 .2-.3.5-.3.5.4.3.2.6.2 1l.1.8c.3.3.3.5 0 .7l-.6.2.4.5c0 .1.2.3.1.4l-.3.1H1V4.2H.8V5c0 .5.1.9-.6.7l-.2.1c.6.2.6.5.4 1l-.2.9c.4 0 .4.4.4.7v1.4c0 .2 0 .3.2.4l.2-.3V8.8l.1-1.5c.8.4.8.5.4 1V9l.3-.1v-.3c.2-.4.3-.5.6-.2l.5.2-1 1h.2l.7-.4c.2-.3.3-.3.6 0l.6.3V5.7l-.7.3.2-.5c.5-.5.5-.8 0-1.2v.5l-.1.2H3V4s.1-.2.3-.2l.6-.2v-.2l-.2-.6-.7.5" mask="url(#b)"/>
    </g>
    <path fill="#000" d="M113 9.7v-.2h-.8l-.2-.2.3-.3h.7l.3.3-.3.4m.1-1.2v.2h-.7v-.1c.1-.4.4-.3.7-.1m.8 1.9v-.9l-.1-.7-.4-.6-.4-.5-.6.2c-.2.1-.3.4-.5.4-.3.1-.4.3-.3.6l.2.5c0 .5.4.5.7.5h.7v.9l-.3.4-.3-.3v-.5l-.7-.1.3.3.2.4v2l.1.3.3-.3v-.8c0-.5 0-.5.5-.3.3 0 .6.4.9 0v-.1c-.1-.4-1-.7-.3-1.3m-97.5 64c.1-.1.3-.3.5-.3l.3.4c0 .7 0 1-.9 1h-.6v-.2l.2-.3.5-.6m-1.3.9-.3-.4.3-.6h.5l.1.2-.6.8m22.7-7.2.4 2a6 6 0 0 0 2.1 3.4c.7.6 1.6.6 2.4.8a26.7 26.7 0 0 0 9.3-.1c1.4-.3 2.7-.9 4-1.3 1.5-.5 2.8-1.1 4-2l1.7-1.3.8-.4 1.2-.4.7-.2.1.1-.7 1A59 59 0 0 0 62 72c-.8 1.3-1.5 2.6-3 3.2l-2.2.8c-1.2.5-2.4.3-3.7.4a24.8 24.8 0 0 1-8.4-.3c-.8-.2-1.7 0-2.6 0-.4 0-.7.2-1 .3 1.7-.1 3.3 0 5 .5l-.5.1c-.9.3-1.8.3-2.7.2h-2l-.7-.3a9.5 9.5 0 0 1-3-4.7c-.3-1-.5-1.8-.5-2.8 0-.5.2-1 .3-1.4l.5-.2.3.3M39 71h.4l2.4 1.3c1.1.6 2.3.9 3.6.8l5.6-.4c.8-.1 1.6-.5 2.4-.5 1-.1 1.8-.5 2.7-.7l3.5-1 .5-.1v.2l-1 .7-3.2 1.6-1.7.5a23.9 23.9 0 0 1-13.5 0c-.5-.2-.9-.8-1.2-1.2l-.5-.9V71m24.8-2.7 2.1-1.8c.4-.5.7-1 .9-1.6l.8-2.5.7-2 .3-.9c.5.5.4 1 .5 1.6v1.3c.1.7.1 1.3-.3 2s-.6 1.5-1.2 2c-1.1 1-2.2 1.7-3.5 2.2l-.7.2v-.1l.4-.4M69 56.6c0-1 0-2 .2-3l.6-3 .4-1.5v-.5l1-3.7.3-1.3.5-.2 6-.4c.4 0 1 0 1.6-.2l-.3.6-1.6 2c-.9 1.2-1.3 2.7-2 4-.2.7-.6 1.3-1 2-.3.6-.8 1.2-1 1.9 0 .7-.5 1.2-.8 1.8l-1.2 1.3a23 23 0 0 1-2.5 2.3l-.4.2.2-2.3m-6 17.2-1.2 1a15.8 15.8 0 0 1-5.4 2.5c-1.1.4-2.2.2-3.3.3h-.6c-.2 0-.3-.3-.4-.4l.4-.2 1.2-.1c2 0 4-.6 5.7-1.4.7-.3 1.2-.9 1.8-1.4.4-.3 1.3-.6 1.8-.3m-12.4 4.4c.5 1.2 1 2.4 1 3.7l-.1.3-.5-.5-1.6-2.2c-.1-.1 0-.3 0-.4l.8-1h.4M48 78c0-.8.3-1 1.2-.7l-1 .9-.2-.2m1.4-.5.6-.4.4.2-.7 1-2 1.5c-.4.3-.6 0-.9-.3l.3-.4c.9-.4 1.7-.9 2.3-1.6m-1.7.6c0 .3-.1.5-.5.6-.4 0-.4-.2-.4-.5l-.1-.6c0-.3 0-.6.3-.5.3 0 .8-.2.7.4v.6m2 7.6-.4-1a52.2 52.2 0 0 1-.3-2.3h.3c.4.6 1 .7 1.5 1l.3.2-.8 2.1c-.2.4-.5.3-.6 0m3-5.1a2 2 0 0 1-.5 1.7l-.7.6h.5v.3a8.8 8.8 0 0 1-1.7 4.4 4 4 0 0 1-1.3 1.3c-.5.5-1.2.4-1.9 0-1.4-.6-1.8-1.7-2-3.1l-.4-3.7v-1c.1-.3.4-.4.7-.5v2.6l.7 3.4c.2.7.6 1.4 1 2.1.9 0 1.4-.6 1.9-1 .7-.8 1.3-1.5 1.8-2.4.4-.5.5-1.2.7-1.8l-.2-.3c-1-.4-2-1-2.6-2l-.3-.1.1 1.4.4 2c.1.5.2 1 .6 1.5.3.3 0 .5-.2.7-.3.2-.3 0-.4-.2-.7-1.4-.9-2.9-1.2-4.3v-1.1a1 1 0 0 0-.4-.5c.2 2.3.3 4.6 1.5 6.5l-.8.9c-.3.4-.5.3-.8-.1-1-1.3-1-3-1.2-4.5v-2.9l.3-.6h.4c.4.4.8.5 1.3.2h.2l.2.5.1-.5.2-.4c.1 0 .3 0 .4.2l.8 1.2 1.2 1.4c.4.3.6 0 .7-.4 0-1-.1-2-.5-3l-.6-2h.8l.3.1.8 3.4m.5-1.7c.3 0 .8-.2.9.3l.2 1.1c0 1.1 0 2.2-.2 3.3a5 5 0 0 1-1.8 3.3l-.7.4v.2l1.2-.5c.8-.5 1.2-1.3 1.4-2.2.3-.9.6-1.8.6-2.8 0-.8.2-1.8-.4-2.6-.1-.2 0-.3.2-.4.7-.2 1 0 1 .6A31.6 31.6 0 0 1 55 85c-.2 1-.5 1.8-1 2.6-.2.2-.5.3-.8.3-.5 0-1-.1-1.5.2v.2l1-.1v.1c-.1.1-.2.3-.4.3l-1 .4H51l-.1-.2c-.7-.5-.6-.5-.1-1.1l1.1-2.3V85l.6-1.6.5-2.2-.1-1.7c0-.3-.2-.6.2-.6m2.8.4c0-.2.2-.4.3-.4l1.6-.5c.3-.1.5.1.5.4l.5 4.9c0 .5-.3 1-.8 1.1-.3.1-.4 0-.4-.3l.4-3.2-.2-1.3-.1 1.1c0 1.2-.2 2.3-.5 3.4l.1.6-2.5 2h-.2l.5-1.2c.2-.7.5-1.5.5-2.2l.3-4.4m3.3-1.5.3.2.2 1.1v1l.3 2.4a19.6 19.6 0 0 1 .1 5.5c0 .4-.4.6-.8.6-.1 0-.3-.2-.3-.4l.4-4.4-.2-1.6-.4-3.1-.1-.5-.2-.4.7-.4m1-.5 2.6-1.7.7-.5 1.5-.8 1-.8 1.8-1.8.5-.2c-.6 2-1.8 3.4-3.2 4.6-.6.3-.7.7-.9 1.3-.2 1.4-.6 2.8-1 4.3-.1.3-.5.5-.8.7L61 83c-.3.2-.4 0-.4-.3l-.3-4.2a1 1 0 0 0-.3-.7c-.2-.2-.1-.4.1-.5m7 2.2c.3.8.4 1.7.5 2.5v4.2c-.1.4-.4.5-.7.4a344.8 344.8 0 0 1-4.3-1.6l-1-.6-.6-.3-.3-.2s0-.2.2-.3l2.3-1c.2 0 .5-.3.5-.4l.9-4 .5-2c.5-.1.7.2.9.6.4.9.9 1.7 1.2 2.7m-21.8-.6-.8.5-1.5.6c.3-.7.8-1 1.5-1.3l.4-.1h.4v.4m.2-1.1.4-.4c.2 0 .3.3.5.4l-.2.7-.2.1-.5-.8m.1 1.4c.2 0 .4 0 .6-.2v.2c0 .2-.2.4-.4.6L44 81l-1.2.1c-.1 0-.3-.2-.2-.3 0-.2.2-.4.4-.4l2.7-1.2m-8.1-3.8V75a41.4 41.4 0 0 1 1.4 1.5c.5.5.9.8 1.5 1l3 .3.7.2.8-.2v.1c-.1.3-.4.6-.8.5-.3-.2-.4 0-.5.1L42.6 80c-.3.4-1.2.6-1.8.4l2.1-2c-1.5-.1-3-.5-4.4-1 .2.5.4.7.8.7l1.9.3v.2l-1 .1h-1.4a2 2 0 0 1-1.2-1.2l-.1-.5c-.2-.6-.2-.6.4-.6l-.3-1m22.8 16 .8 3.3.1.3c0 1 .5 1.8.9 2.6.2.4.2.9.2 1.4 0 .3-.3.2-.4 0l-3-3.4-2.3-2.8-.6-1 .1-.3a8 8 0 0 0 1.8-3.6l.2-2-.2-.3c0 1.3-.3 2.4-1 3.5l-.5 1c-.7 1.1-1.8 1.8-2.8 2.7-.5.4-1.1.6-1.7.9l-.3-.1a5.3 5.3 0 0 1-1.5-2.3v-.8l-1.9 2c-.9.7-1.8 1.5-2.9 2-1.4.8-2.8.5-4.1-.4-1-.6-1.8-1.6-2.4-2.6l-1.8-3c-.2-.5-.2-1.2-.3-1.8 0-.2.1-.4.3-.5l.5.2c.5.4.6 1 .9 1.6v.3h.2v-.7l-.1-.5-1.6-2.6-.4-1.4a4 4 0 0 1 0-1c0-.8.2-1.5.3-2.3v-1c0-.2.3-.5.4-.5.2 0 .5 0 .6.2.2.4.3.9.3 1.3.1.8.4 1.4.9 1.9 1 1.2 1.8 2.5 2.5 3.8.3.6.3 1.2.4 1.8l-.2.3c-.1 0-.3-.1-.3-.3l-.7-2c0-.3-.3-.5-.4-.8h-.2l.3 1c.3 2 1.3 3.5 2.7 4.7.7.5 1.5.6 2.3.5.9 0 1.7-.2 2.6-.3l.3.2c-.2.1-.3.3-.5.3l-2.5.5c-1.4.2-2.5-.6-3.5-1.6-.5-.5-.9-1.3-1.3-2-.8-1.2-1.1-2.6-1.4-4-.2-.8-.4-1.5-1.4-1.8l.4.9c.4.5.4 1 .6 1.6.3 1 .2 2 .9 2.8.5.6.7 1.5 1.2 2.1.7.8 1.4 1.6 2.4 2.1 1 .6 2 .5 3 .3l1.6-.4c.7-.3 1.2-.8 1.8-1.2V90H49l-2.6.1A4 4 0 0 1 43 89l-.3-.2c-.4-.4-.7-.7-.3-1.4.3-.6.2-1.3 0-2-.7-1.4-1.8-2.5-2.9-3.7-.6-.7-1-1.4-1-2.4 0-.3.2-.4.5-.3h1.4l.7.1.4.2-.2.3-1.3 1.2v.2l2-.3v.7c-.1.3 0 .4.3.3l2-.3v2c0 .8 0 1.6.3 2.5l.4 1.5a4 4 0 0 0 2 2.2c.7.4 1.4 0 2-.2l.4-.2c.2-.1.5-.5.7-.4.3.1.5.4.7.7l.7 1.2.6.2c.7-.2 1.4-.4 2-.8a10 10 0 0 0 3.3-3.4v-.3l-.3.2-2.5 2.5c-.5.4-1.2.7-1.8 1-.5.3-1 0-1.2-.4-.2-.3 0-.4.2-.5 1.5-.6 2.9-1.4 4.1-2.4l2-1.5c.2-.2.4-.2.6-.2l.3.2v.8l-.2 2.5c0 .7.1.8.8.6l.4.1.6 2.2m-1.1 6.1c-.7 1-1.4 2-2.4 2.6l-1 .6c-.4.3-.6.2-.7-.3l-.2-1.6c-.1-1.2-.1-2.3-.4-3.4-.1-.6-.6-1.1-1-1.7l.8-.7.8-.6c.5-.5.5-.5.8.1.5 1 1 1.9 1.7 2.7l1.5 1.7c.1.2.2.5.1.6m-3.5 5.7-2 1.5c-.6.5-1.5 0-1.9-.6-.6-1 .1-1.6.3-2.4l.3-1.4c0-.4-.1-.7-.7-.5v-1l-.5-3.2c0-.6.4-1.3 1-1.4h.2c.2 0 .6-.3.7-.2.3.3.5.6.6 1l.2 1.6v1.1c.1 1.3.5 2.6 1 3.8 0 .4.4.8.7 1 .3.3.3.5 0 .7M58.3 64c.4 0 .5.3.5.6 0 .4-.4 1-.7.9-.3-.2-.6-.4-.6-.7-.2-.5.2-.8.8-.8m10.9-20.6c-.3-.1-.6-.5-.7-.8-.1-.2.5-.6.8-.6.4 0 .7.3.6.6 0 .6-.3 1-.7.8M33 65.5c1.3 0 2.6.2 3.9-.2h.2c.5.3.6.7.2 1.1l-.1.5-.5 1-.6 1.7a3 3 0 0 0 .3 2c.2.4.1.9.3 1.2.4.7.6 1.3.5 2v.7l-.2.7c-.2.4.2 1-.4 1.2v.2l-.5 2.7-.1 2v1.1a5 5 0 0 1 .2 3.5c0 .5.4 1-.1 1.5v.1l.3.6.3.6 1.4 1.6 2 2.5c2 1.7 3.8 2 6 .8 1-.5 1.8-1.3 2.7-2l1-.9.7 1.8-.1.4c-.7.5-1 1.2-1.4 1.8l-.8 1.7-2.5 3.4v.3h.3c.5-.3 1-.7 1.3-1.1.6-.8 1-1.6 1.4-2.4l1.7-3.3.4-.2.2.4-.1.4c-.3.7-.7 1.3-.3 2.1.5 1.1.6 2.3.3 3.5-.2 1-.7 1.6-1.6 2-.8.3-1.5.3-2.1-.3l-.3-.2c0 .2 0 .4.2.5.5.6 1.9.9 2.7.5.6-.3 1-.9 1.3-1.5l.5-.8h.2l-.1.7-.6 1.3c-.2.3-.2.6 0 1 .1.6.5 1.1 1 1.5.5.2.8.6 1.3.2l1.7-.9c.7-.3 1-.8 1.5-1.3v-.4l-.7-.9c-.4-.4-.3-.6.2-.9l1.5-1a7 7 0 0 0 2-1.8c.3-.4.5-.3.7 0l2.2 2 .2-.2v-1.8l.3-.3c.2 0 .5.1.6.3.3.7.4 1.4.2 2.2-.1.7-.4 1.4-.4 2.2-.1 2 0 4 .3 5.9v1.2c.4.6.3 1.2.4 1.9l.4 1.8.5 2.2v.4l.9 2 1.2 3.7c.4 1 1 1.8 1.3 2.8.3 1.4.7 2.8.2 4.2l-.3.9v.6h.2c.3-.5.8-1 .9-1.6v-2.3c0-1.4-.6-2.6-1-3.9l-1.6-4-1-2.6c-.3-1-.4-2.1-.6-3.2-.4-1.4-.7-2.9-.8-4.4l-.1-.6v-3.2c0-1.6.2-3.2 1-4.7 0-.1 0-.4-.2-.5L64 98a4.1 4.1 0 0 1-1.5-2.2l-.8-3c-.1-.3-.3-.5-.3-.8a4 4 0 0 0-.9-2.6c-.2-.4-.2-.6.2-.8l.3-.4v-1l-.2-1.6V85h.6l1.3.5 2.2.9 1.7.8c.7.3 1.1.1 1.3-.5.3-.9.5-1.8.5-2.7 0-.6 0-1.2-.2-1.8l-.2-1.7c0-1-.5-2-.8-2.8-.2-.6-.7-1.2-1-1.8v-.4l1.5-1.8c.5-.7 1-1.4 1.2-2 .4-1 .9-1.7 1.8-2a5 5 0 0 0 1.2-.9c.6-.4.8-1 .7-1.7-.1.1-.3.3-.3.5a2 2 0 0 1-1 1.2l-.4.2-2.1 1.8-2.7 2c-.4.3-.7.8-1.2 1-.7.2-1.2.7-1.7 1.1a21.6 21.6 0 0 1-5.4 3c-1.5.6-3.2.7-4.8.5l-.4-.3V78h.5c.8-.1 1.7 0 2.5-.2a40 40 0 0 0 3.9-1.2 7.8 7.8 0 0 0 3.3-2.3c.6-.6 1.2-1.3 2-1.7 2.1-.8 3.8-2.2 5.5-3.7l1.1-1.3.8-1 .3-.2.9.4 1 .7.1-.1a3 3 0 0 0-1.5-1.2c-.2 0-.4 0-.3-.3-.7 0-1 .6-1.4 1-1.1 1.1-2.1 2.3-3.3 3.3a18.7 18.7 0 0 1-4.2 2.6l-2 .6.3-.6 1.6-2.4a7.3 7.3 0 0 1 3-3 6.7 6.7 0 0 0 2.6-2.4c.6-.8.5-1.8.4-2.7l-.3-1.8-.2-1.1V59c.8-.5 1.6-1 2.3-1.7.6-.5 1.2-1 1.7-1.7.9-1 1.3-2.4 2-3.6.5-1.2 1-2.4 1.7-3.6l1.6-3c.4-.7.6-1.6 1.4-2.2l.9-.5h1l1.5-.2h1.5l2-.1.5-.2V42h-6.8c-.5.1-1.1.2-1.7 0-.7-.1-1.4-.5-2-.7-1.8-.7-3.3-2-4.9-2.9-.6-.3-1.2-1-1.8-1.4l-1-.7-.1.2.4.3 1.7 1.4 1.4 1 .5.3c1.4.7 2.4 2 3.9 2.5l.2.3-.4.1H75l-3.7.3a5 5 0 0 0-.2-2.8l-.2.5v1.9c.1.3 0 .4-.3.5-.4 0-.5-.2-.4-.5 0-.4-.2-.5-.5-.6-.5-.4-1-.2-1.4.1-.6.4-.7 1.1-.3 1.6.6.6 1 .9 1.6.1l.8-.1.1.4c0 .6-.2 1.1-.3 1.6l-.4 2c-.3 1-.8 2.1-1 3.2-.3 1-.4 2-.5 3v2.6l-.5 2.7-1 3-.8 2.5c-.4 1.2-1.3 2-2 2.9-.5.6-1.2 1-1.9 1.4-.6.4-1.1 1-2 .9l-.7.2c-.8.3-1.7.7-2.6.9l-2.7.5c-.6 0-1.2.2-1.7.3l-2.1.5a49.4 49.4 0 0 1-5.4.3c-.8 0-1.7 0-2.4-.3-1.2-.4-2.5-.7-3.3-1.9l-.3-.1c-.4-.2-.5-.5-.6-.9l-.5-2.8c0-.7.2-1 .9-1h2l9.5-.3 6.1-.2.6.3c.6.9 1.5 1 2 0 .5-.6.5-1 0-1.3-.3-.4-1.2-.4-1.5-.1-.3.3-.6.6-1.1.6l-3 .1-8.2.2c-2.5 0-5 .1-7.4.4.3-.9.3-2.8-.2-3.2l-.1.9v1.7c0 .3-.3.6-.6.6H25.2l-8.6.2c-.3 0-.4.1-.4.4l-.1 2-.2 3.5c0 .6-.2 1.3.1 2v.7l-.9-.1c-.2 0-.5-.2-.5 0-.1 0-.2.3-.1.5 0 1.2 0 2.3-.5 3.4l-.4.7.2.1.5-.8.5-1.4.3-.3.2.2-.1 1.8v.3l.4-.1v-1.9c0-.1.2-.3.4-.3l1 .1c.3.8.2 1.2-.5 1.7l.4.3c.2.2.3.2.5 0 .4-.4.6-.7.5-1.3-.2-.7-.1-.7.6-1l.2-.1-.6-.2-.4-.2.1-.4.1-.1c0-.6.3-.5.7-.5l.4-.1-.3-.5H18l-1.1.1-.2-.6c-.2-.2-.4-.4-.4-.7l.3-4v-2.9h14.2l2.3-.1"/>
    <path fill="#000" d="M17.5 55.6h.5l1.2.1c.3-.2.3-.2.7.2.3-.5.4-.5.8 0l.7-.4s.3.2.3.4.2.6-.3.6l.3.6.4-.5V56c0-.4 0-.5.3-.5 1 0 1.3.4 1.2 1.4v.3l-.2 1h-1.7l-.2-.4c-.1.1-.2.4-.4.4-.3.1-.6.2-.9.1-.2 0-.4-.3-.6-.5-.2.5-.4.7-.8.5l-.2-.3c.2-1-.6-1.3-1.2-1.7l-.7-.6c.3-.3.5-.5.8-.2m13.4-.1-1.3 1c-.5.5-1 1-1.6 1.3-.5.2-1 .4-1.5.4h-2.6c0-.8.4-1.7-.2-2.6l7.2-.1m3.5-.1h4.1c.4 0 .6 0 .4.4l-.7 2c0 .2-.2.3-.3.3h-6.4l-3 .2H28l.2-.4 2.6-1.8c1-.8 2.3-.6 3.5-.7m-1.2-.9 2.2-1.2 1.8-1c.5-.3.7-.1.7.4v.6h.3v-.6c-.2-.5-.1-.6.4-.6h2.1l-.3.6-1 1.8a1 1 0 0 1-.6.4h-2.3l-3 .1h-.8l.5-.5m4.6 5.4-.1 1c0 .2-.1.4-.4.4h-.9l-3.6.2H32v-.2l3-1 2.4-.8h.5v.4m9-43 .5.2-.2.2-.5-.2.1-.3m17 25.2c.4 0 .8 0 .8.5 0 .4-.4.8-.9.8-.3 0-.5-.1-.5-.5 0-.5.3-.8.6-.8m-3 8.9c.3 0 .6.2.6.6 0 .4-.4.9-.8.9s-.7-.4-.7-.8c0-.5.3-.7.8-.7m-.6 3.4c.3 0 .7.4.6.8 0 .3-.6.7-1 .7s-.7-.3-.7-.7c0-.5.4-.8 1-.8m-.7 3c.3 0 .7.3.7.5 0 .6-.5 1-1.1 1-.4 0-.7-.4-.7-.7 0-.3.7-.9 1-.9m-.5 3.1c.3 0 .8.5.7.7-.3.3-.6.7-1 .7-.1 0-.5-.4-.6-.8 0-.2.5-.6 1-.6m-32.3 2.2c-.8.2-1.6.5-2.4.4-.8 0-1.7 0-2.4-.6V62l6.7-.2v.2l-1.9.4M4.2 54.8v-1.1c0-1.2.2-2.5 0-3.7-.2-.4 0-.9 0-1.4l.2-2.3v-4.8l.4-2.8V36c0-.2 0-.4-.2-.5-.1.1-.4.2-.4.4-.1.3 0 .6 0 .8-.2 1-.3 2.1-.3 3.1v7l-.2 2-.1 5v1.9h10.6l2 .1.3.2c.4.3.8.8 1.3 1 .6.3.3.7.3 1.1 0 .5-.4.2-.6.2h-.2c-.5.4-1 .1-1.6.1l-3 .2H3.9c-.4 0-.6 0-.6.5 0 1.6.1 3.1-.2 4.7v3.9l-.2 4.8.3.3.3-.3.3-4.7v-1.2l.1-2.2v-2.8l.2-2c0-.4 0-.5.5-.5l6-.1h5.1l2.6-.2h1.9c.6 0 1 0 1.4.3l.6-.3 3.7-.1h.5c-.4.7-2 1.5-2.8 1.4v.5h.4l2.6-1.4.4-.4h5.4l5-.2h.4a9 9 0 0 1-1.6.9l-3.3 1.2c-.8.3-1.6.7-2.4.8h-4.2l-5.1.1c-.7 0-1.1-.3-1.5-.7l-1.1-1.6v.4c.2.6.4 1.1 1 1.5l.2.4h-.4l-1.8.1-7.7.2c-.2 0-.3 0-.3.3v.3l-.2 4.1v1.7L9 72.4l.3.3.3-.3-.1-1 .2-3.1V67l.2-4c0-.4 0-.6.4-.6l1-.1h4.3l1.3-.2h2.6c.6 0 1.1 0 1.7.3.5.4 1.2.5 1.8.6 1 .1 1.8.3 2.7-.1.7-.3 1.4-.3 2-.5l2-.5h1.9l4-.2h6l4-.3h4.8l6.5-.2c.2 0 .4.2.5.3.6.7 1.3.8 2 .1A1 1 0 0 0 59 60c-.5-.2-1 0-1.3.4-.4.6-1 .5-1.6.5h-6.2c-2.6 0-5.1.2-7.6.3l-4.1.2c-.3 0-.4-.2-.3-.4l.3-1.4c.1-.8.3-1 1-1h6l6.6-.2 5-.1c.5 0 .9 0 1.2.4.4.6.7.6 1.4.4h.2c.5-.2 1-.9.9-1.3 0-.5-.7-1-1.2-1s-.9.3-1.3.6c-.2.2-.5.3-.8.3h-3c-2.6.2-5.3.3-8 .2L43 58h-4c-.4 0-.4 0-.3-.4l.7-2c0-.3.1-.4.5-.3h.3l9.3-.1 4.5-.1h3.6c1-.1 1-.1 1.3.7.1.2.3.5.5.5a2 2 0 0 0 1.6-.7c.2-.2.3-.7.3-1 0-.2-.4-.5-.7-.6-.2-.3-.5-.4-1-.1-.2.2-.6.3-1 .4h-1l-1.4.2h-3.7l-7.1.2-5 .2h-.6c0-.2 0-.4.2-.5l1-2c.1-.1.3-.3.5-.3h1.1l8.5-.2 7.6-.1c.4 0 .7 0 .8.5 0 .2.3.4.5.6.1.1.4.2.5.1a3 3 0 0 0 1.4-.9 1 1 0 0 0 0-1.1c0-.3-.3-.5-.5-.6-.6 0-1.2.2-1.7.6l-.5.2H53l-3.7.1h-5.7c-1.7 0-3.3.2-5 .3-.5 0-.6 0-.6-.6v-5.8c0-.4.1-.5.5-.6l7.9-.3 4.2-.1h1.2l4-.3a542 542 0 0 1 7.5-.2c.5.5.8.2 1.2 0l.6-.6c.1-.3.2-.7 0-1-.2-.4-.7-.7-1.3-.6-.5.1-.8.4-1 .9 0 .6-.5.7-1 .7h-.4l-6.6.1-3.4.2c-1.4 0-2.7.2-4 .3h-2.8c-1.3.2-2.7.2-4 .3l-2 .2c-.4 0-.7 0-.6-.5l.5-3.4c0-.3.3-.4.6-.4l3.1-.2 1-.1v.4l-1.5 2-.3.6h.2l.2-.1 1.7-2.4c.2-.3.4-.4.7-.4l2.7-.1 4-.3 5.2-.1.6-.1V39l-.5-.1h-6.6l-5 .2-.4-.2c0-.1 0-.3.2-.4l.7-1 .2-.8H45l-.3.6a62 62 0 0 1-1.2 1.8h-1l-3.5.2-.4-.1v-.3l1.4-3a10.4 10.4 0 0 1 4.7-5c1-.5 2-.9 2.6-1.8.4-.6 1-1 1.3-1.7.2-.3.4-.5.7-.5l1.5-.2c.3 0 .7.1.5.6v.4l.3-.7.8.1h.1l1 .2-.4 1.1h.2l.4-.8.4-.2c0 .1.1.3 0 .4l-.2 1-.1 1.5v1.2h.2l.1-.2v-1.7c0-.8.2-1.5.6-2 .1-.3.7-.4 1-.5 1.3-.3 2.3-1 3-2.2.1-.4.3-.7.8-.9l.4-.3v-.3h-.3c-.5.3-1 .7-1.3 1.3A5 5 0 0 1 54 27c-1.1-.1-2.2-.7-3.4-.5h-1.3c-.5.2-.9 0-1.2-.4L47 24.6l-.2-.5.7-1.6.3.4.7-.5.1-.6c.4-.1.5-.5.6-.8l.4.2c.2-.6.4-.6 1 0l.2-.7-.6-.1c-.2 0-.3 0-.5.2-.3.2-.7 0-.7-.3l.2-1.2.3-.9h-.2c-.5.8-1 1.6-.8 2.5.1.4 0 .5-.2.7l-.5.6.5-1-.2-.1c-.2.4-.9.5-.6 1.2 0 0 0 .2-.2.3l-.5.7-.2.3-.2-.4a75.6 75.6 0 0 1-.6-4.6c0-.5 0-.6.6-.4l.6.3V18l-1.2-.5a.9.9 0 0 1-.4-.4l.1-.3h.3c.6.6 1.4.7 2 .9h.5c0-.2-.2-.2-.2-.3l-.2-.4h.9c-.3-.4-.6-.5-1-.6h-1.4c-.4.1-.8-.1-.7-.4l.2-2.2.3-1.4c0-.3.3-.7.2-1-.2-1 .2-1.7.8-2.4.7-.7 1.5-1.4 2-2.3l.2-.1c.4.2.5-.2.6-.4.2-.4.5-.6.8-.3.6-.8.6-.8 1-.3.3-.5.8-.8 1.6-.5l-.4 1v.3s0 .1 0 0c.2 0 .2-.1.3-.2l.5-1.2.5-.2v.4l-.2.9h.1l.3-.4.5-1c0-.2.2-.2.4-.3V5l-.7 1-.1.5h.2L55 6l.7-1.2.2.1-.2 1 .1.5c.2 0 .5 0 .6-.2.2-.4.3-1 .6-1.4l.8-.5s.3 0 .3.2v.3c-.2.3-.5.6-.6 1l-.2.7h.1c.1 0 .2 0 .2-.2l.8-1.5c.1-.3.3-.4.6-.2l-.1.5-1 1.7.3.1.3-.3.8-1.4c.1-.3.4-.6.7-.4.4.3-.1.5-.2.7L59 7.1l.2.1.2-.3 1-1.5c.4-.6.4-.6.8-.2L62 5v.8l.4-.2.3.5c.4-.2.6.1.8.5v1c.3 0 .4-.1.5-.2l-.3-1-.2-.1a4 4 0 0 1-1.3-2.1c-.4-1-1-1.6-2-1.7h-.4l-1.8.2-.8.2V3l1.1-.1c1.3-.1 2.6-.4 3.5 1 0 .1.2.3.1.4l-.4.2-2.4-.4c-.7-.1-1.4-.4-2.1-.1h-1.5a176.6 176.6 0 0 0-4.5.8l-2 1.3c-1.1.7-1.5 1.9-2.3 2.8-.5.5-.6 1.4-.9 2.1l-.6 2.4V15c0 .7 0 1.3-.4 1.8v.4c.4.2.4.5.4.9v.4l.3 3.2.2 1.3.8 1.7a5 5 0 0 0 1.7 2.3l.2.4c-.8 1-1.7 2-2.9 2.5l-1.6.8-2 1.7-1.6 2.2-.7 1.3-.2.4-1.2 2.7c-.1.4-.4.4-.7.3h-.9l-4.7.2-6.4.1h-1l.2-4h-.2l-.2.5-.4 3.9c0 .3.2.4.5.3a620.5 620.5 0 0 1 13.7-.4v.3c-.1.4-.4.8-.4 1.2l-.2 2.2c0 .4-.2.5-.5.5l-4.8.1-4.6.3h-3.1l-6.2.1c-.7 0-.8-.1-.7-.7v-4.5l.2-3.2-.2-.3-.3.3-.1 2-.2 1v5.4c-.2.7 0 .9.6.8l2.7-.1 7.3-.2 9-.5c.9 0 .9 0 .8.8v.2l.1 5.7-.3.4H22.8c-1.3.1-2.6.4-3.9.3h-.6l-.3-.2.1-.5.5.2h.1c0-.7-.1-.8-.5-.7-.4 0-.6.6-.4 1.2h-7l-.5-.2v-1.1l.1-3.4v-2.8l.1-3.6.1-4-.1-.4-.2.4-.2 2.4-.2 3.4-.1 3.2v.6l-.3 5c0 1 0 1 1 1h8.7c.4 0 .5.1.6.5l.2.7h.2l-.2-.8c0-.2 0-.4.3-.4h1.4l3-.1h7.9l3-.2h.5l-.3.4-.3.1-3.1 1.8a3 3 0 0 1-1.2.4l-4.3.1-3 .2c-.2 0-.5 0-.5-.2-.4-.6-1-1-1.3-1.7l-.3-.4c0 .8.4 1.3.7 1.8l.3.4-.6.2c-.4 0-.6-.2-.7-.6v-.8l-.2-.4H21l.2 1.2-.1.5h-.5l-.2-.2c-.2 0-.4.3-.5.3-.2 0-.3-.3-.4-.4l-.6.3-.2-.5v-.4h-.2v.5c0 .4-.2.5-.5.5-.5 0-.9-.3-1.3 0-.2 0-.5-.3-.6-.5v-.6c-.4-.1-.6 0-.4.4 0 .4 0 .6-.5.5h-1l-6.8.2H4.7c-.3-.1-.5-.3-.5-.5M71.7 113l-.7.5c-.5.3-.8 0-.8-.5H70c.3-.3.4-.7.7-.8.3-.2.7-.2 1 .1.1.2.2.4 0 .6m-.9-10.1c-.3 0-.5-.2-.5-.7 0-.4.3-.7.9-.8.3 0 .5.3.6.7 0 .3-.6.8-1 .8m.2-3.5c-.4 0-.4-.2-.4-.4 0-.4.2-.7.6-.7.3 0 .6 0 .6.4s-.4.7-.8.7m37.6 12.4.5.4.1.7-.2.3v2l-.1 4.2v2.7c0 .3-.2.5.2.5.3 0 .5 0 .5-.4V111c0-.3 0-.4-.4-.4l-1.7.2-2 .1-3.9.2-4.6.3h-2.4c-.8.1-1.5.3-2.3.3l-5.9.1-4.3.1h-6.4c-.7 0-.7 0-.6-.7l.7-4.7.1-1.4.6-4v-2c0-.4.1-.6.5-.6l8.2-.3h1.7l.5-.3-.4-.1-3.2.1H82l-3.4-.1h-2.2l-3.2.1c-.4 0-.7-.1-1-.3-.4-.2-1.2-.2-1.6 0-.5.4-.8 1.2-.5 1.6.6.9 1.6.6 2.2-.2.2-.3.4-.4.7-.4a90.2 90.2 0 0 1 3.2.2l-.2 2.6-.4.3h-3a.6.6 0 0 1-.4-.2c-.3-.5-.9-.9-1.4-.8-.7 0-1 .3-1.1 1v.3c-.2.5 0 .8.4 1l.4.2c.5.4 1.2.1 1.5-.4 0-.2.3-.4.5-.4l2.4-.1c.8-.1.8-.1.8.6v.2l-.4 2.7c0 .6-.3 1.2-.3 1.9l-.4 3.9c0 .3-.1.4-.5.4h-1.3c-.4 0-.7-.2-1-.3-.3-.2-.7-.4-1.1-.1l-.8.4c-.3.3-.3 1.4 0 1.7.6.5 2 .1 2.2-.7 0-.3.3-.4.5-.4h2.1l-.1 1.5c-.3 1.3-.3 1.3-1.6 1.3-.3 0-.5-.2-.7-.3-.3-.3-.6-.5-1.1-.4a2 2 0 0 0-1 .8c-.3.4-.2.7.1 1 0 0 .2 0 .2.2.4.5 1.5.4 1.8-.2v-.4H72l-.7.4c-.3 0-.6.1-.7-.3-.1-.3-.3-.7.1-.9.3-.1.8-.5 1 0 .4.5.9.6 1.4.6h1.6l6.6-.2 9-.3 2.7-.1 2.9-.1 5.6-.4c.2 0 .4 0 .4.4v3.6l-.3 3.2.2.3c.2 0 .6 0 .6-.2l.2-1.3-.2-3v-3.1c0-.3-.1-.4-.4-.4l-2.5.1-5.2.4h-4l-8.6.4h-6.4c-.4.1-.5 0-.4-.4l.2-1.8c0-.3.1-.4.5-.4h4.3c2.5 0 5 0 7.5-.2l4.1-.1 8.7-.4c2 0 4-.3 6-.4h2.5M79.6 87.2l-.7.6-.1-.1a249.4 249.4 0 0 1 0-.5L77 88.7c-.4.3-.6.3-.8-.2v-.2c-.4-.4-.3-.5.2-.7l2.3-.8c.3 0 .6.2 1 .4M77.4 89l-.1-.1.8-.8.1.1-.8.8m-2-1.5c-.2 0-.4-.2-.4-.3l.4-1.3.1-.2c0-.5.4-.5.8-.5h2c.5-.1.6.2.7.5 0 .3 0 .6-.4.7l-3.3 1m-.5-2.7.9-.8.2.1c0 .3 0 .6-.2.7-.2.2-.6.3-1 0m-1 .2c-.5 0-.6 0-.5-.5.4-1.4.8-2.7.4-4.2l.9.1.2.3.6 2.5v.2c0 .5-1.1 1.6-1.7 1.6m-.4 1.8H73v-.9c0-.4.4-.6.8-.5 0 0 .2.2.1.3-.1.4-.4.7-.6 1m1.6-11 .2-.3 1.2-.1 1-.2.3 1.8.3 2.1c0 .6-.1.8-.7.8l-1.6.1-.3-.3a86 86 0 0 1-.4-3.9m3.4 7.4-.2.7v.5c.4.3.2.5 0 .5h-1.7s-.2-.1-.2-.3l-.1-1.2-.7-2.3c0-.3 0-.6.2-.7.4-.1.9 0 1 .3l.2.9.8 2 .2.2h.1l-.4-1.3-.6-1.8v-.3l1-.2.4 3M70 86c-.4 0-.6-.3-.6-.8 0-.3.3-.6.6-.5.3 0 .7.4.8.7.2.3-.3.6-.8.6m-.5-5c-.4 0-.8-.5-.7-1 0-.6.4-.5.7-.6.5 0 .7.2.7.8 0 .4-.3.8-.7.8m10.3 4 1 .1h2.8l2.4-.2 3.2-.2 4-.2h3c1.5 0 3-.2 4.5-.4l.3-.3-.2-2v-.3c.4-.7 0-1.3 0-1.9l-.3-.2-.2.2v2.6c.2.9 0 1.3-1 1.4l-3.8.1c-1.7 0-3.3.2-5 .3H87l-2.6.2H83l-3 .3c-.9 0-1 0-1.2-.8 0-.7 0-1.4-.2-2.1l-.2-1.1c0-.2.1-.4.3-.5h1.1l6.4-.4 5.2-.4 2.1-.2c.6 0 .6 0 .7-.6V74l-.5-.2-.2.3v4c0 .4-.2.5-.6.5h-1.3c-.8.2-1.5.3-2.3.1a2 2 0 0 0-.6 0l-2.8.3h-1.6l-3.2.2-2.2.2c-.4 0-.5 0-.6-.3a239.7 239.7 0 0 0-.6-3.4c-.3-.6-.2-.7.4-.8l9-.6c.7 0 .8-.1.8-.8v-4.1h-.3l-.2.5v3.3c0 .3-.2.6-.6.6l-6.2.5c-1.1.1-2.3 0-3.3.6 0-.6-.5-1.6-1-1.8l.7 1.2c.2.3 0 .4-.3.4-.5 0-1 .2-1.5 0-.5 0-.6.3-.6.6l.3 3v.6c0 .3 0 .6-.2.9H74l-.1-.6v-3c0-.3 0-.5-.2-.7h-.1v3.8c0 .5-.3.7-.7.6h-.3c-.6 0-.7 0-.7-.7 0-.8 0-1.6-.2-2.5l-.1-.6c-.2 0-.3.2-.3.3l.2 3c0 .2.3.5-.1.6-.3 0-.7.1-.9-.4a1 1 0 0 0-.3-.5c-.4-.3-1-.3-1.4 0-.4.3-.5.7-.4 1.2 0 .4.4.9.9 1 .3.1.9-.1 1-.5.2-.4.5-.4.8-.4H73c.4-.1.5 0 .5.3v1.6l-.2.3c-.1 0-.3 0-.3-.2a22 22 0 0 1-.5-1.2l-.2-.5h-.1l-.2.5.7 1.8c.3.4.4.8.2 1.4 0 .4-.3.5-.7.5-.3 0-.7.2-1-.3-.3-.4-.8-.6-1.2-.4-.7.2-1 .5-1 1.1l.4 1c.2.4.7.5 1.2.2l.6-.8.3-.2 1.2-.1-.2 2v.3h.4l.5-.7 1.3-1.7h.5v.4l-.7 1.4.2.8.5.1c0 .1.3.2.2.3l-.1 1V92c0 1 .3 1.9.5 2.8L76 97l.2.4c.2 0 .4-.2.4-.3v-.8c0-.9-.3-1.7-.3-2.5-.1-1.4-.2-2.9-.6-4.3V89c.3.2.4.4.5.7 0 .4.3.4.6.2l3.1-2.4.2-.3-.7-1.6c0-.3 0-.6.4-.5"/>
    <g transform="translate(26.2 114.5)">
      <mask id="d" fill="#fff">
        <use xlink:href="#c"/>
      </mask>
      <path fill="#000" d="M15.2 16.2c0 .2-.2.5-.4.6l-2 .8-2.3 1L6.8 20a4 4 0 0 1-2.4.3c-.7-.2-1.3-.6-2-.9v-.2c.4 0 .8.2 1.1.3l.5.1c1.6.1 3.2 0 4.7-.7l4.9-2.3 1-.5c.2 0 .5-.3.6 0m.5 3-.4.5-3.1 1.5a493 493 0 0 1-4 2c-1.2.4-2.4.7-3.7.6v.1l-1.7-.4a.5.5 0 0 1-.3-.3c-.3-.6 0-1.8.5-2.2.2-.2.6-.2.8-.2a4 4 0 0 0 2.8 0l5.8-2.5 2.4-1.1.4.1.5 1.9m-14 4a1 1 0 0 1-1-1.5l.6-1.3c.3-.6.5-.6 1-.3l.6.3C1.8 21 1.6 22 1.7 23M17.5 0l-.3 1-.4 1.5-1.6 4.4-1 3.3c-.3 1.5 0 3 .2 4.5.2.5.1.8-.4 1.1l-1.4.8-1.3.6-1.4.9-2.2.7c-1.2.4-2.5.4-3.8.3l-.3-.1.1-.2 2.6-1.9L8 15.3c.7-.8 1-2 1.2-3l.2-1-.1-2L9 7V5c-.3-1.1-.3-2.3-.4-3.5 0-.1 0-.3-.2-.5h-.1l-.2.6V3c.2 1.3 0 2.6.4 3.8v4.7c0 .5 0 .9-.2 1.3l-.1.8a5 5 0 0 1-1.9 2.6 8.5 8.5 0 0 1-4.2 2.4c-.4 0-.9.5-1.1.9a2 2 0 0 0-.7 1.3c-.4 1.3-.6 2 .9 2.6l1.4.5v.2c-.3.7 0 1.1.7 1.1h3.8c1.6-.2 2.9-1.2 4.3-1.9l3.4-1.7.8-.4v-.1h-.3c-.9.2-1.8.4-2.6.8-1.3.7-2.5 1.5-3.8 2.1-.6.4-1.4.6-2 .7H3.2l-.3-.6.5-.1h2.7c.8 0 1.5-.3 2.1-.6l5.6-2.8 2-.8c.4-.2.5 0 .4.3l-.2.8c.8 0 .9 0 .8-.8 0-.3-.3-.5-.3-.8l-.6-2-.7-1.9-.3-.7-.2-2.4c-.1-1-.1-1.9.2-2.8l.2-.7.6-2.4c1-1.9 1.2-4 2-6l-.1-.5h-.2" mask="url(#d)"/>
    </g>
    <path fill="#000" d="M71.5 135.2h-7.9l-8.2-.1-3-.1c-.4 0-.5-.2-.5-.7l.1-1c0-.5.1-1 .6-1.3l.6-.7.4-.3.1.5v1l.3.1.2-.8-.1-1c0-.3 0-.4.3-.4h.9l.3-.2-.3-.2h-.6l-.6.1c0-.4 0-.7.4-.7H56c0-.2-.1-.3-.2-.3h-1.3l.2-.4 1.5-.1.1.3-.1 2.6v1.6l.2.2h2.3l5.4.1h4.1c.5 0 1 .4 1.4.6l1.7.8.3.2v.2m2.7.4c.7.3 1.1.2 1.7-.3.3-.3.2-.8-.1-1v.5c-.4.3-.7.7-1.2.5-.2 0-.5-.3-.5-.4 0-.3.1-.6.3-.7.3-.2.6-.2 1-.3h-.1c-.6-.4-1.4 0-1.5.7l-.2.4c-.5 0-1 0-1.5-.2-.3 0-.5-.3-.8-.4l-1.5-.7-.2-.4h1.9l.6.3.8.4c.2.1.6.1.6-.2l-1.1-.5c-.6-.5.2-.7.2-1.2l-.5.5-.4.3h-2.4a.9.9 0 0 1-.6-.5c-.2-.5-.5-1-.1-1.4l-.1-.4-.7.3c-2 0-3.8-.2-5.7-.3-.4 0-.5-.2-.5-.5v-3l-.2-.3-.4.4v3.6c0 .4.1.5.5.5h6.8l-.2.6v.5c0 .5-.2.7-.8.6h-1c-3.1.2-6.2 0-9.2-.3l-.4-.3v-5.8l-.2-.3-.3.3c-.2.2-.2.4 0 .6.2.7 0 .9-.7.9h-.3c-.3.1-.6.2-.5-.4l-.2-.2-.2.1-.2 1v.5h-.5v-.5c.2-.6 0-1-.5-1.1l-.3.9.4.3-.3.4-.4.3.5.1h.2c.2 0 .4 0 .4.3 0 .2-.3.3-.4.4-.1.1-.3 0-.4 0v.1l.5.3-1.2 1.4H52v-.8l.2-3.7-.3-.4-.5.4v3.4l-.1 2v2c0 .5.1.6.6.6h19.5c.6 0 1.2 0 1.7.4h.1v-.6c.4.1.7.1 1 .3m-9.4-110 .4.2 4.9.5c.6 0 1.3.1 1.9.3.4 0 .8.4 1.2.6.4.2.8.4 1.2.8l3.2 3.2 1.6 2 1.1 1 .3.3-.4.2h-.7l-3.4.1-6.7.5c-.4 0-.8.2-1.1.3-.5.2-1 .3-1.5-.1-.2-.2-.1-.7-.2-1h-.2c-.3.5 0 1.5.7 1.5l2.9-.2 4-.3 6-.3c.6 0 1.3 0 1.8.5l1.4 1.7 1 1 .6.4.7.6c.6.4 1 .8 1.3 1.5l.6 1.1h.2l-.3-1.2-1.5-2-2.6-2.4-1.4-1.4H85l4.1-.2 6.5-.5.4-4.4h-.3l-.1.5v1l-.2 2.2c0 .3-.2.3-.4.3h-8.4c-.9.2-1.8 0-2.7 0-.6 0-1.2 0-1.7.4-.3.3-.5.1-.7-.2-.4-.4-.7-.9-1.2-1.1l-.6-.6-.6-.5-2.4-2.7-2.1-2a2 2 0 0 0-1-.6c-.6-.2-1.2-.5-2-.5l-2.9-.3-3.4-.4-.5.2M95 118h.4v5.4l.2.4.3-.3v-5.1c0-.5-.3-.7-.8-.7l-2.4.1c-1.6.1-3.1.3-4.7.3-1.4 0-2.7.3-4 .2h-9.5v-1.9h-.1l-.1.7v.7c0 .4-.2.5-.6.5h-3.3c-.7.1-1 .9-.7 1.4l.8.4c.7.3 1.5-.1 1.6-1l-.4.3-.6.3c-.2 0-.5 0-.8-.2v-.5l.6-.2 2.7-.1c.5 0 .6.1.6.7l-.2 3-.2 3.3c0 .7.2 1.3.3 2a46.2 46.2 0 0 0 1.2 3l1.1 2.5h.3l-.2-.4-.3-.4-1-3a8.7 8.7 0 0 1-.7-4.8c.2-.8.2-1.6.2-2.4a26.2 26.2 0 0 0 0-3c-.1-.4 0-.5.4-.5a100.2 100.2 0 0 0 8.4-.1 555.3 555.3 0 0 0 10.7-.4l.9-.2m16.5-25.2v6.1c0 .7 0 .8-.8.9l-1 .2-11.1.8-5.3.2-5.5.2-5 .3-5.6.2-.7.2v.2H78l5.1-.2 2.7-.2h2.6l4.1-.3c3 0 6-.2 9-.4 1.9 0 3.8-.2 5.6-.3l4-.3c1-.1 1 0 1.1-1.2V93l-.2-.4-.4.3M110 127l.2.2-.4.4-.4-.4.5-.2m-.4-.7h.6v.3h-.6v-.3m.8-1.5-.7.2-.8.3.3.6v.7l-.3.3-.2-.3v-.3c-.1-.2-.7 0-.4-.5v-.9l.1-.3c.5 0 1-.2 1.6-.1.6 0 .9-.2.7-.8 0-.2-.2-.3-.4-.4l-.4.4-.2.3-1.3.3c0-.4 0-.7.2-1 .5-.4 1.5.1 2.1-.5 0 0-.2-.2-.3-.1a5 5 0 0 1-2 .2c-.6 0-.7.1-.6.8v.6l-.8-.7h-.3v.2l.7 1 .4-.4c-.2 1.4-.1 2.6-.4 3.8h-.2V127h-.2l-.3.7c-.4.6-.2.9.5 1l-.5.4-.1.5.5-.1.7-1.6.4-1h.1v1.9l.2.3.2-.3v-.6l.3-.3.2.3v1.1l.4-.2v-.9l.1-.4.6.1-.2.5-.1.1c0 .2.2.3.3.4.2.3.4.1.4 0v-1.3l.1-1.3c0-.3 0-.5-.4-.5h-.8l.2-.4.8-.1.4-.2-.1-.3h-.5m-.7-103.4c1.2-.3 1.5-1.4 2-2.4l.4.7c0 .8.4 1.5.8 2.2h.3l.4-.2.4-.3-.4-.3-1-.9v-.6h.6l.6.2c.3 0 .4-.2.3-.6-.1-.6-.7-.8-1.2-.5h-.7l-.2-.4v-1l.8.2c.7.3.7.3 1.1-.3.3-.4.2-.6-.3-.6h-1.7c-.2 0-.5 0-.7-.2-.3-.2-.3-.4 0-.5l2.5-1.2c.3-.1.3-.3 0-.5-.4-.6-.6-.6-1.2-.1v.5l-1.4 1-.4-.1c-.2-.3-.3-.2-.5 0l-.3.2-.3.4.5.1.6.2c.6.5.6 1.1.6 1.8 0 .4 0 .5-.5.5h-1.1c0 .5.5.4.8.4.5 0 .7.2.4.6l-1.1 1.3-.6.2v.1h.5M60 112v.5c-.1.3-.4.2-.8 0l.8-.4m-1.7-1c0 .1-.3 0-.3-.2 0-.3.1-.4.4-.4l.6.2-.7.5m0 1.2-.5-.2c0-.6.3-.7.6-.7.2 0 .4.3.4.5 0 .4-.3.4-.6.4m1.3.6.6.1v.8c.4.3.4.4.1.6l-.2.4.4.2.2-.5-.1-1.8c0-.3 0-.6.2-1v-.4l-.4.1c-.3 0-.5.2-.8.1l-.3-.4.5-.2 1-.2v-.1l-.6-.3c.3-.6.6-.7 1-.3l.4.3c.3.3.7.2 1-.3l-1-.3c-.3 0-.5-.2-.4-.6 0 0 0-.3-.2-.4l-.4-.1c-.3-.2-.4-.1-.5.2 0 .5-.3 1-.5 1.4l-.2.2-.1-.3-.2-.5h-.6c-.3.2-.5.2-.7 0H57c.6 1.6.3 3.2.3 4.9l.4-.6v-.8c0-.4.4-.4.7-.4.4 0 .2.3.2.4 0 .5 0 .9-.5 1v.5h.3l.7-.8v1.2h.2c.3-.6.2-1.3.1-2.1m37.2 20.5h-1s-.2 0-.3-.2c0-.3.2-.5.5-.4.4 0 .9-.4 1.2.1l-.4.5m-1.8-1.3-.3-.6h1.1c.2-.1.5-.3.6 0 .1.5 0 .8-.3 1h-.4c-.4.2-.7.1-.7-.4m0 1.3-.4.2h-.2l-.5-.2c-.1-.2 0-.5.3-.5h.3c.1 0 .4-.1.4 0v.5m2.7-1.3-.6.2-.3-.3.2-.7h.9c-.3-.6-.4-.6-1-.3H96v-.3c0-.2 0-.3-.2-.4h-.3v.4c0 .3 0 .5-.4.5l-1.2.1-.4.3h.5l.3.1.1.7-.3.2-.7.1-.7 1.4 2.2-.3-.4 1-1.8 2-.1.5h.5c.6-.6 1.2-1.2 1.6-1.9.4-.6.9-.5 1.5-.6 0 .3 0 .7-.2.9l-1.2.7c.3.8.3.8 1 .4.7-.3.8-.8.8-1.4 0-.2.2-.3.3-.5l.1-.3-.3-.2-.8.2h-.4v-.8h.3l2-.1v-.2l-.4-.4v-.1h.4c.4.1.5-.1.5-.4 0-.4-.4-.6-.8-.5M16.2 82.6l-.2-.2.2-.4h1.5c-.4.7-1 .7-1.5.6m.2 1.6c.1 0 .3.2.2.3 0 .1-.1.4-.3.5H15c-.2 0-.3-.2-.4-.3l.3-.3 1.5-.2m1.6-2.1.5-.4-.2-.1c-.7-.2-1.3-.6-1.5-1.3 0-.2-.1-.3-.3-.3a4 4 0 0 0-.8-.3c-.2 0-.4 0-.5.2L14 81.7l-.5.6h.4l2-1.9.4-.2.3.4.3.6.2.3-2 .4.4.5-.6.3h-.7l-.5.1v.2l.5.2.7-.1c.4 0 .6.1.5.5-.2.4-.5.4-.9.3-.3-.1-.5 0-.5.3l-.1 1c0 .3 0 .8.2.9.3.1.7 0 .8-.4l.2-.2 1.7.1c.5.2.8 0 .7-.5 0-.4 0-.8-.2-1.2l-.4-.2-.4.2c-.3 0-.6 0-.6-.2-.1-.3 0-.6.3-.6l.9-.1h1.4v-.2l-.4-.3-.2-.2.2-.2M68 136.8l-9 .2-5.7-.2-5-.2h-.8l-.3.3.1.3h3.1l9.7.2h11c.6 0 1-.2 1.5-.3l.2-.2H68M23.3 25.4l.3.6-.3.4-.4-.6.4-.4m.7 1.7c-.3.2-.4.4-.6.3l-.3-.3c0-.2.2-.4.3-.5l.6.5m-1 1c0-.3.2-.4.4-.4s.3.4.3.5l-.3.6v.3l.2.1c.3 0 .6-.6.6-.8l-.2-2.5.2-.1c.1 0 .3.2.3.4v2.1l.1.4h.2c0-.4.3-.4.7-.4l.8-.2v-.2l-1 .1-.4-.1.1-.3.6-.6c.2-.3.4-.4.6 0l.4.1v-.4c-.5-.1-.5-.5-.4-1 0-.3 0-.5.4-.4.4 0 .4.3.4.5v1.3c.2.6-.3 1-.4 1.5l-.7.1-.2.2c.5.5.7.5 1 .3.5-.3 1-2 .8-2.6-.1-.5-.3-1 .3-1.4-.6-.6-.7-.6-1.3-.3l-.9.1-.4-.1.3-.4.2-.4h-.6l-.7 1.2h1l.4.2c.2.4-.3 1.3-.9 1.5v-1l-1-1.1c0-.2-.3-.3-.4-.2l-1 .5a6 6 0 0 1-.4 4.3c.6-.2.9-.6 1-1.4m-11.2-2c-.3.5-1.3.6-1.8.1l1.8-.1m-1.5-.8c.3-.5.7-.7 1.2-.4l-.2.4.9.1v.2l-1.5.4c-.5 0-.6-.3-.4-.7m1.2 2h-1.2l-.1-.2.2-.2 1.4-.1v.1c0 .1-.1.4-.3.4m-2.5 1.2-.4.2c.1.1.3.3.5.3l1.9-.5-.4-.1-.4-.3.2-.4c.2 0 .4 0 .6.2l1.2 1c.6.3 1.1 0 1.4-.6-1 .1-1.7 0-2.5-.7 1.2 0 1.3-.6 1.2-1.4 0-.3.3-.5.5-.3.4.4.7.1 1 0 .2-.2.2-.5-.1-.6l-.6-.2c-.5-.2-1.2-.3-1.3-.7-.3-.5-.6-.4-1-.5l-.4.5-.2.2-1.5 1.9.6-.1.3-.1v1.4c0 .7.1.7-.6.8M11 75.4c0 .8-.3 1-.8 1 0-1 0-1 .8-1m-2.8 1c-.3 0-.4-.2-.4-.5s0-.6.4-.6c.2 0 .3.4.6.6-.3.2-.4.4-.6.4m-.4-1.7c0-.4.2-.6.4-.6s.4.3.4.4l-.3.6-.5-.4m2.3.4c.1-.4 0-.5-.3-.5-.4 0-.3.3-.2.5 0 .6.2 1.1.3 1.7l.7.2-1.4 1H9l-.3-.2a24.5 24.5 0 0 1 .5-4c0-.3-.1-.4-.4-.3l-1.4.2v2.7c0 .6-.2 1.2-.6 1.8v.3l.4-.1.6-1.3c.1-.2.4-.3.6-.4v.5l-.2.6c-.1.1-.2.3-.1.4l.2.3 1.4-.5c.4-.2.7-.3 1.2 0 .5.4.8.3 1.1-.4h-1.3l.2-.4c.2-.2.5-.4.5-.7l.4-2h-1.2l.1.3.3.3-.7.2-.2-.2"/>
    <path fill="#000" d="M106.7 97.5c.2 0 .4 0 .4-.3v-4.5c-.2 0-.2.2-.2.3l-.3 3.1c0 .8-.2 1-1 1h-1.5l-4 .2-12 .5-.5.1v.2l.6.1 5-.2 6.8-.2 6.7-.3m-3.1 32.5h-.9l-.5.2-.3-.3c.1-.3 1-.8 1.3-.8.2 0 .7.6.6.8l-.2.1m.6-1.6c-.3 0-.5.3-.8.4l-2 .2c0-.4.1-.6 0-.8 0-.8.5-1.4 1.3-1.5l.6-.2v-.2h-.7c.3-.2.4-.7.8-.4l.9.9.3.2.4-.5-.3-.2-1.2-.6-.4-.5h.7l.8-.2.2-.1-.1-.3c-.3-.2-.5-.3-.8 0-.2.1-.5.3-.8.3l-2.6.2-.4.1c0 .2.2.3.3.3l1.6-.2h.5v.5l-.6.7c0 .1-.3.1-.4 0-.3-.3-.5 0-.7.2 0 .1.3.2.3.4v1.5c-.1.4 0 .6.3.6l.5.1-.6.8-.2.4.5.2c.6 0 1-.2 1.6-.3h.7c.2-.1.4-.3.4-.5s-.2-.3-.3-.5l-.2-.2v-.1l.7-.1.5-.2-.2-.3a1 1 0 0 0-.6 0M1.3 75.5l.3.3-.3.6-.4-.4c0-.2.2-.3.4-.5m.1-1 .4.3-.5.5-.3-.5c0-.1.2-.3.4-.3m2.7 1.2c-.2.4-.6.5-1.1.1.4-.3.7-.1 1.1-.1m-.6-1 .6.4-.5.3c-.2 0-.5.3-.6-.2l.5-.4m-2 1.8c.6 0 .6-.3.6-.7v-.5l.1-.5.4.5c0 .4-.3.8 0 1.2l-.2.3c-.5 0-.7.7-1.3.6v.1c.6.8 1 .9 1.8.4.5-.4.9-.5 1.4 0 .3.2.6 0 .7-.4l-1.5-.3c-.4.1-.9.5-1.3.7-.3-.4-.2-.5 1.2-1 0-.2-.2-.3-.4-.4.2 0 .4-.2.5-.3h.8c.4 0 .5-.2.5-.6V75c.2-.3 0-.4-.3-.4l-1 .1c-.3 0-.6 0-.8-.2-.3-.2-.5-.5-.8-.5H.7l-.2.4v2.3h1M107 79.5c.4-.3 1.2-.4 1.6-.2-.3.3-1 .4-1.5.2m1 .8h-1V80a2 2 0 0 1 1-.3c.2 0 .2.2.3.3l-.3.2m-1.3-1.4v-.3c.3-.3 1.4-.5 1.6-.3l.1.4c0 .2-.2.3-.4.4v-.2l-1 .1h-.3m1.4-1.5.2.3-.7.3c0-.4.2-.6.5-.6m1.4.6c.2-.4-.4-.4-.6-.6-.4 0-.5-.2-.6-.6l-.2-.2c-.2 0-.3.1-.3.2l-.7 1.1-.3-.3h-.4l-.8.4h-.1v3.6l.1.2c.2-.1.4-.2.4-.4L106 80l-.1-1.4.4-.4.2.5v.7c0 .4 0 .8.2 1 .2.2.6.1 1 .2-.2.3-.3.7-.8.7l-.4.2c.2.1.3.3.5.2l1.5-.3v-.2h-.7V81c.3-.2.4-.7 1-.6.2 0 .5 0 .7-.2l.1-.3-.3-.1-.5.1-.1-.2.9-1c-.2 0-.4 0-.6-.2l-.2-.4c.3-.1.7.4.8 0M36.7 91.5c.2-.5 0-1.3-.5-1.6v.1l-.6 2.6c0 .5 0 1-.3 1.4-.6 1-.8 2-1 3-.3.7-.4 1.5-.6 2.2-.3.9-.5 1.7-.2 2.6-.2.7-.1 1.3 0 2v3.8l.3.7.2-1.1-.3-3.6c-.1-.7 0-1.4.1-2.2l.2-.9c.2-1.4.7-2.6 1-4 0-.4.7-.8.2-1.3l.4-.6 1-3M9 36.6l1.4-.7.2-.1c.3-.5.6-.5 1-.2l1.2 1h.5V36l-.7-.3c-.2 0-.4-.2-.3-.4.5-.7.1-1.4.2-2.2.4-.2 1-.3.5-1l.6-.3c-.4-.5-.5-.5-.9-.1l-.4.1c-.8.1-1.6-.2-2.3 0-.1.1-.3 0-.4 0v-.2l2-.2v-.1c-.3-.1-.6-.9-1-.1h-.3c-.6 0-1 .2-1.5.7l.5.2 2.4-.1h.5c.2 0 .3.3.3.5 0 .1 0 .3-.2.3s-.4 0-.4-.3l-.1-.1h-.2l-.3.6.7.2v.2h-1v.2h.6l.3.2c-.3.3 0 .6 0 1l-.3.3h-1.4V35l.6-.3c-.6-.1-.8-.6-.4-1.1-.4 0-.7 0-.7.4 0 .6-.4 1.2.1 1.9l-1.2.5v.1H9M89.2 42c-.5 0-1-.3-1.5.4h1.9l5.9-.3h10.9l-.2-.6h-6.7l-1.2.2c-.4 0-.6-.2-1-.1l-3.3.2-4.8.1M3.9 83.4h1l.2-.4c-.1-.2-.8-.3-1 0l-.8.2v-.1c-.3.4-1 .8-1.4.7a.6.6 0 0 1-.3-.2v-.3l1.1-.9H1.6c-.2 0-.3-.2-.4-.3l.3-.2H3c0-.1.2 0 .3.2l.2.4.5-.3.3-.9h-.8l-.6.1-1.7.2-.4.2v.9h.5l.1.1-1 .7-.3.3c0 .3.2.7.4 1l.7-.1 1.9-.8s.3 0 .4.2l.4.5c.1 0 .4.2.5.1l.8-.7c-.4-.3-1 0-1.3-.6m53.8 41.2-1 .2h-.4l-.4-.3c.1-.2.2-.5.4-.5l1.4-.1.4.2c-.1.2-.2.5-.4.5m.8-2.6h-.7l-.2.3c0 .1 0 .3.2.3.3 0 .4.1.4.4-.1.4-.3.4-.6.5h-1.4c-.1 0-.3 0-.3-.2-.2-.4 0-.6.6-.6.3 0 .7.1 1-.4h-.9v-.1l.5-.4c.3-.3.2-.4-.1-.6-.4-.2-.7 0-.8.4-.1.4-.2.8-.8.8l-.1.4-.1 2.5v.5c.3 0 .6 0 .6-.2.2-.4.4-.4.7-.4h1.1l.5.1.3.3.3-.4v-1.5l.1-1.2c.2-.4.2-.5-.3-.5m6.1-96.6-.3-.2c-.9-.2-1.4-.8-2-1.3-.7-.7-.9-1.3-1-2.1 0-.3.1-.4.4-.5l1.2-.5v-.1l-1 .2-.5-.2c0-.9-.1-1.8.4-2.5l.1-.6c0-.3-.2-.7-.1-1a3 3 0 0 1 2.1-2c.5 0 .7 0 .8.6v1.3l.4 1.2h.2L65 17v-1.7l-.5-1.1-.8.2c-1.8.4-2.6 1.7-2.3 3.4v.4c-.6.7-.5 1.5-.6 2.3v.3c.3.2.2.4 0 .6l-.7 1.5h.4c.4-.5.3-.5.6 0 .4.7.6 1.4 1.2 1.9.7.4 1.3 1 2.3.6m39.8 107.5v-.1l.3-.2-.5-.2-.5.2-.3.3-.2-.5c0-.3.2-.6.6-.6h.4l.3-.4-.4-.2-.9.4c-.4.2-.6.1-.7-.3l-.3-.3-.2.3c0 .4-.3.5-.6.5h-1v.2l.2.2c.4 0 .7 0 1-.2.7-.2 1 0 1.1.7 0 .2 0 .3.2.4.2.3.1.9-.2 1-.4.3-.5-.1-.7-.2l-.1-.2c-.2-.4-.4-.3-.6-.1l-.9.7v.4h.3l.4-.5c.4-.4.5-.4.7 0l.2.3c.2.3.2.6 0 .8l-1.6.9-.3.2v.1h.4l1.9-1c.2-.2.4-.2.6 0 .6.8.8.8 1.4.1l.2-.4-.4-.2-.9-.3-.2-.3c.4-.5.2-1.6 1.3-1.5M54.8 46.7l-.6-.3v.1c0 .1 0 .3.2.4.4.3 1 .6 1.3 1a6 6 0 0 0 2.7 1.4c1 .2 2.2.3 3.1 0a4.7 4.7 0 0 0 3-3.2c.2-.6 0-1.2-.5-1.5l-.5 1.5v.3c0 .3 0 .7-.2.8-.8.6-1.6 1.3-2.5 1.6-1.2.5-2.4.2-3.5-.5l-2.5-1.6m46.5 30.9-.2-.4c0-.4 0-.6.5-.5l.4.2c0 .4 0 .8-.7.7m-.6 0-.3-.1v-.8h.4l-.1.8m.8-1.9.5.2-.1.5h-.6l-.6-.3.8-.4m-.6 2.9v.2c.2 0 .5.3.7.2.2-.1.5-.4.5-.7.1-.3.2-.4.5-.4h.4s.2 0 .3-.2l-.2-.2-.7-.2c0-.7 0-1.4.6-2a2 2 0 0 0-.8 0c-.6 0-1.2.4-1.9-.1l-.1 1-.5.3-.5-.3c-.2.3-.7.6-.6 1v1.3c-.1.1.1.3.2.4l.3-.4.1-1.3c.1-.4.4-.4.6-.3l.2.4-.1.3c0 .3 0 .6.4.5h1l.4.2-.4.3h-.4m-1.3-8.3c.3 0 .6.1.6.4V72c0 .2-.1.5-.4.4-.2 0-.3-.3-.3-.4l-.1-.6v-1l.2-.2m2 .3c0-.2.3-.3.4-.5.1.2.3.3.3.5v1.3l-.4.5c-.3 0-.3-.3-.3-.5v-1.3M98 72.6l.2.2h.6l4-.1.4-.3-.4-.4-.3-.3c0-.5 0-1.1.3-1.6v-.4c-.5-.2-1.8 0-2.1.4.6.2.6.3.5 1 0 .3-.1.6 0 .8 0 .3-.1.5-.4.5-.4 0-.5-.2-.5-.5v-1c-.1-.7.1-1.3.7-1.6l.4-.2c-.5-.2-1-.3-1.3.1-.3.3-.6.7-1 .7l-.3.3.1 2.2h-.6l-.3.2m-33.5 48.6c-.2-.6-.6-.7-1.2-.3-.6.3-1.1.5-1.6-.1l-.2-.1c-.3.5-.7.5-1.1.5l-.5.2v.2H61l-.1.3c-.4.2-.4.5-.3 1 .2.4-.1.5-.4.6h-.7v.2l1 .5c0 .6.2 1.5-.7 2 .4.5.7.5 1 0 .2-.2.2-.5.2-.7v-1.3c0-.4.2-.6.5-.8.2 0 .3-.2.4-.3H61l-.1-.5v-.3c.5-.5 1-.8 1.7-.9l.1.1v.2l-.7.5c0 .2.2.4.4.6.1.3.2.5-.2.6-.4.1-.3.4-.2.6.7 0 1-.5.8-1.2-.2-.3 0-.5.2-.8.4-.4.8-.8 1.4-.8m-18.9 4.1c0-.2 0-.5.4-.6l1.8-.1c.3 0 .4 0 .4.3s0 .7-.4.6h-.4l-1.3.2c-.3 0-.5 0-.5-.4m0-1.5.3-.2 2-.3c.3 0 .4.1.4.4 0 .3 0 .6-.4.6l-1.7.1c-.6 0-.8 0-.6-.6m3 2.4v-1.5c0-.4 0-.8.2-1.1.3-.5.3-.6-.2-.7h-.8l-1 .2v-.1l.6-.4c-.7-.4-1-.3-1.4.1l-.7.4h-.5v2.2l.1.7c.1.3.3.5.7.3 1-.4 1.9-.6 3-.1m4.3-2.6-.1-.2.3-.6.2.2-.4.6m1 1.5c.6-.3.5-1 0-1.4-.5-.3-.5-.4 0-.7l.2-.2v-.6h-.5c-.2 0-.4.3-.5.3-.6 0-.7.3-.7.7h-1.6l.3-.6h.1l.2.5 1-1v-.4c0-.1-.3-.2-.4-.1l-.3.4c0 .3-.2.5-.5.5l-.1-.6v-.4c-.6-.2-.6-.1-.5.4 0 .4 0 .6-.5.7l-.2.1a12.7 12.7 0 0 0 .6.5l-.6.2h-.4v.2c.3 0 .6 0 .8.2.2.2.3.1.5 0 .4-.3.8-.3 1.3-.2.3 0 .4.2.3.6l-.1 2 .1.4c.5-.4.4-.8.4-1.3s-.2-1 .2-1.5l.5.4v.9h.4M81 138.3c0 .5-.4.4-.8.3l-3.2-1c-.4 0-.7-.1-1-.3.3-.2.5-.3.4-.7 0-.3.1-.8.5-.8.3 0 .6.2.8.4.2.3 0 .6-.3.7h-.7v.2l.8.2c.3-.1.6-.4.7-.6.2-.5-.4-1.3-1-1.3-.5 0-1.1.6-1.1 1s-.1.5-.4.5c-.7.1-1.3-.3-1.8-.6l-.4-.3-.1.2c.4.4.6.9 1 1.2l1.6.5c.4 0 1 .1 1.3.3 1.3.6 2.5 1 4 1.1l.2-.2c0-.3 0-.7-.4-.8"/>
    <path fill="#000" d="m79.1 135.5-.8-.4c.2-.2.5-.3.8-.2h.8c.5-.1.7.1 1 .4v.3l-.2.1c-.5 0-1 0-1.6-.2m2.3 1.3-.2.5c-.2 0-.6.2-.8 0-.3-.2-.6-.6-.8-1v-.3l.2-.1 1 .2c.1 0 .4 0 .5-.2.1-.1.2-.4.1-.6-.1-.2-.3-.5-.6-.6-.6-.3-.7-1-1-1.4-.3-.2-.3-.3-.6-.3h-1.5c.6.5 1.2-.2 1.7.4l-.5.5c.2 0 .3-.1.4 0l.6.3v.4h-1.5c-.3 0-.4-.1-.6-.3l-.9-.9-.1.2.4.5 1.1 1 .3.6.4.4c.1.2.4.5.3.8 0 .2-.4.3-.6.5l-.3.3h.4c.6-.3 1.2-.5 1.7.2l.3.2.6-.4c.2-.2.5-.4.5-.6 0-.2-.2-.4-.4-.6v.3M15.8 29.4c-.2 0-.3.2-.5.3v.2h.5l1.7-1.2c.2-.2.3-.6.4-.9.1-.3.3-.5.6-.5l1.4-.1.3-.1c0-.1 0-.3-.2-.3-.4-.4-.8 0-1.1.2h-.6l-.2-1 .4-.2 1.4-.1.3-.3-.3-.2h-.4l-1.4.2-1.7-.1c-.3 0-.6 0-.6.3 0 .4.3.3.5.3h.5l.5.1v1l-.5.1h-1v.2l.5.2.5-.1.5.1v.5c-.3.7-.8 1-1.5 1.4m54.9 45.8h-.2c-.5 0-1.1.2-1.6-.4-.4-.5-1-.4-1.4.2-.4.5-.2 1.1.4 1.7.4.3.4.3 1-.3l.3-.5H69l-.4.2h-.8c-.1-.1-.2-.5-.1-.7 0-.1.2-.4.4-.4s.5.1.7.3c.2.3.4.5.8.4l1.7-.2 2.8-.2c.1 0 .2 0 .3-.2l-.7-.2c.3-.8.1-1.1-.5-1.2l.2.7c.2.3 0 .5-.2.6h-1.4c-.3 0-.4 0-.3-.4l-.1-1.6c-.3-.6-.8-1.2-1.3-1.8H70c0 .2 0 .4.2.5.7.7 1 1.6 1.1 2.7 0 .5 0 .7-.5.8M112 26h.6c.1.4.2.8.1 1.1 0 .4-.5.2-.8.1l-.3-.5c.2-.3 0-.7.4-.7m1.2-1.6-.5-.1.3-.6.3-.1c0-.2.2-.4.1-.5-.3-.4-.6-.5-1.1-.3h-.2l-.1-.2h.2V22c-.1 0-.3 0-.4.2l-.5 1.1c.6-.2 1-.5 1.7-.2-.6.3-1 .5-1.2 1-.3.7-.4.7-1 .2h-.1c-.2.6 0 .7.4.8.2 0 .4.3.4.4 0 .4 0 .8-.2 1.2-.1.7-.1.7.6.8.3 0 .8-.1.9.5h.2l.1-.3V26c.1-.3 0-.4-.3-.3l-.8-.1a.9.9 0 0 1-.4-.6c0-.2.2-.5.4-.6l.6.3.1.3.6.2.4-.6-.5-.3m-111 3.9v.2h.6c.8-.5 1.5-1 1.7-2l.2-.3.3.3.3 1.2c.2.3.5.5.8.6.3 0 .7 0 .8-.5-.7 0-1.2-.4-1.5-1-.2-.4-.1-.6.3-.7h.8l.4-.2c0-.2-.1-.4-.3-.4h-.5l-.6.3c-.9.1-.9.1-.6-.7v-.7h-.7l-.1.5c0 .8-.2 1-1 1-.3 0-.7-.1-1 .4H4c-.5.8-.8 1.7-1.8 2"/>
    <g transform="translate(55.7)">
      <mask id="f" fill="#fff">
        <use xlink:href="#e"/>
      </mask>
      <path fill="#000" d="m.5 2.9 1-.5c.4-.2 1-.2 1.5-.3.6-.1 1.4 0 1.9-.7.1-.2.3-.1.4 0l.4.4L7 1.7c.4 0 .8-.2 1.2-.4l1-.2L9 .9h-.4l-1.2.3-.5.1c-.4.4-1.2.3-1.5-.2-.1-.3-.3-.2-.4 0-.8.5-1.8.6-2.6.8h-.2C3 .4 6.5 0 7.3.8c0-.7-.1-1-.7-.9-.9 0-1.8.1-2.6.3-.4 0-.7.3-1 .5C2 1.3 1.4 2.1.4 2.3c-.1 0-.2 0-.3.2l-.2.4h.5" mask="url(#f)"/>
    </g>
    <path fill="#000" d="m50.8 130.6.5-.2c-.3-.3-1.2-.4-1.6-.3h-.8v-.6c.2-.2.5-.3.8-.3l1.2-.1v-.2l-.4-.1h-.4c0-.3.2-.6.1-.8 0-.2-.4-.3-.6-.4l-.1.1.1.3-.1.8s-.3.1-.4 0c-.4 0-.1-.3-.1-.5l-.4-.4-.1.4c0 .3-.1.4-.4.5l-.4.2v.2l.5.1c.1.1.3.2.3.4.1.4-.1.6-.6.5l-.4.2.3.3c.6.1.6.2.4.7l-.5.7c.4 0 1-.5 1.1-1 0-.5.3-.5.6-.5.4 0 .4.3.3.5v.8l.1.5c.6-.3.5-.7.4-1.2 0-.5 0-.6.6-.6M41.3 48l-.4-1.1c0-.2-.3-.3-.4-.5l-.2.5c.1.6.2 1.2.5 1.8.2.4.6.8 1 1a9 9 0 0 0 2.3.5c.4.1 1 0 1.3-.2l3.5-2.3h-.3L46.2 49c-.7.3-1.4.8-2.3.6-.6 0-1.2-.3-1.8-.6-.4-.1-.7-.5-.8-1m5.4 79.3h-.3l-.2.5c.2 1.7-.2 3.4-.3 5.2v3.7c0 .2.2.4.3.5.1-.1.3-.3.3-.5V134l.2-4.8h.1v-1.6l-.1-.2m49.8-1.3v-.1.1Zm1.3 2.7h-.1c-.5.4-.9.2-1-.4v-.5c.1-.5 0-.7-.5-.6-.3 0-.5 0-.3-.3s.1-.4-.1-.6c-.2-.2-.3-.4 0-.7l.3-.5.5-.3v1.1-.2c.2-.2.6-.4.5-.8l.4-.1v.3l-.1.5c-.2.2 0 .8.3.9l.4-.1c0-.1 0-.3-.2-.4l-.3-.3.6-.5v-.8s-.2-.2-.4-.1l-1.4.1-1.2.3.5.3-.2.5c0 .3-.2.6-.1.7.2.4.4.8 0 1.2h.4l.4.3c0 .4.2 1-.3 1.4h2l.4-.2v-.2h-.5M73.4 65.1c0-.7-.2-1.4-.8-1.9-.3-.2-.2-.3 0-.5a4 4 0 0 0 1.2-1c.3-.4.5-1 .7-1.5v-.5l-.6 1c-.4.7-.7 1.3-1.4 1.6-.4.3-.7.2-1-.1-.4-.6-1.2-.9-1.1-1.7h-.1c-.3.4-.3.8 0 1.2.3.5.7 1 1.3 1.2.4.2.7.6 1 1 .3.3.4.8.1 1.3v.8c0-.2.3-.4.4-.5l.3-.4m20.2 5.6c0 .2-.4 0-.6 0l.1-.5c0-.2-.2-.4 0-.5 0-.2.3-.2.5-.2v1.2m0-1.5h-1l-.4-.2v3.6l.2.6s.3.2.4.1l.2-.4v-1.1c0-.5 0-.7.5-.7s.7-.2.6-.7c-.1-.4-.1-.8.3-1.2h-.9m15.9 64.8c0 .6-.8 1-1.2.6l-.2-.4.4-.4.5-.2c.4-.1.5 0 .5.4m0-.9-1.4.3c-.2 0-.5 0-.5.2v2.1l.2.4.4-.4v-.1c0-.6.4-.4.7-.5.3 0 .4 0 .4.4l.2.2.3-.1.3-1.2v-1.1l-.7-.2M94.6 66.6c.2 0 .3-.1.4 0 .2 0 .3 0 .5.2-.2 0-.3.2-.4.3h-.6s-.3 0-.4-.2c0-.3.3-.3.5-.3m-.8-.8h-.2l.1.8c.1.6 0 .7-.6.6l-.8.1v.2c.4.4.9-.3 1.4 0l-.6.5-.6.4h.3l1.5-.9a2 2 0 0 1 1-.1c.2 0 .3.4.4.6l.3.4c.2 0 .3-.2.5-.3l-.3-.4-.4-.3.4-.3c-.3 0-.5-.1-.5-.4v-1.1c0-.3 0-.4.3-.4l.5-.2-1-.2-1 .4.7.1.1.6c.1.3 0 .5-.3.5-.3.1-.7.2-1-.3l-.2-.2m2.4 1.1v.1ZM53 117.8h1.2l.3-.2-.4-.5h-.5c-.3.5-.8.3-1.3.4l-.4-.1v-.4c0-.2.2-.4.1-.5 0-.1-.1-.3-.3-.3l-.3.1v1l.3.5c.4 0 .5.3.6.6 0 .5 0 1 .2 1.3.1.4.4.7.8.9.2.2.9-.2 1-.6-.7-.3-1.4-.7-1.7-1.5l-.1-.4.5-.3m42.5-45.2h-.2l.3.4c0 .4.3.3.6.2.5-.1.8-.7.7-1.4l-.2-2.8c0-.3-.2-.4-.4-.3-.4.1-.7.4-1.2.7h1.1l-.3.4.2.6-.6.2-.2-.8h-.2v1h.5c.3 0 .6 0 .6.6v.3c0 .8 0 .8-.7.9m-40 47.1-.8.8.1.1 1.1-.7c.7-.4.8-1.1 1-1.8 0-.2.2-.4.4-.4l1.2-.2.8-.2c-.2-.4-.4-.5-.8-.3l-1 .3c-.3 0-.4 0-.4-.4 0-.2.2-.5.1-.7 0-.2-.2-.3-.3-.4-.1.1-.4.2-.4.4.1.8-.1 1.5-.3 2.3-.1.5-.3.9-.7 1.2M45.2 107v-2.4H45v1.4c-.3 1 .2 2-.2 2.9v1.4l-.2.8a6 6 0 0 1-.7 2.7v.4s.1.1.2 0l.2-.2c.2-.8.2-1.7.5-2.4.6-1.5.5-3 .5-4.6m44.2-38.8c-.3 0-.5.1-.4.5 0 .3.3.4.6.4.5 0 1-.4 1-.9l-.2-1.9-.2-1.1c.2-.4.2-.6-.3-.7l-.2 1.3.1 1.7c0 .4 0 .6-.4.7m-26.4 47.4h-.6c-.6 0-1.2.3-1.8.4l-.2.2.1.2h.8c.8-.3 1-.2 1.4.5 0 .2.1.4.3.5l.6.6 1.1-.4.2-.3-.3-.2-1.3-.2c-.3-.2-.6-.6-.4-.8.1-.2.4-.3.1-.5M8.4 82.3l-.6.3H7c-.1 0-.3 0-.5.2l.5.2h.2l.3.2-.1.4c-.6.2-.7.7-.9 1.2v.4l.6-.1c.1-.3.3-.2.5-.1H8v-1.9c0-.3.1-.4.4-.2.2 0 .4.1.4 0 .1 0 .3-.3.2-.4 0-.3-.3-.3-.6-.2m2.7.9-1 .2c-.8 0-.8 0-1 .8v.1c0 .4.2.6.6.6-.3-1-.1-1.2.9-1.2.2 0 .5 0 .4.3 0 .2.1.7-.5.7H10v.2c.6 0 1 .3 1.1.8h.2l.2-.8.3-1c0-.6-.2-.9-.7-.7m49.8 36.5.5-.1c.7 0 1.3-.2 1.9-.3l.4.1s.3.1.4 0c0 0 .1-.3 0-.4l-.5-.5c-.2.3-.4.6-.6.6h-1.4l.3-.5.8-.6c.3-.3 0-.4-.2-.5 0-.1-.3 0-.4 0l-.5 1c-.3.2-.4.7-1 .6l-.3.2s0 .3.2.4h.4M11.5 81l-.6.1v-.7l-.4-.4c-.1.2-.3.2-.3.4v.4c0 .3 0 .5-.4.5l-.5.1 1 .5-.8.7c.8.2 1.6 0 2.3 0v-.3h-.6c-.2 0-.5 0-.5-.3 0-.4.1-.5.4-.5h.5l.5-.2-.1-.3a1 1 0 0 0-.5 0m37-10.4h-2.2c.4-.7 1-1 1.5-1.3l.4.1.5 1-.2.2M47.3 69l-1 1c-.2.1-.3.4-.3.5 0 .3.2.6.6.5h2.2c.3-.1.5-.3.3-.7l-.7-1c-.3-.7-.5-.7-1-.3m62.9 62.1c.2 0 .3-.2.3-.3l-.1-.3h-.5l-.4.4-.4-.1v-.8l-.5-.2v.4c0 .5.4 1-.5 1.3l-.2.3-1.2 1.5-.3.5.4-.1 1.2-1.3c.3-.3.5-.6 1-.6v-.3l1.2-.4M6.2 29.4c-.3-.4-.5-.4-.8 0 0 .2-.3.2-.5.2l-.1-.3-.2-.3-.3.2-.5.4-.4.2.8.3-.4.7c.7 0 .7 0 1-.7 0 0 0-.2.2-.2.4-.1.7 0 .6.7h1.3v-.2h-.5l-.4-.2c.1-.1.2-.3.4-.3H7v-.2l-.5-.1c-.1 0-.4 0-.4-.2m98.9-8.7c-.2.4-.2.8 0 1.2l.5-.2c-.4-.6-.4-1-.1-1.2.3-.3.6-.3.9 0 .2 0 .1.7-.2 1.2l.4.2.2-.5v-1.3h-.6l-.7-.1-.2-.3.2-.2.4-.2.6-.5.2-.2-.3-.2-.4.1-1.4 1.4c.5.1.6.3.4.8M15.6 34.2h.4l-.1.4-.5.7v.2l.5-.3.4-.5.3-.2c.2 0 .3.2.3.4l.1.4.2.1.4-.5-.1-.3c-.5 0-.6-.5-.8-.9-.1-.2-.3-.5.1-.7v-.3h-.3l-.6.1c-.2 0-.3 0-.5.2.2 0 .3.1.3.2l.5.3-.5.3-.6.2v.2h.5m93.9 48h-.3c-.3.3-.6.2-.9 0l-.4.1-.6.2c-.5-.2-1 0-1.3.4l1.5-.1.4.1v.5h-1.1v.2h.8l-.1.6.5-.4.3-.2.2.3.3.4.6-.1V84h-.6l-.3-.6c-.2-.4 0-.6.3-.6l.6-.1.2-.3-.1-.2"/>
    <path fill="#000" d="m3.3 32 .1.2.2-.1c.3-.1.6-.3.5.3 0 .4.2.3.4.2 0-.5-.2-.9-.3-1.2L2.6 31l.5-1.8-.9-.3.2 1.1c0 .3-.3.6-.4.9l.4.6h.3c.5-.1.6 0 .6.5m-.9-.5Zm102.3-13.4-.2.2c.4.2.7-.1 1-.3a2 2 0 0 0 1-1.4c0-.3.2-.5.3-.8V15h-.5v.8l-1.7-.2v.1c.2.4.6.4 1 .3l.4.1v.6a3 3 0 0 1-1.3 1.4M19.1 33.3c.4 0 .5.2.5.5 0 .4-.3.6-.6.6-.4 0-.5-.3-.5-.5 0-.4.2-.6.6-.6m-.9 1.8c.1 0 .3 0 .3-.2.2-.4.5-.4.7-.1l.4.3.2-.5.2-1.3-1-.3c-.2 0-.5 0-.6.2-.2.2-.4.4-.8.4l-.3.2c.9.2.9.2.8 1l.1.3m87-12.6-.2-.4h-.2l-.1.9c0 .7.1 1 .9 1h2c.6 0 .8-.2.7-.8l-.1-.5-.3.4c0 .5-.3.5-.7.3a1 1 0 0 0-.6 0c-.8.3-1.4 0-1.4-.9m-41 16.4c.3 0 .6 0 .9.4.2.3.6.5 1 .2l.5-.2c.6-.5 1-1 0-1.6v.6c.2.5-.1.7-.5.8-.4.2-.7 0-1-.3 0-.1 0-.3-.2-.3h-2l-.4.2.3.2h1.4"/>
    <path fill="#000" d="M18.6 31.7c0 .3-.4.7-.6.7-.4 0-.6.2-.8.5.5.2 1 .2 1.3-.3 0-.2.3-.3.4-.5.2-.3.4-.2.6 0 0 .3.3.5.5.7h.4l-.1-.4-.8-.5-.2-.4.3-.2.8-.1.2-.4h-.3l-.4.1c-.7 0-1 .2-1.3.8m51.9 98.8c.4 0 1.1.6 1 1 0 .1-.6.6-1 .6s-.8-.4-.8-.9c0-.4.4-.7.8-.7m-.8 1.5c0 .3.3.5.7.4.5 0 1.2 0 1.5-.7.2-.6-.3-1.4-1-1.5h-.7l-1 .7c.4 0 .5.3.4.7v.4m-18.9-6.3-.3-.2.5-.5c.2.2.3.3.5.3l-.7.4m.8-1.7c-.3 0-.6-.2-.8.2l.7.1c-.1.5-.2.6-.5.7-.8.1-.4-.7-.8-.9l-.8.8.1.1.7-.3v.4c-.3.7-.2 1 .6 1h.6c.3 0 .4-.2.4-.6v-1c0-.3 0-.4-.2-.5m48.4 6.3c0 .2 0 .5.3.5.4 0 .4-.3.4-.5l-.1-3.3c0-.2-.3-.3-.4-.4l-.2.4.1 2h-.1v1.3m-53.5-10.7v-1l-.2-.4-.3.3v.2l-.2-1.4h-.2l-.1 1.2v1.1l-.2 1.3.3.4.2-.4v-1c0-.6 0-.6.7-.3m6.1-103.2.4.3v.2l-.5-.1H52c.7.5 1.2.6 1.6.3v-.6h1.1l.2.5 1.4-.7c-.6-.3-3-.2-3.7.1m29.2 35.7-2.5 2.3-.1.3v.1l.7-.4 2.3-2.3 1.6-1.7-1 .8-1 1M49.5 17.7c.4-.7.2-1.3 0-2l-.3-.2-2.4-.4-.4.2.4.2h1.4c.2 0 .5 0 .7.2.4.3.4 1.5.2 1.8l.4.2m57.3 6.6c-.3.4-.4 5.5 0 5.8 0-2 .2-3.9 0-5.8M58.4 46.8l.6-.5.6.4-.8.5-.4-.5m1.6 0c0-.4-.6-.9-1-.9-.3 0-1 .5-1 .8 0 .6.4 1.1 1 1.1.4 0 1-.6 1-1"/>
    <g transform="translate(0 79.7)">
      <mask id="h" fill="#fff">
        <use xlink:href="#g"/>
      </mask>
      <path fill="#000" d="M.2 1.3H3V0c-.6-.2-.8-.1-.8.4 0 .4-.2.5-.5.5H.3L0 1l.2.2" mask="url(#h)"/>
    </g>
    <path fill="#000" d="M109.7 12.6c.4-.7.5-1.4.4-2.1V9l.2-.4c0-.2-.1-.4-.3-.5h-.3v.3c.2 1.5.3 3-.4 4.4v.4l.4-.6m-97 18.1c.3.5.5-.6 1-.5v-.4c-.3 0-.7-.2-.9-.1-.3.2-.6.3-1 .3-.3 0-.6 0-.6-.5l-.2-.3-.2.3-.3.8h1c.5 0 .8-.3 1.2.4m-6.5 3.7h.2c.2 0 .4-.2.5-.3l-.3-.4c-.5-.4-.5-.4-.1-.9l.1-.5v-.5l.1-.5L6 31v.1c.3.3.3.6 0 .7l.2.5c0 .3-.2.6-.3.8l.3 1.3m36.9 13 .4-.3c.2 0 .3.2.5.3l-.5.4-.4-.4m1.5 0c0-.4-.4-.8-1-.8-.5 0-.8.3-.8.7 0 .4.3 1 .7 1 .4 0 1.1-.5 1.1-.9m14.5 72.3c.4-.2.4-.4 0-.5-.5-.3-1-.6-1.3-1.2h-.1c-.2.8 0 1.5.6 2h.5c.2 0 .2-.2.3-.3m44.5 3a2 2 0 0 1-.6.2l-2.5.1-.2.1v.1c0 .1.2.3.4.3l4-.3c-.5-.6-.6-.7-1.1-.5M5 73.6l-.4.2-1.3.4v-.4l.2-.6-.7.2-.2.4c-.2.4 0 .5.4.5h2c.3 0 .5 0 .5-.3 0-.2-.3-.3-.5-.4m56.6 37.5-.2.5.1 2.6.2.4.3-.3v-2.8c0-.3-.2-.4-.4-.4M49.3 34h.3a2 2 0 0 0 .2-1.7 8 8 0 0 1-.6-3L49 29h-.2l-.1.6.2 1c0 1.2.8 2.2.2 3.4h.1m62.5 40 .2-.4-1.1-1.5.3.9.5 1h-.5l-.5.2c.5.4.6 1 .3 1.5v.3h.3c.3-.3.4-.6.3-1-.2-.4-.2-.8.2-1m-1-2Zm-47.4 54.3.2-.1v-2.3c0-.3.3-.4.6-.3.4.2.7 0 .8-.3l-.4-.6c-.2.3-.3.6-.5.6-.5 0-.8.5-.9.9v1.9s0 .2.2.2m-41-91.4c.4-.5.8-1 1-1.5l.7-1h-.5c-.1 0-.2.3-.4.3-.4.3-.5.2-.6-.3l-.4.3-.2.4.5.1h.8L21.9 35h.4m76.2-16.6c.1-.2.4-.4.4-.7v-3l.1-.9-.5-.3-.1.1c.4.2.2.5.2.8v2.3c0 .5.2 1-.3 1.4v.2l.2.1m8 19 .3-6.6h-.3l-.2 6.6h.2M27 30.2l-1 .2v.4h.2c.6-.2.8 0 .7.6l.1.7c.1.4.1.7-.3 1v.3h.3l.3-.3v-2.5c.1-.3 0-.5-.3-.4m75 97.9v.3c.8.1 1.5-.4 2.2-.3v-.8c0-.3-.2-.4-.5-.3-.4 0-.8.2-1.1.3l-.5.2v.1h.9c.1 0 .3 0 .4.2l-.4.2-1 .1m5.7-39.1 1.2-.4v-1c0-.5 0-.6-.6-.5l-.8.2.3-.6c-.6 0-.7 0-.8.8h1.1l.4.2v.8a1020.3 1020.3 0 0 1-.8.4M58 38.7l-1 .2v.2l1-.1h3.5l.4-.2-.4-.2-3.5.1m-7.6 81.5-.5.5c1-.2 1.3-1 1.6-1.8.1-.3.2-.6 0-.9 0-.3-.9-.5-1.3-.4l-.2.2.2.2h.5c.5 0 .7.1.5.6l-.8 1.6m50.8-46.3v-.2h-.6L100 75h1l1-.1.7-.2-.7-.4-.3.2-1 .2v-.1c0-.1 0-.2.2-.3l.3-.3m8.3-47.5v1.3c.4-.1.6-.4.5-.7v-1.8l-.9.1-.4.7h.2c.6-.3.6-.2.6.4M2.4 32.4l-.2 1.4.2.4.3-.3V33c0-.5.4-1-.3-1.3v-.2c-.6 0-.3.8-.7 1v.1l.7-.2m0-.9Zm21.4.5.2.1.1-.2v-.6c-.5-.5-.5-.5-1 0-.2.3-.4.3-.7 0l-.4-.1v.5l.5.7 1.2-1.1v.7m81.7 54 .2.5.2-.4c0-1 0-2-.2-3 0 0 0-.2-.2-.3h-.2v.5l.2.5v2.3M49.7 14.2c-.4 0-1 0-1.3-.2-.9-.3-.8-.4-1.4.3.4 0 1-.2 1.1 0 .4.4.7.3 1.1.2v.4l1-.6-.5-.1M110.1 72h-.1l-1.6 2.6.4-.2c.4-.6.9-1 1.6-1l.1-.1-.6-.1.3-.7v-.2c0-.3.3-.3.5-.3 0-.2-.2-.3-.3-.5l-.3.4m-75.9 37.6v-.3l-.4-.4-.1.5c0 1 .2 1.9.3 2.8l.1.3h.3v-1.2l-.2-1.7M111 14h-1.3l.3.4 1.8-.1.2-.2v-.7c0-.2-.3-.3-.4-.5l-.2.5c0 .5 0 .6-.5.7M52.5 16a3 3 0 0 1 2.2-.7l1.4.2c-.8-1-3.4-.5-4.3.7.3 0 .5-.1.7-.3M19.1 29.2c.5.3.8.3 1.2-.2l-2-1.3c.3.5.2 1.2.8 1.5m88.2 57.1c.6-.6 1.3-.3 2-.2l.3-.3-.4-.1-.4-.2c0-.1.1-.3.3-.3l.4-.2c-.3-.3-.3-.3-.6 0-.2 0-.4.4-.5.4-.6 0-.7.6-1.1.7v.2M6.6 81.2l.9.8c0 .1.3.1.4 0l1-1 .1-.3-.4.1-.6.7c-.2.2-.4.2-.4 0-.2-.6-.5-.4-1-.3M16 31c.2-.3.5-.3.7 0l.8-.6c.2 0 .4-.2.5-.3v-.2l-.6.2c-.4.3-.8.6-1.3.2 0 0-.3 0-.3.2l-.3.8h.2l.3-.2m92 99.6.2-.2.1-.2h-.7l-.9 1-.2.6.6-.1 1-1M93 129l.1-.2.4-.4.2.5v.8h.2v-2.2l-.6.3c-.5.2-.6.7-.4 1.2M75.1 58.7l3.7-3.5a13 13 0 0 0-3.7 3.5M109.2 25l.7-.3.1-.8c0-.3-.2-.6-.3-.8l-.2-.2-.2.3.2.6c.2.6.2.6-.5.7l-.3.2v.2h.5m-45.7-21h-.2l.6 1.4 1 1.1-.6.2v.2h.8l-.2-.6-.3-.6L63.5 4m37.2 120.3.2.2 2.5-.3h.2l.2-.4c-.1 0-.3-.2-.4-.1-.8 0-1.6.2-2.3.4l-.4.2M86 69c.2-.1.3-.3.3-.5v-.8l-.2-1.3H86v.7l-.2 1.4v.5h.4M10 30.5l-.2.5c.4-.1.6-.3.7-.7L9 29.9c0 .5-.6.7-.3 1.2.5 0 .5-1 1.3-.6m51.8 86.3h-.3l-1 1-.7.7c.1 0 .2.1.2 0l1.8-1.4v-.3m-9.9-97.1-.7-1.6v1.3c.2.4.3.7-.1 1 .5 0 1-.3.8-.7M94.8 16l-.6 2.8c.7-.4 1.1-2.3.6-2.8m-84 17.2v-.7h-.9c-.5-.1-.6 0-.6.5l.4.3.2-.3.1-.4h.3v.7h.5M10.3 74H12l.3-.2-.3-.3c-.6-.3-1.1.1-1.7.5m98.3-56.2-1.4-1-.1.1.5 1c.4.4.6.4 1 0m-43.9-5.1s0 .3.2.4c0-.4 0-1 .2-1.3.3-.5.2-.8 0-1.3l-.2.6c.2.4 0 .7-.3.9-.2.3-.3.4 0 .7M100.2 134l1.3-1.2.2-.3h-.1l-.5.1-1.1 1.1-.1.3h.3M53.3 17.7l-1.6-.2c.6.6 2.8.6 3.2 0l-1.6.2m.1 4.5c.3-.7 0-1.3-1-1.5l.4 1.2.3-.1.3.4M24 33l-.1.1v1.6l1.5-.6c-.2-.3-.4-.2-.6 0h-.5c-.2 0-.2-.3-.2-.5l-.1-.5m33-18.7c-.5-.7-1.4-1.1-2.1-.7l.5.5c.2-.6.4-.4.7 0 .2.2.4.4.8.2M109.8 132l-.7-.1c.3.4.8.8 1.3.9l.4-.4-.3-.2-.7-.2m-2.1-41.3-.1-1.4h-.3v.5c-.2.4.3 1-.5 1.1l.5.3c.2 0 .4-.3.4-.5M96 29.5c.1-.8.2-1.8 0-2.7-.4.9 0 1.8-.3 2.7h.3m-79.8 2.6.5-.1c.5.1.9-.2 1-.7-.5 0-.8 1-1.4.2l-.2.2-.4.2-.2.2.3.1h.4m72.6 33c0-.4-.2-.8-.3-1.1h-.1v.2c0 .7.3 1.4 0 2.1-.1 0 0 .2 0 .2h.2c0-.2.3-.6.2-.7-.2-.4-.2-.6 0-.7M34.6 115c.2-.8.2-1.5-.2-2.1h-.2l.1 2h.3ZM3.4 80.8v.1c.6 0 1.2 0 1.8-.2-.5-.6-1-.6-1.8 0m70.8 52.7c.4-.7.4-1 0-1.2-.6-.5-1-.6-1.3-.2.4 0 .8.1 1 .4.2.2.2.6.3 1m-12-114.8v.1l.3 1.3 1-1v-.4c-.5.7-.9.5-1.3 0m13.1 53.2L73.5 70c0 .7 1 2 1.8 1.8M54.1 24.5c-.7-.6-1.6-1-1.7-2-.3.4-.3.5 0 1 .3.4 1.4 1 1.7 1m38.9 39-.1.1-.7 1v.1c.4-.3.8-.5 1-.8l.4-.7c-.4-.3-.4.1-.6.3M3.2 34v.2c.8-.2 1.5-.6 2.1-1v-.3h-.2l-.9.6-1 .5"/>
    <path fill="#000" d="m53.7 22.5-.6.7c.2.5.6.5 1 .5 0-.4-.2-.7-.4-1.2M107 125.7c.1-.2-.2-.4-.4-.6l-.4.3.5.9c.1-.2.4-.4.4-.6m-42.1-.9-.8-.5-.2.3.5.9.5-.7"/>
    <g transform="translate(113.2 82.7)">
      <mask id="j" fill="#fff">
        <use xlink:href="#i"/>
      </mask>
      <path fill="#000" d="m.5 2.1.2-.3V0C.6.2 0 .4.6.8l-.3.9.2.4" mask="url(#j)"/>
    </g>
    <path fill="#000" d="m99 74.7.2.2c.2 0 .3-.2.3-.3 0-.1 0-.3-.2-.3l-.9-.4h-.3l.8.8M5.4 32.5v-1.7H5V32c.5-.2-.2.8.5.5M94.8 21h-.5c0 .5 0 1-.7 1.1.7.4 1 0 1.2-1.1m-33.6 91H61v2.2h.2V112Zm28.7-49-.3.1c.6 0 1-.3 1-.6l-.4-1.4v1.3c0 .4 0 .5-.3.6M26 34.6l.3-.2v-2H26c-.1.6-.2 1.4 0 2.2m83 56.1c.2 0 .4-.2.6-.4l-.4-.2h-.7c0 .4.3.6.6.6m-1.9-68.5c.1.1.2.2.4 0 .2-.3.3-1.2.1-1.6l-.5 1.6m-10.5-6.7c.5-.5 0-1.2.3-1.7h-.7c.7.5 0 1.2.4 1.7m16.5 66.3-.2.3v1.6h.2l.2-1.7-.2-.2M94.8 64.4c.8-.7.8-.7.5-1.1l-.5.5h-.6v.1l.3.1c.2.1.2.2.3.4m-31.3 58.3 1-.7v-.2c-.7-.1-1 .2-1 .9m43.8-38.2-.3-.3-.4-.3v1l.2.2.5-.6m-15-19.1c.7.1 1.3-.1 1.8-.5l-1.8.3v.2M99 24l-1.2-.7-.1.1.7.8.6-.2m.4-2.9-.2-.3h-1c.5.7.5.7 1.2.3m-3.2 2.1c-.2.5.2.4.5.4v-1H96c0 .2.3.4.2.6m.4-.5ZM92.7 100c0 .4.2.4.5.4l.4-.2-.7-.6-.2.4M64 17.1c-.3.1-.5.3-.8.3-.6-.1-.6.3-.7.8l1.5-1m45.5 64.3c.1-.5 0-.6-.6-.6 0 .4 0 .8.3.8.1 0 .3 0 .3-.2m-52.4 39c.6-.6.6-.8-.2-1.3l.2 1.3m31.2-76-.2-1.5h-.3c0 .6.2 1 .3 1.6h.2M10.6 73c-.2 0-.4 0-.5.2l-.3.6s.2.2.3.1l.6-.8V73M94 24.5c.7-.3 1.3-.8 1.9-1.4l-2 1.3.1.1m-44-.8c-.5.3-.3.6 0 1l.4-.7-.1-.3H50m58.1-4.3-.7-.2v.2c.6 0 .3.5.4.9.2-.3.6-.5.3-.9M8.3 80.5v-.3H8l-.5.8.3.2.5-.7m90.9-4.9v-.3l-.8-.4v.1c0 .2.2.5.4.6 0 .1.3 0 .4 0M95 15.4v-1.6h-.3l.1 1.6h.2m-47 8.8h.1c.1-.4.6-.8.4-1.3h-.2l-.3 1.3m63.2-12.1.3-.9c-.1 0-.3-.2-.4.1l-.2.7v.4l.3-.3M65.6 2.7h.3v-.5l-.6-.9h-.1c0 .3.2.5.3.7l.1.7M94 126.6h-1v.3l1 .2v-.5Zm-45.3-5.1h-1.3v.3c.1.1 1 0 1.3-.3m3.6-97c-.4-.3-.6-.9-1.1-1l-.2.2 1.2.9.1-.1m.2 10.3L51 36c.5 0 1.2-.6 1.4-1.2M108.6 16l-.2-.2c-.3-.2-.6 0-1 .3l1 .1.2-.1M12.3 27.8l1.1-.4c-.4-.4-.8-.3-1 .4m74.8 18.5 1-1.3-.1-.1-1 1.3.1.1M97.1 67a90 90 0 0 0-.4-.4l-.5.5h.9V67m-.9 0v.1m-1.7 57.4v-.3h-.3l-.6.9c.6 0 .8-.3 1-.6M49.6 29l.3 1.5c.3-.6.2-1.2-.3-1.5m25.1 45.5c.4-.6.4-1 0-1.3v1.3m-21-60.1-.5-.5h-.5v.2l.6.4.4-.1m-9.1 88.4.3 1.5c.3-.6.2-1.1-.3-1.5M8.5 83.6v.6l.2.4.2-.4-.2-.6h-.2M113 84v1.4c.3-.5.4-1 .2-1.5h-.2M87.1 66.2c0 .2.2.3.4.5l.2-.4-.3-.5c0 .2-.3.3-.3.4M63.3 11.4l-1.3.7c.6.1 1-.2 1.3-.7m21.5 38c-.5.1-.7.5-.9 1 .5-.2.7-.6.9-1M51.5 29.1h-.2l.1 1.4h.1V29ZM16.7 77c0-.3-.2-.4-.3-.6l-.3.1.4.7.2-.2m91.4 7.6-.1-.1-.2.1-.4.7c.3 0 .8-.5.7-.7M21 51.7l-.6-.8c0 .7 0 .8.6.8m89 24.4c.2-.3.2-1 0-1.2v1.2Zm-47.9 49.3.6-.8-.2-.2-.6.8.2.2M51.2 22.1h.3l-.3-1H51l.2 1m-5 99.7c.4 0 .5-.4.3-.8l-.4.5v.2s0 .1.1 0M65.7 3.2l-.1-.1-.4 1 .1.1c.2-.3.5-.6.4-1m45.5 19.7-.5-.2-.3.6.1.1.7-.5M52 14.2c.3.3.3.7.8.6 0-.4-.2-.7-.8-.6m-2.7 102.3h-1v.4h1v-.4m46.5-52.8h.3v-.1h-.3m.5.2-.2-.1.3.6v-.5m.1-42.3c-.3.4 0 .8.1 1.1.5-.4-.2-.7 0-1.1M18.8 50.6l.7.7c-.3-1-.3-1-.7-.7m30.5 68.2-.6-.1v.2l.5.3v-.4M4 76.8l.4.2.4-.3-.4-.2-.4.3m44.4 41.6.7-.3s-.1-.3-.2-.2l-.6.2.1.3M64.8 9.2h-.2l.2 1c.3-.3 0-.6 0-1m29.7 11c.5-.1.7-.5.4-.8l-.4.8M75 69.4v1.1-1m21.5 57.2.4.1v-.3l-.4-.4v.6m-49.3-6.2-.1.7h.2l.2-.7h-.3M59.7 7.6l.3.1.4-1.1h-.1l-.6 1Zm2.2 2.7c.4 0 .6-.3.7-.7l-.8.5.1.2M49.5 27.5c-.6.2-.7.3-.3.9l.3-.9m60.7-5.5-.4.6.2.2.4-.5-.2-.2m-63.8 94.6-.4.2.3.4.3-.4-.2-.2m63.7-42.4h-.7v.2c.3 0 .6.3.8 0v-.2m-12.8 53.1h.7v-.4l-.8.2v.2Zm-72.2-95-1 .4c.8.1 1 0 1-.4M88 62l.3-.9c-.4.3-.6.7-.3 1M64.8 19l.4-.6-.1-.2c-.4 0-.5.3-.3.8M90 63.9l.2.3.3.2.2-.1-.4-.4H90m8-41.6h.7c-.3-.3-.3-.3-.8 0M19.3 56.4l-.2-.1-1-.2 1.4 1.3-.2-1m1.2.8-.2-.8H20l.2.8h.2M54.7 131h-.1l.5.7c.1 0 .4 0 .5-.2l-.1-.3-.8-.2"/>
  </g>
</svg>
