<?xml version="1.0" encoding="UTF-8"?>
<svg width="64px" height="170px" viewBox="0 0 64 170" version="1.1" xmlns="http://www.w3.org/2000/svg" xmlns:xlink="http://www.w3.org/1999/xlink">
    <title>编组</title>
    <defs>
        <polygon id="path-1" points="0 0 42.0351735 0 42.0351735 57.7646643 0 57.7646643"></polygon>
        <polygon id="path-3" points="0 0 38.1343293 0 38.1343293 24.8899756 0 24.8899756"></polygon>
    </defs>
    <g id="home" stroke="none" stroke-width="1" fill="none" fill-rule="evenodd">
        <g id="home备份" transform="translate(-1156.000000, -804.000000)">
            <g id="编组" transform="translate(1156.000000, 804.000000)">
                <g transform="translate(21.109041, 0.000000)">
                    <mask id="mask-2" fill="white">
                        <use xlink:href="#path-1"></use>
                    </mask>
                    <g id="Clip-2"></g>
                    <path d="M1.4981063,35.0179801 C3.21093501,34.8133736 4.91281456,34.5230407 6.61897856,34.2663353 C8.14091112,33.895486 9.72425417,34.0015782 11.2547556,33.6539366 C12.2701708,33.4232806 13.4331615,32.884294 14.0905868,34.293332 C14.224833,34.5808231 14.1481889,34.929412 13.9049272,35.1392284 C12.9756772,35.9377622 12.1511582,35.291736 11.3375884,34.8882065 C10.4973597,34.4714154 9.6818857,33.9172728 8.70455459,34.0456255 C7.23784385,34.2383913 6.89318349,35.0572911 7.60345042,36.3327664 C8.5179429,37.2047123 9.50669921,38.012245 10.3316943,38.9604447 C12.1940027,41.1017087 12.0321456,42.2431479 9.62190337,43.9273627 C8.20470185,44.9181887 6.74656002,45.8853335 5.19892074,46.6455035 C4.36964125,47.0523484 3.0990632,47.1958572 3.45657692,48.279514 C3.88549817,49.5796179 5.20558544,49.3200707 6.31668666,48.9691137 C6.76893438,48.8260786 7.25117325,48.7465094 7.6743819,48.5437974 C10.0432078,47.4080417 12.5424715,45.1109546 14.7194492,45.3856578 C17.2334704,45.703461 18.6078274,49.219662 21.1009024,50.6879032 C22.1724915,51.3187733 23.0731785,52.2627104 23.9824344,53.1356035 C26.0632499,55.1328852 28.8400509,55.931419 31.2355356,57.3826097 C31.9538954,57.8178722 32.7850791,57.9642227 33.4467889,57.3745581 C35.4519124,55.5894609 37.9559366,55.3057588 40.4418709,54.9145435 C41.2430634,54.788559 41.9771329,54.5091195 42.0323547,53.5088209 C42.0880526,52.4933663 41.3082823,52.2030335 40.5837339,51.9112797 C37.9468917,50.8517779 35.2538756,49.9192079 32.4204246,49.6165607 C28.0050588,49.144829 24.3470889,47.1068155 20.9904588,44.4118823 C18.50024,42.4127061 18.2731641,41.7562602 19.7551084,38.8889271 C20.7824248,36.9015915 21.3255981,35.1449119 19.7232131,33.2537225 C19.200986,32.6375348 18.9205924,31.9005724 19.2466868,31.0669902 C23.4135544,29.961073 23.419267,29.9487588 27.2700373,31.5657186 C28.1554907,31.9379888 29.0180937,32.2908404 30.0087542,32.1596459 C31.0265496,32.0246624 31.8282181,31.5879791 32.1138483,30.5559476 C32.3556818,29.6787918 31.7844215,29.0474481 31.2341075,28.4961472 C30.310094,27.5725761 29.1152079,26.9729653 27.8489143,26.9748598 C25.6738409,26.9772279 23.5254262,26.6655819 21.3108406,27.5114783 C19.5818261,28.1726605 17.5514719,29.2326359 15.5468244,27.874276 C17.0963679,23.9597553 17.1406406,23.7376246 20.2573414,24.358075 C22.8756176,24.8790638 24.1452436,23.9616498 24.8293278,21.6219364 C25.4453367,19.5128789 26.1275167,17.4222928 26.7730408,15.3208133 C27.8598635,11.7799837 27.580422,10.3420546 25.5662535,9.06136928 C22.964639,7.40794018 21.4703174,7.63243901 18.5121413,10.12987 C18.6473396,10.9554005 19.2528754,11.3958729 19.8822138,11.8548167 C21.0466327,12.7040285 21.5455333,13.8492566 20.6691249,15.1038925 C19.9112529,16.1880229 18.6640013,16.8653083 17.3748573,16.3286898 C15.8581613,15.6973461 16.215199,14.0974368 16.5332005,13.0057284 C17.3891388,10.0687722 16.8088336,7.05272053 17.3110666,4.10581825 C17.6676282,2.0123904 16.4551283,0.727916122 14.4795198,0.512416196 C12.8309579,0.332911863 11.1095603,-0.637548241 9.17394011,0.680553501 C11.1562132,3.74491508 12.0178641,7.1100293 11.3651993,10.7555302 C9.85088352,12.2900792 11.2338094,15.6007264 7.82005327,16.2088624 C8.59839539,14.3276191 11.5013496,13.2458568 9.65713108,10.7526885 C8.70360249,10.2032821 7.779589,9.59088339 6.78607218,9.12530882 C6.02915233,8.77008916 4.91567086,8.80703201 4.8014188,9.67518885 C4.33726983,13.2060722 1.40670466,15.8389603 1.69947555,19.7487447 C2.15886401,25.8850459 3.18427619,27.0340631 9.26343755,26.2000073 C10.0784355,26.0882315 10.9100953,25.8315261 11.1962015,26.8157214 C11.4585051,27.7160848 11.5451463,28.8859415 10.6496958,29.4078776 C9.58381935,30.0297488 8.32038206,30.4981652 7.09788508,30.632675 C4.83950282,30.8813288 2.9786225,32.1852217 0.826399436,32.6768457 C0.179923232,32.8241435 -0.129033363,33.4256488 0.0504375711,34.1460342 C0.241333711,34.9133087 0.865435554,35.0937603 1.4981063,35.0179801" id="Fill-1" fill="#000000" mask="url(#mask-2)"></path>
                </g>
                <path d="M45.8006476,94.9539087 C47.8533761,95.660559 49.2977125,95.0012713 50.3150318,93.4922982 C52.0592798,90.9062991 53.8249501,88.2762528 55.093624,85.447757 C56.6788712,81.9130846 54.9565215,79.3536086 51.0667151,78.7449989 C49.3096138,78.4698221 47.6224918,78.724633 45.9006181,79.1068493 C42.3116755,79.903015 42.0403268,79.6638338 41.9479731,76.1897855 C41.9098891,74.7726959 41.9156017,73.3537118 41.9432126,71.9361485 C41.9798685,70.1240546 41.1172655,69.0536594 39.4291914,68.3820574 C37.4645321,67.6001006 35.5703283,67.2098326 32.9192046,68.421842 C35.5470018,71.4568388 35.8959466,74.927098 35.6479244,78.5683363 C35.5531904,79.9683754 35.264704,80.8796322 33.8584516,81.4721386 C31.2625498,82.5657415 32.0865927,83.3728006 34.2297708,83.6977082 C35.5798493,83.9023147 35.937839,84.7491584 35.3346834,85.6106845 C34.3892476,86.9605191 33.9760361,87.8016793 35.6484005,88.9923756 C36.7199895,89.7549138 36.3658082,91.3301946 36.0392377,92.5279952 C35.8597668,93.1853884 35.0647629,93.2218576 34.4159065,93.1257115 C32.7801979,92.8836885 32.5926341,91.598267 32.4422022,90.3265806 C32.3684144,89.7037622 32.600727,88.9739042 32.3527048,88.4538626 C31.1378246,85.9114371 30.6317832,82.7263008 26.9281125,81.9770242 C26.4249274,85.0968 29.0332066,87.3645223 28.6490341,90.2929532 C28.3367451,92.6705567 29.2602825,94.9235966 29.832971,97.2007914 C30.0310078,97.9907999 30.2395178,98.9735743 30.9840604,99.1279765 C32.0551734,99.3496335 32.5807328,98.4682152 32.8120933,97.4650749 C32.8787403,97.1737947 33.1215259,96.921352 33.2881435,96.6537532 C33.7946609,95.8386425 34.3230767,94.9719065 35.4765464,95.2447152 C36.5433749,95.497158 37.0265659,96.538662 37.0879764,97.3717705 C37.4564392,102.359528 38.0791129,107.384229 37.7696803,112.344042 C37.5892572,115.228426 37.9096391,117.788849 38.5513548,120.429789 C39.5548686,120.352114 39.7800404,119.813128 40.0761436,119.228199 C41.9070328,115.610169 42.1721928,111.702279 42.2469326,107.770708 C42.3131036,104.305658 42.1469621,100.833504 42.3035826,97.3741386 C42.4202149,94.7995065 43.3651746,94.1151167 45.8006476,94.9539087" id="Fill-3" fill="#000000"></path>
                <path d="M6.2629151,25.4349115 C7.39448648,26.0236289 8.50939611,25.7806587 9.36295416,25.0451172 C10.2974407,24.2404262 11.2052685,23.9013099 12.5386852,24.3176273 C13.1761164,30.5529164 12.2087824,36.7678395 11.627049,42.9988659 C11.4928029,44.429217 10.5973524,44.8038554 9.342484,44.7669125 C8.26661049,44.7351796 7.39877093,43.5747954 5.34413817,44.6238774 C7.30070459,46.9209645 8.84358336,49.2355758 10.0294245,51.7652134 C10.4450163,52.6504208 10.7501645,54.1049269 12.2359173,53.799438 C13.3384496,53.572571 13.2456198,52.3918209 13.5783789,51.5269794 C16.5332226,43.8584975 15.5768377,35.7135475 16.4808571,27.8016217 C16.8340864,24.7093162 16.1261997,21.4995514 19.4257038,19.4482762 C20.0926501,19.0343269 20.8486179,17.6958593 19.2705114,17.4012638 C16.9497666,16.9674222 17.115432,15.556016 17.3934454,13.9006924 C17.7281087,11.9048316 17.6110003,9.88860482 18.0161191,7.85580113 C18.6092776,4.88616479 16.1076337,2.79131607 13.1199425,3.11527639 C11.5970579,3.28057194 10.9967585,4.15346505 11.7746246,5.28543169 C13.5488638,7.86811541 12.7100633,10.592887 12.8800132,13.3394454 C13.1856375,18.2504756 12.0873896,21.5663326 6.63185402,22.1739951 C6.33432263,22.2071489 6.01917739,22.353973 5.77496362,22.5325301 C5.23655082,22.9270608 4.93997153,23.4906759 5.01899587,24.1603834 C5.10278071,24.8698755 5.69927164,25.1417369 6.2629151,25.4349115" id="Fill-5" fill="#000000"></path>
                <g transform="translate(25.865671, 143.160251)">
                    <mask id="mask-4" fill="white">
                        <use xlink:href="#path-3"></use>
                    </mask>
                    <g id="Clip-8"></g>
                    <path d="M37.0007109,17.057881 C36.0248079,15.6512111 35.3392956,13.9802579 34.1472659,12.8066121 C33.0156945,11.6926433 32.5786804,9.05217716 30.4545443,9.83602854 C28.8364496,10.4332712 29.5114888,12.577377 29.3958086,14.0844556 C29.0601932,18.4475003 27.0250785,20.4864611 22.5963832,20.9359324 C20.5593643,21.1424334 18.5232975,21.3707213 16.4953236,21.6525288 C13.6285491,22.0503749 10.8084276,21.7221519 8.06828251,20.9657708 C4.26035677,19.9157415 3.50248481,18.7804595 3.72099186,14.8919883 C3.85333383,12.543276 3.73955782,10.0927339 4.39983948,7.8837413 C5.1743732,5.29016418 4.35604286,3.32177365 3.1602047,1.24302822 C2.74175655,0.515064732 2.30379035,-0.208636116 1.40453148,0.055647309 C0.595722146,0.29293404 0.255346236,1.10804475 0.247729433,1.92883897 C0.219166419,4.76396546 0.236304227,7.6000392 0.236304227,10.4356393 L0.198696259,10.4356393 C0.198696259,12.1691113 0.453383129,13.9475777 0.148710986,15.6265826 C-0.612017271,19.8195954 1.62684693,21.9774364 5.01442032,23.621393 C6.61347302,24.39814 8.18777111,24.9020783 9.99676196,24.8722398 C14.4321219,24.7993014 18.8746226,24.9925409 23.3028418,24.8059322 C27.5644434,24.6264278 31.7846286,23.9477215 35.6658661,22.0191155 C38.5702485,20.5759765 38.7720938,19.609779 37.0007109,17.057881" id="Fill-7" fill="#000000" mask="url(#mask-4)"></path>
                </g>
                <path d="M13.9624562,103.86978 C12.9703675,106.636231 13.4835497,109.482251 13.7644193,112.287539 C13.855821,113.204005 14.3790002,114.156941 15.3996518,114.386176 C16.5445526,114.642882 16.9510995,113.68663 17.4695182,112.879571 C18.3725855,111.473849 18.4944543,109.959666 18.4754123,108.357862 C18.4316157,104.575483 18.4677955,100.792157 18.4601787,97.0093044 C18.4449451,89.348874 18.4601787,89.3592938 22.6446602,82.0024579 C23.2759028,80.8932253 23.675785,79.507395 22.7831908,78.4251591 C21.9548634,77.4215452 20.7956811,77.2984024 19.3765754,77.7563989 C15.2092317,79.1005501 11.2556346,81.1461417 6.77885833,81.5307262 C5.31262364,81.6567108 5.51875339,82.8720356 6.27948165,83.5284815 C7.98850195,85.0033536 10.0302814,85.5897028 12.6395126,85.275215 C9.20290607,90.2075584 5.69489197,95.0148644 1.05149809,99.0207949 C6.53654877,98.9308059 9.45949714,93.8890549 14.6632021,91.8870369 C14.3342514,96.2065079 15.3334809,100.045722 13.9624562,103.86978" id="Fill-9" fill="#000000"></path>
                <path d="M9.01505665,144.046118 C11.5862039,143.465452 14.070234,142.673549 16.800382,142.642763 C21.2233646,142.592085 23.0137895,140.354202 22.9076303,135.782288 C22.7967106,131.026607 21.5894473,129.678667 17.4335288,129.487322 C15.7264127,129.4087 14.8309622,130.34648 15.6935652,131.628112 C17.037455,133.623973 16.4728595,135.043431 15.311773,136.723383 C14.0954646,138.482904 12.6258976,139.802901 10.5046178,140.255214 C8.96840373,140.582963 7.41124345,140.813145 5.86027182,141.06843 C4.56969966,141.281088 2.41985686,140.697107 2.5074501,142.537145 C2.58933073,144.242199 4.85961425,144.371973 6.32965734,144.679356 C7.14322717,144.849862 8.10818098,144.251198 9.01505665,144.046118" id="Fill-11" fill="#000000"></path>
                <path d="M31.4917204,147.700334 C32.408117,148.233163 33.0893449,148.626273 33.7686686,149.023645 C36.8011085,150.798796 38.7848098,150.35785 39.857827,147.021627 C40.673301,144.485359 41.9262652,142.121964 42.5760738,139.548753 C43.3339457,136.548804 40.7846968,133.348038 38.0602613,134.223773 C34.4584653,135.380842 31.052802,137.140837 27.0892079,138.845418 C29.4023359,140.05127 31.0704159,139.353145 32.7280228,139.316202 C35.4667397,139.255578 36.4393103,140.888168 35.0025908,143.265771 C34.1195176,144.727855 32.8779786,145.97586 31.4917204,147.700334" id="Fill-13" fill="#000000"></path>
                <path d="M20.4012259,157.376801 C17.4835141,156.700937 15.7149875,158.492665 13.122894,160.229925 C16.4447725,161.09903 16.6142464,161.209858 16.6356686,162.313407 C16.6732766,164.259064 15.3255784,165.652472 13.2423826,166.215613 C11.0696894,166.80291 11.1282436,165.135272 10.4746266,163.960679 C9.88575251,162.902598 9.67724251,161.548501 8.44665269,160.886371 C7.90966803,160.597459 7.44456697,160.058473 6.74858154,160.444478 C6.10543769,160.801592 5.94643691,161.449513 6.10448559,162.059543 C6.57387111,163.874006 6.96851674,165.735357 7.69925383,167.448936 C8.93603232,170.349423 9.77578491,170.542663 12.8996265,169.19567 C13.4727909,168.948437 14.1135545,168.625897 14.6981442,168.669945 C19.0520996,168.996747 21.1719512,166.433008 22.9090585,162.931489 C24.5338179,159.65447 23.9354228,158.195701 20.4012259,157.376801" id="Fill-15" fill="#000000"></path>
                <path d="M18.3380242,151.833669 C15.4307855,150.346957 13.9007601,150.757117 10.4541565,154.130283 C13.3732965,155.729719 16.0115668,156.555723 18.6160376,154.391251 C19.6666804,153.517884 19.7166657,152.538425 18.3380242,151.833669" id="Fill-17" fill="#000000"></path>
                <path d="M3.95054874,40.5017191 C5.19161168,38.7398296 7.10057307,37.4951399 7.92366391,35.4116582 C8.77960221,34.7608958 9.87785008,33.5019973 9.24470328,32.9383821 C7.95413112,31.7907858 7.26338225,33.4129556 6.52693255,34.2801652 L6.52693255,34.2806388 C6.52693255,34.2806388 6.5264565,34.2806388 6.52598045,34.2806388 C5.16114446,35.7100427 3.55447496,36.4507941 1.5046027,36.456004 C0.436822044,36.4583721 0.0407482576,37.4264641 0.00266423968,38.4987538 C-0.0425605316,39.7538633 0.488235468,40.5315575 1.57505813,41.146798 C2.67473414,41.7696164 3.35215361,41.3509309 3.95054874,40.5017191" id="Fill-19" fill="#000000"></path>
                <path d="M16.3538945,67.4470246 C16.7866242,69.6238106 17.3050429,70.985486 18.4727941,72.1619735 C19.4710714,73.1684292 20.5626545,73.4365016 21.88417,73.2929929 C22.9200552,73.1802698 23.7559994,72.6128656 24.0625758,71.7451824 C24.4491286,70.6525268 23.4875071,70.017394 22.6515629,69.5930249 C20.8635183,68.6850835 19.0540514,67.7828256 16.3538945,67.4470246" id="Fill-21" fill="#000000"></path>
                <path d="M18.9191387,144.498715 C17.0839651,143.535833 13.2527129,144.449932 11.9159639,146.105255 C11.2218827,146.96536 11.1519033,147.868566 12.5400657,148.139953 C13.1498861,148.259307 13.803027,148.160319 14.3847604,148.160319 C16.2589701,148.399974 17.898011,147.948608 19.2780806,146.742756 C20.2939718,145.855181 19.7988796,144.960501 18.9191387,144.498715" id="Fill-23" fill="#000000"></path>
                <path d="M26.8697487,94.3197706 C27.7828131,92.1505625 25.4677808,88.5339528 22.4353409,88.2909825 C22.2420645,88.2781946 21.886931,88.7920791 21.9888058,89.4641547 C22.3296578,91.7153 23.3812527,93.5832818 25.3497204,94.8270242 C25.9557323,95.2101878 26.5750736,95.0183692 26.8697487,94.3197706" id="Fill-25" fill="#000000"></path>
            </g>
        </g>
    </g>
</svg>