<?xml version="1.0" encoding="UTF-8"?>
<svg width="68px" height="245px" viewBox="0 0 68 245" version="1.1" xmlns="http://www.w3.org/2000/svg" xmlns:xlink="http://www.w3.org/1999/xlink">
    <title>title_山海经</title>
    <defs>
        <polygon id="path-1" points="-1.77635684e-15 2.84217094e-14 63.5677119 2.84217094e-14 63.5677119 57.35 -1.77635684e-15 57.35"></polygon>
        <polygon id="path-3" points="-7.10542736e-15 0 61.0665914 0 61.0665914 43.1670546 -7.10542736e-15 43.1670546"></polygon>
    </defs>
    <g id="home" stroke="none" stroke-width="1" fill="none" fill-rule="evenodd">
        <g id="home备份" transform="translate(-944.000000, -260.000000)">
            <g id="title_山海经" transform="translate(944.000000, 260.000000)">
                <g id="编组" transform="translate(3.727070, 104.013000)">
                    <mask id="mask-2" fill="white">
                        <use xlink:href="#path-1"></use>
                    </mask>
                    <g id="Clip-2"></g>
                    <path d="M31.8718119,13.393 C30.9318119,15.83 28.6228119,17.694 30.4708119,20.331 C31.2578119,21.454 32.7338119,21.21 33.4378119,20.131 C35.0578119,17.648 34.1848119,15.524 31.8718119,13.393 M25.1608119,34.769 C28.9988119,33.583 32.6098119,35.273 36.1068119,32.279 C33.9018119,30.434 33.3558119,26.871 29.8478119,27.4 C26.4838119,27.907 26.1548119,31.14 25.1608119,34.769 M45.2908119,19.854 C42.9078119,24.649 38.0428119,23.015 35.4608119,26.809 C39.3768119,27.981 41.1228119,31.423 44.5288119,33.684 C46.9168119,29.516 46.5958119,25.598 45.2908119,19.854 M42.4438119,2.84217094e-14 C51.2698119,0.238 52.3848119,1.432 52.3468119,10.387 C52.3378119,12.514 52.5198119,14.641 52.6128119,16.719 C62.3308119,17.112 62.7008119,17.34 63.5678119,23.506 C59.7838119,23.998 55.3368119,21.955 52.3338119,25.405 C50.7518119,27.222 51.4208119,29.811 52.0308119,32.399 C55.6988119,32.789 59.7328119,32.416 62.5108119,35.554 C63.6898119,36.887 63.5598119,38.621 63.2148119,40.331 C60.5228119,42.175 58.0798119,40.47 55.6078119,39.8 C52.6608119,39.001 50.5138119,38.994 49.9138119,42.899 C48.9778119,49.003 46.3378119,54.202 40.2158119,57.35 C39.2388119,55.965 38.2978119,54.24 36.9898119,52.863 C34.6178119,50.365 35.2138119,48.922 38.2398119,47.805 C41.7448119,46.511 43.1468119,43.638 43.9198119,39.56 C35.1548119,37.336 27.2608119,39.06 19.7518119,43.45 C16.7828119,39.221 20.0938119,35.867 20.7218119,32.011 C17.6748119,31.057 15.7358119,29.065 15.2718119,24.647 C11.9768119,29.868 12.2168119,34.601 10.0288119,38.532 C8.01381195,42.151 6.19081195,47.686 2.19981195,46.683 C-1.54618805,45.742 0.645811945,40.03 0.560811945,36.373 C0.549811945,35.89 0.722811945,35.402 0.847811945,34.709 C9.08981195,33.452 10.3818119,25.543 14.4708119,20.227 L15.4808119,20.104 C15.4468119,23.491 17.5738119,24.172 20.3728119,24.01 C28.1848119,21.799 26.2498119,14.886 27.4318119,9.258 C30.5028119,9.413 33.5898119,9.724 36.7358119,9.534 C41.1628119,9.267 42.8388119,12.645 40.7368119,16.633 C40.2108119,17.632 38.6208119,17.837 38.7848119,19.32 C46.1138119,19.403 46.3188119,19.225 46.3598119,12.624 C46.3668119,11.461 46.3498119,10.297 46.3098119,9.134 C46.1758119,5.189 44.6428119,3.537 40.6538119,5.544 C37.8448119,6.958 34.9258119,7.877 31.5148119,6.254 C34.6738119,2.814 39.0648119,2.284 42.4438119,2.84217094e-14" id="Fill-1" fill="#000000" mask="url(#mask-2)"></path>
                </g>
                <g id="编组" transform="translate(6.048282, 0.000000)">
                    <mask id="mask-4" fill="white">
                        <use xlink:href="#path-3"></use>
                    </mask>
                    <g id="Clip-4"></g>
                    <path d="M38.328,25.4074 C43.057,25.6154 46.351,24.4084 46.465,18.6814 C46.524,15.6434 49.035,13.2934 51.708,12.6734 C54.174,12.1014 56.241,14.3884 57.794,16.4014 C62.249,22.1774 62.09,33.0014 57.717,38.9904 C56.373,40.8314 55.051,40.7204 53.496,39.6964 C52.832,39.2594 52.349,38.5214 51.841,37.8754 C49.956,35.4814 50.48,31.2194 46.843,30.3534 C43.839,29.6374 41.093,32.5114 38.31,32.5024 C27.724,32.4654 19.667,39.1514 10.31,42.2994 C3.642,44.5434 0.706,42.5304 -7.10542736e-15,35.1404 C0.809,31.6274 4.486,29.7574 5.144,26.1574 C5.19,25.4464 5.235,24.7354 5.281,24.0244 C5.288,23.8244 5.252,23.6324 5.17,23.4494 C8.934,21.7544 12.559,21.6764 15.945,24.3794 C17.247,27.6104 19.964,27.3444 22.66,27.0704 C25.434,26.7884 25.942,24.6764 26.294,22.4604 C26.745,17.8354 28.418,13.2634 24.112,9.0964 C21.618,6.6834 27.087,0.3974 31.883,0.0514 C40.295,-0.5556 44.047,4.2224 41.528,12.1284 C40.176,16.3744 39.128,20.7174 37.943,25.0164 C37.944,25.0174 37.912,25.4204 37.912,25.4204 L38.328,25.4074 Z" id="Fill-3" fill="#000000" mask="url(#mask-4)"></path>
                </g>
                <path d="M16.6525819,219.1926 C18.4975819,219.4666 20.4015819,219.7026 21.2915819,217.7466 C21.9745819,216.2446 21.1995819,214.8996 19.2325819,214.5636 C17.7985819,215.6356 16.5205819,216.7926 16.6525819,219.1926 M8.58258186,228.7696 C7.96458186,225.7996 7.53458186,222.9016 9.20358186,221.1296 C13.6685819,216.3876 11.9235819,213.7556 6.53458186,211.9636 C7.38658186,206.3496 12.2555819,203.2046 13.7925819,198.2966 C14.3805819,196.4196 15.5635819,194.7356 16.2365819,192.8766 C16.8085819,191.2966 17.4415819,189.9746 19.3645819,190.6506 C21.5575819,191.4216 20.6645819,192.8206 19.9465819,194.2396 C18.4445819,197.2096 16.8505819,200.0886 14.7905819,202.7376 C12.9965819,205.0436 11.8835819,207.5986 15.4025819,210.7036 C18.2215819,202.7246 24.3205819,196.7396 25.5515819,188.3536 C30.2155819,189.3976 31.0575819,190.9336 28.7015819,195.5616 C26.2985819,200.2796 23.7515819,204.9226 21.0525819,210.0036 C26.1875819,213.4216 30.1605819,217.5996 28.5895819,225.0856 C25.2455819,222.1046 21.6755819,221.8666 18.3665819,223.7726 C15.2265819,225.5826 12.0965819,227.2626 8.58258186,228.7696" id="Fill-5" fill="#000000"></path>
                <path d="M29.9191819,241.8489 C32.1461819,240.4769 34.5101819,240.4479 36.7751819,240.0629 C39.5141819,239.5969 41.2271819,237.9579 42.1541819,235.4289 C43.2231819,232.5169 42.5641819,230.7599 39.0821819,231.2939 C37.0711819,231.6029 35.1031819,232.1649 33.9071819,229.6919 C34.6271819,227.4789 36.7981819,227.5539 38.3841819,227.2689 C41.7021819,226.6729 44.8481819,225.8349 47.7511819,224.0709 C48.5581819,223.5799 49.6421819,223.1609 50.5311819,223.2659 C52.9091819,223.5499 56.3671819,223.3119 56.4061819,226.4919 C56.4531819,230.2659 53.1351819,228.5059 51.0381819,228.5779 C50.4151819,228.5989 49.8001819,228.8589 49.3881819,228.9589 C48.1941819,230.7859 49.8701819,232.0439 49.7311819,233.4609 C49.6061819,234.7459 49.1331819,235.9979 48.6771819,237.7989 C51.6071819,237.2409 54.2701819,236.6159 56.9661819,236.2559 C59.1201819,235.9679 61.2751819,236.1949 63.2961819,237.1989 C64.6561819,237.8739 65.3111819,238.8769 65.1271819,240.3889 C64.9431819,241.8909 64.0981819,242.7899 62.6081819,243.0759 C62.2821819,243.1379 61.9021819,243.3219 61.6331819,243.2199 C52.2121819,239.6939 43.0261819,243.1259 33.7531819,244.0929 C32.3121819,244.2439 30.6921819,244.1699 29.9191819,241.8489" id="Fill-7" fill="#000000"></path>
                <path d="M46.9689819,95.842 C40.5389819,95.109 36.4369819,97.92 33.8049819,103.785 C31.8139819,108.222 26.5059819,109.853 24.1039819,114.158 C23.4899819,115.258 22.0209819,114.795 20.9699819,114.11 C21.3239819,110.141 23.7689819,107.123 25.6579819,103.861 C27.8009819,100.16 30.8659819,96.971 31.5519819,92.479 C32.0859819,88.975 33.7259819,86.497 37.8489819,87.204 C42.5709819,88.014 40.4499819,91.548 40.4029819,94.237 C42.9879819,94.495 44.4479819,92.686 46.2449819,91.611 C47.5099819,90.854 48.7249819,89.834 50.1019819,89.483 C52.3499819,88.91 55.2779819,88.449 55.8989819,91.447 C56.5559819,94.621 53.8859819,95.016 51.3549819,95.117 C49.8849819,95.176 48.4299819,95.589 46.9689819,95.842" id="Fill-9" fill="#000000"></path>
                <path d="M35.8029819,199.6194 C38.1689819,203.0114 38.1579819,206.3694 35.9859819,209.8314 C34.1619819,212.7344 36.9939819,214.7794 37.8139819,217.0984 C39.0419819,220.5794 38.9299819,223.1774 35.0169819,225.1244 C32.7579819,222.0214 31.9489819,218.1524 29.9219819,214.9004 C28.2699819,212.2474 31.5639819,208.4444 32.8119819,205.2814 C34.0759819,202.0714 34.0269819,199.9104 30.5749819,198.1194 C37.7679819,194.2604 45.1659819,192.1454 52.3789819,189.5674 C52.8449819,189.4004 53.3319819,189.1834 53.8109819,189.181176 C56.0839819,189.1704 58.5499819,189.5564 58.6939819,192.2344 C58.8299819,194.8044 56.2589819,194.6754 54.5739819,194.5264 C47.9009819,193.9384 41.7099819,194.9994 35.8029819,199.6194" id="Fill-11" fill="#000000"></path>
                <path d="M6.11648186,98.1238 C8.04148186,96.8978 9.61548186,93.0708 12.0544819,95.3128 C14.4604819,97.5218 19.2124819,98.5588 18.2364819,103.5488 C18.1034819,104.2268 18.6594819,105.0518 18.9364819,105.7938 C20.4424819,109.8358 17.7394819,110.4288 14.8774819,110.4308 C13.2854819,110.4308 11.6934819,109.6678 10.1014819,109.2488 C7.75948186,105.9038 6.36648186,102.2188 6.11648186,98.1238" id="Fill-13" fill="#000000"></path>
                <path d="M48.7834819,199.7717 C43.8074819,204.9947 46.6124819,210.6447 47.6914819,216.2197 C48.1444819,218.5657 48.6484819,220.9247 44.4494819,221.7507 C44.4964819,214.7737 36.1994819,209.0427 42.6404819,201.3617 C43.0094819,200.9237 42.9034819,200.0917 43.0264819,199.4457 C43.1424819,198.8337 43.2694819,198.2227 43.3674819,197.7347 C45.6324819,196.7847 47.1374819,197.4517 48.7834819,199.7717" id="Fill-15" fill="#000000"></path>
                <path d="M52.3059819,216.2698 C54.3529819,211.4548 53.9999819,210.7028 49.5999819,210.0928 C49.7679819,206.0458 52.4859819,202.8028 53.2369819,198.9308 C53.5839819,197.1398 54.1359819,197.2468 57.6469819,199.3638 C55.5359819,203.0128 53.0649819,206.6738 58.3169819,210.1348 C61.4089819,212.1718 61.8999819,215.4508 59.0739819,218.2438 C56.0119819,221.2698 54.5979819,217.5508 52.3059819,216.2698" id="Fill-17" fill="#000000"></path>
                <path d="M2.12918186,113.175 C2.12918186,113.505 2.16118186,113.832 2.22418186,114.156 C2.17118186,116.52 3.16118186,117.934 5.68018186,117.973 C9.06318186,118.026 9.98318186,120.422 10.6861819,123.127 C11.1171819,124.789 10.3141819,125.522 8.98018186,126.173 C5.92318186,127.664 3.75318186,126.017 2.11618186,123.909 C-0.558818137,120.462 -0.852818137,116.748 2.12918186,113.175" id="Fill-19" fill="#000000"></path>
                <path d="M22.6779819,228.2131 C28.7619819,227.6271 31.7039819,230.0221 30.9599819,234.3161 C30.6809819,235.9261 30.3379819,237.8131 28.1059819,237.7001 C26.2009819,237.6061 25.0049819,236.4441 25.1839819,234.4311 C25.3859819,232.1501 24.2399819,230.3911 22.6779819,228.2131" id="Fill-21" fill="#000000"></path>
                <path d="M2.17898186,235.55 C5.41198186,233.878 7.73698186,235.603 10.4739819,234.808 C9.83298186,237.954 11.6769819,242.054 8.17098186,242.608 C3.94998186,243.275 4.49098186,238.159 2.17898186,235.55" id="Fill-23" fill="#000000"></path>
                <path d="M17.4387819,240.4055 C14.8627819,239.6105 15.0957819,237.6055 14.4597819,236.1745 C13.8627819,234.8285 13.5497819,233.3555 12.9857819,231.5255 C15.5417819,231.5285 18.2207819,231.4155 19.4727819,233.7615 C20.7737819,236.1985 19.4627819,238.4985 17.4387819,240.4055" id="Fill-25" fill="#000000"></path>
            </g>
        </g>
    </g>
</svg>