<?xml version="1.0" encoding="UTF-8"?>
<svg width="130px" height="325px" viewBox="0 0 130 325" version="1.1" xmlns="http://www.w3.org/2000/svg" xmlns:xlink="http://www.w3.org/1999/xlink">
    <title>title_菜根谭</title>
    <defs>
        <polygon id="path-1" points="0 0 1 0 1 1 0 1"></polygon>
        <polygon id="path-3" points="0 0 1 0 1 1 0 1"></polygon>
        <polygon id="path-5" points="0 2.13162821e-14 1 2.13162821e-14 1 1 0 1"></polygon>
        <polygon id="path-7" points="0.062 0 0.938 0 0.938 1 0.062 1"></polygon>
    </defs>
    <g id="home" stroke="none" stroke-width="1" fill="none" fill-rule="evenodd">
        <g id="home备份" transform="translate(-290.000000, -41.000000)">
            <g id="title_菜根谭" transform="translate(290.000000, 41.000000)">
                <g id="编组" transform="translate(105.000000, 0.000000)">
                    <mask id="mask-2" fill="white">
                        <use xlink:href="#path-1"></use>
                    </mask>
                    <g id="Clip-2"></g>
                    <path d="M1,-0.000382555471 L0.0975609756,-0.000382555471 C0.0650406504,0.311400153 0.032068654,0.623182862 0,0.935921959 C0.189250226,0.95696251 0.378500452,0.97800306 0.568202349,1 C0.711833785,0.666220352 0.856368564,0.333397093 1,-0.000382555471" id="Fill-1" fill="#000000" mask="url(#mask-2)"></path>
                </g>
                <path d="M64.526,300.543 L64.517,300.457 C64.503,300.468 64.489,300.48 64.474,300.491 L64.526,300.543 Z" id="Fill-3" fill="#000000"></path>
                <path d="M74.395,261.598 L74.605,261.425 L74.599,261.402 C74.595,261.402 74.591,261.403 74.586,261.404 L74.395,261.598 Z" id="Fill-5" fill="#000000"></path>
                <path d="M75.6265,261.5345 C75.5465,261.5025 75.4615,261.4785 75.3735,261.4655 C75.4575,261.4885 75.5415,261.5125 75.6265,261.5345" id="Fill-7" fill="#000000"></path>
                <path d="M75.0848303,261.668 C75.4081836,261.609 75.7215569,261.573 76,261.616 C75.6666667,261.524 75.3333333,261.431 75,261.332 L75.0848303,261.668 Z" id="Fill-9" fill="#000000"></path>
                <path d="M103.541,283.454 C103.519,283.458 103.493,283.459 103.471,283.463 C103.464,283.492 103.467,283.516 103.459,283.546 L103.541,283.454 Z" id="Fill-11" fill="#000000"></path>
                <path d="M80.0180748,279.414617 C79.5833044,279.50476 79.3950039,279.282408 79.3452302,278.883375 L79.3848093,278.796236 C79.0681765,278.761982 78.750944,278.727127 78.4337116,278.692873 C78.2442117,278.742752 78.0577101,278.801645 77.8748067,278.870755 C77.4010569,278.831693 76.8277597,278.593715 76.7875809,279.418824 C76.742005,279.603917 76.6772392,279.783001 76.5932835,279.954273 C73.7903638,281.502328 71.4821828,279.150198 68.8963485,278.941066 C68.2115102,278.885778 68.0807792,278.099131 68.2906684,277.512 C68.8459751,275.964545 70.1676771,276.478961 71.2890848,276.483769 C73.6512373,276.599152 76.0121904,276.714535 78.3737432,276.829918 C78.5698397,276.042068 79.1047572,276.237979 79.6270813,276.395429 C80.1482061,276.338939 80.6801252,276.263219 80.7898672,277.00119 C81.0093513,277.196499 81.2288354,277.391208 81.4483195,277.585917 C82.3550406,277.201908 82.2411008,275.420082 83.7666951,275.882215 C84.5930587,275.84796 85.4200219,275.814307 86.2463855,275.780053 C89.3377529,275.17309 90.2258838,275.723563 90.0135959,278.112352 C90.5713014,279.722906 90.3500183,280.218092 89.0007309,280.096699 C88.2709163,280.031195 87.6184609,279.316662 86.7998932,279.80704 C84.5139005,280.11593 82.2117163,280.697652 80.0180748,279.414617 M66.2391518,267.286181 C67.0811072,266.53499 67.8499011,266.031391 68.8975479,266.609508 C70.6162402,265.563249 72.4962473,266.438237 74.2797054,266.154587 C76.7977755,265.054843 79.4597697,265.77178 82.0468034,265.536206 C83.6407616,264.407616 85.2335204,264.705689 86.8262792,265.539211 C88.5359763,264.144999 89.7227495,265.238133 90.6360672,266.52898 C91.6489323,267.959249 90.4567619,269.236274 89.6687781,270.141911 C88.970147,270.944183 87.8115589,270.793945 87.8091602,269.20863 C87.7599861,269.442401 87.6964197,269.640716 87.4325591,269.369085 C84.5960571,270.291548 81.7547576,271.273505 78.6957732,270.420753 C77.6403306,270.924953 76.8463499,272.100417 75.4376938,271.685158 C74.420631,272.074576 73.4527421,271.519896 72.4554688,271.529511 C70.9244774,271.634678 69.2273737,272.378658 68.2324991,270.42496 C65.7348182,270.483252 66.9089981,268.365493 66.2391518,267.286181 M89.0487055,250.95528 C86.9732017,250.439062 89.0864856,249.041245 88.5905475,248.151834 C88.1845619,248.045465 87.9135051,247.779844 88.0250461,247.368792 C88.0700224,247.20353 88.4196378,247.121801 88.6301266,247.00161 C88.9905362,246.88803 89.2747861,246.708946 89.2639918,246.272053 C88.6523149,245.641052 88.1137993,244.974595 88.1461822,243.6537 C89.8139014,243.737233 91.7748658,240.542566 92.9340536,244.54912 C92.9082672,244.945749 92.8824808,245.341777 92.8566944,245.737806 C92.8387039,246.136838 92.8201138,246.535871 92.8015236,246.934904 C92.529867,247.648235 92.1790523,248.342336 92.0021457,249.078504 C91.6129513,250.701678 90.5335214,251.324266 89.0487055,250.95528 M80.3299101,237.940439 C80.0756444,238.316035 79.820779,238.69163 79.5659136,239.067827 C79.7218313,241.341833 78.0481152,241.323805 76.8595429,240.73427 C75.613401,240.115889 73.0527534,239.891133 74.4398208,237.244535 C74.4722037,236.380965 74.3480693,235.474127 74.5711515,234.663441 C75.0017241,233.099161 75.8916541,232.552293 77.2295475,233.914654 C80.9925602,233.373796 81.6360204,234.209121 80.3299101,237.940439 M79.8447664,249.745562 C80.0462599,252.127139 79.0627793,252.93482 76.5021317,252.431221 C74.5135819,253.214864 73.5414953,252.734703 73.4989178,250.394591 C73.4689336,248.791849 72.8686506,247.198723 73.5648829,245.604394 C75.1504455,242.806957 77.7692625,244.330373 79.9167284,243.957782 C80.5505936,245.08517 79.6168867,245.407882 79.1119534,245.926505 C78.9128585,246.239601 78.7143634,246.553299 78.5152685,246.866996 C79.0561828,247.779844 79.748817,248.606756 79.8447664,249.745562 M67.0433271,251.388568 C66.6493352,251.820052 65.7797944,251.745534 65.789989,251.684838 C66.0226662,250.341106 64.2266147,248.856752 66.2679366,247.482372 C66.7422861,248.808075 68.5407363,249.747966 67.0433271,251.388568 M114.995203,288.982392 C113.31489,287.699958 111.045089,287.125447 110.136568,284.916343 C108.900022,284.614665 108.43047,286.234834 107.250892,286.073779 C106.909073,287.018477 105.963372,287.252248 105.261743,287.773274 C104.880944,290.092953 103.959831,291.859755 101.210283,291.75579 C100.672966,292.210111 100.050495,292.068286 99.4406173,292.010595 C96.9693225,292.481742 94.4296637,293.622351 92.2432184,291.279235 C90.9652933,292.104343 89.6387939,292.757579 88.0472344,292.486549 C86.0263017,292.964307 85.361253,291.528029 84.6392343,290.106174 C83.9513975,288.750424 84.6152469,287.919306 85.6359079,287.181335 C85.003242,286.382068 84.8365301,285.60143 85.7840297,284.919949 C86.7998932,284.18919 87.9560826,283.999289 89.1068748,284.411542 C90.2432746,284.818989 89.9740168,285.769095 89.7155533,286.642881 C89.7479362,287.019078 89.7797195,287.395275 89.8121024,287.77087 L89.9578254,287.864018 L89.9026545,288.028078 C91.1805796,288.145264 91.5331934,289.323733 92.2498149,290.085141 C93.3982084,289.689714 94.7840765,290.878399 95.7933435,289.552095 C96.5387498,288.711963 97.3057448,287.942142 98.5452901,288.69093 C98.7863628,286.430745 100.682561,285.206002 101.781181,283.48307 C101.932901,282.824425 102.481611,282.956034 102.929575,282.885722 C103.249806,281.425406 100.199816,281.895352 101.258257,280.012566 L101.820161,278.763785 C101.824358,278.370161 101.829156,277.977137 101.833953,277.584114 C101.904116,276.93869 101.974279,276.293868 102.045042,275.649045 C101.642055,275.082947 101.956289,274.525263 102.063632,273.964573 C100.903245,271.95078 101.151514,269.772925 101.338615,267.604687 C101.342813,267.556009 101.510724,267.46827 101.573091,267.488102 C101.737404,267.540986 101.884327,267.644349 102.038445,267.727281 L102.033648,267.634734 L102.780254,266.967676 C102.091817,266.405785 102.128398,265.918412 102.928975,265.509764 C102.80544,264.388986 103.930446,263.983944 104.281861,263.135999 C104.122944,262.575911 104.103155,262.065702 104.759808,261.798278 C104.565511,261.639025 104.371213,261.479772 104.177516,261.321121 C103.635402,261.437706 103.18444,261.337947 102.921779,260.789878 C101.438162,259.871622 100.878058,258.214193 99.8244146,257.143896 C100.002521,255.767112 101.188094,255.898721 101.82076,255.341637 C102.274721,254.567009 103.043515,253.949229 103.017728,252.934219 C102.90139,250.330289 102.848018,247.741984 104.805384,245.650066 C102.245936,243.337599 104.629677,241.613464 105.508213,239.709645 C105.292927,239.115302 105.07824,238.52096 104.863553,237.926016 C104.765805,237.762557 104.744816,237.590083 104.801186,237.407994 C102.42764,235.912823 99.8711899,235.115959 97.0412844,235.36235 C96.8781706,236.121354 96.3966249,235.841911 95.9564574,235.69648 C96.3210648,237.558233 95.0401413,238.250531 93.6572716,238.423004 C92.2390206,238.599684 90.6258726,239.447629 89.3509459,237.853301 C88.5509684,236.854517 87.9398911,235.943472 89.1656438,234.863559 C89.3755329,234.462122 89.5854221,234.060685 89.7953112,233.659249 C90.6246732,231.650263 92.3073845,231.735598 94.0320737,231.924297 C96.4218116,230.74102 98.8313391,230.995224 101.249262,231.818529 C101.626463,231.870211 102.003064,231.921292 102.379665,231.972974 C102.605146,231.987397 102.830027,232.00182 103.055508,232.016844 C103.255203,229.860624 105.508813,229.631661 106.552861,228.267497 C105.927991,226.616078 105.459039,224.882329 103.466291,224.238107 C102.576361,223.950851 102.903189,223.0987 102.954162,222.426233 C101.737404,222.850506 101.330819,221.496559 100.379122,221.247764 C98.793559,220.834308 97.4268808,220.761593 96.5531422,222.45568 C96.1621487,224.888338 94.7408993,226.239882 92.3049858,226.525935 C92.0837027,227.186984 91.57757,227.132297 91.051048,227.02713 C88.6930933,227.715822 86.277569,227.739861 83.8524498,227.647314 C82.0486025,227.125086 80.2627456,229.272291 78.4517021,227.685174 C77.4124509,227.652121 76.5513057,228.576988 75.4568837,228.242257 C74.0308368,228.295742 72.7739007,229.510268 71.2447083,228.86184 C68.8135922,229.851009 67.3167827,227.628083 65.318638,227.128691 C65.3132408,228.234445 64.5618377,228.255478 63.7342747,228.301752 C60.6507032,228.474225 57.5701302,228.693573 54.4889574,228.894892 C51.0167911,230.579965 50.998201,230.649676 52.8398283,235.38158 C53.0341257,235.469921 53.2290228,235.55766 53.4233202,235.646 C54.353429,235.627971 55.2835378,235.609943 56.2136465,235.591914 L58.1002502,235.540833 C59.1389016,235.422445 59.8459282,233.896625 61.1304499,234.823295 C62.9588842,234.789642 61.4326902,236.082893 61.8350777,236.613534 C61.9664084,236.591299 62.0833466,236.624351 62.1840934,236.712692 C62.3639984,236.057052 62.7597894,235.605135 63.4158429,235.398407 C64.3669406,234.819088 64.8328945,232.875005 66.4952166,234.299264 C67.3701545,235.337711 66.642139,236.530603 66.6817181,237.612318 C66.8124491,241.234864 65.4655604,242.123673 61.7151411,241.311786 C60.97873,241.518514 60.2219297,241.953003 59.5101056,241.889302 C57.4046176,241.699401 56.229838,242.628474 55.7075138,244.583375 C56.0757194,245.99922 55.2703447,247.395835 55.7153097,248.847738 C56.1932573,250.410817 54.3264432,249.754576 53.9318516,250.54543 C53.9240557,250.738937 53.9168595,250.931843 53.9090637,251.12535 C57.3392521,252.024376 55.7698809,254.496096 55.5995709,256.52852 C55.834047,256.888491 56.0679235,257.248462 56.3012003,257.609033 C59.2504427,258.506857 62.2314684,258.229217 65.2142931,257.848814 C65.8925349,257.810353 66.558783,257.822973 67.1044948,258.31936 C67.6861876,258.437748 68.1131621,259.076561 68.8045969,258.824762 C68.7602204,257.302547 69.7610918,257.609634 70.6684126,257.753863 C71.6440973,257.48704 72.5070416,256.544745 73.6464398,257.249062 C74.3090899,257.203991 74.4374221,257.73283 74.6419141,258.18054 C76.16451,256.27011 78.0433177,257.693167 79.7632094,257.628865 C80.12182,257.664321 80.4804306,257.699777 80.8390413,257.734633 C81.4465204,257.727421 82.0539996,257.719609 82.6608791,257.711796 C83.4350702,257.877659 84.2656316,257.943764 84.6290397,258.833175 C84.762769,258.853607 84.8815063,258.90589 84.9864509,258.991226 C85.2233258,258.975601 85.4602007,258.959976 85.6976753,258.944351 C86.8196827,255.270725 89.6118081,257.877659 91.624945,257.100026 C91.0450512,260.341567 89.5272528,261.388428 85.675487,261.445518 C82.1091705,262.447908 78.593827,262.157047 75.1036702,261.214151 C75.2655847,261.280256 75.3975151,261.413668 75.4748742,261.672077 C75.1354535,262.128201 74.6820929,261.971953 74.2419254,261.896834 C73.5972658,262.636006 72.7990874,262.786244 71.8899675,262.515215 C71.6824771,262.53144 71.4749866,262.548267 71.2662969,262.563892 C70.5472766,262.465336 70.0957151,262.032649 69.8108655,261.391432 L69.5871836,261.448523 C68.7536239,262.924464 67.6628,262.759202 66.4694302,261.940102 C64.3183662,263.166047 63.2191468,261.753206 62.1685016,260.216569 C60.4528077,259.727994 58.70653,259.613813 56.9368646,259.7947 C57.2421034,260.729783 56.5452714,261.03687 55.9353935,261.398043 C55.7416958,261.779648 56.0979077,261.829527 56.2856085,261.981568 C57.0615987,262.188897 58.0162945,262.618579 57.9173468,263.371573 C57.5809244,265.946657 58.5434161,268.545178 57.6990621,271.08721 C57.6516871,271.439368 57.6049118,271.792128 57.5575368,272.144887 C57.5833232,272.661707 57.6091096,273.177926 57.6348959,273.694145 C59.4879173,275.99279 58.1104448,278.703089 58.5841946,281.177213 C58.6195759,283.579222 58.6555569,285.980631 58.6909382,288.38204 C59.5430882,290.125405 61.3151523,290.566504 62.8557387,291.33332 C64.6014168,289.906057 65.2976491,287.78349 66.4112609,285.936761 C67.0823065,285.088817 67.9470498,285.152518 68.853771,285.415735 C69.0624608,285.420543 69.2711505,285.42535 69.4798403,285.430158 C70.0555363,285.44398 70.6312323,285.457201 71.2069282,285.471023 C72.2215923,285.600829 73.3190128,284.994467 74.2563178,285.81597 C74.9315611,286.550335 74.8386102,287.484216 74.856001,288.360405 C74.8889836,290.098963 75.6211969,292.218524 72.989187,292.776209 C70.8111372,293.23714 68.5353391,293.839896 66.979161,291.413848 C66.017269,291.606754 65.055377,291.79966 64.093485,291.992566 C63.4164426,293.69747 61.664168,293.131973 60.4600039,293.724513 C58.2585666,293.865136 56.4619154,292.611548 54.4853593,291.977542 C54.4907564,292.170448 54.4829606,292.361551 54.4637707,292.553255 C54.4925555,293.386777 53.8059181,293.493146 53.2614057,293.743743 C53.1072871,293.818862 52.9459723,293.869343 52.7774613,293.895784 C52.1855739,294.580871 51.5930868,295.265357 51,295.950443 C53.7345558,295.678211 53.6350084,298.652328 55.2415599,299.672146 L55.5024222,299.669141 C57.0280165,298.39512 58.9020267,300.148702 60.4528077,299.095832 C61.5664196,298.935377 62.6806312,298.775524 63.926773,298.59644 C63.9927382,299.244868 64.0491084,299.79474 64.1054787,300.341608 L64.7135575,299.843417 C65.2316839,298.876484 65.8571536,299.003886 66.5353954,299.663132 C66.6853162,299.670944 66.8346373,299.66193 66.9827591,299.636089 C68.660673,297.383716 71.2069282,298.208825 73.265641,298.284545 C74.6527084,298.335626 76.0727584,299.785125 75.6193979,301.958772 C75.321955,303.385435 75.528246,304.917866 75.5084565,306.40222 C75.8970512,309.766355 74.6149284,313.266306 77.1671805,316.489819 C78.1494617,317.730186 80.085839,317.259039 80.3706886,319 C81.4789033,318.150853 81.9190709,316.657485 83.2389738,316.012061 C83.7966793,314.82578 84.3825698,313.661133 85.5837355,312.973642 C87.4211651,312.003103 85.0662088,309.793999 86.8106875,308.795215 C86.1972115,306.863752 84.8988971,305.009811 86.1414409,302.868015 C85.4500061,301.926922 85.4643985,300.878259 85.6724886,299.798947 C85.3276707,298.344039 85.4907846,297.249704 87.381586,297.38612 C89.6046119,296.202844 91.8252392,295.2299 94.0164819,297.449821 C94.1939882,297.384317 94.3762919,297.362082 94.5639928,297.381914 C94.6053709,297.192613 94.6545449,297.006318 94.7127142,296.821825 C95.6937961,295.414393 97.0982544,296.658366 98.2400513,296.253925 C100.418701,295.78458 102.73048,296.272554 104.842564,295.327255 C105.830243,293.827276 107.132755,294.264169 108.440664,294.738922 C109.49011,295.214276 110.480787,295.14156 111.505645,294.583275 C112.171894,294.219698 112.979667,293.831483 113.424632,294.951659 C113.424632,294.951659 113.438425,294.744931 113.436026,294.746734 C113.217142,294.374143 113.405442,294.202872 113.752659,294.110926 C113.54277,293.411416 114.188629,293.097719 114.430301,292.601331 C114.373331,292.419243 114.385924,292.241361 114.468081,292.068887 C114.487271,291.796655 114.50766,291.524423 114.52685,291.252192 C114.45129,291.08693 114.437497,290.917461 114.486671,290.742583 C114.378728,290.222158 114.14845,289.64945 115,289.543081 C114.906449,289.356786 114.90465,289.169889 114.995203,288.982392" id="Fill-13" fill="#000000"></path>
                <path d="M87,162.300838 C86.6669435,162.422838 86.3330565,162.544838 86,162.666838 C86.5033223,162.773838 86.8347176,162.605838 87,162.300838" id="Fill-15" fill="#000000"></path>
                <path d="M71.423,189.4645 C71.429,189.4905 71.437,189.5095 71.443,189.5355 C71.488,189.5315 71.529,189.5325 71.577,189.5275 L71.423,189.4645 Z" id="Fill-17" fill="#000000"></path>
                <path d="M80.54,162.441 C80.514,162.449 80.487,162.458 80.46,162.466 C80.472,162.498 80.48,162.525 80.493,162.559 L80.54,162.441 Z" id="Fill-19" fill="#000000"></path>
                <path d="M69.4155365,147.630057 C70.1917579,146.707879 71.0221763,145.878099 72.3506048,145.900444 C73.7428654,145.085762 75.237498,145.313438 76.7255066,145.465625 C76.9236267,145.441468 77.1211447,145.402214 77.319867,145.396175 C84.5346913,145.197487 85.3795622,146.177641 84.4973556,153.539367 C84.3877572,154.451279 83.9198565,154.410213 83.3002042,154.346198 L83.0231974,154.412628 L82.738362,154.410213 C83.5471016,156.648322 83.2737079,158.205819 80.4277635,158.275874 C78.9662512,158.312108 77.5083521,158.467919 76.0492486,158.56998 C74.2089595,159.400968 72.2319736,158.665399 70.3073781,159.094179 C68.9849715,159.389493 68.4984029,158.191929 68.9211394,156.87479 C68.8844059,155.854174 68.8482746,154.832953 68.8121433,153.812337 C68.763366,151.727017 68.2599361,149.597009 69.4155365,147.630057 M68.7573441,139.915041 L69.4046971,138.210792 C68.7103734,138.002441 68.7573441,137.483678 68.8747709,136.935323 C68.8711578,136.508355 68.8675446,136.081387 68.8645337,135.654419 C68.5935487,134.627763 69.2011572,134.442361 69.9864115,134.427264 C70.1231083,133.384906 69.6172697,132.306313 70.2019951,131.111769 C71.7255328,131.036884 73.3267529,130.413039 74.8243965,131.56229 C75.8029533,130.256625 76.8049955,131.453585 77.7968005,131.53451 C78.362858,131.140757 78.8891711,130.629845 79.6780384,130.881678 C80.6204639,130.198046 81.5893858,128.921369 82.7865372,129.749337 C84.23721,130.751232 83.3152589,132.54184 83.4290726,133.960437 C83.519401,135.090966 83.2688904,136.485406 81.4611195,136.217268 C81.2864848,136.441925 81.11185,136.667185 80.9372153,136.891841 C81.1172697,136.826015 81.2949154,136.830242 81.4707546,136.905731 C82.3065927,137.303712 83.2466094,137.448651 83.3164633,138.782096 C83.3899304,140.181971 82.2373409,140.006232 81.6056449,140.364354 C79.5353197,141.538969 77.1657067,141.513604 74.8785935,141.792613 C73.1346547,142.984742 71.3130335,143.816937 69.0626538,142.99682 C68.4104833,142.064979 68.8922344,140.951359 68.7573441,139.915041 M119.889799,188.234897 C118.488506,186.667737 116.682542,188.195039 115.152982,187.611657 C111.931874,186.835022 108.574069,186.58017 105.542048,185.08246 C104.305153,184.879545 103.128476,184.55343 102.32636,183.474838 C101.798843,183.394517 101.271325,183.314197 100.743206,183.23448 C99.6875687,182.995329 98.1074253,184.130086 97.7388857,182.082813 C97.0463685,182.256137 96.3273551,182.603388 95.7841808,181.786291 C92.7726344,181.696912 90.4957585,180.327836 88.8487721,177.875336 C89.5876577,176.296702 90.5511599,176.178939 91.7386762,177.258739 C92.5203173,176.889143 93.3019584,176.519547 94.0835995,176.150555 C94.1919935,176.073858 94.3112269,176.046077 94.4412997,176.068422 C94.7279416,175.889663 95.0151856,175.710905 95.3024297,175.532146 C95.383123,175.171004 95.5812431,174.951179 95.976279,174.968089 C97.3191601,172.110966 99.6032623,171.336143 102.530502,171.985956 C104.531576,171.55476 105.31141,169.986393 105.950333,168.286371 C105.796774,168.120295 105.643216,167.954218 105.489658,167.788141 C103.937215,167.459008 102.768367,166.588162 101.93012,165.249886 C100.685396,164.294492 99.4400691,163.338494 98.195947,162.383101 C97.2216055,162.307007 96.247264,162.230914 95.2723203,162.155425 L93.1345499,163.577645 C92.0734932,165.341077 90.1175839,166.181727 88.8662355,167.748887 C88.4995025,169.489974 87.1030267,170.502136 86.016678,171.714194 C85.155548,172.676231 84.109546,173.633436 82.6950045,172.922628 C81.4183641,172.281874 80.425957,171.306551 80.799314,169.628875 C80.5987851,169.423544 80.3976541,169.218816 80.1971252,169.014089 C79.5335131,168.950074 78.7410326,169.197076 78.4321098,168.277917 C78.4080222,167.932477 78.3839346,167.587642 78.3592449,167.242202 C77.514374,167.188454 77.2391737,166.580915 77.0536995,165.887016 C76.8820757,165.713693 76.7110541,165.539765 76.5400325,165.365838 C75.1206734,164.703947 74.9604912,166.984934 73.6627743,166.606883 C73.7266063,166.738537 73.7422632,166.875022 73.709745,167.017546 C74.86113,167.873293 75.9053254,168.785809 75.5289574,170.456239 C76.2943394,171.251595 75.798738,172.237788 75.9300152,173.129167 C76.4984814,175.356406 77.8991726,177.346911 77.8070378,179.762571 C78.9198827,181.407636 80.2206106,182.95849 81.0955909,184.722527 C82.0325967,186.612177 81.5351888,188.068217 79.0619993,188.11653 C77.6841912,188.855722 76.3617846,189.743477 74.9105095,190.284585 C73.815128,190.692832 72.2681049,191.703182 71.7508247,189.476547 C70.3146044,189.585252 70.5530712,188.509679 70.5313924,187.6183 C69.9340211,186.462406 69.9749699,185.223172 70.0556632,183.978503 C67.9474001,181.863592 69.407708,180.659385 71.1817563,179.535499 C68.1419071,177.298598 69.5564487,174.131062 69.4661203,171.277563 C68.3611038,169.70376 68.7561397,168.107613 69.3950621,166.507841 C68.5188773,165.685309 68.3755564,164.847075 69.3390585,163.98408 C69.3173797,163.773917 69.3950621,163.611464 69.5709012,163.496116 C70.3344766,162.962859 70.9878515,161.247136 71.9904959,163.26844 C72.1103315,163.229186 72.2289627,163.230998 72.3469917,163.273272 C74.9580824,162.677811 77.5505053,161.584121 80.2368697,162.970106 C80.4181285,162.913338 80.6005917,162.855966 80.7824527,162.799198 C80.2898623,161.471189 81.0769231,161.544262 81.9940567,161.759256 C82.4318479,161.739327 82.8708436,161.719398 83.3086349,161.698865 C84.0926847,161.684371 84.8767346,161.671085 85.6607844,161.657195 C86.1413311,161.586537 86.7254543,161.505008 86.9037022,162.038869 C86.9801801,162.267753 86.9627167,162.477915 86.8627533,162.63131 L87.0391946,162.577561 C87.5076975,162.119794 88.0749594,162.149385 88.6566738,162.245408 C88.6584804,160.023604 90.3470179,160.640805 91.5941509,160.459631 C92.8262293,160.280268 94.0173587,159.560401 95.2982144,160.239806 C95.4722469,159.251197 96.2737603,158.705257 96.8602922,158.008943 C97.3269885,155.576977 97.7936849,153.14501 98.2603812,150.713044 C98.3850343,150.104297 97.4383935,149.568021 98.1393413,148.919416 C99.2828978,146.952464 98.1760748,144.924517 98.3019322,142.929785 C97.2673718,140.839031 97.3053097,138.944549 99.305781,137.409397 L99.4894486,137.494549 C99.4527151,137.050671 99.6815468,136.848963 100.100068,136.821183 C100.05671,136.643632 100.051291,136.465477 100.085013,136.285511 C99.876656,136.141779 99.6676965,135.998047 99.4593392,135.853711 C99.1185003,135.944902 98.5199246,136.182845 98.476567,136.105544 C97.7942871,134.894694 99.394905,134.718955 99.5382259,133.851128 C97.8942504,132.324431 97.8942504,132.324431 100.64264,129.613456 C100.580615,128.190028 101.687438,126.953209 101.297822,125.477241 C99.8832801,124.862455 98.4681364,124.247669 97.0535948,123.632884 C95.4662251,122.602001 93.8788553,121.571117 92.2914856,120.540234 C90.8107033,120.858498 89.0324397,120.042608 87.9039378,121.700355 C87.8364926,122.583883 87.2132272,122.766869 86.4930094,122.827865 C85.4500183,125.256812 83.2140912,126.266558 80.9703357,126.689298 C78.190632,127.214101 75.2892863,127.090902 72.4397288,127.247316 C70.1574331,128.848899 69.7431272,125.623992 68.1051736,125.558769 C67.4487878,125.530385 66.7761428,125.553938 66.2968005,124.974179 C65.4796303,124.879365 64.6004346,124.974783 63.9922239,124.22774 C63.6056187,124.000668 63.2184113,123.773596 62.8312039,123.54592 C61.811096,123.440839 60.7048751,123.869619 59.8003875,123.051314 C59.0199508,123.041651 58.2389119,123.031988 57.4584752,123.022326 C56.8767607,123.525991 57.1615961,124.561705 56.313112,124.902314 L56.9713044,125.70854 C57.888438,127.070369 58.143766,128.601898 58.114861,130.2065 C59.8979421,132.137821 59.1903702,134.670641 59.7184898,136.90392 C59.7269205,137.256002 59.7347489,137.607481 59.7431796,137.959563 C58.6628528,138.785719 59.7022307,140.090176 58.8784364,141.270226 C56.9719066,139.969393 55.3761062,138.435449 54.3861078,136.295777 C54.0067288,136.267997 53.6273498,136.240217 53.2479709,136.212437 C52.4428444,136.261354 51.6383202,136.310875 50.8331937,136.360396 C49.6613342,137.646131 48.3877049,138.737406 46.4835838,138.080346 C45.5748809,137.766914 45.8759753,137.280159 46.4625072,136.861042 C46.5444049,136.678659 46.5486202,136.495069 46.4757554,136.308459 C44.6228203,135.084927 44.3530397,133.452544 45.2509033,131.519412 C45.0497722,130.841819 44.1886422,130.157583 45.2713777,129.493277 C44.6011415,128.501648 44.6908677,127.758832 45.7386762,126.985217 C47.089988,125.986945 48.2913547,124.783342 49.5565534,123.667911 C47.8680159,122.797065 47.0809551,121.22447 46.3944599,119.57397 C43.5906687,119.91639 41.9846311,118.438006 41.0042677,116.006643 L40.804341,116.02778 L40.6056187,116 C39.3350003,117.085839 37.8867361,117.250104 36.3252605,116.832195 C35.5388019,116.946335 35.0413939,117.875157 34.1236582,117.616681 C34.209169,118.946502 33.9568519,119.996107 32.4857046,120.545066 C31.6305964,120.864537 30.6737184,121.312038 30.3816568,122.391838 C30.5550872,122.600793 30.7279154,122.809747 30.9013458,123.018702 C32.3122742,123.880489 33.6136042,124.842526 34.1188407,126.53832 C34.8227994,127.537195 34.6734566,128.623639 34.4410117,129.718537 L34.4482379,130.858729 C34.4765408,133.013498 34.4319788,135.173099 34.5650626,137.321829 C34.630099,138.38472 34.4000628,139.038156 33.3263602,139.265832 C31.6251767,141.622309 29.4253809,140.303962 27.3737236,140.081117 C25.1408075,141.566749 22.9024716,141.740072 20.6569095,140.10769 C20.1920197,139.977244 19.5976593,140.055149 19.4736084,139.372121 C19.2791014,139.318373 19.0851966,139.26402 18.8912918,139.210272 C18.8690108,139.468143 18.847332,139.726619 18.8256532,139.984491 C19.0231712,140.939281 18.5895952,141.25694 17.6965492,141.111397 C17.1082107,141.127098 16.51927,141.142196 15.9309316,141.157898 L15.8514426,141.096299 C14.3893282,142.51248 16.088705,144.536803 14.9138346,146.008545 C15.7412421,146.905359 15.2414254,147.97912 15.3076661,148.977392 C15.5437241,149.573456 15.3142902,149.952715 14.7530502,150.176767 L14.3291093,151.245093 C14.5784155,151.262607 14.8277216,151.279516 15.0770278,151.296426 C15.3353668,151.132161 15.594308,150.967896 15.8532492,150.803027 L16.5499817,151.176851 L16.4879562,151.382786 C17.4647065,150.458192 17.9271875,151.089887 18.301749,151.986097 C19.9896842,151.170812 21.6782217,150.35613 23.3655548,149.540845 C24.1935644,148.929682 25.1919935,149.135014 26.1115358,148.96169 C27.1533225,148.085409 28.2968791,147.499007 29.7132272,147.703131 C30.8874954,146.975413 31.7076766,147.617979 32.0388805,148.611419 C32.4869089,149.958754 31.9605959,151.150882 30.7592292,151.978246 C30.6321674,152.913107 30.4942661,153.844344 29.8433,154.593803 C28.9394146,156.206256 29.1465675,158.763233 26.3313348,158.748135 C26.3716814,158.941992 26.3186888,159.105653 26.1723569,159.239118 C27.0166256,161.849844 24.638582,162.952593 23.6353354,164.699115 C23.47154,168.204843 21.854663,170.320962 19.0117296,170.749741 C19.2953605,171.3603 20.0191915,171.921941 19.6958161,172.62369 C18.1439755,175.988706 16.4325549,179.252867 12.9669582,181.097224 L12.9651516,181.077295 C11.9853904,181.844871 11.8468869,183.849265 9.89218202,183.184355 L5.67204273,185.188749 C6.05021731,185.967196 5.77561921,186.56326 5.1511494,187.060886 C5.16379536,187.25897 5.11381369,187.438937 5,187.60139 C5.11441588,187.740291 5.19029167,187.897309 5.22702519,188.073652 L5.0752736,188.150349 L6.80235115,188.321861 C7.23893805,188.387084 7.87183851,187.977629 7.98926533,188.81526 C8.51557836,189.963906 9.19424517,190.232649 10.2251924,189.317113 C11.0104467,188.619591 11.7963031,187.87738 12.8874692,187.652119 L14.6711525,186.746246 C14.6386343,186.447912 14.7608787,186.324714 15.0589621,186.398391 C15.3407865,186.181586 15.6226109,185.96478 15.9044353,185.747975 L15.8369901,185.770319 C15.8809499,185.582502 15.9134681,185.392873 15.9351469,185.201431 C15.7328114,184.974359 15.5298738,184.747891 15.3269362,184.520819 C15.3022464,184.052785 15.4732681,183.702514 15.9273184,183.524963 C16.1182123,183.336541 16.3097083,183.148724 16.5012044,182.960302 C16.7149814,182.875754 16.9299628,182.791206 17.144342,182.706658 C17.3508928,182.712697 17.5574436,182.718132 17.7633922,182.723567 C17.9229722,182.637208 18.0831544,182.550848 18.2439388,182.464488 L18.244541,182.464488 C18.2638111,182.593122 18.2854899,182.721756 18.3095774,182.849786 C18.6817301,182.808116 19.0538828,182.765238 19.4260355,182.722964 C19.2694664,182.539977 19.1122951,182.356387 18.9545217,182.172797 C19.1478243,181.757303 19.3417291,181.34181 19.5356339,180.925712 C19.778316,180.706491 20.0216003,180.48727 20.2642823,180.268048 C20.454574,180.249327 20.6454679,180.230606 20.8357595,180.211884 C20.8357595,180.211884 21.0754307,180.098952 21.0742263,180.098348 C21.4325287,179.78552 21.7926376,179.4739 22.1521443,179.16228 C22.4767241,178.754033 22.8019061,178.345786 23.1264858,177.93754 C23.0138765,177.389185 23.1981463,176.984562 23.7069959,176.738768 C24.4296225,175.599784 26.0591454,175.579855 26.6793999,174.314653 C26.5950935,174.113549 26.6131591,173.921504 26.7335969,173.739725 C26.9118448,173.531979 27.0894905,173.324232 27.2677384,173.116485 C27.3074829,172.894848 27.3478295,172.673815 27.3869718,172.452178 C27.333377,172.085602 27.4827198,171.924356 27.8536681,171.988975 C28.0758758,171.960591 28.2974813,171.932207 28.5190868,171.903823 C28.6329005,171.21234 28.9641043,170.723169 29.7084097,170.620504 C29.8758182,170.57823 30.034796,170.598763 30.1853432,170.682103 C30.369613,167.726542 32.7699377,166.188974 34.4096979,163.880206 C36.4204063,166.225813 35.7278892,168.826272 35.6465937,171.31561 C35.7477614,171.507051 35.7441483,171.696076 35.6357543,171.88329 C35.7748599,172.76561 35.9874326,173.66182 35.1768864,174.367193 L35.1672514,174.343037 C35.1401529,174.541121 35.1130544,174.739205 35.0859559,174.937289 C35.0973975,175.537581 35.1082369,176.137269 35.1196785,176.73756 C35.8368854,178.291434 35.8555532,179.922609 35.6471959,181.57794 C35.8013562,182.996537 35.523145,184.474921 36.2373409,185.814405 C36.2361366,187.046392 36.8744567,188.342394 35.8736189,189.474131 C36.588417,190.598017 36.5444572,191.813095 36.298162,193.052329 C36.2993664,193.446685 36.3005708,193.841646 36.3017751,194.236002 C36.1650783,195.029547 36.0289836,195.823091 35.8922867,196.616636 C37.6464628,198.077507 36.6179243,200.045666 36.785935,201.780715 C36.9906792,203.893814 36.5583076,206.079987 37.570587,208.092836 C38.7207677,208.356143 38.1980678,209.21491 38.2046918,209.885256 C38.3799288,209.879821 38.5449285,209.917868 38.6996911,210 C40.0985757,209.661808 41.2921139,209.196189 42.0231712,207.699083 C42.5506886,206.616867 43.5003404,205.640336 44.8739331,205.412056 L44.9871446,205.232694 L45.1888778,205.284026 C45.2683668,204.224155 45.3484579,203.16368 45.4297534,202.087503 C46.4323978,201.868282 46.0969786,203.586421 47.1369587,203.164888 C44.8245536,200.127195 46.764806,196.816532 46.5305545,193.645373 C46.3131644,192.060096 46.0945698,190.474215 45.8771797,188.888334 C44.5288789,187.427463 46.0807195,186.03423 45.9765408,184.602348 C44.9690789,184.256304 45.4303556,183.521339 45.5230926,182.883605 C45.5495889,181.789311 44.8510499,180.62617 45.8296067,179.621255 C45.8681468,179.426795 45.9422161,179.246224 46.0494057,179.079543 C45.8627271,178.717194 45.6748442,178.354845 45.4875635,177.992496 C45.4098811,177.796224 45.406268,177.598743 45.4773263,177.399451 C45.4767241,177.146411 45.4761219,176.892163 45.4755197,176.638518 L45.4351731,173.711341 C45.4122899,173.31155 45.3894067,172.912362 45.3659213,172.513174 C44.2157407,170.185081 44.4710688,167.730166 44.7167618,165.275854 C44.0278578,162.818523 43.5111798,160.375083 45.0672357,158.068731 C47.367597,158.388806 47.9553333,159.745803 47.7385453,161.667461 C48.5629418,163.144034 48.4069749,165.033684 49.6878305,166.317608 C49.8865529,166.265671 50.0515526,166.320024 50.1810232,166.480665 C50.3761324,166.40276 50.5670262,166.411215 50.7549091,166.504218 C51.5744881,166.853281 52.3940671,167.201136 53.2136461,167.549595 C53.4201969,167.765797 53.6267477,167.981394 53.8339006,168.196992 C54.2253233,168.259799 54.6173483,168.322606 55.008771,168.385414 C55.1972561,168.332269 55.3845368,168.279728 55.5730219,168.227188 C56.0246636,167.799012 56.4775096,167.166109 56.9195162,168.235643 C57.4795518,167.780291 58.0389852,167.324938 58.5984186,166.869586 C58.7453527,166.82852 58.8916846,166.788058 59.0392208,166.746388 L58.567707,166.600844 C57.7553542,164.822314 58.7983453,163.517857 59.6895848,162.174146 C59.3090014,160.736224 56.8942242,160.646241 57.3651359,158.643658 C57.2681835,158.518044 57.2404828,158.378539 57.2820338,158.225145 C55.3905587,158.210651 51.8304184,155.325748 51.2216055,153.315918 C50.0912971,153.454215 48.9706237,153.561108 48.2793109,152.350258 C48.059512,152.332744 47.9023407,152.22404 47.8071948,152.024748 C47.409148,151.988513 47.010499,151.952882 46.6124522,151.917251 C46.0078546,151.726414 45.6640048,151.292802 45.4875635,150.702777 C45.2948631,150.362169 45.1027648,150.021561 44.9112688,149.680953 C44.8167251,148.870499 45.9392051,149.013023 45.9807561,148.308254 C44.3735142,146.326204 44.5535686,145.263917 47.3140022,144.601422 C49.4891082,144.079036 51.6100173,144.568811 53.7261088,144.217936 C53.9477143,144.365895 54.169922,144.513251 54.3915275,144.66121 C56.0577839,144.498757 57.1098078,143.077141 58.6158821,142.586157 C58.7555899,143.463646 58.8946955,144.340531 59.0344033,145.217416 C60.1875949,146.306879 59.4721946,147.718229 59.6781432,148.970749 C60.0081426,151.464314 59.7431796,154.019479 60.4561711,156.474395 C60.6573022,157.168293 60.0870294,157.539097 59.7775043,158.017398 C61.4070273,159.183558 61.1667539,160.685495 60.5344557,162.25809 C60.484474,164.719648 61.734618,167.191473 60.4790543,169.643369 C61.0222286,170.959904 61.2480494,172.314486 60.9680316,173.730063 C62.142902,179.206969 61.2781589,184.799224 61.8935959,190.311762 C62.0260774,191.495435 61.3179033,192.4309 60.3646384,193.129026 C59.5402419,193.758305 61.5894905,195.271717 59.6263549,195.550122 C58.5592763,197.790043 55.8271456,196.991667 54.339137,198.466428 C54.3192648,199.083629 54.2987904,199.700831 54.2789182,200.318032 C54.1687176,201.823593 56.5612138,202.809182 55.1581138,204.583485 C55.2538619,205.295501 56.3359952,205.455538 56.1330575,206.335443 C56.2799916,207.115701 56.217364,207.964806 56.864717,208.580799 C57.5969786,210.268138 59.3902969,209.047626 60.4296748,209.890691 C60.6199665,209.939005 60.8120647,209.963161 61.0077761,209.963765 C61.5792533,208.995085 62.2982667,208.161078 63.2346704,207.528779 C63.2906739,207.328883 63.3466775,207.128383 63.4032832,206.927884 C63.4960203,204.159536 66.1998481,204.480819 67.6481123,203.315867 C68.0865057,202.557349 68.6290779,201.906329 69.4468503,201.533109 C69.5419961,201.398436 69.6708645,201.339253 69.8340577,201.35435 C70.121904,201.011931 70.4097502,200.668907 70.6981987,200.326487 C70.7831073,199.201393 71.3648217,198.790731 72.4475572,199.099935 C73.7199822,198.369802 74.4143059,196.782109 76.0775514,196.630526 C77.0181704,196.040501 77.9587893,195.449872 78.8994083,194.859847 C79.7906477,193.023341 80.8932555,191.499059 83.2809342,191.87711 C83.4814631,191.683857 83.6825941,191.490604 83.883123,191.297955 L85.0423365,191.127047 C85.9931926,190.457305 86.4893962,191.018342 86.8964759,191.817322 L87.040399,191.73217 C87.180709,191.731566 87.3174059,191.753911 87.4504896,191.797393 L88.0346128,191.738209 C90.4174739,191.912137 92.3492957,193.308389 94.4816463,194.156286 C95.4493638,194.540979 95.1097293,195.481879 95.1621197,196.235565 C95.9503849,195.70412 96.5013877,196.298977 97.1035765,196.64804 C98.272425,195.377402 99.1871498,196.541147 100.178955,196.971134 C101.937346,198.331755 104.198565,198.171717 106.146044,198.960431 C106.111719,198.781068 106.117139,198.602913 106.162303,198.42657 C107.852647,197.41018 108.259727,194.606806 110.941876,194.973383 C111.851783,192.122299 114.293057,192.496123 116.475991,192.325819 C117.74962,191.468863 119.485731,191.174152 120,189.39683 C119.962664,189.00972 119.926533,188.622007 119.889799,188.234897" id="Fill-21" fill="#000000"></path>
                <path d="M69.5425,134.449 C69.5165,134.449 69.4915,134.452 69.4655,134.452 C69.4605,134.485 69.4625,134.518 69.4575,134.551 L69.5425,134.449 Z" id="Fill-23" fill="#000000"></path>
                <path d="M129,7.93762887 C128.970421,7.62525773 128.941411,7.31237113 128.911832,7 C128.911263,7 128.696246,7.02731959 128.696246,7.02680412 C128.464164,7.18608247 128.232082,7.34484536 128,7.50360825 C128.186007,7.66907216 128.372014,7.83453608 128.55802,8 C128.704778,7.97680412 128.852105,7.95618557 129,7.93762887" id="Fill-25" fill="#000000"></path>
                <g id="编组" transform="translate(129.000000, 2.000000)">
                    <mask id="mask-4" fill="white">
                        <use xlink:href="#path-3"></use>
                    </mask>
                    <g id="Clip-28"></g>
                    <path d="M0.0586394723,0.0875 C-0.00487937954,0.3555 -0.0171374036,0.6305 0.0235369489,0.9125 C0.348931769,0.8995 0.674326589,0.8865 1.00027859,0.8735 C0.81807978,0.1005 0.438638217,0.0945 0.0586394723,0.0875" id="Fill-27" fill="#000000" mask="url(#mask-4)"></path>
                </g>
                <g id="编组" transform="translate(1.000000, 266.000000)">
                    <mask id="mask-6" fill="white">
                        <use xlink:href="#path-5"></use>
                    </mask>
                    <g id="Clip-30"></g>
                    <path d="M-0.00027785496,0.939569536 C0.333703807,0.959437086 0.666574048,0.979304636 1,1 C0.813837177,0.666390728 0.627674354,0.333609272 0.441511531,2.13162821e-14 C0.294248402,0.312913907 0.147540984,0.626655629 -0.00027785496,0.939569536" id="Fill-29" fill="#000000" mask="url(#mask-6)"></path>
                </g>
                <path d="M3,7.44611054 C2.76526858,7.29757152 2.52980132,7.14853902 2.2950699,7 C2.09786608,7.04145275 1.89698308,7.07106186 1.69168506,7.0893208 C1.46063282,7.37899656 1.23105224,7.6691658 1,7.95933505 C1.84326711,8.09800436 2.47829286,7.87100121 3,7.44611054" id="Fill-31" fill="#000000"></path>
                <path d="M127,71.1149233 C127.333128,71.3949233 127.666257,71.6749233 128,71.9539233 C127.98402,70.6719233 127.417947,71.1269233 127,71.1149233" id="Fill-33" fill="#000000"></path>
                <path d="M1.50814332,90 C1.67263844,89.6666667 1.83604777,89.3333333 2,89 C1.66666667,89.0292398 1.33387622,89.059315 1,89.0885547 C1.16938111,89.3918129 1.33876221,89.6959064 1.50814332,90" id="Fill-35" fill="#000000"></path>
                <path d="M3.99527841,259.0075 C3.99527841,259.0075 3.92577076,259.1895 3.92577076,259.1885 C3.20888794,259.0305 2.47224315,258.7675 2,259.9495 C2.65759688,259.9645 3.31519376,259.9785 3.97279064,259.9925 C3.9980042,259.6655 4.00618157,259.3365 3.99527841,259.0075" id="Fill-37" fill="#000000"></path>
                <path d="M2,288.154161 C2.22015424,288.435506 2.44171074,288.717753 2.66186499,289 C2.78105678,288.805223 3.03346291,288.529288 2.99630312,288.428292 C2.77614888,287.827728 2.37931034,287.982829 2,288.154161" id="Fill-39" fill="#000000"></path>
                <path d="M4.99050496,45.959901 C4.9939577,45.640099 4.99741044,45.319802 5,45 C4.71644368,45.1643564 4.43245576,45.3287129 4.14846785,45.4930693 C4.0988347,45.6470297 4.04876996,45.8009901 4,45.9549505 C4.20284851,45.969802 4.40526543,45.9851485 4.60725076,46 C4.73370738,45.969802 4.86145878,45.9559406 4.99050496,45.959901" id="Fill-41" fill="#000000"></path>
                <path d="M2.475,303.533 C2.492,303.532 2.508,303.531 2.525,303.531 L2.525,303.467 L2.475,303.533 Z" id="Fill-43" fill="#000000"></path>
                <path d="M4.469,303.4635 C4.471,303.4875 4.474,303.5115 4.476,303.5345 C4.494,303.5355 4.513,303.5365 4.531,303.5365 L4.469,303.4635 Z" id="Fill-45" fill="#000000"></path>
                <path d="M3.88569562,304.031205 C3.46505552,304.020643 3.04506858,304.010562 2.62377531,304 L2,304.023044 C2.00130634,304.278925 2.0019595,304.534806 2.00326584,304.790687 C2.40627041,304.860778 2.81058132,304.930389 3.21358589,305 C3.47550621,304.983677 3.73742652,304.967355 4,304.951512 C3.9614631,304.644743 3.92423253,304.337974 3.88569562,304.031205" id="Fill-47" fill="#000000"></path>
                <g id="编组" transform="translate(0.000000, 149.000000)">
                    <mask id="mask-8" fill="white">
                        <use xlink:href="#path-7"></use>
                    </mask>
                    <g id="Clip-50"></g>
                    <path d="M0.166,0.2275 C0.251,0.5045 0.433,0.6855 0.71,0.7725 C0.699,0.4195 0.518,0.2375 0.166,0.2275" id="Fill-49" fill="#000000" mask="url(#mask-8)"></path>
                </g>
                <path d="M109.016369,173 C109.324901,172.922944 109.633929,172.845887 109.94246,172.767965 C109.965278,172.530736 109.984623,172.292641 110,172.052814 C109.666667,172.035498 109.333333,172.018182 109,172 C109.005456,172.333333 109.010417,172.666667 109.016369,173" id="Fill-51" fill="#000000"></path>
                <path d="M119.924,167.144826 C119.642,167.121826 119.359,167.118826 119.076,167.136826 C119.208,167.382826 119.341,167.628826 119.474,167.874826 C119.624,167.631826 119.774,167.388826 119.924,167.144826" id="Fill-53" fill="#000000"></path>
                <path d="M46.5235315,63.7688711 C44.9689435,64.3871109 44.4127866,62.0735226 42.8051738,62.3194955 C43.6373002,61.9917321 44.4694266,61.6639688 45.3009504,61.3368068 C45.5154595,61.3596601 45.7299686,61.3825133 45.943875,61.4053665 C46.1433203,61.3716881 46.3421629,61.3380096 46.5416081,61.3043312 C46.7163487,60.7041334 46.8904866,60.1045369 47.0652271,59.5043391 C47.339389,59.3305343 47.6135508,59.1567295 47.8871101,58.9829247 C47.8437263,58.7880709 47.8352905,58.5914129 47.8599952,58.3929507 C46.1698326,57.6899133 46.78745,56.1112366 46.5181085,54.8687429 C46.292151,54.6642667 46.0655909,54.4597905 45.8396333,54.2553142 C44.715871,53.267213 44.2169567,51.8803831 43.5198023,50.6210501 C41.946535,50.65533 41.9368942,49.1608494 41.2361244,48.3387347 C43.2968575,46.6217359 45.8884401,46.5627986 47.1230723,48.1835733 C48.9295277,46.929653 50.6666895,45.5067391 53.0841342,45.7388797 C54.1313722,45.0538844 55.1755974,44.4981902 56.1794516,45.8062366 C57.298996,45.7166279 57.9979581,45.9180971 57.9027547,47.3572488 C57.8075512,48.8018132 58.0377266,50.2686294 58.1256995,51.7252217 C59.1982447,53.2738284 59.9695132,54.8458897 58.4926545,56.5869445 C58.5336282,57.1883452 58.5746018,57.7897458 58.6149729,58.3917479 C60.7733196,59.4634438 59.4386636,60.8767353 58.6053321,61.63871 C57.236933,62.8902247 55.5214632,64.2463832 53.7475456,61.9833125 C53.6529447,61.8576198 53.6300477,61.7205005 53.6794571,61.5713531 C53.3082841,61.4937724 52.9371111,61.4155903 52.5659382,61.3380096 C51.5699172,64.6727762 48.8102221,63.6335559 46.5235315,63.7688711 M9.86176548,112 L10.1491835,111.943468 L10.4402169,111.972336 C11.7272712,110.050259 13.9597319,109.780832 15.8372887,108.890759 C17.7136403,107.002962 19.6261452,105.1729 22.422596,104.741696 C24.0832335,103.774643 25.743871,102.808193 27.4045085,101.84114 C29.9032979,101.130285 31.322914,97.9434627 34.4881276,98.7631718 C35.5739291,98.3560236 35.5359682,96.8200463 36.738665,96.5319754 C37.8238639,94.6261368 39.5676538,93.8677705 41.6585145,93.7132106 C42.9961833,92.6583538 43.4595469,90.3279263 45.8685559,90.8355085 C45.6540468,88.2380591 48.189592,88.3745771 49.4495314,87.2433424 C51.2385128,85.342315 53.2992458,83.7792747 55.5033866,82.3954518 C55.4587976,81.9143313 55.4274648,81.4398262 56.008929,81.2299374 C56.6084697,79.3968682 56.910349,77.3106094 59.4850602,77.1500354 C59.9020272,77.8723176 60.0635116,78.6186558 59.8905787,79.4245326 C60.5437467,80.5551659 60.27079,81.8259254 60.4376973,83.0305309 C60.4033517,83.841219 60.3696087,84.6519071 60.3358658,85.4625951 C60.6413604,86.8578446 60.9793929,88.2627165 59.2145137,89.0030407 C61.4168468,89.246608 60.4503509,90.947369 60.3183917,91.9186311 C60.1792018,92.9355995 59.6784799,93.9212952 59.8200799,95.012236 C61.3957574,97.2380198 60.1713686,99.9473297 61.0800193,102.287981 C61.8759925,102.247687 61.9591449,102.925466 62.2242685,103.420418 C63.3908121,103.719916 64.8104282,102.736024 65.7648729,104.115036 C66.2023268,104.229302 66.8036752,103.863651 67.0471068,104.549849 C67.6261607,104.182994 68.2064198,103.81614 68.7860762,103.449286 C68.7414873,103.397565 68.7155775,103.343439 68.7083468,103.286306 C68.7155775,103.343439 68.7414873,103.397565 68.7860762,103.449887 C69.1927999,103.467328 69.3705532,103.222558 69.4537055,102.869535 C69.2175046,102.949522 68.9819061,103.030109 68.7463077,103.110096 C67.3791138,101.966833 69.194005,102.105757 69.3633225,101.581335 C69.7109959,101.01241 70.0592718,100.444087 70.4063426,99.875763 C70.5250457,98.8918715 70.6431462,97.9085815 70.7624518,96.92469 C71.0082936,94.9118021 69.5422809,92.6709833 71.5680658,90.8950472 C71.8892268,90.3207095 71.1776111,90.1444992 71.1137405,89.7187075 C70.4587648,88.9651525 70.4672005,88.1045482 70.7052092,87.2060556 C70.6823122,86.8229634 70.6594151,86.4392698 70.6365181,86.0561776 C69.6133822,84.5424521 70.1809876,82.8392855 70.0598744,81.2179094 C70.2032821,80.8558662 70.3466898,80.4944244 70.4900976,80.1317798 C69.9857603,79.8112333 70.0195033,79.3198889 70.0749382,78.8219292 C69.9833501,78.3654661 70.0273365,77.9504997 70.4340601,77.6461909 C71.0474596,75.1449657 69.4766026,72.6329152 70.4882899,69.7058982 C72.1447095,71.9052204 71.5222718,74.6391877 73.1214488,76.4427883 C73.2781127,76.8559505 73.4353792,77.2697141 73.5926456,77.6834778 C73.6782082,77.8205971 73.7270151,77.9697445 73.7390661,78.1309199 C74.1433795,78.7557751 74.5482955,79.3806304 74.9526089,80.0054857 C75.4677922,80.538928 75.3960883,81.220315 75.4238058,81.8770445 C75.5208169,82.0394227 75.5376884,82.209619 75.4744203,82.388235 C76.732552,82.8922088 77.4381422,83.874296 77.8376351,85.1191954 C80.50996,86.0309187 81.2330242,87.3239301 80.0062252,88.9976281 C80.4611531,89.3151677 80.9154785,89.6321058 81.3704064,89.9496453 L81.6270942,89.8684563 L81.821719,90.0603031 C83.0406847,89.8961207 83.7733898,90.750711 84.6121443,91.3857901 C84.9592151,91.6329657 85.3056834,91.8801414 85.6527542,92.1273171 C87.4453509,92.4947729 89.2530115,92.8273474 90.5545271,94.2995762 C90.9359434,94.3573107 91.3173598,94.4150451 91.6987762,94.4727796 C92.5423511,94.5569757 92.4465451,95.4939579 92.968959,95.8692319 C94.027043,95.5089929 94.9664239,95.4873425 95.4562999,96.7418642 L95.6696039,96.7304376 C97.0856046,95.6551333 98.0707796,96.3238908 98.9233928,97.5321047 C99.1017487,97.4767758 99.2770918,97.4130273 99.4500246,97.3426635 C100.031489,96.6654863 101.19984,96.6558639 101.443874,95.5943918 L103.074987,94.446318 C103.814922,92.436437 105.291781,91.6756652 107.363962,91.9258479 C109.247545,91.3064052 110.15017,88.3162412 112.846597,89.6627772 C113.023145,89.5797839 113.197886,89.5839937 113.370216,89.6766094 L114.408416,89.5334761 C114.090267,87.8122674 116.980114,86.9576771 115.646061,84.9616284 C113.831169,85.493868 114.081229,83.6728268 113.35937,82.960167 C113.127989,83.2001259 112.896006,83.4400848 112.664626,83.6800436 C112.631485,84.5598928 112.049419,84.2213042 111.593286,84.1611641 C111.192588,84.2195 110.791287,84.2778359 110.390589,84.3367731 C109.938071,85.1288178 109.213802,84.8593903 108.54557,84.806467 C106.907227,84.6086062 105.02726,85.4746231 103.744424,83.7161277 C103.103307,83.9350375 102.597764,83.9121843 102.559201,83.0545869 C102.177784,83.0533841 101.796368,83.0521813 101.414952,83.0515799 C100.584633,84.0011916 99.7549167,84.043891 98.9252005,83.0503771 L98.7932413,83.1375802 C98.2973397,83.1213424 97.8731421,82.9932441 97.7170807,82.4477737 C97.6489922,82.2847941 97.5905445,82.1176047 97.5417376,81.9480098 C97.3567537,81.988905 97.2025,81.9383873 97.0789765,81.7946526 C95.8154218,83.8646736 94.2120269,82.9246844 92.6875665,82.2420947 C91.7029941,81.8006666 90.7804846,81.2209164 89.8302577,80.7031104 C89.6217742,80.6531942 89.4138933,80.6026765 89.2054098,80.5521589 C87.6592574,81.1824267 86.9807822,79.371008 85.6822794,79.3030497 C84.0843074,78.1128778 82.4152342,77.0032937 80.9172862,75.6982543 C80.1285436,75.0120561 78.917411,74.2867669 79.6681927,72.8349858 C79.451876,72.7207197 79.2361618,72.6064535 79.0198451,72.4927888 C77.380297,73.1344833 76.4662233,72.0934588 76.1426521,70.8443496 C75.7660562,69.3925685 77.1193914,69.2374071 78.1841034,68.8591261 C79.6507187,68.3389146 81.0239381,67.5414573 82.6640888,68.0147596 L87.5297084,67.985291 C88.4389617,67.3730651 89.2921775,67.0639452 89.8411037,68.4104812 C92.0542828,67.404338 94.477753,67.3893029 96.7969815,66.8877348 C97.7670926,66.6772446 98.2720325,67.1090502 98.8890473,67.5709259 C99.8386716,67.1367147 100.046553,65.7721366 101.267929,65.6789195 C101.886148,65.4485831 102.30191,65.013169 102.559201,64.4147753 C102.360358,63.8025495 102.160913,63.1903236 101.96207,62.5786992 C101.716831,61.1672119 99.0963257,62.2262784 99.4608706,60.1803134 C99.3909744,60.0143268 99.4096535,59.8591655 99.5157029,59.7136265 C99.3548212,59.6895705 99.1933368,59.6673187 99.032455,59.6456682 C98.7932413,60.3607336 98.3286725,60.4028316 97.7399777,60.0792781 C96.9337611,59.7166335 96.2546833,59.2030374 95.7852941,58.4404613 C94.066209,57.9112288 92.4796856,56.7589451 90.5274122,57.3338841 C90.097189,58.4194123 89.1325008,58.5138322 88.1654024,58.6040423 C87.8954584,60.8406513 86.7542221,62.0596904 84.377751,62.0025574 C82.8183425,61.9652705 81.2565238,62.0723198 79.6953076,62.1150193 C78.0039399,63.1704774 76.8006405,62.6773289 75.9847831,60.9507076 C75.6087897,60.9759665 75.2327963,61.0012253 74.8568029,61.0270855 C74.4392333,61.7012556 74.0174459,61.5316607 73.5932482,61.0343023 C72.988887,60.588063 72.0663776,60.5243146 71.8627145,59.5969548 C71.8271638,59.4057094 71.7916132,59.2138626 71.7560625,59.0220158 C71.3607874,58.8277634 70.9655123,58.6329095 70.5702372,58.4386571 C70.2346149,58.3562652 70.0219135,58.1794535 70.0773484,57.7963612 C69.4079115,57.6983329 68.6263996,57.9906137 68.1425491,57.2430727 C67.6611088,57.1847368 67.179066,57.1257995 66.66087,57.0620511 C66.4710656,56.2122719 67.5201113,56.5123709 67.6586986,55.9945649 C67.4110491,54.8681415 66.9163527,53.7080397 68.1033831,52.7800785 C68.2190734,51.5526197 67.9768469,50.3762801 67.5924177,49.2209894 C65.9444339,48.4319518 63.8487527,48.406693 62.658107,46.3655392 C65.3930974,44.1415596 68.5058889,43.8414607 71.7126787,43.8570971 C72.5460102,43.7091525 73.3787391,43.561208 74.2114681,43.4132634 C74.8953663,43.4162704 75.2713597,43.8480761 75.5708288,44.3863297 C77.1043275,42.238728 79.5127339,43.5341449 81.4312643,42.8996673 C83.0774405,42.8551636 84.5428507,41.6355231 86.2763971,42.1569375 C87.5628489,42.0462797 88.7685585,41.6842366 89.8670135,40.9926258 C89.9170255,40.8506953 90.0170493,40.7881496 90.1670852,40.8055902 C90.4539006,40.4754213 90.7407161,40.1452523 91.0275316,39.8150834 C90.9865579,39.4289841 90.9449817,39.0428849 90.9034056,38.6567857 C90.5641679,38.5425196 90.4189525,38.3206027 90.5147585,37.9627694 C89.6440687,37.6897335 88.4003983,38.3380434 87.9846363,36.9415911 C86.1655273,36.8958846 85.0634569,35.4410965 83.6480587,34.6400308 C81.8229241,33.6074259 82.0850349,32.3324565 83.8553371,31.330523 C84.7230142,27.5074191 85.0749054,27.3119639 90.4792079,27.6685945 C90.6087569,27.5555312 90.7479467,27.5429018 90.8961749,27.6301049 C94.7199795,27.3642858 98.5437841,27.0978653 102.368191,26.8326476 C102.874336,25.7320844 104.442783,25.8998752 104.887468,24.7265426 C104.648856,23.5856855 104.409643,22.4448285 104.171031,21.3033701 C102.16031,21.3123911 100.94255,19.8082881 99.4470118,18.8352218 C98.6817689,18.3595139 98.8559068,17.6246023 98.9179699,16.9209636 C98.8119204,16.754977 98.7281655,16.579368 98.6654999,16.3935352 C96.5649984,17.1777617 94.4644968,17.9625895 92.3639953,18.7474173 C89.9610119,20.2671568 87.7701273,22.7521442 84.5380302,20.641228 C84.4494549,19.2309435 85.8106232,19.4263987 86.2667563,18.7227599 L84.5470685,18.7227599 C84.7483214,17.3287132 85.8558148,17.0845446 86.8132723,16.6737879 C88.1346722,15.6417844 86.0968362,13.4653155 88.1738381,12.6913129 C87.3212249,12.061045 85.8847373,11.8818276 86.2998967,10.2718781 C86.0956311,10.2796963 85.8907629,10.2875145 85.6864972,10.2947313 C83.5974442,11.1986365 81.8735386,10.2105352 80.1484279,9.23025214 C79.322327,8.23613687 77.4351294,8.04489147 77.8087126,6.14386403 L77.7755721,6.15649344 C77.5586529,6.17273126 77.3417336,6.18896908 77.1224041,6.20640969 C76.9446508,5.80467406 76.7681027,5.40233703 76.592157,5 C75.9709244,5.04570645 75.3243844,5.0012028 74.8320982,5.49916254 C72.6532647,7.21616138 73.3365604,10.1311503 72.0181733,12.2077867 C71.9778022,12.5138997 71.9386362,12.8200126 71.8982651,13.1255241 C74.1704945,13.4695253 75.2767827,14.5406198 74.272326,16.9257748 C74.8019705,18.1267719 75.274975,19.3295732 74.4434512,20.5931159 C74.4940657,22.5831507 73.4516481,23.3222721 71.5487841,23.2729572 C70.6961709,23.2507054 69.8357245,23.5153217 68.9788934,23.6500354 C68.169664,24.2237716 67.4520228,24.8564451 67.4966117,25.9732461 C67.4996245,26.3671635 67.5026373,26.7604795 67.5062526,27.1537956 C68.3456096,27.7696298 69.1849667,28.3848627 70.0249263,29.000697 C72.2766688,27.3648872 73.528775,27.892917 73.7252074,30.7056678 C74.0584195,31.1579211 73.9541777,31.5602581 73.5866201,31.9331265 C73.8089623,32.7492272 74.7182156,33.537062 73.6896567,34.4054845 C73.129282,35.7965242 71.8560864,35.9498814 70.6202491,36.1675884 C67.6255582,36.7942479 64.6302647,37.420306 61.6349711,38.0463641 C59.0006072,38.2460291 56.4969973,40.9830034 53.7222384,38.4517081 C53.5866638,38.8011219 53.4661531,39.4488304 53.3131045,39.4566486 C50.6751252,39.5931665 48.6017386,41.6439427 45.9276061,41.6048517 C44.9442388,41.872475 44.0151012,42.4143369 42.9353254,42.1960285 C40.6540577,41.5657606 38.6553877,43.8883699 36.3331465,42.8281006 C34.3790654,44.7044706 31.8332768,43.188941 29.689994,43.9821884 C29.6188927,44.6611698 29.0856328,44.7874639 28.5608087,44.9269888 C28.5608087,44.9281916 28.5891287,45.047269 28.5891287,45.047269 C28.6560122,45.2294934 28.6740888,45.4159276 28.6433585,45.6077744 C29.1434779,45.7268517 29.988258,45.6246136 29.2441044,46.5417496 L29.2085537,46.8238065 C30.2202411,47.2526051 31.2331335,47.6814038 32.246026,48.1102025 C33.9229324,48.6538686 35.9065386,46.8641003 37.402679,48.7855754 C38.4059306,50.1748109 38.2733688,51.5832912 37.4749854,53.0031981 C37.5575352,55.2885206 36.5199381,57.3717724 36.2831345,59.5993604 C36.5175279,60.8436583 36.7513186,62.0879562 37.0182498,63.503052 C35.4763154,64.1459493 34.0338023,64.2800616 32.6569675,63.121764 C30.5787604,64.9662597 27.9148713,64.474314 25.484773,64.9145393 C24.3230498,65.2495194 23.4463345,64.453265 22.4460956,64.1495577 C20.5721542,64.3708731 18.0896337,63.8987736 18.9356189,67.2209108 C20.1413284,68.2523129 21.0096081,69.6692128 22.5232225,70.3469913 C23.164942,70.5424465 23.8078666,70.7366989 24.4495861,70.9315527 L27.3111127,71.1516654 C29.4513828,70.5466563 31.5862299,69.8803044 33.8379724,70.6013838 C34.8502623,70.2982779 35.8191683,69.1538124 36.912803,70.445621 C37.5231897,70.2453546 38.1347815,70.0444868 38.7457708,69.843619 C40.5823539,69.7305556 42.5213711,68.8470981 44.1121124,70.5634955 C45.4298969,69.7245416 46.2698565,67.8042694 48.3516789,68.6949437 C49.3187773,67.9895008 50.3268493,67.8108848 51.4012022,68.4519779 C52.1688554,68.5903 52.4351841,69.1159242 52.0158068,69.6932688 C50.8956598,71.2352601 49.6724762,72.7026776 48.4902662,74.2001652 C47.68887,75.1906721 46.8874739,76.1817804 46.0854751,77.1728886 C44.8375868,80.3819625 42.8835057,83.0257197 39.9135195,84.8557819 C38.4450966,87.1224609 36.378338,88.6951236 34.0145206,89.9225823 C34.086827,90.0741353 34.0488661,90.1902056 33.9018431,90.2695905 C32.341832,93.132859 29.7146987,94.4336886 26.7049439,95.1746141 C24.7918365,97.5826223 22.3141364,99.3772019 19.9069351,101.221096 C18.9711695,101.937364 17.6696539,101.959015 16.4633418,101.633056 C16.2910115,101.732287 16.1060276,101.782203 15.9065823,101.784007 L15.8927236,101.696804 C15.8764547,102.113575 15.677612,102.332485 15.2425684,102.295198 L15.0154057,102.375184 L14.7816149,102.316848 C14.5833748,102.523129 14.3857373,102.729409 14.1874972,102.935689 C14.0886784,103.988742 14.0706018,104.935347 12.7937909,105.522314 C11.1506274,106.278274 9.6773841,107.402893 8.13002667,108.368743 C7.25029854,108.958717 6.30308442,109.484943 6,110.619184 C7.53410125,110.389449 8.89526964,110.644443 9.86176548,112" id="Fill-55" fill="#000000"></path>
                <path d="M13.5375,91.4875 C13.5125,91.4955 13.4865,91.5045 13.4625,91.5125 C13.4625,91.5125 13.5005,91.5005 13.5375,91.4875" id="Fill-57" fill="#000000"></path>
                <path d="M15,91.5000101 C14.9848066,91.3333401 14.9689227,91.16667 14.9537293,91 C14.3017956,91.1551927 13.6512431,91.3108845 13,91.4665763 C13.6401934,92.3024215 14.3162983,92.0319569 15,91.5000101" id="Fill-59" fill="#000000"></path>
                <path d="M13.4695,91.5105 C13.4895,91.5045 13.5095,91.4975 13.5305,91.4905 L13.5295,91.4895 C13.5295,91.4905 13.4985,91.5005 13.4695,91.5105" id="Fill-61" fill="#000000"></path>
                <path d="M129,262.152494 C128.66649,262.144494 128.33298,262.136494 128,262.128494 C128.327157,263.012494 128.659079,263.211494 129,262.152494" id="Fill-63" fill="#000000"></path>
                <path d="M120,316.128904 C119.667055,316.135904 119.333527,316.142904 119,316.148904 C119.339348,316.988904 119.67404,317.234904 120,316.128904" id="Fill-65" fill="#000000"></path>
                <path d="M118.582163,19.7224553 C119.009661,19.5098639 119.437858,19.2966868 119.865356,19.0840953 C119.864657,19.0840953 119.992488,19.1514452 119.992488,19.1514452 C120.058149,18.3215773 119.701202,17.8606696 118.612199,18.0375363 C118.3747,18.21616 118.1379,18.394198 117.900401,18.5728217 L117.897607,18.5657939 C117.598637,18.9745785 117.298969,19.3827775 117,19.7915622 C117.561615,20.3204054 118.049885,19.6697467 118.582163,19.7224553" id="Fill-67" fill="#000000"></path>
                <path d="M6.0329166,177 C6.45438384,176.977843 6.87733774,176.955686 7.29954831,176.933037 C7.53295345,176.769076 7.76561526,176.604623 7.9990204,176.44017 C8.00571036,176.293935 7.9782072,176.150653 7.91428095,176.010327 C6.85429456,175.979307 5.79876813,175.950749 6.0329166,177" id="Fill-69" fill="#000000"></path>
                <path d="M8,176.127098 C8.33302326,176.418066 8.66697674,176.709033 9,177 C8.99906977,177 8.99627907,176.963229 8.99627907,176.963229 C8.98232558,176.642686 8.96744186,176.321343 8.95348837,176 C8.63627907,176.042366 8.31813953,176.084732 8,176.127098" id="Fill-71" fill="#000000"></path>
                <path d="M9,208 C9.41382716,207.98237 9.85185185,208.062684 10,207 C9.67654321,207.05191 9.35308642,207.10382 9.0291358,207.15475 C9.00987654,207.434868 9,207.716944 9,208" id="Fill-73" fill="#000000"></path>
                <path d="M2,272.823197 C2.33352144,272.823197 2.66704289,272.822197 3,272.821197 C2.66647856,271.972197 2.33295711,271.951197 2,272.823197" id="Fill-75" fill="#000000"></path>
                <path d="M120.461495,288 C120.640616,287.697674 120.820308,287.395349 121,287.092093 C120.666857,287.061395 120.333143,287.030698 120,287 C120.154022,287.333953 120.307473,287.666977 120.461495,288" id="Fill-77" fill="#000000"></path>
                <path d="M7.07384721,129.068127 C7.01149035,129.345127 6.98848986,129.635127 7.00535688,129.936127 C7.33707496,129.899127 7.66879304,129.862127 8,129.825127 C7.82724082,128.938127 7.43521036,129.074127 7.07384721,129.068127" id="Fill-79" fill="#000000"></path>
                <path d="M28,13 C27.6666667,13.2635945 27.3333333,13.5262673 27,13.7889401 C27.3296414,13.8599078 27.6587553,13.9299539 27.9878692,14 L28,13 Z" id="Fill-81" fill="#000000"></path>
                <path d="M25.882506,32.7094378 C26.522791,34.0377797 26.4557423,35.4752842 26.5481608,36.8884644 C26.9226671,36.9068559 27.2965693,36.9252474 27.6704716,36.9442322 C28.9274839,34.3872185 30.1108031,36.481478 31.3182839,37 C32.529389,33.0867605 36.6888252,34.5207053 39.1309688,32.8399582 C40.7431581,32.9331024 42.3517231,31.9458934 43.9657245,32.8274995 C44.9110509,32.7557132 45.8775188,32.4365315 45.951212,34.0247277 C45.9862464,34.7947982 46.6766669,35.5357982 47.0698986,36.2898503 C48.2387207,37.0017798 49.4129792,37.0545813 50.5950902,36.3224804 C51.0988616,35.8739647 51.602633,35.4260424 52.1064044,34.9775268 C53.1199876,34.5331641 53.5633548,33.5512945 54.2429025,32.7913097 C53.9106792,32.1915091 53.3791218,31.6000142 54.1686053,30.9563113 C54.4416325,28.1720734 55.9759003,27.6310069 58.3932781,28.6633048 C59.2123596,28.0101094 59.9045923,27.8653504 60.2519167,29.108854 C61.63759,29.1444505 61.8616898,27.3367427 63.2087044,27.3100453 C63.00333,26.4029284 63.871943,25.8618619 64,25.0680605 L63.8212034,23.3944327 C63.4382405,23.3321389 63.0552776,23.2704383 62.6723147,23.2087377 L59.6533106,22.6682646 C58.4554945,24.3092622 56.8729033,23.5136809 55.3845427,23.3190868 C54.3522342,24.2125584 53.5639588,23.9182942 52.9393789,22.8331949 C52.0242546,21.3826384 52.1480833,20.2530435 53.9602106,19.6461235 C53.7294664,19.2142196 53.8013475,18.8285911 54.1438395,18.4833053 C53.6467126,16.9740146 52.869914,15.5424429 52.8209866,13.9079712 C51.5760551,14.0859536 50.7545574,12.4852987 49.4002943,13.1218823 C48.8083327,13.6653219 48.4356385,13.4119936 48.1638194,12.7938015 C47.7572988,12.529201 47.3507783,12.2646005 46.9442577,12 C45.7706033,13.2642683 43.1430187,11.9495717 42.6144815,14.3576734 C42.7141485,15.1354565 42.8144196,15.9132395 42.9140866,16.6910226 C44.3849299,17.5702556 44.2876791,18.9330074 44.0750561,20.3307625 C44.2182142,21.4864615 45.4697901,22.6688578 43.9898862,23.785994 C43.7808875,24.0114383 43.5724928,24.2368827 43.3634942,24.4617338 C43.3930922,24.742946 43.503028,25.2513823 43.4402075,25.2727402 C41.1992101,26.0380645 38.9666692,27.1457083 36.5758693,25.7248155 C35.5864478,27.0412919 34.4550763,27.4304801 33.0832959,26.2385913 C32.9377217,26.1003583 32.8531557,25.9330549 32.828994,25.7360877 C32.2267637,26.1335817 31.9042051,26.9813712 30.9727716,26.8466978 C29.5804538,28.9474833 26.4207078,27.5817651 25,30.2159045 C25.0259738,30.824011 26.1204987,31.588742 25.882506,32.7094378" id="Fill-83" fill="#000000"></path>
                <path d="M9,225.227604 C9.15319389,226.159921 9.59751272,225.992313 10,225.981838 C9.8151498,225.654241 9.6302996,225.327597 9.44544941,225 C9.30525721,225.121896 9.15658564,225.197129 9,225.227604" id="Fill-85" fill="#000000"></path>
                <path d="M13,217.236755 C12.6350053,216.70566 12.3271078,217.212318 12,217.365456 C12.3105656,217.576428 12.6216649,217.789028 12.9322305,218 C12.9631804,217.747486 12.9855923,217.492528 13,217.236755" id="Fill-87" fill="#000000"></path>
                <path d="M38.203894,323.839784 C38.3201731,323.878488 38.4342888,323.931593 38.5451595,324 L39,323.20342 C38.6663061,323.135014 38.3331531,323.067507 38,323 C38.0681449,323.279928 38.1357491,323.559856 38.203894,323.839784" id="Fill-89" fill="#000000"></path>
                <path d="M4,58.1584663 C3.78807615,58.1059743 3.5756513,58.0534824 3.36322645,58 C3.23747495,58.0584344 3.11623246,58.1446005 3,58.2584981 C3.16282565,59.0290405 3.50150301,59.0131939 3.84068136,58.994376 C3.90981964,58.7279545 3.96342685,58.4486577 4,58.1584663" id="Fill-91" fill="#000000"></path>
                <path d="M67.854851,324.120968 L67.9612936,324.004704 L67.2330023,323 C66.9865037,323.042339 66.7405144,323.084677 66.4940158,323.127016 C66.3295136,323.329301 66.1650115,323.532258 66,323.734543 C66.5067482,324.097446 67.012987,324.460349 67.5192259,324.823925 C67.6847466,324.856855 67.8451744,324.915323 68,325 C67.960275,324.766801 67.9200407,324.533602 67.8803158,324.300403 L67.854851,324.120968 Z" id="Fill-93" fill="#000000"></path>
                <path d="M96.9985987,5 C96.6819205,5.03090508 96.3647364,5.06125828 96.0480582,5.09216336 C96.032376,5.39459161 96.016188,5.69701987 96,6 C96.3267957,5.82229581 96.6525797,5.64459161 96.9793755,5.46688742 C96.9965752,5.31181015 97.0031516,5.15618102 96.9985987,5" id="Fill-95" fill="#000000"></path>
                <path d="M4,306 C4.04074911,306.283217 4.07682209,306.566434 4.10955498,306.851399 C4.51771409,306.901224 4.92787725,306.950175 5.33670437,307 C5.55180623,306.923077 5.77024817,306.875 5.99269822,306.856643 C6.01741489,306.58042 5.97933786,306.319056 5.87913513,306.073427 C5.2532021,306.048951 4.62593303,306.024476 4,306" id="Fill-97" fill="#000000"></path>
                <path d="M2,108.401934 C2.19221835,108.600941 2.38501742,108.800471 2.57723577,109 C2.71835075,108.681902 2.85888502,108.363804 3,108.045184 C2.90127758,108.009143 2.79907085,107.994518 2.69221835,108.001831 C2.46167247,108.135547 2.23054588,108.26874 2,108.401934" id="Fill-99" fill="#000000"></path>
                <path d="M95,302 C95.6621943,301.978191 96.3243886,301.956382 96.9859079,301.935564 C97.0048084,301.690708 97.0048084,301.445852 96.9852328,301.200996 C96.2521615,301.085012 95.4360627,300.523924 95,302" id="Fill-101" fill="#000000"></path>
                <path d="M64.3748423,300.621331 C64.3608423,300.637331 64.3558423,300.643331 64.3748423,300.621331 C64.4118423,300.592331 64.5218423,300.506331 64.6398423,300.416331 L64.5878423,300.364331 C64.4938423,300.477331 64.4038423,300.585331 64.3748423,300.621331 C64.3528423,300.639331 64.3578423,300.634331 64.3748423,300.621331" id="Fill-103" fill="#000000"></path>
                <path d="M55,286.600431 C54.5349819,286.822349 54.300965,286.595607 54.1833534,286.142122 C53.4837153,288.069432 51.7708082,287.558659 50.344994,287.73957 C49.0838359,289.346064 47.1127865,288.493971 45.5687575,289.120528 L45.6531966,289.301439 L45.535585,289.461244 C45.6369119,291.168446 43.9704463,290.746319 43.1996381,291.403631 C42.7201448,291.713592 42.2358263,291.69731 42.0452352,291.136485 C41.8431846,290.541286 41.5675513,289.809801 42.5211098,289.500442 C42.5024125,289.314103 42.4704463,289.129573 42.424608,288.948059 C39.831725,286.277203 39.7967431,280.956596 42.3576598,278.542031 C42.7997587,277.853964 40.5470446,278.349059 41.8124246,277.299772 C41.7677925,277.162882 41.7955368,277.042878 41.8968637,276.940361 C41.6869723,276.862569 41.4764777,276.783571 41.2659831,276.705176 C40.3365501,273.914918 40.0271411,271.116821 41.1658625,268.301838 L41.2539204,266.075421 C39.6043426,264.053434 39.6164053,261.978982 41.0615199,259.860509 C41.1170084,259.334057 41.172497,258.807001 41.2285887,258.280549 C40.7563329,258.167178 40.1604343,258.276328 39.9993969,257.599116 C39.5,256.362887 39.0271411,255.127865 40.0983112,253.934452 C40.2949337,253.776456 40.4915561,253.619063 40.6881785,253.461067 C41.5983112,252.142825 42.6531966,253.340459 43.6363088,253.292216 C44.4240048,252.592692 45.6447527,252.523343 46.2189385,251.513857 C46.2328106,250.91504 46.2460796,250.31562 46.2599517,249.716803 C46.0078408,249.310958 45.7557298,248.905716 45.5036188,248.499871 C44.4004825,246.682314 43.708082,244.47037 41.1978287,244 C40.6779252,244.840635 40.1791315,245.71082 38.9746683,245.596845 C38.3600724,248.625906 35.7376357,249.258494 33.4197829,250.254713 C32.2171291,250.239637 31.0138721,250.224561 29.8106152,250.208882 C27.6381182,250.766089 25.464415,251.297366 23.2882992,250.222149 C22.4620024,249.92063 21.6357057,249.61911 20.8094089,249.316988 C20.5820265,249.699918 20.3075995,249.991185 19.8045838,249.822937 C17.464415,250.659351 14.3088058,249.645041 13,252.823656 C13.0253317,252.973209 13.044029,253.123366 13.0579011,253.274728 L14.7804584,255.112186 C15.1712907,255.533107 15.5615199,255.954027 15.9529554,256.374948 C16.9650181,256.347811 17.977684,256.320674 18.9897467,256.293538 C20.7195416,254.317984 22.5241255,255.102537 24.3365501,256.146999 C26.0784077,255.622959 27.8202654,255.098919 29.5241255,254.585733 C30.4420989,256.046292 28.9095296,256.981604 29.1712907,258.157529 C29.3600724,260.167455 29.548854,262.177382 29.7376357,264.187308 C29.7509047,265.584548 29.7641737,266.982994 29.7774427,268.380836 C30.0603136,269.465099 29.3094089,270.110953 28.7376357,270.83279 C30.0018094,271.500956 30.1712907,272.545419 29.7539204,273.791296 C29.7696019,274.406395 29.7858866,275.020891 29.8027744,275.63599 L29.907117,280.955993 C30.9831122,283.750472 30.1700844,286.619728 30.2406514,289.454008 C30.5259349,291.585145 30.6972256,293.716282 30.3353438,295.916166 C29.1640531,295.798573 28.4047045,295.24619 27.8088058,294.417616 C26.9234017,294.472492 26.0379976,294.526766 25.1531966,294.581039 C24.7840772,296.346735 26.053076,297.968908 25.6031363,299.741238 C24.8341375,302.278219 27.7014475,303.133328 28.0940893,305.133002 C28.7412545,307.334695 29.818456,309.41578 29.9505428,311.762202 C31.446924,312.736109 32.9414958,313.735946 34.681544,312.227144 C34.8691194,312.075782 35.0572979,311.924419 35.2448733,311.77366 C35.4704463,311.56923 35.6966224,311.365403 35.9221954,311.161576 C35.6562123,310.414411 36.1899879,309.954293 36.5416164,309.427841 C37.0012063,307.409472 37.9752714,305.816848 40.0778046,305.159536 C40.8902292,304.561322 41.7032569,303.962505 42.5156815,303.363688 C42.6839566,303.156846 42.8522316,302.949401 43.0211098,302.741956 C42.8709288,301.639602 43.5253317,301.668548 44.2828709,301.843429 C44.5934861,301.335671 44.9047045,300.827912 45.2147165,300.320757 C45.3214717,300.12477 45.4276236,299.928782 45.5343788,299.732795 C45.3697226,296.584935 48.5790109,295.886014 49.8516285,293.782014 C50.3667069,293.102992 50.8829916,292.424574 51.39807,291.745553 C51.8094089,291.362624 52.221351,290.979695 52.6320869,290.596766 L55,286.600431 Z" id="Fill-105" fill="#000000"></path>
                <path d="M54.5265,286.4495 C54.5055,286.4835 54.4865,286.5165 54.4655,286.5505 C54.4895,286.5395 54.5095,286.5335 54.5345,286.5215 L54.5265,286.4495 Z" id="Fill-107" fill="#000000"></path>
                <path d="M67.343,286.145 C67.217,286.373 67.111,286.609 67.022,286.853 L67.509,286.855 L67.978,286.719 C67.88,286.406 67.668,286.214 67.343,286.145" id="Fill-109" fill="#000000"></path>
                <path d="M60,236.974323 C60.4143447,236.977323 60.8281734,236.982323 61,236.025323 C60.6104231,236.117323 60.1413829,235.896323 60,236.974323" id="Fill-111" fill="#000000"></path>
                <path d="M67.206,287.4875 L67.542,287.6335 L67.794,287.3665 C67.598,287.4035 67.401,287.4435 67.206,287.4875" id="Fill-113" fill="#000000"></path>
                <path d="M117.9185,293.421523 C117.6475,293.323523 117.3685,293.273523 117.0815,293.271523 C117.2855,293.739523 117.5365,293.941523 117.9185,293.421523" id="Fill-115" fill="#000000"></path>
                <path d="M101.764,139.236001 C101.597,139.380001 101.421,139.392001 101.236,139.273001 C101.46,139.945001 101.635,139.922001 101.764,139.236001" id="Fill-117" fill="#000000"></path>
                <path d="M13.3989601,90.9264113 L14,90.4178427 L13.4842288,90 C13.0086655,90.1491935 12.5331023,90.2978831 12.0568458,90.4465726 L12,90.4712702 C12.0194107,90.6476815 12.0381282,90.8240927 12.0568458,91 C12.5039861,90.9758065 12.9511265,90.9511089 13.3989601,90.9264113" id="Fill-119" fill="#000000"></path>
                <path d="M8.97429787,91.0398406 C8.7051791,91.0268924 8.43530011,91.0139442 8.16618134,91 C7.77694741,91.3336653 7.3884737,91.6673307 7,92 C7.62566313,91.9910359 8.25132626,91.9820717 8.87622916,91.9731076 C8.99634432,91.6782869 9.02903389,91.3665339 8.97429787,91.0398406" id="Fill-121" fill="#000000"></path>
                <path d="M21,91 C21.6669255,90.7906459 22.3338509,90.580735 23,90.3713808 C22.7763975,90.247216 22.5520186,90.123608 22.3284161,90 C21.8858696,90.3329621 21.4425466,90.6664811 21,91" id="Fill-123" fill="#000000"></path>
                <path d="M112,163 C112.449882,162.868309 113.458819,163.309261 112.761282,162 C112.507033,162.33305 112.253516,162.6661 112,163" id="Fill-125" fill="#000000"></path>
                <path d="M115.5285,121.5495 C115.5305,121.5165 115.5315,121.4835 115.5325,121.4505 C115.5105,121.4635 115.4895,121.4755 115.4675,121.4875 L115.5285,121.5495 Z" id="Fill-127" fill="#000000"></path>
                <path d="M116,121 C116.317925,120.804384 116.635336,120.608219 116.952748,120.413151 C116.948639,120.304658 116.964047,120.2 117,120.098082 C116.678993,120.065205 116.3585,120.032877 116.037494,120 L116,121 Z" id="Fill-129" fill="#000000"></path>
                <path d="M36,322.827286 C36.1313789,322.933237 36.2741585,322.991292 36.427253,323 L37,322.249637 C36.8767644,322.137881 36.7437568,322.055152 36.6009772,322 L36,322.827286 Z" id="Fill-131" fill="#000000"></path>
                <path d="M10.8656057,198.994 C10.9106985,198.665 10.9557913,198.336 11,198.006 C10.6666667,198.012 10.3333333,198.017 10,198.023 C10.2891247,198.347 10.5773652,198.671 10.8656057,198.994" id="Fill-133" fill="#000000"></path>
                <path d="M66.799,8.802 C66.756,8.457 66.557,8.255 66.201,8.198 C66.282,8.511 66.482,8.713 66.799,8.802" id="Fill-135" fill="#000000"></path>
                <path d="M7,258.849347 C7.33333333,258.850347 7.66666667,258.851347 8,258.853347 C7.66781411,257.891347 7.33448078,257.932347 7,258.849347" id="Fill-137" fill="#000000"></path>
                <path d="M118.973,61 C118.972,60.6664374 118.971,60.3328748 118.97,60 C118.656,60.0900963 118.341,60.1801926 118.027,60.2696011 C118.342,60.5130674 118.658,60.7565337 118.973,61" id="Fill-139" fill="#000000"></path>
                <path d="M73.1752566,321.871 C73.4022566,321.743 73.6272566,321.615 73.8542566,321.487 L73.1562566,321.129 C73.1372566,321.377 73.1442566,321.624 73.1752566,321.871" id="Fill-141" fill="#000000"></path>
                <path d="M53,283.87196 C52.5612318,283.581638 52.121687,283.290819 51.6821422,283 C50.657832,283.308685 50.9125505,283.649132 51.623122,284 C52.0813048,283.95732 52.5402641,283.91464 53,283.87196" id="Fill-143" fill="#000000"></path>
                <path d="M49.9416609,255.876429 C49.969801,255.592429 49.9890185,255.306429 50,255.020429 C49.3328758,255.044429 48.6664379,255.068429 48,255.093429 C48.4811256,256.227429 49.2223747,255.994429 49.9416609,255.876429" id="Fill-145" fill="#000000"></path>
                <path d="M110,298.5585 C110.545278,298.7615 110.772639,298.8455 111,298.9295 C110.993184,298.6385 110.970789,298.3515 110.932327,298.0705 C110.723466,298.1805 110.515093,298.2895 110,298.5585" id="Fill-147" fill="#000000"></path>
                <path d="M87,212.887664 C87.3329913,212.904664 87.6670087,212.920664 88,212.937664 C87.6803489,211.857664 87.3488969,211.704664 87,212.887664" id="Fill-149" fill="#000000"></path>
                <path d="M104,211.107892 L103,211.261892 C103.371831,212.008892 103.719437,212.245892 104,211.107892" id="Fill-151" fill="#000000"></path>
                <path d="M24.8295,149.18 C24.6095,149.371 24.3895,149.563 24.1705,149.753 L24.2365,149.82 C24.4335,149.607 24.6325,149.393 24.8295,149.18" id="Fill-153" fill="#000000"></path>
                <path d="M27,121.962089 L27.3358939,122 C27.5579609,121.769264 27.7786313,121.537874 28,121.307137 C27.853352,121.199286 27.6948324,120.987506 27.5621508,121.000578 C26.9196927,121.061367 27.0230447,121.553561 27,121.962089" id="Fill-155" fill="#000000"></path>
                <path d="M46.9387727,174.918 C46.6517727,174.639 46.3647727,174.36 46.0787727,174.082 C45.9677727,174.77 46.3987727,174.899 46.9387727,174.918" id="Fill-157" fill="#000000"></path>
                <path d="M17.1742424,183.197655 C17.1401515,183.469012 17.0814394,183.737018 17,184 C17.3011364,183.930486 17.6051136,183.878559 17.9138258,183.845896 C17.9431818,183.563652 17.9715909,183.282245 18,183 C17.7121212,183.025963 17.4375,183.092127 17.1742424,183.197655" id="Fill-159" fill="#000000"></path>
                <path d="M89.1864827,203.129679 C89.1074827,203.387679 89.0764827,203.651679 89.0944827,203.921679 C89.3664827,203.647679 89.6384827,203.372679 89.9104827,203.098679 C89.6664827,203.063679 89.4254827,203.073679 89.1864827,203.129679" id="Fill-161" fill="#000000"></path>
                <path d="M102.333989,110 C102.219953,110.053729 102.111271,110.125902 102.007943,110.215718 C101.987598,110.443464 102.006337,110.664796 102.064157,110.877306 C102.375748,110.918204 102.687874,110.959102 103,111 L102.914339,110.826784 L102.333989,110 Z" id="Fill-163" fill="#000000"></path>
                <path d="M61,212.521312 C60.6654314,211.787729 60.332451,211.865108 60,212.523588 C60.0497618,212.675312 60.0672313,212.833863 60.0524087,213 L61,212.521312 Z" id="Fill-165" fill="#000000"></path>
                <path d="M60.0353374,215.08116 C59.9970731,215.36616 59.9910314,215.65416 60.011674,215.94516 C60.3409482,215.93216 60.6707258,215.92016 61,215.90616 C60.7875326,215.12816 60.4376158,214.98516 60.0353374,215.08116" id="Fill-167" fill="#000000"></path>
                <path d="M59.5175,215.5345 C59.5135,215.5115 59.5165,215.4885 59.5125,215.4655 C59.5025,215.4665 59.4925,215.4665 59.4825,215.4665 C59.4825,215.4665 59.5175,215.5345 59.5175,215.5345" id="Fill-169" fill="#000000"></path>
                <path d="M68,207 C68,207 67.8719048,207.123576 67.8719048,207.123576 C67.6085714,207.12007 67.3442857,207.117441 67.0804762,207.113935 C67.0504762,207.322524 67.047619,207.532866 67.0714286,207.744961 L67,208 C67.3704762,207.792287 67.8704762,208.023663 68,207" id="Fill-171" fill="#000000"></path>
                <path d="M90,49.8288303 C89.4283549,48.7180753 87.1658438,49.3898458 87.3890862,47.4395253 C86.1110082,46.6785399 84.2829473,48.0173543 83.2335273,46.3872622 C83.0259298,46.165702 82.8189341,45.943551 82.6125402,45.7219908 C81.6202846,45.5731023 80.4968516,45.9370519 79.7079814,45 C77.6602885,46.0682155 77.6452452,47.6067294 78.6585613,49.3833467 C79.5780073,50.9945323 80.7014404,52.5690867 79.6441978,54.5448127 C80.0347217,55.275075 80.5100897,56.0006108 79.7627389,56.7887742 C81.9313799,57.5036751 84.1397352,56.1075505 86.3053675,56.9104846 C86.5111597,56.9146204 86.716952,56.9187562 86.9233459,56.922892 L86.9335754,56.9335268 C87.1285364,56.2203985 87.2224066,55.4428699 88.1003331,55.165772 C88.472805,54.9654816 88.8446752,54.765782 89.2165454,54.5660824 L89.7244069,53.84291 C89.7201948,53.6538453 89.786987,53.4925495 89.9253853,53.3602042 C89.9163593,53.1646404 89.9079351,52.9696675 89.8995108,52.7741037 C89.154567,52.2045463 89.2929653,51.5959943 89.8146666,50.9697176 C89.876645,50.5892249 89.9380216,50.209323 90,49.8288303" id="Fill-173" fill="#000000"></path>
                <path d="M40,78.1988698 C39.6662857,78.2178698 39.3331429,78.2358698 39,78.2548698 C39.3468571,78.9878698 39.6805714,78.9968698 40,78.1988698" id="Fill-175" fill="#000000"></path>
                <path d="M101.259621,13.9489458 L101.507296,14 C101.670825,13.9656366 101.835942,13.9361823 102,13.911637 C101.834883,12.8876084 101.451728,12.868954 101.000832,13.1674245 C100.998186,13.4374224 101.00189,13.7064386 101.011416,13.9764365 C101.010887,13.9764365 101.259621,13.9489458 101.259621,13.9489458" id="Fill-177" fill="#000000"></path>
                <path d="M109.229926,92 C108.819736,92.1894521 108.41019,92.3789042 108,92.5683564 C108.392777,92.7122376 108.786198,92.8561188 109.178975,93 C109.400838,92.8223246 109.622702,92.6451613 109.844566,92.467998 C109.872944,92.3149002 109.92454,92.1674347 110,92.0250896 C109.743309,92.0168971 109.486617,92.0081925 109.229926,92" id="Fill-179" fill="#000000"></path>
                <path d="M89.4393081,55 C90.100647,54.5842799 90.349545,54.2149023 89.209957,54 C88.8072896,54.1540209 88.4046221,54.3075875 88,54.4647887 C88.4789006,54.6456156 88.9597559,54.8228078 89.4393081,55" id="Fill-181" fill="#000000"></path>
                <path d="M108,24.4818676 C107.961669,24.3268359 107.923338,24.1722575 107.885492,24.0172257 C107.803493,24.0104261 107.72198,24.0045331 107.63901,24 C107.425036,24.3331822 107.212518,24.6663645 107,25 C107.316836,24.9510426 107.633673,24.9029918 107.950024,24.8544878 C107.958758,24.7293744 107.975255,24.6051677 108,24.4818676" id="Fill-183" fill="#000000"></path>
                <path d="M72.552,98.521 L72.465,98.479 C72.459,98.49 72.453,98.496 72.448,98.506 C72.483,98.511 72.518,98.516 72.552,98.521" id="Fill-185" fill="#000000"></path>
                <path d="M71.056,98.3302313 C71.348,98.7282313 71.649,98.9632313 71.987,98.4022313 C71.662,98.3562313 71.337,98.3102313 71.013,98.2652313 L71.056,98.3302313 Z" id="Fill-187" fill="#000000"></path>
                <path d="M15.5624708,88 C15.3752925,88.3333333 15.1871783,88.6666667 15,89 C15.3331774,88.9545455 15.6668226,88.9090909 16,88.8645833 C15.8540009,88.5757576 15.7084698,88.2878788 15.5624708,88" id="Fill-189" fill="#000000"></path>
                <path d="M109.059,313.785337 L109.502,313.795337 L109.941,313.730337 C109.61,313.154337 109.299,312.893337 109.059,313.785337" id="Fill-191" fill="#000000"></path>
                <path d="M107.523,302.4545 C107.507,302.4545 107.493,302.4545 107.477,302.4545 L107.477,302.5455 L107.523,302.4545 Z" id="Fill-193" fill="#000000"></path>
                <path d="M106,301 C106.022549,301.163244 106.028015,301.326489 106.015032,301.490246 C106.052614,301.660164 106.090195,301.830082 106.127093,302 L107.998633,301.986653 C107.999317,301.671458 107.999317,301.356263 108,301.041581 C107.333106,301.027721 106.666894,301.01386 106,301" id="Fill-195" fill="#000000"></path>
                <path d="M107.4635,300.467 L107.4635,300.531 C107.4875,300.531 107.5125,300.532 107.5365,300.533 C107.5365,300.532 107.4635,300.467 107.4635,300.467" id="Fill-197" fill="#000000"></path>
                <path d="M17.7992448,79.927 C18.0080027,79.667 18.0507484,79.385 17.9423931,79.084 C17.627268,79.08 17.314131,79.077 17,79.073 C17.2664149,79.358 17.5328299,79.642 17.7992448,79.927" id="Fill-199" fill="#000000"></path>
                <path d="M18.4604954,79.461 C18.4724954,79.487 18.4754954,79.512 18.4844954,79.538 C18.5034954,79.538 18.5214954,79.539 18.5394954,79.539 C18.5404954,79.538 18.4604954,79.461 18.4604954,79.461" id="Fill-201" fill="#000000"></path>
                <path d="M58.1571978,31 C57.7718124,31.6529926 57.3859062,32.3053127 57,32.9583053 C57.2083164,32.9724277 57.4166329,32.9858776 57.6244285,33 C57.8530558,32.998655 58.0822039,32.9979825 58.3118728,32.9979825 C58.2832293,32.2885003 59.5690625,32.00538 58.695175,31.0221923 C58.5160229,31.0147949 58.3368707,31.0073974 58.1571978,31" id="Fill-203" fill="#000000"></path>
                <path d="M35,22.7450357 C34.8478049,22.4964257 34.695122,22.24861 34.5429268,22 C34.3614634,22.2970612 34.1804878,22.5941223 34,22.8919778 L34.6331707,23 C34.7560976,22.9166005 34.8780488,22.8316124 35,22.7450357" id="Fill-205" fill="#000000"></path>
                <path d="M22,219.133608 C21.6664899,219.092608 21.3329799,219.052608 21,219.012608 C21.2884411,220.367608 21.6283139,220.216608 22,219.133608" id="Fill-207" fill="#000000"></path>
                <path d="M23,217.499922 C22.8996683,217.391922 22.7993367,217.283922 22.6981758,217.174922 C22.4643449,217.286922 22.2321725,217.398922 22,217.511922 C22.0978441,217.622922 22.2155887,217.842922 22.291874,217.823922 C22.5356551,217.763922 22.76534,217.614922 23,217.499922" id="Fill-209" fill="#000000"></path>
                <path d="M11.8661628,69.8656628 L11.1631628,69.1216628 C11.0431628,69.7046628 11.2941628,69.9376628 11.8661628,69.8656628" id="Fill-211" fill="#000000"></path>
                <path d="M44.5475,236.486 C44.5155,236.473 44.4855,236.466 44.4535,236.454 C44.4535,236.485 44.4535,236.516 44.4525,236.546 L44.5475,236.486 Z" id="Fill-213" fill="#000000"></path>
                <path d="M26.3408871,228.237028 C27.9471643,228.721344 29.2523025,229.475783 29.2595734,231.389249 C29.4667959,231.787293 29.6734125,232.185932 29.880635,232.583976 C31.116699,235.076956 32.7429714,237.42833 32.8047746,240.347914 C33.2713282,241.311787 33.7372758,242.27566 34.2038294,243.239533 C35.4253514,244.520532 36.924382,243.797627 38.3246486,243.789297 C39.5358701,243.014034 40.589554,242.074555 41.4202618,240.905413 C41.8001697,240.28901 42.1800776,239.673798 42.5599855,239.05799 C42.7726612,238.86224 42.9859428,238.666491 43.1992244,238.471336 C43.700921,237.926332 43.8469462,236.847627 44.9884876,237.26233 C44.992729,236.955319 44.9963645,236.648307 45,236.340701 C44.0093311,236.399009 43.539142,235.790341 43.2137664,234.994849 C42.7326709,234.444489 42.0528357,234.016696 42.050412,233.171225 C41.8286476,232.81483 41.6056714,232.458434 41.383301,232.102634 C38.9978187,231.340461 36.9728551,230.097541 35.631968,227.940726 C33.0029084,228.451817 31.8795444,226.092708 30.0363548,225.106225 C28.2252787,224.681407 26.6686864,225.644685 25,225.994535 C25.4465584,226.741834 25.8943286,227.489728 26.3408871,228.237028" id="Fill-215" fill="#000000"></path>
                <path d="M44.5225,234.487 C44.5115,234.481 44.5005,234.476 44.4895,234.47 L44.4775,234.53 L44.5225,234.487 Z" id="Fill-217" fill="#000000"></path>
                <path d="M44.9447283,233.02651 C44.5313516,232.959095 44.160706,232.987771 44,233.505457 C44.3000464,233.669969 44.6000929,233.834985 44.9001393,234 C44.933581,233.825426 44.9670228,233.651355 45,233.47678 C44.9651649,233.32887 44.9465862,233.178948 44.9447283,233.02651" id="Fill-219" fill="#000000"></path>
                <path d="M47.98,235.325912 C47.656,235.254912 47.335,235.271912 47.02,235.376912 C47.371,235.930912 47.681,235.730912 47.98,235.325912" id="Fill-221" fill="#000000"></path>
                <path d="M46.7885,276.279694 C46.5965,276.296694 46.4035,276.296694 46.2115,276.278694 C46.4025,276.798694 46.5955,276.934694 46.7885,276.279694" id="Fill-223" fill="#000000"></path>
                <path d="M62.5915845,216 C62.3945653,216.333528 62.1970192,216.666472 62,217 C62.3281898,216.997079 62.6563796,216.994159 62.9840426,216.991238 C63.0045874,216.587033 63.0762307,216.158294 62.5915845,216" id="Fill-225" fill="#000000"></path>
                <path d="M26.9200192,132.8845 C26.9439655,132.6075 26.9703065,132.3305 27,132.0555 L26.006705,132.0555 C26.006705,132.0555 26.0416667,132.2135 26.0416667,132.2135 C26.0296935,132.4565 26.0153257,132.6995 26,132.9445 C26.3069923,132.9245 26.6130268,132.9045 26.9200192,132.8845" id="Fill-227" fill="#000000"></path>
                <path d="M70.1345,207.677378 L70.5015,207.699378 L70.8655,207.648378 C70.6045,207.190378 70.3595,207.169378 70.1345,207.677378" id="Fill-229" fill="#000000"></path>
                <path d="M76.8317286,55.9998844 C76.9096745,55.759664 76.9656121,55.5017151 77,55.2260377 C76.7702889,55.1506918 76.5410362,55.0753459 76.3113251,55 C76.2040348,55.0673681 76.0999541,55.1515782 76,55.2535168 C76.1393856,56.0752303 76.4961027,55.9945659 76.8317286,55.9998844" id="Fill-231" fill="#000000"></path>
                <path d="M34.9996833,76.8409658 C35.017411,75.7798581 34.2877393,75.9699072 33.5885593,76.1104644 C33.3921365,76.3915788 33.1964228,76.6726931 33,76.9538075 C33.2368419,76.968985 33.4736839,76.9848225 33.7112349,77 C34.1409541,76.9472086 34.5706733,76.8944171 34.9996833,76.8409658" id="Fill-233" fill="#000000"></path>
                <path d="M29.8495,107.968 C29.936,107.692 29.986,107.39 30,107.065 C29.8005,107.054 29.6005,107.043 29.401,107.032 C29.263,107.086 29.13,107.165 29,107.268 L29.8495,107.968 Z" id="Fill-235" fill="#000000"></path>
                <path d="M74.0435634,53.0805861 C74.0293686,53.3873626 74.0146843,53.6932234 74,54 C74.3338228,53.9551282 74.6666667,53.9102564 75,53.8663004 C74.824278,53.5769231 74.6480666,53.2893773 74.4723446,53 C74.3303965,53.0485348 74.1874694,53.0760073 74.0435634,53.0805861" id="Fill-237" fill="#000000"></path>
                <path d="M99,74.2351888 C99.176957,75.0735677 99.5887541,75.0246853 100,74.9785699 C99.8324146,74.6520725 99.6642778,74.3264974 99.4961411,74 C99.3379272,74.1208225 99.1725469,74.1992187 99,74.2351888" id="Fill-239" fill="#000000"></path>
                <path d="M18,84.155 L17.6139613,84.017 L17.2119428,84.05 C17.1412952,84.36 17.0698066,84.671 17,84.983 C17.3179142,84.793 17.6366695,84.602 17.9554247,84.417 C17.9545837,84.422 18,84.155 18,84.155" id="Fill-241" fill="#000000"></path>
                <path d="M25.3427098,78 C25.2142522,78.0383361 25.0998594,78.1305057 25,78.276509 C25.156587,78.5171289 25.3131739,78.7585644 25.4697609,79 C25.6465073,78.7128874 25.8232536,78.4257749 26,78.1386623 C25.7815284,78.0929853 25.5621191,78.0464927 25.3427098,78" id="Fill-243" fill="#000000"></path>
                <path d="M15.472,271.5215 C15.472,271.5215 15.532,271.4795 15.532,271.4785 C15.51,271.4785 15.49,271.4785 15.468,271.4785 C15.468,271.4925 15.472,271.5065 15.472,271.5215" id="Fill-245" fill="#000000"></path>
                <path d="M15.0169552,271.0165 C14.9913105,271.3315 14.9948304,271.6455 15.0270119,271.9585 C15.3513413,271.9675 15.6756706,271.9755 16,271.9835 C15.9959773,271.6935 15.972344,271.4105 15.9265859,271.1335 C15.6233757,271.0945 15.3201654,271.0555 15.0169552,271.0165" id="Fill-247" fill="#000000"></path>
                <path d="M22,233.9825 C22.3312924,233.9755 22.663077,233.9675 22.9948617,233.9605 C23.0071682,233.6435 22.997323,233.3295 22.9658182,233.0175 C22.5779157,233.0655 22.2116727,233.2045 22,233.9825" id="Fill-249" fill="#000000"></path>
                <path d="M18.8539638,263.030405 C18.2357441,263.02027 17.6182197,263.010135 17,263 C17.1696801,263.796453 17.7892907,263.760135 18.2586926,264 C18.5055633,263.929899 18.7524339,263.859797 19,263.790541 C18.9979138,263.523649 18.949235,263.27027 18.8539638,263.030405" id="Fill-251" fill="#000000"></path>
                <path d="M27.8785152,216.077453 C27.7273092,216.052496 27.5756809,216.026678 27.4240525,216 C27.2829833,216.322719 27.1414916,216.646299 27,216.96988 C27.1385351,216.980207 27.2770702,216.990534 27.4151829,217 C27.6098923,216.961274 27.8041793,216.921687 27.9984663,216.88296 C28.008603,216.583477 27.9684785,216.314974 27.8785152,216.077453" id="Fill-253" fill="#000000"></path>
                <path d="M16.681214,243.029137 C16.4574858,243.127137 16.2299001,243.212137 16,243.283137 C16.2445581,243.526137 16.5593207,244.035137 16.7197879,243.964137 C17.281423,243.713137 16.8540248,243.343137 16.681214,243.029137" id="Fill-255" fill="#000000"></path>
                <path d="M22.0052379,275.0635 C21.9858384,275.3945 22.0203263,275.7045 22.1087017,275.9935 C22.4061604,275.7355 22.7030802,275.4775 23,275.2195 C22.8604315,275.1245 22.7170909,275.0535 22.571056,275.0065 C22.3819111,275.0255 22.1938439,275.0445 22.0052379,275.0635" id="Fill-257" fill="#000000"></path>
                <path d="M40.1149444,110 L40.5202388,109.379367 C40.6805661,109.164618 40.8400796,108.949131 41,108.733644 L40.952797,108.585312 C40.9409963,108.391964 40.9556455,108.205995 40.9967446,108.027406 C40.1422082,107.860625 39.8008005,108.447311 40.1149444,110" id="Fill-259" fill="#000000"></path>
                <path d="M23.8797881,75.9460486 C23.939894,75.6978597 23.9793184,75.4441758 24,75.1831653 C23.7427723,75.1218049 23.4868373,75.0604445 23.2296096,75 C22.5574569,76.5440832 23.5417728,75.7995164 23.8797881,75.9460486" id="Fill-261" fill="#000000"></path>
                <path d="M21.8719417,79.982 C21.9422176,79.674 21.9849037,79.353 22,79.018 C21.6668402,79.096 21.3336804,79.174 21,79.253 C21.2904737,79.496 21.5809474,79.739 21.8719417,79.982" id="Fill-263" fill="#000000"></path>
                <path d="M19,270.289162 C19.1616962,270.526108 19.3224604,270.763054 19.4841566,271 C19.6561044,270.751947 19.8280522,270.504635 20,270.257323 C19.6649581,270.121079 19.3261883,269.736782 19,270.289162" id="Fill-265" fill="#000000"></path>
            </g>
        </g>
    </g>
</svg>