<?xml version="1.0" encoding="UTF-8"?>
<svg width="63px" height="225px" viewBox="0 0 63 225" version="1.1" xmlns="http://www.w3.org/2000/svg" xmlns:xlink="http://www.w3.org/1999/xlink">
    <title>title_吕氏春秋</title>
    <defs>
        <polygon id="path-1" points="-3.55271368e-15 -1.42108547e-14 34.7481547 -1.42108547e-14 34.7481547 49.6663814 -3.55271368e-15 49.6663814"></polygon>
    </defs>
    <g id="home" stroke="none" stroke-width="1" fill="none" fill-rule="evenodd">
        <g id="home备份" transform="translate(-1636.000000, -730.000000)">
            <g id="title_吕氏春秋" transform="translate(1636.000000, 730.000000)">
                <path d="M22.1873739,34.856 C22.5653739,34.835 22.9473739,34.829 23.3243739,34.859 C25.3503739,35.021 27.2923739,34.604 29.1873739,33.962 C30.2083739,33.617 31.2013739,33.535 32.2583739,33.728 C32.8203739,33.832 33.4213739,33.801 33.9953739,33.739 C35.1723739,33.613 36.3413739,33.413 37.5163739,33.267 C38.3833739,33.16 38.9213739,33.55 39.0943739,34.465 C39.3643739,35.899 39.4043739,37.339 39.2923739,38.806 C39.1713739,40.392 39.2493739,41.994 39.2353739,43.588 C39.2323739,43.919 39.2483739,44.255 39.1893739,44.578 C39.0543739,45.326 38.5273739,45.789 37.7633739,45.778 C35.3333739,45.745 32.9023739,45.697 30.4723739,45.627 C29.4423739,45.596 28.4833739,45.743 27.5413739,46.216 C26.9093739,46.535 26.1823739,46.71 25.4783739,46.829 C24.5453739,46.986 23.5953739,47.053 22.6503739,47.11 C21.2853739,47.194 20.7363739,46.569 20.8653739,45.221 C20.9943739,43.871 21.0693739,42.514 21.1713739,41.126 C21.0543739,39.589 20.9483739,38.03 20.8133739,36.472 C20.7243739,35.446 21.1513739,34.914 22.1873739,34.856 M25.0983739,18.059 C24.3343739,18.027 23.9023739,17.617 23.9143739,16.864 C23.9533739,14.368 23.9963739,11.872 24.1023739,9.378 C24.1513739,8.21 24.6453739,7.755 25.8113739,7.72 C27.2943739,7.676 28.7803739,7.71 30.2653739,7.71 C30.2653739,7.675 30.2643739,7.64 30.2643739,7.606 C31.4493739,7.606 32.6343739,7.622 33.8193739,7.6 C34.4973739,7.587 35.1733739,7.509 35.8513739,7.471 C36.1013739,7.458 36.3563739,7.45 36.6043739,7.481 C37.4853739,7.591 37.8023739,7.984 37.7813739,8.88 C37.7413739,10.555 37.7213739,12.23 37.6663739,13.904 C37.6393739,14.708 37.6003739,15.518 37.4753739,16.311 C37.3123739,17.343 36.7393739,17.672 35.7743739,17.265 C34.6933739,16.809 33.6113739,16.636 32.4453739,16.805 C31.8903739,16.885 31.3103739,16.822 30.7423739,16.795 C29.9703739,16.76 29.2623739,16.938 28.6513739,17.412 C28.0593739,17.87 27.3963739,18.051 26.6613739,18.044 C26.1403739,18.039 25.6183739,18.082 25.0983739,18.059 M14.8123739,30.6 C14.8283739,32.546 14.8153739,34.494 14.8333739,36.44 C14.8473739,37.878 14.7913739,39.328 14.9513739,40.752 C15.0983739,42.055 15.3233739,43.345 15.2853739,44.664 C15.2783739,44.898 15.3173739,45.135 15.3493739,45.37 C15.5713739,46.961 16.2183739,48.47 16.2053739,50.113 C16.1943739,51.546 16.3083739,52.981 16.3183739,54.416 C16.3223739,55.01 16.1433739,55.608 16.1543739,56.203 C16.1683739,56.925 16.4893739,57.534 17.2223739,57.788 C17.9333739,58.034 18.5283739,57.785 18.9973739,57.225 C19.3423739,56.813 19.6533739,56.373 20.0053739,55.966 C20.7353739,55.123 21.0653739,54.173 20.9793739,53.043 C20.9053739,52.08 21.2143739,51.722 22.1253739,51.384 C22.5963739,51.21 23.0933739,51.057 23.5093739,50.787 C24.2723739,50.291 25.0753739,50.112 25.9763739,50.122 C28.6793739,50.153 31.3823739,50.132 34.0863739,50.139 C35.6673739,50.143 37.2483739,50.167 38.8293739,50.173 C40.1243739,50.178 41.4193739,50.187 42.7133739,50.169 C43.8793739,50.153 45.0443739,50.099 46.2093739,50.068 C46.6493739,50.057 47.0943739,50.104 47.5283739,50.053 C49.2223739,49.856 49.8433739,48.578 48.9323739,47.145 C48.3953739,46.3 48.1443739,45.406 48.1833739,44.405 C48.2353739,43.047 48.2453739,41.688 48.2763739,40.329 C48.2813739,40.124 48.3043739,39.918 48.3083739,39.712 C48.3303739,38.436 48.4003739,37.158 48.3523739,35.883 C48.3173739,34.974 48.5193739,34.226 49.1543739,33.553 C50.1733739,32.476 50.1853739,31.394 49.2453739,30.244 C48.7353739,29.619 48.2303739,28.987 47.6733739,28.406 C46.9653739,27.668 46.2593739,26.911 45.4593739,26.281 C43.9733739,25.111 43.2143739,25.245 41.9263739,26.605 C40.9933739,27.59 40.0283739,28.559 38.6913739,29.024 C38.0213739,29.256 37.3813739,29.587 36.7003739,29.775 C36.1493739,29.927 35.5393739,30.053 34.9873739,29.972 C33.8913739,29.813 32.8223739,29.81 31.7413739,30.026 C31.3553739,30.103 30.9603739,30.142 30.5683739,30.175 C29.5373739,30.263 28.8913739,29.579 29.0473739,28.577 C29.1223739,28.101 29.4343739,27.811 29.8043739,27.539 C30.4893739,27.034 31.1503739,26.496 31.8193739,25.969 C32.9883739,25.05 33.5293739,23.922 32.9843739,22.436 C32.9743739,22.407 32.9643739,22.376 32.9603739,22.344 C32.8773739,21.671 33.3173739,21.121 33.9973739,21.074 C34.2473739,21.057 34.5013739,21.09 34.7523739,21.11 C35.7403739,21.185 36.7273739,21.28 37.7163739,21.335 C38.1873739,21.361 38.6633739,21.3 39.1363739,21.305 C40.5273739,21.317 41.9183739,21.362 43.3093739,21.356 C44.7683739,21.349 45.3873739,20.652 45.3743739,19.2 C45.3493739,16.323 45.3583739,13.445 45.3513739,10.568 C45.3503739,9.986 45.5803739,9.54 46.0603739,9.2 C46.5363739,8.863 47.0133739,8.517 47.4433739,8.125 C48.4133739,7.242 48.3893739,6.551 47.4403739,5.657 C46.8553739,5.104 46.3023739,4.517 45.7393739,3.941 C44.8563739,3.036 43.9513739,2.15 43.1123739,1.205 C42.8253739,0.881 42.7093739,0.406 42.5163739,0 L40.6183739,0 C40.5373739,0.752 40.1383739,1.298 39.5803739,1.795 C38.8983739,2.403 38.2683739,3.071 37.6503739,3.745 C37.1723739,4.266 36.6173739,4.569 35.9093739,4.56 C33.6823739,4.534 31.4553739,4.493 29.2273739,4.472 C27.5843739,4.458 25.9413739,4.448 24.2993739,4.469 C23.3943739,4.482 22.6213739,4.216 21.8633739,3.712 C21.1333739,3.227 20.3283739,2.835 19.5153739,2.502 C18.6703739,2.156 18.0803739,2.52 17.9313739,3.419 C17.8513739,3.899 17.8593739,4.395 17.8623739,4.883 C17.8763739,6.75 17.9353739,8.617 17.9173739,10.482 C17.9043739,11.869 18.0093739,13.224 18.4403739,14.552 C18.7133739,15.395 18.8013739,16.295 18.4703739,17.119 C17.7823739,18.825 18.4733739,20.519 18.3943739,22.214 C18.3933739,22.245 18.4033739,22.278 18.4153739,22.307 C18.6703739,22.956 18.6243739,23.584 18.4133739,24.25 C18.3043739,24.594 18.2803739,25.108 18.4633739,25.377 C18.8743739,25.979 19.3843739,26.548 19.9583739,26.996 C20.5253739,27.437 21.2193739,27.306 21.8493739,26.995 C22.3913739,26.727 22.2513739,26.205 22.3193739,25.748 C22.3803739,25.335 22.4333739,24.877 22.6473739,24.54 C23.0953739,23.838 23.6393739,23.198 24.1593739,22.544 C24.5103739,22.102 24.9963739,22.103 25.3783739,22.519 C25.8613739,23.044 25.8633739,23.72 25.3233739,24.196 C24.7753739,24.677 24.3873739,25.244 24.0723739,25.898 C23.8953739,26.266 23.5823739,26.595 23.2643739,26.864 C22.8953739,27.176 22.6353739,27.504 22.5703739,27.998 C22.5233739,28.355 22.4353739,28.713 22.3093739,29.051 C22.0683739,29.7 21.5743739,29.893 20.9413739,29.618 C20.7823739,29.549 20.6273739,29.466 20.4813739,29.373 C19.4613739,28.717 18.4393739,28.066 17.4283739,27.396 C16.8243739,26.996 16.2033739,26.792 15.5183739,27.153 C14.8573739,27.502 14.6963739,28.114 14.7233739,28.801 C14.7473739,29.401 14.8083739,30.001 14.8123739,30.6" id="Fill-1" fill="#000000"></path>
                <path d="M26.6350739,140.8492 C26.7090739,140.4772 26.7620739,140.0992 26.8620739,139.7352 C26.9400739,139.4492 27.0130739,139.1242 27.1970739,138.9112 C27.7940739,138.2182 28.4100739,137.5352 29.0850739,136.9212 C29.3050739,136.7222 29.7360739,136.6652 30.0590739,136.6892 C30.8660739,136.7462 31.6190739,136.6452 32.3690739,136.3262 C33.2660739,135.9452 34.0580739,136.2732 34.7120739,136.8982 C35.6850739,137.8282 36.1590739,139.0092 36.1510739,140.3432 C36.1420739,141.6122 35.4450739,142.3962 34.1880739,142.5622 C33.1260739,142.7022 32.0510739,142.7422 30.6560739,142.8522 C29.9500739,142.8052 28.9240739,142.7832 27.9100739,142.6572 C26.6880739,142.5042 26.3970739,142.0432 26.6350739,140.8492 M31.5010739,128.9162 C32.4680739,128.9362 33.1280739,129.5642 33.1290778,130.4642 C33.1310739,131.4622 32.3660739,132.1622 31.2940739,132.1472 C30.4550739,132.1342 29.8830739,131.4692 29.8900739,130.5142 C29.8970739,129.5342 30.5390739,128.8962 31.5010739,128.9162 M35.6300739,151.7372 C35.4390739,152.1212 35.0280739,152.2832 34.6090739,152.1502 C32.8050739,151.5752 30.9740739,151.8632 29.1470739,151.9192 C28.6490739,151.9342 28.1320739,151.8902 27.6530739,151.7632 C27.0580739,151.6052 26.8020739,151.1972 26.8360739,150.5842 C26.8970739,149.4812 26.9570739,148.3762 27.0770739,147.2792 C27.2090739,146.0812 27.6890739,145.7672 28.8800739,145.7972 C30.2350739,145.8322 31.5940739,145.7932 32.9490739,145.7392 C33.6280739,145.7122 34.2180739,145.8342 34.6360739,146.3932 C35.4630739,147.5002 36.1030739,148.6882 36.0780739,150.1272 C36.1210739,150.1432 36.1640739,150.1592 36.2060739,150.1732 C36.0190739,150.6972 35.8760739,151.2432 35.6300739,151.7372 M35.6940739,158.8432 C35.4870739,160.2332 34.5100739,160.9662 33.1020739,161.0102 C32.3760739,161.0342 31.6480739,161.0152 30.9210739,161.0152 C30.9220739,161.0632 30.9220739,161.1122 30.9220739,161.1612 C30.1790739,161.1612 29.4360739,161.1692 28.6940739,161.1582 C27.4030739,161.1382 26.9240739,160.6322 26.9540739,159.3422 C26.9770739,158.3462 27.0000739,157.3512 27.0230739,156.3552 C27.0480739,155.2572 27.5170739,154.7932 28.6070739,154.8162 C29.1600739,154.8272 29.7120739,154.8832 30.2640739,154.9022 C31.5690739,154.9472 32.8020739,154.6842 33.9680739,154.0762 C35.0310739,153.5222 35.8110739,153.9082 35.8650739,155.1142 C35.9210739,156.3532 35.8770739,157.6172 35.6940739,158.8432 M1.70807392,162.7052 C2.47707392,162.8172 3.10207392,162.5842 3.69807392,162.0582 C4.55807392,161.2992 5.49807392,160.6312 6.41007392,159.9342 C6.54607392,159.8302 6.71207392,159.7532 6.87607392,159.7052 C7.85007392,159.4232 8.57107392,158.7822 9.31707392,158.1282 C10.7170739,156.9022 12.1000739,155.6202 13.6540739,154.6142 C15.7320739,153.2682 17.5820739,151.7122 19.2090739,149.8622 C19.6780739,149.3282 20.2000739,148.8402 20.7090739,148.3422 C21.0560739,148.0032 21.4530739,147.6692 21.9660739,147.9052 C22.4900739,148.1462 22.5090739,148.6772 22.4990739,149.1782 C22.4770739,150.2372 22.4250739,151.2942 22.4230739,152.3522 C22.4200739,153.6812 22.4630739,155.0092 22.4710739,156.3382 C22.4750739,156.9862 22.4270739,157.6352 22.4330739,158.2832 C22.4480739,160.3862 22.4930739,162.4902 22.4970739,164.5932 C22.4990739,165.8272 22.4370739,167.0602 22.4170739,168.2932 C22.4080739,168.8652 22.5300739,169.3992 23.0100739,169.7792 C23.9250739,170.5012 25.0160739,170.2362 25.5230739,169.1632 C25.7990739,168.5792 25.9990739,167.9482 26.3460739,167.4112 C26.7890739,166.7242 27.0770739,166.0382 27.0660739,165.2032 C27.0540739,164.3772 27.4510739,164.0282 28.2710739,164.0142 C28.8400739,164.0032 29.4100739,164.0372 29.9790739,164.0152 C31.2400739,163.9642 32.5000739,163.8732 33.7610739,163.8342 C34.6930739,163.8062 35.2060739,164.3322 35.2110739,165.2592 C35.2130739,165.5592 35.1800739,165.8612 35.1940739,166.1612 C35.2400739,167.1612 35.7020739,167.9482 36.5140739,168.5092 C37.1060739,168.9182 37.8040739,169.0002 38.3900739,168.5912 C39.4370739,167.8592 40.3340739,166.9522 40.5900739,165.6272 C40.7290739,164.9082 40.9720739,164.2642 41.4510739,163.7102 C42.0670739,162.9982 42.3650739,162.1802 42.3430739,161.2292 C42.2910739,159.0472 42.2730739,156.8662 42.2160739,154.6842 C42.2050739,154.2632 42.1000739,153.8402 42.0060739,153.4252 C41.5210739,151.2852 41.0230739,149.1482 40.5360739,147.0082 C40.4950739,146.8262 40.4940739,146.6292 40.5030739,146.4412 C40.5260739,145.9802 40.7980739,145.6852 41.2370739,145.7962 C41.6430739,145.9002 42.0650739,146.1202 42.3720739,146.4062 C43.9940739,147.9102 45.5800739,149.4532 47.1850739,150.9742 C47.5280739,151.3002 47.8770739,151.6282 48.2620739,151.9002 C48.9480739,152.3842 49.5190739,152.9492 49.8600739,153.7332 C50.1380739,154.3752 50.6530739,154.7452 51.3310739,154.8812 C51.6710739,154.9502 52.0170739,154.9852 52.3610739,155.0332 C53.1630739,155.1432 53.8240739,154.9052 54.3090739,154.2352 C54.6710739,153.7362 55.1730739,153.4952 55.7760739,153.4952 C56.7050739,153.4982 57.5430739,153.2422 58.3280739,152.7452 C59.0190739,152.3072 59.7800739,152.0602 60.6100739,152.0392 C61.0790739,152.0282 61.5480739,151.9772 62.0380739,151.9432 L62.0380739,150.4792 C61.3480739,150.3042 60.6570739,150.2252 60.0490739,149.9572 C57.8860739,149.0082 55.7260739,148.0462 53.6170739,146.9872 C52.2530739,146.3012 50.9680739,145.4532 49.6670739,144.6462 C48.7140739,144.0552 47.8060739,143.3902 46.8520739,142.8002 C44.5930739,141.4042 42.6670739,139.6452 41.0520739,137.5392 C40.2570739,136.5012 40.7190739,135.2432 42.0070739,135.0982 C43.0080739,134.9872 44.0260739,134.9952 45.0360739,135.0032 C45.8240739,135.0102 46.6110739,135.1222 47.3990739,135.1472 C49.2140739,135.2012 51.0290739,135.2292 52.8430739,135.2682 C53.3780739,135.2792 53.9390739,135.2832 54.1720739,134.6842 C54.3990739,134.1012 54.0150739,133.7012 53.6290739,133.3302 C53.6170739,133.3202 53.6050739,133.3102 53.5940739,133.2982 C52.8280739,132.5032 52.0470739,131.7232 51.3020739,130.9092 C50.8550739,130.4192 50.3610739,130.1122 49.6810739,130.2342 C49.1370739,130.3312 48.5770739,130.3952 48.0640739,130.5822 C47.6840739,130.7212 47.2710739,130.9652 47.0430739,131.2842 C46.5610739,131.9562 45.9620739,132.1802 45.1700739,132.1422 C43.3190739,132.0552 41.4780739,132.1282 39.6470739,132.4722 C38.5600739,132.6762 37.6800739,132.0092 37.5700739,130.9212 C37.5210739,130.4452 37.5670739,129.9422 37.6650739,129.4712 C37.9430739,128.1352 38.8460739,127.4962 40.1950739,127.5782 C41.0910739,127.6312 41.9910739,127.6252 42.8880739,127.6682 C43.7070739,127.7072 44.5250739,127.7972 45.3440739,127.8232 C45.8340739,127.8382 46.3030739,127.7042 46.5380739,127.2092 C46.7650739,126.7292 46.5650739,126.3012 46.2540739,125.9452 C45.5460739,125.1362 44.8440739,124.3182 44.0810739,123.5622 C43.1210739,122.6112 42.3510739,122.6242 41.2700739,123.4402 C40.7180739,123.8562 40.1180739,124.2112 39.5250739,124.5712 C38.9720739,124.9062 38.4110739,125.2302 37.8330739,125.5182 C37.4140739,125.7272 36.9700739,125.9952 36.5250739,126.0192 C35.2480739,126.0882 33.9650739,126.0782 32.6850739,126.0382 C31.9210739,126.0142 31.4780739,125.5172 31.5280739,124.7612 C31.5760739,124.0232 31.6910739,123.2862 31.8370739,122.5602 C31.9570739,121.9582 32.3600739,121.6262 32.9940739,121.5462 C33.6180739,121.4682 34.2300739,121.2832 34.8550739,121.2172 C35.3310739,121.1682 35.8480739,121.1342 36.2950739,121.2682 C37.3570739,121.5832 38.3260739,121.4672 39.2440739,120.8822 C39.8230739,120.5142 40.3910739,120.5062 41.0510739,120.6802 C41.5450739,120.8112 42.1700739,120.8742 42.6120739,120.6822 C43.5900739,120.2562 44.4630739,120.2432 45.3450739,120.8322 C45.3850739,120.8582 45.4310739,120.8722 45.4760739,120.8892 C46.2170739,121.1582 46.8360739,120.8412 47.0630739,120.0842 C47.2740739,119.3832 46.9810739,118.8422 46.5720739,118.2962 C46.0930739,117.6572 45.6760739,116.9692 45.2370739,116.2982 C45.0980739,116.0872 44.9950739,115.8522 44.8450739,115.6512 C44.4510739,115.1232 43.8390739,114.9382 43.2450739,115.2292 C42.8700739,115.4132 42.5470739,115.7062 42.2100739,115.9642 C41.8360739,116.2522 41.4900739,116.5812 41.1010739,116.8472 C40.5290739,117.2372 39.9370739,117.6022 39.3360739,117.9462 C39.0390739,118.1152 38.7060739,118.3062 38.3810739,118.3252 C37.0400739,118.4032 35.6960739,118.4552 34.3540739,118.4432 C33.5280739,118.4352 32.9720739,117.7842 32.9270739,116.9532 C32.8870739,116.2452 33.1610739,115.6562 33.6110739,115.1372 C34.0710739,114.6062 34.4890739,114.0572 34.5910739,113.3312 C34.6660739,112.7992 34.7810739,112.2712 34.8240739,111.7382 C34.9440739,110.2682 34.5320739,109.7162 33.1350739,109.2552 C32.6480739,109.0952 32.1840739,108.8352 31.7500739,108.5582 C31.0850739,108.1332 30.4760739,107.6202 29.8030739,107.2072 C29.1400739,106.8012 28.6070739,107.0332 28.4720739,107.7962 C28.3710739,108.3662 28.3640739,108.9622 28.3990739,109.5412 C28.4520739,110.4222 28.2820739,111.2212 27.8600739,112.0012 C27.2710739,113.0902 27.0010739,114.2682 27.0490739,115.5172 C27.0740739,116.1652 27.0730739,116.8172 27.0370739,117.4632 C26.9500739,118.9972 26.3680739,119.7452 24.8550739,119.8952 C23.1140739,120.0692 21.3550739,120.0662 19.6030739,120.1092 C18.7190739,120.1302 17.8300739,120.0272 16.9500739,120.0892 C16.4190739,120.1262 15.8390739,120.2732 15.3930739,120.5502 C14.6180739,121.0342 13.8400739,121.1552 12.9530739,121.0662 C12.3860739,121.0082 11.7830739,121.0642 11.2280739,121.2002 C10.6370739,121.3442 10.3550739,121.9142 10.6050739,122.4232 C11.0930739,123.4132 11.8400739,124.1802 12.8820739,124.5932 C13.1280739,124.6912 13.4690739,124.7162 13.7110739,124.6262 C14.3540739,124.3872 14.9680739,124.0712 15.5910739,123.7802 C16.0010739,123.5882 16.3960739,123.2512 16.8180739,123.2162 C18.2470739,123.0952 19.6860739,123.0762 21.1210739,123.0252 C21.5610739,123.0092 22.0080739,123.0602 22.4410739,123.0022 C22.9870739,122.9312 23.5200739,122.7732 24.0610739,122.6642 C24.6720739,122.5432 25.1170739,122.7652 25.3960739,123.3102 C26.1320739,124.7452 25.4600739,126.4582 23.9270739,126.9212 C23.3150739,127.1062 22.6580739,127.1872 22.0170739,127.2172 C19.9200739,127.3172 17.8200739,127.3722 15.7210739,127.4432 C15.2970739,127.4572 14.8670739,127.4262 14.4480739,127.4782 C13.4500739,127.6002 12.9830739,128.4002 13.3470739,129.3392 C13.6460739,130.1102 14.2110739,130.6442 15.0330739,130.6782 C15.9560739,130.7152 16.8850739,130.5762 17.8120739,130.5392 C18.6710739,130.5062 19.4480739,130.2232 20.2060739,129.8532 C20.4620739,129.7282 20.7180739,129.5852 20.9910739,129.5232 C21.6320739,129.3752 22.2810739,129.1882 22.9300739,129.1672 C23.9140739,129.1382 24.4000739,129.8102 24.1800739,130.7682 C24.0880739,131.1672 23.9480739,131.5562 23.8310739,131.9502 C23.4040739,133.3932 22.3810739,134.2212 20.9870739,134.6012 C18.7970739,135.1992 16.5420739,135.2262 14.3030739,135.1142 C12.1890739,135.0072 10.1900739,135.4162 8.21707392,136.0732 C7.20007392,136.4112 6.96107392,137.3192 7.67907392,138.1202 C8.01307392,138.4932 8.42107392,138.8082 8.82807392,139.1042 C10.1010739,140.0322 11.0350739,139.9642 12.2630739,138.9962 C12.6560739,138.6872 13.1610739,138.4412 13.6490739,138.3522 C14.3400739,138.2262 15.0630739,138.2722 15.7720739,138.2452 C16.8110739,138.2062 17.8500739,138.1752 18.8880739,138.1282 C19.5810739,138.0982 20.2750739,137.9892 20.9640739,138.0212 C21.7400739,138.0582 22.0620739,138.6872 21.6980739,139.3742 C21.5310739,139.6932 21.3090739,139.9932 21.0640739,140.2562 C20.0020739,141.3952 19.0990739,142.6472 18.3090739,143.9862 C17.8850739,144.7052 17.4280739,145.4072 16.9880739,146.1172 C16.7720739,146.4652 16.5590739,146.8162 16.3460739,147.1652 C16.0010739,147.7312 15.7190739,148.3472 15.3030739,148.8552 C12.6500739,152.0932 9.66907392,155.0182 6.52907392,157.7742 C5.02307392,159.0942 3.56507392,160.5372 1.47007392,160.9662 C1.03707392,161.0542 0.725073924,161.3942 0.767073924,161.9102 C0.800073924,162.3032 1.19007392,162.6302 1.70807392,162.7052" id="Fill-3" fill="#000000"></path>
                <path d="M23.5979739,66.1031 C23.8619739,66.0531 24.1459739,66.0461 24.3839739,65.9381 C26.0669739,65.1731 27.8849739,65.3581 29.6479739,65.1881 C30.9669739,65.0611 31.6569739,65.8501 31.5669739,67.2041 C31.5109739,68.0521 31.4889739,68.9061 31.4919739,69.7561 C31.4949739,70.5881 31.7889739,71.3291 32.3049739,71.9871 C32.8389739,72.6701 33.0209739,73.4561 32.8859739,74.3101 C32.7689739,75.0461 32.3249739,75.4961 31.6219739,75.6931 C31.3959739,75.7561 31.1569739,75.7931 30.9229739,75.8011 C28.7449739,75.8741 26.5679739,75.9381 24.3909739,76.0021 C24.2169739,76.0081 24.0429739,76.0081 23.8689739,76.0001 C23.0569739,75.9651 22.6199739,75.5991 22.5769739,74.7901 C22.5279739,73.8911 22.5649739,72.9891 22.5649739,72.0881 C22.5829739,72.0841 22.6009739,72.0811 22.6189739,72.0771 C22.4829739,70.7281 22.3619739,69.3781 22.2079739,68.0321 C22.0699739,66.8201 22.4119739,66.3251 23.5979739,66.1031 M33.0479739,79.4491 C33.7799739,80.3411 34.4319739,81.3131 34.5819739,82.4971 C34.6439739,82.9901 34.5149739,83.5051 34.5349739,84.0081 C34.5559739,84.5721 34.5769739,85.1511 34.7179739,85.6921 C35.0809739,87.0921 34.6649739,88.1461 33.3869739,88.8591 C33.3459739,88.8811 33.3039739,88.9071 33.2599739,88.9221 C30.8179739,89.7711 28.8289739,91.3971 26.6949739,92.7721 C26.2349739,93.0691 25.8679739,93.5091 25.4149739,93.8211 C24.9389739,94.1481 24.4369739,94.4751 23.8989739,94.6651 C23.1629739,94.9231 22.7019739,94.5821 22.6009739,93.8051 C22.5319739,93.2731 22.5089739,92.7351 22.4649739,92.2001 C22.4969739,92.1991 22.5299739,92.1981 22.5619739,92.1981 C22.5619739,89.3371 22.5739739,86.4761 22.5529739,83.6171 C22.5489739,83.0211 22.4539739,82.4221 22.3529739,81.8321 C22.1949739,80.9091 22.5629739,80.4321 23.5019739,80.4301 C24.2419739,80.4281 24.9999739,80.5541 25.7159739,80.4281 C26.4789739,80.2931 27.2369739,79.9991 27.9359739,79.6511 C29.2359739,79.0031 30.6199739,78.9731 32.0069739,78.9841 C32.3619739,78.9871 32.8289739,79.1811 33.0479739,79.4491 M8.11797392,106.6521 C8.17697392,106.7061 8.23297392,106.7611 8.29597392,106.8101 C9.26197392,107.5511 10.1769739,108.3181 10.8329739,109.3941 C11.3859739,110.3001 12.3319739,110.2861 13.0739739,109.5061 C13.4439739,109.1171 13.7959739,108.7061 14.1969739,108.3511 C16.4869739,106.3331 18.8319739,104.3771 20.8609739,102.0801 C21.2559739,101.6321 21.7579739,101.2821 22.1909739,100.8661 C22.9069739,100.1781 23.6119739,99.4791 24.3119739,98.7761 C24.6239739,98.4621 24.8879739,98.0971 25.2189739,97.8071 C26.7649739,96.4531 28.3259739,95.1171 29.8809739,93.7741 C31.3689739,92.4911 33.1769739,91.5851 34.3409739,89.9151 C34.6489739,89.4731 35.2279739,89.4461 35.6559739,89.7901 C35.9179739,89.9991 36.1349739,90.2911 36.3039739,90.5861 C36.6189739,91.1331 36.9079739,91.6991 37.1609739,92.2761 C37.3179739,92.6321 37.3899739,93.0261 37.4979739,93.4041 C37.6799739,94.0351 37.7819739,94.7031 38.0599739,95.2881 C38.4789739,96.1651 39.0149739,96.9881 39.5139739,97.8261 C39.7319739,98.1921 39.9749739,98.5421 40.2199739,98.8911 C40.9639739,99.9511 41.7049739,101.0131 42.4639739,102.0621 C43.1489739,103.0081 43.7809739,104.0101 44.5699739,104.8631 C46.7169739,107.1851 49.2959739,108.9931 51.8829739,110.7811 C52.0749739,110.9141 52.3139739,110.9761 52.5189739,111.0911 C52.9569739,111.3361 53.4189739,111.5531 53.8139739,111.8561 C54.6149739,112.4701 55.2479739,112.4821 55.9429739,111.7381 C56.4939739,111.1481 57.1119739,110.6881 57.8599739,110.3851 C58.5089739,110.1241 58.8849739,109.6181 59.0349739,108.9381 C59.2769739,107.8461 59.0819739,106.8291 58.4799739,105.8981 C58.1109739,105.3281 57.6649739,104.8061 57.3119739,104.2271 C56.8719739,103.5041 56.2639739,102.7831 56.1349739,101.9941 C55.8919739,100.5101 55.9159739,98.9791 55.8779739,97.4661 C55.8599739,96.7271 55.9879739,95.9851 55.9839739,95.2451 C55.9809739,94.7081 55.6499739,94.3081 55.2599739,94.2471 C54.7459739,94.1671 54.4919739,94.5061 54.2639739,94.8921 C53.3589739,96.4281 52.4599739,97.9681 51.5329739,99.4911 C51.0519739,100.2801 50.4999739,100.2721 49.8469739,99.6231 C48.7839739,98.5661 47.6659739,97.5651 46.5839739,96.5281 C46.1519739,96.1151 45.7119739,95.6991 45.3469739,95.2291 C44.5309739,94.1811 43.7449739,93.1101 42.9779739,92.0261 C42.6609739,91.5781 42.3899739,91.0881 42.1569739,90.5901 C41.7769739,89.7761 41.4199739,88.9481 41.1029739,88.1071 C40.9489739,87.7011 40.8389739,87.2531 40.8279739,86.8221 C40.8079739,86.0021 40.5029739,85.3461 40.0029739,84.7081 C39.6979739,84.3191 39.5249739,83.8011 39.3799739,83.3151 C39.1279739,82.4721 39.0069739,81.5871 38.7169739,80.7591 C38.1259739,79.0751 39.1439739,77.5191 40.9229739,77.4961 C41.9029739,77.4821 42.8839739,77.4931 43.8639739,77.4931 L43.8639739,77.4061 C45.7609739,77.4061 47.6579739,77.4201 49.5549739,77.3991 C50.3269739,77.3901 50.9919739,77.1071 51.3049739,76.3311 C51.6159739,75.5601 51.2849739,74.9341 50.7529739,74.4061 C49.8559739,73.5161 48.9399739,72.6451 48.0219739,71.7791 C47.5379739,71.3231 46.9719739,71.2741 46.4679739,71.6361 C45.6099739,72.2531 44.7309739,72.8471 43.9189739,73.5191 C42.6649739,74.5571 41.1139739,74.9511 39.6639739,75.5461 C38.7639739,75.9161 37.9659739,75.3891 37.7909739,74.4251 C37.6849739,73.8431 37.7009739,73.2321 37.7179739,72.6361 C37.7419739,71.8161 37.8459739,70.9991 37.8679739,70.1781 C37.8939739,69.2011 37.8449739,68.2201 37.8789739,67.2431 C37.9039739,66.5181 37.6669739,65.9521 37.1099739,65.4971 C36.8669739,65.2981 36.6259739,65.0821 36.4379739,64.8331 C36.0409739,64.3051 36.2189739,63.8121 36.8449739,63.6341 C36.9959739,63.5911 37.1569739,63.5831 37.3079739,63.5401 C38.0129739,63.3331 38.7169739,63.1221 39.4209739,62.9081 C39.7949739,62.7931 40.1599739,62.6171 40.5409739,62.5691 C40.9899739,62.5111 41.4519739,62.5711 41.9079739,62.5651 C43.0289739,62.5501 43.7799739,62.1051 44.0889739,61.2841 C44.4539739,60.3141 43.9429739,59.6771 43.3039739,59.0371 C42.7379739,58.4691 42.2899739,57.7851 41.7349739,57.2051 C41.2039739,56.6501 40.6399739,56.1151 40.0219739,55.6631 C39.3689739,55.1831 38.6479739,55.2391 38.0029739,55.7461 C37.5679739,56.0861 37.1829739,56.4951 36.7339739,56.8131 C36.2249739,57.1731 35.6989739,57.5411 35.1259739,57.7731 C33.9429739,58.2501 32.7089739,58.6051 31.5239739,59.0821 C30.8879739,59.3381 30.3149739,59.7521 29.7039739,60.0781 C29.3459739,60.2681 28.9849739,60.5051 28.5979739,60.5761 C27.9459739,60.6951 27.3949739,60.9391 26.9499739,61.4271 C26.5279739,61.8901 26.0059739,62.1501 25.3829739,62.2301 C24.6939739,62.3191 24.0599739,62.5511 23.5709739,63.0721 C22.3999739,64.3171 20.8459739,64.0501 19.8579739,63.3741 C19.3759739,63.0441 18.9349739,62.6551 18.4569739,62.3181 C17.9679739,61.9731 17.4759739,61.6221 16.9499739,61.3411 C16.4379739,61.0691 15.8769739,61.0041 15.4089739,61.4581 C14.9429739,61.9101 15.0069739,62.4691 15.2209739,63.0031 C15.3659739,63.3671 15.6309739,63.6811 15.7829739,64.0421 C15.9939739,64.5461 16.2409739,65.0621 16.3069739,65.5931 C16.4159739,66.4531 16.4169739,67.3291 16.4179739,68.1991 C16.4269739,76.2241 16.4319739,84.2501 16.4229739,92.2761 C16.4209739,94.3481 16.3869739,96.4201 16.3239739,98.4921 C16.2949739,99.4381 15.9239739,99.7611 15.0589739,100.1081 C14.3959739,100.3741 13.7869739,100.7801 13.1689739,101.1481 C12.5879739,101.4951 12.0479739,101.9131 11.4519739,102.2281 C10.3059739,102.8341 9.14997392,103.4101 8.16397392,104.2791 C7.15997392,105.1641 7.13097392,105.7491 8.11797392,106.6521" id="Fill-5" fill="#000000"></path>
                <path d="M26.5608739,192.9283 C25.5848739,192.7413 25.1968739,192.1343 25.3388739,191.2773 C25.5008739,190.3013 26.1628739,189.7673 27.1078739,189.7893 C28.0188739,189.8113 28.9308739,189.8123 29.8408739,189.7703 C31.0018739,189.7163 31.5558739,190.1553 31.6628739,191.3123 C31.6908739,191.6103 31.6668739,191.9123 31.6668739,192.2123 C31.6818739,192.2133 31.6958739,192.2133 31.7098739,192.2143 C31.6768739,192.6393 31.6668739,193.0673 31.6058739,193.4873 C31.5208739,194.0693 31.1928739,194.4693 30.6148739,194.6333 C30.0238739,194.8013 29.4048739,194.8453 28.9948739,194.3243 C28.3578739,193.5153 27.5538739,193.1183 26.5608739,192.9283 M30.2878739,201.9523 C30.5328739,201.4683 30.8898739,201.0913 31.4158739,200.9263 C32.4608739,200.5983 33.2478739,199.9003 34.0328739,199.1793 C34.7368739,198.5323 35.0188739,197.7373 34.8808739,196.8283 C34.7398739,195.8933 34.9628739,195.1023 35.4598739,194.3133 C35.7528739,193.8473 35.9858739,193.2783 36.0338739,192.7373 C36.1238739,191.7023 36.0608739,190.6553 36.0638739,189.6133 C36.0658739,189.1383 36.0508739,188.6623 36.0838739,188.1903 C36.1368739,187.4193 36.2218739,186.6513 36.2928739,185.8803 L36.2258739,185.8743 C36.2258739,185.5273 36.2258739,185.1783 36.2258739,184.8303 C36.2268739,183.4473 35.6938739,182.3013 34.6308739,181.4313 C33.9538739,180.8773 33.2308739,181.1223 33.0598739,181.9783 C32.9468739,182.5403 32.9678739,183.1373 32.9838739,183.7183 C32.9998739,184.3173 33.1058739,184.9123 33.1288739,185.5113 C33.1478739,185.9933 33.1028739,186.5183 32.5678739,186.7103 C32.0588739,186.8933 31.7568739,186.4773 31.4648739,186.1453 C30.2278739,184.7373 29.3818739,184.6913 28.0718739,185.9963 C27.1428739,186.9223 26.0298739,186.9963 24.8608739,186.6833 C24.1408739,186.4913 23.7968739,185.8123 23.9928739,185.0743 C24.0928739,184.6983 24.2408739,184.3203 24.4408739,183.9873 C24.9428739,183.1553 24.8448739,182.3923 24.2668739,181.6583 C24.0518739,181.3853 23.8168739,181.1283 23.5908739,180.8643 C23.4478739,180.6953 23.2888739,180.5373 23.1638739,180.3563 C22.7408739,179.7443 22.9458739,179.1963 23.6788739,179.0533 C24.0608739,178.9803 24.4638739,179.0273 24.8528739,178.9823 C25.4108739,178.9163 26.0208739,178.9373 26.5058739,178.7063 C27.3818739,178.2893 28.2588739,177.9363 29.2068739,177.7223 C30.0988739,177.5223 30.4738739,176.8323 30.2098739,175.9573 C30.1078739,175.6193 29.9258739,175.2803 29.6998739,175.0093 C28.9088739,174.0633 28.0888739,173.1413 27.2678739,172.2203 C26.6648739,171.5443 26.1428739,171.5673 25.5158739,172.2383 C25.1278739,172.6523 24.7318739,173.0673 24.2968739,173.4293 C22.8718739,174.6163 21.1278739,175.2423 19.5198739,176.1103 C18.9538739,176.4153 18.4148739,176.7743 17.8528739,177.0873 C17.4008739,177.3393 16.9388739,177.5773 16.4678739,177.7903 C14.9898739,178.4593 13.4718739,179.0483 12.0358739,179.7983 C11.1448739,180.2643 10.2918739,180.6393 9.26587392,180.6033 C8.83987392,180.5883 8.37587392,180.6873 7.98487392,180.8603 C7.43987392,181.1003 7.39787392,181.7113 7.85587392,182.0983 C8.01887392,182.2363 8.23287392,182.3653 8.43787392,182.3943 C10.0528739,182.6213 11.6508739,182.7073 13.0748739,181.6723 C13.7248739,181.1993 14.4408739,180.9003 15.2498739,180.8093 C16.0488739,180.7203 16.8418739,180.5793 17.6388739,180.4693 C18.7518739,180.3153 19.3698739,180.7883 19.4588739,181.9093 C19.5058739,182.4903 19.4698739,183.0753 19.4808739,183.6583 C19.5008739,184.7173 19.5398739,185.7763 19.5498739,186.8343 C19.5578739,187.7143 19.0618739,188.2743 18.1838739,188.3503 C17.7458739,188.3883 17.2918739,188.3883 16.8608739,188.3133 C15.9078739,188.1483 15.0388739,188.3013 14.2428739,188.8523 C13.5148739,189.3573 12.7168739,189.6883 11.8328739,189.7673 C11.1418739,189.8293 10.4458739,189.8823 9.75287392,189.8723 C8.94887392,189.8623 8.14487392,189.7793 7.34087392,189.7283 C6.83987392,189.6963 6.31587392,189.6893 6.05187392,190.2043 C5.80087392,190.6943 6.12487392,191.0723 6.42787392,191.4323 C6.81387392,191.8913 7.19987392,192.3523 7.56187392,192.8293 C8.04287392,193.4643 8.37887392,193.5723 9.15787392,193.4033 C10.0648739,193.2053 10.9768739,192.9853 11.8978739,192.9073 C13.0608739,192.8103 14.1328739,192.6183 14.9878739,191.7173 C15.3698739,191.3133 15.9298739,191.2313 16.4888739,191.2703 C17.3148739,191.3273 17.6718739,191.9293 17.2168739,192.6093 C16.7598739,193.2923 16.4488739,194.0153 16.2718739,194.8143 C16.2118739,195.0843 16.0508739,195.3343 15.9258739,195.5893 C15.6748739,196.0983 15.4198739,196.6063 15.1608739,197.1123 C14.9518739,197.5193 14.7598739,197.9383 14.5148739,198.3233 C13.8908739,199.3083 13.2438739,200.2803 12.6008739,201.2533 C11.6088739,202.7563 10.6068739,204.2533 9.62087392,205.7603 C9.18787392,206.4203 8.81487392,207.1203 8.35987392,207.7633 C7.66487392,208.7423 6.88087392,209.6593 6.20987392,210.6543 C5.25187392,212.0733 3.96787392,213.1253 2.59987392,214.1033 C1.85387392,214.6353 1.11187392,215.1723 0.378873924,215.7213 C0.0978739241,215.9323 -0.0871260759,216.2293 0.0418739241,216.5903 C0.179873924,216.9743 0.511873924,217.1613 0.904873924,217.1183 C1.20887392,217.0863 1.53187392,216.9993 1.79587392,216.8483 C3.28587392,215.9913 4.57787392,214.8653 5.78887392,213.6653 C6.74587392,212.7173 7.77387392,211.9173 8.98387392,211.3303 C9.36187392,211.1473 9.73387392,210.9073 10.0358739,210.6153 C10.8208739,209.8603 11.5638739,209.0603 12.3268739,208.2813 C12.9448739,207.6483 13.5218739,206.9653 14.1958739,206.3983 C15.8818739,204.9793 17.3378739,203.4133 17.9298739,201.2133 C17.9418739,201.1683 17.9648739,201.1253 17.9878739,201.0833 C18.1598739,200.7633 18.3758739,200.4983 18.7798739,200.4973 C19.1908739,200.4963 19.5238739,200.7223 19.6258739,201.0743 C19.7618739,201.5453 19.8638739,202.0713 19.7968739,202.5483 C19.5328739,204.4483 19.6348739,206.3283 19.9028739,208.2143 C19.9688739,208.6783 19.9828739,209.1583 19.9438739,209.6253 C19.8308739,210.9763 19.6528739,212.3233 19.5508739,213.6743 C19.4978739,214.3823 19.5748739,215.0993 19.5528739,215.8103 C19.5048739,217.3023 19.1028739,217.7283 17.6378739,217.9033 C17.6218739,217.9053 17.6058739,217.9053 17.5898739,217.9073 C16.5208739,218.0603 16.0388739,218.9893 16.5568739,219.9433 C16.7208739,220.2443 16.9508739,220.5153 17.1758739,220.7793 C17.6168739,221.2953 17.8308739,221.8873 17.8358739,222.5633 C17.8388739,222.9103 17.8228739,223.2623 17.8638739,223.6063 C17.9358739,224.2053 18.1878739,224.7043 18.8038739,224.9123 C19.4448739,225.1283 20.0028739,224.9293 20.4318739,224.4483 C20.6668739,224.1833 20.8008739,223.8303 20.9848739,223.5203 C21.2898739,223.0073 21.5698739,222.4783 21.9098739,221.9903 C22.4698739,221.1883 23.1148739,220.4413 23.6358739,219.6153 C23.9198739,219.1613 24.1078739,218.6073 24.1888739,218.0753 C24.3368739,217.1113 24.5538739,216.2003 25.0818739,215.3563 C25.3308739,214.9583 25.4818739,214.4433 25.5068739,213.9713 C25.6338739,211.5393 25.7858739,209.1043 25.7748739,206.6703 C25.7648739,204.2863 25.5598739,201.9043 25.4628739,199.5203 C25.4418739,199.0053 25.4428739,198.4663 25.5738739,197.9763 C25.7258739,197.4073 26.4248739,197.3393 26.7628739,197.8303 C26.9088739,198.0433 27.0208739,198.3153 27.0468739,198.5703 C27.1078739,199.1973 27.0488739,199.8413 27.1538739,200.4583 C27.2468739,201.0043 27.4078739,201.5763 27.6918739,202.0433 C28.3438739,203.1143 29.5538739,203.4043 30.2878739,201.9523" id="Fill-7" fill="#000000"></path>
                <g id="编组" transform="translate(27.299619, 171.318904)">
                    <mask id="mask-2" fill="white">
                        <use xlink:href="#path-1"></use>
                    </mask>
                    <g id="Clip-10"></g>
                    <path d="M32.7973547,43.4677956 C32.5433547,43.2547956 32.2893547,43.0277956 32.0003547,42.8737956 C30.2103547,41.9267956 28.7913547,40.5447956 27.4093547,39.0957956 C26.0123547,37.6307956 24.5533547,36.2237956 23.0893547,34.8257956 C21.2783547,33.0967956 20.0963547,30.8697956 18.4443547,29.0157956 C17.9013547,28.4047956 17.7033547,27.6157956 17.8523547,26.7927956 C18.0663547,25.6087956 17.8803547,24.5547956 17.0903547,23.5917956 C16.8213547,23.2637956 16.6903547,22.7597956 16.6483547,22.3217956 C16.5543547,21.3267956 16.3113547,20.4377956 15.5343547,19.7407956 C15.0473547,19.3057956 14.8393547,18.7217956 14.9223547,18.0677956 C15.0413547,17.1267956 15.1303547,16.1787956 15.3353547,15.2557956 C15.6163547,13.9927956 16.7133547,13.6967956 17.6543547,14.5907956 C18.0313547,14.9487956 18.4223547,15.3147956 18.7133547,15.7397956 C18.9973547,16.1567956 19.2903547,16.6407956 19.3503547,17.1227956 C19.4573547,17.9817956 19.7603547,18.6997956 20.3173547,19.3397956 C20.7083547,19.7887956 20.8883547,20.3147956 20.8443547,20.9167956 C20.8213547,21.2477956 20.8043547,21.5827956 20.8303547,21.9127956 C20.8863547,22.6167956 21.3033547,23.0617956 21.9303547,23.3297956 C22.5553547,23.5977956 23.1413547,23.5297956 23.6523547,23.0727956 C24.4183547,22.3907956 25.1733547,21.6967956 25.9253547,20.9997956 C26.5483547,20.4227956 26.7073547,19.7617956 26.3803547,18.9787956 C25.8963547,17.8187956 25.2143547,16.7817956 24.1233547,16.1187956 C22.6803547,15.2417956 21.1933547,14.4397956 19.7333547,13.5927956 C18.9283547,13.1267956 18.1193547,12.6637956 17.3463547,12.1497956 C16.6983547,11.7187956 16.3823547,11.0797956 16.4223547,10.2817956 C16.4653547,9.41379561 16.5163547,8.54479561 16.5303547,7.67479561 C16.5473547,6.59479561 16.8283547,5.66479561 17.5913547,4.82879561 C18.7093547,3.60579561 18.2283547,2.13979561 16.6703547,1.58679561 C15.9963547,1.34879561 15.3493547,1.00279561 14.7353547,0.629795611 C14.0083547,0.187795611 13.2653547,-0.0902043891 12.4073547,0.0267956109 C11.6513547,0.127795611 11.2463547,0.571795611 11.2383547,1.32779561 C11.2353547,1.57879561 11.2763547,1.83079561 11.2973547,2.08179561 C11.3483547,2.66379561 11.4383547,3.24579561 11.4433547,3.82779561 C11.4543547,5.12479561 11.3833547,6.42479561 11.4223547,7.72079561 C11.4573547,8.90279561 11.5433547,10.0867956 11.6923547,11.2597956 C11.9253547,13.0927956 11.9333547,14.8777956 11.1343547,16.6057956 C10.8923547,17.1277956 10.7333547,17.7157956 10.6713547,18.2877956 C10.4963547,19.9047956 10.3693547,21.5277956 10.2663547,23.1507956 C10.1843547,24.4437956 10.0873547,25.7437956 10.1443547,27.0337956 C10.1823547,27.8777956 10.0813547,28.5957956 9.51035473,29.2267956 C9.11835473,29.6587956 8.99135473,30.1917956 8.98035473,30.7607956 C8.96635473,31.4567956 8.96235473,32.1537956 8.93135473,32.8487956 C8.90135473,33.5287956 8.83235473,34.1857956 8.43535473,34.7937956 C7.94635473,35.5417956 7.54535473,36.3467956 7.10335473,37.1257956 C6.98635473,37.3317956 6.84635473,37.5257956 6.74035473,37.7367956 C6.45035473,38.3107956 6.12335473,38.8717956 5.90335473,39.4727956 C5.64035473,40.1947956 5.35435473,40.8787956 4.80635473,41.4407956 C4.61335473,41.6377956 4.41635473,41.8967956 4.36635473,42.1557956 C4.13935473,43.3477956 3.44835473,44.2687956 2.66735473,45.1217956 C1.58435473,46.3057956 0.609354731,47.5477956 0.0643547307,49.0787956 C0.00635473071,49.2417956 -0.00864526929,49.4297956 0.00435473071,49.6027956 C0.00635473071,49.6307956 0.268354731,49.6917956 0.382354731,49.6547956 C1.42335473,49.3087956 2.38135473,48.8617956 3.16035473,48.0187956 C4.84335473,46.1947956 6.60035473,44.4407956 8.31335473,42.6447956 C8.56035473,42.3857956 8.82435473,42.0817956 8.91835473,41.7517956 C9.27235473,40.5127956 10.1073547,39.6007956 10.9233547,38.6827956 C11.5193547,38.0117956 11.8923547,37.2707956 12.1113547,36.4027956 C12.2413547,35.8857956 12.4853547,35.3387956 12.8363547,34.9487956 C13.4783547,34.2367956 13.6803547,33.4617956 13.5473547,32.5477956 C13.4313547,31.7507956 13.3143547,30.9527956 13.2393547,30.1527956 C13.2023547,29.7457956 13.3053547,29.3447956 13.7633547,29.1927956 C14.1833547,29.0527956 14.5573547,29.2417956 14.7993547,29.7307956 C15.2133547,30.5647956 15.6313547,31.3987956 15.9943547,32.2557956 C16.1563547,32.6397956 16.2223547,33.0747956 16.2703547,33.4937956 C16.3923547,34.5567956 16.3463547,35.6397956 16.8733547,36.6347956 C17.1733547,37.2017956 17.3563547,37.8317956 17.5993547,38.4317956 C17.8413547,39.0307956 18.0493547,39.6497956 18.3473547,40.2207956 C19.6753547,42.7667956 21.4103547,45.0477956 23.0753547,47.3717956 C23.3643547,47.7767956 23.7683547,48.1087956 24.1603547,48.4227956 C24.5453547,48.7327956 25.0073547,48.7987956 25.4443547,48.5167956 C26.4793547,47.8487956 27.5223547,47.1917956 28.5213547,46.4707956 C29.2463547,45.9477956 30.0173547,45.7637956 30.8853547,45.8417956 C31.5143547,45.8987956 32.1453547,45.9597956 32.7763547,45.9637956 C33.4323547,45.9667956 34.0883547,45.9037956 34.7483547,45.8687956 L34.7483547,44.3437956 C33.9633547,44.2797956 33.3543547,43.9337956 32.7973547,43.4677956" id="Fill-9" fill="#000000" mask="url(#mask-2)"></path>
                </g>
            </g>
        </g>
    </g>
</svg>