<?xml version="1.0" encoding="UTF-8"?>
<svg width="80px" height="325px" viewBox="0 0 80 325" version="1.1" xmlns="http://www.w3.org/2000/svg" xmlns:xlink="http://www.w3.org/1999/xlink">
    <title>title_黄帝内经</title>
    <g id="home" stroke="none" stroke-width="1" fill="none" fill-rule="evenodd">
        <g id="home备份" transform="translate(-120.000000, -414.000000)" fill="#000000">
            <g id="title_黄帝内经" transform="translate(119.999936, 414.000000)">
                <path d="M18.3400645,251.854727 C20.1293302,250.012016 23.7752674,250.334654 25.0050108,252.704871 C25.5206919,253.698533 26.2988718,254.17674 27.0518431,254.327377 C28.4059856,254.599073 29.5337985,255.387867 30.9010934,255.630531 C32.1500173,255.851832 33.3107109,256.869595 33.6773323,257.972812 C34.2845318,259.79909 35.7175884,261.088549 36.3417764,262.878674 C36.6914093,263.878909 36.7736114,264.733436 36.4880961,265.732027 C35.7274527,268.38873 34.6380008,270.833445 32.4311485,272.628499 C32.0519228,272.936896 31.6600928,273.413459 31.2408621,273.451803 C29.987006,273.566836 29.4669407,274.283324 29.4691328,275.393114 C29.4713249,276.579044 29.4598166,277.833446 31.0517972,278.20648 C31.6266639,278.341232 32.061787,278.807388 32.3692229,279.331059 C33.9096902,281.950513 34.3563216,284.813179 34.1173875,287.786495 C33.8499567,291.118055 30.4588461,294.48303 27.0364987,294.921797 C23.8908983,295.32441 21.6495211,298.999425 22.8573439,301.755822 C22.9833871,302.044499 22.9450261,302.372616 23.3423363,302.534209 C25.8473083,303.555259 28.2114407,304.998095 31.0260406,305.076975 C31.5932351,305.09286 32.1905703,305.081357 32.4421087,305.685551 C33.2490121,307.626559 34.8902521,308.517353 36.5375051,309.398812 L37.031033,309.664011 C37.6050933,309.975511 38.1697432,310.298619 38.6894683,310.677962 C39.0533496,310.94418 39.6868538,310.857631 39.6808684,311.558782 C39.6753455,312.259384 39.1585683,312.39085 38.6587795,312.654877 C37.4843855,313.274409 36.3905496,313.130345 35.1893029,312.692674 C34.9691443,312.612508 34.7505146,312.524757 34.5323281,312.43423 L34.096224,312.250904 C32.7877533,311.698378 31.4691695,311.161431 29.9059,311.679292 C29.4137442,311.842685 28.9005263,311.654516 28.3895408,311.432472 L28.0494702,311.28291 C27.8798559,311.209106 27.7110647,311.139383 27.5439596,311.085505 C26.2785953,310.676866 25.0203552,310.293972 23.3352121,310.956231 C24.3358857,313.87696 23.5900386,316.906149 24.3715066,319.819758 C24.8060817,321.438977 23.1631357,324.32465 21.570059,324.934322 C20.6800843,325.274489 19.5281589,324.257821 19.3643027,322.836896 C19.26018,321.930331 19.339642,320.996376 19.4010196,320.079403 C19.5566556,317.75246 18.6272239,315.463861 19.3927994,313.081593 C19.8492951,311.662311 17.0188028,310.035971 15.0536246,310.195921 C12.8275917,310.377782 10.8881702,311.302424 8.89065914,312.104364 C7.90916607,312.498762 6.91123257,312.70089 5.87329406,312.858649 C5.26061441,312.951771 4.49339481,313.075567 4.13225359,313.677023 C3.35023761,314.979629 2.4219019,314.623576 1.49521022,313.971725 C0.405210381,313.206485 -0.295699523,311.302424 0.122435158,310.510891 C0.302731764,310.169627 0.574546707,310.041996 0.924179638,310.061168 C3.51957394,310.204685 5.45406335,308.726244 7.45102636,307.406657 C8.15084024,306.944335 8.83969383,306.591569 9.7428209,306.74385 C11.1309404,306.977202 12.2225842,306.028458 13.4128707,305.585857 C15.2229609,304.913738 16.8894715,303.861465 18.6365401,303.010224 C19.2875807,302.693063 19.3308738,302.264704 19.3637547,301.584917 C19.4015676,300.795575 19.3155294,299.970627 19.6459819,299.163757 C19.9473896,298.429192 18.046329,296.589768 16.869743,296.243027 C14.9462138,295.676081 12.9848717,295.332079 11.2043742,294.201474 C9.26166461,292.968435 8.67474162,291.201317 8.37607399,289.178936 C8.36082094,289.075224 8.35532557,288.968865 8.35259819,288.862412 L8.34876303,288.650137 C8.33947545,288.193216 8.29466347,287.766502 7.64557133,287.577794 C7.51569201,287.539997 7.33923151,287.146148 7.39841702,287.050835 C8.52020167,285.254137 6.84273082,282.541014 9.3707194,281.141452 C9.72090034,280.94754 9.4841583,279.839941 9.69459567,279.213288 C10.0617651,278.118288 11.0027051,277.380437 11.6356613,276.448126 C12.60455,275.022819 12.4697386,274.464089 10.919407,273.920698 C8.80571697,273.180108 7.68557635,271.668252 7.12331399,269.589998 C6.31280129,266.594223 6.25580783,263.802768 8.99532981,261.648922 C9.14712969,261.529507 9.2534444,261.307659 9.30605375,261.113747 C9.79597826,259.321431 10.7884316,258.434037 12.6916842,258.298189 C13.2473704,258.25875 13.5696027,257.937207 14.0030817,257.750416 C14.1706897,257.678447 14.3236148,257.567375 14.4743249,257.451907 L14.7002872,257.279747 C14.9656083,257.085169 15.2432374,256.930272 15.5999945,257.001061 C17.1103211,257.300693 18.1372993,256.496014 19.3133374,255.728035 C20.4680029,254.974298 20.198928,254.228778 19.7232518,253.417525 C19.5259668,253.080722 19.2556729,252.786847 18.9726995,252.500638 L18.5462712,252.072665 L18.5462712,252.072665 Z M41.0827551,259.317651 C43.1032827,258.29934 45.1298384,258.655941 47.1328296,259.387766 C48.4064141,259.852826 49.6104009,259.84461 50.9667355,259.600303 C54.4011393,258.983509 57.912265,259.008159 61.3625611,259.375715 C64.8183374,259.743819 68.2571252,259.560863 71.7024892,259.571818 C73.3059782,259.576748 73.8265915,260.89524 74.6842334,261.765105 C75.0881197,262.174292 74.5033888,262.629492 74.0671696,262.900092 C72.6390451,263.785842 70.9977432,264.179691 69.4079546,264.424546 C68.1108055,264.624484 66.8372209,264.843045 65.6080255,265.262092 C64.6824299,265.57761 63.8335562,265.579253 62.8811079,265.337137 C62.0037375,265.114193 61.0512891,265.187047 59.9815658,265.120219 C60.0117066,266.786547 59.2713397,268.050809 58.5463172,269.321096 C58.0147436,270.252311 58.3715007,271.260763 58.3243715,272.230323 C58.1594193,275.647335 57.6240096,279.119126 58.0278959,282.473692 C58.5243966,286.591308 58.0218678,290.655241 58.1933961,294.738347 C58.2531297,296.170776 57.7330644,297.648121 57.7780015,299.026868 C57.8185546,300.267576 57.7259402,301.54115 57.8782881,302.789526 C57.9051408,303.004253 57.9478859,303.217885 57.951722,303.43316 C57.9846028,305.290113 58.1955882,305.149883 60.104321,304.958163 C62.7046474,304.696874 65.392656,304.26742 67.973254,305.295591 C68.5530528,305.526204 69.1169592,305.415006 69.7110064,305.243005 C71.7457823,304.655244 74.3855658,305.501006 75.4602212,307.194723 C75.8465711,307.8033 75.4574811,308.576756 74.7121821,308.70384 C74.3587131,308.763985 74.006647,308.835809 73.6547036,308.909636 L72.9506013,309.057093 C71.7761058,309.297748 70.5934916,309.488982 69.3553453,309.272429 C67.7814491,308.997446 66.1944005,309.117957 64.5980357,309.327206 C63.0389359,309.532074 61.4491473,309.507972 59.871415,309.559462 C58.9573277,309.58959 58.618107,310.099019 58.616463,310.93547 C58.6153669,311.539664 58.6065987,312.143311 58.6246832,312.746958 C58.6701683,314.250597 59.3568299,315.072258 60.9581268,315.094169 C63.8116357,315.13306 66.6640485,315.24645 69.5170094,315.328616 C70.3867076,315.352718 71.2914787,315.151137 72.0937712,315.645229 C74.1274512,316.896892 76.6477675,316.438953 78.7269327,317.548195 C78.8197662,317.597714 78.9214338,317.635466 79.0255301,317.669564 L79.2350634,317.73529 C79.5833568,317.844723 79.9111909,317.973633 79.9813367,318.422442 C80.0986117,319.172892 79.6514323,319.695468 79.0217642,319.997292 C77.7843486,320.589983 76.548577,321.179935 75.0853796,320.898927 C73.5646408,320.606964 72.0422579,320.577384 70.5061747,320.953157 C69.1405238,321.287299 67.9053002,320.650786 66.6010269,320.328695 C63.3233552,319.51799 60.0780163,320.258032 56.9050152,321.110916 C55.409485,321.514077 53.6646085,320.816761 52.3800636,322.140183 C52.3274543,322.194412 52.0665996,322.07938 51.9213759,322.00543 C49.5725879,320.812379 47.3991644,321.823022 45.2613618,322.637561 C44.7944539,322.816135 44.5127747,322.913091 44.1187526,322.678097 C43.1317794,322.088144 42.137682,321.511338 41.1649572,320.900023 C40.6388637,320.570263 40.3292358,320.180248 40.3681448,319.427059 C40.4234942,318.367665 40.7101055,317.263353 40.101262,316.2182 C39.8787683,315.836402 40.0053595,315.339023 40.491448,315.095812 C41.3068928,314.68772 42.1448062,313.893448 43.0704018,314.531605 C44.8421311,315.75314 46.8801952,315.710962 48.7768716,315.559776 C50.4905114,315.423381 52.2057952,315.21194 54.0701388,315.29794 C53.9545079,313.330337 55.1568506,311.565958 53.921627,309.785693 C51.6665494,309.785693 49.3670827,309.736941 47.070356,309.800483 L47.070356,309.800483 L46.6088769,309.812192 L46.6088769,309.812192 L46.3048383,309.81609 C44.5429155,309.823789 43.0070377,309.526801 42.8742128,306.748287 C44.3845394,306.958481 45.7591931,306.440304 47.1428656,305.886203 L47.7826509,305.630435 C49.2794363,305.039458 50.8124979,304.53037 52.5625523,304.968022 C53.0300082,305.08415 53.6821449,304.648123 54.1917979,304.366019 C54.9535374,303.944233 54.1896059,303.416179 54.2126225,302.934686 C54.3583942,299.902758 54.4570367,296.868639 54.6559658,293.841094 C54.7677606,292.130396 54.6181528,290.384641 54.7748848,288.73146 C54.9097806,287.311883 54.903052,285.893522 54.8717476,284.476282 L54.829877,282.776128 C54.7911923,281.0765 54.7845383,279.378433 55.0121749,277.681767 C55.3437234,275.207473 55.4494901,272.703051 55.6500632,270.211776 C55.6851361,269.769723 55.6188264,269.379708 55.3174187,268.986954 C54.2400232,267.585749 52.8683441,266.371334 52.5367956,264.404279 C50.7853429,264.959173 49.0843075,264.835377 47.498903,265.622527 C45.9924125,266.370786 45.27013,265.122958 44.8591195,263.956747 C44.5955248,263.207941 44.2217792,262.891875 43.5279935,262.537466 C42.2960581,261.907526 40.963288,261.177343 41.0827551,259.317651 Z M43.0445356,270.282329 C43.6731076,269.548313 45.997235,269.633765 46.9798241,270.426942 C47.9794016,271.233812 47.915832,272.576406 47.5601709,273.465443 C46.8066517,275.349237 46.8351484,277.065412 47.6253846,278.864301 C48.3624634,280.543776 47.6895022,282.18381 47.4253595,283.832609 C47.1420362,285.600823 46.5704576,287.328502 46.6340273,289.724464 C45.565948,292.192733 46.6904727,295.587287 45.017386,298.588539 C44.0737059,300.281708 42.4614487,300.730883 40.986743,301.456683 C40.3768034,301.756315 40.0326506,301.091866 40.124717,300.450423 C40.4288648,298.319583 40.7647973,296.193673 41.0760693,294.064476 C41.2081407,293.15791 42.1945659,292.917985 42.4466523,291.928158 C43.3201866,288.502929 42.9628815,284.968144 43.6955762,281.503475 C44.2266018,278.995767 44.9033991,276.109547 43.1497543,273.516934 C42.5343345,272.606534 42.1386684,271.340081 43.0445356,270.282329 Z M67.3177744,271.393379 C67.6871359,271.164957 68.2685787,270.901478 68.5234052,271.306283 C69.0999159,272.222709 70.5050238,272.669144 70.2090963,274.084592 C70.0222235,274.976915 69.8939882,275.8665 69.5849083,276.756632 C69.1612935,277.978168 69.1684177,279.364583 69.7882215,280.605838 C70.0194834,281.068707 70.1482667,281.482824 70.0474321,282.008139 C69.4111879,285.323814 70.0715448,288.367245 72.0164464,291.134598 C72.5414439,291.881214 72.7190004,292.736289 72.586381,293.628612 C72.4186887,294.760313 72.194551,295.882154 71.9786335,297.096568 C68.5595741,295.94953 66.8947076,293.525083 66.1395443,290.137102 C65.7986796,288.609361 65.3624605,287.055875 64.639082,285.577433 C63.9540645,284.177323 64.7470408,282.550983 65.0062514,281.070351 C65.3010829,279.38266 65.7016811,277.735504 65.4391824,276.018233 C65.2923147,275.055794 66.519866,271.885828 67.3177744,271.393379 Z M28.0486805,279.355709 C26.892919,277.59626 25.9492389,277.292793 23.9747445,277.615432 C21.9898377,277.939714 20.0334278,278.360404 18.0677016,278.766305 C14.4880741,279.503608 12.0444797,283.139183 13.0851583,286.71012 C13.8304573,289.267676 16.8670029,291.433025 19.4996621,291.149279 C22.2260318,290.855124 24.9781581,290.689696 27.5406715,289.481307 C27.745554,289.384825 27.9634009,289.318899 28.1811204,289.258382 L28.4414848,289.186748 C29.0880536,289.006103 29.6863456,288.783593 29.8828834,287.840177 C30.0905807,286.842681 30.5679009,285.901606 30.9312341,284.9189 C30.5454323,283.683122 30.3826721,282.338885 29.7179312,281.323313 C29.27952,280.653933 28.5331249,280.093013 28.0486805,279.355709 Z M25.2718936,259.559712 C24.6630999,260.626377 23.7359145,260.520535 22.7921364,260.37436 L22.508807,260.33043 C21.1957655,260.132136 19.962734,260.285513 18.6431163,260.641566 C16.4587325,261.229327 14.8037302,262.65573 13.0374811,263.825227 C10.4037258,265.569339 10.7988439,268.578808 13.6096077,270.129555 C14.0381546,270.366194 14.4403969,270.651584 14.873876,270.876719 C16.9081039,271.935018 19.1149563,273.091368 21.3393451,272.336536 C23.9632362,271.446951 26.660013,270.465341 28.6399876,268.240284 C29.6823102,267.068595 30.062632,265.168916 29.2499272,263.914514 C28.2108927,262.312276 26.9586807,260.911618 25.2718936,259.559712 Z M36.46908,204.536713 C38.3624684,202.205388 40.8334635,201.480683 43.5105119,202.818894 C43.7012208,202.914207 43.9565953,203.063749 44.0031765,203.236298 C44.7183347,205.867803 47.038078,205.018206 48.7588419,205.401648 C49.3578212,205.535304 50.0488669,205.421367 50.6659307,205.28059 C53.7479614,204.5767 56.5198162,206.074314 59.4429229,206.480214 C60.7641846,206.663718 61.9818717,207.011007 63.4149283,206.7667 C65.8837314,206.344914 68.1212725,207.404309 70.1878333,208.75238 C70.7583159,209.124866 70.7495477,209.647442 70.7342033,210.197955 C70.7172149,210.797219 70.9090198,211.309936 71.1002766,211.885098 C72.1995927,215.197486 75.2273701,217.740252 74.9352786,221.625064 C74.8810252,222.348125 75.6515329,222.982447 75.8718345,223.817802 C76.7278324,227.065005 76.479034,230.311112 76.3946399,233.593373 C76.3634031,234.811622 76.2357158,236.069858 76.4302608,237.318782 C76.7168721,239.154372 75.0963947,241.849967 73.502222,242.387881 C72.6900653,242.661768 71.2866014,241.292881 71.4389493,240.107499 C71.8455757,236.951226 70.3763501,233.970789 70.7161188,230.822733 C70.7580028,230.434009 70.5917951,230.04836 70.4249734,229.654431 L70.3264665,229.416989 C70.0724372,228.780677 69.9230643,228.117357 70.7281751,227.380523 C69.7960033,227.226051 69.315395,226.705118 68.8101261,226.242249 C70.7007744,221.346795 70.1100153,216.767406 64.8764817,212.081201 C64.3723088,212.250463 63.9618463,212.916556 63.3069696,212.619115 C60.1641093,211.192712 56.6447634,212.172679 53.3824361,210.911156 C51.4062976,210.146464 48.9544829,210.576467 46.725162,210.867334 C46.0774094,210.951692 45.5200792,211.323082 45.6773592,212.075176 C46.097686,214.088244 46.0889177,216.156638 47.0841112,218.094662 C48.4168812,220.690014 50.9607622,221.411432 53.2136477,222.60777 C54.2674787,223.167595 55.4292683,223.425048 56.6343511,223.657852 C59.1311029,224.141536 61.4694786,225.245848 63.6209816,226.58899 C64.1202223,226.900125 65.4228516,226.344683 65.1197999,227.512536 C64.9093625,228.319955 63.873616,228.102489 63.168322,228.285445 C62.7397751,228.396095 62.3956223,228.832123 62.0465374,229.096698 C60.9214324,228.573252 59.7496344,228.501946 58.5758667,228.467524 L57.7935539,228.445483 C57.0119309,228.419792 56.2338496,228.36948 55.4725614,228.171508 C54.9363392,228.031958 54.3969579,227.903767 53.8569729,227.779083 L53.0468622,227.593705 C49.9421514,226.885646 46.8597278,226.163709 44.2854037,223.935026 C43.3822766,223.1539 42.1810299,222.636254 41.2357058,221.825549 C38.8978781,223.303443 37.3870035,225.811151 34.666114,226.671703 C31.9068635,227.544855 29.4725853,229.483974 26.1998457,228.633281 C24.7514447,228.256961 22.9956078,228.554402 21.5033657,228.980022 C19.5590121,229.534369 17.6168504,228.603702 15.6571524,229.349769 C15.5530297,230.938861 16.1985902,232.480297 16.3980673,234.08363 C16.4523207,234.517467 16.7219436,235.050999 16.5580874,235.364873 C15.5343972,237.319878 14.5293396,239.248589 13.996122,241.437493 C13.8213055,242.153982 12.6375952,242.321053 12.3334475,241.184422 C11.7996818,239.18943 10.6428243,237.401496 10.4290988,235.309548 C10.3907379,234.930489 10.1874247,234.405174 10.3611451,234.193185 C11.5404712,232.750349 10.4669118,231.279577 10.4521154,229.844409 C10.4474573,229.386059 10.4222829,228.931099 10.3923391,228.476849 L10.3307579,227.568503 C10.2623808,226.508018 10.225192,225.441677 10.4192346,224.335448 C10.7836639,222.257742 10.3759415,220.055692 10.5962431,217.937998 C10.7875,216.099122 11.217691,214.238882 11.8703757,212.512299 C12.2167205,211.595874 12.3592041,210.623027 12.8304962,209.705506 C14.0169465,207.395544 16.0177456,206.505412 18.3089921,206.111562 C19.7168401,205.869994 21.1937378,206.064454 22.6317265,205.954899 C23.274547,205.906147 23.8066686,206.024466 24.3607107,206.299997 C25.4348181,206.834624 26.5971558,206.825859 27.7293528,206.634139 C29.5558834,206.324646 31.3878942,206.470902 33.2166169,206.431462 C34.666114,206.400239 35.7046005,205.478336 36.46908,204.536713 Z M30.911122,212.276209 C29.0248579,212.058195 27.2027113,211.567937 25.2643858,212.071889 C23.9146273,212.423012 22.5385642,212.41863 21.083039,212.128857 C18.0092285,211.516994 16.033638,213.155933 15.5217929,216.258524 C15.2017527,218.194904 15.7031856,220.066647 15.8100483,221.967422 C15.878002,223.175263 15.5026124,224.428022 16.0276098,225.687902 C17.0162271,225.203122 17.9960761,225.16916 18.9419483,224.973605 C20.4889918,224.653705 22.0349393,225.728437 23.5814348,224.816941 C23.9590164,224.593998 24.4615453,225.122051 24.5130586,225.695571 C24.5590918,226.211573 24.5788203,226.72922 24.6100571,227.246318 C25.0281918,226.764277 25.1120379,226.292644 24.9081767,225.821011 C24.6500621,225.223937 25.0079152,224.690953 25.429886,224.630698 C26.9533649,224.412684 28.3760093,223.44422 29.6753505,223.324258 C31.417487,223.16376 32.2882812,221.855129 33.7262699,221.4317 C34.3268933,221.254769 35.1949475,220.961162 35.6580193,220.404076 C37.6779989,217.974699 38.8277323,215.289512 37.7273202,211.969455 C36.9157114,212.022589 36.0997186,212.086679 35.2820817,212.127762 C33.8238164,212.19952 32.3436306,212.442184 30.911122,212.276209 Z M44.7359808,121.416588 C48.892667,120.055371 53.1414195,120.001141 57.4153807,120.655731 C59.2336911,120.934 61.0399453,121.078612 62.8774362,120.936191 C63.9005783,120.856764 64.8404223,120.92907 65.8591804,121.486156 C65.9968034,121.561367 66.1342523,121.638932 66.2718966,121.717628 L66.6857846,121.955893 C68.0006243,122.713421 69.3664223,123.462952 71.0998382,123.157961 C71.1157306,124.237076 70.6811555,124.654479 69.9835337,124.472618 C69.056842,124.230502 67.9767065,124.540542 67.2440117,124.170795 C66.7174799,123.905015 66.1777957,124.003395 65.6405666,124.132258 L65.3186486,124.210564 C64.6223391,124.376585 63.9354539,124.481339 63.2922828,123.791736 C63.0807494,123.564409 62.2790049,124.262821 61.9014233,124.743766 C61.8422378,124.819359 61.8668984,124.95685 61.8394977,125.062571 C61.2733601,127.257461 60.4019339,129.327166 59.4912144,131.382722 L58.8811657,132.752215 C58.5761498,133.437132 58.2733357,134.123218 57.9825752,134.814587 C56.956693,137.252728 55.3384076,138.785399 53.2148534,140.07705 C52.0552557,140.782583 50.771259,140.533346 49.5667242,140.677958 C48.4997409,140.806685 47.5856536,141.222993 46.4879815,141.43279 C46.5668956,142.302107 46.6392334,143.096379 46.7203395,143.986511 C47.7341654,144.241226 48.6625011,144.532094 49.8193586,144.407202 C53.4417312,144.015543 56.9753254,144.56989 60.2798498,146.181989 C61.2059935,146.633354 62.0762397,146.6098 62.9744347,146.261964 C63.378321,146.1053 63.7372702,145.8347 64.1197839,145.622164 C66.6406483,144.22315 68.3148311,144.92923 69.0398536,147.779297 C69.1943936,148.386778 69.3007083,148.939482 69.8432421,149.298274 C70.2849414,149.590237 70.3359067,149.996138 70.2082195,150.454076 C69.3133126,153.66677 70.2087675,156.448365 72.0259819,159.142316 C72.8244383,160.326055 72.227651,161.950752 72.5707078,163.321282 C73.3790285,166.551504 74.0306171,169.78337 73.7182491,173.146701 C73.5631612,174.811385 73.3697122,176.407598 72.0035133,177.608318 C71.5168769,178.035582 71.0735336,178.391087 70.4071485,178.128703 C69.7687122,177.877823 69.8328299,177.308138 69.7533678,176.753243 C69.6760979,176.214417 69.5196094,175.696344 69.3486696,175.180788 L69.1407504,174.56216 C68.8653294,173.735821 68.6192346,172.897245 68.6677521,171.971726 C68.7197351,170.976343 68.6827833,169.97613 68.6275538,168.975177 L68.5398332,167.473702 L68.5398332,167.473702 L68.5022519,166.723505 C68.4880035,166.396484 68.5137602,166.00647 68.350452,165.756137 C66.9343838,163.586405 67.6977673,161.044735 67.1141324,158.73039 C66.5458419,156.477945 65.7347812,154.399691 64.4184516,152.438661 C63.6835648,151.343661 62.3239421,150.453529 62.6111014,148.828832 C62.030904,148.76041 61.9678869,149.027877 61.9564812,149.322235 L61.9529238,149.470225 C61.9481675,149.666717 61.9318629,149.852272 61.7660638,149.935335 C59.3411019,149.828519 56.9676532,148.473874 54.6665425,148.859507 C52.2788455,149.25993 49.7777096,148.149592 47.5281121,149.529982 C47.4015209,149.607766 47.2058799,149.59188 47.0431197,149.589689 C46.192602,149.578186 45.1776801,149.272528 45.016564,150.593211 C44.7951663,152.40689 45.3946936,153.134881 46.9159805,153.655814 C48.7167545,154.272607 50.1574833,155.606437 51.6398611,156.733755 C52.4832547,157.37465 53.3940539,157.868195 54.2533399,158.453217 C56.1176835,159.721313 55.8984779,162.0006 56.8887392,163.677883 C59.621137,168.310406 58.836929,173.628742 59.8704834,178.590477 C59.9033642,178.750427 59.8754155,178.922427 59.9055563,179.082925 C60.6289348,182.917342 60.6300308,182.916794 58.7519868,186.827351 C57.6400664,184.909595 56.5319821,183.252031 56.2755116,181.196236 C56.0343854,179.258213 55.7910672,177.365107 55.1866077,175.457758 C54.5169346,173.34609 54.3695189,171.018052 54.3141695,168.776562 C54.2500518,166.192713 52.7128725,164.433811 51.3894187,162.515507 C51.1433605,162.158907 50.6452157,161.886663 50.5717819,161.514725 C50.1356997,159.310209 48.5263881,158.970144 46.9287132,158.625226 L46.5743475,158.547738 C46.162268,158.45547 45.75687,158.353568 45.3788012,158.209458 C44.8905207,158.023762 44.666383,158.474032 44.4559456,158.916634 C43.7079065,160.486553 43.9671171,162.168766 43.9736933,163.777578 C43.9819135,165.9191 44.0441131,168.06021 44.1199445,170.201253 L44.2778284,174.483347 L44.2778284,174.483347 L44.3479869,176.624516 C44.39402,178.187863 45.2681024,179.663565 44.7770818,181.286619 C44.2652368,182.976501 43.7977808,184.673504 43.4629443,186.418164 C43.3259408,187.130818 42.6513355,188.177613 41.6287414,187.966173 C40.7036938,187.775 40.6894454,186.734229 40.5623062,185.931193 C40.0367607,182.606754 39.7890584,179.239589 40.087726,175.906385 C40.3151519,173.371836 39.8531761,170.851529 40.0992343,168.400241 C40.3452926,165.944571 40.0378568,163.559016 40.1173188,161.147168 C40.1463635,160.245533 39.6235582,159.536713 39.577525,158.653154 C39.5424521,157.986514 37.9006022,158.07854 37.2309291,158.899105 C36.7563489,159.480293 36.3765752,160.012729 35.5079731,159.871403 C35.0799741,159.801836 34.7171889,160.200067 34.6333427,160.496413 C34.175751,162.115632 33.0117693,163.297728 32.1875562,164.68743 C31.1282452,166.474816 30.2727953,168.337795 30.7101105,170.528342 C30.8646504,171.301799 30.7128506,172.092784 30.3204725,172.762711 C28.8430268,175.285757 28.6199851,178.128703 28.2287031,180.914133 C28.027582,182.347657 27.1507596,183.645881 27.5371094,185.162119 C26.5895932,185.142399 26.1681705,184.872894 25.9456768,184.050138 C25.8201816,183.585078 25.7670242,183.063049 25.834978,182.589225 C26.578633,177.393043 27.0022478,172.116338 28.2363753,167.03738 C29.1164858,163.416047 29.7713625,159.437019 32.9399795,156.75457 C34.176299,155.707227 35.4367312,154.688916 36.6626386,153.630069 C37.6457757,152.781567 38.3581939,151.77202 38.4316277,150.484204 C36.3770525,149.550532 34.4597871,149.966721 32.5655184,150.434765 L31.9679593,150.582778 C30.9728573,150.827292 29.9807923,151.048323 28.9750982,151.056628 C25.406431,151.086207 23.0417506,153.631712 20.120836,154.975949 C18.1271611,155.89347 17.5566785,158.096068 17.3073321,160.206641 C16.9292025,163.399614 16.2672016,166.541097 15.5328628,169.662312 C15.2435114,170.892064 15.1645974,172.129485 14.9629282,173.359237 C14.8292128,174.172681 15.0084134,174.942303 14.1995447,175.705352 C13.4778103,176.386235 14.4582074,177.579834 14.2806508,178.656757 C14.1343311,179.544699 13.9874633,180.319251 13.5090471,181.076822 C11.7943113,180.925088 11.350968,179.952242 11.3800127,178.409711 C11.3933706,177.688362 11.288991,176.963161 11.1630709,176.239323 L11.0077839,175.371708 L11.0077839,175.371708 L10.9339293,174.939017 C10.6275895,173.052484 11.2523255,171.281531 11.5279765,169.460731 C12.2025817,165.006235 11.8830896,160.320578 13.349027,156.102172 C14.5519178,152.64298 14.1041903,149.122438 15.0062214,145.744317 C15.3142052,144.590706 15.7153515,143.399298 16.3669401,142.419878 C16.9796198,141.499618 17.8712385,141.997545 18.3803435,142.722797 C19.257714,143.972817 19.8281965,145.376213 20.0172614,147.011866 C21.1067132,147.463232 22.1457477,147.192084 23.0313384,146.512844 C24.6260591,145.290761 26.2394123,145.570125 27.9042788,146.247722 C28.0834794,146.320575 28.1558173,146.705113 28.4681852,146.253747 C29.3110308,145.037142 30.6624333,144.808172 31.9765709,144.998797 C33.6403414,145.240366 35.2087574,144.796669 36.8182745,144.654248 C37.5931663,144.585776 37.931291,143.954741 37.9954086,143.353285 C38.0808988,142.560108 38.1620049,141.758715 38.3883346,140.866392 C36.2856049,140.752455 34.4420858,140.13621 32.4303264,140.290134 C31.1726343,140.386542 29.5231122,140.401332 28.96907,138.618328 C28.9422173,138.531232 28.8238463,138.434824 28.7306839,138.411818 C25.8845571,137.704223 25.0658925,135.436184 24.2802057,133.144488 L24.0434945,132.457806 L24.0434945,132.457806 L23.9629621,132.230191 C23.929882,132.137567 23.9018744,132.042137 23.8751811,131.945974 L23.7952855,131.657362 C23.6979045,131.322923 23.5705841,131.00492 23.252188,130.792284 C22.7787039,130.475671 22.7003379,130.025949 23.0598351,129.696737 C23.8676077,128.95779 23.446733,128.284576 23.0110618,127.664496 C22.4668839,126.888848 21.5999258,126.950199 20.7658485,127.012098 C19.143179,127.131512 17.5687348,127.075092 16.0644364,126.275342 C14.9760806,125.696345 13.7814101,125.320024 12.6552413,124.80676 C12.2858799,124.638594 11.8759654,124.461663 11.9570715,123.846513 C12.0337934,123.265873 12.5050855,123.197949 12.8437581,123.022661 C13.1627023,122.857781 13.5950853,122.927348 13.9688309,122.851208 C17.0240089,122.227841 20.0917913,122.081586 23.1995786,122.419014 C24.3251994,122.541168 25.445888,121.95012 26.4334093,121.575443 C28.0993718,120.943312 29.7253293,121.053414 31.2422321,121.393034 C33.2709799,121.847139 35.15286,121.307034 36.8999286,120.777336 C39.3912003,120.023052 41.5766801,120.445933 43.8328537,121.282932 C44.1370015,121.395773 44.3660713,121.537646 44.7359808,121.416588 Z M49.9837628,125.133233 C45.0390325,124.30007 40.283367,126.224399 35.3687775,125.708396 C33.9970985,125.564879 32.4489589,126.580452 30.8679385,126.590312 C30.3160884,126.593598 30.141272,127.10248 30.1714127,127.540699 C30.2289542,128.395226 29.7784867,128.965459 29.3082907,129.593208 C28.2802164,130.964285 28.4873657,133.953487 29.8097235,134.820613 C30.8427299,135.497661 31.6192657,136.412991 32.5744541,137.134409 C33.117536,137.544144 34.0661482,138.14067 34.4272895,137.936898 C35.0974783,137.559031 35.748775,137.605976 36.3921569,137.700678 L36.8200261,137.76675 C37.2469637,137.831621 37.6714679,137.880477 38.0967912,137.801598 C38.7911249,137.673419 39.3747598,138.359779 40.1573238,138.097396 C40.7935681,137.883946 41.4531943,137.762462 42.117509,137.65798 L42.9157408,137.535963 C43.9798603,137.371362 45.0368405,137.17352 46.0101133,136.635387 C46.349334,136.448049 46.73952,136.365335 47.1269659,136.496801 C48.790234,137.060688 50.1090601,136.253395 51.3953838,135.471494 L51.7456278,135.259927 C53.2669147,134.351718 53.8494536,132.671696 54.8271106,131.301166 C56.097407,129.520901 56.683782,127.834854 56.1544005,125.841505 C54.0746873,125.086673 51.9522291,125.464637 49.9837628,125.133233 Z M31.4064171,109.461754 C35.8995839,109.716469 40.3708301,108.744171 44.8634488,109.180746 C46.472966,109.336862 48.1241321,110.061019 49.6487071,109.827119 C51.3420703,109.566927 52.9433672,110.219325 54.6257702,109.770699 C57.1597869,109.095841 59.3902039,110.128395 61.4392283,111.547677 C61.7132353,111.737754 62.0453317,112.120648 61.8447586,112.542982 C61.6332252,112.989965 61.2112544,113.135125 60.7279061,113.010781 C58.7468355,112.501899 56.8978362,112.921494 55.0910341,113.75904 C53.3883546,114.547834 51.5305871,114.113449 50.7765199,112.507377 C50.7769766,113.399335 50.3660422,113.588697 49.8710029,113.740527 L49.6692773,113.800833 L49.6692773,113.800833 L49.566505,113.832441 C47.4226742,114.513872 45.2870637,114.170966 43.1569332,113.900365 C41.9430822,113.746441 40.7714283,113.70974 39.5707296,113.992391 C37.9913533,114.363234 36.3911524,114.646433 34.7997198,114.969072 C33.087176,115.31636 31.4360098,114.564815 29.9229432,114.172609 C27.8689867,113.640173 25.8566793,114.207666 23.8788968,113.654963 C22.2743118,113.206336 20.6543824,112.875481 19.2191338,111.574518 C20.4549053,110.440626 21.5618936,109.811782 23.0892086,109.975566 C25.8802439,110.276294 28.6099017,109.303448 31.4064171,109.461754 Z M21.3289329,0.473780072 C21.6939102,-0.38458144 23.4744077,-0.00935640115 23.8218485,1.05935024 C24.3002648,2.53450503 25.2138041,3.60595054 26.3914862,4.50320399 C27.0244424,4.98524492 27.2343317,5.68639535 27.323658,6.3623482 C27.4913503,7.63044449 28.2843265,7.91583463 29.3655582,8.04291815 C35.6085336,8.77638724 41.8767177,8.66902358 48.1438058,8.67943128 C50.1007638,8.68217015 52.0582698,8.84978893 54.0141318,8.95879591 C57.1816527,9.13517907 58.9440657,7.44694028 58.9248852,4.23424706 C58.9232412,3.90393948 58.8903603,3.57417966 58.8947445,3.24441985 C58.9051567,2.47315437 58.8322709,1.50797697 59.6729243,1.24668887 C60.5541308,0.972254211 60.5826276,2.16311441 61.0983087,2.51642849 C63.5616317,4.20576283 62.0666495,6.75564977 62.5532859,8.91223514 C64.8691931,9.02124212 67.0333004,9.22665729 69.4341497,8.58247532 C71.5511278,8.01498169 74.1109011,7.98156749 76.4322884,8.28065197 C77.8099956,8.45867845 78.6161242,10.0017572 79.9121773,10.6903088 C79.7625695,11.3153187 79.6792714,11.9129399 79.4754102,12.4661914 C79.0616596,13.5902232 78.6632534,14.4420114 77.0049631,13.965996 C75.5510819,13.5485924 73.9048479,13.7545553 72.344652,13.7644153 C69.9591471,13.7797529 67.5741902,13.9221741 65.1897813,13.8931421 C63.96497,13.8778044 62.791672,14.6408533 61.540008,13.9506584 C60.3080726,16.6095523 59.8318484,19.3916953 58.7637691,21.9941685 C56.9246341,26.4738625 54.5572137,28.4529692 49.8864903,28.230573 C47.7388235,28.1286871 45.7506287,28.8051877 43.6780398,29.0314183 C43.3700559,29.0648325 43.2352444,29.3836368 43.2292163,29.6542371 C43.1954586,31.110658 42.9551216,32.5405228 42.6816056,33.9654621 L42.4034522,35.3895606 C42.0810222,37.0509627 41.7921044,38.7154744 41.8120521,40.417444 C41.8312326,42.0771986 41.9835805,43.7473608 42.2323788,45.3890389 C42.5655713,47.587255 42.082223,49.7421971 42.0586584,51.9190501 C42.0367378,53.9786795 42.2460792,56.0158502 42.354586,58.0628808 C42.3826443,58.5923589 42.4199311,59.1224944 42.4606025,59.6528577 L42.5869264,61.2442019 C42.7117157,62.8353708 42.8143697,64.4247254 42.7370997,66.0006706 C42.6132486,68.5341243 43.5761092,70.6227858 44.5449979,72.7503391 C45.1801461,74.1438756 45.1560335,75.598215 45.4119561,77.0290001 C45.442958,77.2024879 45.4703922,77.3772165 45.4969046,77.552346 L45.5763219,78.0780971 C45.712894,78.953553 45.8925643,79.8180294 46.4460585,80.5665232 C47.367818,81.8132563 47.6977224,83.2270604 48.0687279,84.7235784 C48.4545298,86.2825425 49.0683054,87.8365768 49.4979484,89.4125219 C50.108984,91.65456 50.6438457,93.9201523 51.1080136,96.1967002 C51.3639361,97.4516499 50.3599744,97.9331431 49.4053341,98.2114121 C48.4298691,98.4957067 47.9459728,97.8986333 47.6062041,97.0013799 C46.9798241,95.347103 47.7541679,93.5328763 46.8115838,91.8884594 C45.253032,89.167667 44.8858626,85.9900314 43.6791358,83.1229834 C43.491167,82.6776433 43.3158025,82.1797169 43.3212826,81.7086315 C43.3421072,79.9886218 42.6965467,78.6602704 41.0705892,77.678112 C39.5219016,79.5109631 38.6006901,81.6160577 37.8296344,83.7512799 C37.4025999,84.9345808 37.056811,86.1475571 36.7222529,87.36462 L36.4366063,88.4082208 C35.673507,91.1906421 34.8645717,93.9562178 33.1737074,96.3993765 C32.7391323,97.0271252 32.2497558,97.6225553 31.8716262,98.282075 C31.6387202,98.6885231 31.3630692,98.8676451 30.9542507,98.7427527 C30.496659,98.6030704 30.3991126,98.1736157 30.5432402,97.7967474 C31.7685995,94.596653 31.3680013,90.9802505 32.8640795,87.9247683 C33.4833353,86.6605065 34.2708315,85.487175 34.3765982,84.0881608 C34.5919677,81.2501448 35.7477292,78.8048827 36.914999,76.2533524 C38.7294734,72.2847314 39.927432,68.0685166 38.7760545,63.5899182 C38.7360495,63.4343505 38.7053607,63.2541329 38.7437217,63.1040429 C39.4829926,60.2216572 39.1530882,57.2724432 39.343249,54.3560956 C39.3636099,54.0438224 39.3846906,53.7311895 39.4061429,53.4182827 L39.5365313,51.5382453 C39.7519929,48.4016682 39.9349777,45.2549186 39.7372711,42.1840145 C39.6634719,41.0391673 39.6360712,39.8941375 39.6203817,38.7496352 L39.5943402,36.4615443 C39.5736855,34.9368997 39.5327401,33.4140345 39.3892822,31.8946318 C39.1525402,29.3885668 37.7112633,28.4261282 35.2550646,28.956921 C32.6706306,29.5156503 30.0922247,29.5534467 27.8903045,27.7255256 C27.6159401,27.4979613 27.267515,27.3536089 26.9095138,27.2233642 L26.6018144,27.113569 C25.8853958,26.8579203 25.2043687,26.5797257 25.0746085,25.7261513 C24.9311811,24.7824588 24.5603346,23.9216915 24.1584178,23.0733597 L23.8108883,22.3476196 C23.291919,21.2586453 22.8143248,20.1569353 22.7954183,18.8926734 C22.7789779,17.8124635 22.2671328,16.6906228 21.8018689,15.8470512 C21.1223316,14.615108 19.4793856,14.8309308 18.2162134,15.1634295 C15.3961333,15.905663 12.4960432,15.578642 9.65020654,15.9401727 C9.03917093,16.0179566 8.32072458,15.4022589 8.415531,14.847364 C8.67693368,13.3179796 7.85052857,12.1873746 7.27675791,10.9685779 C6.87396762,10.1118597 7.00384694,9.42988136 7.58309774,8.75666738 C8.16947271,8.07578458 8.75803975,8.34857592 9.49950269,8.56056437 C10.7413024,8.91497401 11.9989945,9.12148472 13.3739617,8.80103706 C15.9841523,8.19246039 18.6781892,8.12672754 21.8276256,8.10372104 C20.4844433,7.0016002 20.2115323,5.73952941 20.1298782,4.34270627 C20.04384,2.8631693 20.8083196,1.70024556 21.3289329,0.473780072 Z M34.5745408,38.9891787 C34.7931984,39.5813221 34.8896489,40.0814396 35.1428313,40.4835056 C35.9434798,41.7543407 35.2277735,42.6817217 34.2029873,42.9243855 C32.9036461,43.2327821 31.9265372,43.9903533 30.8562658,44.6082421 C29.7646219,45.238182 28.8560147,45.8544275 27.4065177,45.5465786 C26.519283,45.3581444 25.5328579,46.2838821 24.9048338,47.0633642 C23.6553619,48.6141118 23.621933,51.0073354 24.6302788,52.6583256 C25.8261138,52.4969548 26.968137,52.0764812 28.1047855,51.6382501 L28.7245337,51.3989045 C30.6872255,50.6445872 32.6601567,49.9682085 34.8929369,50.613486 C35.4009459,53.8749311 33.5689351,55.4788128 31.0502628,56.6855584 C28.9864421,57.6742901 26.9275535,58.6854805 24.9338786,59.8062256 C23.4394444,60.645415 23.66139,62.2295768 23.8362065,63.5655971 C23.9551255,64.4694238 24.1069254,65.3737983 24.1244619,66.7618571 C28.1945618,64.890114 31.9714743,62.7291465 36.5599955,62.0367604 C36.147889,63.3596341 35.442595,64.2782507 34.7915544,65.1683831 C32.5123641,68.2852159 29.374984,70.3629219 26.0304546,72.1733142 C25.6605451,72.3732516 25.2802234,72.7150625 25.106503,73.0853576 C24.3222949,74.7544243 22.9363675,74.7171756 21.4753622,74.4274033 C20.0094248,74.1359877 19.746378,73.014147 19.3512599,71.7197575 C18.5643118,69.1413863 19.1419186,66.7739081 19.7156893,64.3078305 C20.0094248,63.0441164 19.7189773,61.6489366 19.979284,60.3704326 C20.3026122,58.7840797 19.4773032,57.1862236 20.1804051,55.6305461 C20.3037083,55.3593981 20.2795957,54.9425422 20.1656087,54.6555088 C19.819683,53.7835174 19.7331783,52.8645311 19.672865,51.9391638 L19.6221423,51.1453764 C19.5485583,50.0874356 19.4221472,49.0363164 18.8947643,48.0526436 C18.4733415,47.2660405 19.2022001,46.465743 19.5551212,45.7541849 C20.294392,44.2658835 21.5723607,43.3094705 23.1062519,42.7282825 C24.8412642,42.070954 26.478182,41.2859941 27.9841245,40.160319 C29.4325255,39.0777811 31.106263,39.0058858 32.8344851,39.0033951 L33.7023455,39.0035759 C33.9926185,39.0026591 34.2836139,38.9993125 34.5745408,38.9891787 Z M49.6824237,38.7659586 L49.8328946,38.7754374 C52.0222105,39.0022157 54.1797416,39.5428684 56.348781,39.9646542 C56.9937935,40.0895467 56.8595301,40.9418827 57.3872676,41.1456545 C59.518494,41.9706018 61.2825511,43.3948136 63.1677192,44.6229224 C63.8900017,45.0929123 64.0385135,45.7113489 64.0231691,46.5521817 C63.9787799,49.0500301 63.3726764,51.5544518 63.8308161,54.0364148 C64.5432343,57.8960289 63.786975,61.6674514 62.9950948,65.35123 C62.5643558,67.356082 62.062375,69.4896609 61.0573173,71.3619517 C59.7442758,73.8094049 55.8166594,73.891571 54.585272,71.4304234 C54.0520544,70.3633601 53.1061822,70.0637278 52.317042,69.5855213 C50.1978719,68.3009918 48.5045086,66.7299766 47.6243982,64.377836 C47.5909693,64.2890967 47.6496068,64.1652998 47.6912559,63.876623 C48.9538801,63.6454625 50.0756648,63.8300622 51.2549909,64.2551347 C53.373613,65.0176358 55.5826575,65.6908498 57.6623706,64.118739 C58.7129134,63.324467 59.4631446,62.3329965 59.4472522,60.8890648 C59.4324558,59.4971716 58.4980919,58.8310787 57.4201484,58.7719192 C54.976006,58.636619 53.1138544,57.0623172 50.8878215,56.4411417 C49.3709188,56.0182604 48.0047199,55.4031104 47.1065249,54.0008095 C46.8396421,53.5845015 46.3749262,53.2459773 46.6429051,52.7124456 C46.8621107,52.2747744 47.3640915,52.2106848 47.8079829,52.2682011 C49.4459967,52.4812851 51.0768864,52.4840239 52.7236684,52.9759248 C54.6137687,53.5401318 56.7033461,53.7082983 58.6827726,53.6058646 C59.9755377,53.539584 59.9196402,52.0578559 59.715779,51.0751498 C59.5300023,50.1806352 59.1524206,49.3151526 59.0663824,48.3850328 C58.9151306,46.7504758 57.8645877,45.7759863 56.463864,45.2944931 C54.1890579,44.5122721 51.9778214,43.5098461 49.5873843,43.0836781 C49.0634829,42.9900088 47.4249211,40.8427356 47.5843931,40.3179683 C47.9115575,39.2443317 48.9363437,38.6823158 49.8328946,38.7754374 Z M17.5393065,33.297097 C19.2545903,32.3593083 21.2630616,32.0761093 22.0094566,33.3683076 C22.5152736,34.2436501 22.3459372,36.7853204 21.4691148,37.2739346 C20.3610305,37.8923712 19.3921418,38.6778788 18.4024285,39.447501 C16.9123784,40.6054948 15.0622832,40.4554048 13.6982763,40.9095092 C13.252741,40.813101 13.1223136,40.7386038 13.0412076,40.7742091 C11.6339076,41.3986712 10.4469093,40.6997119 10.1690662,39.5526736 C9.87916679,38.3541445 10.6672109,37.00443 11.9550438,36.5777142 C14.0824342,35.8732771 15.6535903,34.328555 17.5393065,33.297097 Z M64.2364013,30.5560918 C65.0671905,30.1605991 65.5417707,30.7680803 66.2574769,31.2342357 C66.7877639,31.5792856 67.2119702,32.0454131 67.6284742,32.5224812 L67.9409451,32.8806127 C68.6214974,33.6535516 69.3466557,34.3826727 70.5385623,34.5953756 C71.4077125,34.7503956 72.3234439,35.7884269 72.4883961,37.0335167 C71.9940875,37.8250498 72.3102916,38.9348395 71.4378533,39.5483462 C70.8706588,39.9476732 70.1823532,40.1054321 69.589402,39.6754297 C67.0520972,37.8376486 64.5306848,35.9598801 63.9207452,32.587237 C63.79525,31.8937554 63.2614844,31.020604 64.2364013,30.5560918 Z M55.8466906,15.7018911 C55.7080431,15.1020788 55.1238601,14.8134021 54.7375103,14.9295301 C53.515439,15.2959908 52.259391,14.9136447 51.1228099,15.1119388 C49.1351632,15.4581318 47.1283359,15.3693924 45.2091909,15.2937997 C40.4513333,15.1059133 35.701148,15.7621462 30.9547988,15.2839397 C30.2473127,15.2839397 29.5387306,15.2625766 28.8317925,15.2921563 L28.8317925,15.2921563 L28.6211243,15.3002309 C28.2713721,15.316867 27.9348763,15.3710358 27.7083638,15.7873438 C27.1050004,16.8976813 27.6464382,20.2927832 28.6728685,21.1281382 C30.37774,22.5161969 32.2475638,23.5010942 34.5475785,23.4737055 C35.6386744,23.4605589 36.7374425,23.5975024 37.8236062,23.7349936 C40.8332991,24.1151486 43.845184,24.424093 46.8817296,24.1606138 C49.1028303,23.9683452 51.0926692,22.9708492 53.0951123,22.1365897 C54.5139206,21.5455418 56.1826232,17.1540394 55.8466906,15.7018911 Z" id="形状结合"></path>
            </g>
        </g>
    </g>
</svg>