<?xml version="1.0" encoding="UTF-8"?>
<svg width="57px" height="147px" viewBox="0 0 57 147" version="1.1" xmlns="http://www.w3.org/2000/svg" xmlns:xlink="http://www.w3.org/1999/xlink">
    <title>title_六韬</title>
    <defs>
        <polygon id="path-1" points="0 0 56.9429497 0 56.9429497 21.3093789 0 21.3093789"></polygon>
        <polygon id="path-3" points="0 0 21.762 0 21.762 24.0030367 0 24.0030367"></polygon>
    </defs>
    <g id="home" stroke="none" stroke-width="1" fill="none" fill-rule="evenodd">
        <g id="home备份" transform="translate(-616.000000, -797.000000)">
            <g id="title_六韬" transform="translate(616.000000, 797.000000)">
                <g id="编组" transform="translate(0.000000, 13.866727)">
                    <mask id="mask-2" fill="white">
                        <use xlink:href="#path-1"></use>
                    </mask>
                    <g id="Clip-2"></g>
                    <path d="M52.4947,0.248448342 C49.8647,-0.517551658 47.5307,0.689448342 45.1817,1.15544834 C39.7807,2.22644834 34.4637,3.78744834 29.1837,5.38344834 C22.2467,7.48044834 15.3727,9.78844834 8.4807,12.0354483 C5.1037,13.1364483 3.8707,12.9054483 2.6717,10.7404483 C1.9747,11.3664483 0.8817,11.8724483 0.6867,12.6144483 C0.1217,14.7714483 -0.6253,16.9644483 0.9137,19.1944483 C2.1997,21.0574483 3.5927,21.7654483 5.7327,21.0134483 C7.8147,20.2824483 9.7447,18.9934483 12.1207,19.3034483 C12.3707,19.3364483 12.6737,19.0084483 12.9447,18.8354483 C14.5677,17.7994483 16.0907,16.5364483 17.8327,15.7784483 C19.9677,14.8514483 22.2687,14.2824483 24.5277,13.6714483 C27.6277,12.8334483 30.7637,12.1324483 33.8697,11.3154483 C37.5347,10.3514483 41.1537,9.18644834 44.8537,8.38644834 C46.7077,7.98644834 48.7397,7.93344834 50.6057,8.23844834 C51.8017,8.43344834 52.8627,8.50344834 53.8207,7.94744834 C54.8467,7.35044834 55.7177,6.48044834 56.6247,5.69444834 C56.8087,5.53544834 56.9497,5.20944834 56.9429497,4.96544834 C56.8917,3.10244834 54.3507,0.789448342 52.4947,0.248448342" id="Fill-1" fill="#000000" mask="url(#mask-2)"></path>
                </g>
                <path d="M15.9542,100.667375 C16.2172,99.3283749 17.4662,99.2873749 18.4702,99.0293749 C18.6292,98.9883749 19.1942,99.6053749 19.1452,99.8243749 C18.7722,101.508375 18.4812,103.257375 17.7602,104.795375 C17.4602,105.433375 16.1712,105.606375 15.0572,106.117375 C15.4052,103.972375 15.6312,102.310375 15.9542,100.667375 M9.5642,108.384375 C7.3812,108.958375 5.2702,109.804375 3.0872,110.551375 C3.6002,111.095375 4.2732,111.855375 4.9972,112.563375 C5.8102,113.359375 6.8362,113.866375 7.9332,113.484375 C10.5982,112.556375 13.3132,111.686375 15.8222,110.422375 C18.2492,109.200375 20.6382,108.210375 23.3802,107.922375 C25.1482,107.737375 26.8592,106.999375 28.5952,106.508375 C28.5862,106.276375 28.5782,106.043375 28.5692,105.811375 C26.9912,105.086375 25.4122,104.361375 23.7892,103.617375 C24.6012,102.349375 24.7272,101.090375 23.8812,100.244375 C22.2382,98.6023749 20.3212,97.3923749 17.7792,98.1073749 C18.4612,93.1443749 17.2622,93.7693749 14.4522,93.0113749 C12.5642,92.5013749 11.4392,93.1893749 11.1122,94.6173749 C12.4102,95.4893749 13.1092,97.5983749 12.5382,99.0153749 C12.4452,99.2453749 12.2252,99.5163749 12.0052,99.5893749 C9.5362,100.416375 7.0522,101.196375 4.5852,102.026375 C4.3782,102.096375 4.1082,102.457375 4.1302,102.652375 C4.2742,103.931375 6.4662,105.584375 7.5102,105.307375 C8.9362,104.928375 10.2982,104.306375 11.7262,103.773375 C11.5592,104.641375 11.3452,105.524375 11.2292,106.421375 C11.0952,107.462375 10.7302,108.077375 9.5642,108.384375" id="Fill-3" fill="#000000"></path>
                <g id="编组" transform="translate(4.160800, 122.795838)">
                    <mask id="mask-4" fill="white">
                        <use xlink:href="#path-3"></use>
                    </mask>
                    <g id="Clip-6"></g>
                    <path d="M6.497,11.5224367 L6.497,6.5614367 C7.833,6.4524367 9.381,6.3274367 11.051,6.1914367 C11.195,7.2684367 11.354,8.4654367 11.523,9.7304367 C9.788,10.3494367 8.195,10.9174367 6.497,11.5224367 M14.105,8.4054367 C14.105,7.4504367 14.061,6.4924367 14.129,5.5414367 C14.153,5.2104367 14.376,4.7484367 14.645,4.6054367 C15.836,3.9764367 17.101,3.4874367 18.292,2.8594367 C19.477,2.2344367 20.608,1.5044367 21.762,0.8204367 L21.623,0.3784367 C20.808,0.3224367 19.965,0.3834367 19.183,0.1914367 C16.083,-0.5685633 13.408,1.1424367 10.549,1.6964367 C9.442,1.9104367 8.61,3.2834367 7.51,3.8534367 C5.409,4.9424367 3.185,5.6764367 0.772,4.4714367 C0.488,5.1294367 0.288,5.5934367 0,6.2584367 C1.728,5.8804367 2.52,6.6804367 2.709,8.0254367 C2.838,8.9404367 2.866,9.9614367 2.589,10.8224367 C2.15,12.1854367 1.259,13.4094367 0.877,14.7804367 C0.674,15.5104367 0.873,16.8164367 1.371,17.1534367 C1.91,17.5174367 3.103,17.2614367 3.842,16.9164367 C6.184,15.8204367 8.447,14.5564367 10.758,13.3484367 C11.742,15.6674367 11.183,19.7034367 9.84,20.7354367 C10.153,21.2794367 10.521,21.8084367 10.78,22.3864367 C11.288,23.5224367 12.135,24.3854367 13.324,23.8304367 C14.399,23.3274367 15.209,22.3554367 15.105,20.8754367 C14.917,18.2154367 14.839,15.5454367 14.808,12.8794367 C14.804,12.4714367 15.201,11.9114367 15.574,11.6724367 C16.812,10.8824367 18.123,10.2074367 19.445,9.4664367 C18.353,8.4044367 18.353,8.4044367 14.105,8.4054367" id="Fill-5" fill="#000000" mask="url(#mask-4)"></path>
                </g>
                <path d="M18.0372,6.84907494 C18.4422,6.99707494 18.8932,7.08807494 19.2332,7.33107494 C20.5882,8.29707494 21.9822,9.23007494 23.2232,10.3310749 C24.8802,11.8000749 24.8192,11.8550749 23.3002,13.4400749 C22.9452,13.8100749 22.6502,14.2380749 22.3282,14.6400749 C22.3702,14.8100749 22.4122,14.9810749 22.4542,15.1530749 C22.9812,15.1530749 23.5542,15.2870749 24.0232,15.1240749 C24.9792,14.7930749 25.8982,14.3370749 26.7992,13.8690749 C28.9622,12.7440749 31.5412,12.0750749 32.6152,9.59707494 C33.0912,8.49807494 33.4632,6.99607494 33.0962,5.95607494 C31.9912,2.82807494 29.6122,0.806074937 26.3232,0.180074937 C22.4752,-0.552925063 19.2982,1.01807494 16.6802,3.68907494 C16.1922,4.18607494 16.2382,5.39007494 16.3702,6.21307494 C16.4182,6.50607494 17.4552,6.63607494 18.0372,6.84907494" id="Fill-7" fill="#000000"></path>
                <path d="M40.7711,123.426175 C39.5081,124.001175 38.2361,124.556175 36.9811,125.147175 C36.0431,125.589175 35.1261,126.073175 34.2001,126.539175 C34.2691,126.682175 34.3371,126.825175 34.4061,126.968175 C34.6821,126.883175 34.9791,126.683175 35.2321,126.728175 C37.2091,127.080175 39.0871,126.997175 40.9491,126.068175 C41.9641,125.561175 42.5981,126.469175 42.8941,127.283175 C43.2141,128.162175 43.2731,129.137175 43.4511,130.091175 C40.5231,129.911175 37.7171,131.305175 37.7331,132.922175 C39.5321,133.067175 41.3351,133.212175 43.2621,133.366175 C43.3181,133.864175 43.5301,134.604175 43.4521,135.312175 C43.3431,136.285175 43.3681,137.237175 41.7031,137.245175 C40.3011,137.252175 38.9031,138.176175 37.4151,138.727175 C40.2161,140.519175 42.6481,142.073175 45.1701,143.686175 C45.8561,142.877175 46.6171,142.276175 46.9861,141.491175 C48.2191,138.875175 48.7531,136.076175 48.8621,133.183175 C48.9241,131.533175 48.8611,129.809175 49.3341,128.265175 C49.7321,126.964175 49.7481,125.925175 48.9361,124.946175 C47.4081,123.102175 42.5831,122.601175 40.7711,123.426175" id="Fill-9" fill="#000000"></path>
                <path d="M26.7755,113.067275 C27.0665,114.556275 27.3545,115.956275 27.6085,117.362275 C27.8805,118.864275 30.4985,121.841275 32.8165,121.086275 C32.3695,119.738275 32.1015,118.283275 31.4225,117.055275 C30.7075,115.761275 29.6005,114.685275 28.7475,113.617275 C29.9685,112.520275 31.1545,112.451275 32.2825,113.660275 C33.3375,114.792275 34.3525,115.973275 35.4985,117.005275 C36.0025,117.459275 36.7885,117.598275 37.4455,117.880275 C37.4735,117.177275 37.5495,116.472275 37.5045,115.774275 C37.4845,115.481275 37.2585,115.152275 37.0355,114.930275 C35.9135,113.812275 34.7605,112.723275 33.5245,111.533275 C34.2745,110.871275 35.4785,110.154275 36.1925,109.105275 C37.7925,106.755275 39.1995,104.269275 40.5845,101.782275 C41.6395,99.8872749 40.6625,97.6462749 38.5725,96.9522749 C37.4975,96.5942749 36.4135,96.2202749 35.3025,96.0332749 C34.8685,95.9592749 34.3515,96.3772749 33.8725,96.5702749 C34.0665,97.0142749 34.1385,97.6282749 34.4765,97.8702749 C35.5095,98.6102749 35.8635,99.5152749 35.4205,100.670275 C34.6295,102.730275 33.8995,104.826275 32.9105,106.791275 C32.2415,108.119275 31.0315,109.171275 30.3215,110.485275 C29.4935,112.019275 28.9885,113.761275 26.7755,113.067275" id="Fill-11" fill="#000000"></path>
                <path d="M48.3175,37.5882749 C45.9535,33.2202749 42.1005,31.2812749 36.9375,30.7962749 C35.7225,31.0502749 34.1625,31.4012749 32.5925,31.6982749 C31.5545,31.8942749 31.3205,32.3322749 32.0565,33.1402749 C32.9065,34.0722749 33.7305,35.0342749 34.6445,35.9002749 C36.8595,38.0002749 39.1265,40.0432749 41.3585,42.1242749 C42.8175,43.4862749 44.4305,43.6542749 46.2265,42.8832749 C47.8415,42.1902749 49.1115,39.0562749 48.3175,37.5882749" id="Fill-13" fill="#000000"></path>
                <path d="M16.1017,119.374975 C15.0237,119.866975 13.9537,120.374975 12.8817,120.874975 C11.4727,118.286975 11.6437,117.400975 14.1727,116.622975 C15.3237,116.268975 16.3837,115.622975 17.5657,115.071975 C18.4567,117.266975 17.9977,118.508975 16.1017,119.374975 M23.3687,114.278975 C22.4767,112.918975 18.5437,111.944975 17.0807,112.666975 C15.5947,113.397975 14.1087,114.131975 12.5957,114.801975 C12.1797,114.985975 11.6327,115.076975 11.1967,114.980975 C9.3177,114.567975 7.1297,115.707975 6.5337,117.535975 C6.4617,117.754975 6.5857,118.171975 6.7647,118.312975 C7.4017,118.816975 8.1787,119.158975 8.7607,119.711975 C9.8387,120.737975 10.8157,121.869975 11.7287,122.844975 C12.9277,122.645975 13.9057,122.576975 14.8287,122.312975 C17.3697,121.586975 19.8937,120.799975 22.4037,119.969975 C22.6517,119.887975 22.9567,119.116975 22.8807,119.046975 C21.7017,117.945975 22.8917,117.201975 23.3377,116.497975 C23.8577,115.677975 23.8397,114.997975 23.3687,114.278975" id="Fill-15" fill="#000000"></path>
                <path d="M10.9581,42.9266749 C10.1171,43.2236749 9.3811,43.8176749 8.5971,44.2756749 C8.6301,44.5106749 8.6631,44.7466749 8.6961,44.9826749 C10.6511,45.1286749 12.6041,45.2896749 14.5621,45.4046749 C14.8631,45.4226749 15.1931,45.2566749 15.4831,45.1186749 C18.4651,43.7006749 20.8211,41.5726749 22.6291,38.8166749 C23.1101,38.0826749 23.1051,35.6246749 22.5641,35.0096749 C21.3231,33.5976749 17.5881,33.1156749 16.0671,34.0956749 C16.2811,35.0786749 16.8951,36.1696749 16.6201,36.9466749 C15.6411,39.7136749 13.8881,41.8916749 10.9581,42.9266749" id="Fill-17" fill="#000000"></path>
                <path d="M35.6695,138.253375 C34.2245,137.826375 32.7225,137.596375 30.9115,137.211375 C30.8045,136.873375 30.3955,136.073375 30.3355,135.247375 C30.2755,134.443375 30.3455,133.648375 31.7025,133.615375 C32.9125,133.586375 34.1075,132.929375 35.3245,132.544375 C34.0415,129.961375 31.8465,130.961375 30.0975,130.641375 C29.7635,127.659375 28.1305,127.056375 24.4345,128.970375 C25.2025,129.511375 26.2415,129.853375 26.3635,130.399375 C26.8225,132.469375 27.3055,134.625375 27.1715,136.710375 C27.0265,138.971375 28.4175,140.002375 29.7125,141.250375 C29.8985,141.428375 30.2565,141.629375 30.4485,141.565375 C32.2245,140.964375 34.0105,140.378375 35.7305,139.637375 C36.4865,139.312375 36.6415,138.540375 35.6695,138.253375" id="Fill-19" fill="#000000"></path>
                <path d="M39.0372,116.774875 C38.6922,117.475875 38.4862,118.244875 38.2172,118.982875 C38.3832,119.041875 38.5492,119.101875 38.7152,119.160875 C39.4042,118.884875 40.1162,118.654875 40.7782,118.323875 C42.3742,117.527875 44.1142,116.897875 45.4932,115.813875 C48.2562,113.641875 47.7252,109.783875 44.5932,107.974875 C43.3872,107.278875 42.1442,107.017875 40.5012,107.521875 C42.2632,108.388875 42.7092,109.534875 41.9712,111.026875 C41.0172,112.954875 39.9862,114.844875 39.0372,116.774875" id="Fill-21" fill="#000000"></path>
                <path d="M30.3653,122.714257 C29.5623,124.365275 28.8573,125.818275 28.1253,127.324275 C28.9863,127.324275 29.8293,127.409275 30.6493,127.304275 C31.9473,127.140275 33.3493,125.719275 33.2723,124.783275 C33.1873,123.761275 31.6283,122.709275 30.3653,122.714257" id="Fill-23" fill="#000000"></path>
            </g>
        </g>
    </g>
</svg>