<?xml version="1.0" encoding="UTF-8"?>
<svg width="75px" height="229px" viewBox="0 0 75 229" version="1.1" xmlns="http://www.w3.org/2000/svg" xmlns:xlink="http://www.w3.org/1999/xlink">
    <title>title_三国志</title>
    <defs>
        <polygon id="path-1" points="-1.44328993e-15 0 63.2678926 0 63.2678926 82.2887173 -1.44328993e-15 82.2887173"></polygon>
        <polygon id="path-3" points="0.113499262 -1.42108547e-14 0.886500738 -1.42108547e-14 0.886500738 2.768 0.113499262 2.768"></polygon>
    </defs>
    <g id="home" stroke="none" stroke-width="1" fill="none" fill-rule="evenodd">
        <g id="title_三国志">
            <g id="编组" transform="translate(0.067286, 146.609989)">
                <mask id="mask-2" fill="white">
                    <use xlink:href="#path-1"></use>
                </mask>
                <g id="Clip-2"></g>
                <path d="M36.8071664,57.6102173 C37.5471664,61.7982173 38.5691664,65.9902173 37.4351664,70.2742173 C37.2811664,70.8592173 37.1211664,71.4692173 36.8211664,71.9842173 C36.1491664,73.1312173 35.9411664,75.3872173 34.7041664,75.1762173 C32.9311664,74.8752173 31.0161664,73.8972173 30.0441664,71.9322173 C29.0811664,69.9852173 28.6001664,67.9782173 28.6451664,65.7952173 C28.7201664,62.1312173 28.6001664,58.4632173 28.7541664,54.8042173 C28.7971664,53.7862173 28.6261664,53.7052173 27.7441664,53.6832173 C25.1111664,53.6202173 23.7441664,55.0262173 23.6841664,58.1622173 C23.6491664,59.9802173 23.6961664,61.7942173 23.0501664,63.7832173 C21.2711664,62.0772173 19.4781664,63.0112173 17.7771664,63.7032173 C16.8281664,64.0892173 15.9171664,64.2662173 14.9101664,64.3262173 C13.5381664,64.4062173 12.2751664,63.9992173 11.7991664,62.8302173 C11.3011664,61.6062173 11.2761664,60.1952173 12.2391664,58.9212173 C14.6841664,55.6862173 18.0871664,53.9632173 21.8841664,53.3332173 C25.3671664,52.7562173 26.1821664,51.5762173 26.4361664,47.5002173 C26.4641664,47.0442173 26.3671664,46.5812173 26.3691664,46.1212173 C26.3821664,42.7352173 26.6551664,42.5372173 30.0741664,42.5452173 C31.8201664,42.5472173 33.5721664,42.3392173 35.3111664,42.1402173 C36.8351664,41.9662173 37.3801664,42.7762173 37.5011664,44.0972173 C37.6331664,45.5442173 37.7741664,46.9902173 37.8561664,48.4392173 C38.0441664,51.7472173 40.6611664,53.8062173 43.9491664,53.0732173 C46.0271664,52.6082173 48.0161664,52.1092173 50.2001664,52.7252173 C51.8291664,53.1842173 52.7081664,53.7872173 52.6671664,55.6422173 C52.5821664,59.4532173 51.2021664,61.0662173 47.4501664,61.5492173 C46.1811664,61.7132173 44.9451664,62.1172173 43.6911664,62.3952173 C42.5891664,62.6392173 41.8581664,62.4362173 42.0611664,61.0532173 C42.1951664,60.1442173 42.2721664,59.2282173 42.3641664,58.3132173 C42.5141664,56.8192173 40.8281664,54.1022173 39.5291664,53.7342173 C38.0031664,53.3012173 36.4581664,55.6392173 36.8071664,57.6102173 M44.7351664,42.1822173 C47.5281664,42.2102173 50.3201664,42.4142173 53.1141664,42.4642173 C56.0551664,42.5172173 59.0531664,43.2612173 61.8881664,41.7792173 C63.0971664,41.1482173 63.3081664,40.1632173 63.2621664,38.9142173 C63.2151664,37.6482173 62.3001664,37.4852173 61.4451664,37.1922173 C59.8311664,36.6402173 58.1611664,36.4142173 56.4681664,36.5832173 C50.5471664,37.1722173 44.5991664,36.7982173 38.6761664,37.1302173 C36.7381664,37.2382173 35.8681664,36.5742173 35.5871664,34.7732173 C35.1911664,32.2232173 35.9271664,30.7532173 37.8871664,30.1522173 C39.6101664,29.6242173 41.4601664,29.2942173 42.9961664,28.4222173 C46.8241664,26.2512173 50.3891664,23.7112173 52.4161664,19.5622173 C53.0131664,18.3412173 53.4691664,17.0622173 54.0441664,15.8312173 C55.6621664,12.3712173 56.7071664,8.69321727 56.3311664,4.81821727 C56.1511664,2.94621727 55.4261664,1.22821727 53.0911664,1.06221727 C50.7941664,0.897217273 50.7231664,2.65821727 50.2661664,4.19621727 C49.9981664,5.09621727 49.9811664,5.99321727 49.8431664,6.89221727 C48.7541664,14.0132173 45.8781664,20.0642173 39.3341664,23.7852173 C37.4131664,24.8792173 36.0181664,24.1612173 36.0001664,22.0382173 C35.9561664,16.6892173 36.0131664,11.3402173 36.0451664,5.99121727 C36.0541664,4.50121727 35.5661664,3.20921727 34.8421664,1.91121727 C34.1331664,0.640217273 33.1931664,-0.260782727 31.8001664,0.0682172731 C30.3281664,0.417217273 30.2081664,1.87121727 30.0001664,3.18721727 C29.3611664,7.21821727 29.7371664,11.2692173 29.6491664,15.3112173 C29.5941664,17.8272173 29.7601664,20.3542173 29.0751664,22.8412173 C28.6371664,24.4262173 27.7151664,24.8162173 26.2231664,24.6242173 C20.9081664,23.9412173 16.1511664,20.0782173 15.6861664,13.5902173 C15.4541664,10.3672173 15.5701664,7.02121727 14.2761664,3.94521727 C13.8011664,2.81421727 13.0261664,1.62021727 11.6671664,1.65321727 C10.3061664,1.68621727 9.71416639,2.91421727 9.33816639,4.10321727 C7.90116639,8.64021727 8.25516639,12.9902173 10.0971664,17.4332173 C12.7591664,23.8552173 17.0091664,28.3182173 23.8101664,30.1502173 C24.9691664,30.4632173 26.0861664,30.8442173 27.2031664,31.3202173 C29.2981664,32.2132173 28.7801664,33.9272173 28.5961664,35.3762173 C28.4171664,36.7802173 27.1521664,37.3682173 25.7931664,37.4892173 C24.2721664,37.6252173 22.7451664,37.7592173 21.2191664,37.7832173 C15.6141664,37.8672173 10.0141664,38.4242173 4.40116639,38.0122173 C2.92516639,37.9042173 1.29616639,37.7952173 0.646166389,39.4852173 C-0.0458336113,41.2812173 -0.464833611,43.1902173 0.896166389,44.9592173 C1.59716639,45.8702173 2.59016639,46.1032173 3.55816639,45.7872173 C8.24516639,44.2502173 12.9161664,42.9732173 17.9711664,43.3842173 C20.2871664,43.5732173 21.0951664,44.2402173 20.3641664,46.5112173 C19.9101664,47.9182173 18.6171664,48.2672173 17.5701664,48.5292173 C12.8881664,49.6992173 9.48516639,52.5072173 6.66816639,56.2822173 C4.80116639,58.7822173 4.93216639,64.0112173 7.09016639,66.2402173 C9.40216639,68.6272173 16.9271664,69.9212173 20.1621664,68.6982173 C21.2721664,68.2782173 22.2181664,66.5552173 23.2611664,67.3622173 C24.0841664,68.0002173 24.1101664,69.6742173 24.4791664,70.8912173 C24.5231664,71.0342173 24.4771664,71.2032173 24.5161664,71.3472173 C25.5251664,75.0842173 27.3221664,78.0132173 31.0941664,79.7982173 C33.6111664,80.9892173 36.5051664,80.6702173 38.8041664,82.2892173 L59.5501664,82.2892173 C60.3971664,81.5902173 61.2771664,80.9272173 62.0821664,80.1852173 C63.0561664,79.2892173 63.0051664,78.0902173 62.6811664,76.9762173 C62.3751664,75.9252173 61.4101664,75.7622173 60.4331664,75.7972173 C59.1301664,75.8422173 57.7841664,75.6902173 56.5331664,75.9682173 C51.7281664,77.0382173 46.8261664,76.7452173 41.9781664,77.1722173 C40.9621664,77.2612173 40.2591664,77.0972173 40.8991664,75.7682173 C41.8991664,73.6892173 42.2051664,71.3902173 42.4091664,69.1492173 C42.5331664,67.7782173 43.2411664,67.3502173 44.1951664,67.2802173 C46.5771664,67.1042173 48.7441664,66.0802173 51.0531664,65.7042173 C56.8031664,64.7672173 60.4011664,57.6722173 57.8781664,52.4012173 C55.7881664,48.0332173 50.2221664,46.8382173 45.3971664,47.8812173 C43.8281664,48.2192173 43.5551664,47.9702173 43.4061664,46.6602173 C43.3191664,45.9002173 43.1781664,45.1422173 43.0021664,44.3972173 C42.6501664,42.9112173 43.3531664,42.1692173 44.7351664,42.1822173" id="Fill-1" fill="#000000" mask="url(#mask-2)"></path>
            </g>
            <g id="编组" transform="translate(73.943452, 225.208006)">
                <mask id="mask-4" fill="white">
                    <use xlink:href="#path-3"></use>
                </mask>
                <g id="Clip-4"></g>
                <path d="M0.887100738,2.768 L0.887100738,-1.42108547e-14 C0.200100738,0.922 0.116100738,1.845 0.887100738,2.768" id="Fill-3" fill="#000000" mask="url(#mask-4)"></path>
            </g>
            <path d="M62.4545525,116.397906 C62.2955525,116.793906 62.5165525,117.304906 62.3925525,117.711906 C62.3345525,117.901906 62.2025525,118.068906 61.9205525,118.189906 L61.9205525,114.202906 C62.6195525,114.956906 62.1415525,115.731906 62.4805525,116.335906 C62.4705525,116.355906 62.4635525,116.376906 62.4545525,116.397906 M59.9575525,115.124906 C59.0845525,114.056906 59.9375525,112.834906 59.5735525,111.779906 C60.4755525,112.761906 59.9565525,113.937906 59.9575525,115.124906 M59.2305525,80.6469064 C58.8735525,86.0659064 59.3115525,91.4859064 58.8775525,96.9309064 C58.5115525,101.532906 58.5955525,106.214906 58.1455525,110.823906 C57.6705525,115.697906 57.4395525,120.628906 56.2355525,125.967906 C54.8895525,120.726906 52.1295525,116.839906 49.4615525,112.929906 C48.7185525,111.839906 48.6915525,111.199906 49.4385525,110.113906 C50.9725525,107.884906 53.1665525,106.348906 54.9595525,104.404906 C56.5365525,102.695906 56.2025525,100.250906 54.1695525,99.1599064 C52.5655525,98.2989064 51.4015525,99.4609064 50.5565525,100.440906 C49.8105525,101.305906 48.9695525,102.055906 48.2215525,102.902906 C47.5345525,103.679906 46.9635525,104.558906 46.1835525,105.604906 C45.0465525,102.622906 45.0185525,99.7919064 44.4335525,97.0709064 C44.1725525,95.8589064 44.1465525,94.8019064 46.1445525,95.0469064 C48.2905525,95.3109064 50.4625525,95.9789064 52.7035525,95.1669064 C53.7495525,94.7869064 56.5195525,92.0509064 56.4045525,90.9749064 C56.3295525,90.2649064 55.6305525,90.2769064 55.2005525,90.1509064 C52.7115525,89.4169064 50.1635525,89.0259064 47.5555525,89.0979064 C46.5335525,89.1269064 45.5105525,89.1029064 44.3925525,88.6339064 C45.6735525,87.9239064 46.9095525,87.1119064 48.2455525,86.5279064 C50.2875525,85.6349064 51.6235525,84.0849064 52.8935525,82.3349064 C54.1795525,80.5629064 55.5595525,78.9209064 58.3175525,79.6759064 C59.1335525,79.8989064 59.2715525,80.0169064 59.2305525,80.6469064 M54.3685525,130.836906 C53.0595525,132.413906 52.0005525,134.244906 49.9035525,135.297906 C47.3655525,136.571906 44.7705525,137.562906 42.0835525,138.352906 C41.4145525,138.548906 40.9155525,138.922906 40.3005525,139.277906 C39.9305525,131.301906 43.0495525,124.252906 45.8245525,117.163906 C48.0195525,119.663906 48.8895525,123.151906 51.2045525,125.724906 C51.5315525,126.088906 51.5665525,126.468906 52.3135525,126.521906 C55.4915525,126.746906 56.3745525,128.422906 54.3685525,130.836906 M37.0615525,122.001906 C33.3905525,121.570906 29.6405525,121.732906 25.9755525,122.458906 C22.0075525,123.245906 17.9015525,122.294906 13.9485525,123.584906 C12.6125525,124.020906 11.3755525,124.442906 11.7755525,125.858906 C12.1765525,127.280906 12.8565525,129.005906 14.9875525,128.754906 C15.6705525,128.673906 16.3805525,128.578906 17.0085525,128.320906 C22.1525525,126.207906 27.4995525,126.939906 32.7965525,127.225906 C34.1075525,127.296906 35.3535525,126.611906 36.8975525,127.139906 C35.3615525,130.296906 35.0495525,133.647906 34.3175525,136.882906 C34.1525525,137.614906 34.1615525,138.342906 33.3105525,138.373906 C28.4115525,138.543906 23.4605525,138.640906 18.8775525,136.634906 C12.9455525,134.039906 10.6805525,128.502906 8.95955246,122.866906 C6.60055246,115.142906 7.14655246,107.158906 7.63855246,99.2339064 C7.95355246,94.1429064 8.51955246,89.0669064 8.86355246,83.9769064 C8.92755246,83.0379064 9.36055246,82.2159064 9.36355246,81.2969064 C9.36755246,80.1819064 9.86355246,80.0889064 10.9845525,79.7819064 C15.3755525,78.5769064 19.8145525,79.3639064 24.1865525,79.2519064 C28.4705525,79.1419064 32.8175525,79.0269064 37.1395525,79.3669064 C38.8925525,79.5039064 39.0425525,80.3309064 38.8115525,81.5619064 C38.3795525,83.8689064 37.0595525,86.0899064 38.5675525,88.5099064 C39.0005525,89.2049064 38.3575525,89.6249064 37.6285525,89.5759064 C33.0685525,89.2679064 28.5305525,90.0239064 23.9445525,89.6719064 C20.4575525,89.4059064 16.8735525,89.2269064 13.3915525,90.0569064 C11.1995525,90.5809064 10.2975525,92.1469064 10.7045525,94.3349064 C10.9105525,95.4379064 11.7485525,95.5049064 12.5695525,95.5799064 C14.2565525,95.7319064 15.7935525,95.1809064 17.4075525,94.7369064 C20.3025525,93.9409064 23.3195525,93.7249064 26.3495525,94.1969064 C29.7245525,94.7229064 33.1125525,94.0259064 36.4975525,94.2109064 C39.1625525,94.3579064 40.1255525,95.0769064 40.2095525,97.7989064 C40.3475525,102.195906 41.9045525,106.251906 42.9375525,110.428906 C43.1135525,111.140906 43.0355525,111.635906 42.7065525,112.031906 C40.9035525,114.200906 40.4785525,116.993906 39.2305525,119.400906 C38.8745525,120.088906 39.2245525,120.392906 39.4335525,120.850906 C38.6485525,121.194906 38.4825525,122.168906 37.0615525,122.001906 M46.1525525,79.9479064 C46.6345525,79.9669064 47.8035525,79.7679064 47.5565525,80.5849064 C47.0935525,82.1109064 45.7135525,82.8219064 43.6075525,83.2419064 C44.5355525,81.7679064 44.0465525,79.8619064 46.1525525,79.9479064 M61.3055525,72.1579064 C59.7645525,71.8529064 58.1845525,72.4599064 56.7185525,72.7099064 C51.0555525,73.6689064 45.3845525,73.2769064 39.7195525,73.4109064 C36.9245525,73.4759064 34.1245525,73.2769064 31.3285525,73.3209064 C26.9245525,73.3899064 22.5225525,73.6369064 18.1195525,73.6689064 C14.4705525,73.6959064 10.8195525,73.4599064 7.16955246,73.4559064 C4.59555246,73.4529064 2.81155246,75.1939064 2.43355246,77.5329064 C1.71555246,81.9839064 1.71555246,86.5149064 1.63055246,90.9589064 C1.44555246,100.650906 1.04955246,110.353906 2.28155246,120.082906 C2.98555246,125.649906 5.16955246,130.379906 7.70755246,135.050906 C9.36055246,138.092906 11.9165525,140.366906 15.3335525,141.861906 C20.7925525,144.251906 26.6055525,144.082906 32.2655525,144.964906 C34.2475525,145.274906 36.3925525,144.995906 38.3925525,144.616906 C40.4805525,144.220906 42.6085525,144.126906 44.6785525,143.398906 C46.5945525,142.724906 48.4205525,141.515906 50.4155525,141.408906 C52.2895525,141.307906 52.7985525,139.314906 54.7925525,139.189906 C56.5725525,139.078906 57.7555525,136.625906 58.5045525,135.156906 C60.9655525,130.333906 61.6965525,124.922906 62.3555525,119.563906 C62.9645525,118.547906 63.1165525,117.473906 62.7665525,116.335906 C62.9185525,114.384906 63.5995525,112.530906 63.6525525,110.543906 C63.7675525,106.334906 63.9895525,102.126906 64.2935525,97.9279064 C64.7675525,91.3779064 65.4205525,84.8409064 65.1555525,78.2579064 C65.0105525,74.6289064 63.8645525,72.6659064 61.3055525,72.1579064" id="Fill-5" fill="#000000"></path>
            <path d="M66.2787525,1.37350638 C62.5827525,-0.947493616 58.7047525,0.369506384 54.9127525,0.395506384 C48.9597525,0.437506384 43.0077525,0.790506384 37.0547525,0.921506384 C34.0227525,0.986506384 31.0087525,0.278506384 27.9437525,0.907506384 C26.1737525,1.27050638 24.3087525,1.15150638 22.4927525,1.31050638 C17.4917525,1.74650638 12.4907525,1.65350638 7.48175246,1.48750638 C5.64375246,1.42750638 3.87475246,2.07550638 3.46475246,4.09350638 C3.10275246,5.87150638 3.13375246,7.80550638 4.09375246,9.44950638 C4.70975246,10.5045064 5.35575246,12.0695064 6.76875246,11.8845064 C8.73075246,11.6275064 10.8477525,11.1295064 12.5407525,10.3905064 C15.7947525,8.96850638 19.0267525,8.53850638 22.4597525,8.30750638 C24.4717525,8.17150638 26.4527525,8.67550638 28.5077525,8.11550638 C32.1847525,7.11350638 36.0407525,7.59150638 39.7797525,7.63850638 C42.9217525,7.67650638 46.0917525,8.41650638 49.5307525,8.38750638 C54.1117525,8.00750638 58.7847525,9.77050638 63.6187525,9.35850638 C65.1487525,9.22850638 67.9537525,7.60450638 68.2637525,6.20550638 C68.7137525,4.18450638 68.2827525,2.63250638 66.2787525,1.37350638" id="Fill-7" fill="#000000"></path>
            <path d="M60.0980525,34.2553064 C58.1280525,34.3083064 56.1550525,35.6233064 54.1880525,34.2553064 L60.0980525,34.2553064 Z M3.29705246,38.6783064 C3.70905246,39.4463064 4.43305246,39.9853064 5.57505246,39.4693064 C8.63105246,38.0863064 11.5860525,36.2503064 15.2480525,37.3413064 C16.3050525,37.6553064 17.5640525,37.6143064 18.6650525,37.4023064 C23.0460525,36.5593064 27.4450525,35.9643064 31.9120525,35.9963064 C36.5290525,36.0303064 41.1390525,36.2173064 45.7500525,36.4023064 C50.4210525,36.5903064 55.1030525,34.9123064 59.8440525,36.1093064 C60.8640525,36.3813064 61.8320525,35.9083064 62.7970525,35.7753064 C64.7590525,35.5023064 65.6210525,33.9773064 66.1030525,32.1983064 C66.3520525,31.2773064 67.0040525,30.3673064 65.9000525,29.5253064 C64.3330525,28.3293064 62.5960525,27.3603064 60.6390525,27.8713064 C58.7070525,28.3753064 56.7910525,28.5933064 54.8230525,28.6653064 C47.8660525,28.9203064 40.9110525,29.2093064 33.9530525,29.4733064 C31.8830525,29.5513064 29.7520525,29.2923064 27.7500525,29.6933064 C20.7730525,31.0943064 13.7370525,30.3513064 6.73305246,30.4513064 C3.32305246,30.4993064 1.56905246,31.7853064 2.03205246,35.0923064 C2.20405246,36.3283064 2.70305246,37.5693064 3.29705246,38.6783064 L3.29705246,38.6783064 Z" id="Fill-9" fill="#000000"></path>
            <path d="M63.7728525,54.5044064 C62.8528525,54.5394064 61.9648525,54.7104064 61.0598525,54.8844064 C58.9428525,55.2924064 56.7928525,55.4614064 54.6198525,55.2354064 C51.1368525,54.8734064 47.6388525,54.9534064 44.1428525,54.9694064 C36.8368525,55.0014064 29.5368525,55.1114064 22.2318525,55.3274064 C16.2178525,55.5044064 10.1788525,55.8764064 4.57885246,55.1374064 C4.00985246,55.1834064 3.85585246,55.2134064 3.70485246,55.2054064 C1.91985246,55.1074064 0.566852464,55.6414064 0.109852464,57.5744064 C-0.346147536,59.5074064 0.685852464,62.8274064 1.94485246,63.5354064 C2.46485246,63.8284064 2.98685246,63.8074064 3.49185246,63.6564064 C4.42785246,63.3764064 5.40285246,63.1334064 6.25185246,62.6734064 C11.3478525,59.9164064 16.9548525,60.9124064 22.3238525,60.7164064 C24.7748525,60.6274064 27.2998525,60.5224064 29.7938525,60.5634064 C32.3708525,60.6054064 35.1328525,59.6654064 37.4898525,60.3224064 C41.0428525,61.3144064 44.4608525,60.0034064 47.9988525,60.7274064 C52.0868525,61.5634064 56.4208525,60.5934064 60.5978525,61.7474064 C62.0688525,62.1544064 63.7488525,61.9184064 65.3208525,61.8064064 C66.2978525,61.7354064 67.2598525,61.4204064 67.6078525,60.2274064 C68.7238525,56.3864064 69.2328525,54.2934064 63.7728525,54.5044064" id="Fill-11" fill="#000000"></path>
            <path d="M32.8754525,107.737806 C32.7084525,108.930806 32.5674525,110.132806 32.3044525,111.304806 C32.1924525,111.801806 31.8324525,112.285806 31.1514525,112.183806 C26.4604525,111.483806 21.8084525,113.139806 17.0774525,112.357806 C15.4974525,112.095806 15.4924525,111.196806 15.4004525,110.229806 C15.2844525,108.994806 15.2174525,107.696806 16.7294525,107.042806 C18.5094525,106.271806 20.3574525,106.869806 22.1594525,106.304806 C25.2434525,106.304806 28.3274525,106.332806 31.4104525,106.290806 C32.4734525,106.275806 33.0304525,106.619806 32.8754525,107.737806 M34.9914525,98.0408064 C34.2544525,97.5098064 33.4054525,97.6218064 32.6334525,98.0338064 C31.7714525,98.4948064 32.2214525,99.1568064 32.3784525,99.8118064 C32.8514525,101.778806 31.3474525,101.818806 30.2074525,101.680806 C26.8354525,101.274806 23.4784525,101.728806 20.2114525,102.186806 C17.6264525,102.548806 15.7004525,102.687806 14.2704525,100.174806 C13.9654525,99.6388064 13.4964525,98.6858064 12.5284525,99.0728064 C11.7534525,99.3818064 11.4734525,100.173806 11.3524525,100.936806 C10.9844525,103.263806 10.5674525,105.591806 10.7504525,107.966806 C10.7504525,109.030806 10.7084525,110.094806 10.7574525,111.156806 C10.9604525,115.575806 14.0564525,118.626806 17.6464525,117.608806 C20.2854525,116.861806 22.8904525,116.733806 25.5564525,116.848806 C27.4504525,116.931806 29.3434525,117.264806 31.2314525,117.229806 C35.1444525,117.157806 37.0224525,116.133806 37.4964525,113.683806 C38.1614525,110.238806 38.6554525,106.728806 38.3574525,103.219806 C38.1714525,101.023806 36.7754525,99.3228064 34.9914525,98.0408064" id="Fill-13" fill="#000000"></path>
        </g>
    </g>
</svg>