<?xml version="1.0" encoding="UTF-8"?>
<svg width="64px" height="193px" viewBox="0 0 64 193" version="1.1" xmlns="http://www.w3.org/2000/svg" xmlns:xlink="http://www.w3.org/1999/xlink">
    <title>title_孙子兵法</title>
    <defs>
        <polygon id="path-1" points="0 0 29.6584388 0 29.6584388 66.5802782 0 66.5802782"></polygon>
        <polygon id="path-3" points="0 0 28.1028815 0 28.1028815 72.6230147 0 72.6230147"></polygon>
    </defs>
    <g id="home" stroke="none" stroke-width="1" fill="none" fill-rule="evenodd">
        <g id="home备份" transform="translate(-1414.000000, -762.000000)">
            <g id="title_孙子兵法" transform="translate(1414.000000, 762.000000)">
                <path d="M18.3836441,183.952442 C18.3915117,183.934716 18.3964289,183.916498 18.4038047,183.898773 C19.3552856,183.75106 19.9714125,184.063718 19.8715931,185.358172 C19.8706097,185.361619 19.8691345,185.365065 19.8676593,185.368512 C19.8681511,185.375405 19.8681511,185.382298 19.8686428,185.389192 C19.0843471,185.029266 18.3924951,185.181409 17.7552242,185.636856 C17.8619277,185.265606 17.8511098,184.918481 17.6214759,184.613701 C17.9617471,184.504886 18.2100665,184.276917 18.3836441,183.952442 M23.5216411,176.745058 C23.5167239,176.708622 23.5073812,176.676126 23.497055,176.643629 C24.8901018,176.599807 26.232993,176.400396 27.4224671,175.719441 C27.6471837,175.669711 27.874359,175.630814 28.1054681,175.615058 C28.3296931,175.525938 28.5352326,175.405306 28.718153,175.247254 C28.778143,175.158626 28.8199393,175.065567 28.8484591,174.969554 C29.3087104,174.902591 29.7684699,174.835628 30.2287211,174.768665 C30.7297853,174.911946 31.2873973,174.707118 31.8002628,174.774574 C32.4001629,174.74897 32.9907203,174.696779 33.4632646,174.255118 C33.5060443,174.224099 33.5345642,174.195049 33.5650509,174.165014 L33.5660343,174.165998 C33.0241574,174.807563 32.6263547,175.542679 32.230519,176.27681 C31.8799216,177.388592 31.8553356,178.501852 32.2034743,179.621512 C32.3013269,179.807138 32.4321248,179.959281 32.5909508,180.090253 C32.2885421,180.384201 31.9861335,180.678149 31.6837248,180.971112 C30.9166394,181.941583 31.4108194,182.616136 32.0957873,183.13116 C31.2751043,182.891374 30.3290323,182.469901 29.7492928,183.648646 C29.6725842,183.600394 29.5958757,183.552633 29.512283,183.513736 C28.709302,183.19123 27.8699335,183.246376 27.0344989,183.275426 C26.6755422,183.305954 26.3308455,183.38818 26.0063094,183.550171 C25.8027367,183.677697 25.6429273,183.844119 25.5362237,184.060764 C25.4855764,184.278394 25.4919688,184.493562 25.5470416,184.70676 C25.2077538,184.498978 24.8369959,184.417244 24.4214913,184.520642 C24.2724997,184.568403 24.1353094,184.630442 24.0050033,184.701344 C23.7188214,184.52852 23.4031363,184.574311 23.0658154,184.778154 C23.1523583,184.575788 23.1990719,184.364067 23.1975967,184.143976 C22.9227244,183.05238 22.6399846,181.96374 22.0395928,180.993761 C21.8787999,180.865744 21.7081726,180.839155 21.5286942,180.892824 C21.5577058,180.793364 21.5729492,180.689966 21.5704906,180.581151 C21.5370535,180.486615 21.5060751,180.394048 21.4701794,180.300497 C21.4657539,180.296066 21.463787,180.29065 21.4593615,180.286218 C21.6796527,179.911029 21.6821113,179.537316 21.4416596,179.166065 C21.7121063,179.031647 21.9058446,178.82485 22.0135316,178.537303 C22.0263163,178.391067 21.9918958,178.266004 21.9171542,178.158666 C22.4806669,178.062653 22.9104314,177.702235 23.3234774,177.300457 C23.4444409,177.134527 23.5078729,176.956287 23.5216411,176.745058 M48.4991218,172.926691 C48.5099397,172.817876 48.4597841,172.719893 48.3471799,172.63422 C48.2188406,172.55544 48.0811586,172.500787 47.9341339,172.470259 C47.8028443,171.883348 47.4901095,171.424455 46.9806861,171.102934 C46.7599032,170.499775 46.5386286,169.896123 46.3173539,169.292964 C46.0178956,169.076319 45.7184372,168.859674 45.4189789,168.642537 C45.102802,168.306245 44.7861335,167.968968 44.4699566,167.632184 C44.557483,167.160488 44.2501571,166.906915 43.934472,166.658266 C43.1201813,166.630693 42.3063824,166.604105 41.4920917,166.576532 C41.1611632,166.441129 40.829743,166.365795 40.4993062,166.577024 C40.4776705,166.610506 40.4624271,166.645464 40.4462003,166.679931 C39.6496116,166.522863 38.8525312,166.365303 38.0564343,166.208235 C38.0338151,166.053137 37.9875933,165.906902 37.9172771,165.767067 C37.6345373,165.258937 37.3522892,164.750313 37.0700411,164.242182 C36.8153294,163.560243 36.8767946,162.716805 36.0880735,162.307149 C35.2614898,160.823131 34.4344144,159.339606 33.6073389,157.85608 C33.3073889,157.202699 33.0079305,156.549809 32.7079805,155.89692 C32.8545135,155.728036 33.0010464,155.559151 33.1475794,155.390267 L34.8843394,153.835347 C37.5504529,152.858475 39.0044731,150.963816 39.1947693,148.112966 C39.1603488,148.085393 39.1298621,148.070129 39.0974085,148.048465 C39.1097015,148.043048 39.1219945,148.038125 39.1342876,148.032709 C39.4155522,147.666382 39.6973086,147.300547 39.979065,146.933728 C39.9992255,146.654059 40.0193861,146.374882 40.0400384,146.094721 C40.4580016,145.471867 40.9600492,144.88988 41.0165971,144.090755 C41.3347409,143.912023 41.6533764,143.732799 41.9715201,143.554559 C42.6196089,143.234515 43.1432922,142.800733 43.327196,142.057739 C43.3758765,141.746066 43.4250486,141.434393 43.4742207,141.123704 C43.775646,140.76624 44.0765795,140.409268 44.3780047,140.052296 C46.3148953,139.030126 47.1616396,137.465359 46.746135,135.271828 C46.6369728,135.237362 46.5248604,135.211759 46.4112727,135.19551 L45.9018493,134.230456 C45.7907203,132.882333 44.9380754,132.051697 43.9015266,131.350062 C43.426032,131.138834 43.6251792,130.330354 42.9628305,130.284071 C42.4593077,129.989138 41.9552933,129.69519 41.4517706,129.400258 C40.4614437,128.918223 39.1195359,129.091046 38.5471722,127.832044 C38.4267005,127.741447 38.401131,127.629185 38.4709554,127.495752 C38.3873628,127.222484 38.203459,127.093481 37.9197357,127.108253 C37.4329315,126.366244 36.9982498,126.646897 36.6604372,127.442083 C36.4657155,127.900484 36.7991026,128.572576 36.0954493,128.83058 C35.5122677,128.878833 34.8258246,128.74343 34.5720963,129.38204 C34.4948961,129.406659 34.4167124,129.427831 34.341479,129.461805 C34.2042887,129.535169 34.0754577,129.621827 33.949577,129.712916 C33.6648703,129.528275 33.4047497,129.532214 33.1997019,129.967966 C32.910078,130.102384 32.6209458,130.236803 32.3313219,130.371221 C32.2939511,130.510563 32.2860835,130.651875 32.308211,130.795156 C32.1621697,130.883783 32.1036549,131.011801 32.1311913,131.180193 C31.6537298,131.232877 31.17676,131.285561 30.6992985,131.338738 C29.7851884,131.422934 28.9005816,131.60659 28.1103853,132.110782 C27.9618854,132.121122 27.8227283,132.162973 27.6929138,132.235845 C27.3718198,133.293466 26.1700526,132.437719 25.694558,133.160033 C25.39805,133.520451 25.101542,133.881854 24.805034,134.242273 C24.6289977,134.201405 24.4529615,134.161031 24.2769252,134.120656 C23.8348677,134.390477 23.4818117,134.91141 22.8445407,134.630264 L22.2352979,135.148242 C20.8029134,135.683946 19.3710207,136.219158 17.9386362,136.754862 C17.1302462,136.513598 16.7703062,137.043886 16.442328,137.629812 C16.2987453,137.658862 16.1536875,137.678557 16.0071545,137.688897 C15.8080074,138.286148 15.6083685,138.883398 15.4092213,139.481141 C14.6298429,140.039987 12.7676939,139.02274 13.0420744,141.115334 C13.049942,141.7697 13.0578095,142.424066 13.0656771,143.07794 C13.235321,143.161644 13.4049648,143.24584 13.5746087,143.329544 C13.8824263,143.739199 14.1902439,144.148363 14.4980615,144.558019 C14.6450862,144.591008 14.7911275,144.626951 14.936677,144.666341 C15.1279567,144.95832 15.3192363,145.249806 15.5100242,145.541784 C15.612794,146.079457 15.9628996,146.376852 16.463472,146.527519 C16.8189866,146.957362 17.1749929,147.387205 17.5309992,147.817048 C17.6278683,148.195685 17.8555353,148.253293 18.1240152,148.21341 C18.1422089,148.267079 18.1633529,148.318286 18.1781046,148.375401 C18.4446176,148.776195 18.8006239,149.042569 19.2235043,149.208007 C19.2058023,149.303036 19.2879198,149.373938 19.4806746,149.418744 L19.442812,149.399049 C21.3890454,149.619633 23.2831562,150.402509 25.2928216,149.947555 C25.6385018,149.629973 25.9841819,149.311899 26.3298621,148.994809 C26.4321401,148.882055 26.4931136,148.750099 26.5314679,148.60731 C27.4308263,148.801306 28.3282179,148.959358 29.18578,148.399528 C29.5339188,147.623053 29.8815658,146.846577 30.2292129,146.070102 C30.8600914,146.25425 32.3883616,144.983431 31.8430425,147.071593 C30.724868,147.923894 30.8881195,149.428591 30.1259514,150.461594 C29.9961369,150.62654 29.8702562,150.794932 29.7512597,150.967263 C29.6125942,151.251856 29.5294933,151.554666 29.4552434,151.861416 C29.2088909,152.449311 28.9212339,153.009634 28.3970589,153.403534 C28.1516899,153.63495 27.9299236,153.888031 27.7538873,154.177547 C27.7174999,154.239094 27.6850463,154.302118 27.6535761,154.365142 C27.5217948,154.389268 27.3905052,154.413395 27.2592156,154.437521 C25.9989336,154.644811 24.5252445,154.2839 23.7438992,155.765949 C22.7614398,156.580829 23.1631762,157.825553 22.7983189,158.831475 C22.9930406,158.953584 23.1872706,159.075693 23.382484,159.197309 L23.4764028,159.850691 C23.2811894,160.008251 23.085976,160.165811 22.8902708,160.324355 C22.2677515,160.618303 22.0164819,161.14219 21.9855034,161.800003 C21.9977965,161.874352 22.0263163,161.933437 22.0454935,162.001384 C21.8684737,162.324875 22.0258246,162.638517 22.3454435,162.9044 C22.589829,163.107751 22.8602758,163.177668 23.1036779,163.036849 C23.1277723,163.04325 23.1464577,163.056051 23.1710438,163.061467 C23.7065284,163.098888 24.113182,162.879781 24.4111651,162.441567 C24.4406684,162.440583 24.4603373,162.362787 24.4691883,162.207689 C24.4755807,162.098382 24.4382098,161.995476 24.3806784,161.896016 C24.3954301,161.903894 24.4057562,161.913742 24.4209996,161.922112 C25.2161131,161.884199 25.8228973,161.489314 26.3495309,160.937855 C26.5349099,161.317968 26.7547094,161.660168 27.2626576,161.682818 C27.5975199,162.18504 27.9323822,162.687263 28.2672444,163.188993 C28.7933863,163.565167 29.1808628,164.159956 29.8638639,164.287973 C29.8628804,164.294867 29.8633721,164.301267 29.8623887,164.308653 C30.041867,164.829586 30.3963981,165.249089 30.6619277,165.718815 C30.7519127,165.874898 30.8423895,166.031473 30.9323745,166.187063 C30.9599109,166.726214 30.4480289,166.865063 30.1903669,167.192493 C30.170698,167.346114 30.1510292,167.500227 30.1308686,167.653356 C29.1243149,167.528292 28.2588852,167.779404 27.6058791,168.601177 C26.9273036,168.5997 26.3942776,168.890694 25.9335346,169.328907 C25.8002781,169.274746 25.6635796,169.228955 25.5175383,169.197936 C24.8778088,169.102907 24.3079037,169.234864 23.8407683,169.708036 C23.5698298,170.357971 23.0869594,170.684416 22.3813392,170.671121 C21.8748661,171.47517 20.6967016,171.549026 20.3608559,172.538699 C18.4593692,172.675087 17.8442257,174.230992 17.0323937,175.570252 C16.5726342,176.869629 16.1128746,178.169499 15.6536069,179.469368 C15.7632607,179.80566 15.8729146,180.141952 15.9825685,180.478245 C16.2338381,181.271953 16.4855995,182.064676 16.7373608,182.857892 C16.6119719,183.022838 16.4870746,183.187784 16.3616857,183.352729 C15.5877162,184.375392 15.9663417,185.379344 16.4113495,186.382312 C16.424626,186.557105 16.4379025,186.73239 16.451179,186.908168 C17.7350636,187.890456 18.7411256,189.268121 20.4060943,189.709289 C21.4898483,189.761973 22.2559502,190.425202 23.0633568,191.007682 C23.1435074,191.113542 23.2285752,191.217433 23.3239691,191.315908 C23.4931213,191.470514 23.6544059,191.631521 23.8107733,191.797451 C24.391988,191.818623 24.9732027,191.839795 25.5544174,191.860967 C26.1228474,192.164763 26.6912773,192.468558 27.2597073,192.771861 C27.7917498,193.125878 28.1782429,193.113569 28.287405,192.407503 C28.343953,192.387316 28.3990258,192.362205 28.4526234,192.331678 C28.5421167,192.31346 28.6296431,192.290811 28.7147109,192.25536 C28.8951727,192.034776 29.086944,191.899373 29.2860912,191.818131 C29.7261819,191.7039 30.2056102,191.771847 30.68258,191.833394 C31.1920034,191.937778 31.700935,192.040192 32.1646283,191.798928 C33.1962598,191.819115 33.6928985,191.035255 34.2795221,190.38532 C34.5922569,190.342483 34.6719158,189.731446 35.1272498,190.034749 C35.6322477,189.688609 36.1367539,189.34247 36.6417518,188.99633 C38.8726918,187.605863 38.722225,185.202582 39.1583819,183.048934 L39.1583819,183.048934 C39.2827874,183.016437 39.398342,182.962276 39.5035704,182.887435 C39.5143882,180.940585 40.8258092,179.182314 40.0715086,177.054762 C39.7410718,176.123189 40.9452975,176.603254 41.4876662,176.539738 C41.8018762,176.780017 42.114611,176.842548 42.4258707,176.636736 C42.4268541,176.642644 42.4298045,176.647568 42.4307879,176.653969 C42.6146917,176.92379 42.7981038,177.193119 42.9815159,177.462941 C44.7743321,178.027695 46.5509216,179.09024 48.4111037,177.645612 C48.6766332,177.566832 48.9426545,177.488544 49.2086758,177.409764 C50.039685,175.777049 48.805956,174.516077 48.4356898,173.100007 C48.4656848,173.100007 48.4868288,173.042399 48.4991218,172.926691" id="Fill-1" fill="#000000"></path>
                <path d="M62.593185,56.9803307 C62.5587645,57.0113503 62.5248358,57.0433547 62.490907,57.0743743 C62.4913987,57.0605878 62.4889401,57.0463089 62.4904153,57.0320301 L62.4904153,57.0315377 C62.490907,57.0315377 62.593185,56.9803307 62.593185,56.9803307 C62.6059698,56.8168622 62.6192463,56.6538861 62.6325228,56.4904177 C62.2834006,56.024631 61.9337866,55.558352 61.5846644,55.0925654 C60.9277246,54.2038287 60.2707848,53.3155844 59.613845,52.4273401 C59.5705735,52.4613139 59.5376282,52.5036582 59.4992739,52.5420634 C59.068526,52.1914925 58.637778,51.8409216 58.2075218,51.490843 C58.0309938,51.3283593 57.8544658,51.1658756 57.6784296,51.0033919 C57.5176367,51.0614921 57.3568438,51.1200847 57.1955591,51.1776926 C56.8670892,51.1235313 56.5386193,51.0698625 56.2106412,51.0161936 C55.4356882,51.4105859 54.4453613,50.8369692 53.7446583,51.5661764 C53.5818985,51.5962112 53.4191387,51.6272309 53.2563789,51.6572657 C52.9308594,51.8231961 52.6053398,51.988634 52.2798202,52.1545644 C50.6871346,52.1127125 49.1303446,52.1870611 47.9605394,53.5051487 C48.5324114,53.7020987 49.1042834,53.8980639 49.6761554,54.0945214 C50.1536168,55.3106874 51.2098344,55.8621473 52.2921132,56.3840647 C52.4474972,56.4352717 52.6033729,56.4864787 52.7587569,56.5376857 C52.9402021,56.8316335 53.122139,57.1260737 53.3035842,57.4205138 C53.4304483,57.4697513 53.5617379,57.4988015 53.697453,57.5056947 C53.9723253,58.4377604 53.7820291,59.4781485 54.3598018,60.3388198 C54.5033844,60.3939658 54.6469671,60.4486194 54.7905497,60.5037654 C54.798909,60.5298613 54.8082517,60.5559572 54.816611,60.5815607 C55.0285429,60.9109595 55.3102993,61.0960924 55.7189197,61.0207591 L57.2019515,61.355574 L58.0885252,61.9567637 C58.9352695,62.0951211 59.7810303,62.2334784 60.6272829,62.3713434 L60.8185625,62.5146245 L61.0531136,62.4722803 C61.1209711,62.5845417 61.1809612,62.7002498 61.2335754,62.8198969 C61.2330836,62.8198969 61.428297,62.7549034 61.428297,62.7549034 L61.6146594,62.8425462 C62.3827283,62.5387509 63.3248665,62.9690865 64,62.2733608 C63.8539587,60.4225236 64.2227498,58.4343138 62.593185,56.9803307" id="Fill-3" fill="#000000"></path>
                <g id="编组" transform="translate(0.000000, 2.213308)">
                    <mask id="mask-2" fill="white">
                        <use xlink:href="#path-1"></use>
                    </mask>
                    <g id="Clip-6"></g>
                    <path d="M13.0769867,66.144034 L13.0769867,66.144034 C13.819486,65.8963694 14.1833598,65.2360947 14.6504952,64.6890662 C15.2857992,64.0686738 15.5591963,63.1006648 16.4910084,62.7668346 C16.5101855,62.6363553 16.528871,62.5063683 16.5475564,62.3763813 C17.0181338,62.3202506 17.2231816,61.9578627 17.4075771,61.5718407 C17.1745012,60.8465725 18.2808743,60.4226377 17.8373416,59.6505939 C18.1569605,59.3221799 18.4770712,58.9937658 18.7966901,58.6653517 C18.8743821,56.9134819 18.9515823,55.1611196 19.0292743,53.4097421 C18.9707595,53.3472105 18.9078191,53.3073282 18.8429119,53.2772933 C18.8478291,53.2718772 18.8507795,53.266461 18.8561884,53.2615373 L19.0292743,53.4097421 C19.1571219,53.4023565 19.2707095,53.3575504 19.3690538,53.2753238 C19.3877392,52.2959901 19.4069164,51.3171488 19.4260935,50.3373228 C19.4123253,50.0094011 19.3990488,49.6814794 19.3857723,49.3535578 C19.3336499,48.7351349 19.2815274,48.116712 19.2298967,47.4977968 C18.4996904,44.9221837 18.9619085,42.2865009 18.8311106,39.680853 C17.5575521,37.0515711 18.7111306,35.1687295 20.7065361,33.5438923 C21.3403649,33.2903193 21.2685736,32.813208 21.0979463,32.3040923 C21.0522162,32.260271 21.0079613,32.2228505 20.9651815,32.1898614 C20.9730491,32.1829681 20.9809166,32.1760749 20.9882924,32.1691816 C21.274966,31.9756783 21.5616396,31.782175 21.8483132,31.5881793 C22.6031055,31.6536651 22.7304614,30.8205668 23.2767639,30.5866887 C23.6204771,30.2828934 23.9651738,29.9795905 24.3093788,29.6757952 C24.6063785,29.4822918 24.90387,29.2882961 25.2013615,29.0952852 C24.9068203,26.2552668 23.7507833,28.0598208 22.8194629,28.6521478 C22.3744551,28.5891238 21.9525581,28.6398384 21.5758995,28.9081827 C21.3369229,29.1208887 21.2105505,29.3670761 21.2966017,29.6812113 C20.7886535,29.6477298 20.6578556,29.8584663 20.6824417,30.1691548 C20.6662149,30.1775252 20.6494964,30.1858956 20.6337613,30.1942659 C20.1149952,30.502985 19.9281411,31.0214557 19.735878,31.5359875 C19.7230932,31.5335256 19.7073581,31.5409113 19.6940817,31.5404189 C19.6960486,31.4793644 19.6960486,31.4183099 19.6999823,31.3572554 C19.4973931,30.1642311 18.6796604,30.4581789 17.9184757,30.6236168 C17.391842,30.8712814 16.8691422,31.122885 16.3705367,31.4192947 C16.3272652,31.2504101 16.2721924,31.0854645 16.1876163,30.9323359 C15.7617856,30.349364 15.2700642,29.8963791 14.4759341,30.0298127 C14.3589044,29.0460477 13.6645938,28.3710017 13.1237002,27.6152062 C12.9835596,27.4473064 12.8414521,27.2823608 12.6831178,27.1312017 C12.5960831,27.0026919 12.499214,26.8884609 12.3989028,26.7811232 C12.4008697,26.4172581 12.5665798,26.1375892 13.3021951,26.1469443 C13.6090292,26.1602384 13.7147493,26.0504388 13.6419746,25.8323168 C14.5216642,26.1518681 15.1928639,25.5191663 15.921595,25.1503775 C16.8204618,24.6402771 17.2733372,23.7973313 17.6013154,22.861819 C17.5659114,22.790917 17.5250985,22.7308473 17.4818271,22.6757013 C17.5521432,22.6087383 17.6219677,22.5422677 17.6913004,22.4757971 C17.7650586,22.4890912 17.8383251,22.4959845 17.9115916,22.5196185 C18.1318828,22.5304507 18.343323,22.4920455 18.5439453,22.3975095 C18.7145726,22.257675 18.8606139,22.0956837 18.9761684,21.9066117 C19.0287826,21.7968121 19.0961484,21.700799 19.1610557,21.6018317 C20.0948346,21.2325505 21.1446598,21.0434785 21.6039276,19.9405588 C21.6929292,19.6510423 21.6924375,19.3738353 21.5670485,19.1123842 C21.5936015,19.0675781 21.6152372,19.018833 21.6393316,18.9720574 C21.6452322,18.9750116 21.6511329,18.9779659 21.6575253,18.9809201 C22.0277915,18.9528547 22.341018,18.798249 22.6119565,18.5500921 C23.3657654,17.3664228 24.6270308,16.5810849 25.1748085,15.2408404 C25.2736445,14.7533893 25.1762837,14.3240384 24.8281449,13.9665742 C24.8306035,13.9650971 24.8330621,13.96362 24.8355207,13.9621428 C24.8699412,13.9980862 24.9043617,14.0340296 24.9392739,14.0699729 C25.1620237,14.095084 25.3410103,14.0177812 25.4767254,13.8380644 C25.6021144,12.8794104 25.9246836,12.0300637 26.7655273,11.4623555 C27.1087488,11.1393576 27.4519703,10.816852 27.7951919,10.4938541 C27.948609,10.169379 28.102026,9.84588872 28.2554431,9.52190604 C29.3957451,8.88969668 29.8038738,7.91036302 29.6135777,6.64594429 C28.8101049,5.67990475 28.0056486,4.71386521 27.2021759,3.74782567 C27.041383,3.76653592 26.8805901,3.78573854 26.7197972,3.80494116 C25.2234889,3.56121559 24.1151489,2.86302799 23.7684853,1.27216471 C23.3200353,0.477471631 23.0191018,-0.823875212 21.8866674,0.719227703 C21.8689655,0.973785523 21.8512635,1.22834334 21.8340532,1.48290116 C21.675719,1.43957217 21.514926,1.41840005 21.3477408,1.4449883 C20.7257132,2.1215114 19.8917537,2.51048756 19.1723653,3.05406945 C19.0887726,3.04816095 19.0041965,3.04668382 18.9201122,3.04766857 C17.6544213,3.08607381 16.6950728,3.76653592 15.783913,4.55088912 C15.280882,5.15404837 14.4395467,5.35986107 14.0289593,6.06888092 C13.3656271,6.50315557 12.7027867,6.93743023 12.0394545,7.37170488 C10.7511444,8.65631098 8.83883984,7.38007526 7.5057831,8.48151789 C7.04110637,8.86852456 6.24353425,8.99752678 6.28631401,9.77744861 C6.06651454,9.73805862 5.86146671,9.81043773 5.67608774,10.0270827 C5.5074273,10.342695 5.33876685,10.6578149 5.17059813,10.9729349 C5.03980024,11.0462987 4.90211824,11.0994752 4.75706043,11.1339414 C4.816067,11.2683598 4.78902232,11.3811136 4.67445123,11.4731877 C4.05045676,12.2565562 3.71215243,13.0714366 4.40007068,13.9961167 C4.60511851,14.2437813 4.83180208,14.4461473 5.11208329,14.536252 C5.28271061,14.9099645 5.52562099,15.2305006 5.87671008,15.4761956 C6.07880758,15.575163 6.28287196,15.6199691 6.51250586,15.598797 C6.57397103,15.6032283 6.61281703,15.5756554 6.64281203,15.5352806 C6.69444278,15.6923482 6.77951058,15.8021478 6.91325881,15.8425225 C6.97423226,15.990235 7.05487457,16.1325314 7.16895394,16.2571022 C7.76000307,16.6766056 8.30532212,17.2354511 9.11469556,16.9577517 C9.20222197,17.4540656 9.7795029,17.5180743 9.9953686,17.9016343 L10.1689463,17.8327019 C10.3022028,18.0168501 10.4354593,18.2005059 10.5687158,18.3841617 C10.7540947,18.3644667 10.9394737,18.3442794 11.124361,18.3245844 C11.6559118,18.4796825 12.1500918,18.414689 12.6123099,18.1640702 C13.1994253,18.1005538 13.7865407,18.0375298 14.373656,17.9740135 C14.6160747,18.5697871 14.5841128,19.1591598 14.3308763,19.7431164 C14.0604295,20.2699576 13.7904744,20.7967987 13.5200277,21.3236399 C13.3823457,21.8120757 13.2446637,22.3005116 13.1069817,22.7884552 C12.882265,23.2414401 13.148778,23.9061462 12.5110153,24.1808914 C12.4962637,24.3305733 12.4805286,24.4797629 12.4633184,24.6289525 C11.8998056,25.1296978 11.4498805,25.8200074 10.5598648,25.7786479 L10.6085452,25.5664343 C9.86850448,26.0233582 9.35367216,24.8052227 8.60920595,25.2961205 C6.96193923,25.3399419 6.80311321,25.5644648 7.53479467,26.8175589 L7.53479467,26.8180513 L7.53479467,26.8175589 L7.5402036,26.8052495 C8.65690292,27.4517378 10.0130706,27.785568 10.5844508,29.145015 C10.7354093,29.1720957 10.8799754,29.2188713 11.0181491,29.2853419 C11.0510945,29.5507319 11.0840398,29.816122 11.1164934,30.0810197 C11.0402766,30.1809718 10.9743859,30.317852 10.9237386,30.5015079 C12.0591234,31.4271727 11.4405378,32.9889858 12.199264,34.053008 C12.3379294,34.04513 12.469219,34.0091866 12.5931328,33.9461626 C12.6182106,34.5537532 12.520358,35.1219539 12.082726,35.5842939 C11.1986109,36.3676623 9.62756098,36.40656 9.46529292,37.974774 C9.31580961,37.864482 9.18304483,37.8876236 9.06453997,38.02992 C8.56101725,38.4612404 8.05749453,38.8925608 7.55446352,39.3238812 C6.92801045,39.7172887 6.30155737,40.1111887 5.6751043,40.5045962 C5.63970036,40.6503392 5.6062633,40.7970669 5.57430141,40.9433022 C4.60610196,41.6119473 3.63839422,42.2805924 2.67068649,42.9492375 C2.49366678,43.6873075 1.50481503,43.9807629 1.61938612,44.8788547 C1.33074565,44.8951031 1.04210518,44.9118439 0.753956437,44.9280922 C0.238140678,45.8266764 -0.554514233,46.7080275 0.577920172,47.7114875 C0.749039222,47.7720496 0.921141716,47.8257185 1.09422765,47.874956 C2.03095694,48.5263679 3.42597057,47.9404418 4.2923837,48.7809258 C5.25664938,48.7518757 6.2769713,49.1797494 7.15371058,48.4303548 C8.78081672,48.3638842 8.05798625,46.4524849 9.10584457,45.9305675 C9.8576866,45.4721665 10.4929907,44.9010116 10.8740748,44.0856388 C10.878992,43.9723926 10.8691575,43.8621006 10.8480135,43.7542705 C11.4390627,43.2894686 12.0640406,42.8576558 12.4431578,42.1811327 C12.7199969,42.2101828 12.8935746,42.0890586 12.959957,41.809882 C12.8901325,41.6730018 12.921111,41.5651717 13.053384,41.4868841 C13.0460082,41.0787053 13.0405993,40.6242433 13.5662495,40.5700821 C14.0786232,40.5169056 14.2040121,40.9787532 14.3097322,41.35542 C14.6111575,42.4332286 14.3043233,43.6282225 14.9327433,44.645469 C14.933235,44.645469 14.933235,44.6459614 14.933235,44.6464538 C14.9238923,45.6730554 14.9140579,46.6991647 14.9047151,47.725274 L14.9047151,47.725274 C14.2054873,48.5155357 15.2956337,49.8479022 14.0751811,50.4806039 C14.0564957,51.090164 14.0378103,51.6992318 14.0191249,52.3082995 C13.6508256,53.2492279 13.60067,54.1862173 13.9886382,55.1192678 C13.7963751,55.2970151 13.7054066,55.5555119 13.5028174,55.722427 C13.5288786,56.0616733 13.5549399,56.4009196 13.5805094,56.7396735 C13.496425,56.8662139 13.4654466,57.0045712 13.4885575,57.155238 L12.5277339,57.6210246 C12.0340456,57.2729156 11.5477331,57.3004885 11.067813,57.6500747 C10.0474911,57.8731205 9.33547847,57.2246628 8.55806692,56.7598609 C8.56839307,56.5954077 8.57871922,56.4304621 8.58855365,56.2660089 C7.24517076,56.0887539 6.80212977,56.4875776 7.6641174,57.719992 C7.33171373,59.2192735 8.26450924,60.2306115 9.03897046,61.3030041 C9.07535784,61.5841501 9.11223695,61.8652962 9.14862433,62.1464422 C9.11223695,62.312865 9.07584956,62.47978 9.0399539,62.6462028 C9.59461565,63.1164208 10.1492774,63.5861464 10.7039391,64.0563645 C10.8371957,64.0760594 10.9537336,64.0568568 11.0574868,64.0056498 C11.0540448,64.0514407 11.0510945,64.0972316 11.046669,64.1435148 L11.0663378,64.1154494 C11.0948577,64.2784255 11.1228858,64.4409092 11.1514056,64.6038853 C11.1518974,64.7653843 11.1523891,64.9263909 11.1528808,65.0878899 C11.1056755,65.2548049 11.0584703,65.42172 11.0107733,65.5881427 C11.35547,65.9190187 11.699675,66.2498946 12.0433883,66.5802782 C12.388085,66.4350276 12.73229,66.289777 13.0769867,66.144034" id="Fill-5" fill="#000000" mask="url(#mask-2)"></path>
                </g>
                <g id="编组" transform="translate(27.722418, 0.000000)">
                    <mask id="mask-4" fill="white">
                        <use xlink:href="#path-3"></use>
                    </mask>
                    <g id="Clip-8"></g>
                    <path d="M11.3101817,34.3498451 C11.2585509,33.5718928 12.2759225,33.3522936 12.3359125,32.6319491 C13.1138158,32.5142715 13.4472029,31.9027419 13.7845238,31.2981055 C13.8086181,31.2380358 13.8292704,31.1774737 13.8523813,31.1174039 C14.8786039,31.1090335 15.1888801,29.9002532 15.9549821,29.4571158 C16.0193976,29.3990155 16.0838131,29.3419001 16.1487203,29.2842922 C15.9884191,29.574301 15.8399193,29.8707107 15.655032,30.1439788 C15.5207921,30.4300486 15.4519511,30.7264583 15.4976812,31.0405934 C15.2734562,31.1996305 15.2837824,31.4975173 15.2306764,31.7579837 C15.2223172,31.7525675 15.2134662,31.7491209 15.2051069,31.74272 C13.4870323,32.0425763 12.6683162,33.5325028 11.5068702,34.5650129 C11.4193438,34.7210958 11.3214912,34.8712701 11.2197049,35.0184902 C11.283137,34.8323725 11.3209995,34.6191742 11.3101817,34.3498451 M19.6060135,38.7694021 C19.6187983,38.6015023 19.6315831,38.4340948 19.6448595,38.266195 C19.9153063,37.9850489 20.1857531,37.7039029 20.4561999,37.4227568 C20.4748853,37.437528 20.4920955,37.4537764 20.5117644,37.4685477 C20.8038469,37.5896719 21.0811778,37.5965651 21.340315,37.4636239 C21.2478713,37.6531883 21.2011578,37.859001 21.2001744,38.081062 C21.2139426,38.1982473 21.2350866,38.3144477 21.2581975,38.4301558 C21.0374146,38.5714674 20.867279,38.763986 20.7359893,38.996387 C20.7197625,38.9939251 20.7069778,38.9870318 20.690751,38.9850623 C20.4675095,39.012143 20.2845891,39.1096332 20.1493657,39.2908271 C20.1419899,39.3932411 20.1360892,39.4961475 20.1301886,39.5990538 C20.0510214,39.5951148 19.9703791,39.5941301 19.8848196,39.6025005 C19.5199623,39.7571062 19.3026214,40.0456379 19.1742821,40.4099953 C19.1531381,40.4917295 19.1467457,40.5714942 19.1329775,40.6522437 C18.5148837,41.4676165 17.909083,42.6517782 17.1862525,40.2480039 C17.7428811,40.1623307 18.2277184,39.9934461 18.2680396,39.3095374 C18.7140309,39.1293282 19.1600222,38.9496113 19.6060135,38.7694021 M11.304281,66.3246707 C11.304281,66.3433809 11.304281,66.3615988 11.304281,66.3798166 C11.2949383,66.3611064 11.2792032,66.3438733 11.2674019,66.325163 C11.2796949,66.325163 11.291988,66.3246707 11.304281,66.3246707 M1.45952666,54.0177602 C0.808979238,54.7105317 0.874378185,55.5534775 0.957479104,56.4013471 C0.809470959,56.4510769 0.659987651,56.4569854 0.508045736,56.4200573 C0.345285949,56.6076521 0.183017884,56.7947546 0.0202580979,56.9823494 L0.0487779396,58.4565199 C-0.0205547791,58.6130951 -0.0161292864,58.7677008 0.0630378605,58.9193523 C0.0148491624,60.1778625 0.0827067168,61.4063378 0.963871482,62.4250615 C0.963871482,62.4255539 0.963871482,62.4255539 0.963871482,62.4255539 C1.13941602,62.5639112 1.31496057,62.7017762 1.49050511,62.8401335 C2.2689001,62.6973448 2.95386802,62.1330832 3.80651295,62.3265865 C3.82077287,62.1547477 3.89551452,62.0154056 4.03073791,61.9090526 C4.75258494,61.5008738 4.88584144,59.7224157 6.30150738,60.9282418 C6.3664146,61.3556232 6.43181355,61.7825123 6.49672078,62.2089089 C6.64079515,62.2542074 6.7843778,62.2995059 6.92796045,62.344312 C7.08678647,62.9632273 7.56473968,63.3709137 7.93254729,63.8509792 C8.08104716,64.0119858 8.22954702,64.1725 8.37804689,64.3335066 C8.95581954,64.9366658 9.01433439,65.8977816 9.72782216,66.4073896 C9.42836382,66.5718428 9.32657749,66.897795 9.20463058,67.2070065 C9.18397828,67.2665838 9.17365213,67.3281307 9.16086737,67.3891852 C9.08219195,67.4010022 9.00548341,67.4261133 8.93123347,67.4655033 C8.94450995,67.7589587 8.95778643,68.0519218 8.97155463,68.3458696 L8.85009944,68.295155 C9.02515226,68.6023969 9.19971336,68.9096388 9.37427446,69.2168808 C9.66488182,69.2799048 9.95598089,69.3424364 10.2460965,69.4054604 C10.8179685,69.9746457 11.855009,70.1459922 11.8048534,71.244973 C11.966138,71.5778184 12.1279144,71.9116486 12.2896907,72.2454787 C13.5455472,73.0977797 14.2791955,72.37842 14.9115493,71.3631429 C14.9735061,71.1809642 15.0079266,70.9948465 15.0221866,70.8042974 C18.3152448,69.7038395 18.8595804,67.0218735 18.7858222,63.9844128 C18.7204233,63.9115413 18.6505988,63.8677199 18.5792992,63.8376851 C18.5871668,63.8278376 18.5930674,63.8179901 18.6014267,63.8086349 C18.6712511,63.8583648 18.7327163,63.916465 18.7858222,63.9844128 C19.2323053,63.3827307 19.2190288,62.6845431 19.2018185,61.9858631 C19.3247489,61.9336714 19.4486627,61.8849262 19.5735599,61.8376583 C20.0343029,59.8972088 19.4329276,57.952328 19.5966708,56.0104014 C19.4801329,55.9636258 19.3635949,55.9173425 19.2470569,55.8710593 L19.2470569,55.8715517 C19.5366808,54.8459348 18.0030017,54.5357386 18.3211455,53.4992894 C18.3890031,52.0576157 17.229524,51.5736112 16.3080381,50.9039814 C16.2967285,50.785319 16.2696838,50.6701033 16.226904,50.5588266 C16.0046459,50.4071751 15.7823879,50.256016 15.5606215,50.1043645 C15.5901248,49.9960421 15.6181529,49.888212 15.6447059,49.7789047 C15.3777011,49.651872 15.1106964,49.5248393 14.8436917,49.3978066 C14.6302846,49.2200592 14.4217947,49.0378805 14.2683776,48.8010482 C14.0205501,48.4765732 13.7289593,48.2180763 13.3134547,48.1491438 C13.4231085,47.9945381 13.4472029,47.823684 13.3601682,47.6326426 C13.1831485,46.7837883 12.7474833,45.7606332 14.3657385,46.1052957 C15.0280872,46.2461149 15.5935668,46.0806769 16.0784042,45.6148903 C16.489975,45.3214348 16.9010541,45.0279794 17.3121332,44.7355087 C17.4468648,44.5779487 17.5820882,44.4213735 17.7173116,44.2643059 C18.8615473,44.3224062 19.8184372,43.8285542 20.7394314,43.2303187 C20.7482824,43.0850681 20.7615589,42.9403099 20.7787691,42.796044 L20.966115,42.7985059 L21.1234658,42.6970767 C22.2578671,42.7088937 23.3799754,42.6453773 24.4361929,42.1662965 C25.5597764,40.5296424 27.3388244,39.2489753 27.2537566,36.9559854 C27.2026176,36.8919767 27.1455779,36.8417544 27.0850962,36.7969483 C27.4499535,36.2814318 26.877098,35.8845776 26.8839821,35.4143596 C25.871036,35.2725556 24.9175882,34.9845163 24.134276,34.2828821 C23.4965133,32.7703064 22.41866,34.3075009 21.619121,33.9180323 C21.2075502,34.4355183 20.4448903,34.6117885 20.2486934,35.3385339 C20.1950958,35.6255884 20.1414982,35.9131354 20.0883922,36.2001899 C19.6119142,36.5650397 19.1354362,36.9298895 18.6589581,37.2947393 C17.999068,37.7639726 17.3391778,38.2332059 16.678796,38.7019468 C16.4053989,38.7526614 16.1320018,38.803376 15.858113,38.8540906 C15.7135469,38.9146527 15.5847159,38.9993412 15.4637524,39.0958467 C15.0157942,38.9535503 14.3003395,39.0707356 14.6514286,38.1524564 C15.1229895,37.7019334 15.5940586,37.2514103 16.0656194,36.8008873 C16.7840244,36.315898 17.5024294,35.8314011 18.2203426,35.3464119 C18.352124,35.2582768 18.4062133,35.1538933 18.3772017,35.0327691 C19.0184065,34.8791481 19.3198317,34.3306425 19.6310913,33.7934615 C19.7451707,33.2725288 20.0819999,32.9790734 20.5855226,32.856472 C20.7487741,32.6294872 20.9120256,32.4025024 21.0752771,32.1755176 C21.1559194,32.1838879 21.23607,32.1937354 21.3181875,32.1888117 C23.403578,31.28038 23.2177073,29.0523836 24.0688771,27.4270541 C24.2168852,27.2724484 24.3648933,27.1178427 24.5124098,26.9627446 C25.0901824,25.4393367 27.604354,24.5973756 26.1272229,22.3511613 C26.185246,22.2014794 26.1385325,22.1020196 25.9860988,22.0527821 C25.2278644,20.9680802 24.0846121,21.6844857 23.1464077,21.443222 C23.1488663,21.3024028 23.1350981,21.1635531 23.1065783,21.0251957 C22.2691767,21.0488297 21.3757189,20.8228297 20.699602,21.5668081 C20.4812777,22.4456973 20.2944235,23.3378806 19.6743628,24.0498547 C19.4732488,24.859319 18.5089831,24.7697068 18.1293742,25.368927 C17.3200007,25.8066483 16.5106273,26.2443696 15.7012538,26.6820909 L15.7371495,26.4526442 C14.4404801,26.6958774 14.5835711,25.8435764 14.6656885,25.0370664 C14.5550512,24.9927526 14.4439222,24.9479465 14.3332849,24.9036328 C14.3077154,24.1168177 14.2821458,23.3290179 14.2565763,22.5422028 C14.2546094,21.122686 14.2531343,19.7031691 14.2516591,18.28316 C14.4404801,18.3013778 14.5993062,18.2324453 14.7291206,18.0753778 C14.7546901,17.932589 14.7640328,17.7888156 14.756657,17.6440573 L15.7548515,17.1319875 C15.9362967,16.6637389 16.1177419,16.1959828 16.2991871,15.7282266 C16.2367384,15.6711111 16.1742898,15.6149804 16.1118412,15.5583573 C16.1138081,15.5578649 16.1162667,15.5573725 16.1182336,15.5563878 C16.1782236,15.6135033 16.2387053,15.6706188 16.2991871,15.7282266 C16.7702562,15.215172 17.241817,14.7021174 17.7133778,14.1885703 C18.2454204,13.0383826 19.5868364,14.1575507 20.2191901,13.2899862 C20.5156982,13.0846658 20.8122062,12.8788531 21.1087142,12.6730404 C21.9549667,12.0659422 22.9320172,11.6232972 23.5417517,10.720774 C23.9474219,9.76162768 24.9682355,9.74094794 25.7171272,9.32883015 C28.7928446,7.63604527 28.8916806,6.17172234 26.0308455,3.78321173 C25.8749698,3.86051459 25.7190941,3.85952984 25.5632184,3.78124223 C25.0906741,3.46513755 24.6176381,3.14952524 24.1455856,2.83391293 L23.0490468,0.492670318 C22.0528193,0.273071116 20.7099281,-0.892380256 20.6278106,1.38436125 C20.5186485,1.48382098 20.4994713,1.59805195 20.5707709,1.72803892 C19.9920148,2.18693233 19.095115,1.60740708 18.5984764,2.33513717 L17.6922338,2.37994328 C17.529474,2.54094987 17.367206,2.70244884 17.2044462,2.86296305 C17.0480788,2.91170817 16.8917114,2.96094566 16.7348522,3.00969077 C16.5661918,3.12441412 16.3975313,3.23913747 16.2288709,3.3543532 C16.2618162,5.24605754 14.3126326,3.72215724 13.8061595,4.68327303 C13.7245338,4.62763467 13.6374991,4.57987431 13.5401382,4.54688519 C13.432943,4.53949956 13.325256,4.53014444 13.2180607,4.52226644 C12.7563343,4.6133558 12.4254058,4.84329487 12.3467304,5.34354776 C10.6714355,5.90633227 10.7692881,8.00729594 9.36296487,8.80346614 C8.36280352,9.38643801 8.14742955,10.2746823 8.5206461,11.2879898 C8.82944714,12.1255195 9.55326106,12.2003605 10.3326395,12.0191666 C10.555881,11.9379247 10.7663378,11.8433887 10.9699104,11.7173408 C11.1184103,11.6016327 11.2728108,11.523345 11.4316368,11.4711533 C12.0512058,11.5445172 12.6707748,11.617881 13.2903438,11.6907525 L13.4988336,11.7601774 L13.7171579,11.7424519 C13.7958334,11.869977 13.8558234,12.0048877 13.897128,12.1486612 C14.3519703,12.2983431 14.6696223,12.4765828 14.8894218,12.676487 C15.0177611,13.1693543 15.0182528,13.7065353 15.1500341,14.1979255 C15.0713587,14.4111238 14.9651469,14.6297382 14.8422165,14.8522917 C14.6612631,14.8621392 14.477851,14.8911893 14.2929637,14.9310717 C14.0849656,15.0196992 13.90057,15.14427 13.7412523,15.3037995 C13.1969167,15.996571 13.1423356,16.7572902 13.4304844,17.5633079 C13.4683469,17.6386412 13.5111267,17.7080661 13.5573485,17.7745367 C13.2023256,17.9616392 12.8846736,18.1920706 12.7204387,18.6002494 C12.3954108,19.0483105 12.2769059,19.5362541 12.4406492,20.0778664 C12.5665299,20.2364112 12.663399,20.4013567 12.7430578,20.5702413 C12.598,21.6844857 13.2362544,22.9188696 12.2832983,23.911005 L10.3129706,26.919908 C10.1202158,27.09864 9.92746105,27.2788493 9.73519798,27.4575813 C9.22921665,27.9046577 8.54621561,28.1444443 8.20594439,28.7810851 C8.04023428,29.0838956 7.83469473,29.3798129 7.70340511,29.6865625 L6.89157307,30.4005061 C6.55671079,30.4979963 6.34625403,30.6836216 6.26610344,30.9627982 C5.56687559,31.2153865 5.13956969,31.7304107 4.88830005,32.4202279 C4.88633316,32.4625721 4.87551529,32.496546 4.86961463,32.535936 C4.54753711,32.5014697 4.25201254,32.6255482 3.98648298,32.9268817 L3.98107405,32.8973392 C3.8261818,33.2144286 3.67178128,33.5320104 3.51688904,33.8490998 L3.41411926,34.8171089 C3.25381808,34.9791002 3.0935169,35.1410915 2.932724,35.3030829 C2.77242282,35.4744293 2.61212165,35.6462682 2.45182047,35.8171223 C2.32053085,37.9456589 2.46313006,38.0904172 4.0007429,37.3902601 C4.14924277,37.2011881 4.29872608,37.0126085 4.44771767,36.8235366 C4.61096917,36.8358459 4.7747124,36.8471706 4.93845563,36.8594799 C5.08154656,36.7920246 5.23152159,36.7472184 5.38838072,36.7260463 C5.45722172,36.453763 5.57916863,36.2533664 5.9115723,36.3390397 L6.69095073,36.2307172 C6.95648029,36.2307172 7.06318384,36.105654 7.02433785,35.8678369 C7.58932575,35.6787649 8.15431365,35.4901853 8.71880982,35.3020981 C8.7158595,35.3075143 8.71241745,35.3139151 8.70848368,35.320316 C8.84714911,35.6718717 9.11857933,35.877192 9.46130915,36.0017629 C9.95696433,35.9387389 10.4319672,35.8520809 10.7771556,35.6186952 C10.2864177,36.2563207 9.78830389,36.88853 9.59899115,37.7098114 C9.58669811,37.9363038 9.62603582,38.1514716 9.72241322,38.3562996 C9.77896118,38.4242473 9.84091808,38.4808704 9.90435014,38.5320774 C9.77453569,38.893973 9.64472124,39.2558685 9.51490679,39.6172717 C9.51097301,39.6187488 9.50753096,39.6207183 9.50408891,39.6221954 C9.31674306,39.7118077 9.13824819,39.8171759 8.97647184,39.9476553 C8.87517723,40.043176 8.80731968,40.1539603 8.76749024,40.2780388 C8.75519721,40.2814854 8.74536278,40.2824702 8.73306975,40.2864092 C7.18218042,40.655198 5.97942985,41.3007015 6.38214969,43.2372119 C6.50950553,43.4233296 6.60539121,43.6104321 6.68111631,43.7980269 C6.55621907,43.8723755 6.4696761,43.9762666 6.43427216,44.1200401 C6.34084509,44.0629246 6.23414154,44.0289507 6.11121119,44.0230422 C5.88206902,44.0924671 5.73897809,44.2465804 5.67161225,44.4750424 C4.83371897,45.4144937 5.57375969,46.9206685 4.49098915,47.7705076 C4.43689979,48.4465383 5.07466246,48.5760329 5.41198335,48.9423598 C6.34281198,49.7813666 7.19693206,49.1969176 8.06383691,48.7907083 C8.23692284,48.6946952 8.40705845,48.605083 8.57965267,48.4992224 C9.27248813,48.3224598 9.21839878,48.9945515 9.49327104,49.2939155 C9.68602584,49.5785082 9.94221269,49.7656106 10.2967438,49.7951531 C10.328214,49.7882599 10.3567338,49.7769352 10.3877123,49.770042 C10.5544058,50.1673885 10.8646821,50.4278549 11.2610095,50.6056022 C11.3308339,50.7685783 11.3209995,50.9261382 11.2305228,51.0787745 C11.403117,51.2511057 11.5757112,51.4239293 11.7483054,51.5962605 C11.9341761,51.9049795 12.1200468,52.214191 12.3064092,52.5234024 C12.5276839,52.6849014 12.7484668,52.8468927 12.9697414,53.008884 C12.9751503,53.0595987 12.9776089,53.1093285 12.9859682,53.1605355 C13.2195359,53.6534028 13.5465306,53.8917122 14.0289093,53.7129801 C14.0943083,54.1694117 14.4085182,54.5121046 14.6760147,54.876462 C15.2410026,55.7528893 14.9223671,56.6893864 14.8697529,57.6061884 C14.8884383,57.8858574 14.9641634,58.1359838 15.1544596,58.32801 C15.1244646,58.3442584 15.0934862,58.3580449 15.0639829,58.3762628 C14.6352018,58.8331867 14.4365464,59.3570735 14.6086489,59.986821 C14.6302846,60.0020846 14.64897,60.0193178 14.6696223,60.0345814 C14.2162552,60.317697 14.0761146,60.795793 13.9856378,61.3044162 C13.9890799,61.4934882 14.0412024,61.6672965 14.1252867,61.8322421 C14.0018646,61.866216 13.8804095,61.9070831 13.7638715,61.9641986 C13.0282563,62.3502205 12.3329622,62.0892618 11.6376681,61.842582 C10.3877123,61.6313532 9.31821822,60.787915 8.03187502,60.7022417 C8.04908527,60.5328648 8.0176151,60.3684116 7.92959696,60.2103592 C7.09072024,59.2664766 5.92189845,58.7617923 4.96599203,57.9754696 C4.96894236,57.972023 4.97090924,57.968084 4.97336785,57.964145 C5.04663434,57.8016613 5.11990083,57.6396699 5.19365904,57.4771862 C5.1444869,57.1763451 5.09580648,56.8755041 5.04712606,56.5751554 C6.09006717,56.2585583 6.30052393,55.4446626 6.45984167,54.5751286 L3.46427485,54.5751286 C3.02664279,54.2280043 2.6155637,53.8016076 1.97140865,54.0773376 L2.02107251,53.8971283 C1.83372665,53.9375031 1.64687252,53.9773855 1.45952666,54.0177602" id="Fill-7" fill="#000000" mask="url(#mask-4)"></path>
                </g>
                <path d="M15.9291184,27.3599434 C15.9266598,27.3614205 15.9242011,27.3628976 15.9212508,27.3638824 C15.9074826,27.3717604 15.8956813,27.3816079 15.8814214,27.3894859 L15.9291184,27.3599434 Z" id="Fill-9" fill="#000000"></path>
                <path d="M25.7997864,28.4576932 C25.8637102,29.3981293 26.4867212,29.4749398 27.2203696,29.3823733 C27.2710169,29.2499244 27.3236311,29.1184603 27.3782121,28.9874886 C27.0138466,28.6457804 26.6504644,28.3040723 26.2870823,27.9618717 C26.1248143,28.1273097 25.9625462,28.2922553 25.7997864,28.4576932" id="Fill-11" fill="#000000"></path>
            </g>
        </g>
    </g>
</svg>