<?xml version="1.0" encoding="UTF-8"?>
<svg width="111px" height="416px" viewBox="0 0 111 416" version="1.1" xmlns="http://www.w3.org/2000/svg" xmlns:xlink="http://www.w3.org/1999/xlink">
    <title>title_文心雕龙</title>
    <defs>
        <polygon id="path-1" points="0 0 23.324441 0 23.324441 18.472398 0 18.472398"></polygon>
        <polygon id="path-3" points="0 2.84217094e-14 38.1940422 2.84217094e-14 38.1940422 54.1364351 0 54.1364351"></polygon>
        <polygon id="path-5" points="0 2.84217094e-14 53.4127899 2.84217094e-14 53.4127899 37.1261973 0 37.1261973"></polygon>
    </defs>
    <g id="home" stroke="none" stroke-width="1" fill="none" fill-rule="evenodd">
        <g id="home备份" transform="translate(-103.000000, -332.000000)">
            <g id="title_文心雕龙" transform="translate(103.000000, 332.000000)">
                <path d="M78.4755,345.8266 C78.4525,345.8426 78.4345,345.8586 78.4115,345.8746 C78.4075,345.8386 78.3995,345.8086 78.3955,345.7726 C78.4215,345.7906 78.4485,345.8086 78.4755,345.8266 L78.4755,345.8266 Z M108.8975,385.4806 C108.8335,383.9736 109.2755,382.3216 107.6935,381.2496 C106.7085,380.5516 106.9205,378.9386 105.5965,378.4996 C105.4945,377.3796 105.3925,376.2596 105.2915,375.1396 L105.6095,375.1486 C105.6765,373.8946 104.9975,374.0646 104.2225,374.4176 C103.1715,374.6036 102.5945,374.0026 102.1575,373.1686 L100.7775,373.1686 C100.6475,372.9886 100.5195,372.8036 100.3995,372.6066 C99.9015,372.1296 99.4235,371.6076 98.7345,371.5776 C98.7455,370.9676 98.7565,370.3566 98.7675,369.7456 C98.5475,369.6776 98.3275,369.6106 98.1075,369.5436 C97.6905,370.5596 97.4605,371.5776 97.4615,372.5986 C97.1285,373.3956 97.2085,374.3186 97.1045,375.1856 C97.1445,376.8256 97.1565,378.4726 98.3845,379.7826 C98.5565,379.8836 98.7125,379.9466 98.8545,379.9836 C98.8605,380.4076 98.8655,380.8326 98.8705,381.2566 C98.8405,381.4886 98.8115,381.7206 98.7815,381.9516 C98.9475,382.0906 99.0315,382.3166 99.1855,382.4696 C99.0845,382.5816 99.0075,382.7106 98.9715,382.8706 C98.5625,383.7846 98.5885,384.7296 98.7815,385.6876 C98.8645,386.0666 99.0055,386.4506 99.0995,386.8296 C98.9875,387.0146 98.8765,387.1986 98.7645,387.3826 C98.7445,387.6086 98.7245,387.8346 98.7055,388.0616 C98.7465,388.2036 98.7885,388.3476 98.8295,388.4896 C98.7495,388.5856 98.6585,388.6796 98.5455,388.7726 C98.3205,389.1746 98.2595,389.6086 98.3115,390.0636 C98.3635,390.2256 98.4105,390.3826 98.4515,390.5376 C98.1085,390.8476 97.7645,391.1566 97.4225,391.4666 C96.6935,391.8416 96.2475,392.3156 96.4855,393.0276 C96.2475,393.1186 96.0245,393.2346 95.8265,393.3996 C95.7775,393.4626 95.7325,393.5276 95.6855,393.5936 C95.6405,393.5866 95.5955,393.5746 95.5495,393.5716 C95.5515,393.6596 95.5375,393.7366 95.5295,393.8176 C95.0575,394.5286 94.6395,395.2976 93.6745,395.4976 C92.4645,395.9946 91.1745,396.3056 90.0485,397.0056 C90.0035,396.8656 89.8995,396.7436 89.7315,396.6416 C88.1265,396.1446 86.8145,397.6786 85.2275,397.3006 C83.8285,397.2796 82.4895,397.6126 81.1535,397.9636 C80.8945,397.8996 80.6325,397.8396 80.3695,397.7846 C79.4075,397.6536 78.5295,397.9646 77.6595,398.3116 C77.1055,398.5586 76.5295,398.7386 75.9495,398.9046 C75.9525,398.8056 75.9475,398.7046 75.9245,398.6006 C75.6695,398.1436 75.2475,397.9866 74.7575,397.9576 C73.5655,398.0206 72.3755,398.0856 71.1815,398.0466 C70.4625,398.0356 69.7575,397.9496 69.0845,397.6876 C68.5335,397.4746 67.9945,397.2266 67.4235,397.0716 C66.8215,396.9336 66.2325,396.9426 65.6625,397.1966 C65.7425,396.7346 65.4355,396.3586 65.1465,395.9806 C64.3305,395.3536 63.6165,394.6226 62.9315,393.8656 C62.5225,393.5786 62.1025,393.3376 61.6375,393.2696 C61.7785,392.6356 61.9515,392.0176 62.6165,391.6606 C63.4835,391.1186 64.4855,391.4806 65.4015,391.2436 C66.1815,391.0486 66.8365,390.5556 67.5985,390.2976 C67.9585,390.2286 68.2835,390.2636 68.5105,390.5906 C68.7005,391.2566 68.4125,391.9066 68.4095,392.5696 C68.4265,393.3936 68.7725,394.0386 69.4605,394.4956 C69.8955,394.7016 70.3525,394.7636 70.8275,394.7096 C71.7205,394.5056 72.6255,394.3876 73.5235,394.2326 C73.8215,394.1606 74.1095,394.0616 74.3845,393.9226 C74.7865,393.6916 75.1225,393.3876 75.3945,393.0116 C75.8115,392.3886 76.0985,391.7036 76.3725,391.0126 C76.5865,390.4506 76.8655,389.9206 77.1595,389.4006 C77.4845,388.8346 77.7445,388.2406 77.8585,387.5926 C77.9975,386.7166 78.0055,385.8426 77.7795,384.9786 C75.6375,382.2076 72.7475,381.2356 69.6835,382.2376 C68.3215,382.6836 67.1475,383.6186 65.6715,383.7716 C64.4475,384.1776 63.1675,384.3436 61.9285,384.7136 C61.5845,384.6306 60.6545,385.7366 60.9795,384.2696 C61.5095,382.8096 63.0105,382.0146 63.5915,380.5766 C63.7835,380.7326 64.0075,380.7936 64.2745,380.7366 C64.3305,380.6446 64.3875,380.5656 64.4445,380.4896 C65.2845,380.5836 65.8835,381.5816 66.8475,381.2116 C66.9885,380.9876 67.1295,380.7656 67.2705,380.5416 C67.3785,380.5656 67.4855,380.5816 67.5915,380.5796 C68.7745,380.6176 69.7175,379.9056 70.7745,379.5526 C71.5845,379.3936 72.4185,379.2856 72.9545,378.5346 C72.9425,377.0626 73.2575,375.8516 75.0865,375.8416 C75.3925,375.1516 75.3285,374.4786 74.9995,373.8156 C74.3365,373.5046 73.6725,373.1916 73.0085,372.8796 C72.7275,372.7006 72.4345,372.5466 72.1275,372.4176 C70.9535,372.1416 69.8405,372.4176 68.7375,372.7926 C67.8305,373.0826 66.9555,373.4416 66.1325,373.9276 C65.4955,374.3356 64.9275,374.8346 64.3145,375.2746 C64.0935,375.4066 63.8905,375.5166 63.6975,375.6096 C63.4275,375.5296 63.1585,375.4496 62.8885,375.3686 C62.5195,375.5426 62.2375,375.6676 62.0225,375.7206 C61.7385,375.3916 61.7155,374.6966 61.9775,373.5986 C62.3075,372.7426 63.0755,372.4796 63.8345,372.2026 C64.1355,372.0576 64.4425,371.9526 64.7525,371.8776 C64.7775,371.8816 64.8015,371.8866 64.8255,371.8916 C65.4025,371.8286 65.9795,371.7676 66.5555,371.7056 C66.9325,371.7076 67.3115,371.7236 67.6905,371.7376 C68.8255,371.6946 69.6295,370.7816 70.6975,370.5656 C71.7125,370.1246 72.7175,369.6616 73.7065,369.1636 L73.6345,368.9436 C73.9915,368.9116 74.3485,368.8796 74.7065,368.8476 C74.9745,368.4326 75.2425,368.0176 75.5115,367.6026 C75.5995,366.9446 75.6885,366.2876 75.7775,365.6306 C75.9685,365.1406 75.7155,364.9096 75.2835,364.7846 C75.1955,364.8446 75.1075,364.9026 75.0195,364.9626 C75.0145,364.9586 75.0095,364.9546 75.0055,364.9506 C75.0375,364.9156 75.0735,364.8776 75.0735,364.8776 C75.1075,362.5586 74.0635,362.5956 72.5285,363.7086 C71.7555,363.9996 70.9835,364.2896 70.2115,364.5806 C69.6945,364.6196 69.1825,364.6086 68.6845,364.4666 C68.2485,364.4566 67.8505,364.5636 67.4985,364.8136 C66.3465,364.6266 65.9555,365.4386 65.6195,366.3216 C65.5085,366.4856 65.3975,366.6506 65.2855,366.8156 C65.1025,366.8546 64.9075,366.8776 64.6895,366.8676 C64.2475,366.9786 63.8365,367.1486 63.4775,367.4406 C63.4755,367.4436 63.4735,367.4466 63.4705,367.4486 C63.1505,366.8606 62.6055,366.9576 62.0535,367.0786 C61.6445,367.0246 61.2345,366.9706 60.8245,366.9166 C60.7635,366.9706 60.7025,367.0246 60.6425,367.0766 C60.6395,367.0636 60.6375,367.0496 60.6355,367.0346 L60.6345,367.0346 L60.8245,366.9166 C60.7515,366.7036 60.7715,366.5006 60.8855,366.3076 C60.7035,365.2406 60.7845,364.0586 59.9415,363.2876 C59.9435,363.2126 59.9385,363.1376 59.9455,363.0616 C60.0045,362.3196 60.3445,361.7506 60.9765,361.3576 C61.0125,361.3296 61.0475,361.3156 61.0835,361.2916 C61.5525,361.6996 62.0085,361.3886 62.4645,361.1036 C62.7485,361.1966 63.0275,361.3566 63.3045,361.5416 C64.3695,362.1906 65.4155,362.9036 66.7735,362.5966 C68.1555,362.0316 69.3915,361.1426 70.8595,360.7756 C71.2835,360.6336 71.7035,360.4766 72.1255,360.3276 C72.9825,360.0256 73.8535,359.7656 74.6835,359.3936 C75.9375,358.7136 76.7845,357.6096 77.6475,356.5256 C78.4945,355.2836 78.7595,353.7406 79.7025,352.5516 C79.6885,352.3556 79.7215,352.1656 79.7995,351.9846 C79.7505,351.9256 79.6995,351.8666 79.6495,351.8086 C79.7105,351.6496 79.7705,351.4916 79.8315,351.3326 C79.6085,349.5806 79.5775,347.8756 80.9895,346.5196 C81.7435,345.9126 81.5665,345.2256 81.1645,344.5176 C80.6225,343.9526 80.2995,343.2996 80.3455,342.4966 C80.3215,342.0576 80.2975,341.6186 80.2745,341.1806 C79.5255,340.9106 79.6735,339.6466 78.6355,339.6966 C78.3285,339.2766 78.0205,338.8566 77.7135,338.4356 C77.4475,338.0526 77.4515,337.5376 77.1045,337.1956 C76.3345,336.5096 75.4875,336.2486 74.5075,336.7256 C74.4025,336.8116 74.3295,336.9086 74.2735,337.0146 C74.0775,336.7916 73.8315,336.6476 73.5285,336.5956 C71.9125,336.7246 70.4295,337.0246 70.2715,339.0746 C70.0455,339.3026 69.8195,339.5306 69.5935,339.7586 C69.2605,340.1356 68.8025,340.3786 68.4955,340.7956 C68.3855,340.9126 68.3115,341.1406 68.2045,341.2576 C68.1165,341.2646 68.0285,341.2726 67.9405,341.2796 C67.8765,341.2386 67.8055,341.1776 67.7185,341.0616 C67.5285,340.9226 67.3055,340.8496 67.0595,340.8546 C66.9385,340.9016 66.8155,340.9476 66.6965,340.9946 C66.4965,341.1676 66.3205,341.3646 66.1755,341.5926 C65.8645,342.2666 65.2635,342.4906 64.6065,342.6286 C64.3395,342.7066 64.0865,342.8206 63.8515,342.9736 C63.8215,343.0216 63.7825,343.0556 63.7495,343.0976 C63.4205,343.0286 63.0915,342.9596 62.7625,342.8906 C61.9235,343.0896 61.5645,343.7196 61.3455,344.4756 C61.2035,344.4196 61.0575,344.4066 60.9075,344.4366 C60.6325,344.1726 60.3585,343.9086 60.0845,343.6466 C59.7625,343.8106 59.4015,343.8266 59.0355,343.8256 C58.5985,343.7316 58.1505,343.6906 57.6795,343.7676 C57.3065,343.8556 56.9595,344.0046 56.6465,344.2236 C56.3645,344.4916 56.1525,344.8076 56.0195,345.1746 C55.6735,346.5396 55.7015,347.8506 56.5715,349.0386 C59.4175,351.7626 62.8725,350.9026 66.2175,350.6856 C67.7825,350.1436 69.0275,349.0946 70.3335,348.1196 C70.5825,347.9616 70.8795,347.6536 71.1085,347.8766 C71.4575,348.2156 71.0655,348.5856 70.9765,348.9406 C70.3545,350.0236 70.0765,351.3426 68.9105,352.0656 C68.2555,352.5936 67.6235,353.1426 67.2155,353.8936 C67.1325,353.8646 67.0435,353.8476 66.9365,353.8566 C66.2485,354.3036 65.5975,354.8436 64.6985,354.7196 C63.5295,354.9546 62.0995,354.7616 61.5765,356.0556 C61.3025,356.1306 61.0395,356.2306 60.7905,356.3706 C60.3075,356.6926 59.9205,357.1276 59.4705,357.4886 C58.4565,358.1716 57.2475,357.8206 56.1635,358.1196 C55.8725,358.2036 55.5955,358.3246 55.3415,358.4896 C55.2365,358.6026 55.1265,358.7136 55.0205,358.8256 C54.8725,359.1046 54.7715,359.3986 54.7315,359.7116 C54.6825,360.4836 54.9145,361.2016 55.1535,361.9156 C54.3975,362.7176 55.7525,363.8846 55.3995,364.7556 C55.5925,364.8226 55.7755,364.9136 55.9455,365.0266 C55.9015,367.3506 56.7005,369.6516 56.2135,371.9856 C56.0795,372.1466 55.9425,372.2996 55.7955,372.4396 C55.5975,373.1236 55.6385,373.6886 56.5075,373.8286 C56.5285,373.8396 56.5455,373.8536 56.5665,373.8636 C56.4985,373.8636 56.4395,373.8566 56.3675,373.8586 C55.0685,375.5966 54.9975,377.7366 54.4565,379.7226 C54.3845,380.3686 54.3955,381.0266 54.3425,381.6766 C54.2215,382.0046 54.1505,382.3356 54.1875,382.6696 C54.1395,382.8626 54.0825,383.0546 54.0045,383.2426 C53.8685,383.7436 53.7745,384.2536 53.7235,384.7716 C53.6655,385.2886 53.6365,385.8076 53.6745,386.3296 C54.0085,388.6916 52.9155,391.0336 53.5935,393.4006 C54.7615,394.7816 54.8515,396.2916 54.1515,397.8946 C54.1295,398.3816 54.2425,398.8326 54.5365,399.2306 C56.0195,399.9566 56.7295,402.1586 58.7235,401.9066 C58.7715,402.3196 58.9045,402.7046 59.1685,403.0446 C59.4505,403.2616 59.7535,403.2896 60.0765,403.1516 C61.3965,403.0916 62.3135,404.0496 63.4385,404.4826 C63.4495,404.6596 63.4675,404.8366 63.4935,405.0126 L63.8265,405.0416 C63.8265,405.0416 63.9235,405.0196 64.0155,404.9976 C64.2245,405.3236 64.6205,405.4306 65.0905,405.4556 C67.0205,406.3466 69.0885,405.9886 71.1085,406.0766 C74.4595,406.4296 77.8195,407.0596 81.1315,405.8166 C83.4025,404.1776 85.6385,405.8126 87.8915,405.8866 C89.7235,406.8146 91.4605,406.0486 93.2135,405.5826 C93.8515,405.1896 94.2455,404.6486 94.2695,403.8736 C94.7695,404.3256 95.3675,404.3236 95.9985,404.1656 C96.3885,404.0026 96.7115,403.7696 97.0005,403.5016 C97.1175,403.4836 97.2345,403.4666 97.3515,403.4486 C97.9605,403.7106 98.5505,403.6266 99.1285,403.3466 C100.2325,402.5916 101.5685,402.1026 102.0995,400.7026 L102.5255,399.9526 C102.6365,399.9726 102.7495,399.9956 102.8655,400.0256 C103.9185,399.6506 104.8985,399.1696 105.5515,398.2036 C106.2265,397.0876 106.9015,395.9716 107.5755,394.8566 C107.8095,394.6936 107.9475,394.4716 108.0015,394.1936 C107.9735,393.9926 107.8825,393.8276 107.7625,393.6796 C107.9165,393.7236 108.0825,393.7306 108.2585,393.6956 C109.0975,393.2076 109.4535,392.3946 109.7045,391.5116 C109.7815,391.1596 109.8185,390.8046 109.7995,390.4436 C109.6115,389.4086 109.4225,388.3776 109.0555,387.3886 C109.0025,386.7526 108.9495,386.1156 108.8975,385.4806 L108.8975,385.4806 Z" id="Fill-1" fill="#252525"></path>
                <g id="编组" transform="translate(42.998131, 0.000000)">
                    <mask id="mask-2" fill="white">
                        <use xlink:href="#path-1"></use>
                    </mask>
                    <g id="Clip-4"></g>
                    <path d="M8.54496876,8.8244 C8.52696876,8.8104 8.50696876,8.7984 8.48896876,8.7834 C8.57996876,8.8194 8.66596876,8.8644 8.74496876,8.9214 C8.68196876,8.8824 8.61496876,8.8504 8.54496876,8.8244 M1.43096876,9.1194 C2.05396876,9.5534 2.39496876,10.2324 2.88896876,10.7774 C3.30196876,11.2254 3.60496876,11.7614 4.01796876,12.2074 C4.61596876,12.7964 5.33096876,13.1104 6.17196876,13.1204 C6.39196876,13.1084 6.60596876,13.0674 6.81596876,13.0134 C6.85296876,13.4704 6.88996876,13.9264 6.92596876,14.3824 C7.36196876,14.9664 8.17596876,15.2294 8.34196876,16.0424 C8.47196876,16.3224 8.63796876,16.5784 8.85796876,16.7994 C10.0389688,17.6284 11.5019688,17.4724 12.7879688,17.9254 C13.5439688,18.1254 14.2829688,18.4024 15.0829688,18.3714 C15.3949688,18.3254 15.6839688,18.2204 15.9499688,18.0524 C16.3359688,18.4914 16.8999688,18.5124 17.5029688,18.4414 C17.9869688,18.2824 18.3539688,18.0234 18.4329688,17.5114 C18.6889688,17.5484 18.9449688,17.5474 19.1989688,17.4894 C20.2749688,16.9384 21.2079688,16.2094 21.9669688,15.2664 C22.1049688,14.8614 22.0109688,14.5804 21.8219688,14.3494 C22.6679688,14.0494 23.1079688,13.3984 23.2759688,12.5154 C23.3769688,11.8104 23.3149688,11.1174 23.1379688,10.4304 C22.2229688,8.1134 22.0369688,5.4054 19.6009688,3.9204 C19.3089688,3.7624 19.0099688,3.6264 18.6939688,3.5244 C17.7659688,3.2874 16.8999688,2.8824 15.9909688,2.5984 C14.8529688,2.0394 13.7629688,1.3354 12.4069688,1.4534 C11.9529688,1.4994 11.5279688,1.6194 11.1359688,1.8684 C11.0279688,2.0294 10.9199688,2.1774 10.8109688,2.2904 L10.1889688,2.3124 C10.1139688,2.2274 10.0389688,2.1194 9.95996876,1.9524 C9.54896876,1.4994 9.04696876,1.1564 8.48096876,0.9064 C7.89996876,0.6744 7.31596876,0.4574 6.71796876,0.2804 C6.25796876,0.1484 5.79096876,0.0554 5.31296876,0.0244 C4.66096876,-0.0616 4.02896876,0.1004 3.39296876,0.1894 C2.53496876,0.2084 1.81396876,0.5264 1.25096876,1.1854 C1.09396876,3.8354 -1.59503124,6.5424 1.43096876,9.1194" id="Fill-3" fill="#252525" mask="url(#mask-2)"></path>
                </g>
                <path d="M39.3551,243.1369 C39.2691,243.1659 39.1831,243.1969 39.0971,243.2269 C39.1021,242.4299 38.6231,241.7879 38.2401,241.1159 C38.9181,240.9739 39.2581,240.5839 38.9081,239.6849 L39.1041,239.7629 C39.6361,239.3639 40.2811,239.0759 40.5931,238.4609 C40.9321,238.7119 41.3071,238.7199 41.7201,238.4659 C42.3071,237.8449 43.3911,237.9169 43.7611,236.9949 C45.1421,237.2449 44.2051,238.3899 44.5481,239.0409 C44.6061,238.9319 44.6651,238.8239 44.7231,238.7149 C44.6921,238.8389 44.6441,238.9519 44.5481,239.0409 C44.3751,239.5329 44.7121,239.6449 45.0671,239.7429 L44.3471,241.0629 C44.5041,242.0449 44.5781,243.0119 44.1281,243.8869 C44.0601,243.9009 43.9911,243.9069 43.9221,243.9279 C43.6971,244.0399 43.4921,244.1789 43.2981,244.3349 C43.3141,244.2569 43.3331,244.1789 43.3421,244.0979 C43.2511,243.7689 43.0641,243.5099 42.7781,243.3249 C41.6641,242.7999 40.5151,242.8719 39.3551,243.1369 M49.2861,250.7289 C49.2511,250.6899 49.2341,250.6559 49.2261,250.6229 C49.2601,250.6419 49.2871,250.6629 49.3191,250.6829 C49.3101,250.7009 49.2931,250.7079 49.2861,250.7289 M43.2261,235.0699 C43.1531,235.0929 43.0961,235.1359 43.0291,235.1659 C43.0191,235.1159 43.0051,235.0669 42.9961,235.0169 C42.3541,234.5059 41.7131,233.9949 41.0721,233.4839 C40.2031,233.2229 39.4891,233.4669 38.9111,234.1499 C38.8971,234.1979 38.8931,234.2409 38.8831,234.2869 C38.5581,234.0159 38.2381,233.9849 37.9261,234.2139 C37.9261,234.1989 37.9291,234.1839 37.9281,234.1689 C37.7921,233.5879 37.5361,233.0799 37.0371,232.7239 C36.9861,232.7049 36.9401,232.6989 36.8931,232.6919 C37.1761,231.5629 37.0791,230.5269 36.0731,229.7089 C35.9141,229.6599 35.7551,229.6099 35.5971,229.5589 C35.3031,229.5349 35.1211,229.6419 35.0221,229.8449 C34.5741,229.5009 34.0981,229.2689 33.5521,229.2869 C33.7631,228.4369 33.7071,227.6209 33.2121,226.8609 C33.1591,226.8219 33.1071,226.7889 33.0551,226.7549 C33.7871,226.6949 34.3551,226.2799 34.8881,225.7969 C35.2611,225.4179 35.4751,224.9709 35.5671,224.4699 C35.9511,224.6099 36.3691,224.5829 36.8121,224.4249 C37.4911,223.9729 38.1881,223.5359 38.3631,222.7469 C38.8171,222.9629 39.2921,223.0339 39.8081,222.8239 C40.0121,223.1559 40.3191,223.3789 40.6781,223.5479 C41.7021,224.0799 43.0381,224.0149 43.7421,225.1519 C44.1141,225.6399 44.5041,226.1079 45.0971,226.3469 C45.3101,226.3799 45.5131,226.3609 45.7091,226.2999 C44.0831,228.3949 45.5261,230.9129 44.8201,233.1349 C44.6851,233.8109 44.4531,234.4689 44.3801,235.1559 C44.0261,235.0169 43.6471,234.9699 43.2261,235.0699 M18.1651,225.7829 C18.1631,225.7199 18.1551,225.6569 18.1421,225.5949 C18.2261,225.6939 18.2711,225.8189 18.2901,225.9629 C18.2481,225.9029 18.2061,225.8429 18.1651,225.7829 M24.6251,260.1819 C24.6111,260.1859 24.5981,260.1929 24.5841,260.1989 C24.5811,260.1529 24.5831,260.1099 24.5781,260.0639 C24.5911,260.1069 24.6101,260.1409 24.6251,260.1819 M31.7921,260.0599 C32.4621,259.7639 33.3681,259.8939 33.7831,259.1459 C34.1631,260.0279 33.9321,260.9519 33.8121,261.8689 C33.7681,262.1749 33.7561,262.4809 33.7941,262.7889 C33.7961,262.7959 33.8001,262.8019 33.8021,262.8089 C33.7171,262.8239 33.6311,262.8389 33.5451,262.8539 C33.4291,262.9899 33.3951,263.1279 33.4291,263.2669 C33.1301,263.3049 32.8341,263.3599 32.5441,263.4429 C32.2711,263.5149 31.9991,263.5949 31.7371,263.7039 C31.2561,263.9219 30.7551,264.1129 30.4401,264.5239 C30.1761,264.4639 29.9101,264.4269 29.6341,264.4379 C29.5571,264.4489 29.4851,264.4709 29.4131,264.4899 C29.4091,264.4739 29.4031,264.4599 29.4001,264.4449 C27.8251,264.7589 27.7051,263.6209 27.3641,262.7029 C27.3651,262.6609 27.3661,262.6189 27.3681,262.5779 C27.3151,262.3499 27.2101,262.1539 27.0801,261.9699 C27.4621,261.9919 27.8291,261.9189 28.1741,261.7119 C28.3371,261.5289 28.4391,261.3159 28.5111,261.0889 C29.0991,261.3649 29.6751,261.1109 30.2481,260.8189 C30.7471,260.5309 31.2501,260.2549 31.7921,260.0599 M3.1141,283.2469 C3.1011,284.1779 3.9551,283.8319 4.3831,284.1119 C4.8371,283.8059 5.2901,283.4989 5.7431,283.1929 C6.2181,283.0779 6.6931,282.9639 7.1681,282.8499 C8.6761,282.7199 9.9341,282.1029 10.8971,280.9189 C11.0171,280.7459 11.1531,280.5869 11.2951,280.4309 C12.2071,280.1639 12.6411,279.2429 13.2141,278.5109 C13.6311,278.4399 14.0481,278.3679 14.4651,278.2979 C15.8611,277.3349 16.6061,276.0599 16.3761,274.3139 C16.3601,274.2779 16.3421,274.2469 16.3261,274.2129 C16.7801,273.7239 16.4861,272.9669 16.7011,272.3919 C16.7421,272.3919 16.7761,272.3129 16.8021,272.1539 C16.8201,272.0419 16.7781,271.9359 16.7091,271.8349 C16.7511,271.7609 16.7851,271.6819 16.8041,271.5949 C17.4951,271.2109 17.8011,270.6189 17.9381,269.9359 C18.0691,269.7559 18.1911,269.5669 18.2971,269.3619 C18.3371,269.2769 18.3671,269.1889 18.4011,269.1029 C18.5041,269.1149 18.6071,269.1259 18.7101,269.1379 C19.1761,268.8039 19.3581,268.3479 19.3251,267.8009 C19.3391,267.8099 19.3511,267.8199 19.3641,267.8289 C19.7521,267.8819 20.0771,267.7619 20.3371,267.4689 C20.9531,266.5209 20.9671,265.4509 20.9621,264.3759 C20.8281,263.6049 20.9961,262.8649 21.1851,262.1269 C21.1481,262.3689 21.1241,262.6159 21.1021,262.8639 C21.1561,264.1579 20.9191,265.5489 22.3031,266.3889 C22.4421,266.3829 22.5621,266.3529 22.6701,266.3099 C22.6681,266.3399 22.6681,266.3699 22.6661,266.3999 C22.5691,267.7379 24.0671,268.3439 24.1301,269.6079 L24.4501,269.6419 L24.5591,269.6139 C25.4631,270.5939 26.4221,270.8649 27.4881,269.7859 C27.9371,269.7879 28.3861,269.7899 28.8351,269.7919 C30.1841,269.7869 31.5321,269.7819 32.8801,269.7769 C33.0511,270.5009 33.6331,270.1919 34.0691,270.2499 C34.1331,269.8249 34.1981,269.3999 34.2621,268.9749 C35.1711,268.8039 36.0801,268.6339 36.9881,268.4629 C37.4331,268.2149 37.8771,267.9659 38.3211,267.7179 C39.5611,267.4609 38.4931,265.8929 39.5571,265.5359 C40.1051,264.9169 40.0111,264.1159 40.1541,263.3859 C40.1431,262.5869 39.9021,261.8499 39.5431,261.1479 C39.7001,260.8419 39.6971,260.4519 39.8101,260.1219 L39.9711,259.6179 C40.0721,259.5099 40.1741,259.3909 40.2731,259.2509 C40.3371,259.1029 40.4041,258.9579 40.4711,258.8129 L40.2721,258.0919 C40.4311,257.7349 40.5911,257.3779 40.7501,257.0209 C40.7691,257.0169 40.7881,257.0139 40.8071,257.0109 C40.9311,256.9339 41.0561,256.8599 41.1811,256.7849 C41.2401,254.7909 40.2521,253.9479 38.2941,254.0399 C37.1801,254.0919 36.0591,253.9959 34.9401,253.9679 C34.4831,254.1979 33.8191,254.0409 33.5891,254.6939 C32.9141,254.7299 32.2381,254.7669 31.5631,254.8039 C31.3341,254.7329 31.1051,254.6629 30.8751,254.5929 C30.6991,254.6909 30.5121,254.7539 30.3121,254.7809 C29.8301,255.0349 29.4531,255.4379 28.9971,255.7249 C28.5191,255.9839 28.0581,256.2619 27.9211,256.8419 C27.8491,256.8419 27.7761,256.8429 27.7041,256.8429 C27.6481,256.7419 27.5851,256.6449 27.5011,256.5579 C27.2461,256.4519 26.9861,256.4349 26.7181,256.4949 C26.3541,256.8249 25.9501,257.0819 25.4851,257.2359 C25.2811,257.1539 25.0711,257.0949 24.8481,257.0839 C24.5181,257.0859 24.2711,257.2279 24.1041,257.5119 C24.2551,259.0509 22.3041,259.0009 22.0541,260.2359 C21.7311,260.5429 21.5301,260.8939 21.3951,261.2679 C21.5221,260.6899 21.5881,260.1049 21.4771,259.5019 C21.5921,259.4289 21.7021,259.3479 21.8011,259.2499 C22.4061,258.4619 22.7491,257.6279 22.2611,256.6459 C22.2581,256.6439 22.2551,256.6419 22.2521,256.6399 C22.3351,256.5479 22.4181,256.4559 22.5011,256.3639 C22.5771,256.3849 22.6471,256.4119 22.7301,256.4249 C23.0561,256.3999 23.3481,256.2849 23.6011,256.0799 C23.7661,255.7969 23.8711,255.4919 23.8991,255.1639 C23.7771,254.0259 23.7041,252.8699 22.6211,252.1399 C22.1821,251.8589 21.7431,251.5779 21.3041,251.2969 C21.3111,250.9789 21.3171,250.6609 21.3231,250.3439 C21.5001,250.3109 21.6751,250.2639 21.8481,250.1869 C22.5871,249.7289 22.8401,248.9749 23.0441,248.1939 C23.5191,246.8419 24.2571,245.5519 23.9811,244.0319 C23.8051,243.2549 23.5571,242.5049 23.1881,241.7989 C22.9411,241.3879 22.6151,241.0619 22.1971,240.8289 C22.1701,240.8209 22.1431,240.8139 22.1161,240.8049 C22.4951,240.1499 22.0311,239.5509 21.7461,238.9409 C21.7111,238.8979 21.6751,238.8579 21.6401,238.8149 C21.8061,238.6589 21.9721,238.5039 22.1381,238.3489 C23.4941,236.3279 22.8571,234.2859 22.2111,232.2449 C23.1131,232.2369 23.0911,231.5839 23.0221,230.8989 C23.8241,230.8829 24.6261,230.8659 25.4271,230.8499 C26.0671,230.6019 26.3881,230.1819 26.3141,229.5509 C27.6191,229.6369 28.6641,229.0789 29.5681,228.1759 C29.7741,228.1619 29.9771,228.1829 30.1761,228.2399 L30.1481,227.9179 C30.1771,227.9059 30.2061,227.8929 30.2351,227.8799 C30.2151,227.9999 30.1961,228.1199 30.1761,228.2399 C30.1861,228.6869 30.1941,229.1339 30.2041,229.5799 C29.4391,229.6959 29.6101,230.4089 29.3851,230.8679 C29.4651,231.3279 29.5451,231.7879 29.6261,232.2479 C29.5491,232.6989 29.4731,233.1499 29.3961,233.5999 C29.4631,233.8259 29.5301,234.0519 29.5981,234.2769 C29.3611,234.7829 29.5741,235.4949 28.8991,235.7979 C28.8721,236.1649 28.8461,236.5329 28.8191,236.9009 C28.7511,236.9149 28.6831,236.9229 28.6161,236.9399 C28.2021,237.0389 27.8571,237.2709 27.5151,237.5069 C27.4861,237.4979 27.4621,237.4849 27.4331,237.4759 C26.5861,237.2959 25.9941,237.7579 25.4221,238.2699 C25.3541,238.2939 25.2861,238.3169 25.2181,238.3409 C25.1651,238.3059 25.1111,238.2729 25.0601,238.2379 C24.7441,238.1229 24.4281,238.1049 24.1051,238.2039 C23.8631,238.4559 23.8121,238.7409 23.9491,239.0599 C23.9791,239.7839 24.4741,240.6159 23.4821,241.1069 C24.0381,242.3969 25.2111,241.4629 26.0271,241.8149 C26.2821,242.0549 26.5361,242.2949 26.7911,242.5349 L30.7901,242.5789 C30.7861,243.6389 30.7821,244.6989 30.7771,245.7579 C29.3971,244.5729 29.3161,247.1289 28.1861,246.6619 C27.1861,246.5149 27.4151,248.5359 26.1071,247.8449 C25.7241,247.5599 25.5141,247.6559 25.4781,248.1329 C25.5321,248.2979 25.5201,248.4589 25.4421,248.6149 C24.8151,248.5849 24.2231,248.6489 23.8321,249.2339 C23.6711,249.9219 23.5121,250.6099 23.3521,251.2979 C23.1001,252.2269 23.7901,252.3099 24.3991,252.4619 C24.5831,252.4219 24.7811,252.4069 24.9811,252.3979 C25.1391,252.5179 25.2961,252.6379 25.4531,252.7579 C26.3791,253.5189 27.4311,253.6359 28.5561,253.3509 C28.9071,253.2349 29.2191,253.0559 29.4911,252.8049 C29.5321,252.7419 29.5591,252.6839 29.5921,252.6229 C29.6801,252.7179 29.7691,252.8109 29.8561,252.9049 C30.1641,253.0019 30.4741,253.0119 30.7851,252.9339 C31.2491,252.7219 31.6061,252.4239 31.7961,251.9919 C32.7831,252.9909 33.7801,252.8499 34.7841,251.7649 C34.7851,251.5839 34.7861,251.4019 34.7871,251.2209 C36.8121,250.9039 38.6181,250.0189 40.3971,249.0649 C41.1971,248.5249 41.7071,247.7549 42.1361,246.9219 C42.4381,247.3289 42.7371,247.7399 43.1391,248.0559 C43.0941,248.3189 43.1871,248.5219 43.5051,248.6259 C43.5111,248.6299 43.5181,248.6339 43.5231,248.6369 C43.4481,248.7039 43.3761,248.7809 43.3071,248.8719 C42.5541,251.0369 42.8301,253.3899 42.1011,255.5589 C42.1721,255.8849 42.2851,256.1609 42.4251,256.4039 C42.3741,256.7329 42.3221,257.0619 42.2721,257.3919 C41.0291,259.1779 41.2651,260.9959 42.1521,262.8289 L42.2891,266.8889 C41.7081,267.4089 41.7851,268.0589 41.8491,268.7069 C41.6561,268.8059 41.4801,268.9389 41.3311,269.1309 C41.0471,269.5919 40.8941,270.0949 40.8551,270.6339 C40.6881,271.7699 41.1541,272.7549 41.6001,273.7429 C41.6241,273.9519 41.6481,274.1609 41.6721,274.3699 C40.8221,274.6789 41.0201,275.3759 40.9921,275.9899 C40.7491,276.0539 40.5211,276.1499 40.3171,276.3039 C40.2751,276.3789 40.2471,276.4539 40.2161,276.5299 C38.4481,276.2109 37.0211,276.7359 35.9881,278.2389 C35.8651,278.1779 35.7301,278.1449 35.5811,278.1409 C35.4551,278.1689 35.3471,278.2219 35.2491,278.2879 C35.1441,278.2089 35.0361,278.1299 34.9111,278.0579 C34.0621,277.6799 33.1981,277.6269 32.3161,277.9319 C32.0371,278.0529 31.8291,278.2489 31.6631,278.4909 C31.6111,278.3889 31.5491,278.2919 31.4681,278.2009 C29.2551,276.8299 26.8631,276.3459 24.2921,276.7469 C24.1571,276.7939 24.0191,276.8219 23.8811,276.8589 C23.6271,276.5599 23.3731,276.2609 23.1191,275.9609 C22.6401,274.8739 21.6841,274.6859 20.6511,274.6499 C20.3161,274.7109 20.0201,274.8529 19.7601,275.0699 C19.5761,275.3529 19.4501,275.6599 19.3981,275.9949 C19.5861,276.6899 19.3661,277.6289 20.3661,277.8309 C20.0611,278.1439 19.8761,278.5399 19.7651,278.9859 C19.7361,279.3019 19.8201,279.5809 20.0201,279.8249 C22.4251,279.6729 23.3691,282.1489 25.3321,282.7899 C25.3351,282.9549 25.3711,283.1119 25.4381,283.2609 C27.0741,282.9859 26.3891,284.9899 27.4321,285.2979 C27.6661,285.0239 27.9001,284.7509 28.1341,284.4769 C28.3701,284.5629 28.6051,284.6489 28.8401,284.7349 C29.0191,284.8709 29.1541,285.0419 29.2461,285.2469 C29.2461,285.2469 29.5761,285.2399 29.5761,285.2399 L29.8921,285.2729 L30.1991,285.1899 C32.4751,285.2599 34.6491,286.3539 36.9811,285.8649 L38.3581,286.0879 C38.5871,286.0919 38.8161,286.0969 39.0461,286.1009 L38.9841,285.8649 C39.7571,285.9539 40.5731,286.2199 41.1121,285.3449 C41.5231,285.3259 41.9331,285.3069 42.3441,285.2879 C43.1421,284.9109 44.1211,285.1919 44.8531,284.5809 C45.5631,284.0859 46.3021,283.6539 47.1531,283.4479 C47.3711,283.2539 47.5181,283.0169 47.6001,282.7359 C47.6351,282.4579 47.6371,282.1849 47.5941,281.9069 C47.4571,281.1419 47.9691,280.6579 48.3431,280.1169 C48.5611,279.7929 48.7141,279.4449 48.7461,279.0559 C48.8171,279.0699 48.8881,279.0829 48.9591,279.0969 C49.2791,278.9799 49.5731,278.8159 49.8351,278.5979 C50.6991,277.6079 50.7561,276.4289 50.6201,275.2059 C50.4651,274.3589 50.2081,273.5439 49.8351,272.7699 C49.5351,272.2229 49.1611,271.7639 48.5751,271.5479 C48.7991,271.3809 48.9821,271.1789 49.0871,270.9069 C49.0781,270.8439 49.0741,270.7779 49.0671,270.7139 L49.7561,270.2989 C50.1051,268.9509 49.2941,267.4109 50.4311,266.1929 C51.4581,264.5149 51.4721,263.1379 49.6111,262.3149 C49.6631,262.0889 49.6811,261.8599 49.6781,261.6289 C50.1001,261.6109 50.3431,261.2879 50.4921,260.8059 C49.8201,259.8909 50.7121,258.9719 50.4851,258.0559 L50.6111,258.1359 C51.4391,257.1299 52.2511,256.1169 51.8331,254.6699 C51.8121,254.2259 51.7901,253.7819 51.7681,253.3369 C52.5781,252.2079 50.0901,250.9529 51.9011,249.8639 C52.1361,249.6419 52.1911,249.3829 52.0671,249.0859 C51.9271,248.7679 51.7161,248.5259 51.4381,248.3559 C52.2571,247.7659 52.2781,246.6429 52.8291,245.8769 C52.8461,245.2279 52.6221,244.7629 52.0561,244.5539 C52.1211,244.5139 52.1851,244.4699 52.2451,244.4169 C52.7861,243.7439 53.0491,242.9469 53.2461,242.1219 C53.3951,241.2239 53.2491,240.4069 52.6051,239.7209 C52.4651,239.5429 52.3731,239.3429 52.3291,239.1209 C52.8901,237.7189 53.0911,236.3309 52.1451,234.9959 C52.1401,234.9919 52.1341,234.9909 52.1291,234.9869 C52.2861,234.9819 52.4441,234.9739 52.6011,234.9579 C53.1831,233.4979 52.9401,232.0369 52.6781,230.5759 C53.2651,230.5329 53.7371,230.2569 54.1021,229.7609 C54.2471,229.4469 54.2251,229.1429 54.0581,228.8449 C54.0241,228.6199 53.9901,228.3959 53.9561,228.1709 C53.7871,227.8839 53.5711,227.8429 53.3091,228.0489 C51.5131,227.2579 53.2821,226.2919 53.1811,225.4179 C52.9701,224.5179 52.7591,223.6169 52.5491,222.7169 C52.5051,221.8329 52.4611,220.9489 52.4171,220.0639 C52.2371,220.1559 52.0731,220.1329 51.9241,219.9949 C51.5951,219.6309 51.3591,219.0429 50.7871,219.2629 C50.7361,219.1849 50.6901,219.1049 50.6301,219.0319 C50.2391,218.6969 49.8061,218.4669 49.3091,218.3949 C49.5491,218.0329 49.5341,217.6639 49.1501,217.2859 C48.6621,217.1949 48.0521,217.3969 47.8081,216.7219 C46.2191,216.2769 44.6301,215.8309 43.0421,215.3859 L43.1301,215.1269 C42.2121,215.1559 41.2941,215.1839 40.3771,215.2129 C39.6951,215.1759 39.0131,215.1379 38.3311,215.1009 C37.8971,215.4109 37.4631,215.7209 37.0291,216.0319 C36.3361,216.2609 35.6441,216.4889 34.9511,216.7179 C34.7191,216.6449 34.4881,216.5729 34.2561,216.5009 C32.8191,216.3729 32.7511,217.4129 32.6381,218.4099 C32.6541,218.4639 32.6821,218.5119 32.7021,218.5649 C32.3161,218.5439 31.9301,218.5239 31.5441,218.5039 C31.3031,218.7419 31.0621,218.9799 30.8201,219.2179 C29.9191,219.5089 29.0181,219.7999 28.1171,220.0909 L28.1801,219.8709 C27.4801,220.5809 26.7801,221.2899 26.0801,221.9999 L26.0491,221.9549 C25.8421,222.0219 25.6441,222.0029 25.4541,221.8949 C24.8511,222.0689 24.4161,222.7099 23.7471,222.7029 C23.7091,222.6969 23.6671,222.6969 23.6271,222.6919 C23.5501,222.6819 23.4731,222.6729 23.3891,222.6439 C23.3791,222.6539 23.3661,222.6569 23.3551,222.6659 C23.1881,222.6599 23.0171,222.6659 22.8371,222.6919 C21.5061,222.5379 20.4091,223.1729 19.2931,223.7419 C18.8391,223.8319 18.3981,223.9619 17.9841,224.1729 C17.7311,224.3469 17.4991,224.5449 17.2871,224.7669 C17.2861,224.8219 17.2711,224.8749 17.2671,224.9289 C17.2421,224.9249 17.2211,224.9119 17.1961,224.9079 C16.6911,224.8919 16.2701,225.0739 15.9311,225.4479 C15.1651,225.6779 14.3981,225.9069 13.6331,226.1359 C13.5211,226.0609 13.4131,225.9819 13.2951,225.9139 C12.9741,225.8259 12.7311,225.9269 12.5691,226.2189 C11.8591,227.9329 10.2161,229.5239 11.8661,231.5509 C11.9941,231.9479 12.2401,232.2709 12.5131,232.5779 C12.8421,233.0159 13.0041,233.5409 13.2081,234.0449 C13.2321,234.3449 13.2571,234.6449 13.2821,234.9449 C13.4721,234.9639 13.6541,235.0129 13.8281,235.0909 L13.8281,235.0919 C13.7941,235.2129 13.8011,235.3299 13.8251,235.4459 C13.2951,235.5379 12.8801,235.8139 12.6221,236.3399 C12.6081,237.6579 12.5951,238.9749 12.5821,240.2929 C12.7771,240.3249 12.9661,240.3799 13.1481,240.4579 C13.1201,241.5439 13.8511,242.3189 14.2831,243.2149 C14.2651,243.2269 14.2491,243.2409 14.2301,243.2529 C13.4571,243.6739 13.5841,244.5629 13.2261,245.1979 C13.1731,245.8619 13.1191,246.5259 13.0651,247.1909 C12.7611,247.8569 12.7991,248.4449 13.4571,248.8899 C13.5511,248.9299 13.6481,248.9599 13.7461,248.9909 C13.7521,249.7609 13.7601,250.5309 13.7671,251.2999 C13.3451,251.6519 13.1521,252.1259 13.0611,252.6509 C12.9921,253.1709 12.9631,253.6909 13.0121,254.2129 C13.0431,254.5419 13.0981,254.8619 13.1941,255.1659 C13.1511,255.2479 13.1081,255.3309 13.0641,255.4129 C12.7621,255.8719 12.7861,256.3299 13.0691,256.7869 C13.1471,256.8349 13.2251,256.8689 13.3021,256.8909 C13.2491,257.0019 13.2321,257.1149 13.2531,257.2289 C13.2131,257.2399 13.1741,257.2449 13.1311,257.2639 C12.9571,257.5199 12.9261,257.7869 13.0641,258.0689 C13.0431,259.2089 13.0221,260.3489 13.0011,261.4899 C13.1041,261.7169 13.2081,261.9449 13.3111,262.1719 C13.3311,262.5689 13.3521,262.9659 13.3731,263.3629 C12.9501,263.4709 12.7171,263.7719 12.6491,264.2389 C12.7301,265.6519 11.4521,266.8099 11.8931,268.2899 C11.6881,268.4029 11.6541,268.5539 11.7911,268.7439 C10.6641,268.7079 10.3431,269.3349 10.4831,270.3399 C10.3201,270.4039 10.1521,270.4229 9.9801,270.3949 C8.7341,271.9179 7.8231,273.6709 6.6551,275.2459 C6.1091,276.3209 5.1131,277.1839 5.1431,278.5259 C4.1271,279.5909 3.1071,280.6509 1.7201,281.2469 C1.6581,281.4629 1.6491,281.6809 1.6941,281.9009 C2.1671,282.3499 2.6411,282.7989 3.1141,283.2469" id="Fill-5" fill="#252525"></path>
                <g id="编组" transform="translate(9.727858, 360.905565)">
                    <mask id="mask-4" fill="white">
                        <use xlink:href="#path-3"></use>
                    </mask>
                    <g id="Clip-8"></g>
                    <path d="M26.5530422,23.2328351 C25.4390422,23.8738351 24.4210422,24.7118351 23.0950422,24.9128351 C22.6810422,24.9978351 22.2700422,25.0868351 21.8600422,25.1918351 C21.1790422,25.3588351 20.5690422,25.2518351 20.0190422,24.9158351 C20.5050422,24.5258351 20.5620422,23.6968351 20.9870422,23.2438351 C21.4490422,22.7068351 22.0740422,22.4518351 22.7140422,22.2238351 C23.4000422,21.9738351 24.1090422,21.7928351 24.7990422,21.5528351 C25.6890422,21.1728351 26.6940422,20.9848351 27.4130422,20.3198351 C28.2490422,21.5448351 28.0320422,22.5318351 26.5530422,23.2328351 M27.1800422,13.7498351 C26.6940422,13.7228351 26.2450422,13.8278351 25.8530422,14.1318351 C25.8230422,14.1818351 25.8000422,14.2298351 25.7710422,14.2798351 C25.6780422,14.2098351 25.5850422,14.1388351 25.4920422,14.0708351 C23.9490422,14.0338351 22.5770422,14.7788351 21.0990422,15.0488351 C20.9900422,14.4738351 20.7360422,13.9228351 20.7250422,13.3298351 C20.6310422,12.4268351 21.0230422,11.7928351 21.7960422,11.3718351 C22.4740422,10.8818351 23.1450422,10.3828351 23.4570422,9.5848351 C23.5970422,9.6638351 23.7570422,9.7018351 23.9390422,9.6858351 C24.6640422,9.4518351 25.2180422,8.9408351 25.8130422,8.5008351 C26.3360422,8.1258351 26.8360422,7.7358351 27.1690422,7.2278351 C27.2080422,7.8738351 27.3870422,8.4948351 27.7160422,9.0878351 C28.5250422,10.3838351 28.7070422,11.6638351 27.6090422,12.9058351 C27.4040422,13.1688351 27.2240422,13.4368351 27.1900422,13.7528351 C27.1870422,13.7518351 27.1840422,13.7508351 27.1800422,13.7498351 M38.1940422,28.2808351 C38.0270422,26.5928351 37.2680422,25.0058351 37.3680422,23.2788351 C37.3720422,22.9688351 37.3590422,22.6608351 37.3140422,22.3538351 C37.2520422,22.0468351 37.1520422,21.7558351 36.9930422,21.4858351 C36.9260422,21.3998351 36.8510422,21.3278351 36.7780422,21.2528351 C36.8730422,20.6818351 36.7780422,20.0428351 37.3830422,19.6578351 C37.6360422,19.4518351 37.8020422,19.1868351 37.8880422,18.8738351 C37.9800422,17.9148351 37.6490422,16.9798351 37.7290422,16.0238351 C37.4440422,14.9898351 38.7490422,13.4778351 36.9130422,12.9118351 C37.0140422,12.6818351 37.0760422,12.4418351 37.0680422,12.1838351 C37.0470422,12.1288351 37.0270422,12.0728351 37.0060422,12.0168351 C37.1410422,11.8538351 37.2780422,11.6908351 37.4130422,11.5268351 C36.3190422,10.9228351 36.8430422,9.4518351 36.3160422,8.5438351 C36.3240422,8.4808351 36.3240422,8.4188351 36.3350422,8.3548351 C36.3700422,7.8298351 36.4430422,7.3058351 36.4330422,6.7798351 C36.7730422,6.8118351 36.9920422,6.5308351 37.1940422,6.2088351 C37.3640422,5.7458351 37.3730422,5.2768351 37.2430422,4.8028351 C36.8030422,4.1378351 36.8210422,3.3208351 36.5030422,2.6158351 C36.2710422,2.2088351 35.9670422,1.8678351 35.5890422,1.5908351 C34.5700422,0.919835102 33.4050422,0.589835102 32.2780422,0.181835102 C31.9850422,0.0948351018 31.6850422,0.0308351018 31.3810422,0.00483510184 C30.2540422,-0.0431648982 29.2280422,0.267835102 28.2810422,0.865835102 C28.0420422,1.0758351 27.8700422,1.3288351 27.7790422,1.6348351 C27.7830422,1.6438351 27.7860422,1.6538351 27.7900422,1.6638351 C27.7400422,1.6878351 27.6890422,1.7128351 27.6370422,1.7378351 C27.1610422,1.4028351 26.6340422,1.2628351 26.0320422,1.4098351 C25.7480422,1.5288351 25.4820422,1.6778351 25.2320422,1.8548351 C25.2190422,1.8468351 25.2060422,1.8418351 25.1930422,1.8348351 C24.3050422,1.8318351 23.7660422,2.1738351 23.8150422,3.1038351 C23.5110422,3.0738351 23.2220422,3.1288351 22.9560422,3.2798351 C22.8330422,3.4048351 22.7260422,3.5418351 22.6290422,3.6848351 C21.7470422,3.3168351 21.0180422,3.6108351 20.4480422,4.5898351 C20.2200422,4.7068351 19.9930422,4.8228351 19.7660422,4.9388351 C19.5740422,4.9298351 19.3800422,4.9268351 19.1820422,4.9308351 C18.8680422,4.9968351 18.5970422,5.1438351 18.3660422,5.3668351 C18.2220422,5.9838351 17.6360422,5.8788351 17.2280422,6.0638351 C17.2160422,6.0268351 17.2070422,5.9928351 17.1950422,5.9538351 C16.6800422,5.6768351 16.1890422,5.6918351 15.7280422,6.0738351 C15.0130422,6.9858351 14.4700422,8.1228351 13.0620422,8.1328351 C13.0610422,9.0298351 13.0590422,9.9258351 13.0580422,10.8228351 C12.9740422,11.0478351 12.8910422,11.2738351 12.8070422,11.4998351 C12.8960422,11.9558351 12.9860422,12.4118351 13.0750422,12.8688351 C12.9790422,14.8838351 12.8840422,16.9008351 12.7890422,18.9178351 C12.1450422,19.2018351 12.3820422,19.8698351 12.1700422,20.3418351 C11.7960422,21.1208351 12.2610422,21.7288351 12.5420422,22.3738351 C12.5250422,22.4028351 12.5060422,22.4238351 12.4890422,22.4618351 C12.4630422,22.6828351 12.3890422,22.8868351 12.2690422,23.0738351 C12.3140422,24.5618351 12.3600422,26.0498351 12.4060422,27.5388351 C12.2310422,27.7218351 12.0140422,27.8978351 11.7290422,28.0628351 C10.4610422,30.3028351 10.3530422,32.8858351 9.60704217,35.2808351 C9.45704217,36.0788351 9.38804217,36.8718351 9.76104217,37.6458351 C9.80204217,37.9088351 10.0480422,38.0098351 10.2600422,38.0988351 L9.87904217,38.4948351 C9.72004217,38.4658351 9.55804217,38.4398351 9.42504217,38.4448351 C8.42504217,38.5918351 8.69804217,39.6158351 8.26004217,40.1498351 C8.70704217,41.8328351 6.65104217,42.5768351 6.77204217,44.1358351 C5.43704217,43.6838351 5.76904217,45.4028351 4.91204217,45.5718351 C3.95804217,45.8808351 3.11204217,46.3618351 2.44404217,47.1258351 C1.90704217,47.7538351 1.36704217,48.3778351 0.767042172,48.9448351 C-0.106957828,49.9358351 -0.0749578277,51.1078351 0.0970421723,52.3078351 C0.356042172,52.5318351 0.615042172,52.7538351 0.874042172,52.9768351 C2.49504217,54.4558351 4.36104217,53.3618351 6.11204217,53.4778351 C6.13904217,53.3298351 6.18204217,53.1848351 6.23904217,53.0448351 C6.66904217,53.0138351 7.09804217,52.9828351 7.52804217,52.9518351 C7.74304217,52.2658351 8.35204217,52.3998351 8.85404217,52.3108351 C9.11404217,51.9058351 9.37304217,51.5008351 9.63304217,51.0948351 C10.8330422,51.1748351 10.8280422,49.1958351 12.2080422,49.5818351 C12.2080422,49.3618351 12.2420422,49.1458351 12.3100422,48.9368351 C12.4880422,48.9138351 12.6660422,48.8918351 12.8450422,48.8718351 C13.3840422,48.6098351 13.7080422,48.2078351 13.6910422,47.5798351 C13.7180422,46.8448351 14.6190422,46.3638351 14.2840422,45.5238351 L15.0530422,42.8808351 C15.3060422,42.6318351 15.5580422,42.3838351 15.8100422,42.1358351 C15.7040422,41.3578351 15.9570422,40.6938351 16.4490422,40.1048351 C17.4330422,39.3928351 18.2860422,38.5928351 18.3590422,37.2648351 C18.3910422,37.0768351 18.4040422,36.8858351 18.3950422,36.6938351 C18.3650422,36.5188351 18.2990422,36.3808351 18.2060422,36.2708351 C18.7810422,35.5808351 19.4550422,34.9888351 20.0970422,34.3628351 C20.8510422,33.4948351 21.7050422,32.8188351 22.9410422,32.8878351 C24.5650422,32.8178351 26.2070422,32.7198351 27.2090422,34.4138351 C28.5950422,36.2088351 27.9190422,38.1878351 27.7160422,40.1268351 C27.6760422,41.3598351 27.9420422,42.5468351 28.2390422,43.7358351 C28.3660422,44.7238351 27.7610422,45.2378351 27.0150422,45.6658351 C26.5180422,45.9478351 25.9950422,46.1838351 25.4820422,46.4398351 C25.1640422,46.6338351 24.8460422,46.7818351 24.5300422,46.9078351 C23.8480422,46.3428351 23.1730422,46.3358351 22.5040422,46.9338351 C21.9880422,46.9538351 21.4720422,46.9738351 20.9570422,46.9948351 C20.5000422,46.8398351 20.0430422,46.6308351 19.5880422,46.3618351 C18.9230422,46.2218351 18.3030422,46.3188351 17.7470422,46.7308351 C16.2180422,46.7458351 16.3760422,47.8078351 16.4540422,48.8208351 C16.6750422,48.8598351 16.8830422,48.9308351 17.0800422,49.0358351 C18.5240422,49.2748351 19.1140422,50.4678351 19.8340422,51.5138351 C21.1170422,51.1258351 21.9210422,51.4128351 21.8440422,52.9438351 C24.7530422,53.5048351 27.6020422,54.6528351 30.6530422,53.8738351 L34.0540422,53.1618351 C34.5310422,52.6618351 35.0070422,52.1628351 35.4830422,51.6628351 C35.4470422,50.9148351 36.4430422,50.4768351 36.0910422,49.6338351 C36.2610422,49.5148351 36.4420422,49.4148351 36.6320422,49.3328351 C36.5370422,49.1578351 36.5780422,49.0268351 36.7560422,48.9388351 C37.2590422,48.0348351 37.2700422,47.1228351 36.8040422,46.2018351 C36.6220422,46.1768351 36.4390422,46.1568351 36.2550422,46.1428351 L35.9880422,44.8448351 C36.0580422,44.6198351 36.1290422,44.3938351 36.1990422,44.1678351 C36.1610422,43.9348351 36.1220422,43.7018351 36.0890422,43.4688351 C36.1230422,42.8328351 36.1430422,42.1938351 36.1560422,41.5538351 C36.2490422,41.2768351 36.3920422,41.0038351 36.6040422,40.7408351 C36.3980422,40.4118351 36.2690422,40.0728351 36.1880422,39.7278351 C36.2000422,38.9298351 36.2170422,38.1308351 36.2560422,37.3348351 C36.8150422,36.7888351 36.9540422,36.0748351 37.0160422,35.3328351 C37.0170422,34.6638351 36.9840422,34.0058351 36.7300422,33.4108351 C36.7610422,33.2658351 36.7800422,33.1198351 36.8140422,32.9748351 C37.7730422,31.5588351 38.1740422,29.9768351 38.1940422,28.2808351" id="Fill-7" fill="#252525" mask="url(#mask-4)"></path>
                </g>
                <path d="M22.8392,152.7061 C22.8142,152.6451 22.7762,152.5961 22.7302,152.5541 C22.8662,152.5501 23.0012,152.5481 23.1372,152.5461 C23.0352,152.5891 22.9362,152.6421 22.8392,152.7061 M13.2962,149.1731 C13.2962,149.1731 13.2222,149.1791 13.2222,149.1791 C13.3792,149.3501 13.5662,149.4711 13.7672,149.5701 C13.7002,149.7811 13.5062,149.8851 13.2262,149.9161 C13.2572,150.3531 13.2892,150.7901 13.3202,151.2271 C13.9202,151.1981 14.3982,151.3981 14.6822,151.9601 C14.6142,152.1861 14.5462,152.4111 14.4782,152.6371 C14.5772,152.8331 14.6152,153.0391 14.5912,153.2571 C14.8232,153.4911 15.0542,153.7241 15.2862,153.9581 C15.2102,154.3831 15.4402,154.5891 15.8112,154.6951 C16.3732,155.5131 16.8322,156.3581 16.4822,157.4021 C16.6062,157.7651 16.7852,158.0551 17.2392,157.9901 C17.3812,157.9681 17.5222,157.9461 17.6642,157.9231 C17.7202,157.9011 17.7762,157.8791 17.8322,157.8561 C17.8732,157.9201 17.9382,157.9771 18.0292,158.0271 L18.0322,157.9681 C18.6662,158.0121 19.3002,158.0561 19.9352,158.1001 C20.1762,158.5491 20.4182,158.9991 20.6602,159.4481 C21.3392,159.3971 22.0182,159.3451 22.6972,159.2941 C23.6602,159.1371 24.2122,157.8021 25.4172,158.3441 C25.3732,157.1481 25.5862,155.9961 26.0002,154.8771 C26.3252,153.8991 25.7422,152.8921 26.0972,151.9161 L26.0512,151.8961 C26.1172,151.8961 26.1862,151.8301 26.2572,151.7001 C26.2982,151.6251 26.2972,151.5461 26.2612,151.4641 C26.7082,151.2441 27.0452,150.9111 27.2692,150.4631 C27.3872,150.1521 27.4652,149.8311 27.4872,149.4981 C27.4692,148.9321 27.3862,148.3991 26.9752,148.0221 C27.8592,147.6201 28.3612,146.9261 28.5192,145.9661 C28.4612,145.0961 28.5232,144.2451 28.8442,143.4291 C28.9722,142.8661 29.2132,142.2951 28.7002,141.7871 C28.5352,141.7661 28.3732,141.7331 28.2122,141.6881 C28.3522,141.1421 28.4922,140.5951 28.6312,140.0491 C28.7862,139.9561 28.9342,139.8471 29.0652,139.7031 C29.4562,138.9611 29.3072,138.2861 28.8192,137.6511 C28.6832,137.6491 28.5472,137.6421 28.4122,137.6361 C28.5702,137.3071 28.6052,136.9511 28.5232,136.5701 C28.5012,136.5071 28.4622,136.4621 28.4312,136.4081 C29.0532,136.7441 29.4462,136.4931 29.6442,135.7401 C29.6002,135.6801 29.5522,135.6351 29.5032,135.5931 C30.0902,135.7921 30.2892,135.5801 30.1592,135.0231 C30.3162,134.9301 30.4732,134.8371 30.6352,134.7511 C31.1522,134.4681 31.6012,134.1151 31.8392,133.5511 C31.8762,133.3861 31.8902,133.2191 31.8902,133.0531 C32.0742,133.1091 32.2632,133.0781 32.4552,132.9441 C32.6072,132.7491 32.7162,132.5321 32.8032,132.3041 C33.0652,132.4171 33.3272,132.5361 33.5772,132.2041 C33.9142,131.8481 33.9792,131.4891 33.7872,131.1301 C34.8362,131.0581 35.2652,130.2981 35.5962,129.4291 L35.5402,129.4491 C35.3632,129.1071 35.1852,128.7641 35.0072,128.4211 C35.0562,128.3481 35.1072,128.2801 35.1522,128.1981 C35.4112,126.8091 34.0252,126.3691 33.5472,125.4061 L33.5562,125.4501 C33.1022,125.3961 32.6482,125.3411 32.1952,125.2871 L32.2532,125.5331 C31.5662,125.4421 30.8782,125.3501 30.1902,125.2581 C29.8642,125.4761 29.5382,125.6931 29.2112,125.9101 C29.1622,125.8961 29.1172,125.8741 29.0662,125.8611 C28.7542,125.8301 28.4762,125.9051 28.2332,126.1061 C28.0102,126.3331 27.7862,126.5601 27.5622,126.7871 C27.4362,127.4571 27.3102,128.1281 27.1842,128.7981 C26.7002,128.7861 26.5932,129.0301 26.7422,129.4481 C26.6852,129.6671 26.6272,129.8861 26.5702,130.1051 L26.3592,130.0341 L26.3582,130.0341 C26.1942,129.5851 25.8782,129.4261 25.4192,129.5391 C25.1952,129.5201 24.9712,129.5001 24.7472,129.4801 C24.7522,129.6111 24.7412,129.7381 24.7202,129.8661 C24.6122,129.8761 24.5032,129.8831 24.3952,129.9001 C23.9032,130.1151 23.6042,130.5041 23.4262,130.9981 C23.4152,131.0381 23.4112,131.0791 23.4002,131.1201 C23.1672,131.2371 22.9342,131.3551 22.7002,131.4731 C22.3042,132.3521 21.7082,133.1861 22.0642,134.2381 C21.9072,134.4001 21.8512,134.5901 21.8932,134.8111 C21.2932,135.0901 20.6932,135.3681 20.0932,135.6471 C19.9362,136.1501 19.9772,136.7721 19.3002,136.9581 C19.2372,137.0721 19.1972,137.1961 19.1502,137.3171 C19.1412,137.3161 19.1352,137.3131 19.1252,137.3131 C18.1752,137.5091 17.6022,138.1321 17.2362,138.9911 C17.0272,139.4531 16.8172,139.9151 16.6082,140.3781 C16.1662,140.8631 15.7242,141.3501 15.2822,141.8361 C15.3022,142.0401 15.2612,142.2311 15.1592,142.4091 C14.7252,142.9931 14.5862,143.6161 14.9152,144.2991 C14.9682,144.3711 15.0262,144.4351 15.0872,144.4931 C14.2382,144.9381 14.6662,145.8061 14.5162,146.4831 C14.3472,146.5191 14.1772,146.5531 14.0062,146.5851 C14.2092,147.5691 12.7422,148.0921 13.2962,149.1731" id="Fill-9" fill="#252525"></path>
                <path d="M80.7409,267.3391 C80.1919,267.7981 79.7089,268.3171 79.3109,268.9131 C79.1599,269.1531 79.0219,269.3991 78.9079,269.6591 C78.5639,270.8131 77.3999,270.7781 76.5979,271.2721 C76.3789,271.4111 76.1789,271.5731 75.9979,271.7591 C75.8549,271.6081 75.6759,271.4961 75.4309,271.4541 C75.1349,271.4731 74.8519,271.5411 74.5839,271.6691 C73.7869,272.2381 72.8139,272.3751 71.9309,272.7291 C72.3659,272.2411 72.4979,271.6171 72.5449,270.9561 C72.6109,269.6171 72.6509,268.2791 72.4369,266.9491 C72.3209,266.5271 72.1599,266.1371 71.8599,265.8431 C71.9169,265.8151 71.9739,265.7921 72.0299,265.7581 C72.7649,265.1921 73.2199,264.4961 73.1509,263.5571 L73.3509,263.5451 L73.6529,263.6161 C74.1009,263.6131 74.5499,263.6101 74.9979,263.6071 C75.3639,263.5391 75.7289,263.4711 76.0949,263.4041 C76.1779,263.4901 76.2609,263.5761 76.3429,263.6621 C77.0349,263.1791 77.7279,262.6971 78.4209,262.2141 C79.3159,262.2191 80.2099,262.2251 81.1049,262.2311 C81.1079,262.2601 81.1159,262.2891 81.1189,262.3181 C81.0709,262.3391 81.0199,262.3541 80.9729,262.3781 C80.0519,262.9181 80.2269,263.7051 80.5009,264.5111 C80.8749,265.3181 80.9699,266.2281 81.4139,267.0061 C81.1739,267.0691 80.9489,267.1811 80.7409,267.3391 L80.7409,267.3391 Z M78.1509,235.8451 C81.5489,235.5911 81.7119,235.5801 81.7070031,238.6651 C80.4299,238.6031 79.2939,239.1101 78.1969,239.7751 C78.0159,240.1421 77.9979,240.5161 78.0959,240.8941 C77.5139,240.9161 76.9319,240.9381 76.3489,240.9591 C75.3579,240.8811 74.7579,242.1811 73.6589,241.7261 C73.4899,241.8241 73.3069,241.8771 73.1129,241.8921 C73.0429,241.8331 72.9729,241.7781 72.9019,241.7121 C72.7639,241.7161 72.6269,241.7211 72.4909,241.7301 C72.1259,241.6491 71.7759,241.5451 71.6289,241.0801 C71.3669,240.8451 71.1049,240.6101 70.8429,240.3761 C70.6249,239.2461 70.4079,238.1161 70.1899,236.9861 C70.2519,236.7091 70.3149,236.4321 70.3769,236.1541 C70.3899,236.1561 70.4019,236.1621 70.4159,236.1641 C71.5579,236.1831 72.6749,235.9031 73.8139,235.9051 C75.2599,235.8661 76.7079,235.9531 78.1509,235.8451 L78.1509,235.8451 Z M96.0259,251.4331 C96.0529,251.3751 96.0819,251.3201 96.1059,251.2591 L96.1059,251.2581 L96.1059,251.2581 C96.1579,251.3081 96.1889,251.3611 96.2329,251.4121 C96.1649,251.4211 96.0929,251.4231 96.0259,251.4331 L96.0259,251.4331 Z M81.8069,249.1051 C81.8129,249.1351 81.8219,249.1651 81.8259,249.1961 C81.9949,249.3541 82.1639,249.5121 82.3329,249.6701 C82.2669,249.7651 82.1999,249.8591 82.1339,249.9531 C81.9269,250.3771 81.8469,250.8281 81.8959,251.3011 C81.9599,251.6191 82.0759,251.9161 82.2519,252.1891 C82.2649,252.2001 82.2799,252.2101 82.2929,252.2211 C81.2339,253.6561 81.0419,253.7281 78.7989,254.2101 C78.2569,254.5911 77.9779,255.0801 78.1019,255.7341 C77.5699,255.2131 76.9679,254.8411 76.1449,254.9451 C75.5799,255.0761 75.1279,255.3591 74.7919,255.7981 C74.4959,255.4641 74.0769,255.2941 73.6569,255.1241 C72.6879,254.7841 72.5989,253.9021 72.3959,253.0911 C72.2839,252.6501 72.1059,252.2401 71.7869,251.9031 C72.2909,251.7401 72.5099,251.2971 72.6209,250.7531 C72.5939,250.1311 72.4759,249.5471 72.1369,249.0491 C72.5629,248.9561 72.9809,248.8371 73.3899,248.6851 C73.7909,248.5381 74.1689,248.3501 74.5119,248.0941 C75.0919,248.9921 76.0059,249.2561 77.0689,249.2341 C77.6279,249.1371 78.1019,248.9211 78.3439,248.3611 C78.3419,248.3461 78.3449,248.3321 78.3439,248.3171 C78.3869,248.3411 78.4299,248.3671 78.4739,248.3881 C78.6919,248.4041 78.8969,248.3821 79.0909,248.3281 C79.2009,248.4331 79.3149,248.5361 79.4489,248.6341 C80.1179,249.1361 80.8609,249.3251 81.6909,249.1511 C81.7319,249.1381 81.7679,249.1201 81.8069,249.1051 L81.8069,249.1051 Z M82.4569,260.3591 C82.3619,260.3011 82.2829,260.2281 82.2229,260.1321 L82.4789,260.1311 C82.4569,260.2211 82.4609,260.2861 82.4569,260.3591 L82.4569,260.3591 Z M103.6609,272.6411 C103.8619,272.6001 104.0519,272.5311 104.2319,272.4341 C104.1779,271.5281 104.1229,270.6221 104.0689,269.7161 C103.6659,269.7221 103.2629,269.7271 102.8609,269.7321 C102.3259,269.6321 101.6179,269.8481 101.5049,268.9821 C101.7169,268.7961 101.9279,268.6101 102.1399,268.4241 C101.4749,268.3881 100.8109,268.3521 100.1459,268.3161 C100.1199,268.4981 100.0849,268.6771 100.0389,268.8551 L100.0389,268.8551 L100.0389,268.8551 L100.0679,268.8881 C99.8819,268.8021 99.6809,268.7771 99.4599,268.8301 C99.0049,269.0531 98.5499,269.2761 98.0949,269.5001 C98.0939,269.4981 98.0939,269.4961 98.0929,269.4931 C97.6379,269.2321 97.1869,269.2341 96.7389,269.5121 C94.8949,269.7621 93.0469,270.0601 91.3359,268.9731 C91.2969,268.7951 91.2679,268.6161 91.2509,268.4351 C90.6029,267.4671 89.3389,266.8691 89.4509,265.4441 C89.3639,265.0131 89.2299,264.5961 89.0279,264.2031 C89.0739,264.2021 89.1189,264.1931 89.1649,264.1941 C89.3849,264.0381 89.5289,263.8291 89.5979,263.5681 C89.6349,263.2981 89.5679,263.0591 89.3819,262.8561 C88.2829,261.5191 89.8719,260.5891 90.0379,259.4441 C90.0849,259.4321 90.1269,259.4131 90.1779,259.4051 C90.5859,259.3221 90.9609,259.1581 91.3049,258.9201 C91.9519,258.5451 92.9609,259.1721 93.3799,258.1671 C93.5899,258.0941 93.8059,258.0651 94.0279,258.0811 C94.7229,257.4041 95.4179,256.7271 96.1139,256.0491 C96.3329,255.6141 96.5529,255.1791 96.7719,254.7441 C97.7139,254.6381 98.2669,253.9571 98.8569,253.3311 C98.8069,252.9411 98.7579,252.5511 98.7089,252.1611 C98.1859,251.3031 98.3369,249.9121 96.9359,249.7501 C97.1249,249.5481 97.0379,249.3911 96.6659,249.2801 C96.1489,249.2941 95.5549,249.1391 95.3659,249.8731 C94.3399,250.0701 93.4059,249.9261 92.6449,249.1381 L92.7209,249.4591 C92.4909,249.3941 92.2609,249.3291 92.0299,249.2641 C90.7559,249.7221 90.2269,248.7871 89.6299,247.9781 C89.3999,247.3371 89.3419,246.6311 88.9239,246.0631 L89.1079,246.0891 L89.3359,245.8751 C89.5529,245.5791 89.7689,245.2831 89.9859,244.9871 C90.2989,244.8301 90.6239,244.6971 90.9759,244.6211 C91.8069,244.3191 92.3719,243.7731 92.5769,242.8901 C93.0339,242.2831 93.4919,241.6771 93.9499,241.0701 C94.2269,240.4341 94.8769,240.5331 95.3809,240.3441 L96.0539,240.6311 C96.4379,240.3071 96.8239,239.9841 97.2079,239.6601 C96.7619,239.0621 97.7879,238.1461 96.7799,237.6691 C96.7349,237.4511 96.6899,237.2331 96.6449,237.0151 C97.1539,235.7501 96.0159,235.1501 95.5459,234.2801 C95.3939,234.1381 95.3129,233.9631 95.3019,233.7551 C94.3139,233.2411 93.6609,233.6781 93.1499,234.5211 C93.2149,234.6421 93.2319,234.7531 93.2209,234.8591 C93.2139,234.8511 93.2099,234.8451 93.2019,234.8381 C93.0049,234.8891 92.8089,234.8821 92.6159,234.8161 C91.7949,234.4691 91.0969,234.6491 90.5119,235.3101 C90.4949,235.3551 90.4889,235.3901 90.4729,235.4331 C89.7619,233.9111 91.1819,232.4041 90.6779,230.8841 C90.6569,230.6641 90.6349,230.4441 90.6139,230.2251 C90.7629,230.2461 90.9159,230.2121 91.0729,230.1051 C92.0039,227.8771 94.9189,229.2811 96.0319,227.3861 C96.0369,227.1881 96.0539,226.9901 96.0819,226.7941 C97.0019,226.1181 97.3499,225.1391 97.5239,224.0671 C97.2129,223.5991 96.9019,223.1311 96.5899,222.6631 C96.6559,221.9511 96.7209,221.2391 96.7869,220.5271 C95.7189,219.9901 94.5709,219.9881 93.4179,220.0261 C93.1109,220.0701 93.0419,220.2221 93.2089,220.4831 C93.2199,220.4851 93.2269,220.4881 93.2379,220.4911 C93.2319,220.4941 93.2269,220.4981 93.2209,220.5011 C93.2209,220.4971 93.2209,220.4931 93.2199,220.4891 C92.3579,220.5221 91.4949,220.5541 90.6319,220.5871 C90.5089,220.4501 90.3819,220.3151 90.2549,220.1801 C90.8019,218.9701 90.4969,217.7701 89.9969,216.5721 C89.3339,216.0881 89.1909,214.9101 88.0289,215.0921 L88.0219,215.1151 C88.0119,214.4731 88.0029,213.8301 87.9929,213.1871 C87.9409,212.7871 87.8889,212.3861 87.8369,211.9851 C87.4419,211.8991 87.0469,211.8131 86.6509,211.7261 L85.8629,210.5281 C84.8669,210.4011 83.9639,210.6171 83.1769,211.2591 C82.9789,211.1541 82.7699,211.1251 82.5509,211.1721 C81.6229,211.4811 80.7659,211.8861 80.3079,212.8321 C80.1899,213.1321 80.1429,213.4421 80.1749,213.7631 C80.1869,213.8231 80.2129,213.8771 80.2279,213.9351 C80.2109,213.9811 80.1949,214.0281 80.1829,214.1031 C80.1609,214.2471 80.2369,214.3651 80.3999,214.4591 C80.4859,214.6621 80.5849,214.8581 80.6989,215.0491 C81.3659,216.0331 81.5699,217.2831 82.4779,218.1241 C82.4239,218.1931 82.3689,218.2621 82.3159,218.3311 C82.1839,219.3661 82.4279,220.3661 82.5949,221.3731 C82.5989,221.6301 82.6039,221.8871 82.6089,222.1431 C82.5069,222.2361 82.3979,222.3241 82.2749,222.4031 C81.8249,223.0001 81.5529,223.7041 81.1279,224.3151 C80.2349,225.6321 78.7699,226.0671 77.4409,226.7151 C76.9079,226.9971 76.3949,227.3131 75.8879,227.6421 C74.7319,228.4571 73.3749,228.5701 72.0409,228.7511 C71.9949,228.7601 71.9539,228.7771 71.9089,228.7881 C71.7789,228.5931 71.6499,228.3981 71.5199,228.2031 C71.5639,227.7021 71.3509,227.3061 71.0099,226.9651 C70.9859,226.9451 70.9609,226.9281 70.9369,226.9091 C70.9539,226.3461 70.8519,225.7461 71.4929,225.3781 C71.5339,225.1691 71.5789,224.9611 71.6269,224.7541 C71.7889,224.7071 71.9549,224.6871 72.1229,224.6931 C72.3379,224.2251 72.0329,224.1241 71.6769,224.0581 C72.0529,222.9371 73.5599,222.2841 73.0289,220.7871 C73.4599,220.7451 73.8899,220.7031 74.3199,220.6611 C74.4959,220.4121 74.6729,220.1631 74.8479,219.9141 C75.1729,219.7441 75.3829,219.4821 75.4789,219.1291 C75.5419,218.5961 75.4179,218.1251 75.0369,217.7401 C75.1619,217.3221 74.9359,217.0541 74.5629,216.8501 C75.7829,217.1061 76.3449,216.3311 76.7669,215.3421 C76.8839,214.8011 76.7849,214.3041 76.4779,213.8461 C76.4859,213.6281 76.4929,213.4091 76.5009,213.1901 C76.5869,212.6931 75.2819,212.3651 76.3259,211.7511 C77.3879,211.9851 77.8099,211.4021 77.9539,210.4671 C77.8869,210.2371 77.8209,210.0061 77.7539,209.7761 C77.2719,209.3471 76.7899,208.9181 76.3089,208.4891 L76.3089,208.4891 L76.3089,208.4891 L76.2639,208.2961 C76.2639,208.2961 76.4399,208.2041 76.4399,208.2051 L74.9899,206.3881 C74.7859,206.1411 74.5329,205.9701 74.2269,205.8741 C74.1859,205.8691 74.1459,205.8721 74.1049,205.8691 C73.7179,205.3891 73.3299,204.9091 72.9439,204.4291 C72.4179,204.4281 71.8869,204.4111 71.5819,204.9681 L71.6359,205.0601 L70.2629,204.2311 C70.0419,204.3111 69.8199,204.3911 69.5989,204.4711 C69.3869,204.3501 69.1689,204.3391 68.9469,204.4401 C68.6949,204.6791 68.4439,204.9191 68.1919,205.1581 L68.2489,204.9361 C67.7519,205.4091 67.2549,205.8821 66.7589,206.3551 C66.3329,207.1271 66.5519,207.6881 67.3169,208.0691 C67.3649,208.0801 67.4129,208.0831 67.4609,208.0901 C67.3859,208.2861 67.2019,208.3951 66.9409,208.4401 C68.6859,210.5601 67.3939,212.9481 67.5359,215.2101 C67.0539,215.6711 66.5719,216.1311 66.0889,216.5931 C66.0889,217.0271 66.0879,217.4621 66.0869,217.8961 C65.8449,218.1361 65.6019,218.3771 65.3599,218.6161 C65.0879,218.9981 64.8669,219.4011 64.8239,219.8811 C64.8969,220.2281 64.9169,220.5491 64.8839,220.8451 C64.6049,221.2351 64.3249,221.6241 64.0459,222.0131 C64.0569,222.0421 64.0619,222.0701 64.0689,222.0981 C63.9469,222.1691 63.8119,222.2331 63.6579,222.2881 C62.6829,222.8831 63.4769,224.0861 62.8069,224.7841 C62.7239,225.2991 62.7499,225.8751 62.0859,226.0601 C60.8999,226.2621 60.4689,227.1931 60.0739,228.1561 L59.9049,229.4471 C59.0399,229.1931 58.6859,230.0501 58.0529,230.3021 C57.8289,230.2871 57.6059,230.2731 57.3819,230.2581 C57.5069,231.2961 56.8849,231.5951 56.0129,231.6471 C54.7959,231.7481 54.9189,233.2161 54.0039,233.6251 C53.3429,233.8961 52.9269,234.3421 52.9499,235.1021 C53.0419,236.6801 54.0559,237.3381 55.4469,237.6201 C55.9229,237.5541 56.4679,237.6331 56.6849,237.0261 C56.9109,236.9831 57.1369,236.9401 57.3619,236.8971 C57.8749,236.9391 58.4619,237.1321 58.5429,236.3071 C58.7409,235.9221 58.5929,235.6941 58.2119,235.5701 C58.2179,235.4221 58.1829,235.2841 58.1069,235.1561 C59.3589,235.1231 60.6119,235.0891 61.8639,235.0561 C61.8459,235.3601 61.9069,235.6451 62.0659,235.9071 C62.3839,236.2601 62.7609,236.5131 63.1819,236.6891 C63.1009,236.8071 63.0309,236.9331 62.9839,237.0781 C62.8519,237.9471 63.1519,238.6291 63.8369,239.1441 C62.8059,239.8321 64.3299,240.4241 64.1359,241.0811 C63.5539,241.9911 63.4139,242.7951 64.6569,243.2681 C64.7039,243.2361 64.7409,243.2011 64.7849,243.1691 C64.7789,243.1921 64.7729,243.2151 64.7669,243.2391 C64.8129,244.2351 64.8599,245.2301 64.9069,246.2261 C64.7159,246.3481 64.5429,246.5131 64.3989,246.7431 C64.0429,247.7891 63.8479,248.8601 63.9049,249.9691 C63.9319,250.5111 64.0189,251.0341 64.2409,251.5151 C64.1219,252.2971 63.9999,253.0811 64.5959,253.7541 C64.5129,253.8561 64.4379,253.9661 64.3709,254.0871 C64.0829,254.7211 63.9929,255.3861 64.0599,256.0751 C64.1339,256.5901 64.3089,257.0551 64.7109,257.4091 C64.5589,258.3021 64.4079,259.1961 64.2559,260.0891 C64.2129,260.1721 64.1749,260.2561 64.1469,260.3381 C64.1449,260.4851 64.1419,260.6331 64.1379,260.7811 C64.1369,260.7921 64.1349,260.8021 64.1329,260.8121 C64.1349,260.8111 64.1369,260.8101 64.1379,260.8091 C64.1379,260.8171 64.1379,260.8251 64.1379,260.8331 C63.9799,260.7431 63.8069,260.6821 63.6149,260.6611 C63.3009,260.8191 63.0649,261.0571 62.9149,261.3781 C62.6519,262.0141 62.5879,262.6851 62.5659,263.3641 C62.5529,263.6961 62.5429,264.0261 62.5539,264.3581 C62.5469,264.8441 62.5409,265.3291 62.5489,265.8151 C62.5439,266.4511 62.5279,267.0861 62.5339,267.7221 C62.5399,268.8071 62.5029,269.8861 62.1759,270.9341 C61.7819,272.5121 62.1079,274.2611 61.0629,275.6831 C60.7839,276.0601 60.5779,276.4641 60.5919,276.9521 C60.7589,277.2281 60.9859,277.3061 61.2699,277.2051 C61.1989,277.2471 61.1289,277.2901 61.0579,277.3321 C60.2139,278.6291 60.8859,280.3731 59.8149,281.6031 C59.5929,282.0061 59.4109,282.4261 59.2829,282.8691 C59.1959,283.1611 59.1249,283.4561 59.0829,283.7591 C58.6189,285.1651 58.2919,286.6031 58.0469,288.0621 C57.7279,289.0921 58.2989,289.9031 58.7059,290.7551 C58.4309,290.9831 58.1559,291.2121 57.8809,291.4401 C58.3839,291.8991 58.8869,292.3581 59.3889,292.8171 C60.5189,292.8501 61.6479,292.8831 62.7779,292.9171 C63.0519,293.0701 63.3309,293.0811 63.6159,292.9481 C64.2539,291.8211 65.4829,291.4961 66.4609,290.8361 C66.9629,290.3981 67.2519,289.8321 67.4109,289.1951 C67.5229,288.5451 67.4729,287.9271 67.0899,287.3761 C68.2879,287.3011 68.5169,286.3381 68.7849,285.4141 C68.8159,285.0271 68.7619,284.6661 68.5899,284.3381 C68.7919,284.3061 68.9899,284.2561 69.1779,284.1631 C70.1049,283.5011 71.1439,283.0081 71.9969,282.2391 C72.4119,281.7651 73.0029,281.4501 73.3769,280.9401 C73.4149,280.9611 73.4479,280.9821 73.4869,281.0031 C74.1349,281.2311 74.7889,281.2581 75.4529,281.0841 C76.3329,280.7831 77.0629,280.1931 77.9069,279.8241 C78.9649,279.3471 80.0999,279.1611 81.2209,278.9141 C81.8179,278.8931 82.3769,279.1221 82.9599,279.1891 C84.3879,279.4121 85.7009,279.0461 86.9639,278.3891 C87.1989,278.2311 87.3999,278.0511 87.5739,277.8181 C87.7709,277.5531 87.9359,277.2311 88.3209,277.5151 C88.7459,278.0111 89.1969,278.5021 89.8309,278.7671 C90.1159,278.8341 90.3839,278.7941 90.6299,278.6261 C91.0729,278.3561 91.5149,278.0861 91.9579,277.8151 C93.3779,276.5611 95.1439,277.5471 96.6859,277.0821 C98.3739,276.2061 100.0609,275.3301 101.7489,274.4531 C101.4209,273.3861 103.0029,274.0181 102.9019,273.1531 C103.1549,272.9831 103.4079,272.8121 103.6609,272.6411 L103.6609,272.6411 Z" id="Fill-11" fill="#252525"></path>
                <path d="M50.8029,57.4157 L50.6399,57.3807 C50.6419,57.3797 50.6439,57.3787 50.6459,57.3777 C50.6499,57.3737 50.6529,57.3687 50.6559,57.3647 C50.7199,57.3707 50.7799,57.3767 50.7799,57.3767 L50.7799,57.3767 C50.7869,57.3897 50.7949,57.4027 50.8029,57.4157 L50.8029,57.4157 Z M41.5339,34.6037 C41.5819,34.4397 41.6189,34.2837 41.6549,34.1287 C41.7179,34.1847 41.7849,34.2317 41.8579,34.2697 C41.7499,34.3767 41.6429,34.4837 41.5339,34.6037 L41.5339,34.6037 Z M110.4389,66.2197 C110.3769,65.9977 110.3139,65.7757 110.2519,65.5537 C110.1049,65.2507 109.9059,65.2277 109.6609,65.4417 C109.4429,65.5207 109.2249,65.5997 109.0069,65.6777 C108.6179,65.6497 108.2299,65.6227 107.8419,65.5957 C107.7779,65.4987 107.6979,65.4067 107.5999,65.3227 C107.1419,65.1657 106.6899,65.1637 106.2439,65.3647 C106.0199,65.4867 105.8149,65.4597 105.6289,65.2837 C105.3239,65.1877 105.0239,65.1997 104.7329,65.3377 C104.6589,65.3827 104.6049,65.4377 104.5409,65.4887 C104.0889,65.4827 103.6259,65.5117 103.3539,64.9807 C102.6119,65.0607 101.8819,65.1037 101.4279,64.3287 L100.1829,64.2937 C99.9239,64.2507 99.6659,64.2607 99.4089,64.3157 C99.2359,64.4087 99.0679,64.5117 98.8999,64.6147 C98.6389,64.5917 98.3819,64.6127 98.1309,64.7047 L95.3869,64.7087 C94.7039,64.7827 94.0219,64.8567 93.3389,64.9307 C93.2909,64.9687 93.2379,64.9997 93.1839,65.0267 C93.2349,64.9947 93.2869,64.9627 93.3389,64.9307 C92.2199,64.8487 91.1019,64.7677 89.9839,64.6857 C89.1319,63.7617 87.8589,63.8297 86.8189,63.3537 C85.6979,63.0937 84.5989,62.5777 83.4179,63.0997 C83.2549,63.2057 83.1359,63.3367 83.0499,63.4917 C82.2109,62.9817 81.0519,63.1077 80.4269,62.1727 C80.2009,62.2097 79.9749,62.2477 79.7489,62.2847 C79.0839,61.9837 78.4189,61.6837 77.7539,61.3827 C77.5699,60.6017 76.8569,60.8207 76.3559,60.6397 C76.1379,60.7227 75.9209,60.8057 75.7029,60.8887 C74.6089,60.0827 73.5809,59.2107 72.8739,58.0207 C73.0569,57.9637 73.2439,57.9327 73.4359,57.9277 C73.4669,57.7897 73.5109,57.6547 73.5669,57.5247 C72.9499,57.4557 72.3329,57.3857 71.7159,57.3157 C71.2419,56.7907 70.7699,56.2667 70.2969,55.7417 C70.0499,55.6847 69.8139,55.6957 69.5879,55.7717 C69.3469,54.5027 68.4139,53.3757 68.8149,51.9757 C68.7879,51.8167 68.7609,51.6587 68.7319,51.5007 C68.5589,51.2247 68.3339,50.9987 68.0629,50.8207 C67.7679,50.6867 67.4599,50.5987 67.1379,50.5667 C66.5889,50.5747 66.0719,50.6487 65.7099,51.0527 C65.5449,50.9497 65.3829,50.8437 65.2039,50.7487 C64.5819,50.6037 64.0029,50.6357 63.5009,50.9927 C63.5449,50.1517 63.1299,49.7337 62.4389,49.5727 C62.6549,48.7897 62.5009,47.9777 62.5499,47.1837 C62.5009,46.2817 62.4429,45.3797 62.3009,44.4857 C62.1469,44.0477 62.3929,43.8317 62.7489,43.6767 C63.8279,43.9007 64.2429,43.4767 64.0749,42.4847 C64.3149,42.2677 64.3709,42.0017 64.2499,41.6887 C66.2749,40.4397 65.7259,37.9127 66.9369,36.2597 C67.1619,35.8067 67.3869,35.3527 67.6129,34.8997 C67.6819,34.8997 67.7499,34.8277 67.8149,34.6827 C67.8509,34.6037 67.8389,34.5257 67.7859,34.4497 C67.8129,34.4487 67.8409,34.4457 67.8679,34.4447 C68.3589,34.2907 68.5999,33.9217 68.7129,33.4457 C68.7459,33.0547 68.6609,32.7077 68.4419,32.4107 C69.7349,31.7577 69.3799,30.3497 69.7089,29.2597 C69.7489,28.4357 69.6939,27.6327 69.2069,26.9227 C70.2329,27.4157 70.9939,26.9017 71.6799,26.0997 C71.6829,25.8997 71.7119,25.7127 71.7579,25.5337 C71.9319,25.6937 72.1179,25.8397 72.3259,25.9547 C72.7959,26.1187 73.2759,26.1597 73.7659,26.0827 C74.2609,25.9907 74.6539,25.7187 75.0129,25.3847 C75.2649,25.3737 75.5159,25.3617 75.7669,25.3497 C76.3569,25.6297 77.0429,25.7147 77.6889,25.8767 C78.6349,26.0247 79.2619,25.5037 79.8289,24.8567 L79.6829,24.7477 L79.7209,24.5697 C79.9659,24.6697 80.2109,24.7697 80.4549,24.8697 C80.6779,24.8517 80.9009,24.8327 81.1239,24.8137 L81.7779,24.5017 C82.7319,24.6977 83.6509,24.7197 84.4169,23.9717 C85.3699,22.7087 86.7599,23.6707 87.8859,23.2897 C87.6799,22.8627 87.4739,22.4367 87.2689,22.0097 C88.1609,21.7677 89.0539,21.5257 89.9469,21.2837 L90.1089,18.5757 C89.8529,18.3377 89.5969,18.1007 89.3409,17.8637 C89.1429,16.8437 87.6029,16.4807 88.0229,15.1597 C87.7549,14.4017 87.1729,14.4567 86.5589,14.5907 C86.3319,14.5197 86.1039,14.4467 85.8759,14.3747 C84.2369,12.9647 82.1359,14.6867 80.4529,13.5747 C79.7799,13.5887 79.1069,13.6037 78.4329,13.6177 C78.1359,13.4687 77.9069,13.5407 77.7459,13.8327 C77.4209,14.8737 75.9139,13.9097 75.6579,15.0687 C75.0419,15.4597 74.4789,15.9887 73.6549,15.8367 C73.5789,16.0407 73.5379,16.2517 73.5319,16.4697 C73.3329,16.4677 73.1489,16.4127 72.9799,16.3047 L68.9269,17.3567 C68.6869,17.2777 68.4469,17.1987 68.2059,17.1197 C67.9969,17.2377 67.7809,17.2507 67.5589,17.1587 C67.3289,17.4037 67.0989,17.6497 66.8679,17.8947 C66.1979,17.9107 65.5269,17.9267 64.8559,17.9427 C64.8119,18.1147 64.7689,18.2867 64.7259,18.4587 C64.3059,18.4907 63.8859,18.5217 63.4669,18.5537 C62.7769,19.0027 63.1689,20.9307 61.4799,20.0127 C61.4449,20.1827 61.4169,20.3537 61.3969,20.5267 C60.9639,20.5197 60.5309,20.5117 60.0969,20.5027 C59.1599,20.1427 58.4399,20.5077 57.8139,21.1897 C57.7719,21.2487 57.7469,21.3117 57.7219,21.3737 C57.4269,21.3527 57.1469,21.3787 56.9129,21.5377 C56.8859,21.5207 56.8629,21.5037 56.8349,21.4877 C56.3479,21.3307 55.8539,21.3127 55.3539,21.4117 C54.5579,21.6747 53.7489,21.9087 53.2159,22.6307 C53.0109,22.8607 52.8069,23.0897 52.6029,23.3187 C51.3229,23.4317 49.9699,23.1187 48.7929,23.8437 C48.2199,23.7337 47.5979,23.8127 47.1239,23.3747 C46.7399,23.1447 46.3309,23.0397 45.8859,23.1767 C44.5379,24.5317 42.4039,24.5967 41.1329,26.0807 C41.1919,27.0907 40.5689,27.4237 39.7089,27.5207 C39.0259,27.5097 38.3429,27.4977 37.6599,27.4857 C36.9789,27.5027 36.2979,27.5197 35.6169,27.5377 C34.5039,27.5047 33.3899,27.4717 32.2769,27.4387 C31.8579,27.7877 31.2239,27.5187 30.8319,27.9447 L30.1819,28.2127 C28.7709,27.7837 27.5579,29.2007 26.1339,28.6487 C25.3419,28.4217 24.6709,28.7807 23.9939,29.0997 C23.5269,29.4897 23.1609,29.9637 22.8439,30.4787 C22.8029,30.5927 22.7499,30.6887 22.6919,30.7777 C22.4639,30.7447 22.2369,30.7107 22.0099,30.6777 C21.7959,30.7527 21.5819,30.8287 21.3679,30.9037 C20.5139,30.4967 20.0259,31.2137 19.4119,31.5437 C19.1949,32.6057 19.9049,33.1687 20.5949,33.7417 C20.3839,33.8977 20.1739,34.0537 19.9639,34.2097 C19.9729,34.6657 19.9829,35.1217 19.9929,35.5777 C20.2499,36.2027 20.5059,36.8277 20.7619,37.4527 C21.2159,38.4057 22.1419,38.6617 23.0229,38.9767 C23.6199,39.1657 24.2139,39.3587 24.8239,39.4987 C25.1339,39.5587 25.4459,39.5957 25.7619,39.5927 C28.1049,39.7767 30.3139,39.4687 32.2079,37.9757 C32.2749,38.4377 32.6159,38.7077 33.0409,38.9177 C34.2249,39.3297 35.4199,39.2287 36.6169,38.9967 C37.4049,38.7867 38.1809,38.5447 38.9699,38.3477 C39.2729,38.2397 39.5619,38.1047 39.8319,37.9297 C40.3249,37.4377 40.9399,37.0187 41.1159,36.3517 C41.1189,36.3517 41.1219,36.3527 41.1249,36.3527 C42.4449,36.4697 43.6419,35.9607 44.8679,35.6047 C45.5969,35.3317 46.3489,35.1327 47.0689,34.8417 C47.5069,34.6377 47.8549,34.3537 47.9819,33.8597 C47.9659,33.8327 47.9489,33.8057 47.9329,33.7787 C47.9649,33.7517 47.9979,33.7267 48.0299,33.7007 C49.4269,34.8547 50.8859,33.8647 52.3189,33.7087 C52.6499,33.6197 52.9699,33.5027 53.2729,33.3417 C53.9779,32.8437 54.8759,32.5167 55.2339,31.7267 C55.8909,31.6947 56.5269,31.5867 57.1229,31.2777 C57.2069,31.2227 57.2749,31.1547 57.3469,31.0907 L57.8889,32.2227 C57.9749,32.2707 58.0599,32.3187 58.1449,32.3667 C58.1059,33.6377 57.5249,34.9777 58.6539,36.0987 C56.6489,36.5327 56.6349,39.1627 54.7109,39.6847 C54.3369,39.9177 54.0559,40.2297 53.9099,40.6517 C53.8409,41.0037 53.7499,41.3497 53.6279,41.6857 C53.5039,41.6467 53.3809,41.6087 53.2569,41.5697 C52.8139,41.5837 52.3699,41.5987 51.9279,41.6127 C51.7019,41.6847 51.4769,41.7567 51.2529,41.8297 C50.7449,41.6337 50.0409,41.7507 49.9029,40.9717 C49.6659,40.9357 49.4299,40.8987 49.1949,40.8627 C48.4919,40.8607 47.9599,40.0267 47.1709,40.4487 L45.1199,39.5327 C44.6779,39.5477 44.2349,39.5627 43.7929,39.5787 C43.5919,38.8507 42.9099,39.0597 42.4289,38.8767 C42.1929,38.8837 41.9569,38.8907 41.7199,38.8967 C41.5579,39.0077 41.3789,39.0527 41.1829,39.0317 C41.1329,39.1757 41.1269,39.3197 41.1409,39.4637 C41.0209,39.5197 40.9029,39.5997 40.7859,39.7107 C40.1429,40.6857 39.8949,41.7617 39.9909,42.9207 C40.1569,43.7247 40.5699,44.3617 41.2579,44.8177 C41.8489,45.1857 42.5769,45.2827 43.0989,45.7757 C43.7049,46.3357 44.0089,47.0747 44.3039,47.8187 C44.5789,48.0797 44.8539,48.3397 45.1299,48.5997 C46.1419,49.4117 47.1769,50.1807 48.4869,50.4417 C48.8189,50.4617 49.1469,50.4357 49.4679,50.3467 C49.5789,50.2997 49.6739,50.2327 49.7709,50.1667 C49.7659,50.2097 49.7599,50.2437 49.7589,50.3037 C49.7569,50.4527 49.8269,50.5837 49.9379,50.7057 C49.8919,50.8667 49.8459,51.0287 49.8029,51.1917 L49.8509,51.8607 C49.6329,52.0877 49.4149,52.3147 49.1969,52.5407 C48.3709,52.7357 47.9709,53.2917 47.7169,53.9737 C47.5849,53.9477 47.4509,53.9267 47.3159,53.9157 C46.7549,53.8787 46.2039,53.9227 45.6619,54.0687 C45.2819,54.1817 44.9209,54.3347 44.5789,54.5357 C44.3659,54.6737 44.1669,54.8277 43.9859,55.0047 C43.9179,55.1107 43.8519,55.2147 43.7849,55.3187 C43.8309,55.5447 43.8249,55.7687 43.7679,55.9917 C43.6319,56.7387 43.7169,57.4417 44.1879,58.0657 L42.3709,58.5397 C42.5469,60.9837 40.1149,60.4657 39.0349,61.4857 C38.9909,61.6137 38.9859,61.7407 38.9999,61.8657 C38.2739,62.0497 37.6679,62.3657 37.5389,63.2187 C37.6259,63.2687 37.7129,63.3177 37.7999,63.3667 C37.7919,63.3687 37.7839,63.3707 37.7769,63.3727 C37.7009,63.3547 37.6239,63.3607 37.5439,63.4157 C37.1559,63.0477 36.7349,63.0487 36.2919,63.3067 C36.0949,63.4127 35.8849,63.4767 35.6619,63.4967 L34.9559,64.8427 C34.4829,65.2647 34.0089,65.6867 33.5349,66.1077 C33.3439,66.1347 33.1559,66.1777 32.9709,66.2377 C32.0379,66.5297 31.1789,66.9257 30.7089,67.8627 C30.6339,68.0047 30.5559,68.1447 30.4819,68.2867 C30.4789,68.3057 30.4749,68.3247 30.4709,68.3447 C30.2469,68.3637 30.0239,68.3817 29.7999,68.4007 C29.7459,68.2847 29.6789,68.1747 29.5929,68.0737 C29.4599,68.0307 29.3279,67.9867 29.1959,67.9437 C29.1649,67.9697 29.1339,67.9947 29.1029,68.0197 C29.0949,67.7847 29.0319,67.5657 28.8899,67.3717 C28.6359,67.2477 28.3859,67.2557 28.1409,67.3977 C27.3429,67.4657 26.5439,67.5337 25.7449,67.6007 C25.6449,67.4627 25.5319,67.3327 25.3889,67.2177 C24.0009,66.4347 22.5519,66.5207 21.0819,66.9117 C20.7169,67.1457 20.3489,67.3777 19.9919,67.6207 C19.7869,67.6037 19.5809,67.5877 19.3749,67.5717 C19.4359,67.4567 19.4769,67.3337 19.4809,67.1957 C19.3149,66.7077 18.9499,66.4157 18.4899,66.2227 C17.5299,65.9047 16.5369,65.9107 15.5419,65.9377 C14.6159,65.8967 13.6669,66.0737 12.7849,65.6377 C11.9909,65.1017 11.1379,64.7357 10.1569,64.7347 C9.8479,64.7567 9.5459,64.8017 9.2439,64.8787 C8.9539,64.9627 8.6759,65.0707 8.4069,65.2097 C7.6809,65.6767 6.9439,66.1267 6.5579,66.9537 C6.47988684,67.1387 6.4609,67.3307 6.4979,67.5287 C7.4999,67.4827 8.1209,67.9867 8.4619,68.8957 C8.7199,69.4437 9.0679,69.8637 9.7569,69.7997 C9.8159,69.7717 9.8739,69.7407 9.9319,69.7097 C10.1169,69.9037 10.3029,70.0977 10.4889,70.2917 C10.4769,70.7397 10.4659,71.1867 10.4549,71.6347 C10.9659,71.8777 11.4759,72.1207 11.9869,72.3647 C11.9839,72.3877 11.9749,72.4087 11.9729,72.4327 C11.9719,73.3387 12.2609,74.0507 13.2199,74.3187 C13.4419,74.3667 13.6639,74.4147 13.8859,74.4627 C14.1229,74.6357 14.3839,74.7567 14.6719,74.8147 C14.7029,74.8167 14.7349,74.8187 14.7659,74.8217 C15.2149,75.5107 16.2529,75.6087 16.6109,76.3897 C17.9589,76.2467 18.7729,77.5507 20.0279,77.6597 L19.9549,77.9247 C20.4409,78.2267 20.8249,78.6927 21.4139,78.8237 C21.7019,78.8707 21.9909,78.8807 22.2799,78.8447 C23.2749,78.6157 24.2749,78.6997 25.2739,78.7697 C25.5779,78.7537 25.8349,78.6377 26.0439,78.4137 C26.2729,77.6867 26.9529,77.8437 27.4699,77.6827 C27.9199,77.7007 28.3699,77.7187 28.8199,77.7357 C28.9119,77.3607 29.0699,77.0897 29.5259,77.2807 C30.4769,77.6857 31.4259,77.5177 32.3709,77.2617 C32.8549,77.1277 33.2989,76.9187 33.6639,76.5627 C33.7769,76.3357 33.8319,76.1017 33.8229,75.8587 C34.2189,76.0967 34.6279,76.1187 35.0549,75.8277 C35.1149,75.7367 35.1539,75.6487 35.1749,75.5647 C35.2799,75.5747 35.3839,75.5957 35.4899,75.5917 C35.4939,75.5257 35.4869,75.4617 35.4819,75.3967 C35.7929,75.3877 36.0649,75.2807 36.2959,75.0707 C36.8059,74.6567 37.5519,74.4927 37.7209,73.7177 C38.5949,73.4257 39.4689,73.1327 40.3429,72.8397 C40.3139,72.6657 40.3299,72.4967 40.3929,72.3327 C40.3879,72.3207 40.3829,72.3107 40.3779,72.2987 C40.6269,72.0357 40.9019,71.8107 41.2519,71.6937 C41.8699,71.6277 42.4879,71.5617 43.1059,71.4957 C43.5399,71.2897 43.9729,71.0827 44.4069,70.8757 C44.9009,70.0487 45.8029,70.5187 46.4649,70.2267 C46.4479,70.0027 46.5039,69.7997 46.6319,69.6157 C46.6519,68.8227 47.2959,68.5337 47.8139,68.1437 C48.4869,67.9327 49.1589,67.7217 49.8319,67.5117 C50.4739,66.9897 50.9999,66.4127 50.7999,65.4867 C50.7879,65.4647 50.7719,65.4507 50.7599,65.4307 C50.9999,65.3397 51.1379,65.1287 51.1979,64.8217 C51.2769,64.6147 51.3559,64.4087 51.4339,64.2017 C51.9369,63.4737 51.8529,62.6917 51.7569,61.9117 C52.0379,62.2057 52.3199,62.4987 52.6009,62.7927 C53.0629,62.3407 53.5249,61.8887 53.9869,61.4357 C54.8839,61.1227 55.0269,60.2727 55.3309,59.5377 C55.4789,59.3697 55.6639,59.2917 55.8869,59.3037 C56.8139,58.9197 57.2759,58.3167 56.8329,57.2887 C56.7949,57.2667 56.7579,57.2507 56.7199,57.2317 C56.8029,57.0997 56.8579,56.9577 56.8609,56.7947 C57.0399,56.7997 57.2029,56.7497 57.3489,56.6467 L57.6269,56.7427 C57.6269,56.7427 57.8499,56.7197 57.8929,56.7147 C57.7879,57.4207 58.2499,57.7217 58.8409,57.9307 C59.0499,58.1797 59.2589,58.4287 59.4689,58.6777 C59.6159,58.9327 59.8179,58.9717 60.0649,58.8267 L60.3649,58.7247 L60.6799,58.7437 L61.4599,61.3767 C61.6029,61.7387 61.8309,61.7847 62.1309,61.5557 C64.1679,60.8927 62.9149,63.4687 64.1399,63.6037 L64.4389,63.5027 L64.7539,63.5067 C65.1339,64.5707 65.7879,65.5697 65.5279,66.7857 C65.7059,67.0977 65.9229,67.1447 66.1869,66.8857 L66.0359,66.7707 L66.1149,66.5977 C66.4699,66.7997 66.8259,67.0007 67.1819,67.2037 C67.1329,67.3367 67.0929,67.4747 67.0669,67.6167 C67.6009,68.1087 68.2499,68.2117 68.9419,68.1697 C69.8359,68.4087 70.3149,69.9607 71.5849,69.0087 C71.8239,69.4317 72.0609,69.8537 72.2989,70.2767 C72.5289,70.2467 72.7589,70.2147 72.9879,70.1847 C73.8929,70.8807 74.7989,71.5787 75.7039,72.2747 C75.7199,72.4747 75.7309,72.6747 75.7369,72.8747 L75.9999,72.9227 L76.2669,72.8987 C76.4979,72.3807 76.9349,72.3467 77.3709,72.3097 C77.3889,72.3737 77.4029,72.4377 77.4289,72.5017 C78.0319,73.2587 78.6169,74.0457 79.7779,73.7257 C80.2239,73.9117 80.6699,74.0987 81.1159,74.2857 C82.0109,74.3417 82.9059,74.3977 83.7999,74.4547 C84.2539,75.3067 84.9429,75.0987 85.6129,74.9737 C85.7499,75.1227 85.9049,75.2507 86.0949,75.3407 C86.4129,75.3987 86.7279,75.4057 87.0439,75.3407 C87.0519,75.3377 87.0609,75.3347 87.0699,75.3317 C87.5279,75.5867 88.0409,75.4567 88.5829,75.1287 C89.4959,75.0607 90.4089,74.9907 91.3229,74.9217 L91.2929,75.2127 C91.9779,75.1887 92.6639,75.1647 93.3489,75.1397 C93.8329,75.4767 94.2869,75.4407 94.7129,75.0327 C94.9509,74.8457 95.1889,74.6597 95.4279,74.4727 C96.4059,74.4887 97.2199,74.0617 98.0299,73.6197 C98.1699,73.6817 98.3039,73.7497 98.4209,73.8347 C98.9709,74.1077 99.5409,74.2817 100.1659,74.1907 C101.1039,74.0977 101.5459,73.0427 102.4969,72.9787 C103.3729,72.7617 104.2559,72.5677 105.1349,72.3717 C105.5949,72.2227 105.9539,71.9407 106.2299,71.5457 C106.4269,70.8177 107.0999,71.0317 107.5789,70.8617 C107.7999,70.6617 107.9109,70.4097 107.9249,70.1137 C107.9219,70.0997 107.9159,70.0877 107.9129,70.0747 C108.3769,69.6287 108.2649,68.9687 108.3309,68.3747 C108.7689,68.1027 109.2059,67.8297 109.6439,67.5567 C109.8799,67.3097 109.9969,67.0147 109.9959,66.6727 C109.9899,66.6447 109.9749,66.6237 109.9679,66.5977 C110.1239,66.4717 110.2819,66.3457 110.4389,66.2197 L110.4389,66.2197 Z" id="Fill-13" fill="#252525"></path>
                <path d="M49.842,67.5085 C49.839,67.5095 49.836,67.5105 49.832,67.5115 C49.829,67.5135 49.826,67.5165 49.822,67.5195 L49.842,67.5085 Z" id="Fill-15" fill="#252525"></path>
                <path d="M52.6686,159.4665 L52.6686,159.4665 C52.6686,159.4665 52.5936,159.4215 52.5776,159.4115 C52.5756,159.4095 52.5736,159.4075 52.5716,159.4045 C52.5776,159.4045 52.6486,159.3985 52.7266,159.3905 C52.7066,159.4165 52.6876,159.4415 52.6686,159.4665 Z M35.6856,132.9095 C35.6086,134.0505 35.5316,135.1915 35.4556,136.3325 L35.6696,136.2655 C35.3706,136.9745 35.0706,137.6825 34.7716,138.3915 C34.8196,138.4955 34.8806,138.5905 34.9446,138.6835 C34.7626,139.8065 35.7026,141.3795 33.6766,141.7605 C33.3576,142.0215 33.3276,142.3115 33.5856,142.6315 C33.6116,142.6505 33.6386,142.6635 33.6646,142.6815 C33.6536,142.8145 33.6426,142.9465 33.6316,143.0795 C35.1996,143.3785 34.9856,144.6955 35.1726,145.7835 C35.1206,146.0055 35.0686,146.2265 35.0166,146.4475 C35.1026,146.5475 35.1976,146.6345 35.2936,146.7205 C35.1616,146.8665 35.0966,147.0505 35.1186,147.2825 C35.2916,148.1665 34.5686,149.1475 35.4056,149.9605 C35.5186,150.3975 35.6306,150.8355 35.7426,151.2725 L35.5016,151.2295 C35.7076,152.1075 36.0096,152.9225 36.8906,153.3565 C36.9536,153.7985 37.0166,154.2405 37.0796,154.6825 C36.9956,154.8835 36.9896,155.0865 37.0596,155.2915 C37.4666,155.5435 37.8746,155.7945 38.2816,156.0465 C38.3556,156.6235 38.3406,157.2465 39.0216,157.5195 C39.2446,157.5135 39.4666,157.5075 39.6896,157.5015 C40.0486,157.6225 40.4076,157.7525 40.7726,157.8065 C40.5576,157.8885 40.4286,158.0835 40.5446,158.5985 C40.7236,158.8535 40.9026,159.1075 41.0816,159.3625 C41.2616,159.4075 41.4436,159.4435 41.6276,159.4715 C41.6986,159.6535 41.7406,159.8425 41.7516,160.0375 C41.9416,160.0805 42.1346,160.1055 42.3286,160.1185 C42.2726,160.1835 42.2166,160.2495 42.1616,160.3145 C42.2736,160.4605 42.3856,160.6075 42.4966,160.7545 C43.0606,160.7945 43.6426,160.8745 43.8426,160.1295 L44.1366,160.1135 L44.4236,160.1735 C44.4636,160.7815 44.5036,161.3895 44.5436,161.9975 C44.9776,162.2115 45.4106,162.4245 45.8426,162.6385 C46.2676,162.7085 46.6916,162.7785 47.1166,162.8485 C47.3296,163.5905 48.0386,163.3595 48.5226,163.5705 C50.0386,165.1235 51.8156,165.3525 53.7826,164.6095 C53.9806,164.4775 54.1366,164.3115 54.2726,164.1285 C54.6156,164.1305 54.9596,164.1325 55.3036,164.1345 C55.3386,163.9415 55.3946,163.7535 55.4686,163.5705 C55.4686,163.5705 55.4686,163.5705 55.4696,163.5695 C55.6526,163.6215 55.8386,163.6645 56.0266,163.6965 C56.2006,163.9185 56.4286,164.0505 56.7026,164.1065 L57.0026,164.1535 L57.3016,164.0985 C57.9916,164.3785 58.5206,165.0955 59.3956,164.8745 C60.0796,163.8265 61.1336,164.4545 62.0146,164.2935 C62.2376,164.4685 62.4616,164.6435 62.6856,164.8185 C62.7896,164.8185 62.8866,164.7735 62.9786,164.6835 C63.0586,164.6055 63.0516,164.5065 62.9636,164.3895 C63.0906,164.4555 63.2466,164.4985 63.4166,164.5295 C63.9426,164.7475 64.4946,164.8505 65.0476,164.9595 C65.2996,165.0495 65.5546,165.1235 65.8166,165.1785 C66.2196,165.2075 66.5816,165.1285 66.8566,164.8065 C66.9096,164.4225 66.9626,164.0385 67.0156,163.6545 C67.6546,163.5635 68.2946,163.4725 68.9346,163.3815 L68.8716,163.5835 C69.0996,163.5255 69.3276,163.4665 69.5556,163.4085 C69.5856,163.3695 69.6146,163.3285 69.6446,163.2885 C69.6636,163.4415 69.6886,163.6015 69.7276,163.7775 C70.8586,164.3205 71.7216,164.0165 72.3436,162.9485 C72.5046,162.8895 72.6666,162.8305 72.8286,162.7705 C72.8696,162.8515 72.9166,162.9295 72.9746,163.0045 C73.4336,163.2545 73.8796,163.2415 74.3136,162.9455 C75.0336,162.7155 75.6436,162.3665 75.8056,161.5415 C76.2226,161.5505 76.6406,161.5605 77.0576,161.5705 C77.2906,161.3295 77.5236,161.0895 77.7566,160.8485 C78.4116,160.5425 79.3106,160.9125 79.7906,160.1155 C80.4606,160.0815 81.1326,160.0465 81.8036,160.0125 C82.2286,160.0255 82.6526,160.0385 83.0776,160.0515 C83.3736,159.8875 83.6726,159.7345 84.0246,159.7515 C84.2636,159.7675 84.4716,159.6945 84.6476,159.5305 C84.8016,159.3475 84.8706,159.1365 84.8516,158.8975 C84.8356,158.5425 84.9876,158.2415 85.1626,157.9485 C85.1686,157.7515 85.1336,157.5615 85.0576,157.3795 C85.1796,157.1965 85.2356,156.9965 85.2256,156.7775 C85.4416,156.7335 85.6516,156.6705 85.8556,156.5885 C86.5016,156.3785 87.1476,156.1685 87.7936,155.9585 C88.0696,155.6055 88.3456,155.2515 88.6206,154.8975 C89.1196,155.0505 89.5796,155.0545 89.9046,154.5315 C90.1826,153.9065 90.4596,153.2825 90.7376,152.6585 C91.8756,152.4165 91.7626,151.0815 92.5706,150.5505 C93.4256,149.7145 93.4446,148.8155 92.7726,147.8635 C92.7016,147.1765 92.6306,146.4895 92.5606,145.8015 C92.5606,143.9975 92.5606,142.1925 92.5596,140.3875 C92.6306,140.1625 92.7016,139.9365 92.7726,139.7115 C92.6626,139.0685 92.5516,138.4245 92.4406,137.7815 C92.6626,136.8895 92.8496,135.9965 92.5096,135.0905 C92.3356,134.6705 92.0976,134.2915 91.8066,133.9445 C91.2186,133.2805 90.7516,132.5355 90.3056,131.7785 C89.8926,131.1605 89.4416,130.5965 88.6626,130.4885 C88.6706,130.3775 88.6906,130.2675 88.7236,130.1585 C88.2736,129.2725 87.6676,128.6355 86.5606,128.7985 L85.3146,127.8225 C85.0566,127.7145 84.7936,127.6985 84.5256,127.7595 C84.5196,127.6735 84.5166,127.5875 84.5056,127.5015 C84.2646,127.1835 84.1576,126.7725 83.8246,126.5195 C83.5626,126.4375 83.2966,126.4165 83.0276,126.4725 C82.8306,126.5445 82.6486,126.6335 82.4796,126.7385 C82.2166,126.6775 81.9736,126.5755 81.8036,126.3295 C81.8876,126.2495 81.9666,126.1605 82.0386,126.0605 C82.2026,125.5605 82.2176,125.1045 81.6896,124.7975 C81.4936,124.7965 81.3056,124.7565 81.1266,124.6755 C80.2266,124.5255 79.4506,125.5395 78.5026,124.9565 C78.4596,125.3155 78.4156,125.6755 78.3716,126.0345 C78.0996,126.2415 77.8276,126.4495 77.5556,126.6565 C77.1616,126.4655 76.7666,126.2735 76.3726,126.0825 C75.4526,126.1265 74.5336,126.1705 73.6146,126.2145 L73.6856,125.9665 C73.0256,126.3395 72.4636,126.9535 71.5986,126.8265 L71.6756,126.5955 C70.6536,126.6785 69.6096,126.6865 68.7766,127.4275 C68.8646,127.6305 68.9146,127.8415 68.9266,128.0605 C69.2226,128.7375 69.6576,129.1955 70.4746,129.0505 C70.6176,128.9865 70.7606,128.9215 70.8986,128.8535 C70.9806,129.0455 71.0356,129.2435 71.0586,129.4505 C71.4796,129.4955 71.8996,129.5415 72.3206,129.5875 L72.9926,129.4145 C73.6536,129.9435 74.3156,130.4725 74.9776,131.0015 C75.4326,130.9045 75.8886,130.8065 76.3446,130.7095 L77.0346,130.8475 C77.0766,131.2985 77.1186,131.7485 77.1596,132.1985 C77.1426,132.4205 77.1246,132.6415 77.1066,132.8635 C77.1096,133.2965 77.3176,133.6255 77.6316,133.8995 C77.8476,134.0555 78.0706,134.1965 78.3116,134.3105 C78.7846,134.5415 79.1906,134.8795 79.6476,135.1325 C79.7206,135.1605 79.7936,135.1775 79.8666,135.1875 C79.8876,136.0145 80.2196,136.6775 80.9306,137.1425 C80.9586,137.1565 80.9866,137.1665 81.0156,137.1795 L80.9036,137.3025 C80.8566,137.5845 80.8816,137.8595 80.9836,138.1265 C81.2956,138.6845 81.6306,139.2025 82.3056,139.1915 C81.8616,139.5325 81.5516,139.9635 81.4806,140.5495 C81.5096,141.2085 81.6826,141.7825 82.1766,142.1705 C82.1196,142.2275 82.0616,142.2855 82.0046,142.3455 C81.4736,143.2175 81.0156,144.0935 81.3186,145.0425 C80.8426,145.4445 80.3936,145.8675 80.1316,146.4515 C80.0216,146.8485 80.0336,147.2175 80.2446,147.5455 C79.7186,147.5255 79.2316,147.6895 78.7696,147.9655 C78.1316,148.3975 77.7296,148.9825 77.5656,149.7265 C76.6766,149.7275 75.8886,149.9545 75.3816,150.7995 C75.2786,151.0885 75.2326,151.3845 75.2426,151.6895 C75.1176,151.6415 74.9856,151.6125 74.8426,151.6195 C74.6746,151.6255 74.5536,151.6875 74.4696,151.7955 C74.4126,151.7595 74.3576,151.7225 74.2926,151.6935 C74.0106,151.6525 73.7506,151.7105 73.5086,151.8575 C73.3846,152.0385 73.3166,152.2385 73.2836,152.4505 C73.1686,152.4645 73.0576,152.5105 72.9526,152.5965 C72.8506,152.7435 72.8086,152.8975 72.8256,153.0565 C72.8206,153.0535 72.8156,153.0505 72.8106,153.0475 C72.0136,152.9405 71.3706,153.2805 70.7726,153.7525 C70.7696,153.7565 70.7646,153.7605 70.7606,153.7645 C70.1036,153.3925 69.4396,153.3855 68.7696,153.8535 C68.7606,153.8655 68.7556,153.8785 68.7486,153.8915 C68.6016,153.7885 68.4286,153.7825 68.2306,153.8705 C67.6126,154.1325 66.9956,154.3945 66.3776,154.6555 C66.2046,154.4345 65.9926,154.2595 65.7336,154.1435 C64.6936,153.7165 63.6276,154.6925 62.5916,154.0895 C61.7976,154.3475 61.4226,153.5285 60.7856,153.3835 C60.9716,154.5485 60.1646,154.6605 59.3396,154.7555 L59.4366,154.5665 C58.7376,154.5625 58.0386,154.5585 57.3396,154.5545 C56.2146,154.6365 55.0896,154.7195 53.9656,154.8015 C53.6776,154.7595 53.3896,154.7165 53.1026,154.6745 C53.0526,154.4525 52.9806,154.2375 52.8576,154.0355 C52.5906,153.7425 52.2806,153.6825 51.9256,153.8565 C51.7866,153.8655 51.6476,153.8745 51.5086,153.8835 C51.4636,153.6795 51.3746,153.4915 51.2336,153.3205 C50.3866,152.7125 49.4476,152.3825 48.3996,152.3825 L48.3996,152.3825 C48.1686,152.2625 47.9386,152.1435 47.7076,152.0235 C47.0746,151.4965 46.4416,150.9705 45.8096,150.4435 C45.5836,150.3225 45.3516,150.2935 45.1146,150.3405 C44.8886,149.9805 44.6626,149.6215 44.4356,149.2615 C44.2586,149.1815 44.0756,149.1235 43.8846,149.0885 C43.8736,149.0315 43.8536,148.9795 43.8356,148.9255 C44.0006,148.7625 44.1446,148.5655 44.2666,148.3315 C44.5206,147.1995 44.6226,146.0925 43.7726,145.1335 C43.3356,144.8835 42.8996,144.6325 42.4636,144.3825 C42.4096,143.9625 42.3556,143.5415 42.3006,143.1215 C42.3846,141.7105 42.8036,140.2645 41.8666,138.9605 C41.6296,138.2345 41.3926,137.5085 41.1556,136.7825 C41.1666,136.3815 41.1776,135.9805 41.1886,135.5795 C40.8956,135.3565 40.6016,135.1345 40.3076,134.9115 C40.5496,134.2545 40.7916,133.5975 41.0336,132.9405 C40.6336,132.6655 40.2326,132.3895 39.8326,132.1145 C39.8406,130.6465 38.3146,130.8885 37.6596,130.1585 C37.4276,130.3865 37.1966,130.6145 36.9646,130.8435 C37.2306,131.7105 36.5986,132.2045 36.1646,132.7815 C36.0016,132.8095 35.8416,132.8525 35.6856,132.9095 L35.6856,132.9095 Z" id="Fill-17" fill="#252525"></path>
                <g id="编组" transform="translate(0.000000, 331.308636)">
                    <mask id="mask-6" fill="white">
                        <use xlink:href="#path-5"></use>
                    </mask>
                    <g id="Clip-20"></g>
                    <path d="M36.6432,10.7721637 C37.8342,11.1991637 39.6932,7.94716369 40.3712,11.2331637 C38.4062,12.3081637 39.2252,15.4291637 36.8202,16.1821637 C36.0372,16.8261637 35.4722,17.6071637 35.2982,18.6311637 C35.2982,18.8411637 35.3432,19.0391637 35.4092,19.2311637 C34.5482,18.6871637 33.9302,19.1501637 33.3592,19.7971637 C33.2192,20.0811637 33.1492,20.3781637 33.1342,20.6911637 C33.0632,20.7111637 32.9932,20.7331637 32.9252,20.7621637 C32.8532,20.6431637 32.7802,20.5251637 32.7032,20.4111637 C32.3642,20.3481637 32.0542,20.3531637 31.8222,20.5391637 C31.6852,19.9391637 31.4032,19.4291637 30.8822,19.0641637 C29.1512,18.8681637 29.7682,17.4141637 29.4692,16.4531637 C29.0752,15.3781637 28.6392,14.3301637 27.8232,13.5141637 C28.0852,13.3811637 28.3062,13.1891637 28.4792,12.9241637 C28.5122,12.8611637 28.5562,12.8041637 28.5922,12.7431637 C28.8872,12.8441637 29.1612,12.7641637 29.4112,12.4841637 C29.6482,12.1181637 29.8862,11.7521637 30.1232,11.3861637 C30.1372,11.4031637 30.1452,11.4211637 30.1602,11.4371637 C30.5782,11.7261637 31.0472,11.8651637 31.5532,11.8881637 C32.5392,11.9251637 33.4402,11.5001637 34.3932,11.3671637 C35.1582,11.2211637 35.8912,10.9591637 36.6432,10.7721637 M53.1112,19.0651637 C52.9422,18.7631637 52.7022,18.5431637 52.3852,18.4051637 C52.2292,18.4661637 52.0742,18.5281637 51.9192,18.5891637 C51.7452,18.5881637 51.5722,18.5871637 51.3982,18.5861637 C51.1602,18.4001637 50.8772,18.2301637 50.5262,18.0851637 C50.1142,17.8481637 49.6872,17.7051637 49.2082,17.8571637 C48.2002,18.8101637 47.0602,18.9031637 45.8242,18.3811637 C45.7672,18.3871637 45.7182,18.3821637 45.6652,18.3831637 C46.5662,17.3901637 47.4972,16.4031637 46.4552,15.1471637 C46.6012,15.1071637 46.7472,15.0571637 46.8892,14.9871637 C47.6242,14.5131637 47.3732,13.6751637 47.6062,13.0191637 C47.6072,13.0101637 47.6102,13.0011637 47.6112,12.9931637 C48.4242,12.6311637 48.5132,11.8241637 48.6322,11.0351637 C48.7012,10.9451637 48.7692,10.8541637 48.8342,10.7621637 C48.9822,10.5191637 49.1062,10.2621637 49.2012,9.99416369 C49.2492,9.93616369 49.2972,9.87716369 49.3452,9.82016369 C50.9882,8.42216369 50.9662,6.65216369 50.4622,4.77716369 C50.1512,4.08216369 49.5962,3.67716369 48.8952,3.44216369 C48.5902,3.37616369 48.2942,3.40016369 47.9992,3.48516369 C48.4002,2.93216369 48.4422,2.33016369 48.1052,1.67516369 C47.9082,1.45616369 47.6752,1.30016369 47.4062,1.20816369 C47.4172,1.11416369 47.4142,1.01516369 47.3802,0.908163693 C47.2162,0.665163693 47.0112,0.463163693 46.7622,0.309163693 C46.2292,0.0561636934 45.6962,-0.163836307 45.1142,0.168163693 C44.5572,0.174163693 44.1562,0.429163693 43.7952,0.747163693 C43.6302,0.733163693 43.4662,0.722163693 43.3012,0.713163693 C42.9902,0.702163693 42.6802,0.697163693 42.3682,0.713163693 C42.2692,0.720163693 42.1722,0.712163693 42.0732,0.713163693 C41.9612,0.549163693 41.8492,0.385163693 41.7372,0.221163693 C40.9912,0.442163693 40.0842,0.0191636934 39.3922,0.456163693 C39.3132,0.447163693 39.2342,0.434163693 39.1552,0.426163693 C38.1942,0.456163693 37.3012,0.717163693 36.4722,1.20016369 C36.0762,1.48716369 35.7922,1.84316369 35.7482,2.35216369 C35.1352,4.00316369 33.1792,3.37816369 32.2192,4.44416369 C30.7252,4.46016369 29.2312,4.47616369 27.7372,4.49316369 C27.0132,4.51216369 26.5772,4.90516369 26.3322,5.54216369 C26.0302,5.28016369 25.7322,4.88316369 25.3952,5.63616369 C24.9552,5.62616369 24.5152,5.61616369 24.0742,5.60516369 C22.1812,5.64116369 22.6722,7.51416369 21.9122,8.42316369 C22.0672,10.7201637 22.2192,13.0171637 21.4582,15.2521637 C20.9122,17.4481637 22.8882,19.1871637 22.5522,21.3431637 C21.5362,21.7431637 22.2182,22.9431637 21.5452,23.5051637 C21.1122,24.2461637 20.4262,24.7121637 19.7402,25.1771637 C18.9952,25.9601637 17.9202,26.4061637 17.3892,27.4081637 C17.1752,27.2051637 16.9332,27.0491637 16.6492,26.9631637 C15.5862,26.7131637 14.5832,27.2771637 13.5342,27.1911637 C12.9542,27.1361637 12.3742,27.0891637 11.8012,27.2501637 C10.9532,27.7681637 10.0242,28.0781637 9.0812,28.3481637 C8.5422,28.5481637 8.0092,28.7631637 7.4772,28.9821637 C6.6502,29.3391637 5.7312,29.3991637 4.9102,29.7761637 C4.1232,30.3351637 3.1092,30.5871637 2.5232,31.4171637 C2.5112,31.4081637 2.5002,31.3981637 2.4882,31.3881637 C2.1822,31.2721637 1.9082,31.3291637 1.6602,31.5351637 C1.4352,31.5591637 1.2102,31.5841637 0.9862,31.6081637 C0.7622,32.0521637 0.5382,32.4971637 0.3142,32.9411637 C-0.0518,33.3611637 -0.0908,33.7671637 0.2342,34.1571637 C0.1902,34.2101637 0.1442,34.2621637 0.1002,34.3161637 C-0.0368,34.8261637 -0.0818,35.3221637 0.2852,35.7651637 C0.7332,35.6201637 0.9162,35.8761637 1.0182,36.2531637 C1.2292,36.3361637 1.4402,36.4191637 1.6512,36.5021637 C1.8792,36.4561637 2.1082,36.4091637 2.3362,36.3611637 C3.2822,37.2421637 4.2562,36.9921637 5.2382,36.4351637 L5.2382,36.4351637 C8.3932,38.3561637 11.4502,35.5931637 14.5782,36.2401637 C15.1802,36.2391637 15.7822,36.2391637 16.3842,36.2381637 C16.9852,35.8571637 17.5862,35.4751637 18.1862,35.0941637 C18.5732,35.0861637 18.9602,35.0791637 19.3472,35.0701637 C19.6052,34.6071637 19.8642,34.1441637 20.1222,33.6811637 C21.4042,33.6501637 22.6862,33.6191637 23.9682,33.5871637 C24.2182,33.4031637 24.4662,33.2161637 24.7132,33.0281637 C24.8522,32.9411637 24.9812,32.8411637 25.1072,32.7381637 C25.8952,32.5791637 26.6832,32.4191637 27.4712,32.2601637 C28.2112,31.7951637 29.2262,32.3751637 29.8872,31.6131637 C30.3442,31.2581637 30.8142,30.9241637 31.3132,30.6361637 C32.1652,30.1131637 33.1602,29.7931637 33.7762,28.9311637 C33.9262,29.0561637 34.1052,29.1291637 34.3212,29.1341637 C35.4082,29.0071637 36.1932,28.3351637 36.9792,27.6641637 C37.7412,27.5901637 38.5032,27.5171637 39.2652,27.4441637 C39.3212,27.5581637 39.3782,27.6721637 39.4492,27.7801637 C40.0342,28.4801637 40.7842,28.8231637 41.6972,28.8081637 C42.0362,28.7761637 42.3642,28.7071637 42.6832,28.5851637 C44.9282,27.2491637 47.7432,27.6281637 49.9342,26.1421637 C50.5652,25.6611637 51.1202,25.1041637 51.6102,24.4831637 C51.9842,23.9701637 52.2372,23.4151637 52.2582,22.7701637 C52.6852,22.7501637 52.9452,22.4431637 53.1542,22.0521637 C53.5102,21.0511637 53.5012,20.0551637 53.1112,19.0651637" id="Fill-19" fill="#252525" mask="url(#mask-6)"></path>
                </g>
                <path d="M49.922,136.9426 L49.909,136.9296 C50.479,137.5496 50.034,138.4156 50.428,139.0756 C50.548,139.1376 50.663,139.1716 50.776,139.1946 C50.938,139.5716 51.1,139.9486 51.262,140.3256 C51.526,140.5646 51.789,140.8036 52.052,141.0436 C51.671,141.9116 52.426,142.4096 52.707,143.0626 C52.58,143.2656 52.552,143.4806 52.623,143.7086 C53.088,144.1486 53.552,144.5876 54.016,145.0266 C54.668,145.8446 55.524,145.8606 56.437,145.6406 C56.505,145.6106 56.567,145.5766 56.632,145.5446 C56.701,146.0596 56.77,146.5756 56.839,147.0906 C56.839,147.0916 56.682,147.1456 56.682,147.1456 C56.855,147.3986 57.078,147.4416 57.344,147.3026 C57.8,147.2636 58.255,147.2236 58.712,147.1836 C58.933,147.4116 59.201,147.5086 59.515,147.4726 C60.276,147.2276 60.88,146.8186 61.061,145.9716 C61.06,145.9476 61.053,145.9266 61.051,145.9036 C62.91,145.7006 64.346,145.1446 63.574,142.7496 C63.605,142.7556 63.629,142.7716 63.661,142.7756 C64.781,142.7876 65.857,142.6496 66.755,141.8886 C66.903,141.6766 66.931,141.4686 66.853,141.2616 C67.798,140.8006 68.413,139.8356 69.416,139.4636 C69.644,139.2646 69.812,139.0256 69.912,138.7376 C70.066,137.7436 70.337,136.7646 70.212,135.7476 C70.11,135.1696 69.901,134.6366 69.546,134.1666 C69.356,133.9456 69.13,133.7756 68.859,133.6666 C68.172,133.4286 67.215,133.9596 66.801,132.9426 C66.549,133.1356 66.297,133.3296 66.045,133.5236 C65.891,133.7646 65.739,134.0086 65.598,134.2576 C65.569,134.3826 65.526,134.4846 65.478,134.5796 C64.875,134.8786 64.218,135.0126 63.52,135.0216 C63.47,135.2176 63.461,135.4156 63.495,135.6156 C63.257,135.6576 63.02,135.6996 62.782,135.7416 C61.668,134.6726 60.478,137.1946 59.373,135.6686 C59.117,135.4226 58.86,135.1776 58.604,134.9316 L58.714,132.5076 C58.753,132.5066 58.792,132.5106 58.832,132.5096 C59.331,132.3686 59.679,132.1256 59.507,131.5246 C59.419,131.3276 59.374,131.1206 59.371,130.9036 C59.097,130.6756 58.823,130.4466 58.549,130.2176 C58.388,128.4786 57.126,128.8206 56.017,128.8716 C56.002,129.0416 55.984,129.2116 55.961,129.3806 C55.236,129.3976 54.856,128.1976 53.962,128.8136 L52.68,128.8396 C52.403,129.2666 52.126,129.6936 51.848,130.1216 C50.699,130.3776 50.726,131.5756 50.128,132.2746 C49.819,133.1526 49.69,134.0386 50.011,134.9436 C49.939,135.1676 49.868,135.3906 49.797,135.6146 C49.839,136.0576 49.88,136.5006 49.922,136.9426" id="Fill-21" fill="#252525"></path>
                <polygon id="Fill-23" fill="#252525" points="34.7892 251.7595 34.7842 251.7645 34.7842 251.7675"></polygon>
                <path d="M92.632,120.655 C92.702,120.686 92.766,120.709 92.83,120.732 C92.754,120.771 92.663,120.8 92.562,120.822 C92.583,120.766 92.599,120.712 92.632,120.655 M81.916,116.585 C81.929,117.249 81.942,117.913 81.955,118.577 C81.948,119.245 81.941,119.912 81.934,120.58 C82.106,120.844 82.341,121.03 82.632,121.145 C82.931,121.219 83.234,121.259 83.542,121.249 C84.663,120.99 85.586,121.672 86.606,121.892 C87.09,121.936 87.573,121.979 88.057,122.022 C88.076,122.072 88.086,122.122 88.107,122.171 C88.502,122.822 88.999,123.166 89.741,122.791 C89.776,123.593 90.371,124.008 90.928,124.446 C91.41,124.784 91.909,125.076 92.517,125.114 C92.678,125.101 92.821,125.054 92.953,124.984 C93.134,125.808 93.631,126.464 94.175,127.092 C94.795,127.746 95.256,128.51 95.718,129.271 C96.233,130.069 96.871,130.655 97.865,130.634 C97.814,130.782 97.792,130.94 97.806,131.109 C98.22,131.764 98.007,132.988 99.22,132.913 C99.09,133.238 99.087,133.576 99.227,133.929 C99.305,133.991 99.383,134.052 99.461,134.114 C99.305,134.37 99.216,134.645 99.222,134.948 C99.554,136.014 100.207,136.838 101.103,137.479 C101.509,137.706 101.939,137.834 102.408,137.802 C102.537,137.724 102.667,137.647 102.797,137.57 C103.031,137.329 103.265,137.089 103.5,136.848 C103.962,136.936 104.174,136.651 104.333,136.287 C104.574,135.818 104.814,135.347 105.055,134.878 C105.303,134.018 106.418,133.404 105.784,132.292 C105.631,132.327 105.494,132.321 105.363,132.299 C105.403,132.271 105.444,132.245 105.486,132.211 C105.585,132.03 105.634,131.836 105.635,131.63 C105.762,131.611 105.884,131.576 106.003,131.533 C106.003,131.533 106.003,131.533 106.003,131.534 C106.3,131.697 106.588,131.676 106.868,131.493 C107.216,130.613 106.505,129.481 107.518,128.759 C107.493,127.85 108.246,126.824 107.114,126.083 C107.219,125.926 107.278,125.753 107.292,125.565 C106.48,124.981 107.41,123.63 106.254,123.197 C105.82,122.985 105.384,122.773 104.949,122.561 C104.886,122.16 104.822,121.759 104.759,121.359 C104.056,120.621 102.862,121.463 102.208,120.565 C102.198,120.389 102.177,120.215 102.147,120.042 C100.302,118.584 98.247,117.512 96.056,116.688 C95.604,116.409 95.152,116.131 94.7,115.852 C94.642,115.91 94.585,115.968 94.528,116.026 C93.912,115.969 93.296,115.912 92.68,115.855 C92.461,115.363 92.241,114.872 92.022,114.381 C91.325,114.445 90.63,114.508 89.933,114.572 L90.118,114.417 L90,114.207 C89.532,114.012 89.064,113.817 88.596,113.622 C88.362,113.711 88.129,113.799 87.895,113.887 C86.015,113.382 84.344,114.537 82.531,114.567 L82.569,114.574 C82.36,114.742 82.265,114.944 82.28,115.178 C81.285,115.348 83.066,116.467 81.916,116.585" id="Fill-25" fill="#252525"></path>
            </g>
        </g>
    </g>
</svg>