<?xml version="1.0" encoding="UTF-8"?>
<svg width="47px" height="191px" viewBox="0 0 47 191" version="1.1" xmlns="http://www.w3.org/2000/svg" xmlns:xlink="http://www.w3.org/1999/xlink">
    <title>title_颜氏家训</title>
    <defs>
        <polygon id="path-1" points="0 0 41.1509 0 41.1509 30.7091937 0 30.7091937"></polygon>
    </defs>
    <g id="home" stroke="none" stroke-width="1" fill="none" fill-rule="evenodd">
        <g id="home备份" transform="translate(-1484.000000, -34.000000)">
            <g id="title_颜氏家训" transform="translate(1484.000000, 34.000000)">
                <g id="编组" transform="translate(5.608500, 111.884217)">
                    <mask id="mask-2" fill="white">
                        <use xlink:href="#path-1"></use>
                    </mask>
                    <g id="Clip-2"></g>
                    <path d="M27.35,18.5303507 C27.05,18.3803507 27.071,18.1843507 27.265,18.0003507 C27.313,17.9543507 27.512,17.9683507 27.544,18.0183507 C27.71,18.2733507 27.557,18.4213507 27.35,18.5303507 L27.35,18.5303507 Z M20.623,13.8283507 C20.777,13.2973507 21,13.0853507 21.329,13.2093507 C20.967,13.3013507 21.179,13.9123507 20.623,13.8283507 L20.623,13.8283507 Z M19.664,13.1813507 C19.51,12.9963507 19.334,12.8223507 19.212,12.6173507 C19.168,12.5433507 19.229,12.3773507 19.288,12.2823507 C19.323,12.2263507 19.47,12.1833507 19.526,12.2133507 C19.6,12.2523507 19.664,12.3613507 19.682,12.4503507 C19.725,12.6763507 19.74,12.9073507 19.766,13.1363507 C19.732,13.1513507 19.698,13.1673507 19.664,13.1813507 L19.664,13.1813507 Z M18.209,12.9823507 C18.169,12.9463507 18.129,12.9103507 18.088,12.8743507 C18.056,12.6143507 17.999,12.3193507 18.353,12.2483507 C18.464,12.2253507 18.613,12.3923507 18.744,12.4733507 C18.566,12.6423507 18.388,12.8123507 18.209,12.9823507 L18.209,12.9823507 Z M18.515,15.5383507 C18.1,15.2603507 18.063,15.1183507 18.207,14.2563507 C18.67,14.6953507 18.781,15.1953507 18.515,15.5383507 L18.515,15.5383507 Z M18.329,21.0003507 C18.244,20.8963507 18.076,20.7763507 18.092,20.6923507 C18.118,20.5573507 18.265,20.4453507 18.361,20.3243507 C18.447,20.4173507 18.533,20.5093507 18.647,20.6333507 C18.523,20.7753507 18.426,20.8873507 18.329,21.0003507 L18.329,21.0003507 Z M17.747,27.4263507 C17.705,27.3563507 17.663,27.2853507 17.621,27.2153507 L18.018,26.8893507 C18.089,27.0013507 18.161,27.1133507 18.233,27.2243507 C18.071,27.2923507 17.909,27.3593507 17.747,27.4263507 L17.747,27.4263507 Z M17.295,26.5933507 C17.267,26.3163507 17.238,26.0393507 17.206,25.7423507 C17.699,25.8323507 17.699,25.8323507 17.295,26.5933507 L17.295,26.5933507 Z M16.79,29.4233507 C16.433,29.1363507 16.43,28.9683507 16.883,28.4813507 C16.912,28.8603507 16.933,29.1353507 16.954,29.4113507 L16.79,29.4233507 Z M14.731,26.8013507 C14.7,26.7703507 14.669,26.7413507 14.638,26.7113507 C14.795,26.5183507 14.953,26.3263507 15.11,26.1343507 C15.158,26.1773507 15.206,26.2203507 15.254,26.2633507 C15.283,26.6603507 14.976,26.6973507 14.731,26.8013507 L14.731,26.8013507 Z M17.159,11.4533507 C17.108,10.8423507 17.163,10.7763507 17.677,10.8023507 C17.728,11.1703507 17.663,11.2553507 17.159,11.4533507 L17.159,11.4533507 Z M16.419,14.0533507 C16.355,14.1173507 16.166,14.0513507 16.033,14.0443507 C16.024,13.9923507 16.015,13.9413507 16.006,13.8903507 C16.154,13.7763507 16.302,13.6623507 16.45,13.5483507 L16.564,13.6333507 C16.52,13.7773507 16.514,13.9613507 16.419,14.0533507 L16.419,14.0533507 Z M14.177,9.54335066 L14.278,9.44935066 C14.501,9.69135066 14.725,9.93335066 14.999,10.2313507 C14.568,10.2163507 14.233,9.89635066 14.177,9.54335066 L14.177,9.54335066 Z M13.558,11.3793507 C13.429,11.4003507 13.278,11.4713507 13.178,11.4273507 C13.093,11.3903507 13.067,11.2193507 13.015,11.1073507 C13.054,11.0683507 13.093,11.0283507 13.131,10.9893507 C13.28,11.0723507 13.429,11.1553507 13.579,11.2393507 C13.572,11.2853507 13.565,11.3323507 13.558,11.3793507 L13.558,11.3793507 Z M13.124,12.5573507 C13.077,12.6083507 12.982,12.6603507 12.923,12.6463507 C12.686,12.5903507 12.454,12.5093507 12.168,12.4203507 C12.474,11.9683507 12.935,11.9783507 13.141,12.3793507 C13.164,12.4263507 13.158,12.5223507 13.124,12.5573507 L13.124,12.5573507 Z M14.26,7.42835066 C14.326,7.81535066 14.37,8.07535066 14.422,8.38335066 C14.018,8.26835066 13.725,8.18435066 13.35,8.07835066 C13.641,7.87035066 13.891,7.69235066 14.26,7.42835066 L14.26,7.42835066 Z M14.247,4.32835066 C14.142,4.06735066 14.066,3.87835066 13.99,3.68835066 C14.074,3.68435066 14.196,3.64435066 14.237,3.68435066 C14.38,3.82735066 14.624,3.97035066 14.247,4.32835066 L14.247,4.32835066 Z M15.738,5.45435066 C15.857,5.52235066 15.95,5.63635066 16.121,5.79835066 C15.923,5.85735066 15.787,5.94535066 15.716,5.90835066 C15.623,5.86035066 15.561,5.71735066 15.531,5.60435066 C15.522,5.57235066 15.704,5.43535066 15.738,5.45435066 L15.738,5.45435066 Z M15.75,3.13535066 C15.784,3.10635066 15.96,3.18435066 16.027,3.25535066 C16.157,3.39335066 16.255,3.56135066 16.411,3.77935066 C16.034,3.79435066 15.693,3.87935066 15.609,3.44735066 C15.591,3.35135066 15.671,3.20735066 15.75,3.13535066 L15.75,3.13535066 Z M24.36,6.86535066 L24.36,7.62935066 C24.148,7.41635066 24.007,7.27335066 23.867,7.13235066 C24.008,7.05535066 24.149,6.97935066 24.36,6.86535066 L24.36,6.86535066 Z M39.762,21.2853507 C39.736,21.2873507 39.709,21.2683507 39.683,21.2593507 C39.377,21.1473507 39.079,20.9783507 38.765,20.9403507 C38.402,20.8953507 38.033,20.9533507 37.776,20.6033507 C37.735,20.5483507 37.605,20.4963507 37.553,20.5203507 C37.173,20.7033507 36.88,20.4893507 36.568,20.3363507 C36.49,20.2983507 36.372,20.2593507 36.305,20.2913507 C35.887,20.4863507 35.857,19.9833507 35.608,19.9193507 C35.35,19.8513507 35.085,20.1013507 34.787,19.8283507 C34.471,19.5373507 34.057,19.3433507 33.666,19.1473507 C33.216,18.9223507 32.744,18.7403507 32.284,18.5343507 C32.221,18.5073507 32.147,18.4633507 32.121,18.4063507 C31.917,17.9853507 31.53,17.7973507 31.124,17.7063507 C30.54,17.5743507 30.137,16.9833507 29.473,17.0793507 C29.442,17.0843507 29.396,17.0463507 29.37,17.0153507 C28.971,16.5703507 28.41,16.3613507 27.902,16.1113507 C27.266,15.7993507 26.634,15.5183507 26.043,15.1003507 C25.295,14.5693507 24.431,14.2053507 23.635,13.7373507 C23.4,13.5983507 23.232,13.3473507 23.031,13.1513507 C22.948,13.0703507 22.865,12.9403507 22.77,12.9283507 C22.411,12.8853507 22.1,12.7883507 21.85,12.5003507 C21.747,12.3823507 21.566,12.2663507 21.418,12.2643507 C21.104,12.2593507 20.962,12.0873507 20.784,11.8673507 C20.476,11.4883507 20.465,11.4413507 20.874,11.1513507 C21.446,10.7473507 22.229,10.9113507 22.772,10.4333507 C22.78,10.4263507 22.801,10.4373507 22.813,10.4313507 C23.05,10.3323507 23.293,10.2473507 23.519,10.1273507 C23.842,9.95635066 24.143,9.74535066 24.468,9.57735066 C25.243,9.17635066 26.038,8.81135066 26.8,8.38835066 C27.306,8.10735066 27.785,7.77235066 28.244,7.42035066 C28.415,7.28735066 28.582,7.04735066 28.604,6.84035066 C28.693,6.00935066 28.702,5.16635066 28.072,4.50635066 C27.832,4.25535066 27.522,3.98735066 27.202,3.91535066 C26.756,3.81335066 26.269,3.87135066 25.803,3.90135066 C25.666,3.90935066 25.463,4.02935066 25.423,4.14435066 C25.331,4.40735066 25.233,4.39035066 24.987,4.34135066 C24.73,4.28835066 24.441,4.39135066 24.165,4.42635066 C24.218,4.66135066 24.254,4.90135066 24.329,5.12935066 C24.361,5.22635066 24.472,5.29935066 24.557,5.39335066 C24.53,5.44535066 24.514,5.50135066 24.479,5.54035066 C23.781,6.33035066 23.089,7.12435066 22.377,7.90135066 C22.103,8.19935066 21.662,8.40235066 21.512,8.74335066 C21.217,9.41635066 20.669,9.83135066 20.194,10.3253507 C19.88,10.6523507 19.373,10.5983507 19.098,10.2383507 C18.99,10.0973507 18.872,9.95435066 18.73,9.85235066 C18.139,9.42735066 17.554,8.98835066 16.931,8.61335066 C16.576,8.39935066 16.151,8.30135066 15.76,8.14435066 C15.674,8.11035066 15.537,8.05935066 15.531,8.00335066 C15.517,7.89135066 15.538,7.72535066 15.613,7.66235066 C16.224,7.14035066 16.848,6.63435066 17.474,6.13135066 C17.746,5.91235066 18.053,5.73235066 18.31,5.49835066 C18.566,5.26435066 18.778,4.98435066 19.01,4.72435066 C19.199,4.51335066 19.433,4.33235066 19.008,4.08835066 C18.697,3.90935066 18.658,3.55635066 18.9,3.44035066 C19.338,3.23035066 19.726,2.86435066 20.318,3.14135066 C20.67,3.30635066 21.097,3.26535066 21.429,2.88535066 C21.558,2.73735066 21.873,2.73535066 22.108,2.70335066 C22.239,2.68535066 22.383,2.77135066 22.517,2.76135066 C23.017,2.72635066 23.457,2.83235066 23.832,3.18735066 C23.89,3.24135066 24.044,3.19135066 24.154,3.19035066 C24.145,2.82635066 24.416,2.71535066 24.677,2.56935066 C24.753,2.52635066 24.782,2.35035066 24.786,2.23335066 C24.816,1.45935066 24.003,0.388350665 23.142,0.139350665 C22.638,-0.00664933547 22.118,-0.148649335 21.639,0.329350665 C21.462,0.505350665 21.096,0.489350665 20.819,0.569350665 C20.653,0.617350665 20.481,0.661350665 20.33,0.743350665 C19.989,0.927350665 19.675,1.17535066 19.318,1.31735066 C19.068,1.41835066 18.743,1.32835066 18.492,1.42635066 C17.962,1.63435066 17.459,1.84335066 16.862,1.83635066 C16.518,1.83135066 16.181,2.10935066 15.825,2.17335066 C15.433,2.24235066 15.002,2.13135066 14.715,2.53135066 C14.677,2.58535066 14.566,2.59535066 14.485,2.60935066 C13.937,2.69835066 13.386,2.76735066 12.841,2.87335066 C12.283,2.98035066 11.634,2.98435066 11.203,3.28635066 C10.687,3.64735066 10.119,3.46435066 9.623,3.70935066 C9.392,3.82335066 9.111,3.83335066 8.792,3.90335066 C8.472,3.75635066 8.079,3.54235066 7.661,3.39935066 C7.535,3.35635066 7.251,3.46835066 7.198,3.58435066 C7.1,3.79335066 7.252,3.93635066 7.476,4.05735066 C7.911,4.29335066 8.326,4.57535066 8.714,4.88235066 C8.953,5.06935066 9.107,5.36335066 9.342,5.55735066 C9.462,5.65735066 9.674,5.66535066 9.847,5.67635066 C10.101,5.69435066 10.358,5.66635066 10.613,5.67935066 C10.775,5.68835066 10.935,5.73835066 10.993,5.75035066 C11.189,5.56335066 11.315,5.34235066 11.443,5.34235066 C11.814,5.33935066 11.939,5.15035066 11.961,4.79235066 C12.18,4.83035066 12.368,4.87635066 12.558,4.89135066 C12.755,4.90835066 12.955,4.90635066 13.153,4.89335066 C13.447,4.87635066 13.739,4.83835066 14.032,4.81635066 C14.327,4.79435066 14.623,4.77335066 14.92,4.76735066 C15.049,4.76435066 15.178,4.80035066 15.307,4.81735066 C15.246,4.95835066 15.224,5.15035066 15.118,5.22735066 C14.854,5.41735066 14.557,5.38635066 14.301,5.18335066 C14.126,5.04535066 13.988,5.03435066 13.906,5.25535066 C13.808,5.51535066 13.647,5.61735066 13.363,5.60835066 C13.262,5.60535066 13.157,5.77235066 13.053,5.86135066 C13.165,5.96535066 13.264,6.09935066 13.396,6.16135066 C13.474,6.19835066 13.604,6.11735066 13.713,6.09635066 C14.3,5.98035066 14.762,6.42635066 14.584,6.96435066 C14.101,6.89635066 13.721,6.40435066 13.168,6.58835066 C13.132,6.59935066 13.064,6.50035066 13.004,6.46635066 C12.719,6.30335066 12.477,6.38635066 12.255,6.59935066 C11.709,7.12335066 11.205,7.70335066 10.605,8.15435066 C9.618,8.89435066 8.842,9.88435066 7.733,10.4863507 C7.183,10.7843507 6.717,11.2343507 6.208,11.6093507 C6.028,11.7433507 5.844,11.8763507 5.645,11.9803507 C5.244,12.1913507 4.82,12.3633507 4.427,12.5893507 C4.141,12.7523507 3.89,12.9743507 3.594,13.1923507 C3.965,13.4953507 4.21,13.4173507 4.49,13.2483507 C4.704,13.1183507 4.966,13.0123507 5.211,13.0013507 C5.642,12.9793507 5.995,12.9483507 6.413,12.6823507 C7.299,12.1183507 8.296,11.7253507 9.262,11.2923507 C9.543,11.1663507 9.727,11.0523507 9.612,10.7923507 C9.85,10.7923507 10.139,10.8733507 10.336,10.7733507 C10.658,10.6103507 10.921,10.3293507 11.209,10.0983507 C11.285,10.0383507 11.371,9.92635066 11.44,9.93535066 C11.772,9.98035066 11.95,9.76835066 12.162,9.57935066 C12.363,9.39935066 12.594,9.27735066 12.746,9.66135066 C12.901,10.0493507 12.786,10.4883507 12.46,10.7043507 C12.394,10.7473507 12.294,10.8203507 12.298,10.8733507 C12.329,11.2893507 12.025,11.4993507 11.787,11.7533507 C11.425,12.1363507 11.072,12.5293507 10.71,12.9143507 C10.238,13.4173507 9.795,13.9553507 9.277,14.4053507 C8.588,15.0053507 7.801,15.4933507 7.129,16.1083507 C6.741,16.4653507 6.304,16.7323507 5.892,17.0443507 C5.254,17.5273507 4.642,18.0503507 3.852,18.2993507 C3.675,18.3553507 3.541,18.5513507 3.37,18.6973507 C3.857,19.0333507 4.711,19.0493507 5.021,18.7383507 C5.223,18.5363507 5.417,18.4893507 5.688,18.5153507 C6.01,18.5473507 6.371,18.6203507 6.513,18.1523507 C6.537,18.0753507 6.807,18.0693507 6.965,18.0363507 C7.075,18.0113507 7.275,18.0183507 7.285,17.9743507 C7.371,17.6213507 7.689,17.6623507 7.918,17.6033507 C8.642,17.4153507 9.177,16.7673507 9.975,16.7703507 C9.985,16.7703507 9.995,16.7513507 10.006,16.7433507 C10.475,16.4343507 10.873,16.0383507 11.338,15.7163507 C12.02,15.2443507 12.577,14.5943507 13.218,14.0573507 C13.619,13.7223507 14.076,13.4553507 14.517,13.1503507 C14.59,12.9883507 14.65,12.6433507 14.772,12.6203507 C15.232,12.5323507 15.34,12.2403507 15.439,11.8553507 C15.473,11.7233507 15.707,11.6183507 15.871,11.5603507 C15.913,11.5463507 16.042,11.7543507 16.119,11.8683507 C16.18,11.9603507 16.197,12.1053507 16.278,12.1563507 C16.603,12.3623507 16.468,12.5483507 16.266,12.7173507 C15.978,12.9563507 15.774,13.2253507 15.582,13.5653507 C15.163,14.3073507 14.602,14.9703507 14.091,15.6603507 C13.907,15.9083507 13.625,16.1313507 14.063,16.4053507 C14.112,16.4353507 14.087,16.5833507 14.096,16.6763507 C14.001,16.6763507 13.85,16.7153507 13.819,16.6703507 C13.59,16.3413507 13.448,16.5363507 13.275,16.7263507 C12.929,17.1083507 12.594,17.5043507 12.21,17.8453507 C11.684,18.3153507 11.113,18.7343507 10.571,19.1863507 C9.611,19.9863507 8.674,20.8143507 7.696,21.5933507 C7.165,22.0153507 6.578,22.3703507 6.003,22.7353507 C5.442,23.0923507 4.838,23.3853507 4.302,23.7743507 C3.675,24.2283507 3.04,24.6553507 2.313,24.9253507 C2.019,25.0343507 1.665,25.0423507 1.423,25.2153507 C0.932,25.5663507 0.499,25.9993507 0,26.4353507 C0.118,26.4703507 0.223,26.5403507 0.311,26.5233507 C1.057,26.3843507 1.805,26.2483507 2.542,26.0703507 C3.271,25.8953507 3.829,25.2213507 4.662,25.3343507 C4.688,25.3373507 4.72,25.3283507 4.745,25.3163507 C5.086,25.1463507 5.427,24.9743507 5.767,24.8023507 C6.481,24.4443507 7.178,24.0443507 7.914,23.7433507 C8.316,23.5793507 8.704,23.4743507 9.069,23.1803507 C9.619,22.7363507 10.283,22.4323507 10.901,22.0743507 C11.055,21.9853507 11.237,21.9373507 11.378,21.8323507 C11.73,21.5673507 12.057,21.2703507 12.409,21.0063507 C12.879,20.6533507 13.391,20.3503507 13.833,19.9673507 C14.235,19.6213507 14.561,19.1883507 14.935,18.8083507 C15.117,18.6243507 15.333,18.4723507 15.521,18.3163507 C15.408,18.1233507 15.326,17.9803507 15.208,17.7793507 C15.394,17.7503507 15.552,17.6743507 15.668,17.7163507 C15.951,17.8173507 16.069,17.6953507 16.205,17.4733507 C16.347,17.2443507 16.521,17.0163507 16.729,16.8483507 C17.125,16.5303507 17.189,15.7913507 16.811,15.4423507 C16.626,15.2733507 16.669,15.1233507 16.883,15.0813507 C17.041,15.0513507 17.31,15.0783507 17.372,15.1773507 C17.482,15.3543507 17.501,15.6053507 17.506,15.8263507 C17.51,16.0283507 17.373,16.2593507 17.433,16.4283507 C17.494,16.5993507 17.722,16.7113507 17.879,16.8493507 C17.813,16.9333507 17.565,17.8033507 17.563,17.9683507 C17.562,18.0363507 17.543,18.1053507 17.534,18.1743507 C17.487,18.5193507 17.411,18.8653507 17.401,19.2123507 C17.382,19.9943507 17.407,20.7773507 17.385,21.5603507 C17.381,21.7243507 17.252,21.8853507 17.179,22.0483507 C17.141,22.1323507 17.059,22.2153507 17.061,22.2983507 C17.073,22.9753507 16.955,23.6013507 16.665,24.2393507 C16.456,24.6973507 16.215,25.0853507 15.906,25.4323507 C15.714,25.3703507 15.559,25.2843507 15.399,25.2743507 C14.679,25.2313507 13.958,25.2083507 13.237,25.1863507 C13.13,25.1833507 13.009,25.2093507 12.917,25.2593507 C12.585,25.4453507 12.291,25.2633507 12.149,25.0493507 C11.948,24.7453507 11.708,24.7553507 11.426,24.7553507 C10.919,24.7563507 10.447,24.7093507 10.007,24.3673507 C9.705,24.1333507 9.282,24.0543507 8.912,23.9073507 C8.949,24.0923507 9.087,24.1823507 9.107,24.2943507 C9.142,24.4903507 9.183,24.8113507 9.082,24.8823507 C8.801,25.0783507 8.544,25.3973507 8.107,25.2873507 C8.011,25.2633507 7.87,25.4223507 7.708,25.5203507 C7.997,25.6673507 8.213,25.7773507 8.431,25.8853507 C8.519,25.9293507 8.64,26.0253507 8.693,25.9973507 C8.773,25.9553507 8.834,25.8303507 8.854,25.7313507 C8.897,25.5053507 9.462,24.8463507 9.675,24.8363507 C9.791,24.8303507 9.97,24.8513507 10.017,24.9263507 C10.195,25.2053507 10.413,25.3733507 10.752,25.3933507 C10.835,25.3983507 10.918,25.4883507 10.991,25.5513507 C11.166,25.7033507 11.324,25.8773507 11.509,26.0153507 C12.088,26.4493507 12.71,26.8333507 13.25,27.3093507 C13.693,27.7013507 14.071,28.1763507 14.425,28.6543507 C14.619,28.9173507 14.793,29.2523507 14.822,29.5693507 C14.884,30.2653507 14.927,30.3873507 15.57,30.6063507 C15.675,30.6423507 15.78,30.7013507 15.887,30.7053507 C16.069,30.7123507 16.261,30.7153507 16.431,30.6633507 C16.675,30.5883507 16.903,30.4643507 17.137,30.3563507 C17.514,30.1843507 17.953,30.0813507 18.253,29.8193507 C18.751,29.3843507 19.233,28.8913507 19.579,28.3343507 C19.788,27.9983507 20.198,27.7083507 20.112,27.2023507 C20.064,26.9213507 20.072,26.6343507 20.438,26.5183507 C20.494,26.5013507 20.526,26.3343507 20.528,26.2353507 C20.536,25.6753507 20.499,25.1203507 20.767,24.5853507 C20.899,24.3223507 20.946,23.9913507 20.946,23.6913507 C20.946,22.8713507 20.882,22.0513507 20.88,21.2303507 C20.879,20.5373507 20.939,19.8443507 20.955,19.1513507 C20.968,18.5423507 20.903,17.9253507 20.975,17.3223507 C21.035,16.8153507 20.945,16.5063507 20.352,16.4513507 C20.979,16.0953507 20.964,16.0993507 20.783,15.4323507 C20.7,15.1273507 20.817,14.8963507 21.129,14.8693507 C21.237,15.1053507 21.277,15.4173507 21.434,15.4963507 C21.924,15.7413507 22.295,16.0743507 22.66,16.4843507 C23.537,17.4723507 24.486,18.3953507 25.408,19.3433507 C25.551,19.4903507 25.696,19.6363507 25.85,19.7713507 C26.772,20.5763507 27.456,21.6153507 28.501,22.3103507 C29.25,22.8083507 29.928,23.4383507 30.547,24.0953507 C30.838,24.4043507 31.088,24.5083507 31.475,24.4923507 C32.058,24.4683507 32.644,24.4913507 33.228,24.4813507 C33.33,24.4793507 33.483,24.4463507 33.522,24.3773507 C33.69,24.0813507 33.963,24.0923507 34.242,24.0533507 C34.68,23.9943507 35.112,23.8943507 35.545,23.8063507 C35.798,23.7553507 36.054,23.7053507 36.3,23.6303507 C36.591,23.5413507 36.899,23.4673507 37.151,23.3093507 C37.439,23.1283507 37.703,23.1283507 38.025,23.1633507 C38.546,23.2193507 39.067,23.3443507 39.594,23.0353507 C39.937,22.8343507 40.382,22.8083507 40.779,22.6943507 C40.908,22.6573507 41.027,22.5893507 41.151,22.5353507 L41.151,22.0233507 C40.687,21.7803507 40.385,21.2323507 39.762,21.2853507 L39.762,21.2853507 Z" id="Fill-1" fill="#000000" mask="url(#mask-2)"></path>
                </g>
                <path d="M39.3809,164.133268 C38.9139,163.856268 38.9599,163.589268 39.1269,163.333268 C39.1699,163.268268 39.3319,163.281268 39.4389,163.260268 C39.4219,163.527268 39.4029,163.793268 39.3809,164.133268 L39.3809,164.133268 Z M38.6249,165.641268 C38.6009,165.589268 38.5759,165.538268 38.5519,165.487268 C38.6159,165.328268 38.6799,165.169268 38.7439,165.011268 C38.7869,164.993268 38.8309,164.976268 38.8739,164.957268 C38.9739,165.114268 39.0729,165.271268 39.1729,165.427268 L38.6249,165.641268 Z M38.8419,175.876268 C38.7119,175.812268 38.6169,175.674268 38.5069,175.567268 C38.5719,175.508268 38.6519,175.391268 38.6989,175.403268 C38.8209,175.432268 38.9299,175.520268 39.0439,175.583268 C39.0779,175.652268 39.1129,175.719268 39.1479,175.786268 C39.0449,175.821268 38.9119,175.911268 38.8419,175.876268 L38.8419,175.876268 Z M38.4079,180.120268 C38.2939,179.908268 38.1879,179.788268 38.1729,179.658268 C38.1639,179.578268 38.2929,179.482268 38.3599,179.393268 L38.7509,179.779268 C38.6649,179.864268 38.5799,179.949268 38.4079,180.120268 L38.4079,180.120268 Z M38.1599,180.711268 C38.2009,180.652268 38.3689,180.678268 38.4789,180.664268 C38.4939,180.875268 38.5089,181.086268 38.5249,181.297268 C38.0989,181.192268 37.9669,180.991268 38.1599,180.711268 L38.1599,180.711268 Z M37.6839,178.944268 C37.6579,178.836268 37.5769,178.702268 37.6139,178.626268 C37.7469,178.358268 37.9199,178.109268 38.1259,177.776268 C38.2539,178.029268 38.3259,178.172268 38.3919,178.302268 C38.2439,178.492268 38.1199,178.678268 37.9679,178.837268 C37.9049,178.903268 37.7799,178.910268 37.6839,178.944268 L37.6839,178.944268 Z M37.4219,177.309268 C37.3609,177.255268 37.3109,177.143268 37.3219,177.066268 C37.3679,176.756268 37.7679,176.503268 38.2439,176.541268 C38.0129,176.835268 37.8369,177.073268 37.6419,177.294268 C37.6049,177.336268 37.4629,177.345268 37.4219,177.309268 L37.4219,177.309268 Z M38.3139,166.912268 L38.2759,166.713268 C38.5209,166.529268 38.7669,166.344268 38.9689,166.192268 C39.0259,166.548268 39.0739,166.858268 39.1419,167.279268 C38.8499,167.150268 38.5819,167.031268 38.3139,166.912268 L38.3139,166.912268 Z M38.2119,172.562268 C38.0939,172.497268 37.9679,172.394268 37.9209,172.276268 C37.8979,172.221268 38.0489,172.096268 38.1219,172.003268 C38.2329,172.107268 38.3419,172.211268 38.5049,172.363268 C38.3639,172.462268 38.2489,172.582268 38.2119,172.562268 L38.2119,172.562268 Z M37.3829,172.131268 C37.2769,172.091268 37.1379,171.915268 37.1549,171.823268 C37.1789,171.695268 37.3319,171.589268 37.4299,171.473268 C37.5219,171.590268 37.6129,171.706268 37.7649,171.901268 C37.5889,172.013268 37.4529,172.157268 37.3829,172.131268 L37.3829,172.131268 Z M37.7579,170.091268 C37.8689,170.310268 37.9749,170.519268 38.1259,170.817268 C37.4159,170.536268 37.3799,170.455268 37.7579,170.091268 L37.7579,170.091268 Z M40.2109,155.693268 C40.0659,155.497268 39.8619,155.323268 39.7829,155.105268 C39.6079,154.622268 39.2559,154.368268 38.8129,154.188268 C38.6759,154.132268 38.5169,154.081268 38.4249,153.978268 C38.1049,153.616268 37.7129,153.614268 37.3029,153.725268 C36.1929,154.023268 35.6099,154.964268 34.8869,155.733268 C34.8779,155.741268 34.8949,155.777268 34.9119,155.852268 C35.0459,155.869268 35.2039,155.923268 35.3529,155.904268 C35.9249,155.827268 36.5749,156.311268 36.6259,156.902268 C36.6739,157.463268 36.7079,158.029268 36.7049,158.593268 C36.7019,159.328268 36.6269,160.064268 36.6409,160.798268 C36.6539,161.484268 36.7809,162.166268 36.7919,162.851268 C36.8049,163.643268 36.7489,164.435268 36.7139,165.227268 C36.6999,165.534268 36.6359,165.841268 36.6409,166.147268 C36.6509,166.868268 36.6889,167.590268 36.7149,168.312268 C36.7159,168.340268 36.7119,168.368268 36.7109,168.397268 C36.6849,168.976268 36.6519,169.555268 36.6359,170.134268 C36.6229,170.605268 36.6259,171.075268 36.6269,171.547268 C36.6269,172.219268 36.6119,172.893268 36.6529,173.563268 C36.6599,173.675268 36.9089,173.834268 37.0609,173.853268 C37.1539,173.864268 37.2989,173.663268 37.3749,173.530268 C37.4279,173.437268 37.4029,173.299268 37.4089,173.232268 C37.8259,173.297268 38.2039,173.358268 38.5829,173.417268 C38.3859,173.509268 38.1739,173.485268 38.0139,173.564268 C37.8449,173.647268 37.7279,173.833268 37.5789,173.963268 C37.5309,174.004268 37.4539,174.020268 37.3879,174.029268 C36.6699,174.136268 36.5299,174.399268 36.8569,175.060268 C37.0299,175.410268 37.0999,175.742268 36.9549,176.140268 C36.8179,176.515268 36.6049,176.918268 36.8419,177.334268 C37.1769,177.919268 37.0819,178.514268 36.9429,179.127268 C36.8009,179.755268 36.4829,180.359268 36.7039,181.046268 C36.7789,181.279268 36.7199,181.557268 36.7149,181.814268 C36.7139,181.917268 36.6909,182.022268 36.6849,182.126268 C36.6559,182.627268 36.6309,183.128268 36.6029,183.629268 C36.5959,183.737268 36.5289,183.890268 36.5779,183.945268 C36.9129,184.319268 36.7669,184.689268 36.6119,185.070268 C36.5859,185.135268 36.6099,185.220268 36.6109,185.295268 C36.6179,185.851268 36.6189,186.407268 36.6369,186.962268 C36.6419,187.123268 36.6739,187.289268 36.7289,187.441268 C36.8239,187.707268 36.9449,187.964268 37.0589,188.224268 C37.1019,188.322268 37.1299,188.472268 37.2049,188.504268 C37.4849,188.626268 37.5169,188.846268 37.4809,189.095268 C37.4189,189.525268 37.6119,189.841268 37.9019,190.122268 L38.4129,190.122268 C38.7439,189.689268 39.0729,189.254268 39.4089,188.824268 C39.4589,188.760268 39.5349,188.715268 39.6029,188.667268 C39.9859,188.397268 40.2249,188.092268 40.2079,187.560268 C40.1659,186.195268 40.1939,184.829268 40.1939,183.463268 L40.1939,181.494268 L40.1939,179.094268 L40.1939,174.529268 C40.1939,174.073268 40.1979,173.616268 40.1929,173.159268 C40.1879,172.719268 40.1769,172.278268 40.1619,171.837268 C40.1529,171.585268 40.1099,171.333268 40.1159,171.082268 C40.1309,170.474268 40.1629,169.866268 40.1939,169.259268 C40.2139,168.864268 40.2469,168.470268 40.2689,168.075268 C40.2759,167.949268 40.2769,167.821268 40.2669,167.695268 C40.2169,167.050268 40.1259,166.406268 40.1189,165.762268 C40.1099,164.888268 40.1739,164.014268 40.1889,163.140268 C40.1939,162.848268 40.1189,162.555268 40.1219,162.262268 C40.1259,161.842268 40.1679,161.421268 40.1929,161.001268 C40.2219,160.493268 40.1629,159.961268 40.2989,159.485268 C40.4819,158.847268 40.6099,158.219268 40.6329,157.559268 C40.6379,157.420268 40.7999,157.291268 40.8779,157.152268 C40.9399,157.040268 41.0619,156.869268 41.0239,156.812268 C40.7729,156.426268 40.4869,156.063268 40.2109,155.693268 L40.2109,155.693268 Z" id="Fill-3" fill="#000000"></path>
                <path d="M8.108,166.602068 C8.242,166.592068 8.43,166.568068 8.493,166.479068 C8.734,166.140068 9.071,166.196068 9.408,166.175068 C9.699,166.158068 10.016,166.174068 10.162,165.799068 C10.194,165.716068 10.426,165.699068 10.57,165.673068 C10.843,165.624068 11.123,165.613068 11.392,165.548068 C11.735,165.466068 12.069,165.344068 12.409,165.245068 C13.041,165.060068 13.652,164.775068 14.341,164.884068 C14.385,164.891068 14.448,164.801068 14.498,164.752068 C14.861,164.386068 15.29,164.329068 15.778,164.434068 C15.972,164.476068 16.192,164.446068 16.39,164.403068 C16.701,164.335068 16.998,164.200068 17.31,164.149068 C17.698,164.086068 18.096,164.087068 18.489,164.049068 C19.023,163.998068 19.574,164.335068 20.092,163.973068 C20.635,164.257068 20.985,163.866068 21.418,163.648068 C21.846,163.433068 22.119,162.961068 21.753,162.657068 C21.273,162.256068 21.111,161.417068 20.257,161.495068 C20.194,161.500068 20.12,161.406068 20.056,161.352068 C19.63,160.998068 19.195,161.041068 18.739,161.296068 C18.244,161.573068 17.777,161.937068 17.153,161.860068 C17.108,161.854068 17.058,161.910068 17.007,161.928068 C16.752,162.018068 16.498,162.110068 16.24,162.192068 C16.044,162.253068 15.84,162.290068 15.646,162.356068 C14.975,162.581068 14.306,162.815068 13.636,163.043068 C13.611,163.052068 13.579,163.040068 13.551,163.045068 C13.292,163.088068 13.02,163.100068 12.774,163.184068 C12.137,163.404068 11.523,163.698068 10.877,163.881068 C10.28,164.051068 9.748,164.368068 9.1,164.456068 C8.422,164.547068 7.784,164.928068 7.127,165.178068 C7.026,165.216068 6.916,165.243068 6.809,165.250068 C6.609,165.265068 6.335,165.180068 6.222,165.282068 C5.824,165.638068 5.331,165.372068 4.884,165.562068 C4.394,165.772068 3.758,165.585068 3.292,166.025068 C3.2,166.112068 3.002,166.103068 2.852,166.108068 C2.462,166.121068 2.054,166.044068 1.688,166.138068 C1.235,166.255068 0.891,166.159068 0.57,165.872068 C0.377,165.697068 0.198,165.656068 1.77635684e-15,165.848068 L1.77635684e-15,166.785068 C0.144,166.993068 0.29,167.201068 0.433,167.409068 C0.541,167.565068 0.62,167.753068 0.757,167.874068 C1.154,168.227068 1.602,168.524068 1.978,168.895068 C2.438,169.348068 2.572,169.319068 3.109,168.906068 C3.447,168.645068 3.697,168.304068 4.216,168.255068 C4.583,168.222068 4.917,167.862068 5.269,167.652068 C5.389,167.581068 5.511,167.506068 5.643,167.461068 C6.188,167.277068 6.807,167.206068 7.258,166.889068 C7.554,166.682068 7.796,166.624068 8.108,166.602068" id="Fill-5" fill="#000000"></path>
                <path d="M38.7022,85.0873681 C38.5922,85.0293681 38.5102,84.9183681 38.4162,84.8273681 C38.4932,84.7503681 38.6022,84.5953681 38.6392,84.6103681 C38.7502,84.6583681 38.8342,84.7723681 38.9542,84.8833681 C38.8462,84.9743681 38.7352,85.1053681 38.7022,85.0873681 M32.0462,76.1383681 C32.0952,75.8203681 32.4632,75.4193681 32.7172,75.4463681 C32.7912,75.4553681 32.9232,75.6683681 32.8972,75.7403681 C32.7542,76.1423681 32.4272,76.2053681 32.0462,76.1383681 M26.9452,72.6913681 C26.2022,73.2543681 25.4522,73.8103681 24.6842,74.3373681 C24.3822,74.5453681 24.0092,74.6483681 23.6992,74.8453681 C23.2602,75.1243681 22.8642,75.4703681 22.4232,75.7443681 C22.1402,75.9213681 21.8022,76.0073681 21.5012,76.1593681 C21.0722,76.3763681 20.6442,76.5993681 20.2352,76.8523681 C19.5052,77.3033681 18.8312,77.8803681 18.0522,78.2073681 C17.5252,78.4283681 17.2122,78.8823681 16.6902,79.0903681 C16.1852,79.2923681 15.7652,79.6993681 15.2882,79.9863681 C15.1482,80.0713681 14.9052,80.1323681 14.7822,80.0673681 C14.5112,79.9253681 14.6732,79.6993681 14.8042,79.5393681 C15.0122,79.2843681 15.1322,79.0323681 14.9412,78.7183681 C14.9212,78.6843681 14.9032,78.6353681 14.9112,78.6003681 C15.2332,77.3013681 14.9162,75.9903681 14.9922,74.6893681 C15.0152,74.2943681 15.1682,73.9103681 15.2332,73.5173681 C15.3082,73.0663681 15.3402,72.6073681 15.4132,72.1553681 C15.4452,71.9623681 15.5352,71.7773681 15.5992,71.5903681 C15.7502,71.6603681 15.9002,71.7323681 16.0512,71.8003681 C16.1252,71.8333681 16.2192,71.9063681 16.2732,71.8853681 C16.6602,71.7293681 17.0372,71.5483681 17.4212,71.3843681 C17.5792,71.3163681 17.7482,71.2723681 17.9102,71.2123681 C18.1492,71.1233681 18.3902,71.0383681 18.6232,70.9353681 C18.7492,70.8793681 18.8602,70.7193681 18.9732,70.7233681 C19.7342,70.7523681 20.2762,70.1933681 20.9562,70.0193681 C21.0902,69.9843681 21.2262,69.9393681 21.3612,69.9403681 C21.6752,69.9423681 21.9052,69.7803681 22.1752,69.6603681 C22.6572,69.4463681 23.1492,69.1893681 23.6362,69.0583681 C23.9682,68.9693681 24.3062,68.9603681 24.6352,68.7573681 C24.9042,68.5913681 25.2612,68.5423681 25.5862,68.5073681 C25.7002,68.4953681 25.8922,68.6543681 25.9492,68.7803681 C26.1662,69.2703681 26.3332,69.7803681 26.5392,70.2743681 C26.7162,70.6983681 26.9262,71.1083681 27.1102,71.5293681 C27.1922,71.7163681 27.2462,71.9143681 27.3462,72.2003681 C27.2152,72.3633681 27.1102,72.5663681 26.9452,72.6913681 M14.0512,62.1143681 C14.8112,62.4723681 15.4112,61.9403681 16.0822,61.8123681 C16.3292,61.7653681 16.5862,61.7683681 16.8392,61.7493681 C16.8672,61.7473681 16.8992,61.7613681 16.9232,61.7513681 C17.4542,61.5313681 17.9822,61.3043681 18.5152,61.0893681 C18.7032,61.0133681 18.9012,60.9593681 19.0982,60.9083681 C19.3252,60.8513681 19.5762,60.8523681 19.7782,60.7503681 C20.2062,60.5363681 20.6042,60.2643681 21.0262,60.0363681 C21.0922,60.0013681 21.2312,60.0553681 21.3132,60.1063681 C21.4912,60.2163681 21.6522,60.3523681 21.8212,60.4763681 C22.0152,60.6193681 22.2672,60.7233681 22.3922,60.9113681 C22.6262,61.2643681 22.8102,61.6543681 22.9722,62.0473681 C23.1612,62.5103681 23.2822,63.0003681 23.4752,63.4603681 C23.6732,63.9293681 23.9412,64.3663681 24.1452,64.8323681 C24.2992,65.1843681 24.4092,65.5563681 24.5192,65.9243681 C24.5382,65.9863681 24.4862,66.1173681 24.4312,66.1463681 C23.9722,66.3803681 23.6262,66.8623681 23.0302,66.7983681 C22.8052,66.7753681 22.6082,66.8023681 22.5252,67.0583681 C22.5082,67.1083681 22.4612,67.1963681 22.4432,67.1923681 C21.7972,67.0653681 21.4142,67.8453681 20.7282,67.6723681 C20.5092,67.6173681 20.2222,67.8173681 19.9692,67.9113681 C19.8802,67.9443681 19.7952,68.0613681 19.7192,68.0513681 C18.9692,67.9523681 18.3592,68.4623681 17.6372,68.5173681 C17.1552,68.5543681 16.6832,68.7453681 16.2082,68.8733681 C16.0752,68.9093681 15.9482,68.9933681 15.8142,69.0023681 C15.5912,69.0193681 15.3812,68.9733681 15.4332,68.6663681 C15.4792,67.6433681 15.5402,66.6193681 15.5642,65.5953681 C15.5762,65.1193681 15.5812,64.6273681 15.4702,64.1713681 C15.3722,63.7703681 15.1162,63.4053681 14.9102,63.0363681 C14.8782,62.9803681 14.7202,63.0083681 14.6422,62.9623681 C14.3632,62.7943681 14.0562,62.6483681 13.8342,62.4203681 C13.6902,62.2733681 13.8722,62.0303681 14.0512,62.1143681 M19.0722,59.6123681 C19.2652,59.6353681 19.4562,59.6783681 19.6472,59.7163681 C19.6372,59.7993681 19.6272,59.8833681 19.6182,59.9673681 C19.4122,59.9213681 19.2082,59.8763681 19.0032,59.8303681 C19.0262,59.7543681 19.0582,59.6103681 19.0722,59.6123681 M44.8162,83.8973681 C44.7112,83.7063681 44.8232,83.4003681 44.8292,83.1463681 C44.8332,82.9693681 44.8272,82.7913681 44.8242,82.6143681 C44.8092,81.9173681 44.3782,81.3083681 44.4392,80.5823681 C44.4952,79.9173681 44.4602,79.2423681 44.4472,78.5723681 C44.4432,78.3643681 44.3792,78.1573681 44.3432,77.9493681 C44.3032,77.9403681 44.2632,77.9303681 44.2232,77.9203681 C44.1352,78.0293681 43.9942,78.1283681 43.9702,78.2513681 C43.9082,78.5513681 43.8522,78.8673681 43.8812,79.1683681 C43.9432,79.8243681 43.5542,80.3313681 43.3552,80.8963681 C43.1592,81.4513681 42.8522,81.9673681 42.6172,82.5103681 C42.4282,82.9473681 42.2752,83.4003681 42.0982,83.8423681 C42.0842,83.8803681 42.0132,83.8963681 41.9662,83.9233681 C41.5942,83.5203681 41.2382,83.1323681 40.8792,82.7473681 C40.8372,82.7023681 40.7822,82.6613681 40.7242,82.6403681 C39.7252,82.2723681 39.2012,81.3373681 38.4272,80.6993681 C38.0042,80.3513681 37.7112,79.8453681 37.3532,79.4153681 C36.6832,78.6083681 36.0112,77.8033681 35.3342,77.0013681 C34.8642,76.4413681 34.5312,75.7703681 33.9372,75.3103681 C33.8452,75.2373681 33.7412,75.1153681 33.7322,75.0093681 C33.7012,74.6413681 33.4612,74.4913681 33.1902,74.2923681 C32.9672,74.1293681 32.8722,73.7923681 32.7192,73.5323681 C32.7142,73.5243681 32.6862,73.5293681 32.6792,73.5213681 C32.6112,73.4353681 32.5382,73.3523681 32.4802,73.2593681 C32.1102,72.6653681 31.7432,72.0693681 31.3752,71.4743681 C30.9192,70.7353681 30.4642,69.9953681 30.0102,69.2563681 C29.9952,69.2333681 29.9912,69.2033681 29.9782,69.1783681 C29.8512,68.9253681 29.7502,68.6533681 29.5892,68.4253681 C29.4232,68.1893681 29.3612,67.9263681 29.6142,67.8083681 C30.2412,67.5183681 30.8702,67.2023681 31.6112,67.2933681 C31.8822,67.3263681 32.2182,67.3253681 32.4372,67.1943681 C33.4292,66.6043681 34.4972,66.8573681 35.4952,66.9893681 C36.2552,67.0913681 36.8662,67.0873681 37.4002,66.5423681 C37.5322,66.4073681 37.5882,66.1813681 37.6332,65.9853681 C37.7532,65.4703681 37.3682,65.0983681 37.2402,64.6543681 C37.1072,64.1943681 36.9642,63.8603681 36.5002,63.6243681 C36.0472,63.3943681 34.9432,63.3053681 34.4972,63.5533681 C34.0102,63.8233681 33.4922,64.0413681 32.9802,64.2673681 C32.8942,64.3053681 32.7752,64.2673681 32.6712,64.2673681 C32.3762,64.2693681 32.0042,64.1613681 31.8052,64.3013681 C31.4342,64.5593681 31.0802,64.7073681 30.6372,64.6763681 C30.5622,64.6703681 30.4572,64.7043681 30.4082,64.7593681 C29.9412,65.2723681 29.3272,65.1033681 28.7712,65.0793681 C28.0952,65.0523681 27.9632,64.8713681 27.8322,64.1373681 C27.8272,64.1103681 27.8122,64.0773681 27.7912,64.0653681 C27.4132,63.8223681 27.3892,63.4543681 27.4052,63.0593681 C27.4082,62.9843681 27.2852,62.9123681 27.2382,62.8293681 C27.1502,62.6763681 27.0022,62.5143681 27.0062,62.3583681 C27.0162,61.9893681 26.9442,61.6653681 26.7152,61.3783681 C26.4572,61.0553681 26.4312,60.6923681 26.5252,60.3063681 C26.6012,59.9933681 26.6082,59.7453681 26.2672,59.5153681 C25.9072,59.2713681 25.6362,58.8933681 25.2752,58.5213681 C25.6632,58.3193681 26.0262,58.0173681 26.4282,57.9513681 C26.9842,57.8593681 27.4112,57.5563681 27.8892,57.3333681 C28.0222,57.2713681 28.1562,57.2083681 28.2952,57.1603681 C28.4912,57.0943681 28.7082,57.0723681 28.8872,56.9763681 C29.3272,56.7373681 29.7702,56.4953681 30.1742,56.2023681 C30.5202,55.9513681 30.9642,55.7313681 30.8372,55.1503681 C30.8162,55.0503681 30.9832,54.9233681 31.0132,54.7973681 C31.0762,54.5293681 31.2122,54.2133681 31.1282,53.9893681 C30.9492,53.5163681 30.6882,53.0583681 30.3832,52.6513681 C30.0932,52.2643681 29.8152,51.7893681 29.1782,51.8783681 C29.0592,51.8953681 28.9092,51.7313681 28.7842,51.6373681 C28.5312,51.4463681 28.2952,51.0983681 28.0342,51.0783681 C27.1032,51.0093681 26.1422,50.8983681 25.2862,51.4413681 C25.1912,51.5013681 25.0662,51.6283681 25.0752,51.7113681 C25.0882,51.8283681 25.1892,51.9753681 25.2952,52.0353681 C25.7132,52.2723681 25.7522,52.5663681 25.3852,52.8693681 C25.1692,53.0473681 24.9632,53.2383681 24.7502,53.4213681 C23.9732,54.0883681 23.2202,54.7853681 22.4122,55.4103681 C21.4992,56.1173681 20.5322,56.7533681 19.5972,57.4323681 C19.1902,57.7273681 18.8212,58.0743681 18.4042,58.3543681 C17.8882,58.7003681 17.3072,58.9593681 16.8152,59.3343681 C16.3592,59.6823681 15.9282,60.0533681 15.3802,60.2463681 C14.9152,60.4113681 14.4312,60.5383681 14.2102,61.0593681 C14.1872,61.1123681 14.1052,61.1513681 14.0422,61.1783681 C13.7332,61.3053681 13.5252,61.5173681 13.3782,61.8243681 C13.2172,62.1613681 13.0132,62.1653681 12.7212,61.9413681 C12.4022,61.6973681 12.0622,61.4793681 11.7192,61.2693681 C11.5012,61.1363681 11.2422,61.0663681 11.0352,60.9193681 C10.6902,60.6733681 10.3732,60.3883681 10.0442,60.1193681 C9.9942,60.1363681 9.9442,60.1523681 9.8942,60.1693681 C9.8632,60.6793681 9.7962,61.1913681 9.8172,61.6983681 C9.8282,61.9513681 9.9612,62.2253681 10.1092,62.4413681 C10.6162,63.1823681 11.0262,63.9483681 11.0842,64.8693681 C11.1042,65.1853681 11.1192,65.5303681 11.2542,65.8023681 C11.5002,66.2953681 11.5962,66.8023681 11.5862,67.3343681 C11.5752,67.9743681 11.4452,68.6253681 11.5272,69.2503681 C11.6542,70.2083681 11.7132,71.1583681 11.6832,72.1223681 C11.6672,72.6693681 11.7722,73.2203681 11.7452,73.7663681 C11.6952,74.8163681 11.5542,75.8613681 11.5152,76.9103681 C11.4752,77.9903681 11.5122,79.0733681 11.5202,80.1553681 C11.5232,80.5813681 11.5572,81.0073681 11.5392,81.4313681 C11.5262,81.7583681 11.4962,82.0973681 11.3852,82.3983681 C11.3462,82.5023681 11.0412,82.5073681 10.8582,82.5593681 C10.8182,82.5693681 10.7752,82.5763681 10.7412,82.5983681 C10.0732,83.0193681 9.4052,83.4423681 8.7442,83.8603681 C8.5272,83.4983681 8.2832,83.0893681 8.0062,82.6273681 C7.6202,82.9343681 7.3432,83.1903681 7.0312,83.3923681 C6.8092,83.5363681 6.8242,83.7143681 6.8262,83.9263681 C6.8322,84.5273681 6.8682,85.1333681 6.8062,85.7293681 C6.7532,86.2493681 6.8582,86.5543681 7.3092,86.8383681 C7.5502,86.9893681 7.7972,87.1763681 7.9522,87.4063681 C8.1292,87.6683681 8.3342,87.7333681 8.6192,87.7403681 C9.2522,87.7553681 9.8852,87.7993681 10.5182,87.8163681 C10.6802,87.8213681 10.8992,87.8333681 10.9972,87.7403681 C11.4142,87.3453681 12.0212,87.2503681 12.3442,86.6473681 C12.6222,86.1253681 13.2232,85.7733681 13.6912,85.3583681 C14.2192,84.8913681 14.7632,84.4433681 15.2922,83.9803681 C16.0672,83.2983681 16.8302,82.6033681 17.6102,81.9263681 C18.0572,81.5373681 18.4832,81.0873681 18.9992,80.8233681 C19.6332,80.4983681 20.0352,79.9833681 20.4782,79.4833681 C20.5592,79.3923681 20.6772,79.3313681 20.7802,79.2603681 C20.9602,79.1353681 21.2232,79.0523681 21.3082,78.8813681 C21.6662,78.1563681 22.6222,78.0253681 22.8962,77.2353681 C22.9042,77.2133681 22.9402,77.2013681 22.9602,77.1823681 C23.3222,76.8463681 23.6912,76.5183681 24.0422,76.1713681 C24.8222,75.4003681 25.5842,74.6103681 26.3722,73.8483681 C26.8092,73.4243681 27.2892,73.0453681 27.7412,72.6353681 C27.9212,72.4723681 28.0482,72.4113681 28.2042,72.6683681 C28.5942,73.3093681 28.9982,73.9423681 29.4062,74.5733681 C29.5562,74.8063681 29.8802,75.0263681 29.8712,75.2423681 C29.8482,75.8213681 30.2802,76.1533681 30.4932,76.5853681 C30.8722,77.3553681 31.4022,78.0493681 31.8532,78.7833681 C31.9892,79.0043681 32.0242,79.2963681 32.1852,79.4883681 C32.7912,80.2163681 33.3982,80.9323681 33.9502,81.7133681 C34.9372,83.1083681 36.0972,84.3813681 37.1912,85.6993681 C37.5362,86.1143681 37.8812,86.5323681 38.2622,86.9133681 C38.9752,87.6263681 39.6912,88.3393681 40.4522,89.0003681 C40.9432,89.4273681 41.5122,89.7653681 42.0532,90.1323681 C42.3502,90.3343681 42.6732,90.4503681 43.0302,90.2803681 C43.7632,89.9313681 44.4942,89.5783681 45.2262,89.2253681 C45.5572,89.0653681 45.7642,88.8183681 45.7292,88.4293681 C45.6692,87.7603681 45.8112,87.0513681 45.3442,86.4613681 C45.3202,86.4313681 45.3172,86.3833681 45.3072,86.3423681 C45.1122,85.5353681 45.2422,84.6693681 44.8162,83.8973681" id="Fill-7" fill="#000000"></path>
                <path d="M30.7056,6.08346806 C30.8886,6.34146806 31.0956,6.58846806 31.2316,6.86846806 C31.2556,6.91746806 30.9796,7.11046806 30.7546,7.31746806 C30.5426,6.99246806 30.3286,6.77446806 30.2686,6.52046806 C30.2446,6.41446806 30.5496,6.23046806 30.7056,6.08346806 M32.2276,9.91546806 C32.0606,10.0334681 31.9636,10.1514681 31.9036,10.1344681 C31.7916,10.1044681 31.7026,9.99446806 31.6026,9.91746806 C31.6816,9.85446806 31.7576,9.74246806 31.8386,9.73846806 C31.9356,9.73346806 32.0366,9.82246806 32.2276,9.91546806 M32.7716,12.8454681 C33.1276,12.7674681 33.4846,12.7304681 33.7406,12.4104681 C33.7956,12.3414681 33.9766,12.3644681 34.1016,12.3594681 C34.3716,12.3474681 34.6786,12.4414681 34.8186,12.0854681 C34.8306,12.0554681 34.8856,12.0304681 34.9236,12.0244681 C35.5006,11.9354681 36.0786,11.8524681 36.6536,11.7604681 C36.9556,11.7114681 37.2536,11.6444681 37.5546,11.5924681 C37.8646,11.5394681 37.9946,11.6934681 37.9946,11.9914681 C37.9956,12.2964681 37.9666,12.5894681 38.2186,12.8554681 C38.3376,12.9814681 38.3296,13.2534681 38.3306,13.4584681 C38.3396,14.7784681 38.3266,16.0984681 38.3386,17.4174681 C38.3446,18.0674681 38.4176,18.7184681 38.4136,19.3674681 C38.3986,21.5334681 38.3606,23.6984681 38.3356,25.8644681 C38.3286,26.5484681 38.3346,27.2324681 38.3346,27.9174681 C38.3346,28.5454681 38.3396,29.1734681 38.3306,29.8004681 C38.3286,29.9254681 38.2726,30.0484681 38.2416,30.1724681 C38.2026,30.1834681 38.1636,30.1944681 38.1246,30.2054681 C37.8756,29.8274681 37.5386,29.6744681 37.1066,29.7424681 C37.0596,29.7504681 36.9806,29.7254681 36.9576,29.6884681 C36.6766,29.2544681 36.2406,29.3294681 35.8206,29.3114681 C35.6916,29.3054681 35.5036,29.2004681 35.4606,29.0934681 C35.4196,28.9914681 35.5046,28.8094681 35.5836,28.6944681 C35.8316,28.3324681 36.1566,28.0124681 36.3486,27.6244681 C36.5336,27.2504681 36.3086,26.9184681 36.0256,26.6374681 C35.7856,26.3964681 35.5736,26.1284681 35.3526,25.8694681 C35.2806,25.7854681 35.2366,25.6384681 35.1516,25.6124681 C34.7816,25.5014681 34.4046,25.4054681 34.0236,25.3414681 C33.5666,25.2634681 33.3286,25.5994681 33.0536,25.8854681 C32.8316,26.1144681 32.6356,26.4074681 32.2246,26.3544681 C32.1076,26.3404681 31.9576,26.4764681 31.8466,26.5704681 C31.6406,26.7434681 31.4566,26.9534681 31.1476,26.7914681 C30.7876,26.6024681 30.4066,26.4384681 30.3966,25.9344681 C30.3856,25.3714681 30.3126,24.8074681 30.3586,24.2504681 C30.3726,24.0784681 30.6626,23.8534681 30.8676,23.7934681 C31.1626,23.7064681 31.4716,23.7704681 31.7716,23.5484681 C31.9746,23.3974681 32.3376,23.4584681 32.6296,23.4324681 C32.7696,23.4194681 32.9586,23.4804681 33.0466,23.4104681 C33.4226,23.1094681 33.8636,23.1224681 34.2986,23.0384681 C34.5506,22.9894681 34.7456,22.9194681 35.0056,23.0314681 C35.4296,23.2164681 36.3976,22.9174681 36.6856,22.5594681 C36.8896,22.3054681 36.8306,21.4074681 36.5606,21.2234681 C36.1976,20.9754681 35.8086,20.7614681 35.4146,20.5624681 C35.3146,20.5114681 35.1516,20.5454681 35.0316,20.5844681 C34.8246,20.6504681 34.6336,20.8054681 34.4266,20.8284681 C33.6586,20.9144681 32.9686,21.4154681 32.1516,21.2394681 C32.0476,21.2174681 31.8776,21.2764681 31.8096,21.3584681 C31.5106,21.7184681 31.1116,21.6714681 30.7266,21.6434681 C30.6156,21.6354681 30.4356,21.5004681 30.4246,21.4064681 C30.3816,21.0684681 30.4036,20.7234681 30.3896,20.3814681 C30.3786,20.1314681 30.3736,19.8764681 30.3216,19.6334681 C30.2366,19.2384681 30.3536,19.1284681 30.7436,19.1494681 C30.9666,19.1624681 31.1976,19.0214681 31.4276,18.9584681 C31.6396,18.9014681 31.8546,18.8174681 32.0686,18.8174681 C32.5016,18.8184681 32.9296,18.8964681 33.3006,18.5534681 C33.4166,18.4464681 33.6346,18.4184681 33.8086,18.4114681 C34.2926,18.3934681 34.7776,18.4044681 35.2636,18.4044681 C35.9086,18.4044681 36.5756,17.6174681 36.4336,16.9974681 C36.4046,16.8704681 36.2796,16.7384681 36.1636,16.6624681 C35.7276,16.3714681 35.2856,16.0844681 34.8246,15.8364681 C34.7096,15.7734681 34.5096,15.8374681 34.3586,15.8804681 C34.1396,15.9424681 33.9256,16.0304681 33.7166,16.1224681 C33.5156,16.2114681 33.3276,16.3314681 33.1246,16.4144681 C32.9116,16.5004681 32.6816,16.6344681 32.4696,16.6164681 C31.9366,16.5734681 31.4826,16.7574681 31.0206,16.9664681 C30.6226,17.1464681 30.4156,17.0024681 30.3976,16.5624681 C30.3726,15.9404681 30.3336,15.3184681 30.3186,14.6964681 C30.3136,14.4904681 30.3786,14.2824681 30.3876,14.0754681 C30.4016,13.7404681 30.5546,13.3944681 30.3036,13.0714681 C30.2746,13.0344681 30.4016,12.7964681 30.4406,12.8004681 C30.8546,12.8464681 31.3436,12.5714681 31.6626,13.1044681 C31.7126,13.1884681 32.0616,13.1284681 32.2596,13.0814681 C32.4386,13.0374681 32.5926,12.8844681 32.7716,12.8454681 M33.3586,5.99546806 C33.4636,5.99446806 33.5706,6.10046806 33.7746,6.21546806 C33.5876,6.34946806 33.4806,6.48346806 33.3986,6.47046806 C33.3006,6.45346806 33.1866,6.32146806 33.1526,6.21746806 C33.1356,6.16646806 33.2836,5.99646806 33.3586,5.99546806 M34.1396,6.95846806 C34.1686,6.93646806 34.3146,7.07146806 34.4076,7.13546806 C34.2846,7.25646806 34.1616,7.37746806 34.0376,7.49846806 C33.9696,7.43446806 33.9016,7.36946806 33.8326,7.30546806 C33.9326,7.18546806 34.0176,7.04746806 34.1396,6.95846806 M40.5696,3.92546806 C40.6316,3.93046806 40.6936,3.93646806 40.7556,3.94146806 C40.9456,4.14046806 40.9496,4.36846806 40.7736,4.57846806 C40.7176,4.64546806 40.5636,4.62946806 40.4556,4.65146806 C40.4936,4.40946806 40.5316,4.16746806 40.5696,3.92546806 M42.9586,5.32446806 C42.7996,5.46146806 42.6396,5.59746806 42.4416,5.76746806 C42.3136,5.32446806 42.3446,5.29646806 42.9586,5.32446806 M39.3246,13.7294681 C39.7686,14.2384681 39.7606,14.2754681 39.1566,14.7384681 C39.2236,14.3354681 39.2746,14.0314681 39.3246,13.7294681 M41.7716,33.4014681 C41.7496,33.4734681 41.7276,33.5454681 41.7056,33.6174681 C41.5806,33.5924681 41.3896,33.6074681 41.3456,33.5334681 C41.2596,33.3924681 41.2566,33.1994681 41.2196,33.0274681 C41.4036,33.1524681 41.5876,33.2764681 41.7716,33.4014681 M41.5996,31.7964681 C41.6516,31.9604681 41.7046,32.1244681 41.7566,32.2894681 C41.6846,32.3214681 41.6116,32.3544681 41.5386,32.3854681 C41.4776,32.2404681 41.3996,32.1004681 41.3686,31.9494681 C41.3616,31.9154681 41.5186,31.8484681 41.5996,31.7964681 M42.8276,33.7764681 C42.8856,34.1934681 42.6016,34.2694681 42.2956,34.3444681 C42.2426,33.9264681 42.3966,33.7614681 42.8276,33.7764681 M28.5916,23.4314681 C28.5126,23.3094681 28.5576,23.1054681 28.5486,22.9384681 C28.6096,22.9254681 28.6716,22.9114681 28.7336,22.8974681 C28.8676,23.1044681 29.0016,23.3124681 29.1476,23.5364681 C28.8486,23.8604681 28.6926,23.5874681 28.5916,23.4314681 M28.8036,26.7444681 C28.6926,26.8494681 28.5136,26.8834681 28.2356,27.0034681 C28.3066,26.7114681 28.3266,26.5204681 28.4006,26.3544681 C28.4496,26.2454681 28.5806,26.0974681 28.6686,26.1014681 C28.7676,26.1054681 28.9216,26.2514681 28.9386,26.3544681 C28.9596,26.4774681 28.8956,26.6574681 28.8036,26.7444681 M27.2596,6.99246806 C27.2726,6.99646806 27.2886,6.99946806 27.2986,7.00846806 C27.8176,7.43546806 28.3396,7.85746806 28.8516,8.29246806 C29.0476,8.45846806 29.1956,8.60146806 29.4186,8.30446806 C29.4956,8.20246806 29.7206,8.20646806 29.8816,8.17646806 C30.0686,8.14146806 30.2796,8.16646806 30.4426,8.08746806 C30.7616,7.93246806 31.0476,7.71146806 31.3606,7.54246806 C31.4426,7.49846806 31.5896,7.51146806 31.6766,7.55646806 C31.7316,7.58546806 31.7736,7.73446806 31.7506,7.80746806 C31.6156,8.22546806 31.5296,8.68246806 31.2946,9.03846806 C30.7146,9.91546806 30.0316,10.7254681 29.4546,11.6034681 C29.1616,12.0484681 28.8906,11.9224681 28.5546,11.7504681 C28.3926,11.6684681 28.2326,11.5784681 28.0626,11.5164681 C27.9706,11.4804681 27.8406,11.4564681 27.7596,11.4944681 C27.4956,11.6194681 27.2376,11.7604681 26.9946,11.9224681 C26.8186,12.0404681 26.7336,12.2184681 26.9846,12.3504681 C27.5606,12.6504681 27.6896,13.1644681 27.6886,13.7504681 C27.6866,14.5914681 27.6816,15.4324681 27.6916,16.2724681 C27.6956,16.5524681 27.7646,16.8294681 27.7686,17.1084681 C27.7796,17.8954681 27.7736,18.6814681 27.7716,19.4684681 C27.7716,19.6094681 27.7656,19.7504681 27.7586,19.8924681 C27.7396,20.2844681 27.7366,20.6784681 27.6936,21.0674681 C27.6696,21.2804681 27.6376,21.5494681 27.5006,21.6794681 C27.2996,21.8714681 27.3126,21.9844681 27.4756,22.1584681 C27.6706,22.3684681 27.7156,22.5884681 27.6366,22.8894681 C27.5206,23.3294681 27.4816,23.7934681 27.4376,24.2504681 C27.4046,24.5904681 27.4276,24.9344681 27.4076,25.2754681 C27.3656,26.0204681 27.3116,26.7634681 27.2646,27.5074681 C27.2616,27.5494681 27.2556,27.6084681 27.2786,27.6314681 C27.5716,27.9054681 27.3456,28.1214681 27.1866,28.3994681 C26.9596,27.9734681 26.6776,27.8264681 26.2986,28.1824681 C26.2656,28.2124681 26.1876,28.2154681 26.1366,28.2044681 C25.7496,28.1174681 25.3656,28.0174681 24.9766,27.9394681 C24.8996,27.9244681 24.7286,27.9974681 24.7296,28.0214681 C24.7516,28.3664681 24.7056,28.7574681 24.8536,29.0424681 C25.1466,29.6044681 25.6356,29.9744681 26.2256,30.2694681 C26.6786,30.4964681 27.0256,30.5984681 27.4666,30.3174681 C27.8356,30.0814681 28.2646,29.9314681 28.6126,29.6694681 C28.8376,29.5004681 29.0236,29.3504681 29.3196,29.3894681 C29.4576,29.4064681 29.6036,29.3664681 29.7436,29.3844681 C29.8996,29.4034681 30.0526,29.4584681 30.2066,29.4974681 C30.1436,29.6414681 30.1046,29.8054681 30.0096,29.9224681 C29.8966,30.0604681 29.7126,30.1384681 29.5986,30.2744681 C29.0996,30.8684681 28.6626,31.5204681 28.1156,32.0624681 C27.1856,32.9834681 26.2356,33.8954681 25.2076,34.6994681 C24.4626,35.2824681 23.5756,35.6864681 22.7526,36.1714681 C22.4316,36.3604681 22.2096,36.6214681 22.1296,37.0534681 C22.6086,36.9084681 23.0166,36.7864681 23.4236,36.6614681 C23.4466,36.6534681 23.4596,36.6164681 23.4826,36.6024681 C23.6976,36.4704681 23.9136,36.2304681 24.1306,36.2294681 C25.1436,36.2204681 25.9436,35.6254681 26.8216,35.2784681 C27.6466,34.9524681 28.3786,34.3894681 29.1486,33.9234681 C29.6096,33.6454681 30.0806,33.3774681 30.5146,33.0614681 C30.9036,32.7764681 31.2086,32.3644681 31.6196,32.1284681 C32.5216,31.6084681 33.3006,30.9444681 33.9746,30.1764681 C34.3086,29.7944681 34.5066,29.7764681 34.8726,30.0744681 C35.6486,30.7094681 36.7116,30.9464681 37.3156,31.8274681 C37.3306,31.8514681 37.3566,31.8664681 37.3766,31.8874681 C38.0856,32.6004681 38.8456,33.2704681 39.4816,34.0444681 C39.7936,34.4234681 40.1136,34.8534681 40.1656,35.4424681 C40.1976,35.8044681 40.5286,36.1504681 40.4816,36.5814681 C40.4776,36.6114681 40.5246,36.6494681 40.5536,36.6814681 C40.8936,37.0534681 41.0886,37.5074681 41.6746,37.7054681 C42.2966,37.9164681 42.8016,38.0384681 43.3486,37.6224681 C43.4426,37.5504681 43.5736,37.5184681 43.6926,37.4854681 C43.9826,37.4094681 44.7206,36.5804681 44.7996,36.2994681 C44.8986,35.9474681 45.0386,35.6044681 45.1836,35.2704681 C45.3256,34.9414681 45.4196,34.6404681 45.1056,34.3494681 C45.0076,34.2584681 44.9296,34.1264681 44.8866,33.9984681 C44.5866,33.0934681 43.9516,32.4304681 43.2476,31.8494681 C42.9466,31.6004681 42.5036,31.5264681 42.1306,31.3594681 C42.0416,31.3204681 41.9186,31.2294681 41.9136,31.1574681 C41.9066,31.0224681 41.9356,30.8004681 42.0186,30.7624681 C42.3806,30.5924681 42.3456,30.3564681 42.2716,30.0314681 C42.2306,29.8504681 42.3586,29.6254681 42.4256,29.4264681 C42.5256,29.1294681 42.7266,28.8394681 42.7326,28.5434681 C42.7496,27.6694681 42.6766,26.7944681 42.6696,25.9194681 C42.6656,25.4144681 42.7436,24.9084681 42.7456,24.4024681 C42.7546,22.1854681 42.7486,19.9664681 42.7486,17.7484681 C42.7486,16.6844681 42.7266,15.6184681 42.7596,14.5554681 C42.7746,14.0444681 42.8986,13.5374681 42.9686,13.0284681 C42.9876,12.8904681 43.0176,12.7434681 42.9916,12.6104681 C42.7816,11.5254681 41.9616,10.8934681 41.1686,10.2704681 C40.6956,9.89946806 40.1246,9.65146806 39.5486,9.31946806 C39.1866,9.74846806 38.6456,9.73746806 38.0896,9.74746806 C37.7956,9.75246806 37.5026,9.89846806 37.2136,9.99446806 C37.0976,10.0314681 36.9866,10.1584681 36.8846,10.1474681 C36.3416,10.0884681 35.8686,10.2644681 35.3916,10.4884681 C35.2116,10.5734681 34.9816,10.5874681 34.7776,10.5764681 C34.3976,10.5584681 34.0636,10.6304681 33.7496,10.8584681 C33.6506,10.9304681 33.4726,10.8924681 33.3296,10.9034681 C33.3826,10.7464681 33.3886,10.5324681 33.4966,10.4404681 C33.8576,10.1384681 34.2976,9.92246806 34.6296,9.59446806 C35.1926,9.03946806 35.9376,8.60946806 35.9696,7.65146806 C35.9786,7.37046806 35.9476,7.22446806 35.7286,7.07346806 C35.4166,6.85846806 35.4346,6.64546806 35.7826,6.48346806 C35.9276,6.41746806 36.1056,6.41146806 36.2696,6.39746806 C36.7026,6.36146806 37.1356,6.33946806 37.5686,6.30746806 C37.8336,6.28746806 38.0986,6.26146806 38.3626,6.23546806 C38.9716,6.17746806 39.5806,6.12146806 40.1886,6.05246806 C40.2596,6.04446806 40.3236,5.95846806 40.3896,5.90646806 C40.4736,5.83946806 40.5566,5.76946806 40.6636,5.68046806 C40.7636,5.81946806 40.8526,5.92646806 40.9216,6.04546806 C41.1946,6.52046806 41.3676,6.56446806 41.8676,6.31146806 C41.9456,6.27146806 42.0816,6.27346806 42.1576,6.31646806 C42.3366,6.42046806 42.4926,6.56546806 42.6666,6.68246806 C42.7526,6.73846806 42.9246,6.82546806 42.9466,6.80046806 C43.1806,6.53446806 43.4676,6.43846806 43.8116,6.45946806 C43.8496,6.46146806 43.9046,6.39546806 43.9306,6.35046806 C44.0806,6.08246806 44.2266,5.81246806 44.3696,5.54146806 C44.5376,5.21946806 44.4936,4.89446806 44.2766,4.63346806 C43.9506,4.24346806 43.6276,3.82146806 43.2156,3.54346806 C42.8196,3.27446806 42.4616,2.86346806 41.8896,2.90446806 C41.4206,2.93846806 40.9196,2.82046806 40.4866,2.94946806 C40.0716,3.07246806 39.6076,3.23946806 39.2696,3.45846806 C38.8076,3.75746806 38.4106,3.86946806 37.9016,3.78446806 C37.7976,3.76846806 37.6676,3.84246806 37.5656,3.90046806 C37.4336,3.97746806 37.3306,4.12646806 37.1926,4.16246806 C36.7586,4.27746806 36.3036,4.31946806 35.9346,4.62346806 C35.8686,4.67846806 35.7526,4.69546806 35.6606,4.69246806 C35.2126,4.67646806 34.7646,4.64046806 34.3156,4.62646806 C34.1976,4.62246806 34.0426,4.63346806 33.9626,4.70346806 C33.5056,5.10546806 32.9556,5.12546806 32.3936,5.13946806 C32.2386,5.14346806 32.0836,5.22046806 31.9316,5.27146806 C31.7426,5.33546806 31.5596,5.44446806 31.3666,5.46446806 C31.0576,5.49646806 30.7406,5.45946806 30.4286,5.47346806 C30.2066,5.48346806 29.9816,5.51146806 29.7686,5.56846806 C29.6596,5.59946806 29.5176,5.69346806 29.4846,5.79046806 C29.3816,6.10446806 29.2036,6.09146806 28.9316,6.02446806 C28.6596,5.95846806 28.3656,5.96746806 28.0806,5.95946806 C27.5176,5.94346806 26.9106,6.16946806 26.4566,5.60246806 C26.3936,5.52246806 26.1876,5.55746806 26.0486,5.53946806 C26.0626,5.67746806 26.0586,5.82046806 26.0956,5.95146806 C26.2636,6.54046806 26.6996,6.83846806 27.2596,6.99246806" id="Fill-9" fill="#000000"></path>
                <path d="M10.4771,18.9379681 C10.4061,18.9309681 10.3351,18.9239681 10.2651,18.9169681 C10.2561,18.7379681 10.2111,18.5479681 10.2531,18.3819681 C10.2731,18.3029681 10.4601,18.2669681 10.5721,18.2119681 C10.6081,18.2389681 10.6441,18.2659681 10.6811,18.2929681 C10.6131,18.5079681 10.5451,18.7229681 10.4771,18.9379681 M13.9461,21.9259681 C13.8351,22.1889681 13.7481,22.3969681 13.6421,22.6469681 C13.3871,22.2679681 13.4581,22.1029681 13.9461,21.9259681 M14.0391,15.9939681 C14.0791,15.9509681 14.1661,15.9449681 14.2341,15.9359681 C15.3811,15.7849681 16.2381,15.0769681 17.1261,14.4309681 C17.6111,14.0789681 18.0831,13.7079681 18.6441,13.2809681 C18.8951,13.5669681 19.1631,13.8769681 19.4381,14.1809681 C19.5011,14.2509681 19.5861,14.3039681 19.6701,14.3509681 C19.8161,14.4319681 19.9971,14.4729681 20.1111,14.5839681 C20.2491,14.7169681 20.3341,14.9069681 20.4431,15.0729681 C20.2451,15.1359681 20.0331,15.2799681 19.8531,15.2469681 C19.4211,15.1669681 19.0261,15.0709681 18.7451,15.5409681 C18.7111,15.5969681 18.5681,15.6039681 18.4751,15.6059681 C18.1191,15.6139681 17.7591,15.5839681 17.4071,15.6219681 C17.2611,15.6369681 17.1311,15.7869681 16.9911,15.8719681 C16.8511,15.9569681 16.7101,16.1039681 16.5661,16.1079681 C16.0641,16.1229681 15.5791,16.0369681 15.1201,16.4149681 C14.8941,16.5999681 14.4861,16.5939681 14.1571,16.6099681 C14.0401,16.6149681 13.8691,16.4489681 13.8121,16.3219681 C13.7831,16.2559681 13.9441,16.0939681 14.0391,15.9939681 M19.6471,17.2159681 C19.5431,17.1059681 19.4151,17.0079681 19.3461,16.8779681 C19.3171,16.8239681 19.4141,16.7029681 19.4911,16.5259681 C19.6471,16.7109681 19.7761,16.8159681 19.8291,16.9509681 C19.8511,17.0059681 19.7131,17.1259681 19.6471,17.2159681 M4.2491,37.8649681 C4.4711,37.7559681 4.6661,37.5349681 4.8931,37.5019681 C5.4181,37.4269681 5.8701,37.2269681 6.3011,36.9319681 C6.8721,36.5419681 7.4971,36.2169681 8.0231,35.7759681 C8.4561,35.4119681 8.6851,34.8129681 9.3491,34.7119681 C9.4601,34.6949681 9.5431,34.4879681 9.6371,34.3669681 C9.7301,34.2459681 9.8051,34.1049681 9.9151,34.0009681 C10.9801,32.9869681 11.6641,31.7009681 12.4311,30.4739681 C12.5991,30.2059681 12.7131,29.9029681 12.8501,29.6149681 C12.9771,29.3469681 13.1091,29.0819681 13.2241,28.8089681 C13.2711,28.6969681 13.3151,28.5639681 13.3011,28.4479681 C13.2581,28.1019681 13.2511,27.8049681 13.5481,27.5239681 C13.7041,27.3769681 13.7281,27.0809681 13.7861,26.8449681 C13.8371,26.6329681 13.7761,26.3409681 13.8981,26.2089681 C14.2761,25.7989681 14.2351,25.3549681 14.1741,24.8699681 C14.1441,24.6329681 14.1301,24.3099681 14.2611,24.1529681 C14.5891,23.7599681 14.6191,23.3219681 14.6461,22.8589681 C14.6591,22.6549681 14.6541,22.3789681 14.7771,22.2639681 C15.2691,21.8039681 14.9501,21.2409681 15.0201,20.7339681 C15.0471,20.5359681 14.9081,20.3139681 14.8371,20.1049681 C14.7771,19.9279681 14.7161,19.7509681 14.6391,19.5819681 C14.5651,19.4169681 14.5031,19.2279681 14.3791,19.1079681 C14.1631,18.8959681 14.1281,18.6329681 14.3931,18.5019681 C14.5821,18.4089681 14.8241,18.4239681 15.0421,18.3879681 C15.2431,18.3539681 15.4481,18.3319681 15.6421,18.2719681 C15.9081,18.1909681 16.1591,18.0289681 16.4291,17.9919681 C16.7871,17.9419681 17.1561,17.9789681 17.4771,17.9789681 C17.6151,17.7409681 17.4111,17.2509681 17.8441,17.4329681 C18.2651,17.6099681 18.6141,17.4739681 18.9831,17.4179681 C19.4221,17.3529681 19.5361,17.4509681 19.6061,17.8989681 C19.7021,18.5009681 19.2011,18.7869681 18.9391,19.1559681 C18.5231,19.7409681 17.9401,20.2089681 17.4191,20.7159681 C17.1631,20.9649681 16.8931,21.2019681 16.6191,21.4299681 C16.2951,21.7009681 16.0561,22.0989681 15.5491,22.0979681 C15.4521,22.0969681 15.2661,22.2779681 15.2771,22.3489681 C15.3001,22.4909681 15.4041,22.6639681 15.5271,22.7349681 C15.7371,22.8579681 16.0131,22.8739681 16.2131,23.0059681 C16.5471,23.2269681 16.8171,23.2179681 17.1251,22.9629681 C17.3801,22.7509681 17.6561,22.5509681 18.0391,22.7259681 C18.1071,22.7559681 18.3381,22.6209681 18.3561,22.5339681 C18.4101,22.2739681 18.5621,22.2589681 18.7781,22.2279681 C19.5021,22.1259681 20.1271,21.7339681 20.1401,21.0439681 C20.2221,21.0659681 20.3321,21.0609681 20.3661,21.1099681 C20.5651,21.3979681 20.7451,21.3509681 20.9871,21.1459681 C21.2511,20.9219681 21.5331,20.6689681 21.8511,20.5689681 C22.3631,20.4089681 22.6751,20.1379681 22.8691,19.6299681 C22.9631,19.3839681 23.1941,19.2199681 22.9611,18.9319681 C22.7981,18.7309681 22.7171,18.3529681 22.5311,18.3019681 C21.8781,18.1219681 21.8361,17.4229681 21.3231,17.1369681 C21.8961,16.7409681 22.6521,16.5929681 23.2261,16.7259681 C23.3581,16.7559681 23.5091,16.7919681 23.6331,16.7589681 C24.0461,16.6489681 24.4351,16.6659681 24.8121,16.8759681 C25.0081,16.9849681 25.1911,17.0369681 25.3471,16.7909681 C25.4001,16.7079681 25.5341,16.6759681 25.6301,16.6219681 C25.8831,16.4779681 26.1521,16.3579681 26.3821,16.1859681 C26.6091,16.0159681 26.6631,15.7839681 26.4501,15.5409681 C26.2981,15.3669681 26.1221,15.2039681 26.0171,15.0029681 C25.6761,14.3519681 25.2381,13.8839681 24.4281,13.8969681 C24.1261,13.9019681 23.9491,14.0119681 23.7531,14.2299681 C23.6431,14.3529681 23.3501,14.4139681 23.1821,14.3619681 C22.9261,14.2849681 23.0261,14.0369681 23.1391,13.8849681 C23.3471,13.6059681 23.2271,13.3879681 23.0601,13.1649681 C22.9771,13.0529681 22.8831,12.9489681 22.8051,12.8339681 C22.4491,12.3149681 22.1051,11.7849681 21.3721,11.7649681 C21.2881,11.7629681 21.2061,11.6819681 21.0151,11.5809681 C21.4261,11.0719681 21.7931,10.6239681 22.1541,10.1679681 C22.4731,9.76696806 22.4701,9.48396806 22.1691,9.02796806 C21.9221,8.65296806 21.6581,8.33296806 21.1361,8.35296806 C21.0241,8.35796806 20.8761,8.17996806 20.8041,8.05196806 C20.7821,8.01296806 20.9401,7.82796806 21.0481,7.77096806 C21.1781,7.70396806 21.3421,7.67896806 21.4921,7.67696806 C22.3291,7.66896806 23.1791,7.58496806 23.9991,7.70396806 C24.5651,7.78596806 24.8621,7.52496806 25.1851,7.21896806 C25.6951,6.73696806 25.7641,6.33896806 25.3141,5.81496806 C24.9311,5.36796806 24.4431,5.00096806 23.9621,4.65396806 C23.8281,4.55796806 23.4741,4.56996806 23.3601,4.67796806 C22.8981,5.12096806 22.3181,4.92696806 21.7991,5.02896806 C21.6811,5.05196806 21.4301,4.86396806 21.3931,4.73096806 C21.3321,4.51196806 21.3301,4.22796806 21.4231,4.02596806 C21.6661,3.49996806 21.8071,3.08896806 21.5111,2.44396806 C21.1931,1.75096806 20.7931,1.21596806 20.1881,0.860968056 C19.6011,0.516968056 18.9351,0.300968056 18.2921,0.0639680556 C18.1061,-0.00403194438 17.8081,-0.0370319444 17.6781,0.0639680556 C17.3591,0.311968056 17.0191,0.255968056 16.6721,0.281968056 C16.1281,0.321968056 15.5761,0.446968056 15.3561,0.998968056 C15.1751,1.45296806 15.0041,1.86296806 14.5681,2.12896806 C14.4871,2.17896806 14.4891,2.36396806 14.4521,2.48596806 C14.5831,2.51996806 14.7121,2.56396806 14.8451,2.58396806 C14.9091,2.59196806 14.9931,2.57096806 15.0451,2.53196806 C15.3251,2.31996806 15.5381,2.44096806 15.7281,2.66296806 C15.9641,2.93696806 16.1491,3.28196806 16.4361,3.47596806 C16.7151,3.66496806 16.7501,3.80796806 16.6271,4.08196806 C16.3491,4.70396806 16.5191,5.23196806 16.9751,5.70896806 C17.0631,5.79996806 17.1291,6.00696806 17.0841,6.10696806 C17.0371,6.21196806 16.8531,6.27696806 16.7161,6.31896806 C16.5721,6.36296806 16.3871,6.31196806 16.2651,6.38196806 C15.6031,6.76496806 14.7351,6.58096806 14.1481,7.16296806 C14.1101,7.19996806 14.0111,7.17796806 13.9401,7.17596806 C13.4771,7.16696806 13.0091,7.12396806 12.6181,7.45996806 C12.5711,7.50096806 12.4881,7.51196806 12.4211,7.51496806 C11.7001,7.54696806 10.9791,7.57096806 10.2591,7.60396806 C9.9231,7.61996806 9.6171,7.61196806 9.4281,7.25096806 C9.3831,7.16596806 9.1921,7.15596806 9.0691,7.11196806 C9.0291,7.22396806 8.9481,7.34196806 8.9611,7.44896806 C8.9781,7.58596806 9.0611,7.71996806 9.1331,7.84596806 C9.2011,7.96496806 9.3541,8.06996806 9.3581,8.18496806 C9.3711,8.52696806 9.6101,8.64096806 9.8411,8.80496806 C10.2781,9.11596806 10.7061,9.44496806 11.1071,9.79896806 C11.6161,10.2499681 12.0711,10.4019681 12.4141,10.0919681 C12.7001,9.83496806 12.9981,9.79896806 13.3441,9.79496806 C13.4981,9.79296806 13.6851,9.74996806 13.7981,9.65596806 C14.0381,9.45596806 14.2451,9.30196806 14.5891,9.44096806 C14.6991,9.48596806 14.8921,9.34996806 15.0381,9.27796806 C15.1741,9.21096806 15.2921,9.06296806 15.4281,9.04996806 C15.8391,9.01296806 16.2901,9.12696806 16.5411,8.64796806 C16.5581,8.61696806 16.6451,8.61196806 16.6991,8.61296806 C17.2161,8.61696806 17.7681,8.71996806 18.0471,7.96896806 C18.2081,8.23596806 18.3821,8.39396806 18.3871,8.55596806 C18.4011,9.10196806 18.3861,9.66796806 17.9271,10.0649681 C17.7171,10.2469681 17.7141,10.6629681 17.2661,10.5949681 C16.9031,10.5409681 16.5231,10.6079681 16.1541,10.5759681 C15.9121,10.5539681 15.6021,10.5249681 15.4531,10.3729681 C15.0071,9.91696806 14.4721,10.1119681 13.9691,10.0879681 C13.8921,10.0839681 13.7691,10.2519681 13.7361,10.3619681 C13.7131,10.4349681 13.7901,10.5989681 13.8621,10.6299681 C14.1781,10.7689681 14.4991,10.9249681 14.8341,10.9789681 C15.3971,11.0689681 15.6871,11.4939681 16.0391,11.8459681 C16.0971,11.9049681 16.1151,12.0829681 16.0701,12.1529681 C15.9291,12.3689681 15.7581,12.5679681 15.5821,12.7579681 C14.3691,14.0709681 13.0171,15.2229681 11.5371,16.2269681 C11.4501,16.2869681 11.4041,16.4069681 11.3391,16.4989681 C11.4511,16.5619681 11.5631,16.6799681 11.6751,16.6789681 C12.0231,16.6769681 12.3721,16.6149681 12.7211,16.6089681 C12.8521,16.6059681 12.9851,16.6929681 13.1181,16.7389681 C12.9951,16.8169681 12.8791,16.9409681 12.7481,16.9619681 C12.4321,17.0159681 12.0711,16.9389681 11.7981,17.0649681 C11.3881,17.2549681 11.0281,17.5169681 10.5451,17.3199681 C10.4811,17.2919681 10.3641,17.3179681 10.3061,17.3629681 C9.6511,17.8789681 8.8911,17.8439681 8.1191,17.8339681 C7.6831,17.8289681 7.3641,17.7949681 7.3631,17.2489681 C7.3631,17.1289681 7.2151,17.0109681 7.1351,16.8919681 C7.0101,17.0099681 6.7831,17.1229681 6.7771,17.2469681 C6.7501,17.7679681 6.7021,18.3059681 7.1071,18.7469681 C7.3421,19.0009681 7.6191,19.2589681 7.7381,19.5679681 C7.9301,20.0659681 8.6311,20.5829681 9.1631,20.4539681 C9.4321,20.3889681 9.6671,20.1809681 9.9361,20.1199681 C10.6581,19.9539681 10.6621,19.9709681 10.7411,19.3339681 C10.8471,19.4219681 10.9221,19.5329681 10.9701,19.6539681 C11.0461,19.8469681 11.0441,20.1279681 11.1801,20.2299681 C11.6321,20.5659681 11.6321,21.0169681 11.5841,21.4829681 C11.5441,21.8739681 11.5831,22.2909681 11.2221,22.5999681 C11.1111,22.6949681 11.0951,22.9319681 11.0851,23.1069681 C11.0551,23.6319681 11.1871,24.1849681 10.7831,24.6389681 C10.7431,24.6829681 10.7401,24.7719681 10.7411,24.8389681 C10.7651,25.8039681 10.3981,26.6449681 9.9271,27.4569681 C9.8591,27.5729681 9.7851,27.7339681 9.8131,27.8499681 C9.9941,28.5989681 9.3911,29.0999681 9.2261,29.7409681 C9.0831,30.2919681 8.7501,30.7949681 8.5041,31.3199681 C8.3651,31.6179681 8.2361,31.9189681 8.0911,32.2139681 C7.9581,32.4869681 7.8361,32.7719681 7.6641,33.0199681 C7.0321,33.9329681 6.4011,34.8479681 5.7271,35.7309681 C5.4021,36.1579681 4.9881,36.5169681 4.6061,36.8999681 C4.3871,37.1199681 4.1381,37.3109681 3.9361,37.5439681 C3.8681,37.6229681 3.9041,37.7919681 3.8931,37.9189681 C4.0121,37.9029681 4.1461,37.9159681 4.2491,37.8649681" id="Fill-11" fill="#000000"></path>
                <path d="M24.4917,105.946768 C24.3277,105.902768 24.1647,105.859768 24.0017,105.815768 C24.0177,105.733768 24.0337,105.650768 24.0507,105.568768 C24.2077,105.600768 24.3687,105.621768 24.5177,105.675768 C24.5387,105.683768 24.5017,105.852768 24.4917,105.946768 M23.4917,107.693768 C23.3707,107.508768 23.0027,107.441768 23.2577,107.135768 C23.3307,107.049768 23.6267,107.006768 23.6747,107.064768 C23.8767,107.307768 23.7647,107.519768 23.4917,107.693768 M37.2317,110.063768 C37.3117,110.124768 37.4587,110.183768 37.4587,110.243768 C37.4587,110.525768 37.2787,110.641768 36.9007,110.568768 C37.0117,110.400768 37.1217,110.232768 37.2317,110.063768 M33.6377,110.356768 C33.4107,110.660768 33.0827,110.887768 32.8037,111.152768 C32.3467,111.584768 31.8837,112.009768 31.4437,112.458768 C31.3597,112.542768 31.3677,112.717768 31.3347,112.851768 C31.5387,112.838768 31.7527,112.858768 31.9447,112.802768 C32.2817,112.705768 32.5967,112.502768 32.9367,112.451768 C33.3557,112.388768 33.7957,112.475768 34.2167,112.422768 C34.4737,112.388768 34.7077,112.130768 34.9607,112.114768 C35.6557,112.070768 36.3557,112.097768 37.0537,112.109768 C37.1407,112.111768 37.2687,112.168768 37.3067,112.238768 C37.4777,112.548768 37.7567,112.534768 38.0397,112.520768 C38.2597,112.509768 38.4497,112.516768 38.5607,112.770768 C38.5897,112.837768 38.8137,112.890768 38.9007,112.849768 C39.2747,112.672768 39.6307,112.458768 39.9927,112.257768 C40.1857,112.150768 40.4717,112.088768 40.5527,111.925768 C40.9097,111.198768 41.6457,110.537768 41.0687,109.598768 C41.0477,109.565768 41.0397,109.512768 41.0487,109.474768 C41.2347,108.722768 40.6467,108.270768 40.2957,107.785768 C39.8737,107.202768 39.2767,106.739768 38.7237,106.259768 C38.1867,105.795768 37.6487,105.449768 36.8227,105.515768 C35.7987,105.597768 34.8347,105.983768 33.7827,105.930768 C32.6767,105.876768 31.5617,106.025768 30.4497,106.052768 C29.9147,106.066768 29.3777,106.003768 28.8407,105.981768 C28.7627,105.978768 28.6497,105.994768 28.6107,106.046768 C28.2587,106.499768 27.8177,106.575768 27.2927,106.411768 C27.1827,106.377768 27.0417,106.453768 26.9197,106.437768 C26.7857,106.420768 26.5917,106.392768 26.5437,106.303768 C26.4907,106.205768 26.5437,106.018768 26.6037,105.897768 C26.6707,105.764768 26.8557,105.676768 26.8907,105.543768 C27.0327,104.993768 27.2217,104.440768 26.9657,103.865768 C26.8837,103.680768 26.9037,103.440768 26.7977,103.279768 C26.3667,102.629768 25.9277,101.983768 25.4507,101.367768 C24.8207,100.550768 24.1127,99.8647681 22.9377,100.006768 C22.4487,100.065768 21.9307,99.9427681 21.4517,100.034768 C20.8397,100.151768 20.2507,100.396768 19.6547,100.597768 C19.4367,100.672768 19.2217,100.761768 19.0217,100.874768 C18.9117,100.935768 18.8367,101.059768 18.7457,101.156768 C18.8487,101.254768 18.9397,101.373768 19.0587,101.443768 C19.2557,101.560768 19.5297,101.596768 19.6657,101.756768 C19.9877,102.135768 20.2117,102.599768 20.5437,102.968768 C20.8367,103.296768 20.9127,103.636768 20.8767,104.045768 C20.8407,104.450768 20.9127,104.811768 21.2347,105.120768 C21.3497,105.230768 21.3597,105.478768 21.3687,105.666768 C21.3877,106.036768 21.3477,106.411768 21.3807,106.780768 C21.4087,107.104768 21.2617,107.321768 20.9357,107.342768 C20.7567,107.354768 20.5737,107.370768 20.4017,107.418768 C19.6037,107.640768 18.8097,107.875768 18.0137,108.104768 C17.9997,108.108768 17.9827,108.101768 17.9707,108.107768 C17.7277,108.221768 17.4867,108.342768 17.2417,108.452768 C17.1087,108.511768 16.9357,108.634768 16.8407,108.593768 C16.5427,108.463768 16.3007,108.451768 16.0437,108.677768 C15.9807,108.733768 15.8267,108.678768 15.7157,108.688768 C15.5887,108.700768 15.4147,108.680768 15.3457,108.754768 C14.9627,109.159768 14.5047,109.057768 14.0427,109.001768 C13.8847,108.981768 13.7217,108.997768 13.5617,108.997768 C13.5517,109.046768 13.5407,109.093768 13.5307,109.141768 C13.6457,109.229768 13.7707,109.307768 13.8747,109.408768 C14.0827,109.608768 14.3577,109.789768 14.4617,110.037768 C14.6157,110.406768 14.8677,110.456768 15.1627,110.376768 C15.5427,110.273768 15.9037,110.099768 16.2757,109.966768 C16.3907,109.924768 16.5167,109.910768 16.6367,109.881768 C17.0127,109.791768 17.3847,109.685768 17.7627,109.613768 C18.0997,109.549768 18.4457,109.531768 18.7837,109.472768 C19.0377,109.427768 19.2907,109.364768 19.5377,109.286768 C19.7557,109.217768 19.9617,109.113768 20.1757,109.030768 C20.3287,108.970768 20.4987,108.944768 20.6397,108.865768 C21.1927,108.553768 21.8457,108.628768 22.1757,109.117768 C22.4397,109.507768 22.7957,109.587768 23.1957,109.530768 C23.7077,109.459768 24.3097,109.650768 24.6787,109.087768 C24.6927,109.065768 24.7277,109.058768 24.7497,109.041768 C24.9027,108.921768 25.0917,108.826768 25.1997,108.674768 C25.4757,108.285768 25.9127,108.069768 26.3667,108.208768 C26.6857,108.305768 26.9317,108.253768 27.1827,108.047768 C27.4757,107.805768 27.8047,107.747768 28.1547,107.938768 C28.2137,107.970768 28.2897,108.007768 28.3497,107.997768 C28.8037,107.925768 29.2537,107.839768 29.7067,107.763768 C29.8037,107.747768 29.9047,107.754768 30.0037,107.754768 C30.3617,107.752768 30.7407,107.827768 31.0707,107.731768 C31.4567,107.620768 31.7847,107.623768 32.1307,107.801768 C32.2007,107.838768 32.2967,107.837768 32.3797,107.834768 C33.0437,107.808768 33.7077,107.767768 34.3727,107.760768 C34.5287,107.758768 34.7817,107.833768 34.8217,107.937768 C34.8917,108.120768 34.9077,108.397768 34.8137,108.557768 C34.4527,109.175768 34.0647,109.782768 33.6377,110.356768" id="Fill-13" fill="#000000"></path>
                <path d="M17.9859,178.270068 C17.8579,178.250068 17.7509,178.088068 17.6339,177.992068 C17.8299,177.894068 18.0259,177.796068 18.2209,177.699068 C18.2969,178.052068 18.3209,178.321068 17.9859,178.270068 M17.1359,182.957068 C16.9709,182.811068 16.8059,182.663068 16.6419,182.515068 C16.6849,182.469068 16.7269,182.423068 16.7689,182.376068 C16.9349,182.532068 17.0999,182.686068 17.2859,182.861068 C17.1579,182.944068 17.1389,182.960068 17.1359,182.957068 M16.0849,180.357068 C16.0919,180.427068 16.0329,180.523068 15.9759,180.578068 C15.5889,180.958068 15.6739,181.400068 15.7989,181.846068 C15.8779,182.128068 15.8519,182.351068 15.6709,182.623068 C15.3679,183.078068 15.2229,183.671068 14.4829,183.535068 C14.0609,183.954068 13.5629,184.043068 12.9899,183.926068 C12.8589,183.900068 12.6879,184.033068 12.5439,184.109068 C12.3849,184.193068 12.2459,184.318068 12.0819,184.386068 C11.7799,184.512068 11.5929,184.392068 11.5819,184.056068 C11.5729,183.806068 11.5589,183.607068 11.2989,183.454068 C11.1899,183.389068 11.1579,183.130068 11.1569,182.959068 C11.1549,182.523068 11.1199,182.124068 10.8919,181.714068 C10.5079,181.024068 11.0089,180.264068 11.8239,180.243068 C12.1159,180.235068 12.3379,180.136068 12.5949,180.005068 C12.9369,179.832068 13.3569,179.814068 13.7409,179.722068 C13.8749,179.690068 14.0639,179.677068 14.1229,179.587068 C14.4089,179.151033 14.7849,179.241068 15.1819,179.347068 C15.2869,179.375068 15.4569,179.416068 15.5049,179.365068 C16.0369,178.805068 16.1969,179.506068 16.5489,179.636068 C16.1939,179.776068 16.0499,180.005068 16.0849,180.357068 M16.2429,183.147068 C16.3409,183.426068 16.4209,183.656068 16.5369,183.991068 C15.9159,183.742068 15.8419,183.537068 16.2429,183.147068 M16.4319,178.527068 C16.6049,178.493068 16.7879,178.410068 16.9469,178.442068 C17.0399,178.461068 17.0939,178.666068 17.1659,178.788068 C17.1379,178.828068 17.1109,178.868068 17.0829,178.908068 L16.4279,178.723068 C16.4299,178.658068 16.4309,178.592068 16.4319,178.527068 M20.0509,177.027068 C19.9949,176.911068 19.8409,176.814068 19.7099,176.766068 C19.5059,176.690068 19.1669,176.734068 19.0889,176.604068 C18.8329,176.179068 18.4759,176.340068 18.1369,176.329068 C17.9429,176.322068 17.7509,176.273068 17.5569,176.257068 C17.2049,176.229068 16.8659,176.197068 16.5999,176.539068 C16.4619,176.716068 16.2409,176.852068 16.0309,176.953068 C15.3129,177.297068 14.5859,177.626068 13.8539,177.942068 C13.6959,178.010068 13.5029,177.997068 13.3249,178.021068 C13.2069,178.037068 13.0639,178.014068 12.9729,178.073068 C12.2859,178.520068 11.5179,178.732068 10.7289,178.899068 C10.5729,178.932068 10.4249,179.030068 10.2899,179.123068 C9.9359,179.366068 9.2619,179.409068 8.9959,179.137068 C8.7819,178.918068 8.5569,178.876068 8.2779,178.881068 C8.0709,178.884068 7.8599,178.797068 7.6569,178.817068 C7.3289,178.848068 6.9969,178.908068 6.6859,179.011068 C6.5869,179.043068 6.5009,179.253068 6.49788046,179.384068 C6.4959,179.469068 6.6479,179.566068 6.7429,179.643068 C7.0549,179.895068 7.3779,180.133068 7.6819,180.394068 C7.7339,180.438068 7.7089,180.567068 7.7259,180.656068 C7.7659,180.875068 7.7879,181.103068 7.8589,181.312068 C7.9419,181.558068 8.0949,181.780068 8.1719,182.027068 C8.3229,182.508068 8.4419,183.001068 8.5769,183.489068 C8.6029,183.581068 8.6499,183.666068 8.6799,183.758068 C8.7719,184.041068 8.8869,184.319068 8.9439,184.609068 C9.0479,185.138068 9.1399,185.673068 9.1939,186.210068 C9.2409,186.666068 9.7199,186.736068 9.8769,187.035068 C10.1279,187.513068 10.4249,187.653068 10.9109,187.477068 C10.9619,187.459068 11.0239,187.475068 11.0809,187.475068 C11.0809,187.480068 11.0809,187.486068 11.0819,187.491068 C11.2309,187.481068 11.4519,187.530068 11.5169,187.451068 C11.7049,187.217068 11.9159,186.948068 11.9629,186.666068 C12.0299,186.257068 12.2459,186.103068 12.6009,186.029068 C12.7079,186.006068 12.8069,185.944068 12.9139,185.917068 C13.1399,185.862068 13.3669,185.789068 13.5959,185.776068 C13.9729,185.755068 14.3599,185.833068 14.6529,185.484068 C14.7219,185.401068 14.8769,185.353068 14.9939,185.352068 C15.8529,185.341068 16.7119,185.347068 17.5709,185.347068 C17.8709,185.347068 18.2129,185.434068 18.4609,185.320068 C18.8099,185.160068 19.0919,184.852068 19.3929,184.596068 C19.4299,184.565068 19.4289,184.453068 19.4059,184.392068 C19.2969,184.095068 19.1739,183.803068 19.0549,183.509068 C19.0049,183.385068 18.9399,183.266068 18.9019,183.138068 C18.7219,182.527068 19.2579,182.139068 19.4539,181.672068 C19.8059,180.829068 20.4509,180.109068 20.9479,179.322068 C21.0289,179.192068 21.0599,178.910068 20.9779,178.818068 C20.5169,178.292068 20.3439,177.632068 20.0509,177.027068" id="Fill-15" fill="#000000"></path>
                <path d="M25.3736,176.567868 C25.3326,176.581868 25.2926,176.593868 25.2516,176.607868 C25.1216,176.461868 24.9916,176.315868 24.8506,176.157868 C25.0286,175.989868 25.1886,175.837868 25.3496,175.685868 C25.3846,175.687868 25.4196,175.689868 25.4546,175.690868 C25.4276,175.983868 25.4006,176.275868 25.3736,176.567868 M24.7446,177.888868 C24.6116,177.838868 24.4386,177.820868 24.3586,177.724868 C24.2956,177.649868 24.3466,177.478868 24.3466,177.349868 C24.3906,177.340868 24.4346,177.332868 24.4786,177.324868 C24.5966,177.470868 24.7136,177.618868 24.8316,177.764868 C24.8026,177.806868 24.7736,177.847868 24.7446,177.888868 M24.6616,165.754868 C25.0996,165.830868 25.1776,166.202868 25.3216,166.573868 C24.9246,166.616868 24.4126,166.157868 24.4616,165.844868 C24.4676,165.802868 24.5986,165.743868 24.6616,165.754868 M25.4696,165.509868 C25.1226,165.223868 24.8096,164.896868 24.4866,164.582868 C24.1626,164.265868 23.8616,163.923868 23.5196,163.631868 C23.3576,163.494868 23.1136,163.453868 23.0116,163.745868 C22.9386,163.952868 22.8536,164.171868 22.8546,164.383868 C22.8546,164.576868 22.9046,164.865868 23.0346,164.944868 C23.6706,165.330868 23.4946,166.090868 23.8516,166.594868 C23.8786,166.632868 23.8556,166.706868 23.8556,166.762868 C23.8566,167.234868 23.8466,167.705868 23.8606,168.176868 C23.8766,168.755868 23.9326,169.334868 23.9336,169.912868 C23.9356,170.403868 23.8526,170.895868 23.8646,171.385868 C23.8746,171.807868 23.8946,172.174868 23.7346,172.618868 C23.5006,173.267868 23.5436,174.025868 23.5286,174.738868 C23.5226,175.042868 23.8356,175.410868 23.2396,175.467868 C23.2116,175.470868 23.1906,175.588868 23.1746,175.654868 C23.0086,176.316868 22.9086,176.984868 22.6486,177.636868 C22.4666,178.097868 22.2586,178.474868 21.9266,178.815868 C21.8356,178.908868 21.7096,179.082868 21.7416,179.159868 C21.9166,179.573868 21.6856,179.811868 21.4346,180.075868 C21.2056,180.315868 21.1556,180.642868 21.3216,180.914868 C21.4196,181.075868 21.6836,181.250868 21.8526,181.230868 C22.1986,181.190868 22.5696,181.086868 22.8626,180.899868 C23.7006,180.367868 24.4896,179.755868 25.0326,178.904868 C25.2506,178.561868 25.5016,178.161868 25.5086,177.782868 C25.5196,177.189868 25.4366,177.187868 26.0276,177.151868 C26.1016,176.733868 26.1476,176.332868 26.2486,175.946868 C26.3286,175.643868 26.5146,175.369868 26.5856,175.065868 C26.6936,174.607868 26.6796,174.150868 26.8526,173.670868 C27.0936,172.997868 27.0836,172.170868 26.9596,171.446868 C26.8206,170.637868 27.3796,169.908868 27.0806,169.123868 C27.0756,169.110868 27.0806,169.093868 27.0836,169.081868 C27.1576,168.814868 27.2486,168.551868 27.3026,168.281868 C27.4436,167.576868 27.0386,166.997868 26.7106,166.475868 C26.4496,166.058868 25.8776,165.844868 25.4696,165.509868" id="Fill-17" fill="#000000"></path>
                <path d="M32.5069,176.205568 C32.4739,176.283568 32.4009,176.369568 32.3259,176.394568 C32.2789,176.411568 32.1499,176.331568 32.1389,176.278568 C32.1189,176.181568 32.1219,176.035568 32.1819,175.974568 C32.3109,175.840568 32.4829,175.747568 32.7089,175.587568 C32.6229,175.857568 32.5779,176.037568 32.5069,176.205568 M31.8559,177.844568 C31.6359,177.828568 31.3929,177.767568 31.4369,177.462568 C31.4519,177.352568 31.5529,177.256568 31.6619,177.077568 C31.8459,177.312568 31.9819,177.475568 32.0949,177.652568 C32.1029,177.664568 31.9349,177.850568 31.8559,177.844568 M32.2389,174.980568 C32.2639,175.331568 32.0379,175.485568 31.5839,175.419568 C31.6769,175.070568 31.8719,174.905568 32.2389,174.980568 M32.1179,163.619568 C32.0839,163.583568 32.0209,163.564568 31.9689,163.559568 C31.6199,163.523568 31.2709,163.494568 30.8119,163.452568 C30.4859,163.316568 30.2899,163.678568 30.0159,163.883568 C29.6689,164.144568 29.6109,164.497568 29.9579,164.728568 C30.2989,164.956568 30.3289,165.253568 30.3289,165.594568 L30.3289,171.520568 C30.3289,171.605568 30.3249,171.690568 30.3249,171.775568 C30.3219,172.292568 30.3069,172.809568 30.3209,173.325568 C30.3349,173.875568 30.4079,174.424568 30.3979,174.973568 C30.3849,175.672568 30.1139,176.367568 30.4059,177.070568 C30.4499,177.178568 30.4249,177.326568 30.4009,177.449568 C30.2879,178.018568 30.8349,178.687568 31.4199,178.703568 C32.1339,178.723568 32.4659,178.128568 32.9459,177.772568 C33.0589,177.688568 33.1429,177.564568 33.2309,177.452568 C33.3099,177.350568 33.4439,177.235568 33.4389,177.132568 C33.4099,176.545568 33.3229,175.961568 33.3029,175.374568 C33.2889,174.967568 33.3759,174.558568 33.3739,174.149568 C33.3709,173.643568 33.2969,173.138568 33.3009,172.633568 C33.3079,171.768568 33.3639,170.904568 33.3769,170.039568 C33.3909,169.086568 33.3819,168.132568 33.3789,167.178568 C33.3779,167.052568 33.3749,166.922568 33.3439,166.801568 C33.2489,166.431568 33.3199,166.119568 33.6349,165.886568 C33.8739,165.709568 33.8569,165.479568 33.6959,165.298568 C33.1839,164.726568 32.6479,164.175568 32.1179,163.619568" id="Fill-19" fill="#000000"></path>
                <path d="M11.1133,114.869668 C11.1843,114.901668 11.2563,114.934668 11.3273,114.967668 C11.2873,115.141668 11.2463,115.317668 11.2063,115.492668 C11.0803,115.423668 10.9543,115.353668 10.8283,115.284668 C10.9233,115.146668 11.0183,115.008668 11.1133,114.869668 M8.0193,118.449668 C8.2073,118.536668 8.3823,118.657668 8.5763,118.721668 C8.7563,118.779668 9.0423,118.874668 9.1293,118.792668 C9.5413,118.401668 10.1133,118.406668 10.5873,118.182668 C11.5473,117.729668 11.5343,116.723668 12.0833,116.061668 C12.0903,116.053668 12.0863,116.034668 12.0853,116.019668 C12.0523,114.933668 12.1233,113.832668 11.9543,112.767668 C11.8133,111.880668 11.5583,111.016668 11.6733,110.031668 C11.6573,109.966668 11.6583,109.810668 11.5873,109.705668 C11.2843,109.255668 10.9473,108.828668 10.6483,108.377668 C10.4663,108.102668 10.3603,107.772668 10.1583,107.515668 C10.0323,107.356668 9.7953,107.209668 9.6013,107.199668 C9.3453,107.186668 9.3703,107.451668 9.3753,107.648668 C9.3823,107.974668 9.3983,108.301668 9.3843,108.625668 C9.3723,108.905668 9.3493,109.189668 9.2833,109.460668 C9.2193,109.723668 9.1053,109.976668 8.9943,110.226668 C8.8473,110.560668 8.6793,110.885668 8.5263,111.216668 C8.3623,111.570668 8.2283,111.941668 8.0383,112.281668 C7.8043,112.699668 7.5193,113.088668 7.2753,113.500668 C7.2243,113.587668 7.2483,113.721668 7.2473,113.833668 C7.2453,114.474668 7.2323,115.116668 7.2553,115.757668 C7.2623,115.951668 7.3303,116.176668 7.4473,116.328668 C7.6553,116.599668 7.7183,116.848668 7.6133,117.183668 C7.4793,117.611668 7.7373,118.317668 8.0193,118.449668" id="Fill-21" fill="#000000"></path>
                <path d="M17.2149,32.3862681 C17.2739,32.3252681 17.4229,32.3522681 17.5309,32.3382681 C17.5389,32.4482681 17.5949,32.6182681 17.5459,32.6572681 C17.3609,32.8062681 17.1429,32.9122681 16.9369,33.0342681 L16.8399,32.9062681 C16.9629,32.7302681 17.0689,32.5382681 17.2149,32.3862681 M11.6619,35.3472681 C11.5759,35.3982681 11.5069,35.5772681 11.5279,35.6752681 C11.5459,35.7542681 11.7289,35.8682681 11.8109,35.8502681 C12.1549,35.7692681 12.4899,35.6452681 12.8269,35.5332681 C12.9979,35.4782681 13.1659,35.3632681 13.3349,35.3642681 C14.0729,35.3702681 14.6599,34.9382681 15.3199,34.7212681 C16.0929,34.4662681 16.8409,34.1842681 17.4889,33.6592681 C18.0589,33.1982681 18.9899,33.4742681 19.4529,32.7422681 C19.4799,32.6992681 19.6149,32.7092681 19.6969,32.7162681 C19.9989,32.7442681 20.1629,32.5902681 20.2689,32.3262681 C20.3009,32.2472681 20.3759,32.1712681 20.4509,32.1252681 C20.7439,31.9482681 21.0809,31.8252681 21.3369,31.6062681 C22.0889,30.9612681 23.1719,30.7652681 23.7109,29.8392681 C23.7159,29.8292681 23.7359,29.8292681 23.7469,29.8212681 C24.0969,29.5562681 24.1159,29.2352681 23.8199,28.9082681 C23.6999,28.7762681 23.5479,28.6282681 23.5159,28.4662681 C23.3569,27.6822681 22.8419,27.2342681 22.1479,26.9472681 C21.8939,26.8412681 21.6139,26.6842681 21.3619,26.7092681 C20.7479,26.7702681 20.0599,26.7302681 19.7099,27.4792681 C19.7089,27.4782681 19.7229,27.5552681 19.7689,27.5992681 C20.1479,27.9602681 19.9739,28.2302681 19.6699,28.5392681 C19.4859,28.7272681 19.3969,29.0082681 19.2649,29.2472681 L19.2369,29.1892681 C18.9619,29.4242681 18.6639,29.6402681 18.4129,29.9002681 C17.8909,30.4402681 17.4079,31.0192681 16.8809,31.5532681 C16.5519,31.8852681 16.0789,32.1052681 15.8309,32.4812681 C15.2959,33.2932681 14.4329,33.6482681 13.6939,34.1672681 C13.0559,34.6152681 12.3349,34.9462681 11.6619,35.3472681" id="Fill-23" fill="#000000"></path>
                <path d="M19.3121,157.900868 C19.0921,157.016868 18.7381,156.214868 17.8021,155.847868 C17.7141,155.813868 17.6471,155.729868 17.5611,155.687868 C17.3341,155.579868 17.1081,155.408868 16.8731,155.392868 C16.2351,155.351868 15.5921,155.379868 14.9521,155.378868 C14.8521,155.378868 14.7321,155.411868 14.6571,155.368868 C14.1061,155.045868 13.5681,155.314868 13.1041,155.502868 C12.3771,155.796868 11.6691,156.120868 10.8961,156.280868 C10.6401,156.334868 10.3681,156.377868 10.1441,156.499868 C9.9701,156.594868 9.8601,156.805868 9.7211,156.965868 C9.9011,157.113868 10.0681,157.282868 10.2641,157.404868 C10.5641,157.590868 10.8811,157.752868 11.1981,157.910868 C11.3521,157.986868 11.5171,158.057868 11.6851,158.084868 C12.1711,158.162868 12.7281,157.890868 13.1311,158.390868 C13.1641,158.430868 13.2681,158.407868 13.3321,158.431868 C13.8431,158.628868 14.3541,158.827868 14.8631,159.031868 C14.9121,159.050868 14.9381,159.121868 14.9871,159.144868 C15.0951,159.198868 15.2101,159.235868 15.3211,159.282868 C15.5041,159.359868 15.7011,159.417868 15.8661,159.524868 C16.2541,159.776868 16.6261,160.051868 16.9711,160.295868 C17.4011,160.163868 17.7581,160.128868 18.0241,159.954868 C18.4501,159.676868 19.0561,159.492868 18.9161,158.755868 C18.8971,158.652868 19.0891,158.520868 19.1541,158.386868 C19.2281,158.232868 19.3471,158.042868 19.3121,157.900868" id="Fill-25" fill="#000000"></path>
                <path d="M20.8096,24.4623681 C20.9256,25.0023681 20.8676,25.1143681 20.4526,25.1083681 C20.4316,24.7903681 20.3946,24.4963681 20.8096,24.4623681 M16.1156,28.8183681 C16.2836,28.7273681 16.4456,28.6213681 16.6206,28.5483681 C16.9386,28.4153681 17.3006,28.3573681 17.5796,28.1703681 C18.1486,27.7883681 18.5716,27.1793681 19.3126,27.0633681 C19.3246,27.0613681 19.3316,27.0423681 19.3436,27.0343681 C19.8316,26.7213681 20.3396,26.4343681 20.8036,26.0863681 C21.5176,25.5523681 22.2236,25.0033681 22.8886,24.4093681 C23.2616,24.0753681 23.2096,23.8763681 22.8446,23.5043681 C22.7776,23.4363681 22.7426,23.3383681 22.6796,23.2653681 C22.4126,22.9533681 22.3116,22.4433681 21.7456,22.4773681 C21.6976,22.4803681 21.6386,22.3923681 21.5926,22.3393681 C21.3166,22.0143681 20.9926,21.9053681 20.5806,22.0743681 C20.4296,22.1363681 20.2546,22.1593681 20.0906,22.1633681 C19.7766,22.1713681 19.6946,22.3353681 19.6736,22.6223681 C19.6516,22.9073681 19.6486,23.2623681 19.4846,23.4583681 C18.6906,24.4033681 17.8466,25.3083681 17.0176,26.2243681 C16.9086,26.3453681 16.7806,26.4473681 16.6766,26.5703681 C16.1976,27.1333681 15.7746,27.7513681 15.0536,28.0533681 C14.9766,28.0853681 14.8876,28.3063681 14.9146,28.3343681 C15.1526,28.5873681 15.4146,28.8163681 15.6756,29.0573681 C15.8826,28.9443681 15.9986,28.8813681 16.1156,28.8183681" id="Fill-27" fill="#000000"></path>
                <path d="M8.8208,174.808068 C9.0218,174.937068 9.2238,175.064068 9.4218,175.196068 C9.6668,175.359068 9.9358,175.498068 10.1478,175.698068 C10.5538,176.080068 10.9618,176.355068 11.5478,176.086068 C11.6668,176.032068 11.8278,176.074068 11.9678,176.063068 C12.2908,176.039068 12.6138,176.023068 12.9338,175.979068 C13.5108,175.901068 13.9328,175.330068 14.5798,175.448068 C14.6248,175.455068 14.7128,175.379068 14.7378,175.323068 C14.9048,174.961068 15.1658,175.042068 15.4798,175.093068 C15.7708,175.141068 16.2178,175.164068 16.3588,174.998068 C16.6328,174.672068 16.9258,174.690068 17.2538,174.702068 C17.5468,174.711068 17.8398,174.776068 18.1308,174.766068 C18.2978,174.760068 18.4778,174.680068 18.6218,174.587068 C18.7738,174.490068 18.8848,174.331068 19.0238,174.210068 C19.4558,173.834068 19.4488,173.340068 19.0038,173.011068 C18.9628,172.981068 18.9078,172.941068 18.8998,172.898068 C18.8128,172.410068 18.3778,172.341068 18.0338,172.144068 C17.7668,171.992068 17.5638,171.999068 17.3028,172.149068 C16.9558,172.348068 16.5608,172.467068 16.2218,172.679068 C15.8488,172.912068 15.2998,172.809068 15.0538,173.303068 C15.0278,173.355068 14.7728,173.284068 14.6248,173.287068 C14.4388,173.291068 14.1438,173.247068 14.0878,173.339068 C13.8808,173.686068 13.5888,173.736068 13.2548,173.686068 C12.9378,173.639068 12.7218,173.709068 12.5058,173.977068 C12.3838,174.126068 12.0858,174.134068 11.8648,174.202068 C11.6328,174.274068 11.3608,174.289068 11.1738,174.423068 C10.8928,174.624068 10.6268,174.645068 10.3048,174.593068 C9.8258,174.516068 9.3388,174.457068 8.8748,174.658068 C8.8568,174.708068 8.8388,174.758068 8.8208,174.808068" id="Fill-29" fill="#000000"></path>
                <path d="M17.4556,168.087368 C17.5556,168.089368 17.6526,168.204368 17.8316,168.324368 C17.6616,168.441368 17.5486,168.569368 17.4876,168.549368 C17.3786,168.511368 17.2996,168.384368 17.2086,168.293368 C17.2906,168.220368 17.3746,168.085368 17.4556,168.087368 M12.5606,168.901368 C12.2986,169.092368 11.9826,169.222368 11.5886,169.123368 C11.3396,169.061368 11.0146,169.177368 10.7606,169.293368 C10.3786,169.467368 10.0146,169.597368 9.5946,169.465368 C9.4906,169.432368 9.3666,169.416368 9.2636,169.441368 C9.1536,169.469368 9.0586,169.554368 8.9566,169.614368 C9.0336,169.700368 9.0936,169.815368 9.1876,169.869368 C9.4746,170.031368 9.7766,170.164368 10.0666,170.321368 C10.3866,170.495368 10.6936,170.692368 11.0166,170.861368 C11.2066,170.961368 11.4386,170.993368 11.6116,171.114368 C11.9976,171.382368 12.2316,171.364368 12.5316,170.992368 C12.5736,170.941368 12.6356,170.890368 12.6986,170.874368 C13.3746,170.696368 14.0716,170.576368 14.7266,170.339368 C15.2876,170.137368 15.8276,169.948368 16.4326,170.010368 C16.6926,170.037368 16.9626,170.061368 17.0696,169.705368 C17.0886,169.639368 17.2826,169.603368 17.3986,169.592368 C17.8456,169.554368 18.2936,169.517368 18.7426,169.509368 C19.0126,169.504368 19.0476,169.377368 19.0806,169.143368 C19.1536,168.618368 18.8716,168.202368 18.7396,167.738368 C18.5176,166.959368 18.0886,166.757368 17.3916,167.155368 C17.3206,167.195368 17.2306,167.200368 17.1586,167.238368 C16.4126,167.628368 15.5476,167.709368 14.8196,168.147368 C14.7286,168.201368 14.6066,168.239368 14.5026,168.233368 C14.0986,168.206368 13.7436,168.214368 13.9666,168.910368 C13.4036,168.427368 12.9996,168.581368 12.5606,168.901368" id="Fill-31" fill="#000000"></path>
            </g>
        </g>
    </g>
</svg>