<?xml version="1.0" encoding="UTF-8"?>
<svg width="125px" height="334px" viewBox="0 0 125 334" version="1.1" xmlns="http://www.w3.org/2000/svg" xmlns:xlink="http://www.w3.org/1999/xlink">
    <title>title_水经注</title>
    <g id="home" stroke="none" stroke-width="1" fill="none" fill-rule="evenodd">
        <g id="home备份" transform="translate(-275.000000, -171.000000)" fill="#000000">
            <g id="title_水经注" transform="translate(274.999700, 171.000000)">
                <path d="M36.1955,288.178761 C36.0405,293.387761 34.7775,298.161761 32.0495,302.276761 C27.8105,308.666761 27.8355,315.094761 30.6985,321.870761 C30.825,322.170261 30.9579062,322.467823 31.092998,322.764782 L31.5006094,323.655183 C32.3120625,325.437698 33.05025,327.246511 32.8035,329.369761 C32.6255,330.917761 32.4715,332.511761 30.9545,333.131761 C29.4995,333.725761 28.2265,332.981761 26.9335,331.951761 C22.8295,328.685761 22.0155,323.790761 20.9785,319.292761 C20.0185,315.130761 18.6155,311.492761 15.2165,308.020761 C17.9966622,303.76168 21.8606154,300.665762 25.78018,297.623582 L27.0185866,296.663386 C30.319538,294.100724 33.5831757,291.493356 36.1955,288.178761 Z M67.9977,241.115661 C76.3397,238.328661 80.1877,244.589661 84.8437,249.304661 C86.1737,250.651661 85.4567,252.464661 86.0257,253.973661 C87.8347,255.028661 89.3537,253.924661 90.7007,253.217661 C95.5187,250.684661 99.2647,253.772661 103.2407,255.452661 C104.5177,255.992661 104.9537,257.414661 104.7037,258.888661 C104.4547,260.359661 103.1977,260.589661 102.1167,260.861661 C100.3447,261.306661 98.6037,261.042661 96.7767,260.684661 C88.4897,259.061661 80.5207,260.325661 72.1547,263.746661 C75.6647,266.612661 80.4457,266.006661 82.6807,269.472661 C83.8118951,271.225759 83.3414615,272.943207 82.7603042,274.72174 L82.5748392,275.285525 C81.9559469,277.17233 81.388261,279.1381 82.6107,281.295661 C88.2967,278.562661 94.1057,278.240661 98.9017,284.181661 C95.1337,291.421661 86.9437,286.537661 81.7717,291.221661 C83.5127,296.384661 82.0847,302.069661 80.6457,308.050661 C87.6647,308.418661 94.4357,308.174661 100.8567,305.809661 C103.6717,304.771661 105.8987,304.868661 108.3007,306.393661 C110.1167,307.545661 112.0007,308.588661 113.8517,309.684661 C113.946278,309.740705 114.04207,309.797074 114.138637,309.853876 L114.43022,310.025691 C116.432555,311.210143 118.575144,312.62275 117.0627,315.206661 C115.6417,317.634661 113.2857,320.564661 109.7437,318.390661 C103.1597,314.349661 95.8687,313.615661 88.6357,314.413661 C86.5450333,314.644161 84.4517278,314.858605 82.3573991,315.068309 L77.6441146,315.536916 C68.7405576,316.424984 59.8404083,317.380703 51.0677,319.272661 C48.8110846,319.759353 47.2567104,321.270303 45.7337408,322.742084 L45.2530645,323.204315 C44.8520669,323.586355 44.4483538,323.95793 44.0297,324.299661 C40.5987,323.013661 40.1807,318.968661 36.7117,317.771661 C37.5987,316.295661 38.4097,314.945661 39.0617,313.860661 C49.2127,314.080661 58.6567,310.841661 68.5867,309.972661 L68.5867,309.972661 L68.5867,293.630661 C66.55248,293.903341 64.3848576,295.126484 62.2542942,296.137203 L61.8787319,296.313123 L61.8787319,296.313123 L61.5041471,296.483214 C57.6392052,298.205795 53.96418,298.767081 51.5127,291.115661 C55.3387,286.809661 61.1367,287.884661 65.9077,286.432661 C69.1807,285.437661 70.0397,284.129661 69.5417,281.327661 C69.4335723,280.718597 69.3522369,280.101108 69.2828745,279.4791 L69.2169543,278.855731 C68.8072794,274.795922 68.6947638,270.600235 64.8097,267.341661 C61.1758385,269.499523 59.3355741,267.693805 57.3735493,265.596865 L57.0853322,265.288343 C56.0237187,264.152599 54.9001462,262.984584 53.4187,262.351661 C61.6217,260.458661 68.9017,258.778661 76.4697,257.032661 C74.5667,252.064661 71.1627,249.161661 67.0307,247.375661 C64.9517,246.477661 62.5537,246.216661 62.8417,243.468661 C63.1787,240.243661 66.1587,241.730661 67.9977,241.115661 Z M14.7879,273.151561 C15.5764652,273.330822 16.37471,273.476968 17.1750827,273.612444 L17.8614615,273.726476 L17.8614615,273.726476 L18.8906721,273.894595 C22.7742478,274.534196 26.5807696,275.300257 29.4449,278.764561 C30.9609,280.599561 31.2519,282.235561 30.1369,284.143561 C28.8369,286.368561 26.8929,286.348561 24.5279,285.920561 C19.1469,284.949561 16.8949,279.403561 12.0449,277.681561 C11.5639,277.511561 11.1569,275.639561 11.5039,274.963561 C12.0939,273.819561 13.4459,273.257561 14.7879,273.151561 Z M27.2742,246.240461 C28.0002,245.967461 28.9122,246.192461 29.7402,246.192461 C35.4042,246.186461 41.7852,250.669461 43.6042,256.039461 C44.1822,257.741461 43.6232,259.339461 42.1972,260.472461 C40.9462,261.466461 39.8342,262.762461 37.8352,261.669461 C35.5252,260.404461 33.2142,259.342461 31.5572,257.082461 C30.1242,255.128461 28.7202,253.029461 26.2662,252.004461 C24.9322,251.447461 23.3722,250.725461 23.5612,248.859461 C23.7145,247.346761 24.76891,246.932151 25.880307,246.634994 L26.357648,246.511973 C26.67492,246.430941 26.987,246.348061 27.2742,246.240461 Z M93.9979,128.338661 C96.5649,131.051661 101.8529,130.254661 103.9629,134.842661 C101.7319,137.782661 98.6819,137.416661 95.8669,136.953661 C87.4849,135.574661 82.3359,136.374661 75.2159,140.547661 C79.4669,143.471661 86.2779,142.530661 88.5229,149.786661 C92.8760159,144.17782 96.8564161,146.720807 100.857844,149.697909 L101.227278,149.973726 C101.35045,150.065927 101.473654,150.158313 101.5969,150.250661 C103.0519,151.341661 103.9669,152.695661 103.5289,154.464661 C103.1169,156.124661 102.7589,157.537661 100.3949,158.280661 C96.7614667,159.420661 93.7758278,161.703427 90.8288025,164.061748 L89.4333332,165.180298 C88.19122,166.172119 86.9389,167.147461 85.6309,168.026661 C83.7599,169.284661 85.0909,171.732661 84.8179,173.948661 C85.4404,173.997036 86.0685719,174.027755 86.6984781,174.053169 L87.3288167,174.077272 C87.4339208,174.081147 87.5390367,174.084989 87.6441461,174.088855 L88.2745784,174.1128 C92.1599638,174.267894 95.986525,174.612682 98.8309,178.043661 C98.3217481,178.688939 97.9350505,179.179024 97.480231,179.579481 L97.3341171,179.703039 L97.3341171,179.703039 L97.1821406,179.821096 C95.7321859,180.898728 93.3419253,181.317674 85.1319,182.756661 C84.6849,187.017661 84.2269,191.385661 83.7139,196.273661 C91.4499,195.329661 98.8169,194.676661 106.0879,193.461661 C111.5779,192.543661 118.8449,198.261661 118.4019,203.683661 C115.1119,205.629661 112.2159,205.002661 108.7849,203.334661 C101.831161,199.954574 94.2596883,200.639357 86.8910097,201.265059 L85.8398095,201.353598 C85.4899284,201.38268 85.1405957,201.411183 84.7919,201.438661 C74.4309,202.254661 64.1789,204.073661 54.1099,206.950661 C51.6989,207.639661 50.1719,209.051661 48.3009,210.358661 C45.8329,209.415661 44.7819,207.400661 43.7059,205.437661 C44.0262846,203.989392 45.0110272,203.296541 46.091566,202.614165 L46.4759845,202.372548 C46.9269533,202.088338 47.3828231,201.791046 47.8039,201.428661 C43.8959,196.790661 43.1949,190.626661 39.9229,185.691661 L39.9229,185.691661 L39.0999,184.323661 C39.9059,183.959661 40.5469,184.104661 40.9709,184.926661 C50.9449,187.109661 55.1689,192.888661 52.9379,202.069661 C59.9539,200.603661 66.7289,199.188661 73.5219,197.769661 C74.3099,193.962661 73.0119,190.137661 74.7129,185.661661 C69.0719,187.639661 64.4659,186.688661 60.8289,181.984661 C64.5299,179.698661 69.2729,180.593661 73.8789,178.159661 C70.7999,172.217661 75.0019,165.847661 73.1089,159.296661 C69.8739,162.755661 69.6609,163.114661 70.6049,167.426661 C71.0379,169.406661 70.2479,170.784661 68.9109,171.717661 C67.1849,172.923661 65.6789,171.798661 64.6709,170.375661 C62.7759,167.700661 61.0449,164.907661 59.2419,162.165661 C58.5169,161.065661 58.4409,160.012661 59.4569,159.043661 C60.5399,158.012661 61.9589,157.593661 63.0749,158.527661 C67.4629,162.198661 70.0839,157.618661 72.7839,156.015661 C75.4869,154.411661 73.2889,150.689661 72.2629,148.843661 C71.0549,146.672661 70.7759,144.627661 70.7329,142.312661 C62.8469,145.038661 60.9629,143.940661 61.9859,137.623661 C67.2859,136.309661 72.5829,135.167661 77.7749,133.662661 C83.1079,132.115661 88.3389,130.212661 93.9979,128.338661 Z M25.9067,182.707061 C34.5387,185.755061 39.0557,201.172061 33.8957,207.707061 C31.8457,210.303061 29.8257,210.423061 27.9387,207.778061 C26.2257,205.377061 24.2767,202.719061 24.8377,199.690061 C25.8537,194.206061 25.7037,188.681061 25.9067,182.707061 Z M39.3797,117.384761 C41.0997,116.797761 46.8147,122.067761 47.1077,124.747761 C47.4517,127.894761 45.3857,129.541761 42.4557,129.828761 C39.0277,130.163761 36.7617,132.526761 34.4557,134.478761 C34.0783154,134.798223 33.7021438,135.118755 33.3265252,135.439539 L31.6377471,136.882002 C27.6955802,140.23881 23.7052385,143.487876 18.9027,145.680761 C18.0027,146.090761 16.8987,146.913761 16.7757,148.989761 C22.0017,149.034761 26.7287,155.667761 32.4497,149.238761 C32.5757,149.870761 32.6874778,150.428094 32.7959963,150.969724 L32.9577,151.777761 C33.2507,151.723761 33.6507,151.767761 33.7537,151.613761 C34.7164917,150.177594 35.7624812,148.79936 36.8222946,147.430675 L38.1870681,145.672389 C40.3049083,142.933615 42.3591167,140.150094 43.7947,136.934761 C45.0973087,134.016065 47.418821,133.981562 49.7707896,134.098043 L50.1740982,134.118981 C50.2413045,134.122547 50.3084896,134.126109 50.3756304,134.129602 L50.7777591,134.149239 C51.1789873,134.167041 51.5769609,134.177804 51.9667,134.167761 C54.9837,140.395761 54.6327,140.329761 49.2707,144.963761 C44.2657,149.287761 39.9457,154.404761 35.3177,159.177761 C37.3627,162.079761 40.2397,161.320761 42.4167,161.927761 C46.6457,163.107761 49.0967,165.367761 50.9097,169.318761 C52.4447,172.665761 51.5677,175.159761 48.9987,176.511761 C46.3617,177.899761 43.5687,176.615761 41.8647,173.992761 C40.8817,172.482761 40.1657,170.797761 39.0667,168.684761 C32.8427,173.233761 26.2217,176.691761 20.4397,181.686761 C16.6227,184.983761 15.1247,188.242761 14.4197,193.167761 C14.0057714,196.057118 12.3651796,198.775645 10.6821268,201.481443 L10.1506062,202.335667 C9.532075,203.332198 8.9247,204.329261 8.3877,205.334761 C7.6117,206.785761 6.2707,207.735761 4.6887,207.064761 C2.9397,206.321761 2.4727,204.257761 3.0347,202.845761 C4.0927,200.186761 3.5827,197.759761 2.6527,194.872761 C5.37837647,194.547879 7.11180294,192.95226 8.78416891,191.285707 L9.49987362,190.570625 C10.2969803,189.779038 11.1104059,189.010232 12.0407,188.393761 C15.4580333,186.128428 15.0807,183.219539 14.3113667,180.370798 L14.193452,179.944026 C14.13345,179.730953 14.0722,179.518417 14.0111375,179.306714 L13.8896878,178.884507 C13.6289317,177.972512 13.3896667,177.079878 13.2887,176.230761 C12.9367,173.281761 13.8397,171.874761 15.8137,171.323761 C19.2147233,170.376319 21.0337541,168.065251 22.6675898,165.610098 L23.0153719,165.082233 C23.7649639,163.935673 24.4961419,162.776831 25.3487,161.727761 C22.4107,156.889761 18.0877,156.662761 13.4217,157.099761 C7.8177,157.622761 7.2037,156.806761 8.6627,151.465761 C9.0947,149.883761 9.3927,148.264761 9.9077,145.965761 C14.6327,147.450761 17.1447,143.963761 19.3567,141.522761 C19.7527,141.085561 20.15262,140.650601 20.5549892,140.216883 L21.3625573,139.350809 C21.7675384,138.918304 22.1739881,138.486377 22.5804357,138.05403 L23.392892,137.188478 C28.1271198,132.132712 32.7275889,126.929205 34.8587,119.993761 C35.5287,117.816761 37.7547,117.940761 39.3797,117.384761 Z M32.3107,164.676761 C27.9837,164.312761 27.2397,168.130761 24.2227,170.493761 C29.5737,170.084761 33.6147,168.416761 37.7937,167.018761 C36.6987,164.906761 36.6867,165.043761 32.3107,164.676761 Z M89.5129,151.016661 C85.5046647,151.415484 85.4960834,153.550294 85.7609195,155.745942 L85.8235496,156.240283 L85.8235496,156.240283 L85.8657717,156.568891 C86.0238784,157.825084 86.1183853,159.032161 85.4409,159.871661 C85.4954854,159.812759 85.5503396,159.753956 85.6054048,159.695223 L85.937862,159.343409 C85.9935386,159.28483 86.0493101,159.226259 86.1051185,159.167666 L86.4399466,158.815585 C88.3902766,156.757327 90.2436317,154.596051 89.5129,151.016661 Z M49.445,2.35736096 C50.6033415,-0.0954195234 52.3556621,-0.0899608678 54.1352841,0.0486721613 L54.4799158,0.0765429409 C54.5373605,0.0812571064 54.5947956,0.085953759 54.652202,0.0905548531 L54.9961445,0.116390346 C55.2822231,0.135923725 55.5666341,0.149165842 55.847,0.146360964 C59.563,0.110360964 62.814,1.73536096 65.835,3.68836096 C69.052,5.76736096 70.3,8.39636096 67.194,11.658361 C65.223,13.727361 65.136,16.576361 64.924,19.027361 C64.472,24.267361 64.786,29.573361 64.786,35.931361 C68.006,33.347361 70.545,31.410361 72.968,29.337361 C75.467,27.198361 77.553,24.630361 80.716,23.221361 C82.224,22.550361 83.207,21.090361 83.877,19.152361 C85.974,13.081361 89.609,12.282361 95.358,15.789361 C98.325,17.599361 100.525,20.192361 103.477,22.474361 C102.475,22.964361 101.066,23.375361 101.087,23.683361 C101.399644,28.0603779 99.0115159,28.421797 96.2775915,28.8586128 L95.9192251,28.9163526 C95.2593347,29.0242257 94.5855254,29.1465813 93.93,29.339361 C84.456,32.123361 75.638,36.679361 66.488,40.863361 C67.3141739,41.6411871 68.1347826,42.4195727 68.9522503,43.1960232 L70.1763993,44.358936 C78.3257278,52.0978543 86.2821739,59.5185349 96.47,64.126361 C101.202824,66.2658904 106.133003,67.7367139 111.079021,69.1582283 L113.199184,69.7662356 L113.199184,69.7662356 L114.259,70.071361 C117.899,71.123361 121.481,72.220361 124.761,74.149361 L124.761,74.149361 L124.761,81.149361 C117.415,82.120361 110.06,83.116361 102.972,85.339361 C98.878,86.622361 95.436,86.671361 92.072,83.355361 C84.279,75.673361 75.596,68.900361 68.588,60.404361 C68.5640476,60.3753133 68.5401383,60.3458984 68.5161652,60.3162438 L68.3707055,60.136463 C67.926898,59.5946263 67.3931429,59.0579324 66.146,59.271361 C64.781,63.474361 66.282,68.075361 66.291,72.344361 C66.301,77.313361 66.919,82.543361 66.589,87.547361 C66.3898889,90.5601017 65.304786,93.4204364 64.1140602,96.2644614 L63.6641111,97.3304721 C62.9863333,98.9291387 62.306,100.528028 61.762,102.151361 C60.365,106.320361 53.613,105.678361 52.462,101.052361 C51.526878,97.2973854 49.2521481,95.0129862 46.8035798,92.8840314 L46.2570658,92.4129546 C46.1656612,92.3346901 46.0741365,92.2565052 45.9825511,92.178333 L45.4327829,91.7089191 C44.6084581,91.0034246 43.7888049,90.2881415 43.017,89.514361 C40.855,87.346361 37.9,85.800361 36.852,82.125361 C42.275,82.978361 47.006,86.256361 51.656,85.062361 C54.1464468,76.3468503 53.5079289,67.7881084 53.0235575,59.1881446 L52.9379194,57.6240165 C52.7729638,54.4946756 52.6547021,51.3582971 52.741,48.205361 L52.741,48.205361 L47.905,48.205361 C48.871,45.787361 51.565,46.116361 52.682,43.964361 C50.833,42.128361 52.261,40.067361 52.53,37.756361 C53.613,28.476361 51.771,19.190361 51.644,9.88236096 C51.638,9.42636096 51.432,8.77036096 51.095,8.55436096 C48.62,6.96636096 48.1,5.20236096 49.445,2.35736096 Z M34.349,28.652861 C37.023,24.775861 40.465,25.312861 43.822,27.691861 C44.0593077,27.8600917 44.3037396,28.0240207 44.5509873,28.1857886 L44.8487602,28.3790097 C44.9482845,28.4431623 45.0479835,28.5071061 45.1475816,28.5709781 L45.5941605,28.8583801 L45.5941605,28.8583801 L45.8883648,29.0508131 C48.3712907,30.6922328 50.3402769,32.5096917 47.223,36.774861 C44.671,40.266861 43.32,44.737861 41.89,48.926861 C39.104,57.079861 34.5,64.145861 28.799,70.381861 C21.241,78.648861 11.228,81.091861 0,80.618861 C16.877,70.046861 28.239,55.332861 34.429,36.435861 C32.241,35.843861 30.775,37.134861 29.298,38.364861 C23.975,42.797861 18.651,47.228861 13.351,51.689861 C12.865,52.098861 12.489,52.678861 12.174,53.241861 C9.273,58.407861 8.003,58.560861 3.922,53.849861 C1.677,51.258861 -0.391,48.166861 0.265,44.724861 C0.705,42.414861 3.488,39.986861 5.716,40.401861 C12.9198793,41.740223 18.4448867,38.3646211 24.0914594,35.3344934 L24.8452141,34.9329678 C26.2289982,34.2022195 27.6248276,33.5055506 29.059,32.916861 C31.252,32.016861 32.96,30.663861 34.349,28.652861 Z" id="形状结合"></path>
            </g>
        </g>
    </g>
</svg>