<?xml version="1.0" encoding="UTF-8"?>
<svg width="40px" height="40px" viewBox="0 0 40 40" version="1.1" xmlns="http://www.w3.org/2000/svg" xmlns:xlink="http://www.w3.org/1999/xlink">
    <title>favicon</title>
    <g id="favicon" stroke="none" stroke-width="1" fill="none" fill-rule="evenodd">
        <rect id="矩形" fill="#01004D" x="0" y="0" width="40" height="40" rx="8"></rect>
        <path d="M24.6876248,17.2484076 C24.1639037,17.2484076 23.9893301,16.9087049 23.6052679,16.5350318 C23.6052679,16.2789482 23.5782727,15.9090497 23.5436635,15.5337634 L23.5284213,15.3729127 C23.4686391,14.7574774 23.3957795,14.169307 23.3957795,14.089172 L23.395544,13.9977234 C23.3954108,13.9675474 23.3952467,13.9376825 23.3951232,13.9081409 L23.3950812,13.7774293 C23.3995983,12.963948 23.5239821,12.4283439 25.4208343,12.4585987 C25.6303228,12.4585987 26.1540438,12.5944798 26.1540438,12.5944798 L26.258788,12.7983015 C26.2937028,12.8322718 26.3635323,14.6666667 26.3635323,15.0403397 C26.3635323,15.5159236 26.3286175,15.9235669 26.258788,16.5350318 C26.1191291,17.3503185 25.0367722,17.2484076 24.6876248,17.2484076 Z M14.0735444,17.3842887 C12.6420401,17.3842887 13.4450791,14.0552017 13.0261023,14.2929936 L13.0261023,13.6815287 C13.0261023,13.4437367 12.921358,12.7983015 13.2355907,12.7983015 C13.4916321,12.6737438 13.8063497,12.663364 14.0990637,12.662499 L16.0636845,12.6624204 C16.3779171,12.8322718 16.4128319,13.2738854 16.4128319,13.6475584 L16.4128319,14.0212314 C16.4128319,14.1359755 16.4252805,14.5535163 16.4396655,14.9874754 L16.446583,15.1931357 C16.4628685,15.670614 16.4794919,16.112911 16.4822598,16.1333591 L16.4825492,16.1334851 L16.4823941,16.1452403 C16.4775845,16.3347632 16.407844,17.2823779 16.2731729,17.2823779 C15.4003045,17.4522293 15.1559013,17.3842887 14.0735444,17.3842887 Z M20.8819184,17.2823779 L18.9965225,17.2823779 C17.9490803,17.2823779 18.1585688,15.447983 18.1585688,14.7006369 C18.1585688,13.6815287 17.9490803,12.6624204 18.926693,12.6624204 L20.8120889,12.6624204 C21.6342321,12.6624204 21.4480865,14.5590478 21.4407695,15.2081213 L21.4405542,15.2441614 C21.4405542,15.6518047 21.5103836,15.6518047 21.5103836,16.8747346 C21.5103836,17.0785563 21.0914068,17.2823779 20.8819184,17.2823779 Z M25.0018575,23.8386412 C24.8971132,23.8386412 24.1639037,23.7027601 24.0242448,23.7027601 C23.9544153,23.6348195 23.6052679,23.2951168 23.6052679,23.0912951 L23.8147564,18.9129512 C23.8147564,18.5334212 24.3292609,18.5072467 24.7101822,18.5054416 L24.792369,18.5053079 L24.792369,18.5053079 C25.0500398,18.5053079 25.2692485,18.4887983 25.4554929,18.4872794 L25.516361,18.4873715 C26.3118584,18.497155 26.4682765,18.8721868 26.4682765,22.3779193 C26.4682765,24.0084926 25.8747259,23.8386412 25.0018575,23.8386412 Z M20.5999716,24.1228435 L20.4967972,24.1211072 C20.2569014,24.1156224 20.0245676,24.1015963 19.8344762,24.1104034 C19.3456699,24.1104034 18.7172046,24.0424628 18.5077162,23.4989384 C18.5077162,22.9893843 18.3331425,21.9363057 18.2982277,21.8683652 L18.298075,21.596702 C18.2970671,19.9792038 18.3092534,18.6072187 19.1361814,18.6072187 L21.2310657,18.6072187 C21.8246163,18.6072187 21.859531,21.1549894 21.859531,21.970276 C21.859531,22.3779193 21.9293605,22.7855626 21.9293605,23.2271762 C21.9293605,24.0399465 21.2550606,24.129369 20.5999716,24.1228435 L20.5999716,24.1228435 Z M14.1870609,24.3141231 L13.864056,24.3142251 L13.864056,24.3142251 C13.4799939,24.1783439 13.3752496,23.8386412 13.3752496,23.4649682 C13.3752496,23.2271762 13.4450791,22.9893843 13.4450791,22.7855626 C13.4450791,22.4118896 13.3403349,21.970276 13.3403349,21.5626327 C13.3403349,21.4607219 13.3403349,21.1549894 13.4450791,21.0530786 L13.4450791,19.4225053 C14.0735444,18.4713376 14.0735444,18.7770701 15.330475,18.7091295 C15.6447076,18.7091295 16.4128319,18.8110403 16.4128319,18.8110403 L16.4826613,18.9129512 C16.6659637,19.6008493 16.6921498,21.1104034 16.6937999,22.3667728 L16.6937999,22.6413615 C16.6934698,22.9558334 16.6921498,23.2479358 16.6921498,23.4989384 C16.6921498,24.2734607 16.1564704,24.3121868 14.1870609,24.3141231 L14.1870609,24.3141231 Z M4.92588299,36 C5.79875145,36 10.4424116,34.0636943 11.5596833,33.418259 C13.864056,32.3651805 15.6796224,30.836518 17.9490803,29.5456476 C18.1585688,29.3418259 18.1585688,29.3418259 18.1585688,28.9341826 C18.1585688,28.5265393 16.9365529,27.0318471 16.4128319,26.14862 C16.2731729,26.0806794 16.2033434,26.0806794 15.993855,26.0806794 C15.4352192,26.0806794 14.3528623,28.0509554 13.9688002,28.5265393 C12.0135749,31.0063694 9.18548106,32.8747346 7.16042624,34.2335456 C6.392302,34.7091295 4.64656509,35.4225053 4.64656509,35.7961783 C4.64656509,36 4.71639456,36 4.92588299,36 Z M28.0394397,34.4373673 C28.8075639,34.4373673 30.5533008,32.3312102 30.5533008,31.1762208 C30.5533008,30.1231423 29.5058587,29.7154989 28.667905,29.2059448 C26.6777649,28.0849257 24.7574543,26.9639066 22.4879963,26.2845011 C22.2785079,26.2845011 22.1388489,26.4883227 22.1388489,26.5562633 L22.1388489,26.7600849 C22.5578258,27.3036093 23.1513763,27.6433121 23.6052679,28.118896 C24.7574543,29.3757962 25.8048964,30.7685775 26.1540438,32.3312102 C26.1540438,33.2144374 27.1665712,34.4373673 28.0394397,34.4373673 Z M10.7217295,24.3142251 C9.88377582,24.4501062 9.25531053,24.4501062 8.52210103,24.4501062 C7.05568202,24.4501062 5.76383671,24.3142251 4.29741771,24.3142251 C4.29741771,24.3142251 3.91335559,24.6539278 4.0180998,24.7218684 C4.89096826,25.6050955 5.72892197,26.6921444 6.53196095,26.6921444 C7.99837996,26.6921444 9.36005475,26.2505308 10.8264738,26.14862 C15.1565996,25.8965605 17.1917587,25.7876348 19.1359038,25.7358672 L19.3557253,25.7302463 C21.0032471,25.6898514 22.6451126,25.6883227 25.6303228,25.6730361 C26.2161802,25.6730361 27.8311248,25.6906019 29.4194471,25.7078699 L29.7364438,25.7113143 C31.1585164,25.7267484 32.5020167,25.7409766 32.9973325,25.7409766 C33.6257978,25.7409766 34.3240926,25.9447983 35.0922168,25.9447983 C35.3715347,25.9447983 36,25.3333333 36,25.0615711 C36,24.7218684 36,24.7218684 35.7905116,24.5180467 C35.6299038,24.3617834 35.1590017,23.8101741 34.6564792,23.2600024 L34.5248523,23.1167728 C33.9749452,22.522293 33.4163094,21.970276 33.2068209,21.970276 L33.067162,21.970276 L31.7054872,23.2271762 C31.4122034,23.4174098 30.9364319,23.430092 30.6188164,23.4309375 L30.4555651,23.4309237 C29.6511372,23.4290312 29.5110951,23.3788822 29.5060064,22.0499337 L29.5056307,21.9708851 L29.5058587,21.970276 L29.5052188,21.967163 C29.4976243,21.8914047 29.4239577,20.8070401 29.3662396,19.7315423 L29.3567816,19.5525493 C29.3227471,18.8978218 29.2963703,18.2675159 29.2963703,17.8938429 L29.2963703,13.2059448 C28.8773934,13.0360934 30.7627893,11.9830149 30.7627893,11.1677282 C30.7627893,10.7600849 28.1441839,9.40127389 27.8299513,9.40127389 C26.9919975,9.40127389 26.4682765,11.4055202 25.4208343,11.2356688 C24.9669427,11.2356688 24.1639037,11.133758 23.7449269,11.0318471 C23.0117174,10.5902335 23.6052679,8.92569002 23.3957795,8.89171975 C23.3957795,7.19320594 23.9544153,6.88747346 24.5828806,6.03821656 C24.6876248,5.93630573 24.6876248,5.76645435 24.6876248,5.52866242 C24.0242448,4.88322718 23.1513763,4.44161359 22.0690195,4 C21.1263215,4 19.5551583,4.30573248 19.8344762,4.7133758 C19.590073,4.8492569 20.6026004,5.15498938 20.6026004,5.52866242 C21.0914068,6.34394904 21.0215773,7.15923567 21.0914068,8.07643312 C21.0914068,8.75583864 21.33581,9.40127389 21.3008952,10.1146497 C21.3008952,10.5562633 21.2310657,11.1677282 21.0215773,11.4394904 C18.9616078,11.4394904 18.2982277,11.8471338 18.2982277,9.60509554 C18.2982277,9.23142251 18.5077162,8.89171975 18.5775456,8.28025478 C18.7870341,7.77070064 19.4154994,7.15923567 19.4154994,6.5477707 C19.4154994,5.93630573 16.657235,4.61146497 16.6223203,4.61146497 C16.0985992,4.61146497 15.0511571,5.35881104 15.2257308,5.73248408 C15.6447076,6.34394904 16.4128319,7.15923567 16.4128319,7.97452229 L16.4128319,11.1677282 L16.2033434,11.3715499 C15.190816,11.4734607 14.3528623,11.5753715 13.2355907,11.5753715 C12.4674664,11.1677282 11.594598,10.7940552 10.7217295,10.6242038 C10.3027527,10.6242038 9.25531053,11.1677282 9.25531053,11.4394904 C9.25531053,11.8471338 9.56954318,11.7791932 9.7790316,11.9830149 C11.0953172,12.4755839 11.1391934,14.872753 11.140656,16.5049078 L11.1409318,16.8285525 C11.1461428,18.7061056 11.2400142,21.8866249 11.2452252,21.9707508 L11.2452335,21.9717354 L11.2456239,22.0139976 C11.2509212,22.7183151 11.3712891,24.3142251 10.7217295,24.3142251 Z" id="中國典籍" fill="#FFFFFF" fill-rule="nonzero"></path>
    </g>
</svg>