<?xml version="1.0" encoding="UTF-8"?>
<svg width="40px" height="40px" viewBox="0 0 40 40" version="1.1" xmlns="http://www.w3.org/2000/svg" xmlns:xlink="http://www.w3.org/1999/xlink">
    <title>favicon</title>
    <g id="favicon" stroke="none" stroke-width="1" fill="none" fill-rule="evenodd">
        <rect id="矩形" x="0" y="0" width="40" height="40" rx="8"></rect>
        <path d="M19.0861914,31.4827586 C24.7124718,31.4827586 34.5173371,29.4957354 32.5291917,24.0003274 C30.5410463,18.5049193 26.8928924,15.9808137 21.2688265,15.9808137 C19.0861914,15.9808137 14.6181042,10.3224125 12.7272581,11.6984329 C9.39304738,14.124829 7.35584036,19.9707135 9.24955125,25.7267361" id="椭圆形" fill-opacity="0.8" fill="#F70000"></path>
        <path d="M28.750495,29.5443038 C29.1366337,29.5443038 30.2435644,29.3924051 31.0158416,29.3924051 L33.2811881,29.3924051 C33.7960396,29.3924051 34.2079208,29.1139241 34.6712871,29.1898734 C34.7485149,29.3417722 35.4435644,29.164557 35.649505,29.3417722 C35.649505,29.3378773 35.6610815,29.3363793 35.6803914,29.3358953 L35.7146757,29.335757 C35.8450876,29.3366789 36.1207921,29.345667 36.0613861,29.1898734 C36.0278089,29.1788663 35.9504352,29.0865019 35.8715804,28.9876872 L35.8244284,28.9282236 C35.7388984,28.8199852 35.6618166,28.7220693 35.649505,28.7341772 C35.1790099,28.3976631 35.1349216,28.4455516 35.1334739,27.4262524 L35.133469,27.3085314 C35.1336445,27.1455179 35.1344439,26.9579019 35.1346193,26.7409635 L35.1346535,26.6582278 C35.1346535,26.6075949 35.1346535,26.2025316 35.2891089,26.0506329 L35.4435644,26.1518987 L37.760396,26.1518987 C38.3009901,26.1518987 38.3009901,25.8734177 38.5326733,26 L38.9188119,25.6962025 C38.9309681,25.3734177 38.834056,25.3272582 38.7256631,25.2991326 L38.6677423,25.2845063 C38.564772,25.2564463 38.4668867,25.2039381 38.4554455,24.9113924 C38.3782178,24.7594937 38.2237624,24.7594937 38.1465347,24.7594937 C37.760396,24.7594937 37.6831683,24.9113924 37.5287129,25.2151899 C37.0910891,25.2151899 36.5762376,25.3670886 36.2158416,25.3670886 C35.7009901,25.3670886 35.2891089,25.2911392 35.2891089,24.6835443 C35.2891089,23.8734177 36.370297,23.7721519 36.6792079,23.0126582 C36.6019802,22.8607595 35.9584158,22.7088608 35.8039604,22.6329114 C35.7524752,22.5822785 35.2376238,22.2531646 34.8772277,22.2531646 C34.7227723,22.1772152 34.6712871,22.1012658 34.6712871,21.9493671 C34.6712871,21.5696203 35.2891089,21.3417722 35.2891089,21.1898734 C35.0316832,21.0379747 34.6712871,20.7088608 34.6712871,20.4050633 C34.6712871,20.218111 35.1099772,20.2037301 35.2989513,20.2026238 L35.3405941,20.2025316 L35.3405941,20.2025316 C36.2415842,20.2025316 36.9366337,20.2531646 37.9920792,20.2531646 C38.1465347,20.2025316 38.2237624,20.2025316 38.2237624,20.0506329 C38.2237624,19.8481013 37.6059406,19.7468354 37.6059406,19.4936709 C37.5287129,19.3417722 36.5247525,18.5316456 36.370297,18.5316456 L36.2673267,18.5316456 C36.009901,18.5316456 35.7524752,18.8860759 35.4435644,18.835443 C34.9029703,18.9367089 34.5168317,19.2911392 33.7445545,19.3417722 L33.6703976,19.3417214 C33.1010251,19.3405802 32.2514851,19.3137625 32.2514851,18.6835443 C32.2514851,18.2278481 32.5089109,17.9746835 32.8693069,17.6708861 C32.8950495,17.6708861 32.9207921,17.6962025 32.9722772,17.6962025 C33.229703,17.6962025 33.7445545,17.3417722 33.7445545,17.164557 C33.7445545,16.5822785 32.1485149,16 31.7881188,16 C31.4277228,16 30.7326733,16.278481 30.3980198,16.4556962 C30.3980198,16.7088608 30.5524752,16.7594937 30.5524752,16.8607595 C30.3465347,17.3164557 29.9346535,18.3797468 29.8316832,18.835443 C29.7592822,19.0094937 29.6567141,19.148932 29.5499038,19.2831166 L29.4855159,19.3632318 C29.2705755,19.6297468 29.0594059,19.8987342 29.0594059,20.4050633 C29.0079208,20.6835443 28.3386139,20.6075949 28.0811881,21.1898734 C27.7207921,21.7468354 27.1544554,22.1772152 26.8970297,22.8607595 C26.7425743,22.835443 26.0732673,23.0379747 26.0732673,23.5443038 C26.7940594,23.5443038 27.3089109,22.4303797 27.7722772,22.4050633 C27.9524752,22.4050633 28.0554455,22.1012658 28.2871287,21.9493671 C28.3661116,21.9004603 28.4457593,21.8538419 28.525052,21.8081374 L28.6199675,21.7536427 C29.2034234,21.4192123 29.7450945,21.1047181 29.8316832,20.2531646 C29.9346535,20.1265823 30.9128713,20.5063291 30.7069307,20.4050633 C31.3247525,20.4303797 32.0712871,20.3544304 32.8178218,20.3544304 C32.9980198,20.3544304 33.0237624,20.5822785 33.0237624,20.7088608 C33.0237624,21.4936709 31.9425743,22.0759494 31.8910891,22.556962 C31.7881188,22.7088608 31.4792079,22.9367089 31.4792079,23.164557 C32.0455446,23.164557 32.4059406,22.7088608 32.9722772,22.7088608 C33.3955996,22.7088608 33.4360504,23.4276981 33.4370538,23.9365893 L33.436925,24.0171252 C33.4365589,24.0955274 33.4356436,24.1670886 33.4356436,24.2278481 C33.590099,24.4556962 33.590099,24.7594937 33.590099,25.0632911 C33.590099,25.3164557 33.3584158,25.3924051 33.1524752,25.3924051 C32.9980198,25.3924051 32.8435644,25.3670886 32.7148515,25.3670886 C32.3544554,25.3670886 31.9425743,25.6962025 31.5821782,25.5949367 C30.3465347,25.5949367 30.3465347,24.6075949 30.3980198,24.3797468 C30.3465347,24.2278481 29.8316832,24.3037975 29.6772277,24.1518987 C29.5420792,24.056962 29.4865718,23.9406646 29.4373994,23.8270372 L29.4130018,23.7705573 C29.3393564,23.6024525 29.2524752,23.4493671 28.9049505,23.3924051 C28.6990099,23.2405063 28.8534653,23.2405063 28.5960396,23.2405063 L28.5960396,23.4683544 C28.9049505,23.6962025 29.1108911,24.3797468 29.1623762,24.3037975 L29.1623762,25.5189873 C29.1623762,25.6962025 29.3683168,25.5949367 29.3683168,25.7468354 C29.3683168,25.8987342 29.1623762,26 29.0079208,26 C28.8920792,26 28.7762376,25.9857595 28.660396,25.9679589 L28.4287129,25.9307753 C28.3128713,25.9129747 28.1970297,25.8987342 28.0811881,25.8987342 C27.8237624,25.8987342 27.7722772,26.0506329 27.5148515,26.1518987 L27.2831683,26.1518987 C27.1287129,26.1518987 26.9742574,26.1772152 27,26.3544304 C27.0257426,26.5316456 27.360396,26.9113924 27.360396,26.9113924 C28.1326733,26.9113924 28.0811881,26.6075949 28.390099,26.6075949 L28.390099,26.8101266 C28.390099,26.9113924 29.5227723,26.9367089 29.5227723,27.1139241 C29.5227723,27.3670886 29.1623762,27.3670886 29.1623762,27.6708861 C29.1623762,27.9746835 29.6257426,27.6708861 29.6257426,28.0253165 C29.6257426,28.4303797 29.1623762,28.1772152 29.0079208,28.4303797 C28.9628713,28.4746835 28.9309612,28.5362166 28.9006936,28.6011596 L28.874884,28.6573378 C28.8100248,28.7982595 28.7376238,28.9367089 28.5445545,28.9367089 L27.1544554,28.9367089 C27.1544554,29.0379747 27.1287129,29.1898734 27.1287129,29.3164557 C27.1287129,29.4683544 27.1544554,29.5443038 27.3089109,29.5443038 C27.5148515,29.5443038 27.6693069,29.4936709 27.9267327,29.4936709 C28.1841584,29.4936709 28.570297,29.5696203 28.750495,29.5443038 Z M15.5960396,25.7468354 C15.9264026,25.7172996 16.1866887,25.541315 16.4382151,25.3545622 L16.5456546,25.2742616 C16.6886689,25.1673699 16.8316832,25.0632911 16.9861386,24.9873418 C17.2693069,24.9873418 17.6811881,24.6329114 17.7069307,24.6075949 C18.5049505,24.0506329 19.6891089,23.4936709 20.1782178,22.7848101 C20.1782178,22.7848101 20.3326733,22.7088608 20.409901,22.7088608 C20.8475248,22.278481 21.7742574,21.2911392 21.8,21.4177215 C22.1861386,21.1139241 22.3405941,20.8860759 22.9584158,20.8860759 C23.4981518,20.8860759 23.5005831,21.6177215 23.4997078,22.2518143 L23.4996277,22.3625316 C23.5000396,22.8 23.5144554,23.164557 23.7306931,23.164557 C24.3742574,23.164557 24.580198,22.556962 24.8376238,22.1772152 C24.7346535,21.721519 23.9623762,21.5696203 23.9623762,21.0379747 C23.9623762,20.6395736 24.7336551,20.691539 25.4846372,20.7073253 L25.599906,20.7094029 C25.9062932,20.7138321 26.2024318,20.7079725 26.4336634,20.6582278 C27.5933663,20.6582278 27.5627327,20.3838608 27.5274493,20.1616234 L27.5233483,20.135738 C27.5187057,20.105865 27.5148515,20.0772152 27.5148515,20.0506329 C27.5148515,19.6455696 27.2059406,19.2911392 27.2059406,18.835443 C27.1287129,18.6329114 26.9742574,18.6835443 26.7425743,18.6835443 C26.7168317,18.8860759 26.6910891,19.0379747 26.5366337,19.1392405 C26.0732673,19.6455696 26.1247525,19.7468354 25.3524752,19.7468354 C25.0435644,19.7468354 24.2712871,19.6455696 24.2712871,19.1898734 C24.2455446,18.8607595 24.9405941,18.4556962 25.0435644,18.0759494 L24.9920792,17.9746835 C24.580198,17.9746835 24.2455446,17.4936709 24.1168317,17.4683544 C23.2930693,17.0126582 23.1128713,16.4556962 22.2633663,16.4556962 C21.8772277,16.4556962 21.6455446,16.6075949 21.5683168,17.0126582 C21.3881188,17.8734177 21.2336634,18.5822785 20.7188119,19.5949367 C20.6020723,19.8245511 20.4258143,20.11886 20.2457682,20.4166079 L20.1736798,20.5357452 C19.8615661,21.0515434 19.560396,21.5531351 19.560396,21.721519 C19.0970297,22.6835443 18.2217822,23.1392405 17.5524752,23.9240506 C16.960396,24.6329114 16.3168317,24.9873418 15.5960396,25.6962025 L15.5960396,25.7468354 Z M31.1188119,18.7341772 C30.9643564,18.7341772 30.8613861,18.6835443 30.8613861,18.5316456 C30.8613861,18.4303797 30.8613861,18.3797468 30.9643564,18.278481 C31.1188119,18.4303797 31.3247525,18.278481 31.3247525,18.5822785 C31.3247525,18.7341772 31.2732673,18.7341772 31.1188119,18.7341772 Z M23.0356436,19.3417722 C22.8811881,19.3417722 22.8039604,19.3417722 22.8039604,19.1392405 L22.8039604,19.0379747 C22.8811881,19.1392405 23.0356436,19.1898734 23.0356436,19.3417722 Z M37.4868309,19.9999011 L37.4772277,20 C37.4772277,20 37.4514851,20 37.4514851,19.9493671 C37.4514851,19.92827 37.4693619,19.9247539 37.4753209,19.9241678 C37.5029703,19.9240506 37.5287129,19.9240506 37.5287129,19.9493671 C37.5287129,19.9936709 37.5090037,19.9992089 37.4868309,19.9999011 L37.4868309,19.9999011 Z M33.1782178,22.3291139 L33.0237624,22.3291139 L33.0237624,22.1772152 L33.1267327,22.1772152 C33.1782178,22.1772152 33.1782178,22.2531646 33.1782178,22.3291139 Z M21.6455446,39.6962025 C22.0316832,39.6962025 22.4950495,39.5443038 22.7267327,39.1392405 C22.8811881,38.9367089 22.8039604,38.5316456 22.8811881,38.3291139 C22.9012101,38.2831692 22.9246927,38.2508378 22.9475985,38.220208 L22.9669967,38.1940928 C23.0242024,38.1153305 23.069967,38.0253165 23.0356436,37.721519 L22.9584158,37.4177215 C22.9584158,37.1139241 23.1128713,36.8101266 23.1128713,36.556962 C23.1128713,36.2531646 23.0356436,36.0506329 22.9584158,35.7974684 C22.9584158,34.835443 22.8811881,33.9240506 22.8039604,33.9746835 C22.8554455,33.8987342 22.8811881,33.8734177 22.8811881,33.6708861 C22.8811881,33.5949367 22.8811881,33.5189873 22.8039604,33.443038 C22.8039604,33.0632911 22.9841584,32.5316456 23.190099,32.5316456 C23.950495,32.6484907 24.3599391,34.1459067 24.4184311,34.3357628 L24.4239147,34.3524902 C24.4251333,34.3556662 24.4257426,34.3563778 24.4257426,34.3544304 C24.4257426,35.6455696 24.8633663,36.1012658 25.4554455,36.1012658 C25.7643564,36.1012658 25.970297,35.7974684 25.970297,35.443038 C25.970297,35.221519 25.8520421,35.0775316 25.7190053,34.9432358 L25.6613861,34.8860759 L25.6613861,34.8860759 L25.1465347,33.8227848 C25.1722772,33.7721519 24.7089109,33.5696203 24.5287129,33.3670886 C24.3830835,33.2954792 23.7339923,32.4136606 23.660286,32.3131151 L23.6534653,32.3037975 L23.6534653,32.3037975 C23.6534653,31.8035443 24.1738772,31.8004658 24.7513857,31.8278027 L24.8429782,31.8323038 C24.996198,31.84 25.1516832,31.8481013 25.3009901,31.8481013 C25.8673267,31.8481013 26.2277228,31.7721519 26.2277228,31.4683544 C25.8930693,30.9873418 25.9445545,30.9367089 25.3524752,30.9367089 L25.3523205,30.9815595 C25.3507733,31.1413328 25.3337534,31.3924051 25.1465347,31.3924051 C24.9920792,31.3924051 24.8891089,31.3164557 24.8376238,31.3164557 C24.6574257,31.3164557 24.1940594,31.3924051 23.7306931,31.3924051 C23.2930693,31.3924051 22.649505,31.3670886 22.649505,30.8607595 C22.649505,29.7476521 23.4605166,29.6979939 24.6399717,29.6962195 L24.8891089,29.6962025 L24.8891089,29.6962025 C25.249505,29.6962025 25.4554455,29.3924051 25.4554455,29.2405063 C25.4554455,29.0886076 25.3524752,28.5822785 25.1465347,28.5822785 C24.8376238,28.5822785 24.5287129,28.7341772 24.2712871,28.8860759 L22.9584158,28.8860759 C22.8039604,28.8860759 22.7267327,28.4303797 22.7267327,28.3291139 C22.7267327,27.8734177 22.8811881,27.1139241 23.4217822,27.1139241 L23.6099695,27.1138072 C24.4651606,27.1123172 25.970297,27.0918297 25.970297,26.8101266 C25.970297,26.4556962 25.6613861,26.2025316 25.609901,25.8481013 C25.1207921,25.8227848 24.7861386,26.0253165 24.5287129,26.3037975 L23.2673267,26.3037975 C23.0541782,26.3037975 23.0371263,26.089519 23.0357622,25.818671 L23.0356436,25.7468354 L23.0356436,25.7468354 C23.0356436,25.4864376 23.1365124,25.4244381 23.2517911,25.3624386 L23.2955272,25.3388013 C23.3689836,25.2981142 23.4438472,25.2477396 23.4990099,25.1392405 C23.4990099,24.7594937 22.0831683,23.5443038 21.1049505,23.5443038 C20.8732673,23.5443038 20.6930693,23.5443038 20.6415842,23.7721519 C20.5128713,23.8734177 21.0277228,24.1012658 21.0277228,24.3797468 C21.1821782,24.7848101 21.0277228,25.2405063 21.1821782,25.5949367 C21.1821782,26.0759494 20.9247525,26.7341772 20.3326733,26.5063291 C19.9465347,26.8101266 17.8871287,26.6075949 17.2435644,26.6582278 C17.1405941,26.6582278 16.3168317,26.5063291 16.2138614,26.5063291 C16.0594059,26.5063291 15.9821782,26.5063291 16.0079208,26.6582278 C16.1366337,26.835443 16.7029703,27.6708861 17.0891089,27.6708861 C17.2178218,27.6708861 17.8871287,27.5443038 17.9386139,27.5189873 C18.170297,27.4177215 18.5564356,27.5696203 18.7108911,27.2658228 L18.8653465,27.4177215 L18.9425743,27.4177215 C19.0970297,27.4177215 20.1782178,27.3670886 20.3326733,27.3670886 C21.0292673,27.2632911 21.1546543,27.6872 21.1772239,28.1363026 L21.1798472,28.2021464 C21.1821782,28.279038 21.1821782,28.3559494 21.1821782,28.4303797 C21.1821782,28.7341772 21.1821782,28.9367089 20.8732673,29.0379747 C19.2772277,29.0379747 18.350495,29.0886076 18.3247525,29.0886076 C17.6039604,29.0886076 17.0118812,28.9367089 16.2138614,28.9367089 C16.1623762,29.1139241 16.6772277,29.3417722 16.6772277,29.5443038 C17.0118812,30.1012658 17.2693069,30.1772152 17.7841584,30.1518987 C17.8613861,30.1518987 18.2475248,30.1012658 18.3247525,30.1012658 C19.0970297,30 19.9465347,29.9493671 20.7960396,29.9493671 C21.1564356,29.9493671 21.3366337,30.278481 21.3366337,30.835443 C21.3366337,31.0632911 21.3108911,31.3670886 21.1049505,31.4683544 L20.6930693,31.4683544 C20.5128713,31.4683544 20.3069307,31.4683544 20.1782178,31.5443038 L18.4019802,31.5443038 C18.2475248,31.4683544 18.0930693,31.4683544 17.8613861,31.4683544 C17.3980198,31.4683544 16.9861386,31.5443038 16.5227723,31.5443038 C16.0594059,31.5443038 15.6990099,31.4683544 15.2356436,31.4683544 C15.0811881,31.4683544 14.9782178,31.4683544 14.9782178,31.6202532 C14.9782178,31.9746835 15.4673267,32.4556962 16.2138614,32.4556962 C17.3722772,32.4556962 18.3762376,32.2278481 19.560396,32.2278481 C19.7148515,32.3037975 19.7148515,32.4556962 19.7148515,32.6075949 C19.7148515,33.0632911 19.5346535,33.1898734 18.3247525,34.4303797 C17.9128713,34.8607595 17.4752475,35.5443038 16.9861386,35.7974684 C16.4455446,36.3037975 16.0079208,36.8607595 15.5445545,37.4177215 C14.9782178,37.721519 14.360396,38.0253165 14,38.4810127 L14.1544554,38.6329114 C14.360396,38.6329114 14.5148515,38.3291139 14.6693069,38.2278481 C15.6990099,37.5696203 17.8356436,36.835443 19.1742574,34.9620253 C19.4059406,34.9620253 19.7405941,34.4810127 19.7920792,34.5063291 C20.0237624,34.278481 20.1782178,33.8987342 20.409901,33.7468354 C20.4871287,33.7468354 20.9762376,33.443038 21.1049505,33.443038 C21.4138614,33.443038 21.4910891,34.3544304 21.4910891,34.5822785 C21.5683168,34.7341772 21.5683168,34.8101266 21.5683168,34.8860759 C21.5683168,35.2405063 21.4910891,35.6202532 21.4910891,35.9493671 C21.4910891,36.0506329 21.3366337,36.2531646 21.3366337,36.3544304 C21.3366337,36.6471519 21.3290919,36.8780657 21.318722,37.1074342 L21.3144343,37.1992421 C21.2916177,37.674633 21.2594059,38.1777426 21.2594059,39.2405063 C21.2594059,39.3924051 21.4138614,39.6962025 21.6455446,39.6962025 Z M38.3782178,25.8481013 C38.3267327,25.8481013 38.3009901,25.8227848 38.3009901,25.7721519 C38.3009901,25.721519 38.3267327,25.6962025 38.3782178,25.6962025 C38.4039604,25.6962025 38.429703,25.721519 38.429703,25.7721519 C38.429703,25.8227848 38.4039604,25.8481013 38.3782178,25.8481013 Z M31.7366337,29.0886076 C31.6079208,29.0886076 31.5306931,29.0126582 31.4792079,28.8860759 C31.1960396,28.7088608 30.2435644,28.7848101 30.2435644,28.278481 C30.2435644,27.6708861 30.3980198,26.3544304 30.809901,26.3544304 C31.170297,26.3544304 31.5306931,26.3291139 31.7366337,26.3037975 C31.8910891,26.3037975 31.9425743,26.3544304 32.0970297,26.3544304 C32.2514851,26.3544304 32.4059406,25.8987342 32.4059406,25.6962025 C32.4735149,25.7246835 32.5085087,25.7994462 32.5407874,25.8804391 L32.5622321,25.9349178 C32.6092444,26.0530503 32.6644389,26.1656118 32.8178218,26.1518987 C32.9722772,26.1772152 33.2039604,26.2025316 33.1782178,26.3037975 C33.2811881,26.6075949 33.2811881,26.8101266 33.2811881,27.1139241 C33.2811881,27.5189873 33.2811881,28.7341772 32.8693069,28.7848101 C32.7405941,28.7848101 32.3544554,28.7341772 32.3544554,28.7341772 C31.9425743,28.7341772 31.7366337,29.0886076 31.7366337,29.0886076 Z M29.6257426,26.6075949 L29.4712871,26.6075949 C29.3425743,26.6075949 29.2138614,26.6075949 29.2138614,26.4556962 C29.2138614,26.3616637 29.302647,26.354947 29.3977744,26.3544673 L29.6257426,26.3544304 L29.6257426,26.6075949 Z M39.1161598,29.3923871 L39.2016624,29.3919189 C39.5423542,29.3880294 39.8627063,29.3530239 40,29.0379747 C39.5623762,28.5822785 39.0990099,27.9493671 38.5326733,27.721519 C38.1207921,27.721519 38.0178218,28.1772152 37.760396,28.1772152 C37.6831683,28.1772152 37.1425743,28.4303797 37.0653465,28.4303797 C36.9108911,28.4303797 36.3960396,29.0632911 36.4475248,29.0886076 L36.4475248,29.1898734 L36.5247525,29.2405063 L37.6831683,29.2405063 C37.760396,29.1898734 37.8376238,29.0886076 37.9148515,29.0886076 C37.9920792,29.0886076 37.9920792,29.2405063 38.0693069,29.3417722 C38.1465347,29.3164557 38.249505,29.3164557 38.3267327,29.3164557 C38.609901,29.3164557 38.7643564,29.3924051 39.0732673,29.3924051 L39.1161598,29.3923871 L39.1161598,29.3923871 Z M37.4514851,29.0886076 C37.4,29.0886076 37.3742574,29.0632911 37.3742574,29.0379747 C37.3742574,28.9620253 37.4,28.9367089 37.4514851,28.9367089 C37.4772277,28.9367089 37.5029703,28.9620253 37.5029703,29.0379747 C37.5029703,29.0632911 37.4772277,29.0886076 37.4514851,29.0886076 Z M27.6693069,40 C28.1069307,40 28.4930693,39.5189873 28.9049505,39.0886076 C29.1623762,38.6329114 28.8534653,38.3291139 29.3683168,37.9240506 C29.6514851,37.7468354 30.5524752,37.6202532 30.809901,37.6202532 C30.9725722,37.6202532 31.1521642,37.6285736 31.3318462,37.6354777 L31.4297624,37.6390446 C31.9835246,37.6577981 32.5089109,37.6461083 32.5089109,37.3164557 C32.5089109,37.1139241 32.3544554,36.8101266 32.0970297,36.8101266 L30.3980198,36.8101266 C30.2950495,36.8101266 30.1405941,36.9620253 29.9861386,36.9620253 C29.9861386,36.9620253 29.8316832,36.8101266 29.8316832,36.7088608 L29.1623762,36.7088608 C29.0594059,36.7088608 29.0079208,36.4050633 29.0079208,36.4050633 C29.0079208,35.8481013 28.8792079,34.6582278 29.8316832,34.6582278 C30.2693069,34.6582278 31.9425743,34.5822785 33.1267327,34.5822785 C33.4871287,34.4303797 33.590099,34.3544304 33.590099,33.9746835 C33.590099,33.7468354 33.4871287,33.5949367 33.3326733,33.443038 C33.2811881,33.5189873 32.9722772,33.6708861 32.8693069,33.6708861 C32.4574257,33.721519 32.2,33.5696203 31.9425743,33.5949367 C31.9285997,33.6911392 31.611178,33.6903539 31.2744657,33.6897817 L31.1678257,33.6897215 C30.9190495,33.6901266 30.6760396,33.6962025 30.5524752,33.7468354 C30.5009901,33.7468354 30.2435644,33.9746835 30.1920792,33.9746835 C30.0633663,33.9746835 29.1366337,33.6455696 29.1623762,33.6708861 C29.1623762,33.4177215 28.9049505,33.2911392 28.9049505,32.9873418 C28.9049505,32.0759494 29.1366337,31.6962025 29.8316832,31.6962025 C30.1148515,31.6962025 30.3980198,31.7974684 30.6554455,31.7721519 C31.2732673,31.6962025 32.3029703,31.5443038 33.7960396,31.5443038 L34.0534653,31.4683544 C34.2594059,31.4683544 34.2079208,32.9113924 34.3623762,32.9113924 C34.5168317,32.9113924 34.5683168,32.835443 34.8257426,32.835443 C34.980198,32.835443 35.1861386,32.835443 35.1861386,33.0632911 L35.1863587,33.0992639 L35.1863587,33.0992639 L35.1872704,33.1720442 C35.1888109,33.3422978 35.1800815,33.5115413 35.0316832,33.5949367 C34.8257426,33.5949367 34.7485149,33.4683544 34.4138614,33.2911392 C34.2079208,33.2911392 34.2594059,33.6455696 34.2594059,33.6708861 C34.2594059,33.8987342 34.2594059,34.0506329 34.3623762,34.278481 L34.3623762,36.3544304 C34.1564356,36.556962 33.9247525,36.6582278 33.1782178,36.6582278 C33.0237624,36.6582278 32.8178218,36.6582278 32.8178218,36.8607595 L33.1267327,37.4683544 L33.8990099,37.4683544 C34.1049505,37.6202532 34.2079208,39.2405063 34.8772277,39.2405063 C36.6738331,39.2405063 36.7528048,36.6488546 36.756276,35.3591315 L36.7564356,35.1898734 L36.7564356,35.1898734 C36.7564356,35.1139241 36.6277228,35.0126582 36.6792079,34.8860759 L36.7564356,34.7341772 C36.7564356,34.5063291 36.6792079,34.2025316 36.6792079,33.9746835 C36.6792079,33.7468354 36.7564356,33.443038 36.7564356,33.1392405 C36.7564356,32.9113924 36.6792079,32.6835443 36.6792079,32.4556962 C36.6792079,31.9240506 37.2970297,31.6202532 37.2970297,31.164557 C37.2970297,30.7848101 36.7564356,30.7848101 36.5247525,30.6329114 C36.489649,30.6329114 36.369446,30.5544513 36.2439244,30.4688585 L36.1686114,30.4172175 C36.0441535,30.3316246 35.930333,30.2531646 35.9069307,30.2531646 C35.0059406,30.2531646 35.1861386,30.278481 34.8772277,30.7088608 C34.2594059,30.7088608 33.8990099,31.0379747 33.590099,31.0886076 C32.4574257,31.0886076 31.5049505,31.164557 30.3465347,31.164557 C29.9861386,31.2405063 29.780198,31.3924051 29.4712871,31.3924051 C29.0594059,31.3924051 29.1623762,31.164557 28.9049505,31.164557 C28.6990099,31.164557 28.5960396,31.164557 28.4415842,31.3164557 C28.3794469,31.2902663 28.357102,31.2369843 28.3365514,31.1815225 L28.3241324,31.1481831 C28.2878327,31.0541098 28.2347559,30.9681362 27.9782178,31.0126582 C27.7465347,31.0126582 27.2059406,31.0886076 27.2059406,31.2405063 C27.5920792,31.8481013 27.5920792,32.0506329 27.7722772,32.6075949 C27.7722772,33.0632911 27.6178218,33.443038 27.6178218,33.8987342 C27.6178218,33.9746835 27.7207921,34.1012658 27.6693069,34.2025316 L27.6178218,34.4303797 C27.5982574,34.4303797 27.8017267,34.5034937 28.024823,34.5830416 L28.0956896,34.6082981 C28.1430527,34.6251747 28.1903366,34.6420253 28.2356436,34.6582278 C28.2356436,35.0379747 27.5148515,34.9620253 27.5148515,35.3417722 L27.5148515,36.9620253 C27.5663366,37.0886076 27.6435644,37.2405063 27.6178218,37.2658228 C27.6178218,37.9240506 27.4633663,38.6329114 27.4633663,39.3924051 C27.4633663,39.4936709 27.4376238,39.5696203 27.4376238,39.6962025 C27.4376238,39.8481013 27.4891089,40 27.6693069,40 Z M20.1782178,32.6075949 C20.1009901,32.6075949 19.8693069,32.6075949 19.8693069,32.5316456 C19.8693069,31.9240506 20.1009901,31.6962025 20.6415842,31.6962025 L20.6415842,32 C20.6415842,32.3037975 20.5643564,32.6075949 20.1782178,32.6075949 Z M27.8237624,35.5949367 L27.7722772,35.5949367 L27.7722772,35.4936709 L27.8237624,35.4936709 L27.8237624,35.5949367 Z M31.0158416,37.1139241 C30.990099,37.1139241 30.9643564,37.0886076 30.9643564,37.0632911 C30.9643564,36.9873418 30.990099,36.9620253 31.0158416,36.9620253 C31.0415842,36.9620253 31.0673267,36.9873418 31.0673267,37.0632911 C31.0673267,37.0886076 31.0415842,37.1139241 31.0158416,37.1139241 Z M15.5445545,37.721519 C15.4750495,37.721519 15.468099,37.7010127 15.467404,37.6784557 L15.4673267,37.6708861 C15.4673267,37.5949367 15.4673267,37.5696203 15.5445545,37.5696203 C15.5674367,37.5696203 15.5699792,37.5896234 15.5702617,37.6474102 L15.570297,37.6708861 C15.570297,37.6962025 15.570297,37.721519 15.5445545,37.721519 Z M22.1861386,39.2405063 L22.0316832,39.0886076 L22.1861386,39.0886076 L22.1861386,39.2405063 Z" id="籍" fill="#000000" fill-rule="nonzero"></path>
        <path d="M18.1016717,10.5923567 C17.6434158,10.5923567 17.4906638,10.2951168 17.1546094,9.96815287 C17.1546094,9.7440797 17.1309886,9.42041846 17.1007055,9.09204299 L17.0873686,8.95129862 C17.0350592,8.41279273 16.9713071,7.89814361 16.9713071,7.82802548 L16.971101,7.748008 C16.9709845,7.72160401 16.9708409,7.69547215 16.9707328,7.66962331 L16.970696,7.55525062 C16.9746485,6.84345454 17.0834843,6.37480096 18.74323,6.40127389 C18.9265324,6.40127389 19.3847883,6.52016985 19.3847883,6.52016985 L19.4764395,6.6985138 C19.5069899,6.72823779 19.5680907,8.33333333 19.5680907,8.66029724 C19.5680907,9.07643312 19.5375403,9.43312102 19.4764395,9.96815287 C19.354238,10.6815287 18.4071757,10.5923567 18.1016717,10.5923567 Z M8.81435135,10.7112527 C7.56178512,10.7112527 8.26444423,7.79830149 7.89783948,8.00636943 L7.89783948,7.47133758 C7.89783948,7.26326964 7.80618829,6.6985138 8.08114185,6.6985138 C8.30517809,6.58952583 8.58055596,6.5804435 8.83668072,6.57968664 L10.5557239,6.57961783 C10.8306775,6.72823779 10.8612279,7.11464968 10.8612279,7.44161359 L10.8612279,7.76857749 C10.8612279,7.86897853 10.8721204,8.23432675 10.8847073,8.614041 L10.8907601,8.79399372 C10.9050099,9.21178729 10.9195554,9.59879708 10.9219773,9.61668921 L10.9222305,9.61679945 L10.9220949,9.62708523 C10.9178864,9.7929178 10.8568635,10.6220807 10.7390263,10.6220807 C9.9752664,10.7707006 9.76141363,10.7112527 8.81435135,10.7112527 Z M14.7716786,10.6220807 L13.1219572,10.6220807 C12.2054453,10.6220807 12.3887477,9.01698514 12.3887477,8.36305732 C12.3887477,7.47133758 12.2054453,6.57961783 13.0608564,6.57961783 L14.7105778,6.57961783 C15.4299531,6.57961783 15.2670757,8.2391668 15.2606733,8.80710613 L15.2604849,8.83864119 C15.2604849,9.19532909 15.3215857,9.19532909 15.3215857,10.2653928 C15.3215857,10.4437367 14.9549809,10.6220807 14.7716786,10.6220807 Z M18.3766253,16.358811 C18.2849741,16.358811 17.6434158,16.2399151 17.5212142,16.2399151 C17.4601134,16.1804671 17.1546094,15.8832272 17.1546094,15.7048832 L17.3379118,12.0488323 C17.3379118,11.7167435 17.7881033,11.6938409 18.1214094,11.6922614 L18.1933229,11.6921444 L18.1933229,11.6921444 C18.4187848,11.6921444 18.6105924,11.6776985 18.7735563,11.6763695 L18.8268159,11.6764501 C19.5228761,11.6850106 19.6597419,12.0131635 19.6597419,15.0806794 C19.6597419,16.507431 19.1403852,16.358811 18.3766253,16.358811 Z M14.5249752,16.607488 L14.4346976,16.6059688 C14.2247888,16.6011696 14.0214966,16.5888968 13.8551667,16.596603 C13.4274611,16.596603 12.877554,16.537155 12.6942516,16.0615711 C12.6942516,15.6157113 12.5414997,14.6942675 12.5109493,14.6348195 L12.5108156,14.3971143 C12.5099337,12.9818033 12.5205968,11.7813163 13.2441588,11.7813163 L15.0771825,11.7813163 C15.5965393,11.7813163 15.6270896,14.0106157 15.6270896,14.7239915 C15.6270896,15.0806794 15.6881904,15.4373673 15.6881904,15.8237792 C15.6881904,16.5349532 15.0981781,16.6131978 14.5249752,16.607488 L14.5249752,16.607488 Z M8.91367833,16.7748577 L8.63104898,16.7749469 L8.63104898,16.7749469 C8.29499462,16.656051 8.20334344,16.358811 8.20334344,16.0318471 C8.20334344,15.8237792 8.26444423,15.6157113 8.26444423,15.4373673 C8.26444423,15.1104034 8.17279304,14.7239915 8.17279304,14.3673036 C8.17279304,14.2781316 8.17279304,14.0106157 8.26444423,13.9214437 L8.26444423,12.4946921 C8.81435135,11.6624204 8.81435135,11.9299363 9.91416561,11.8704883 C10.1891192,11.8704883 10.8612279,11.9596603 10.8612279,11.9596603 L10.9223287,12.0488323 C11.0827183,12.6507431 11.105631,13.971603 11.1070749,15.0709262 L11.1070749,15.3111913 C11.1067861,15.5863542 11.105631,15.8419439 11.105631,16.0615711 C11.105631,16.7392781 10.6369116,16.7731635 8.91367833,16.7748577 L8.91367833,16.7748577 Z M0.81014762,27 C1.57390752,27 5.63711018,25.3057325 6.61472285,24.7409766 C8.63104898,23.8195329 10.2196696,22.4819533 12.2054453,21.3524416 C12.3887477,21.1740977 12.3887477,21.1740977 12.3887477,20.8174098 C12.3887477,20.4607219 11.3194838,19.1528662 10.8612279,18.3800425 C10.7390263,18.3205945 10.6779255,18.3205945 10.4946231,18.3205945 C10.0058168,18.3205945 9.05875452,20.044586 8.72270017,20.4607219 C7.01187799,22.6305732 4.53729592,24.2653928 2.76537296,25.4543524 C2.09326425,25.8704883 0.565744452,26.4946921 0.565744452,26.8216561 C0.565744452,27 0.626845244,27 0.81014762,27 Z M21.0345097,25.6326964 C21.7066184,25.6326964 23.2341382,23.7898089 23.2341382,22.7791932 C23.2341382,21.8577495 22.3176264,21.5010616 21.5844169,21.0552017 C19.8430443,20.07431 18.1627725,19.0934183 16.1769968,18.4989384 C15.9936944,18.4989384 15.8714928,18.6772824 15.8714928,18.7367304 L15.8714928,18.9150743 C16.2380976,19.3906582 16.7574543,19.6878981 17.1546094,20.104034 C18.1627725,21.2038217 19.0792844,22.4225053 19.3847883,23.7898089 C19.3847883,24.5626327 20.2707498,25.6326964 21.0345097,25.6326964 Z M5.88151334,16.7749469 C5.14830384,16.8938429 4.59839672,16.8938429 3.9568384,16.8938429 C2.67372177,16.8938429 1.54335712,16.7749469 0.260240493,16.7749469 C0.260240493,16.7749469 -0.0758138625,17.0721868 0.0158373253,17.1316348 C0.779597224,17.9044586 1.51280673,18.8556263 2.21546583,18.8556263 C3.49858246,18.8556263 4.6900479,18.4692144 5.97316453,18.3800425 C9.76202464,18.1594904 11.5427889,18.0641805 13.2439158,18.0188838 L13.4362597,18.0139655 C14.8778412,17.97862 16.3144736,17.9772824 18.9265324,17.9639066 C19.4391577,17.9639066 20.8522342,17.9792766 22.2420162,17.9943862 L22.5193883,17.9974 C23.7637018,18.0109048 24.9392646,18.0233546 25.3726659,18.0233546 C25.9225731,18.0233546 26.533581,18.2016985 27.2056897,18.2016985 C27.4500929,18.2016985 28,17.6666667 28,17.4288747 C28,17.1316348 28,17.1316348 27.8166976,16.9532909 C27.6761658,16.8165605 27.2641265,16.3339023 26.8244193,15.8525021 L26.7092458,15.7271762 C26.228077,15.2070064 25.7392707,14.7239915 25.5559683,14.7239915 L25.4337667,14.7239915 L24.2423013,15.8237792 C23.985678,15.9902335 23.5693779,16.0013305 23.2914644,16.0020703 L23.1486195,16.0020582 C22.4447451,16.0004023 22.3222082,15.956522 22.3177556,14.793692 L22.3174269,14.7245245 L22.3176264,14.7239915 L22.3170664,14.7212676 C22.3104213,14.6549791 22.245963,13.7061601 22.1954596,12.7650995 L22.1871839,12.6084806 C22.1574037,12.0355941 22.134324,11.4840764 22.134324,11.1571125 L22.134324,7.0552017 C21.7677192,6.90658174 23.4174406,5.985138 23.4174406,5.27176221 C23.4174406,4.91507431 21.1261609,3.72611465 20.8512074,3.72611465 C20.1179978,3.72611465 19.6597419,5.47983015 18.74323,5.33121019 C18.3460749,5.33121019 17.6434158,5.24203822 17.276811,5.15286624 C16.6352527,4.76645435 17.1546094,3.30997877 16.9713071,3.28025478 C16.9713071,1.7940552 17.4601134,1.52653928 18.0100205,0.78343949 C18.1016717,0.694267516 18.1016717,0.545647558 18.1016717,0.337579618 C17.5212142,-0.227176221 16.7574543,-0.61358811 15.810392,-1 C14.9855313,-1 13.6107635,-0.732484076 13.8551667,-0.375796178 C13.6413139,-0.256900212 14.5272754,0.0106157113 14.5272754,0.337579618 C14.9549809,1.05095541 14.8938801,1.76433121 14.9549809,2.56687898 C14.9549809,3.16135881 15.1688337,3.72611465 15.1382833,4.35031847 C15.1382833,4.73673036 15.0771825,5.27176221 14.8938801,5.50955414 C13.0914068,5.50955414 12.5109493,5.86624204 12.5109493,3.9044586 C12.5109493,3.57749469 12.6942516,3.28025478 12.7553524,2.74522293 C12.9386548,2.29936306 13.4885619,1.76433121 13.4885619,1.22929936 C13.4885619,0.694267516 11.0750807,-0.464968153 11.0445303,-0.464968153 C10.5862743,-0.464968153 9.66976244,0.18895966 9.82251442,0.515923567 C10.1891192,1.05095541 10.8612279,1.76433121 10.8612279,2.47770701 L10.8612279,5.27176221 L10.6779255,5.45010616 C9.79196402,5.53927813 9.05875452,5.62845011 8.08114185,5.62845011 C7.40903314,5.27176221 6.64527324,4.9447983 5.88151334,4.79617834 C5.51490859,4.79617834 4.59839672,5.27176221 4.59839672,5.50955414 C4.59839672,5.86624204 4.87335028,5.80679406 5.05665265,5.985138 C6.20840258,6.41613588 6.24679425,8.51365888 6.24807397,9.94179429 L6.24831532,10.2249835 C6.25287499,11.8678424 6.33501239,14.6507968 6.33957206,14.724407 L6.33957929,14.7252685 L6.33992094,14.7622479 C6.34455604,15.3785257 6.449878,16.7749469 5.88151334,16.7749469 Z" id="典" fill="#000000" fill-rule="nonzero"></path>
    </g>
</svg>