<?xml version="1.0" encoding="UTF-8"?>
<svg width="64px" height="188px" viewBox="0 0 64 188" version="1.1" xmlns="http://www.w3.org/2000/svg" xmlns:xlink="http://www.w3.org/1999/xlink">
    <title>编组</title>
    <g id="home" stroke="none" stroke-width="1" fill="none" fill-rule="evenodd">
        <g id="home备份" transform="translate(-1427.000000, -316.000000)" fill="#000000">
            <g id="编组" transform="translate(1427.000000, 316.000000)">
                <path d="M53.886029,182.437204 C53.7790837,183.460902 53.2190839,183.789582 52.3576686,183.697651 C47.6446253,183.195909 42.9177482,183.108408 38.1884769,183.231629 C34.2612956,183.333805 30.3373066,183.282025 26.4125195,183.181787 C23.0746016,183.096779 19.7366836,182.98768 16.3984996,182.981035 C15.3694834,182.979096 15.1718208,182.535226 15.325854,181.647762 C15.3886378,181.285854 15.5458634,180.920901 15.5221864,180.5673 C15.4354596,179.271409 16.0922955,179.095024 17.1625469,179.099731 C21.6055665,179.120775 26.0177263,178.500243 30.4897436,178.692688 C35.0173618,178.887349 39.569455,178.39336 44.1125031,178.312782 C46.727609,178.266263 49.3498978,178.376192 51.9623433,178.537348 C54.0366038,178.665552 54.0320812,178.747515 54.0169173,181.004247 C54.0648033,181.448395 53.9379055,181.938507 53.886029,182.437204 M17.8693969,170.757573 C19.4115911,170.658443 20.9492627,170.543806 22.4943833,170.25943 C27.9182671,170.25943 33.3530584,170.478458 38.7612463,170.177468 C42.0161619,169.995822 45.2612343,170.310657 48.5065727,169.998591 C49.9325104,169.861525 51.3629706,170.393727 52.8248228,170.083322 C53.4720814,169.945703 53.8892214,170.323394 53.7985041,171.137202 C53.7325279,171.728383 53.7684424,172.333686 53.7793497,172.932067 C53.8046229,174.300228 53.0365852,174.947343 51.767607,174.510395 C51.4739064,174.409327 51.2001583,174.190299 50.924814,174.359485 C49.3560165,175.322542 47.7704589,174.485474 46.1939465,174.442555 C46.0183646,174.437847 45.8265547,174.34204 45.6711914,174.389944 C43.6267266,175.022659 41.5237345,174.493504 39.4590513,174.595126 C37.0032992,174.716131 34.4906161,174.856797 31.945743,174.364746 C30.1771546,174.022221 28.1196542,174.155963 26.2268284,174.426217 C24.8109999,174.628908 23.4052808,174.760159 22.0056804,174.621986 C20.2237903,174.446431 18.5155915,174.797817 16.7908985,175.09853 C15.8039156,175.270485 15.2292839,175.228119 15.1851224,173.817592 C15.093607,170.88827 14.9858636,170.943373 17.8693969,170.757573 M15.0499776,165.745411 C15.2644003,164.189511 16.6440482,162.884483 18.2591355,162.80612 C19.3631731,162.752956 20.4714672,162.796152 21.5781651,162.796152 C24.8556935,162.884483 28.1031602,162.555526 31.3088596,161.894013 C32.7228258,161.601883 34.144507,161.676093 35.5129815,161.783253 C39.09565,162.063752 42.6737958,161.827834 46.2506116,161.950777 C48.0540503,162.012526 49.801356,162.513437 51.6101154,162.625305 C53.0227514,162.712805 53.8392072,164.711744 53.2262668,166.032279 C53.139274,166.219186 52.9857728,166.389203 52.8362622,166.304748 C51.9719205,165.817128 51.1740871,166.652811 50.4204152,166.484456 C47.9423164,165.93038 45.4317615,166.25463 42.9701568,166.269859 C40.3699488,166.286473 37.7011042,166.417724 35.1248392,166.40194 C32.7212296,166.386988 30.2213161,166.301979 27.8030748,166.280658 C25.0493656,166.256014 22.2538893,166.127256 19.4980519,166.4252 C18.2160381,166.563927 16.9374828,166.392803 15.6674405,166.594662 C14.9935786,166.7021 14.9786807,166.261829 15.0499776,165.745411 M58.3356995,158.726557 C58.3019133,158.471532 57.8783885,158.530512 57.6168779,158.580907 C55.1440998,159.056898 52.7333074,158.220661 50.2722347,158.197955 C46.5083977,158.163343 42.7522756,157.551671 38.9748709,158.013817 C38.5029281,158.071412 37.9987953,158.163343 37.5561161,157.854599 C36.7279549,157.277264 36.0195086,157.465278 35.388744,158.204047 C35.244288,158.373233 35.0899888,158.595029 34.8673191,158.322837 C33.7715285,156.984027 32.3368117,157.658278 31.1604131,157.883951 C29.1409555,158.271887 27.1970513,158.615797 25.2084535,157.853769 C24.7841306,157.691229 24.3510286,157.772637 23.912872,157.936285 C23.5023829,158.08941 22.9567489,158.341389 22.6359129,158.18411 C20.6765787,157.223545 18.6100332,158.255273 16.9518486,157.792851 C14.5006191,157.594591 13.3106529,159.20587 11.8812567,160.445827 C11.2901311,160.958922 11.731214,161.565056 11.5319552,161.894843 C10.6410102,163.368781 10.6763926,165.067284 10.2608488,166.647273 C9.86472546,168.151393 10.0075853,169.775963 10.1222456,171.239378 C10.2156232,172.433647 10.3140555,173.719292 10.5463024,174.930452 C10.7801455,176.150195 10.9597179,177.325911 10.751414,178.561161 C10.7021978,178.855229 10.8056847,179.200246 10.9081075,179.495975 C11.4681073,181.115561 11.4641168,182.842585 11.048839,184.392669 C10.4369628,186.675431 13.0137599,188.418515 14.6046381,187.911788 C15.7658728,187.542127 17.0010647,187.469025 18.1287793,187.575355 C22.0112671,187.94197 25.878857,187.505576 29.7517676,187.546557 C32.7433104,187.578401 35.749485,187.437182 38.7479446,187.210124 C42.5953161,186.919103 46.4216709,187.62935 50.2653178,187.753955 C52.1969845,187.816811 54.1432831,187.394262 56.0645745,187.944739 C56.470009,188.061037 56.8940659,187.869699 57.1225883,187.507791 C58.4378562,185.42329 58.6166305,183.0234 58.4743028,180.673075 C58.3998135,179.442256 58.1462839,178.161318 58.1079751,176.924684 C57.9895904,173.080208 58.3535237,169.24487 58.6573336,165.414516 C58.7214476,164.603753 58.8887824,163.75644 59.5735517,163.192119 C60.1378081,162.727204 60.0308627,162.053784 59.8778937,161.537089 C59.5732857,160.505361 58.491861,159.903657 58.3356995,158.726557" id="Fill-1"></path>
                <path d="M63.3486834,28.4156469 C63.6332572,28.0392017 63.1469235,27.9182316 62.8707894,27.8392768 C61.3577218,27.4067173 59.7871594,27.1326314 58.3424001,26.5190398 C56.5806272,25.7709431 54.674062,25.5137761 53.0154108,24.3703414 C50.4481807,22.600344 48.0014791,20.6464948 45.564272,18.7022329 C43.8549831,17.3382887 42.5405107,15.4084079 41.0298168,13.7094698 C44.9336734,12.856476 48.688254,13.3787056 52.4030101,12.9419164 C54.7901069,12.6613449 54.9267234,12.6038207 54.8328325,10.0775491 C54.7774474,8.58840524 54.3114216,8.06279187 52.8830141,8.08676029 C51.7921919,8.10508908 50.7032158,8.34279942 49.6134485,8.34167149 C44.9262887,8.33631384 40.2678764,9.04380523 35.5764968,8.94962344 C34.8042706,8.93411446 34.6228186,8.76436164 34.5007077,7.89614085 C34.2498924,6.11260836 34.3662011,4.38660008 34.5450157,2.6197045 C34.6750388,1.33330526 33.5631175,0.284334369 31.8751914,0.0192718338 C30.8619082,-0.14032965 30.4312233,0.720559628 29.913241,1.52279677 C28.6559998,3.46903254 29.4124017,5.51424378 29.5917438,7.48613986 C29.690382,8.57402418 29.5695898,8.87236053 28.5578891,8.96062071 C23.8129706,9.37400547 19.070162,9.09456189 14.3265622,9.00742963 C13.3625981,8.98938282 12.3899307,9.00348189 11.4373074,8.87066864 C10.0819555,8.6814591 9.31632275,9.04916288 8.94788013,10.3166694 C8.67200971,11.2675107 8.61741585,12.2535997 8.80994492,13.2351771 C9.10876059,14.7587227 10.1341757,15.3322729 11.4636812,14.6535436 C11.9141465,14.4234468 12.3369193,14.2897876 12.8301102,14.2548219 C16.3494361,14.0049864 19.8721906,14.0004746 23.3957363,14.0470016 C24.0339834,14.055461 24.7233957,13.6403844 25.3869617,14.238467 C24.8186053,14.6839976 24.3109088,15.1089436 23.7792121,15.4952582 C19.6936397,18.4608568 15.9266633,21.888059 11.8948936,24.9249989 C9.30735565,26.8746184 6.51410169,28.4421531 3.15512874,27.138271 C2.64031128,26.9386282 2.11652672,26.9826173 1.59353336,26.9668263 C0.0303555493,26.9202994 -0.00973269564,26.9972803 0.00108058095,28.6680202 C0.00609161157,29.4333178 0.422798368,29.9030989 0.892780292,30.3015386 C2.35046272,31.5371812 3.71504548,32.5655674 5.89220641,32.4632082 C9.08185927,32.3126301 11.8281678,31.1161829 14.0936811,29.0932482 C18.8871275,24.8122063 23.7430799,20.5932003 28.2780626,15.9850599 C28.6889671,15.5674454 29.1985098,15.2606496 29.7320527,14.8481108 C29.7320527,18.2826445 29.7394374,21.4994886 29.725723,24.7160506 C29.7230856,25.3620701 29.5400511,26.0224705 28.8263748,26.0450291 C27.0933495,26.0997335 25.3336865,26.2508755 23.6286174,26.0103453 C21.1046404,25.6539208 20.696637,25.7373873 19.4868687,28.1528402 C19.165899,28.7940659 18.5846195,29.4541844 19.4364947,30.1064075 C20.1425225,30.6466839 20.7464836,31.8654076 21.8106682,30.6187677 C21.9151087,30.4961058 22.1139675,30.4278663 22.2774853,30.4058717 C24.3636565,30.1253002 26.4593222,30.0517031 28.5607902,30.0449355 C29.3377637,30.0426797 29.520007,30.4230726 29.5134135,31.1641198 C29.5041827,32.238187 29.4292809,33.3085885 29.6603158,34.3874494 C29.9823405,35.8909743 30.9573815,36.7504537 32.3166895,36.5567325 C33.3666323,36.4070003 34.4513886,35.0137301 34.2116503,33.7811893 C34.0230773,32.8100453 34.3408822,31.9294174 34.2675629,31.0104399 C34.183694,29.9583672 34.7227754,29.642548 35.5459032,29.8565719 C36.4151851,30.083003 37.2863132,30.0968201 38.1566501,30.0669301 C40.0278744,30.0032023 41.9146593,30.3483475 43.7697956,29.8137108 C44.8318704,29.5074789 45.4189522,28.4844503 45.4379413,27.624125 C45.4585129,26.7009178 44.4816257,26.1609234 43.509222,26.122574 C43.1584499,26.1087569 42.8053041,26.0929659 42.4561144,26.1194722 C40.3258989,26.2833034 38.2075516,25.8453862 36.064413,26.0670236 C34.5769281,26.2209855 34.424751,25.8933231 34.5613675,24.2775695 C34.6038294,23.7733867 34.596181,23.2649742 34.6033019,22.7616374 C34.6407528,20.1084742 34.418685,17.4375462 34.8580733,14.7124777 C35.6205411,15.1343219 36.1646336,15.6444263 36.6876269,16.2061333 C38.0076379,17.622808 39.1596474,19.2506867 40.707001,20.385098 C42.7596773,21.8894689 44.851387,23.3332137 46.6242369,25.2140298 C47.661784,26.3148853 48.7837273,27.2538834 50.0826392,27.9678604 C52.8376511,29.4818186 55.3705952,31.646872 58.8168656,30.9390986 C60.3262408,30.629765 61.8327148,31.4463832 63.3687276,31.2332052 C63.7350603,31.1827306 64.3688238,31.3795536 63.7205547,30.5042833 C63.4349259,30.1190966 62.6700844,29.3134757 63.3486834,28.4156469" id="Fill-3"></path>
                <path d="M37.2303966,75.3765142 C37.0152811,75.4192642 37.0846309,75.2417953 37.1021647,75.1309827 C37.1181282,75.0291701 37.1626169,74.93242 37.2285647,74.7271072 C37.2997464,74.9487325 37.3596752,75.0581388 37.3615071,75.1689514 C37.3625539,75.2406703 37.287185,75.3652641 37.2303966,75.3765142 M36.8535519,78.0894544 C36.7237498,78.1577982 36.6062476,78.1707357 36.5957797,77.9842668 C36.5863585,77.8169229 36.7020289,77.7733291 36.961633,77.8565792 C36.9571842,77.8546104 37.0636951,77.9088917 37.1704678,77.9634543 C37.0644802,78.0047981 36.9540438,78.0368606 36.8535519,78.0894544 M37.1073986,51.9936466 C36.6303238,51.6794901 35.2579811,52.2656157 34.9900027,53.1107728 C34.5459017,54.511118 33.4483416,55.8833381 34.3381137,57.5601523 C34.4930387,57.8518088 34.4213336,58.2964655 34.4176698,58.6702472 C34.3637601,64.166159 34.7089393,69.6620708 34.430493,75.1568577 C34.3865278,76.0194523 34.543023,76.8314219 34.7120797,77.6490165 C34.903119,78.5748924 35.6476489,79.3283619 36.3317267,79.0963304 C38.1110093,78.4930486 39.8253908,79.3221744 41.5832142,79.0299554 C43.5409746,78.70483 43.7032272,78.9970491 43.6027353,81.1317388 C43.591744,81.3648952 43.5786591,81.6048017 43.6137266,81.833177 C43.9463443,84.0055542 44.027994,86.1765251 43.6108479,88.3469336 C43.5511808,88.6571527 43.6001183,88.9057779 43.8581522,89.0700281 C45.397458,90.0507478 47.3528631,88.8962154 47.3913327,87.0028385 C47.4311107,85.0444927 47.4907778,83.0867095 47.5554171,81.1292075 C47.6182246,79.2186743 47.6404689,79.2085493 49.382067,79.0637054 C49.6372222,79.0423304 49.9007518,78.9739866 50.136018,78.8662677 C50.8365827,78.5464861 51.4167665,78.6069549 52.0665619,79.1345805 C52.8820119,79.7969249 54.9195901,79.439737 55.7138425,78.6111737 C56.0320669,78.2790171 56.4790466,78.0987357 56.4463344,77.412485 C56.3144387,74.6562322 56.2403783,71.8963231 56.1964131,69.1364141 C56.1846367,68.3947571 55.8661506,67.6795376 56.1024636,66.9170681 C56.7459782,64.8422847 56.1388396,62.7126575 56.3000454,60.6041241 C56.4562789,58.5608408 56.0087758,56.4745262 56.9160817,54.4942429 C57.1696668,53.9404611 56.8247492,53.4733044 56.2013853,53.2491479 C55.4783146,52.9889914 54.7400655,53.0337102 54.0099289,52.9394914 C52.4855399,52.7423349 51.4939673,54.1961176 52.0555706,55.7458067 C52.1769983,56.0807758 52.2154679,56.4748074 52.202383,56.8379016 C52.0571408,60.8789057 52.7155721,64.897691 52.4656508,68.9398201 C52.4656508,70.0620088 52.4907738,71.1850411 52.4604169,72.3061048 C52.3837395,75.177389 52.3740567,75.1771077 49.7152081,75.1984827 C49.2373482,75.2024202 48.7597499,75.2057952 48.2816282,75.210014 C47.7354651,75.2153577 47.4981053,74.9256699 47.5284623,74.3401069 C47.604878,72.8629804 47.7278759,71.3852914 47.7229037,69.9084461 C47.7160995,67.9363191 47.8527057,65.9788171 47.956338,64.0137214 C48.0850933,61.5755626 47.8927454,59.1191226 47.8731181,56.6705576 C47.8571546,54.7237432 48.0259496,52.7887412 48.3159106,50.8663955 C48.3897094,50.37927 48.2792729,49.9818633 47.9244109,49.6055505 C47.0262644,48.6529557 45.6371731,48.4926431 44.5663061,49.2840814 C44.0007774,49.7020193 43.4789522,51.1538333 43.6485323,51.7984589 C43.9827203,53.0663352 43.7731004,54.3702116 43.8272719,55.6546816 C44.0881845,61.8511879 43.3776752,68.0521942 43.8796114,74.253763 C43.9887393,75.6003894 43.2787535,75.9963898 42.1186477,75.2676703 C41.3699306,74.7974198 40.6382238,74.6809822 39.7837809,74.7113572 C38.3182738,74.7631073 37.7747277,74.0605441 37.8692006,72.8292303 C38.0081621,71.019666 38.074895,69.1980079 38.0683526,67.3819748 C38.0529124,63.0425641 38.0877182,58.696966 38.7534771,54.4171804 C39.0122961,52.7555537 37.7959253,52.4473034 37.1073986,51.9936466" id="Fill-5"></path>
                <path d="M20.482736,62.4735174 C20.8208823,62.8753604 21.0271012,63.1516101 20.9602123,63.5515038 C20.875874,63.5991234 20.7764659,63.697426 20.7312563,63.6745909 C20.2773102,63.4473532 20.3159101,63.0566493 20.482736,62.4735174 M28.9646815,69.5448968 C28.965739,69.5312514 28.9667966,69.5173275 28.9699692,69.5036821 C28.9818664,69.4972771 28.9895335,69.4897582 29.000902,69.4833532 C28.9757856,69.1408259 28.925024,68.7877164 29.2528593,68.3647091 C29.3287373,68.8684749 29.4315824,69.2341159 29.000902,69.4833532 L29.0046034,69.536264 L28.9699692,69.5036821 C28.9699692,69.5036821 29.0046034,69.536264 29.0048678,69.5368209 C28.9905911,69.5384918 28.9786938,69.5423905 28.9646815,69.5448968 C28.9472322,69.814463 29.3276798,70.0756749 29.0061897,70.3251907 C28.9292541,70.3850634 28.6030051,70.2770141 28.5744517,70.1840026 C28.466319,69.8306147 28.618075,69.6014277 28.9646815,69.5448968 M9.035996,63.2073056 C9.36118747,67.8723608 9.14095617,72.5800231 9.13963426,77.2701414 C9.13884111,79.106422 10.7917656,80.73468 12.1787205,80.26461 C13.9408353,79.6672758 15.751861,79.5363913 17.598314,79.590416 C18.3391161,79.6121372 18.4821475,79.9354496 18.4993324,80.5804035 C18.5339666,81.8641848 18.6013843,83.1471307 18.6550541,84.4306336 L18.7208856,84.4297981 C18.7208856,85.0780938 18.6460651,85.7389209 18.7420363,86.3710648 C18.8358923,86.9856647 19.2607563,87.7420096 19.8775626,87.2198643 C21.1825586,86.115144 22.7886873,85.1168021 22.4309766,82.8499952 C22.3106822,82.0861314 22.4354712,81.2802175 22.4391725,80.493797 C22.4428739,79.8229447 22.6044121,79.3626214 23.3735032,79.2907742 C24.5468363,79.1804971 25.7085366,78.9351584 26.8805478,78.8056663 C29.4646304,78.5199484 30.9573386,74.4318986 30.7053813,72.5332389 C30.5938115,71.6927938 30.2897707,70.8863229 30.2416529,69.9893469 C29.9738326,65.0087766 29.7826835,60.0371176 30.8949441,55.1325717 C31.0337453,54.5201997 31.1339466,54.014206 30.5240143,53.7560574 C29.7966958,53.4480613 28.9244952,52.5446802 28.2719972,53.4157579 C27.6163266,54.2910127 26.8319013,55.4116062 26.9326314,56.5302503 C27.0780422,58.1498755 26.8892725,59.7371973 26.8202684,61.3164433 C26.6497412,65.1936857 26.5355276,69.0675863 26.6700987,72.9431578 C26.7465055,75.1386745 24.5531815,76.8326532 22.6731518,75.919247 C22.4217232,75.7972738 22.4000438,75.5906435 22.3989863,75.35533 C22.3926411,74.1119279 22.25807,72.8512602 22.4058602,71.6284655 C22.8468516,67.9809671 22.5512711,64.3329117 22.5755943,60.6848563 C22.5956875,57.6575273 21.9807319,54.6076416 22.8521393,51.6037047 C22.9494323,51.2684178 22.8796351,50.8752076 22.8672091,50.5092881 C22.8489667,49.9943832 22.5613176,49.6955768 22.09944,49.8245119 C20.8637124,50.1692671 19.4875972,50.2372156 19.0619401,51.9932948 C18.9019882,52.6535649 18.6532035,53.2667724 18.6558473,53.9788394 C18.670124,57.8555248 18.929484,61.7271976 18.7063445,65.6111235 C18.587372,67.6818822 19.1711304,69.7072491 18.9881771,71.8590449 C18.6434213,75.9100572 18.8361567,75.8059066 14.8566591,75.8017294 C13.3792851,75.8003371 13.0948086,75.0891055 12.9224307,73.9348162 C12.8817157,73.6630222 12.9248102,73.3781397 12.9044527,73.1010546 C12.6191831,69.2586219 13.2478866,65.44348 13.2116661,61.6074523 C13.2008264,60.465973 12.9152924,59.2871777 13.4255522,58.1860776 C13.9884243,56.9708018 13.9188914,55.6678055 13.9656873,54.3770622 C13.9905393,53.6908937 13.6161725,53.2010517 13.1244196,52.9097642 C11.481806,51.9370423 9.23269718,53.1520397 9.33897928,55.111129 C9.4859764,57.8268416 8.84458248,60.4578971 9.035996,63.2073056" id="Fill-7"></path>
                <path d="M35.827511,111.170657 C35.8858175,110.261445 36.137004,109.793171 37.0527284,109.873518 C37.5163171,109.914105 37.9869338,109.854743 38.4533858,109.867167 C40.5149369,109.922112 40.5188414,109.930119 40.5378431,112.444604 C40.4816189,113.349675 40.3704722,114.61092 40.3400175,115.874099 C40.3262217,116.443979 40.038854,116.424375 39.6728766,116.428241 C38.6853103,116.438181 37.6985249,116.384064 36.7265764,116.705726 C36.4032877,116.812855 35.8295934,116.830525 35.930068,116.182784 C36.1906252,114.501307 35.7200084,112.848545 35.827511,111.170657 M43.6197579,111.387399 C44.0422197,109.763076 44.7348697,109.428989 46.1940939,110.011294 C46.5918275,110.169778 46.6147336,110.520155 46.6209807,110.755396 C46.6582032,112.188655 46.6969874,113.592647 46.3838503,115.048546 C46.1048121,116.344029 45.8572698,116.775857 44.5409485,116.505826 C43.7309047,116.339887 43.5622323,116.080625 43.561972,115.325755 C43.5614514,114.507933 43.4552503,113.690112 43.3821069,112.696135 C43.4398928,112.369227 43.4945551,111.867821 43.6197579,111.387399 M49.5029876,115.344254 C49.931176,113.96456 50.1891301,112.560015 49.959288,111.058559 C49.8710474,110.483157 49.8929123,109.429818 50.9218658,109.568974 C51.8092178,109.688804 53.2887452,108.844752 53.235124,110.894 C53.2145606,111.670683 53.2317402,112.448193 53.2317402,113.225428 L53.2619346,113.225428 C53.2619346,113.499876 53.2944717,113.779293 53.2556875,114.047667 C53.1484452,114.795911 53.6750257,115.88321 53.0346954,116.231378 C52.1483846,116.713181 51.0179154,116.521012 49.9993737,116.307031 C49.5308394,116.208462 49.3043811,115.984265 49.5029876,115.344254 M30.1931252,136.590503 C29.8602055,137.363872 29.9567756,138.215931 30.4901239,138.585911 C30.8808295,138.85677 31.7463165,139.439351 32.2853913,138.481268 C32.4480769,138.192186 32.804163,138.184455 32.980384,138.246027 C33.7329022,138.508326 33.8601874,138.019621 34.0567115,137.443114 C34.4971338,136.152049 34.6124453,134.780914 34.9448444,133.480461 C35.6648255,130.663918 35.4982355,127.772551 35.9378769,125.200084 C35.7140216,123.773452 36.0906712,122.655504 36.1143582,121.513535 C36.1286745,120.802014 36.4194261,120.534192 37.0394532,120.49609 C38.2365585,120.42237 39.4427742,120.181055 40.6266043,120.272998 C42.6931011,120.43369 44.806191,119.57252 46.8284373,120.585548 C48.4948579,119.589086 50.3221418,120.639112 52.0208392,120.129699 C53.1934765,119.778494 53.6404062,120.337606 53.7197968,121.495313 C53.9020046,124.146193 54.1170098,126.794588 54.2880248,129.446021 C54.4814254,132.441756 54.6482757,135.439147 54.8109612,138.436815 C54.8463616,139.092839 55.0548594,139.404009 55.6980529,139.111062 C55.9895854,138.978532 56.2753914,139.014702 56.5830623,139.06164 C57.3436497,139.177051 57.5857258,138.765655 57.7408627,137.98069 C58.0558219,136.385082 57.7184772,134.793615 57.9012056,133.202976 C58.2898288,129.819314 57.3941473,126.482314 57.574533,123.065796 C57.6921872,120.83487 57.5547505,118.506756 57.2366677,116.224752 C56.9284762,114.015087 56.6778103,111.677861 57.498266,109.564557 C57.9433737,108.417618 57.9027674,107.523315 57.3243877,106.664354 C56.8004102,105.885463 56.3508775,104.709809 55.2256141,104.85504 C53.0893578,105.130869 50.9744458,105.257877 48.8137215,105.279413 C46.7945988,105.299293 44.6986884,105.02374 42.677223,105.611843 C42.3786625,105.698816 41.9681743,105.588926 41.6784639,105.429338 C40.8161004,104.954714 39.8847582,104.994749 39.0216138,105.161517 C37.9989075,105.359207 37.0766757,105.17118 36.139607,104.856421 C35.8962294,104.774418 35.6637843,104.559056 35.411817,104.741838 C34.4177432,105.464127 33.3848853,106.141964 32.4728051,106.968621 C32.0912099,107.314304 31.7226295,108.024997 31.7814566,108.511218 C32.121144,111.331902 31.890521,114.152311 31.9332097,116.971339 C31.987872,120.603771 32.3049136,124.249732 32.0964158,127.863113 C31.9251405,130.831237 31.3842436,133.822003 30.1931252,136.590503" id="Fill-9"></path>
                <path d="M15.5803263,120.437054 C16.9674254,118.54638 18.6047167,117.365095 20.1378262,116.063236 C20.5264946,115.733274 20.8839863,116.00056 21.178865,116.279369 C22.0520697,117.105397 22.9172205,117.944635 23.6083019,118.963469 C23.9413719,119.453634 24.2954862,119.955883 23.9860584,120.618617 C23.6732531,121.287253 23.0920693,121.284724 22.5334884,121.22514 C20.2908514,120.985397 18.0510722,120.719517 15.5803263,120.437054 M23.297575,117.350199 C23.2448346,117.507591 23.0847947,117.504218 22.9985394,117.394887 C22.7522443,117.081507 22.841877,116.767004 23.028417,116.445755 C23.4272178,116.659921 23.4152667,116.998314 23.297575,117.350199 M13.7071321,109.094694 C15.1204714,107.787495 16.7421744,106.977487 18.2703477,106.011211 C20.7281033,104.456681 22.562067,105.742239 23.3786342,108.600595 C23.4448845,108.83331 23.3510949,109.161867 23.2466533,109.402452 C22.6667684,110.735508 20.787079,111.650069 19.5792454,111.047201 C17.6886442,110.10341 15.4823798,110.337249 13.7071321,109.094694 M24.0756911,115.594151 C24.5119038,115.272621 24.451629,115.85975 24.3929131,116.149802 C24.3209471,116.506745 24.1949416,116.850478 23.9850192,117.567175 C23.9564406,116.612141 23.6633805,115.898255 24.0756911,115.594151 M23.5137328,122.682985 C23.4261785,122.59642 23.338884,122.509854 23.2458738,122.417386 C23.3316095,122.346278 23.4048745,122.251 23.4378698,122.265334 C23.5038602,122.293721 23.5794635,122.375508 23.5916743,122.447459 C23.6038852,122.518286 23.5425712,122.604008 23.5137328,122.682985 M20.3924352,125.818183 C20.9434816,125.361183 21.3033116,125.622005 21.594553,125.923579 C21.2458947,125.892663 20.8967167,125.862309 20.3924352,125.818183 M18.6901926,126.680186 C18.4683191,126.761131 18.3049017,126.625942 18.0658811,126.389854 C18.3555637,126.416273 18.5493783,126.434261 18.7431928,126.451968 C18.7263055,126.531226 18.7273447,126.666696 18.6901926,126.680186 M17.5314621,125.236394 C17.6247321,124.991311 17.7096884,124.768995 17.9606601,124.765903 C18.2025385,124.763374 18.1882493,124.990749 18.1960434,125.160508 C18.207215,125.394348 18.0518516,125.459834 17.8694685,125.461802 C17.7065707,125.463769 17.5348396,125.463207 17.5314621,125.236394 M17.7270953,130.591665 C17.5613397,133.106849 17.9578022,135.467171 17.4995061,137.817094 C17.3345299,138.663077 18.1373275,140.073424 18.8286687,140.209456 C19.8561976,140.411536 21.2432966,139.501191 21.42542,138.537444 C21.8647503,136.214784 21.1791248,133.898026 21.4108709,131.568902 C21.4812781,130.863167 21.922427,129.959004 20.8608636,129.505658 C21.4350328,129.161925 21.7862892,129.640847 21.8143481,129.826064 C22.0328441,131.274073 23.2783495,131.821573 23.9995682,132.810615 C24.7410518,133.827481 25.8418457,133.573124 26.4674562,132.429219 C26.663609,132.070309 26.8270264,131.681044 27.0696843,131.362887 C27.7316675,130.4947 27.4069112,129.966593 26.6680257,129.38649 C24.9574694,128.043035 23.2133982,126.711384 22.2986247,124.492715 C22.6810577,124.194794 23.1892363,124.091646 23.6771502,124.174277 C25.6345213,124.506206 26.6002166,122.749034 27.9701686,121.847401 C28.1889244,121.703219 28.2008754,121.439868 28.1507331,121.222329 C27.7566088,119.517153 27.7415401,117.758013 26.2131071,116.42046 C25.4155057,115.722875 24.3214667,115.204605 23.842646,114.227087 C24.8831652,112.896841 26.4996721,112.732703 27.6391769,111.609878 C28.2273755,111.030056 29.0810949,110.819544 28.9938004,109.696157 C28.9189765,108.735783 28.6617696,107.891205 28.0369385,107.163547 C27.5713678,106.621387 27.0787775,106.0455 26.8031244,105.384171 C26.114641,103.732677 24.8535474,102.822331 23.4098108,102.208221 C21.9507457,101.587364 20.437901,101.163811 19.0393705,102.51626 C18.7725508,102.774271 18.3212694,102.814743 17.9507875,102.940095 C16.3160942,103.493497 14.5647485,103.804628 13.0750264,104.654546 C11.435137,105.590468 10.1571561,107.190248 8.51856574,108.221729 C8.13587292,108.462595 8.3517709,109.007847 8.78460609,109.214143 C9.43697653,109.525555 9.60740863,110.064061 9.60169292,110.791439 C9.59156052,112.092173 11.3959065,113.697574 12.5476222,113.233829 C13.5278666,112.839505 14.3950958,113.023598 15.324938,113.152322 C15.7985626,113.217809 16.4062465,113.234391 16.5223794,113.743667 C16.6231837,114.185209 16.057848,114.454462 15.7177632,114.726245 C13.8362552,116.22906 12.1189439,117.909222 10.8303109,120.046946 C10.2236662,121.053413 10.2034014,122.993554 10.8843504,123.385629 C12.3641998,124.237796 13.7094703,125.752977 15.698018,124.505363 C16.0568088,124.280236 16.8128414,123.615534 17.0282198,123.94662 C17.5148346,124.695077 16.4246927,124.847129 16.2251624,125.450278 C15.5618802,127.456749 14.0290305,128.826342 12.5949067,130.034328 C10.6123345,131.704653 8.81292484,133.66503 6.54430729,134.957051 C5.73553422,135.417424 5.10498741,136.258067 4.423259,136.959587 C4.01458568,137.380049 3.86831545,137.95425 4.134096,138.50175 C4.38065097,139.009902 4.90130026,138.948631 5.37544445,139.043629 C6.99221117,139.367407 7.93997993,138.221254 9.12884776,137.386513 C11.4073379,135.78589 13.5961953,134.102917 15.5151153,132.016065 C16.0900638,131.390993 16.7949149,130.969687 17.7270953,130.591665" id="Fill-11"></path>
                <path d="M51.6875139,122.551115 C51.2271594,122.026723 50.8014608,121.025403 49.9327357,121.564663 C49.3991901,121.895482 48.9709052,122.514802 48.6194324,123.096379 C48.3354609,123.566445 48.7440901,123.932146 49.0200442,124.298134 C49.1299603,124.444529 49.0653038,124.755905 49.0717694,124.992367 C49.0989252,126.034003 48.9918539,127.081071 49.2729805,128.108982 C49.4193629,128.645097 49.1990135,129.175493 48.9346976,129.580939 C48.4166695,130.376962 47.5112195,130.188536 46.8199119,130.199115 C46.2799006,130.207407 46.5532684,129.33161 46.5579237,128.86955 C46.5780965,126.838318 46.3611092,124.800224 46.774911,122.776426 C46.9404317,121.966964 45.8536848,120.709739 45.1773775,120.962785 C44.5970205,121.179804 43.5144116,121.592112 43.8133834,122.345532 C44.3414979,123.678242 43.9232995,124.984075 44.1790807,126.237012 C44.1790807,127.122816 44.1762358,127.979456 44.1801152,128.835811 C44.1827015,129.443121 44.0417503,130.248866 43.4639796,130.089605 C42.4504238,129.810825 41.2615196,130.570821 40.4191744,129.471428 C40.3348623,129.361346 40.3330519,129.071987 40.402881,128.93417 C41.3629011,127.047617 40.6728866,124.936039 41.0737571,122.963709 C41.2573816,122.059604 40.4636581,121.694189 39.8256275,121.785114 C38.8472449,121.924932 37.9353293,123.769739 38.0036066,124.946047 C38.1181779,126.923239 38.2099902,128.907007 38.1934381,130.887058 C38.1812827,132.361874 38.9522471,133.262261 40.2528778,133.107002 C41.988259,132.89999 43.7352783,133.059538 45.4791942,132.961179 C46.8553437,132.883692 48.207441,132.880261 49.5127269,132.335282 C51.3588001,131.564421 51.9665714,130.570249 51.9743302,128.413209 C51.98002,126.9098 51.4741473,125.420687 51.9559678,123.890973 C52.0757116,123.510689 51.9396743,122.838472 51.6875139,122.551115" id="Fill-13"></path>
            </g>
        </g>
    </g>
</svg>