<?xml version="1.0" encoding="UTF-8"?>
<svg width="64px" height="252px" viewBox="0 0 64 252" version="1.1" xmlns="http://www.w3.org/2000/svg" xmlns:xlink="http://www.w3.org/1999/xlink">
    <title>聲律啟蒙</title>
    <g id="home" stroke="none" stroke-width="1" fill="none" fill-rule="evenodd">
        <g id="home备份" transform="translate(-1278.000000, -322.000000)" fill="#000000" fill-rule="nonzero">
            <path d="M1285.21989,362.950872 C1287.23901,361.364102 1290.91013,358.007473 1291.09369,357.580266 C1291.09369,356.481733 1292.37859,355.444229 1292.37859,354.284666 C1292.37859,354.162607 1293.11281,352.819956 1293.11281,352.697896 C1293.29637,352.0876 1293.29637,351.355245 1293.66348,350.744949 C1294.39771,349.646416 1297.15105,350.012593 1298.06883,349.524356 L1298.80306,349.524356 C1301.37285,349.524356 1304.18738,348.853031 1306.57361,348.181705 C1306.57361,348.059646 1306.69598,347.998616 1306.87954,347.998616 C1307.79732,347.998616 1307.85851,348.303764 1308.77629,348.181705 C1308.89866,348.100332 1308.91226,347.693468 1308.90773,347.250438 L1308.90051,346.806069 C1308.89942,346.73357 1308.89866,346.662746 1308.89866,346.594935 C1308.89866,344.886106 1308.40918,343.299336 1308.40918,341.468447 C1308.40918,340.858151 1308.34799,340.125796 1308.89866,339.759618 C1308.89866,339.698588 1308.95985,339.576529 1308.95985,339.5155 C1308.95985,338.966233 1308.53155,338.844174 1308.53155,338.172848 C1308.53155,337.562552 1309.26577,337.440493 1309.26577,336.830197 C1309.26577,335.914752 1308.53155,335.182397 1308.53155,334.266953 C1308.53155,332.069887 1308.40918,330.055909 1307.43021,328.041932 C1306.57361,328.530169 1306.87954,329.689732 1305.96176,330.055909 C1305.22753,330.605176 1304.49331,331.337531 1303.2696,331.337531 C1301.73996,331.337531 1301.55641,329.262524 1301.55641,326.394132 C1301.92352,325.295599 1303.39197,324.563244 1303.39197,323.464711 C1303.39197,322.427207 1300.69981,322 1299.72084,322 C1299.0478,322 1296.04971,322.427207 1296.04971,322.549267 L1295.86616,322.732355 L1295.56023,322.732355 C1295.37667,322.732355 1295.31549,322.732355 1295.31549,322.915444 C1295.31549,323.464711 1296.04971,323.464711 1296.23327,323.464711 C1298.25239,324.746333 1297.88528,327.675754 1297.88528,329.323554 C1297.33461,329.87282 1298.06883,330.971353 1297.15105,331.337531 C1296.47801,331.337531 1295.92734,331.947827 1295.6826,331.886798 C1292.3174,331.886798 1289.62524,332.680183 1286.44359,332.802242 C1286.44359,332.802242 1286.32122,332.985331 1286.32122,333.16842 C1286.32122,333.839745 1287.48375,334.816219 1288.15679,334.63313 C1290.91013,334.266953 1293.66348,334.083864 1296.60038,334.083864 C1297.15105,334.083864 1297.88528,334.450042 1297.88528,334.999308 C1297.88528,338.050789 1292.80688,336.464019 1291.27725,337.440493 C1290.42065,337.440493 1288.64627,337.501522 1288.70746,337.92873 C1289.01338,339.332411 1290.54302,338.966233 1291.4608,339.027263 C1291.82792,338.844174 1293.174,338.905203 1294.21415,338.905203 C1294.826,338.905203 1295.6826,338.539026 1296.60038,338.539026 C1299.23136,338.539026 1299.29254,338.416967 1301.18929,338.172848 C1302.16826,338.172848 1303.39197,337.92873 1303.75908,337.562552 C1304.1262,337.562552 1305.59465,338.172848 1305.59465,338.661085 C1305.59465,339.027263 1304.67686,340.308885 1303.75908,340.858151 L1298.6195,340.858151 C1298.25239,340.858151 1295.49904,341.468447 1295.13193,341.468447 C1294.09178,341.590507 1291.95029,341.163299 1290.54302,340.736092 C1289.8088,340.675062 1290.35946,342.322862 1290.17591,342.68904 C1290.17591,343.421395 1290.35946,343.665513 1290.35946,345.618461 C1290.35946,349.03612 1290.35946,352.0876 1289.44168,355.627318 C1288.70746,356.725851 1288.40153,357.824384 1287.78967,358.678799 C1287.49598,359.044976 1287.03709,359.515515 1286.55177,360.006376 L1286.06278,360.500899 C1285.08772,361.491043 1284.19197,362.450429 1284.48566,362.706753 C1284.60803,362.706753 1284.97514,362.950872 1285.21989,362.950872 Z M1319.42256,381.442845 C1320.5239,381.442845 1323.09369,379.611957 1323.27725,378.696513 L1323.27725,377.414891 C1323.27725,376.621506 1323.64436,375.095765 1323.64436,374.851647 C1323.64436,374.30238 1323.64436,373.936203 1323.4608,373.386936 L1323.4608,368.626626 C1323.4608,368.260448 1323.09369,368.07736 1323.09369,367.711182 C1323.09369,367.528093 1323.27725,367.772211 1323.27725,366.734708 C1323.27725,366.612649 1323.27725,366.36853 1323.09369,366.36853 C1323.09369,364.537642 1322.91013,363.072931 1322.91013,361.242043 C1322.91013,360.14351 1324.01147,358.678799 1324.01147,357.458206 C1324.01147,356.481733 1323.27725,356.481733 1322.91013,355.993496 C1322.91013,355.810407 1321.68642,353.491281 1320.89101,353.186133 C1319.60612,353.186133 1318.87189,352.819956 1318.32122,352.819956 C1317.77055,352.819956 1316.48566,353.552311 1315.50669,353.79643 C1315.07839,353.552311 1314.95602,353.552311 1314.03824,353.552311 C1312.63098,353.552311 1311.10134,353.918489 1309.87763,353.79643 C1309.63289,353.79643 1309.1434,353.552311 1309.1434,353.186133 C1311.71319,351.721423 1314.28298,350.50083 1316.60803,349.280238 C1317.64818,349.280238 1318.62715,348.486853 1319.05545,348.425823 L1323.09369,350.744949 C1323.27725,350.744949 1323.64436,350.62289 1323.82792,350.62289 C1324.68451,351.233186 1325.41874,352.453778 1326.03059,352.697896 L1327.49904,352.697896 L1328.9675,354.162607 L1330.6195,354.162607 C1330.80306,354.345696 1332.21033,355.26114 1332.69981,355.26114 C1335.14723,355.26114 1336.67686,352.758926 1338.94073,352.819956 C1339.0631,352.697896 1339.30784,352.453778 1339.30784,352.331719 C1338.69598,351.355245 1337.22753,351.477304 1336.49331,351.355245 C1336.37094,351.355245 1335.02486,350.744949 1334.90249,350.744949 C1333.55641,350.378771 1332.3327,350.378771 1331.17017,350.012593 C1329.08987,349.463327 1327.07075,348.547883 1324.92925,348.059646 C1324.37859,347.083172 1323.09369,347.266261 1323.09369,346.228757 C1323.09369,345.496402 1324.13384,345.435372 1325.11281,344.397869 C1325.66348,344.092721 1326.21415,343.970662 1326.39771,343.299336 C1326.76482,342.933158 1329.51816,341.834625 1329.51816,340.736092 C1329.51816,339.027263 1326.94837,338.294907 1326.94837,337.196374 C1326.94837,336.2199 1330.43595,335.731663 1333.18929,335.731663 C1333.55641,335.548575 1333.55641,334.999308 1333.55641,334.63313 C1333.55641,333.717686 1332.08795,332.619153 1331.72084,331.703709 C1331.72084,331.52062 1331.53728,330.055909 1331.17017,330.055909 C1329.88528,330.483117 1330.55832,331.45959 1329.88528,331.703709 C1328.5392,333.534597 1327.56023,334.266953 1325.11281,334.266953 L1324.37859,332.802242 C1324.37859,332.375035 1325.29637,331.215472 1324.92925,330.788265 C1325.11281,329.628702 1325.84704,328.34708 1325.84704,326.943399 C1325.84704,326.027955 1325.11281,325.844866 1324.56214,325.661777 C1324.25621,325.661777 1323.39962,325.11251 1323.21606,325.11251 C1322.29828,325.11251 1321.56405,326.76031 1320.70746,326.943399 C1319.91205,326.943399 1318.74952,327.126488 1317.77055,327.126488 C1317.21989,327.126488 1316.48566,327.492665 1315.8738,327.492665 C1314.71128,327.492665 1313.12046,325.478688 1311.83556,325.478688 C1311.83556,326.211043 1312.44742,326.76031 1312.56979,327.309577 C1312.9369,328.591198 1313.18164,330.055909 1313.18164,331.337531 C1313.18164,333.717686 1312.99809,335.243427 1312.44742,337.440493 C1312.14149,338.539026 1312.01912,339.39344 1311.46845,340.491973 C1311.46845,340.736092 1310.73423,341.834625 1310.73423,341.956684 C1310.73423,342.200803 1310.61185,342.56698 1311.10134,342.56698 C1311.04015,342.68904 1311.83556,341.712566 1311.83556,341.10227 C1311.83556,340.491973 1313.30402,340.125796 1313.30402,339.39344 C1314.2218,338.050789 1314.2218,336.2199 1315.38432,335.182397 C1315.32314,334.572101 1315.32314,334.144893 1315.75143,333.717686 C1315.8738,333.16842 1315.8738,332.619153 1316.11855,332.069887 C1316.11855,331.785082 1316.20013,331.507058 1316.31343,331.208691 L1316.56758,330.576796 C1316.74551,330.126734 1316.92076,329.608359 1316.97514,328.957376 C1319.05545,328.652228 1318.87189,328.225021 1320.89101,328.225021 C1321.07457,328.40811 1321.44168,328.957376 1321.44168,329.323554 L1321.44168,335.548575 C1321.44168,335.914752 1323.4608,336.647108 1323.64436,336.647108 C1324.56214,336.647108 1325.29637,336.464019 1325.11281,337.92873 C1324.19503,339.271381 1323.64436,340.125796 1322.17591,340.369914 C1320.64627,340.369914 1318.26004,341.10227 1317.40344,341.10227 C1316.24092,341.224329 1315.38432,341.834625 1314.28298,341.834625 C1314.28298,343.421395 1315.8738,344.519928 1315.8738,346.350816 C1315.8738,348.059646 1314.03824,348.181705 1313.18164,349.524356 C1312.08031,350.378771 1310.73423,351.111126 1309.51052,351.721423 C1308.89866,351.965541 1308.04207,352.0876 1307.43021,352.453778 C1306.94073,352.819956 1306.32887,354.162607 1305.83939,354.162607 L1303.02486,354.162607 L1302.65774,353.918489 C1302.47419,353.918489 1301.18929,354.162607 1301.00574,354.162607 C1300.76099,354.223637 1300.45507,353.918489 1300.27151,353.918489 C1299.65966,353.918489 1298.92543,354.406726 1298.06883,354.284666 C1297.39579,354.162607 1295.92734,354.162607 1294.76482,354.162607 L1294.21415,354.650844 C1294.94837,354.894963 1295.31549,355.627318 1296.04971,355.749377 L1296.72275,355.749377 C1298.31358,355.749377 1298.6195,357.641295 1298.6195,358.678799 C1298.6195,359.106006 1298.55832,359.655273 1298.55832,360.08248 C1298.55832,360.448658 1298.49713,361.913368 1298.98662,362.706753 L1298.98662,368.992804 C1298.98662,369.358981 1298.80306,369.969278 1298.80306,370.823692 C1298.80306,371.18987 1298.43595,372.654581 1298.43595,373.020758 C1298.68069,373.386936 1296.04971,373.936203 1295.49904,373.936203 C1295.13193,373.936203 1293.66348,374.668558 1293.47992,374.851647 C1293.47992,375.156795 1294.52008,376.621506 1294.76482,376.865624 C1295.37667,377.47592 1295.00956,377.414891 1296.04971,377.414891 C1296.23327,377.414891 1296.9675,376.865624 1297.15105,376.865624 C1298.43595,376.255328 1300.39388,376.194298 1301.18929,375.400913 C1301.12811,375.217825 1301.12811,375.095765 1301.12811,374.912676 C1301.12811,374.180321 1301.73996,373.203847 1302.10707,373.203847 C1302.35182,373.203847 1302.47419,373.325906 1302.47419,373.631055 L1302.47419,374.119291 C1302.47419,374.485469 1302.59656,374.668558 1303.02486,374.851647 C1303.39197,375.156795 1304.30975,373.753114 1304.86042,373.753114 C1306.69598,373.081788 1308.34799,372.654581 1309.87763,371.556048 C1310,371.372959 1312.44742,370.823692 1312.56979,370.640603 C1313.18164,370.457515 1315.01721,369.908248 1315.01721,369.175893 C1312.99809,369.54207 1310.79541,370.640603 1308.89866,370.640603 C1308.22562,371.495018 1306.32887,370.640603 1305.59465,371.739136 C1305.28872,371.922225 1305.04398,371.983255 1304.67686,371.983255 L1303.75908,371.922225 L1303.75908,371.922225 L1303.63671,372.105314 C1302.90249,372.105314 1302.29063,371.12884 1302.29063,370.457515 L1302.29063,369.54207 C1302.29063,369.175893 1302.10707,367.345004 1302.10707,366.978826 C1302.47419,366.002353 1306.94073,366.002353 1308.04207,365.636175 C1308.83748,365.025879 1311.52964,365.147938 1312.08031,364.78176 L1312.44742,364.415583 L1314.6501,364.415583 C1315.38432,364.049405 1315.8738,364.049405 1315.8738,363.072931 C1315.13958,363.072931 1314.77247,363.683227 1313.67113,363.439109 C1312.5086,364.537642 1308.83748,364.293523 1308.53155,364.415583 C1307.00191,364.415583 1306.51243,365.514116 1303.75908,365.514116 C1302.53537,365.514116 1301.73996,363.927346 1301.73996,362.340576 C1301.73996,361.486161 1302.29063,360.936895 1303.2696,360.753806 C1306.26769,360.14351 1308.10325,360.02145 1309.1434,360.02145 L1309.26577,359.655273 C1309.26577,359.838361 1309.69407,359.777332 1309.87763,359.777332 C1310.36711,359.533213 1311.16252,359.655273 1312.08031,359.655273 C1312.81453,359.411154 1313.85468,359.350125 1315.01721,359.044976 C1315.07839,359.044976 1315.32314,359.106006 1315.44551,359.106006 C1315.56788,359.106006 1315.75143,359.044976 1315.75143,358.922917 C1314.09943,358.617769 1312.63098,358.678799 1310.97897,358.678799 C1310.73423,358.678799 1310,359.044976 1309.87763,359.044976 C1309.1434,359.289095 1308.53155,359.044976 1308.04207,359.411154 L1305.10516,359.411154 C1304.37094,359.777332 1303.39197,359.777332 1302.65774,359.777332 C1301.25048,359.777332 1301.80115,358.068503 1301.37285,357.092029 C1301.37285,355.688348 1303.6979,355.627318 1304.86042,355.627318 C1305.10516,355.627318 1306.69598,355.26114 1306.94073,355.26114 C1307.57638,355.26114 1309.49163,355.169973 1311.47163,355.099064 L1312.55075,355.063066 C1313.44319,355.035858 1314.30338,355.017022 1315.01721,355.017022 L1315.80281,355.014887 C1316.49315,355.022004 1317.25485,355.078051 1317.95411,355.3832 C1317.95411,357.580266 1318.50478,359.289095 1318.50478,361.60822 C1318.0153,361.73028 1318.13767,366.856767 1318.13767,366.612649 C1317.95411,367.345004 1316.85277,367.894271 1316.85277,368.626626 C1316.85277,369.66413 1318.68834,369.725159 1318.32122,371.006781 C1318.32122,371.18987 1318.13767,373.203847 1318.13767,373.386936 L1318.13767,373.570025 C1318.13767,373.753114 1318.50478,374.485469 1318.50478,374.668558 C1318.50478,374.828761 1318.50287,375.054761 1318.50155,375.327606 L1318.50191,376.267725 C1318.51625,378.353221 1318.64245,381.442845 1319.42256,381.442845 Z M1303.63671,337.196374 C1302.29063,337.196374 1302.10707,334.999308 1302.10707,334.083864 C1302.10707,334.022834 1301.9847,333.900775 1301.9847,333.839745 C1301.9847,333.290479 1305.04398,332.924301 1305.83939,332.985331 C1306.75717,332.985331 1307.43021,333.351508 1307.30784,333.534597 C1307.30784,334.083864 1306.26769,335.853723 1304.49331,336.647108 C1304.1262,337.074315 1304.1262,337.196374 1303.63671,337.196374 Z M1301.55641,348.059646 C1301.00574,347.754498 1300.69981,346.533905 1300.63862,346.228757 L1300.63862,343.055217 C1300.63862,341.956684 1303.39197,341.834625 1304.00382,341.834625 C1304.86042,341.834625 1305.10516,342.933158 1305.10516,343.787573 C1305.10516,344.519928 1304.86042,347.083172 1304.37094,347.32729 C1303.20841,347.44935 1302.59656,348.059646 1301.55641,348.059646 Z M1318.68834,344.764046 C1318.07648,344.764046 1317.40344,343.665513 1316.48566,343.665513 C1316.11855,343.421395 1315.8738,343.421395 1315.8738,342.933158 C1315.8738,342.56698 1320.70746,341.956684 1321.44168,341.956684 C1321.44168,342.68904 1319.91205,344.764046 1318.68834,344.764046 Z M1295.31549,348.792001 C1294.39771,348.425823 1294.03059,348.059646 1294.03059,347.083172 L1294.03267,346.368654 C1294.05557,343.459383 1294.32341,342.933158 1297.33461,342.933158 C1297.82409,343.299336 1297.70172,344.031691 1297.70172,344.519928 C1297.70172,346.594935 1297.51816,347.998616 1295.31549,348.792001 Z M1280.81453,366.002353 C1280.99809,365.941323 1282.71128,364.84279 1282.77247,364.537642 C1282.77247,364.171464 1282.6501,364.171464 1282.40535,364.171464 C1281.97706,364.171464 1280.69216,365.514116 1280.56979,365.636175 L1280.56979,366.002353 L1280.81453,366.002353 Z M1318.13767,443.431497 C1318.19885,443.431497 1319.6673,443.126349 1320.34034,442.455024 C1321.07457,442.271935 1321.44168,439.342513 1321.44168,439.037365 C1321.44168,438.24398 1321.8088,437.267506 1321.8088,436.59618 C1321.8088,431.83587 1321.99235,432.263078 1321.99235,430.615278 C1321.99235,430.37116 1322.35946,429.272627 1322.35946,429.089538 C1322.84895,429.150567 1323.33843,429.150567 1323.8891,429.150567 C1327.98853,429.150567 1331.96558,428.540271 1336.49331,428.540271 C1337.10516,428.72336 1337.59465,428.72336 1338.2065,428.72336 C1339.0631,428.72336 1339.67495,428.357182 1339.67495,427.258649 C1339.67495,426.709383 1337.96176,424.512317 1337.59465,424.329228 C1337.47228,424.329228 1336.37094,423.596872 1336.1262,423.596872 C1335.2696,423.047606 1334.29063,422.498339 1333.18929,421.949073 L1333.18929,421.765984 L1334.16826,420.85054 C1334.22945,418.531414 1333.73996,417.738029 1332.08795,416.456407 C1331.53728,416.09023 1330.80306,415.174785 1329.88528,415.174785 C1329.15105,415.174785 1327.86616,417.738029 1326.39771,418.104207 C1325.35755,418.104207 1324.3174,418.653474 1323.27725,418.653474 C1321.99235,418.653474 1321.8088,417.493911 1321.07457,417.005674 L1321.25813,416.822585 L1321.25813,414.564489 C1322.05354,414.137282 1322.60421,413.832134 1323.64436,413.832134 C1325.11281,413.832134 1325.05163,415.907141 1326.21415,415.907141 C1328.23327,415.907141 1329.51816,413.710075 1330.43595,412.245364 C1331.78203,411.696097 1331.41491,411.574038 1331.53728,407.851232 C1331.53728,407.607113 1331.35373,406.020343 1331.35373,405.776225 C1331.35373,404.92181 1333.61759,404.616662 1334.53537,404.311514 C1334.8413,404.555632 1338.94073,404.92181 1340.16444,404.92181 C1340.53155,404.92181 1340.89866,404.677692 1341.1434,404.311514 L1341.26577,404.677692 C1342,404.677692 1342,403.945336 1342,403.457099 C1342,401.260033 1339.85851,401.626211 1339.0631,399.673263 C1338.2065,399.123997 1337.47228,397.720316 1336.37094,398.086493 C1334.96367,400.405619 1334.29063,401.443122 1333.92352,401.626211 C1333.55641,401.74827 1332.82218,401.74827 1332.45507,401.74827 C1331.53728,401.74827 1331.53728,401.260033 1331.53728,400.527678 C1331.53728,398.452671 1331.78203,397.110019 1332.69981,395.157072 C1332.45507,394.119568 1331.17017,392.593828 1330.43595,392.593828 C1330.06883,392.22765 1328.78394,391.129117 1328.23327,391.129117 C1326.88719,391.129117 1325.84704,392.960006 1325.84704,394.058539 C1325.05163,394.546776 1324.56214,395.645309 1323.64436,395.157072 C1322.35946,395.157072 1320.27916,395.523249 1320.34034,393.326183 C1320.34034,392.654857 1320.5239,392.22765 1320.5239,392.22765 C1320.5239,391.861472 1320.34034,391.495295 1320.34034,390.884999 C1320.34034,390.030584 1321.07457,389.664406 1321.62524,388.687932 C1321.62524,388.565873 1322.17591,387.833518 1322.17591,387.589399 L1322.35946,387.46734 C1322.35946,386.490866 1321.07457,385.026156 1320.15679,385.026156 C1318.19885,385.026156 1317.09751,385.758511 1314.28298,385.758511 C1313.54876,386.307777 1311.10134,386.124689 1311.10134,387.101162 C1311.10134,387.589399 1312.08031,387.833518 1312.44742,387.955577 L1313.91587,389.420288 C1314.16061,389.725436 1314.40535,391.861472 1314.6501,392.349709 C1314.6501,393.082065 1314.40535,395.279131 1314.40535,395.279131 L1314.28298,395.523249 L1304.86042,396.377664 C1304.73805,396.377664 1304.1262,396.743842 1304.1262,397.110019 C1304.98279,397.659286 1304.18738,399.185026 1305.59465,399.185026 C1306.57361,399.185026 1307.4914,398.818849 1308.53155,398.940908 L1309.1434,399.185026 C1309.63289,398.757819 1312.69216,398.452671 1313.30402,398.452671 C1315.81262,398.452671 1315.13958,400.283559 1315.13958,401.260033 C1315.13958,403.945336 1312.26386,403.457099 1308.04207,403.457099 C1307.79732,403.457099 1306.32887,403.823277 1306.2065,403.823277 C1304.92161,403.823277 1303.39197,403.823277 1303.39197,404.555632 L1304.73805,406.386521 L1308.16444,406.386521 C1308.83748,406.447551 1309.93881,405.776225 1310.97897,405.776225 L1313.67113,405.776225 C1314.89484,405.776225 1315.75143,406.020343 1315.75143,407.607113 L1315.50669,407.851232 L1315.50669,411.635068 L1315.38432,411.635068 C1315.13958,411.635068 1313.91587,411.513009 1313.67113,411.513009 C1313.05927,411.513009 1312.44742,411.513009 1311.83556,412.001246 C1311.34608,412.001246 1310.97897,411.879186 1310.36711,411.879186 C1308.95985,411.879186 1304.73805,411.940216 1304.73805,412.977719 C1304.73805,414.076252 1305.59465,414.564489 1306.57361,414.991697 C1307.67495,414.991697 1308.77629,414.564489 1309.63289,414.564489 C1312.32505,414.564489 1313.05927,414.44243 1313.67113,414.44243 C1315.01721,414.44243 1316.3021,414.44243 1316.24092,416.273319 C1316.24092,416.639496 1316.11855,417.921118 1316.11855,418.287296 C1315.50669,419.019651 1314.71128,419.20274 1313.91587,419.20274 L1312.87572,419.20274 C1311.83556,419.20274 1310.24474,419.446859 1308.53155,419.446859 L1308.12207,419.446312 C1306.95639,419.448548 1304.86042,419.515068 1304.86042,420.484362 C1304.86042,421.216717 1305.96176,422.132162 1306.69598,422.498339 C1309.5717,422.498339 1311.95793,422.132162 1315.13958,422.132162 C1315.75143,422.681428 1316.24092,422.986576 1316.24092,424.146139 L1316.85277,424.329228 C1316.85277,424.756435 1316.48566,424.512317 1316.24092,424.695405 L1315.8738,426.160116 C1315.75143,426.160116 1315.13958,426.526294 1315.01721,426.709383 L1312.9369,426.709383 L1312.56979,426.892472 C1312.54198,426.726027 1312.18548,426.710896 1311.78187,426.726715 L1311.29294,426.752851 C1310.97593,426.769908 1310.70085,426.775961 1310.61185,426.709383 C1310.36711,426.709383 1309.1434,427.07556 1308.89866,427.07556 L1305.59465,427.014531 L1305.59465,427.014531 C1304.1262,427.014531 1302.413,427.014531 1301.18929,427.991005 C1302.04589,428.72336 1302.413,429.638804 1303.39197,430.37116 L1306.2065,430.37116 C1306.32887,430.37116 1308.16444,430.004982 1308.40918,430.004982 C1311.10134,430.004982 1313.60994,429.638804 1316.24092,429.638804 C1316.17973,429.699834 1316.36329,430.004982 1316.48566,430.2491 C1316.48566,431.286604 1316.60803,432.018959 1316.60803,433.5447 C1316.60803,434.032937 1316.97514,434.277055 1316.97514,434.643233 C1316.60803,434.643233 1316.60803,434.765292 1316.60803,435.00941 C1316.60803,435.924855 1316.85277,436.535151 1316.85277,437.206477 C1316.85277,437.572654 1316.60803,437.938832 1316.60803,438.427069 L1316.85277,438.793247 L1316.85277,442.699142 C1316.85277,443.06532 1317.95411,443.431497 1318.13767,443.431497 Z M1279.83556,412.245364 C1280.56979,412.245364 1281.67113,411.879186 1281.85468,410.902712 C1282.03824,411.024772 1281.85468,411.146831 1282.2218,411.146831 C1284.05736,409.68212 1286.26004,408.705646 1287.97323,407.118876 C1288.34034,406.56961 1288.58509,405.776225 1289.19694,405.776225 C1290.91013,405.349017 1291.52199,403.212981 1291.64436,403.579159 C1293.72467,401.687241 1295.31549,400.344589 1296.90631,398.086493 C1298.25239,396.560753 1301.18929,394.180598 1301.18929,393.326183 C1301.31166,391.190147 1300.69981,389.420288 1299.72084,387.955577 C1297.94646,387.955577 1298.13002,386.979103 1296.90631,387.101162 C1295.07075,387.101162 1293.84704,387.589399 1293.84704,388.199696 C1293.84704,388.565873 1294.33652,389.298229 1294.33652,389.420288 C1294.58126,390.152643 1294.58126,390.518821 1294.58126,391.495295 C1294.58126,391.617354 1294.21415,392.22765 1294.21415,392.349709 C1293.174,395.279131 1291.70554,397.659286 1290.54302,400.649737 L1287.97323,403.212981 C1287.72849,403.945336 1286.81071,404.189455 1286.44359,404.677692 C1284.36329,407.240936 1282.2218,409.315942 1280.01912,411.513009 C1279.83556,411.635068 1279.83556,412.001246 1279.83556,412.245364 Z M1321.8088,402.724744 C1320.27916,402.724744 1321.13576,402.480626 1320.15679,400.1615 C1320.15679,398.208552 1320.89101,398.208552 1322.35946,398.086493 C1322.72658,398.086493 1324.37859,397.842375 1324.37859,397.842375 C1325.11281,398.452671 1325.29637,399.917382 1325.29637,400.649737 C1325.174,400.771796 1324.80688,402.480626 1324.19503,402.480626 C1323.82792,402.480626 1322.17591,402.724744 1321.8088,402.724744 Z M1295.07075,444.896208 C1295.43786,444.896208 1297.88528,443.187379 1297.88528,443.06532 C1297.88528,441.966787 1298.25239,440.685165 1298.25239,439.037365 C1298.25239,438.793247 1298.00765,438.427069 1298.00765,438.30501 C1298.00765,437.023388 1298.49713,435.924855 1298.37476,434.643233 L1298.25239,434.032937 C1298.74187,433.971907 1298.55832,425.793939 1298.74187,423.230695 C1298.74187,422.37628 1299.23136,421.460836 1299.10899,419.935095 C1299.10899,419.385829 1298.74187,416.822585 1298.74187,414.991697 C1298.74187,414.320371 1298.25239,413.832134 1298.37476,413.099779 C1298.37476,412.489482 1299.35373,411.879186 1299.35373,411.146831 C1299.4761,410.902712 1300.21033,410.048298 1300.45507,409.804179 C1300.82218,409.438002 1300.82218,408.705646 1301.18929,408.339469 C1301.67878,407.607113 1302.413,407.240936 1302.413,406.142402 C1301.80115,404.616662 1300.51625,402.358566 1298.31358,402.358566 L1296.41683,402.358566 C1295.80497,402.358566 1295.19312,402.419596 1294.94837,403.212981 C1294.94837,403.479292 1295.02928,403.785953 1295.12048,404.071339 L1295.25619,404.475757 C1295.361,404.786637 1295.42673,405.016129 1295.31549,405.043869 C1295.31549,405.471077 1294.70363,408.034321 1294.70363,408.583587 C1292.38538,414.311895 1292.0634,415.243255 1292.01869,415.352498 L1292.01193,415.364718 L1292.01147,415.357874 C1290.60421,417.127733 1289.68642,418.653474 1288.46272,420.667451 C1286.93308,422.193191 1285.1587,423.779961 1283.8738,425.977027 C1282.71128,427.319679 1281.42639,427.624827 1280.38623,429.272627 C1279.59082,430.004982 1278.55067,430.615278 1278,431.713811 C1278,431.83587 1278.55067,432.079989 1278.73423,432.079989 L1278.91778,432.079989 C1279.83556,432.079989 1280.38623,430.615278 1280.9369,430.615278 C1282.40535,429.943952 1282.77247,428.845419 1284.05736,428.357182 L1286.07648,426.343205 C1286.26004,426.160116 1286.81071,425.977027 1286.99426,425.793939 L1289.44168,423.596872 C1291.21606,423.230695 1291.27725,420.118184 1293.47992,420.118184 C1293.84704,420.118184 1293.96941,421.765984 1293.96941,422.31525 C1293.96941,425.244672 1293.35755,430.920426 1293.35755,435.314559 C1293.35755,437.694714 1293.11281,439.76972 1293.11281,442.699142 C1293.11281,443.614586 1294.64245,444.896208 1295.07075,444.896208 Z M1323.09369,411.513009 C1321.07457,411.513009 1320.70746,410.048298 1320.70746,408.339469 C1320.70746,407.485054 1320.70746,407.118876 1320.89101,406.142402 C1321.86998,405.532106 1322.48184,405.410047 1323.82792,404.92181 C1325.54111,404.92181 1325.29637,408.217409 1325.29637,409.071824 C1325.29637,409.438002 1325.11281,409.804179 1325.11281,410.414476 L1325.29637,410.414476 C1325.29637,410.841683 1323.8891,411.513009 1323.09369,411.513009 Z M1322.54302,426.160116 C1322.35946,425.977027 1321.99235,425.61085 1321.99235,425.427761 L1321.99235,422.31525 C1322.11472,421.827014 1323.8891,421.216717 1324.92925,421.216717 C1325.11281,421.216717 1325.29637,421.216717 1325.47992,421.399806 L1330.6195,421.399806 C1330.98662,421.399806 1332.27151,421.827014 1332.08795,422.498339 C1331.65966,423.657902 1330.68069,424.939524 1330.06883,425.61085 C1327.6826,426.038057 1325.11281,426.160116 1322.54302,426.160116 Z M1331.41491,489.186272 C1334.47419,489.186272 1335.57553,487.84362 1338.2065,486.012732 C1338.2065,485.646554 1338.02294,485.646554 1337.65583,485.524495 C1337.47228,485.524495 1335.63671,484.792139 1335.45315,484.792139 C1331.10899,483.510518 1329.57935,481.49654 1328.84512,481.49654 C1328.60038,481.252422 1327.37667,480.520066 1327.13193,480.398007 C1325.78585,479.665652 1322.72658,478.261971 1322.72658,476.614171 C1322.72658,475.515638 1323.09369,476.064905 1323.82792,474.417105 C1323.82792,474.295046 1324.80688,473.68475 1324.80688,473.56269 C1325.05163,472.464157 1326.64245,472.342098 1326.64245,471.365624 C1327.43786,470.633269 1328.9675,468.680321 1328.9675,467.33767 C1328.9675,465.933988 1327.37667,465.140603 1327.00956,463.675893 C1327.00956,462.882508 1328.29446,462.51633 1328.47801,462.333241 L1332.3327,461.783975 C1332.94455,462.089123 1333.12811,461.967063 1333.80115,461.967063 L1334.35182,461.783975 C1334.71893,461.906034 1334.8413,461.967063 1335.2696,461.967063 C1335.63671,461.967063 1336.55449,461.783975 1336.55449,461.234708 C1336.55449,459.28176 1331.96558,456.657487 1331.53728,456.657487 C1331.17017,456.657487 1331.0478,457.572931 1330.80306,457.75602 C1328.35564,460.136175 1322.84895,460.319264 1319.42256,460.319264 C1318.81071,460.075145 1319.11663,459.037642 1319.05545,458.854553 C1319.05545,458.122198 1319.78967,457.206753 1319.78967,456.10822 C1319.78967,454.887628 1322.29828,452.93468 1323.09369,452.080266 C1323.33843,451.897177 1323.33843,451.530999 1323.33843,451.164821 C1323.33843,449.700111 1320.03442,448.967755 1319.05545,448.2354 C1318.81071,447.991281 1317.83174,446.892748 1317.83174,447.136867 C1316.54685,447.136867 1313.91587,447.991281 1313.91587,448.2354 C1313.91587,448.967755 1315.01721,449.272903 1315.01721,449.700111 C1315.62906,450.371436 1316.17973,451.836147 1316.11855,452.446443 C1316.11855,452.629532 1315.75143,454.277332 1315.75143,454.460421 C1315.75143,457.939109 1314.28298,457.878079 1314.28298,461.234708 C1313.60994,462.4553 1314.03824,462.638389 1312.81453,465.872959 C1312.81453,468.192084 1310.55067,470.877387 1310.97897,471.731802 C1310.97897,472.09798 1310.97897,472.464157 1311.34608,472.464157 C1313.24283,472.464157 1312.9369,468.92444 1315.01721,469.168558 C1315.32314,471.243565 1316.42447,472.952394 1316.24092,475.515638 C1316.24092,477.937293 1314.21093,479.958985 1312.09172,481.836689 L1311.29663,482.534579 C1310.37299,483.342076 1309.4787,484.128137 1308.77629,484.914199 C1308.77629,485.280376 1308.89866,485.524495 1309.26577,485.524495 C1309.63289,485.524495 1309.87763,484.914199 1310.24474,484.792139 C1310.97897,484.792139 1312.01912,483.693606 1312.20268,483.449488 C1312.87572,483.022281 1313.48757,482.595073 1314.03824,482.595073 C1315.32314,482.045807 1316.7304,480.214918 1317.95411,480.153889 C1319.36138,480.153889 1320.40153,481.740659 1320.15679,481.862718 C1320.64627,482.228896 1321.01338,482.961251 1321.62524,482.961251 C1322.11472,482.961251 1322.72658,484.425962 1323.09369,484.181843 C1323.33843,484.425962 1323.82792,485.158317 1324.07266,485.280376 C1324.99044,485.768613 1326.45889,486.012732 1326.76482,486.989206 C1327.37667,487.355383 1328.1109,487.355383 1328.60038,487.721561 C1329.08987,487.721561 1329.70172,488.514946 1329.94646,488.453916 C1330.31358,488.331857 1331.41491,488.514946 1331.41491,489.186272 Z M1287.05545,458.305286 C1287.42256,458.305286 1287.78967,458.122198 1288.15679,457.939109 L1292.19503,457.939109 C1292.37859,457.939109 1293.11281,457.572931 1293.29637,457.572931 C1295.2543,457.206753 1297.27342,457.328813 1299.17017,456.657487 C1300.57744,456.657487 1301.49522,456.474398 1303.02486,456.474398 C1304.00382,456.474398 1304.49331,455.742043 1306.32887,455.925131 C1306.57361,455.925131 1307.67495,455.558954 1307.79732,455.558954 C1308.83748,455.558954 1310.97897,455.681013 1310.97897,454.460421 C1310.97897,453.361888 1309.20459,450.371436 1307.79732,449.8832 C1307.79732,450.859673 1305.53346,452.93468 1305.47228,452.629532 C1305.22753,452.629532 1304.73805,453.544976 1304.49331,453.544976 L1304.1262,453.728065 C1302.413,453.728065 1298.37476,454.216302 1298.6195,454.277332 L1295.86616,454.277332 C1294.21415,454.277332 1292.86807,454.826598 1291.27725,454.826598 C1286.44359,454.826598 1286.50478,455.009687 1284.85277,455.375865 C1284.85277,455.925131 1286.68834,458.305286 1287.05545,458.305286 Z M1297.70172,509.509134 C1297.94264,509.337488 1298.20937,509.178716 1298.48376,509.021955 L1299.03739,508.707896 C1300.05139,508.125239 1301.00574,507.47227 1301.00574,506.213534 L1301.00574,502.917935 C1301.18929,502.002491 1302.47419,502.551758 1302.90249,502.002491 C1303.33078,501.270136 1303.51434,500.903958 1303.75908,500.903958 C1304.1262,500.903958 1304.37094,501.636313 1304.73805,501.636313 C1305.10516,501.636313 1305.96176,501.819402 1306.2065,501.819402 L1312.08031,501.270136 C1312.20268,500.903958 1314.40535,501.270136 1315.01721,500.720869 L1318.19885,500.720869 L1318.68834,501.636313 L1318.68834,504.748824 C1318.68834,505.481179 1320.40153,505.847357 1320.76864,505.847357 C1321.74761,505.847357 1322.42065,505.115001 1323.82792,504.199557 C1324.68451,503.589261 1324.56214,502.978965 1324.80688,502.002491 L1324.80688,497.42527 L1324.92925,496.876003 C1324.92925,494.678937 1324.68451,492.481871 1324.80688,490.284805 L1324.92925,490.040686 C1325.23518,487.965679 1323.33843,486.745087 1321.86998,486.012732 C1321.25813,485.646554 1321.13576,484.914199 1320.15679,484.914199 C1320.03442,484.914199 1319.30019,485.280376 1319.05545,485.280376 C1316.05736,486.012732 1312.75335,486.989206 1309.51052,486.989206 C1306.57361,487.355383 1304.49331,488.148768 1301.18929,488.087739 C1299.53728,487.721561 1299.17017,486.012732 1297.51816,486.012732 C1296.41683,486.012732 1295.6826,486.989206 1294.58126,486.989206 C1294.09178,486.989206 1293.96941,486.31788 1294.03059,485.890673 C1295.13193,481.862718 1294.39771,476.247993 1297.76291,476.247993 L1298.6195,476.247993 C1300.39388,476.064905 1302.04589,475.881816 1303.75908,475.881816 C1304.79924,476.919319 1304.49331,479.421533 1305.83939,479.421533 C1306.69598,479.421533 1307.43021,479.299474 1308.16444,478.567119 C1307.73614,477.895793 1306.57361,477.102408 1306.69598,476.85829 C1306.69598,476.553141 1307.00191,475.759756 1307.55258,475.759756 C1308.16444,475.759756 1307.98088,476.980349 1308.77629,476.980349 C1309.1434,476.73623 1308.89866,472.769305 1308.89866,472.09798 C1308.89866,470.755328 1308.53155,464.896485 1308.53155,463.675893 C1308.40918,463.004567 1306.57361,461.112649 1305.96176,461.417797 C1303.94264,462.943537 1302.59656,464.896485 1299.35373,464.896485 C1298.74187,464.896485 1298.37476,465.140603 1297.70172,465.140603 C1297.33461,465.140603 1296.78394,465.140603 1296.41683,464.896485 C1296.23327,464.896485 1295.49904,464.04207 1295.31549,464.04207 C1294.58126,463.309715 1292.13384,461.967063 1291.82792,461.967063 C1291.27725,461.967063 1288.70746,462.943537 1288.70746,463.431774 C1288.70746,463.920011 1289.56405,464.835455 1290.17591,465.262663 C1291.09369,466.361196 1291.09369,467.703847 1291.09369,469.168558 C1291.09369,470.022973 1290.91013,470.755328 1290.91013,471.731802 C1290.91013,472.586216 1291.15488,473.196513 1291.09369,473.928868 C1291.09369,474.905342 1290.91013,475.820786 1290.91013,477.224467 C1290.91013,478.750208 1290.17591,481.374481 1290.17591,484.059784 C1289.8088,486.012732 1289.07457,487.84362 1288.34034,489.918627 L1288.26131,490.154269 L1288.26131,490.154269 L1288.13384,490.60521 C1288.06501,490.834071 1287.97323,491.07819 1287.78967,491.383338 C1287.78967,491.505397 1286.81071,492.115693 1286.81071,492.237753 C1286.44359,492.848049 1286.44359,493.580404 1286.07648,494.129671 C1285.1587,495.655411 1283.75143,496.692914 1282.28298,498.889981 C1281.67113,499.439247 1281.54876,499.073069 1281.54876,500.354691 C1282.77247,500.354691 1283.50669,499.256158 1284.60803,498.523803 C1285.21989,498.523803 1285.95411,497.608359 1285.95411,497.791448 C1285.95411,497.120122 1291.15488,493.275256 1292.19503,489.674509 C1292.62333,489.003183 1293.35755,488.698035 1294.03059,488.820094 C1296.23327,489.43039 1296.60038,491.932604 1296.60038,493.946582 C1296.60038,494.1907 1296.35564,494.373789 1296.41683,494.678937 C1296.41683,495.158756 1296.42468,495.570652 1296.43715,495.977863 L1296.45103,496.385855 C1296.50413,497.824756 1296.60038,499.464501 1296.60038,504.016468 C1296.60038,504.199557 1296.41683,504.565735 1296.41683,504.748824 C1296.41683,505.176031 1296.78394,505.664268 1296.78394,506.030446 C1296.78394,505.908386 1296.60038,507.312068 1296.60038,507.861334 C1296.60038,508.288541 1297.02868,509.753252 1297.70172,509.509134 Z M1318.68834,472.464157 C1318.07648,472.464157 1317.587,472.342098 1317.587,471.487683 C1316.97514,469.656795 1315.75143,468.192084 1315.75143,466.239136 C1315.75143,465.872959 1316.42447,462.699419 1317.46463,462.699419 C1317.95411,462.699419 1318.56597,463.065596 1318.93308,463.065596 C1319.6673,463.065596 1320.03442,462.943537 1320.76864,462.943537 C1321.62524,462.943537 1323.4608,462.943537 1323.4608,464.16413 C1323.4608,466.300166 1321.93117,467.947966 1321.13576,470.022973 C1321.03087,470.162469 1320.93347,470.311929 1320.83964,470.46566 L1320.56493,470.933969 C1320.11184,471.716856 1319.64982,472.464157 1318.68834,472.464157 Z M1296.60038,474.905342 C1296.23327,474.905342 1295.86616,474.722253 1295.86616,474.295046 L1295.86616,468.558262 C1295.86616,466.727373 1298.13002,467.398699 1299.72084,466.605314 L1302.90249,466.605314 C1303.14723,466.727373 1303.33078,466.849433 1303.63671,466.727373 C1304.1262,466.971492 1304.37094,468.80238 1304.37094,469.168558 L1304.37094,470.20362 C1304.36115,471.590213 1304.27304,472.976806 1303.63671,474.050927 L1303.14723,474.050927 C1300.82218,474.050927 1298.86424,474.905342 1296.60038,474.905342 Z M1302.29063,499.805425 C1301.55641,499.805425 1301.18929,499.622336 1301.00574,498.889981 C1301.00574,496.570855 1300.02677,493.946582 1300.08795,492.848049 C1300.39388,492.970108 1299.72084,489.674509 1301.00574,489.674509 C1304.30975,489.674509 1305.16635,488.942153 1308.89866,488.942153 C1309.51052,488.942153 1310.24474,488.575976 1310.73423,488.575976 C1311.46845,488.575976 1312.5086,488.637005 1312.56979,488.453916 C1313.67113,488.087739 1314.77247,488.087739 1315.8738,488.087739 C1316.36329,488.087739 1317.28107,487.84362 1317.46463,487.84362 C1318.74952,487.84362 1318.32122,494.800996 1318.32122,494.678937 C1318.32122,495.594381 1318.19885,497.791448 1318.19885,497.791448 L1317.95411,497.974536 C1317.46463,497.852477 1315.38432,498.523803 1314.03824,498.523803 C1312.56979,498.706892 1311.34608,498.706892 1309.63289,499.073069 C1307.79732,499.073069 1305.04398,499.866454 1302.29063,499.805425 Z M1291.64436,537.44326 C1291.64436,537.321201 1292.56214,536.710905 1292.56214,536.588846 C1293.47992,534.208691 1293.66348,532.560891 1293.84704,530.119707 C1294.45889,529.265292 1297.64054,529.387351 1298.43595,529.387351 C1300.02677,529.387351 1302.8413,529.021174 1303.39197,528.105729 C1304.24857,528.349848 1304.67686,528.532937 1305.59465,528.471907 C1305.83939,528.471907 1306.57361,528.105729 1306.69598,528.105729 C1310.12237,528.105729 1312.5086,527.556463 1315.8738,527.556463 C1316.11855,527.556463 1316.60803,527.373374 1316.85277,527.373374 C1317.21989,527.373374 1317.52581,527.434404 1317.83174,527.434404 C1318.19885,527.434404 1318.44359,527.373374 1318.93308,527.007196 C1321.99235,527.007196 1322.84895,526.824107 1323.4608,526.641019 L1327.13193,526.641019 C1327.49904,526.45793 1327.86616,526.091752 1328.23327,526.091752 C1329.39579,526.091752 1328.5392,527.495433 1328.84512,527.556463 C1328.84512,528.654996 1328.23327,529.692499 1328.23327,530.668973 C1328.23327,531.15721 1328.60038,531.279269 1330.00765,531.279269 C1330.80306,531.279269 1333.80115,530.668973 1334.35182,530.668973 C1335.2696,530.485884 1336.55449,530.668973 1336.55449,529.387351 C1336.55449,527.373374 1334.90249,527.190285 1334.16826,525.542485 C1333.49522,525.054249 1332.39388,522.796153 1331.0478,522.796153 C1329.82409,522.796153 1329.82409,524.260864 1328.23327,524.260864 C1326.39771,524.260864 1323.09369,524.81013 1322.91013,524.81013 C1322.42065,524.81013 1320.40153,524.87116 1320.40153,524.077775 C1321.31931,522.429975 1320.89101,521.331442 1321.50287,520.415998 C1321.99235,519.561583 1322.29828,519.378494 1322.84895,519.378494 C1323.15488,519.378494 1323.52199,519.439524 1324.07266,519.439524 C1324.86807,519.439524 1325.78585,519.317465 1326.39771,519.317465 C1327.74379,519.317465 1328.84512,519.439524 1329.94646,519.439524 C1330.43595,519.439524 1331.41491,519.073346 1331.41491,518.585109 C1331.41491,516.87628 1328.47801,514.923332 1328.47801,514.923332 C1328.35564,514.984362 1327.56023,514.801273 1327.37667,515.045392 C1327.00956,515.28951 1325.66348,516.510102 1325.54111,516.87628 C1324.19503,516.87628 1323.09369,517.608635 1322.23709,517.608635 C1321.86998,517.608635 1321.86998,517.486576 1321.86998,517.120399 C1321.86998,515.777747 1322.23709,514.557155 1322.35946,513.458622 C1322.35946,512.970385 1323.09369,512.238029 1323.09369,511.383615 C1323.09369,509.979934 1320.15679,510.224052 1320.15679,509.552726 C1319.54493,509.186549 1318.74952,509.186549 1318.19885,509.064489 C1317.587,509.064489 1316.97514,509.186549 1316.48566,509.186549 C1315.8738,509.186549 1315.38432,508.820371 1315.13958,508.820371 C1315.01721,509.064489 1314.6501,509.430667 1314.40535,509.552726 C1314.40535,510.163022 1315.01721,510.895378 1315.13958,511.261555 L1315.13958,516.388043 C1315.07839,516.388043 1314.6501,516.998339 1314.40535,516.87628 C1313.54876,516.87628 1312.56979,516.510102 1311.71319,516.510102 C1310.97897,516.510102 1310.36711,516.754221 1310.36711,517.242458 C1310.36711,518.707169 1312.20268,519.744672 1313.54876,519.744672 C1313.91587,519.744672 1314.28298,519.744672 1314.6501,519.683642 C1314.77247,519.805702 1315.13958,520.04982 1315.38432,520.171879 C1315.38432,520.415998 1315.50669,521.63659 1315.50669,521.880709 C1315.50669,523.467479 1315.13958,525.542485 1313.18164,525.542485 C1312.56979,525.542485 1312.20268,525.359397 1311.71319,525.359397 C1309.63289,525.359397 1309.1434,525.725574 1305.10516,525.725574 C1304.79924,525.542485 1304.67686,525.298367 1304.73805,524.993219 C1304.79924,524.627041 1304.98279,524.138804 1304.86042,524.077775 C1304.86042,522.857182 1304.49331,521.69762 1304.49331,520.538057 C1305.04398,520.171879 1305.16635,519.500554 1305.59465,519.805702 L1306.32887,520.04982 C1307.73614,520.04982 1309.26577,519.866731 1309.26577,518.218932 C1309.26577,517.486576 1309.38815,516.388043 1308.53155,516.388043 C1307.18547,516.388043 1307.79732,517.974813 1305.22753,517.852754 C1304.43212,517.852754 1304.37094,517.303487 1304.37094,514.923332 C1304.49331,513.946859 1305.10516,513.092444 1305.10516,512.360089 C1305.10516,511.017437 1302.65774,511.261555 1301.92352,510.895378 C1301.37285,510.895378 1301.06692,510.285082 1300.27151,510.285082 C1299.53728,510.285082 1298.43595,510.895378 1298.43595,511.749792 C1298.43595,512.482148 1299.17017,513.092444 1299.35373,513.580681 C1299.60867,514.241835 1299.82112,515.496333 1299.88485,515.966769 L1299.9044,516.143925 L1299.9044,516.143925 C1299.9044,518.646139 1298.55832,517.486576 1295.6826,518.340991 L1289.07457,518.340991 C1288.64627,518.46305 1288.15679,519.073346 1288.15679,519.439524 C1288.15679,520.538057 1288.82983,522.613064 1289.99235,522.796153 C1291.64436,522.613064 1293.47992,522.307916 1295.13193,521.880709 C1296.72275,521.392472 1297.33461,521.270412 1299.72084,521.148353 C1300.82218,522.796153 1300.63862,524.260864 1300.63862,526.45793 C1299.65966,526.45793 1295.07075,527.007196 1294.76482,527.007196 C1294.21415,526.824107 1293.84704,526.274841 1293.47992,525.908663 C1292.92925,525.359397 1293.29637,523.711597 1292.37859,523.711597 C1291.82792,523.711597 1291.64436,524.627041 1291.4608,524.993219 C1291.4608,525.664545 1289.93117,526.518959 1290.35946,526.641019 C1290.72658,527.007196 1289.44168,527.800581 1289.44168,528.654996 C1289.07457,529.63147 1289.01338,530.424855 1288.5239,531.21824 C1287.72849,532.499862 1286.87189,533.659424 1286.32122,534.880017 C1286.32122,535.124135 1286.50478,535.673402 1286.68834,535.85649 L1289.25813,538.907971 C1290.66539,539.09106 1290.84895,538.236645 1291.64436,537.44326 Z M1300.27151,533.598395 C1300.45507,533.598395 1301.18929,533.232217 1301.37285,533.232217 L1302.90249,533.232217 C1303.51434,533.232217 1304.24857,532.68295 1305.22753,532.68295 C1307.55258,532.68295 1308.65392,532.377802 1310,532.499862 L1310.61185,532.68295 C1310.91778,532.560891 1311.10134,532.377802 1311.34608,532.133684 C1311.71319,532.377802 1312.32505,532.377802 1312.56979,532.316773 C1313.30402,532.316773 1316.85277,531.950595 1317.587,531.950595 C1318.56597,531.950595 1320.15679,531.767506 1320.15679,530.668973 C1320.15679,529.753529 1320.03442,529.387351 1319.05545,529.021174 C1318.44359,529.021174 1316.91396,529.753529 1315.8738,529.753529 C1313.18164,529.753529 1309.63289,529.63147 1308.53155,530.302795 C1308.10325,530.302795 1307.67495,530.180736 1307.43021,530.485884 L1307.0631,530.302795 L1300.27151,530.302795 C1299.53728,530.668973 1297.88528,530.302795 1297.88528,531.401329 C1297.88528,532.194714 1299.10899,533.720454 1300.27151,533.598395 Z M1305.10516,574 C1306.2065,574 1307.00191,573.145585 1308.04207,573.267645 C1308.47036,573.267645 1310.18356,571.192638 1310.73423,570.460282 C1310.73423,569.727927 1311.71319,568.995572 1311.71319,568.629394 C1311.40727,567.164683 1312.44742,563.747025 1312.44742,561.183781 C1312.44742,555.813175 1312.81453,554.104345 1312.81453,549.954332 L1312.81453,545.49917 C1312.81453,543.607252 1312.20268,542.569748 1310.61185,540.982978 L1310.61185,540.6168 C1310.61185,539.884445 1313.18164,539.274149 1313.67113,538.541794 C1314.03824,538.114586 1314.03824,537.321201 1314.6501,537.321201 C1316.60803,537.321201 1319.6673,537.321201 1321.62524,537.077083 C1321.86998,537.077083 1324.07266,536.710905 1324.19503,536.710905 L1326.64245,536.710905 L1327.00956,536.955024 L1328.9675,536.955024 C1329.70172,536.955024 1329.70172,535.97855 1329.70172,535.612372 C1329.70172,534.513839 1325.66348,531.21824 1325.174,531.21824 C1323.09369,531.21824 1322.35946,533.781484 1320.76864,534.147661 C1318.68834,534.147661 1317.34226,534.513839 1315.50669,534.513839 C1315.07839,534.513839 1314.6501,534.208691 1314.03824,534.33075 C1313.67113,534.880017 1310.30593,534.696928 1308.40918,534.696928 C1307.36902,534.696928 1306.14532,534.880017 1305.47228,534.880017 C1304.86042,534.880017 1304.37094,534.696928 1303.75908,534.696928 C1302.65774,534.696928 1301.37285,534.880017 1300.27151,534.880017 C1299.23136,534.880017 1297.51816,534.513839 1297.15105,534.696928 C1296.9675,534.696928 1296.41683,534.880017 1296.23327,534.880017 L1295.49904,534.880017 C1294.58126,534.880017 1293.72467,535.063105 1293.84704,536.222668 C1294.58126,536.710905 1294.94837,538.907971 1296.60038,538.907971 C1299.59847,538.907971 1302.47419,538.053557 1305.47228,538.053557 L1305.59465,538.419734 C1305.59465,539.274149 1302.65774,540.372682 1302.47419,540.372682 L1299.9044,542.081511 C1298.80306,542.813867 1297.33461,542.996955 1296.04971,543.546222 C1294.94837,543.973429 1293.84704,544.400637 1292.7457,544.644755 C1290.66539,545.071962 1286.44359,544.949903 1286.44359,546.597703 C1286.44359,547.696236 1287.05545,548.123443 1288.15679,548.123443 C1288.9522,548.123443 1288.89101,547.574177 1290.72658,547.574177 C1290.91013,547.330058 1292.62333,546.841821 1294.76482,546.475644 C1295.86616,545.804318 1298.1912,545.560199 1298.25239,545.132992 C1301.43403,544.217548 1302.22945,543.241074 1302.90249,543.546222 C1303.20841,543.546222 1304.06501,542.935926 1304.73805,542.935926 L1304.86042,543.180044 C1304.86042,544.278577 1301.37285,546.841821 1300.63862,547.330058 C1299.72084,548.67271 1299.10899,548.367562 1298.6195,549.588154 C1297.08987,549.832272 1296.72275,550.869776 1295.86616,551.052865 C1294.39771,551.602131 1293.11281,551.907279 1291.64436,552.151398 C1290.29828,552.456546 1288.9522,554.104345 1287.78967,554.165375 C1287.23901,554.165375 1286.07648,555.324938 1286.32122,555.630086 C1286.50478,556.057293 1285.95411,556.301412 1287.42256,556.179352 C1288.5239,555.446997 1289.93117,555.691115 1291.09369,554.714642 C1292.68451,553.921257 1294.70363,553.616108 1296.23327,553.066842 C1297.88528,552.151398 1299.53728,551.235954 1301.37285,550.503598 C1302.8413,549.954332 1304.61568,548.001384 1306.32887,547.940354 C1307.18547,547.940354 1307.36902,548.67271 1307.43021,549.221976 C1307.43021,549.588154 1307.30784,551.235954 1307.30784,551.602131 C1305.90057,553.188901 1304.30975,554.104345 1302.29063,555.080819 C1299.72084,556.423471 1297.82409,557.949211 1294.94837,559.108774 C1294.39771,559.65804 1292.56214,560.939662 1291.82792,561.183781 C1291.64436,561.183781 1289.8088,561.916136 1289.62524,561.916136 C1288.27916,562.343343 1287.85086,563.319817 1286.44359,563.502906 C1285.70937,563.869084 1285.34226,564.47938 1284.60803,564.845558 C1283.38432,565.455854 1280.81453,566.310268 1280.81453,567.164683 C1280.81453,567.530861 1281.30402,567.530861 1281.67113,567.530861 C1284.24092,567.530861 1286.44359,566.432328 1288.89101,565.699972 C1289.44168,565.577913 1290.72658,565.211735 1291.27725,564.967617 C1291.8891,564.967617 1292.62333,564.113202 1293.84704,564.113202 C1296.60038,562.221284 1301.80115,560.817603 1301.37285,560.390396 C1302.10707,560.024218 1302.90249,560.024218 1303.63671,559.65804 C1303.96711,559.548187 1304.24245,559.372422 1304.50236,559.180179 L1305.01338,558.788368 C1305.44168,558.467963 1305.90057,558.19333 1306.57361,558.19333 C1306.94073,558.19333 1306.94073,558.559507 1306.94073,558.925685 C1306.94073,559.474952 1306.57361,562.404373 1306.32887,562.404373 C1306.32887,563.991143 1305.41109,565.211735 1304.49331,566.798505 C1302.96367,566.798505 1300.94455,567.530861 1300.63862,567.530861 L1300.38587,567.529088 L1300.38587,567.529088 L1299.88468,567.521608 C1298.81429,567.509405 1297.88528,567.56519 1297.88528,568.507335 C1297.88528,569.117631 1298.86424,569.483808 1299.17017,569.361749 C1299.4761,569.30072 1300.3327,569.23969 1300.27151,569.23969 C1300.94455,569.23969 1301.86233,570.582342 1302.10707,570.704401 C1302.78011,571.680875 1303.63671,574 1305.10516,574 Z M1314.76591,547.959971 L1314.77247,547.940354 C1315.13958,549.588154 1315.38432,551.602131 1316.11855,553.249931 C1316.24092,553.799197 1316.85277,553.982286 1316.97514,554.531553 C1317.21989,554.89773 1317.21989,555.630086 1317.587,555.813175 C1318.38241,556.301412 1318.26004,556.423471 1318.93308,557.277885 C1320.40153,558.376418 1321.99235,559.841129 1323.09369,561.549958 C1323.70554,562.038195 1324.80688,562.648492 1325.54111,563.136728 C1326.39771,563.869084 1328.60038,566.06615 1329.94646,566.06615 C1329.94646,566.188209 1332.21033,564.601439 1332.69981,564.601439 C1334.90249,563.869084 1337.04398,563.136728 1338.94073,561.549958 C1338.94073,560.390396 1336.73805,560.573485 1336.00382,560.390396 C1335.2696,560.207307 1334.53537,559.841129 1333.80115,559.65804 C1331.9044,559.108774 1330.06883,558.559507 1328.47801,557.644063 C1328.1109,557.460974 1328.23327,557.094797 1327.86616,556.911708 C1327.49904,556.728619 1326.64245,556.362441 1326.39771,556.179352 C1325.96941,556.179352 1323.33843,553.37199 1322.72658,552.883753 C1322.23709,552.639635 1320.40153,550.991835 1320.40153,549.954332 C1321.62524,548.367562 1322.84895,548.245502 1324.56214,547.574177 C1325.41874,547.207999 1326.15296,546.109466 1327.74379,546.109466 C1327.74379,545.682259 1330.06883,544.949903 1330.06883,544.278577 L1330.31358,543.9124 C1330.00765,542.630778 1328.47801,542.142541 1327.86616,541.471215 C1326.76482,540.372682 1326.88719,539.15209 1326.03059,539.518267 C1324.13384,539.518267 1321.86998,541.898422 1321.86998,542.569748 C1321.50287,542.935926 1319.78967,545.132992 1319.30019,545.743288 C1319.05545,545.865347 1318.68834,546.231525 1318.68834,546.231525 C1317.95411,546.231525 1317.28107,545.010933 1316.60803,545.132992 C1316.54685,544.705785 1316.11855,544.339607 1316.11855,543.9124 C1316.11855,543.607252 1316.36329,543.607252 1316.24092,543.302104 C1315.75143,542.630778 1315.8738,540.6168 1314.40535,540.6168 C1314.03824,540.6168 1313.91587,540.982978 1313.91587,541.349156 C1313.67113,541.837393 1314.28298,542.630778 1314.03824,543.546222 C1314.03824,544.864462 1314.63296,547.616287 1314.75191,547.931017 L1314.76591,547.959971 Z" id="聲律啟蒙"></path>
        </g>
    </g>
</svg>