<?xml version="1.0" encoding="UTF-8"?>
<svg width="64px" height="244px" viewBox="0 0 64 244" version="1.1" xmlns="http://www.w3.org/2000/svg" xmlns:xlink="http://www.w3.org/1999/xlink">
    <title>title</title>
    <g id="页面-1" stroke="none" stroke-width="1" fill="none" fill-rule="evenodd">
        <g id="home备份" transform="translate(-1531.000000, -322.000000)" fill="#000000">
            <g id="title" transform="translate(1531.000000, 322.000000)">
                <path d="M48.8467544,216.459578 C48.8842597,216.399832 48.920034,216.337213 48.9621553,216.279764 C48.9644634,216.349277 48.9667714,216.41879 48.9696564,216.487728 C48.926958,216.475664 48.8865677,216.467621 48.8467544,216.459578 M42.1356101,205.609828 C41.9578926,206.242912 41.540141,206.886336 41.9440444,207.492994 C41.653234,207.617658 41.3710785,207.758407 41.1079643,207.933625 C40.8910105,208.088162 40.6977138,208.267402 40.5367294,208.479962 C39.6025585,210.07014 39.5067756,211.995819 38.489516,213.552103 C38.378154,213.787642 38.2812172,214.026628 38.2108226,214.277679 C38.1127317,214.643052 38.0538772,215.012447 38.0331051,215.391034 C38.029066,215.55706 38.0175259,215.720214 38.0002158,215.881645 C37.8069191,216.286083 37.7059433,216.731885 37.5870803,217.169069 C37.4843734,217.329925 37.3608943,217.482164 37.207411,217.623488 C36.9846871,217.896369 36.8052386,218.183038 36.8739022,218.554156 C36.8023536,218.540943 36.731959,218.523708 36.6552173,218.526581 C36.5692436,218.596668 36.4838468,218.666755 36.3984501,218.736843 L36.385756,220.100099 L36.384602,220.100099 C35.6466127,220.183974 35.2571344,220.73663 34.8376518,221.246774 C34.5912707,221.550103 34.3518136,221.858027 34.1400528,222.186059 C33.110099,224.331766 31.1702085,225.972499 30.6284009,228.388789 C30.6133987,228.373278 30.6035896,228.355469 30.5868565,228.341681 C29.2810944,228.149228 28.6365799,229.340139 27.6227822,229.758365 C27.0873216,230.08295 26.5685942,230.428216 26.1410336,230.894125 C25.6765446,231.462866 25.0920386,231.881667 24.4636802,232.249913 C23.1533021,232.629074 23.1533021,232.629074 23.259471,230.220252 C22.8959579,228.270445 24.2640365,226.117844 22.8665306,224.284084 C22.9848166,224.090482 23.1140657,223.903774 23.2433148,223.716491 C23.3621778,223.618254 23.4775788,223.518868 23.5866327,223.418907 C23.8070486,223.394779 24.0286185,223.37065 24.2496114,223.346522 C24.4752203,223.50508 24.7164084,223.52691 24.9720216,223.428099 C26.6032145,222.983446 28.1311235,222.300382 29.5840219,221.449568 C30.0133136,221.146239 30.4599154,220.863591 30.7351468,220.39481 C30.7714981,220.18225 30.7414938,219.985776 30.648596,219.803664 C31.5302596,219.557209 32.2099714,219.071194 32.7096576,218.373193 C32.8631409,218.277828 33.0137392,218.175569 33.1597215,218.064693 C33.9750294,217.597636 34.8157256,217.165622 35.4336979,216.429705 C35.5600619,216.180378 35.6437277,215.916689 35.6760399,215.639212 C35.678348,215.489845 35.6569988,215.349096 35.6402656,215.206623 C36.2495828,214.451174 36.859477,213.69515 37.4687942,212.9397 C37.7255614,212.697841 37.8046111,212.442769 37.7319085,212.175059 C37.9892527,211.963648 38.1877424,211.731555 38.1161938,211.392608 C38.2223627,211.30701 38.3164145,211.207049 38.3971952,211.089279 C38.7514762,210.162058 39.0111284,209.179686 39.9654946,208.643116 C40.3457408,208.28636 40.6486684,207.879623 40.7963816,207.372352 C40.839657,207.116705 40.8465811,206.861633 40.8096528,206.605413 C40.6688636,205.958541 40.2661141,205.505845 39.7289225,205.150238 C39.431765,204.965828 39.1259524,204.800951 38.8114847,204.649286 C38.7537842,204.618838 38.7024308,204.57805 38.6470383,204.54473 C38.7226259,204.062161 38.9315017,203.634169 39.2955918,203.268795 C39.4398431,203.260752 39.5760162,203.223985 39.7081504,203.171133 C39.7110354,203.205027 39.7087274,203.234326 39.7139204,203.270519 C40.135711,203.810536 40.720217,204.064459 41.3745406,204.199463 C42.713769,204.099503 42.5423985,204.79061 42.1356101,205.609828 M22.8480664,216.170612 C22.9923177,215.989648 23.1556101,215.812707 23.3639088,215.645531 C23.6477953,215.365756 23.9351437,215.086556 24.202297,214.790121 C24.2351863,214.741289 24.2715376,214.694182 24.3061579,214.645925 C24.4152118,214.540794 24.5259968,214.443131 24.669094,214.458068 C25.0776135,214.601115 25.3932352,214.427045 25.6788526,214.157611 C26.312981,213.268306 27.0803976,212.476089 27.5627737,211.483377 C27.6625955,211.192112 27.7976147,210.917508 27.9366729,210.644627 C28.2747978,210.394725 28.5713783,210.105184 28.7392867,209.689256 C28.8183364,209.703043 28.9002711,209.710512 28.9868218,209.703618 C30.5712774,209.246327 31.3254228,207.969818 32.0305228,206.648499 C32.1239976,206.294041 32.1066875,205.952796 31.9630132,205.627637 C32.288444,205.810898 32.6259919,205.783897 32.9733489,205.579954 C33.107214,205.373714 33.1747236,205.166898 33.1758776,204.95836 C33.7367264,205.259965 34.0661962,205.954519 34.7101337,206.111929 C33.9369471,206.452025 33.6628698,207.112684 33.5849741,207.89973 C33.6063233,207.937072 33.6270955,207.975563 33.6478676,208.013479 C33.3807143,208.301871 33.1129841,208.590263 32.8458308,208.878655 L32.868334,208.920018 C32.5665604,209.599061 31.7195172,210.130461 32.2030473,211.02149 C32.0189827,210.997361 31.8378032,211.034703 31.6606627,211.145004 C31.3421559,211.575869 31.0236492,212.00616 30.7051425,212.43645 C30.7455329,213.268306 30.4743405,214.000202 29.9810013,214.659712 L29.9896564,214.660861 C30.0086976,214.805057 30.0063895,214.939487 29.9942724,215.069896 C29.9579211,214.959594 29.9498431,214.828037 29.9896564,214.660861 C28.8985401,215.273838 28.5881114,216.379725 28.2124812,217.445972 L28.2124812,217.445397 C28.0214926,217.474121 27.831081,217.501697 27.6400923,217.529847 C27.370054,218.389278 26.1116063,218.293339 25.953507,219.2602 C25.0297221,219.769195 24.5277278,220.821079 23.5681686,221.284115 C23.0765604,220.76995 22.7822879,220.151228 22.5809132,219.481951 C23.2283127,218.499005 22.7742098,217.277647 22.8480664,216.170612 M23.0125128,208.038182 C23.0627123,207.806089 23.1129117,207.577444 23.146378,207.339032 C23.2560089,206.774312 23.4700778,206.330808 24.1717157,206.456621 C24.4931075,206.497984 24.8173843,206.524984 25.1474311,206.529006 C25.370732,206.533027 25.5547965,206.599093 25.7175119,206.69733 C25.7792515,206.816824 25.840991,206.936317 25.9027305,207.056384 C25.8559931,207.066725 25.8092557,207.077066 25.7613643,207.096598 C24.9362473,207.690043 24.5311898,208.524197 24.3661664,209.494505 C24.322314,209.499675 24.2790387,209.508292 24.2340323,209.510016 C23.5924028,209.646744 23.4925809,209.662255 22.8999969,208.497196 C22.9253851,208.354724 22.9588514,208.204783 23.0125128,208.038182 M31.5937301,199.065853 C31.5233355,198.973935 31.4154356,198.87857 31.2781084,198.776886 C31.4246677,198.872825 31.5579558,198.967615 31.5937301,199.065853 M41.5718763,201.506845 C41.5609132,201.534995 41.5476421,201.561422 41.5332169,201.587274 C41.5164838,201.559124 41.5084057,201.537293 41.4905186,201.507994 C41.5176378,201.50742 41.544757,201.506845 41.5718763,201.506845 M19.0386799,200.894443 L19.0386799,200.894443 C19.0548361,200.843314 19.0715692,200.797929 19.0883024,200.750821 C19.1442718,200.842739 19.16389,200.929487 19.162159,201.012787 C19.1217686,200.973722 19.0877253,200.93638 19.0386799,200.894443 M16.4785091,202.198527 C15.9136213,203.489973 14.9921444,203.540527 13.9298783,203.094726 C14.1906845,202.738544 14.4486058,202.380639 14.6453644,201.993435 C14.9182878,201.645297 15.1612068,201.270731 15.3706596,200.866293 C15.4658654,200.619264 15.532221,200.364766 15.5633793,200.101077 C15.4941387,199.994797 15.4491323,199.887368 15.413935,199.781088 C15.5968456,199.217517 15.6349279,198.555709 16.1305751,198.20757 C16.1542323,198.262146 16.1825056,198.314424 16.2050087,198.370724 C16.3833033,198.799865 16.5119754,199.242794 16.5737149,199.703532 C16.6464175,200.537687 16.6591116,201.371267 16.4785091,202.198527 M58.5133179,201.501675 C58.2571277,200.831824 57.7909077,200.32168 57.2462151,199.874729 C57.1152349,199.779939 56.9848318,199.69549 56.8544287,199.623104 C56.2301094,198.425875 55.3374828,198.551113 54.2290563,199.741449 C54.073842,199.734555 53.9226667,199.758683 53.7772614,199.813259 C50.2817656,200.742778 46.7199142,200.43945 43.1713339,200.384299 C43.0138116,200.431407 42.8562892,200.431407 42.6987669,200.384299 C42.2637052,201.03232 41.5476421,200.757715 40.960828,200.907656 C39.544281,200.452663 37.9315522,201.52925 36.5455864,200.834122 C36.5496254,200.781844 36.5496254,200.729565 36.5542414,200.677287 C36.6096339,200.014904 36.9027524,199.343329 36.4590356,198.703926 C36.4417255,198.686691 36.4249923,198.669457 36.4071052,198.652797 C36.4076822,198.651648 36.4076822,198.651073 36.4076822,198.649924 C36.4503805,198.690713 36.4925019,198.732076 36.5352003,198.772864 C36.8115856,198.809632 37.0741229,198.764822 37.321081,198.634988 C38.7503222,197.567017 39.3296351,195.789556 40.6746336,194.653222 C41.3358812,193.284221 44.1251231,192.744778 42.3242907,190.42213 C42.2804383,190.442237 42.2365859,190.462918 42.1933106,190.483025 C42.48239,188.53724 41.5978415,188.123609 39.903178,188.767609 C40.021464,188.120162 39.6412178,187.701936 39.1646117,187.331393 C38.5206742,186.947636 37.8213443,186.677053 37.1220143,186.434619 C34.6899385,185.591848 33.8694375,186.171504 33.5953602,188.865846 C33.6519067,189.024404 33.7349954,189.159983 33.8405873,189.276029 C33.5936292,189.29786 33.3726363,189.385756 33.1816476,189.544314 C32.6923475,190.180845 32.2676718,190.827143 32.8014014,191.64636 C32.8469848,192.053097 32.8919912,192.459833 32.9364206,192.866569 L33.0922119,192.556347 C33.0575916,192.667797 33.0091232,192.773503 32.9364206,192.866569 C32.9312275,193.069938 32.9248805,193.27388 32.9191104,193.477248 C32.8100565,193.578358 32.6929245,193.67717 32.5613674,193.770811 C32.2134334,194.165483 31.9566662,194.607263 31.8562673,195.131769 C31.8701155,196.012457 31.7120161,196.824206 30.9647947,197.403289 C30.7859232,197.766364 30.7703441,198.136908 30.9209424,198.51492 C30.9428685,198.538474 30.9699878,198.561453 30.998261,198.584433 C30.9878749,198.577539 30.9786428,198.570645 30.9676798,198.564326 C30.7386088,199.031383 30.5089608,199.49959 30.2787359,199.966647 C30.1027494,200.181505 29.9527281,200.438301 29.8182859,200.676138 C29.7715485,200.787014 29.7375053,200.899613 29.71154,201.013362 C29.6094102,201.134004 29.5067033,201.254071 29.4045734,201.374714 C29.2528211,201.287966 29.0843357,201.246029 28.8968091,201.250624 C27.8708943,201.7533 26.9251832,202.37432 26.0452507,203.096449 C26.0337106,203.089556 26.0221705,203.082087 26.0106304,203.074619 C26.0608299,202.951104 26.0625609,202.815526 25.9973593,202.661563 C25.5357554,202.097417 24.8837398,202.12212 24.2421103,202.108907 C23.2963993,202.091673 23.2750501,201.407459 23.2190806,200.73014 C23.142916,199.801195 23.2819741,198.823994 22.6461147,198.013968 C22.6051474,197.986393 22.565334,197.969732 22.5249437,197.952498 C22.5249437,197.939859 22.5255207,197.92722 22.5260977,197.914582 C23.8133957,196.642669 22.8272943,194.797418 23.6027889,193.395671 C23.9755341,192.73214 24.4694503,192.134674 24.7008293,191.395884 C25.0101039,189.934391 24.5109946,188.874463 23.1256058,188.25689 C21.6559743,187.873133 20.2405812,187.298072 18.7467154,187.011404 C17.5990526,186.790801 16.3740712,186.630519 15.8097604,187.986307 C15.3100741,189.18526 15.3083431,190.364106 16.6400705,191.108641 C16.587563,191.143685 16.5367866,191.183324 16.4888952,191.232155 C15.6857043,192.385724 16.5350556,193.996584 15.414512,195.059384 C15.299111,195.167388 15.2004432,195.290902 15.0983133,195.41097 C14.480918,195.096726 13.8640998,194.783056 13.2467045,194.468238 C12.5075612,194.237294 11.9963348,193.576635 11.2566145,193.372692 C9.58676225,192.913677 8.95667287,193.763343 9.49617248,195.714299 C9.52271471,195.721767 9.54983394,195.725214 9.57637616,195.732108 C9.11650324,196.246848 9.37961748,196.701841 9.65484883,197.155685 C9.60176438,197.188431 9.54983394,197.222326 9.49559547,197.252773 C8.52507319,198.186888 8.5608475,199.307711 8.88570127,200.485409 C9.36576937,201.254646 8.88858629,202.287572 8.80261256,203.211347 L8.61797098,204.182803 C8.42640535,204.156951 8.26484397,204.238528 8.13040182,204.418343 C8.03808103,205.38348 8.36004978,206.431918 7.55224289,207.252284 C7.44665099,207.333861 7.34163609,207.416013 7.23835221,207.498739 C6.73751193,208.828101 6.48247576,210.275806 5.37347229,211.309882 C4.92225444,211.824622 4.93264053,212.500218 4.73645885,213.102854 C4.73645885,213.102854 4.77223316,213.144217 4.77223316,213.144217 C4.76415509,213.472249 4.75550001,213.800281 4.74742195,214.127738 C4.66433324,214.305829 4.58066752,214.48392 4.49757881,214.660861 C4.34640352,214.884337 4.19580524,215.107237 4.04462995,215.330138 C3.27548238,215.621403 2.39612688,215.833963 2.85830782,216.995 C4.62855893,218.670777 4.41045107,216.742226 4.80743046,215.929327 L4.80743046,215.929327 C5.75198752,216.227486 5.71275119,215.024511 6.38380791,214.905018 C6.81713861,214.282275 7.25046931,213.660106 7.68380001,213.037363 C8.00749977,212.801249 8.33177654,212.565135 8.6554763,212.328446 C9.45578213,212.017649 9.90353796,211.348373 10.3559098,210.683692 C11.1083242,210.946232 11.4643363,210.271785 11.9536365,209.920199 C12.3517699,209.566316 12.7874086,209.250923 13.0574469,208.776397 C13.189581,205.919476 15.645314,207.03915 17.0849413,206.41813 C16.1675034,207.985329 16.6192983,209.709937 16.6741137,211.388012 C16.706426,211.536804 16.7358533,211.684447 16.7652805,211.833239 C16.7300832,212.408874 16.6948859,212.983935 16.6596886,213.559571 C16.5771769,213.749151 16.4906262,213.937008 16.3902273,214.120844 C16.3775332,214.189208 16.3758022,214.258146 16.3694551,214.32651 C16.1998157,214.356958 16.0376773,214.410385 15.884771,214.491388 C15.2864169,214.55573 14.951754,214.9257 14.6713297,215.358862 C14.3199337,215.584636 13.9500735,215.779961 13.540977,215.909795 C12.9916683,216.145334 12.4654398,216.413045 12.0846166,216.8824 C11.4735684,216.716948 11.1891049,217.042682 11.0615868,217.603955 C10.6813406,217.988861 10.3016714,218.373767 9.92200211,218.758099 L9.30402984,219.564103 C7.30239975,219.809983 6.44900947,221.575955 5.11324307,222.703097 L4.63894502,223.334458 C3.63841848,223.58953 2.3632376,223.89056 2.57557541,225.109046 C2.79887631,226.395321 4.1911892,226.01616 5.17209757,226.09429 C5.35962417,225.94952 5.54715077,225.8036 5.73467737,225.658255 C5.73006133,225.654234 5.72544529,225.650212 5.72140626,225.646765 C5.75833457,225.63068 5.79237787,225.622063 5.82815217,225.608275 C5.75371854,225.763961 5.73525438,225.935158 5.78026076,226.124738 C6.40169507,226.1954 6.79348141,226.556177 7.03178444,227.109408 C7.95499232,227.372523 8.8776232,227.636212 9.80140808,227.899327 C10.3882221,228.499665 10.9715741,228.66799 11.546848,227.884965 L11.546848,227.88439 C12.5964199,227.78328 12.6529664,226.647521 13.3447953,226.173569 C12.9916683,225.498548 13.0978372,224.893614 13.6211807,224.350724 C14.3118556,224.104844 14.1035568,223.501059 14.1606803,223.003553 C14.1335611,222.942083 14.1012488,222.886933 14.0648975,222.835803 C14.8917455,222.502601 14.6217072,221.236433 15.5870365,221.021001 C16.2425141,220.756162 16.6764218,220.979638 16.9972365,221.450717 C16.8662564,221.472547 16.7173891,221.547805 16.5431336,221.701767 C16.4363877,221.974648 16.4260016,222.251551 16.4998583,222.533623 C17.7392648,224.255934 15.9280464,226.135653 16.7779746,227.877496 L16.6608426,231.647851 C16.5679448,232.068375 16.5004353,232.50958 16.4871642,232.991 C16.4554289,233.227688 16.4513898,233.463228 16.470431,233.701065 C15.8934261,234.770185 16.2448221,235.942711 16.1617334,237.066407 C16.34926,237.450738 16.5367866,237.834495 16.7243132,238.218252 C16.6573806,238.3883 16.6089122,238.563518 16.5800619,238.743333 C15.5806894,240.04397 16.8939526,241.491101 16.3192557,242.818739 L16.3186787,242.818739 C16.0803757,244.227955 16.9955055,244.037225 17.8581279,243.918881 C17.989685,243.601765 18.1212421,243.285222 18.2522222,242.96868 C18.3058837,242.968106 18.3543521,242.978447 18.4108986,242.971553 C18.6393925,242.8354 18.8269191,242.657309 18.9694393,242.432685 C19.0127147,242.314915 19.0554131,242.195996 19.0975344,242.077078 C19.4997069,241.80075 19.7680142,241.342309 20.1765336,241.074024 C20.338672,240.875252 20.5008104,240.675905 20.6623718,240.477707 C20.7223803,240.008926 20.7823888,239.54072 20.8423973,239.071364 C20.9387571,238.926594 21.0149218,238.771483 21.0691603,238.605456 C21.505376,238.018331 21.6386641,237.310564 21.8169586,236.62118 C21.8804292,236.563157 21.9438997,236.505708 22.0056393,236.445387 C22.1602766,236.281084 22.2987578,236.103568 22.4216598,235.915136 C23.504121,235.722109 24.6892892,235.827814 25.487287,234.812697 L25.487864,234.812697 C25.838106,234.801207 26.188348,234.789143 26.5385899,234.777078 C26.8819079,234.560497 27.2252258,234.343341 27.5685437,234.126185 C28.9071952,233.61719 30.4668395,233.460355 31.1459743,231.90005 L32.2411296,230.733843 C32.4517364,230.523006 32.6629202,230.311595 32.873527,230.100184 C34.5318392,230.211635 35.1278853,228.084886 36.8110086,228.248615 C36.8000455,227.776387 36.8681321,227.357586 37.4589852,227.288648 C38.2512129,226.910061 38.8951504,226.3913 39.1669197,225.516932 L39.1819219,225.554273 C40.0976287,225.110195 40.4974931,224.455281 40.0468522,223.452802 C39.9995378,223.421779 39.9545315,223.398226 39.9101021,223.373523 C39.9274122,223.368352 39.9418374,223.358586 39.9603015,223.354565 C40.1010907,223.344224 40.2401489,223.32067 40.3763221,223.283903 C41.4882105,222.668628 42.0784866,221.751747 42.0773326,220.494197 C42.2792843,220.464898 42.481813,220.435024 42.6843418,220.405726 C42.8182069,219.415886 44.006837,219.320521 44.3230357,218.486367 C44.3461159,218.356533 44.3715042,218.227273 44.3963154,218.098588 C44.6167313,217.364969 44.8371471,216.631924 45.05814,215.898305 C45.3743387,215.847176 45.6911144,215.795472 46.0084671,215.743194 C46.0598206,215.444461 46.111751,215.146302 46.1636815,214.847569 C46.3073557,214.733247 46.4475679,214.615477 46.575086,214.48392 C46.8439703,214.233443 47.0597701,213.942753 47.2115224,213.607253 C47.3067282,213.378608 47.394433,213.145941 47.4584805,212.90638 C47.8946962,211.549443 49.1687231,210.643478 49.4629956,209.210709 C49.6130169,208.343234 49.4029871,207.607891 48.6696138,207.063278 C48.4463129,206.877719 48.1976238,206.855889 47.9397026,206.88806 C47.6938985,206.638158 47.4475174,206.388257 47.2011363,206.138355 C47.0966984,206.074587 46.9916835,206.011394 46.8866686,205.947051 C46.8682045,205.975201 46.8503173,206.003351 46.8318532,206.031501 C46.8226211,206.013691 46.812812,205.996457 46.8035799,205.979222 C47.0401519,205.731044 47.2057524,205.438631 47.3153833,205.112897 C49.3129743,203.485951 50.0284604,203.451482 51.6954277,205.191027 C51.6388812,205.296158 51.5834887,205.401863 51.5361743,205.512165 C51.2563269,206.329659 50.9026229,207.124748 50.7797209,207.989925 C50.7779898,208.115163 50.7751048,208.238677 50.7722198,208.363341 C50.8703106,208.663223 50.9678245,208.96253 51.0653383,209.262412 C51.0035988,209.281945 50.9407052,209.294584 50.8812737,209.322159 C49.9644129,210.069566 49.7578451,211.124323 49.6395591,212.216422 C49.6614853,212.284785 49.6747564,212.350851 49.6926436,212.418066 C49.6695634,212.418641 49.6459062,212.419215 49.622826,212.419215 C49.0781333,212.22389 48.8888757,212.405428 49.0469751,212.95636 C49.0510141,213.124685 49.0550531,213.293009 49.0590922,213.461334 C47.7856423,213.441227 47.3690447,214.039841 47.7942974,215.246837 C47.6390831,215.824196 47.4844457,216.400981 47.3298084,216.97834 C47.3199993,217.304648 47.3113443,217.630382 47.3021122,217.95669 C47.2120994,218.098014 47.1093925,218.219805 46.9772584,218.303105 C46.811081,218.806355 46.3892904,219.272264 46.7776147,219.84675 C47.0326509,221.258264 46.4977673,222.541092 46.1221371,223.850346 C46.1227141,223.849772 46.1227141,223.849772 46.1232911,223.849197 L46.1313692,223.841729 C46.0950179,223.920434 46.0736687,224.004309 46.0598206,224.089333 C45.8688319,224.752865 45.6772663,225.416396 45.4862777,226.079928 C45.4833927,226.07763 45.4810846,226.075332 45.4781996,226.073034 C45.2012372,226.13393 44.9248519,226.194251 44.6478895,226.255147 C44.592497,226.606158 44.5376816,226.956595 44.4828661,227.30818 C44.6086532,227.662638 44.7344403,228.017096 44.8596503,228.37098 C44.8723444,228.372129 44.8844615,228.372704 44.8965786,228.373853 L44.8960016,228.375002 C44.7557894,228.530113 44.6369264,228.699586 44.5607618,228.897784 C44.5169094,229.058066 44.4938292,229.213177 44.4794041,229.36714 L42.6889578,233.62351 L42.6347193,233.549975 C42.6254873,233.577551 42.6116391,233.595934 42.6018301,233.622361 C42.2914014,233.342586 41.9394284,233.281116 41.53841,233.478165 C39.8604797,234.418024 38.3879631,233.730364 36.9333337,232.901955 C36.0597482,232.552667 35.0603757,231.480101 34.3420046,232.892763 C33.7684617,234.02048 34.7280208,234.544411 35.682387,234.879911 C36.2265026,235.070641 36.7071477,235.344096 36.9327567,235.918583 C37.0954721,235.909966 37.2524174,235.935243 37.4041697,235.996139 C39.0001653,237.791983 38.5033641,240.365108 39.7612348,242.286765 C40.7606073,245.082791 42.3491019,242.66765 43.6583261,242.723375 C47.052269,240.857443 48.1826217,237.429482 49.5968608,234.197996 C49.7838104,234.185932 49.971337,234.174442 50.1582866,234.162952 C50.4537131,233.582147 50.4664072,232.985255 50.3169629,232.380321 C50.4589061,232.198783 50.6014263,232.01782 50.7433695,231.836282 C51.0820714,231.457121 51.4213503,231.07796 51.7606292,230.698799 C53.0912026,228.423258 53.5078001,225.899539 53.7801465,223.335607 L54.0080634,223.308031 C54.0080634,223.308031 54.2365574,223.321819 54.2371344,223.321244 C54.2042451,223.138558 54.2117462,222.95702 54.2602146,222.777206 C55.7967787,222.30785 54.8452976,220.514878 55.8723663,219.774365 C55.948531,217.87856 57.4129695,216.484281 57.7303222,214.675798 C58.1146075,213.399289 59.118019,212.241124 58.4850446,210.771014 C58.415227,210.688862 58.3407934,210.634286 58.2640517,210.593497 C58.2640517,210.592923 58.2646287,210.592348 58.2646287,210.592348 C58.288863,210.316595 58.3159822,210.040267 58.3298303,209.770258 C58.3350233,209.746704 58.3407934,209.722576 58.3459864,209.699022 C59.0551255,209.037788 59.584239,208.280615 59.6379005,207.272966 L59.6379005,207.272966 C59.9465981,206.852442 60.2552957,206.433067 60.5645704,206.012543 L60.5645704,206.012543 L60.8426868,206.038394 L61.1179181,205.989563 C61.108109,204.05182 59.6165513,203.039001 58.524281,201.77628 C58.5196649,201.685511 58.5121639,201.595891 58.5133179,201.501675" id="Fill-3"></path>
                <path d="M62.5644117,47.0214107 C62.5361385,46.7967865 62.4132365,46.6232916 62.1876275,46.5049474 C60.5697057,46.5026494 59.5334049,44.424732 57.6823731,45.2542904 C57.5381218,45.1893734 57.3863695,45.1577767 57.2276932,45.1612236 C56.9634249,44.8337663 56.6997337,44.5063091 56.4360424,44.1782773 C55.4851383,43.8100315 54.5342342,43.4412112 53.5833301,43.0718164 C51.5211145,42.9718558 50.0226327,41.2271405 47.948877,41.1587766 C47.8652113,41.0203254 47.8219359,40.8698099 47.8207819,40.7078048 C47.3049395,40.4584776 46.7890971,40.209725 46.2732547,39.9603979 C46.0101404,39.661665 45.7464492,39.362932 45.4833349,39.0636246 C44.5376239,38.7097409 43.9040725,37.819287 43.0056758,37.3849752 C42.8712337,37.2086079 42.7425616,37.0299426 42.6398547,36.8374896 C41.7160698,35.9470357 41.4321834,34.5935456 40.3987676,33.7829453 L40.3918435,33.7749024 C40.0687207,33.3871241 39.7865653,32.9568338 39.3024582,32.733933 C39.1876342,32.7046342 39.0820423,32.6626967 38.9799124,32.6155888 C38.6314015,32.0175484 38.4063695,31.3138026 37.6874214,31.0334532 C37.5610573,30.6686543 37.3083292,30.447477 36.9303909,30.3704958 C36.9811674,30.3526867 37.0307898,30.3377501 37.0832973,30.3141962 C37.755508,27.9674191 35.5726984,27.2355233 34.5387055,25.8538835 C34.5387055,25.8538835 34.5294735,25.8469896 34.5300505,25.8469896 C33.9997829,25.4109544 33.4689384,24.9754937 32.9386709,24.5394585 L32.9386709,24.538884 L32.9386709,24.5394585 L32.9386709,24.5394585 C32.9369399,24.5457779 32.9363629,24.5520972 32.9346318,24.558991 C32.4730279,23.4209334 32.1868335,22.1961283 31.3455603,21.2442043 C31.3415212,21.1810108 31.3397902,21.1166683 31.3276731,21.0546238 C32.1620222,20.6530578 32.5139952,19.9837811 32.4309065,19.0714966 C32.5445765,19.1898408 32.6703636,19.2949718 32.8209619,19.3736765 C35.8283115,19.6678135 38.8350842,20.0446766 41.8106986,19.1530737 C41.9007114,19.0473682 41.9924552,18.9428116 42.0836219,18.8382551 C42.1367064,18.6745265 42.203062,18.5159682 42.2821116,18.3625803 L42.2821116,18.3625803 C43.614416,17.1659251 43.379575,16.5862683 41.0559762,15.3344623 C40.8955688,14.7203363 40.5995653,14.2745349 39.8592679,14.3819638 C39.8546519,14.5612036 39.7819493,14.7082721 39.6423141,14.8225949 C38.8714355,15.5269153 37.7260807,14.8381061 36.9575102,15.5424264 C36.7509424,15.6837501 36.5986131,15.8670113 36.5109084,16.1025507 L35.8508147,16.9430244 C35.7267587,16.8654687 35.5986636,16.7936579 35.4630674,16.7333368 C34.0522904,16.3334943 32.3899392,16.660377 31.308632,15.328143 C32.4430236,14.6600153 32.4689889,13.7534757 31.8383225,12.7056124 C31.8394765,12.6883778 31.8412075,12.6717177 31.8429385,12.6544831 C31.9554545,12.700442 32.0795105,12.7199746 32.2202997,12.7044634 C32.4597568,12.5533735 32.6443984,12.3546012 32.7736475,12.1035506 C33.1960151,10.8741497 33.4354721,9.60223668 33.7182045,8.34066447 C33.7632109,8.09191184 33.7845601,7.84258473 33.769558,7.58923621 C33.6974324,7.10322069 33.542218,6.64420602 33.3489214,6.19668109 C33.30103,6.10189083 33.2421755,6.01744132 33.1781279,5.93643873 C33.5918404,5.82039247 34.003822,5.69917584 34.4163805,5.58025714 C35.1936061,5.31599338 35.995066,5.25509782 36.8069119,5.32173825 C39.9244695,5.76524178 43.0783784,5.56589498 46.2120922,5.78764675 C47.1733824,5.85601063 48.1179394,5.5819806 48.9557506,5.05402757 C49.2004007,4.85755321 49.4000444,4.62316274 49.5500657,4.34798374 C49.8149109,3.35929258 49.4462048,2.49986087 48.9949869,1.65766376 C47.4647699,0.0272712543 45.9299368,-1.04989081 44.3650994,1.62032214 C44.194883,1.83920147 44.0246665,2.05750632 43.853873,2.27638565 C42.5198377,2.27523668 41.1863793,2.27408771 39.8517669,2.27351322 C38.6735228,2.23559711 37.4952788,2.1982555 36.3176117,2.16033939 C35.5952015,2.19710652 34.8733684,2.23329917 34.1503812,2.26949181 C34.0742166,2.42862456 34.0338262,2.5963746 34.0286332,2.77331642 C31.3403672,2.96691835 28.6521013,3.16109476 25.9632583,3.35527118 C24.4520824,3.38227204 22.9414835,3.4092729 21.4297306,3.43569928 C21.4129975,3.59081062 21.3714531,3.73845363 21.3045206,3.87977729 C21.3062516,3.88150075 21.3074056,3.88322421 21.3085596,3.88494767 C21.3079826,3.8837987 21.3045206,3.87977729 21.3045206,3.87977729 C19.7800736,4.1164657 18.1483036,3.48280717 16.7121384,4.43817811 L16.1137843,4.41117725 C15.3625239,4.35832449 14.6112634,4.30489726 13.860003,4.2520445 C13.2881911,4.32730223 12.7158023,4.40198546 12.1439904,4.4766687 C10.7262893,3.44086966 9.10779046,4.0233989 7.57468838,3.91482097 C5.82463244,3.79130638 5.53382196,4.77999754 5.81597737,6.20414941 C6.00812001,6.19553212 6.20026265,6.18576585 6.39240529,6.17657406 C6.52107739,6.26791741 6.6635976,6.30755697 6.82111995,6.29491827 L6.82054294,6.29549276 C7.08077216,6.60571543 7.34100138,6.91651259 7.6012306,7.22730976 C9.07317017,7.26177894 10.5462637,7.29567364 12.0187803,7.33014283 C12.2449662,7.15664792 12.4699982,6.98372751 12.6956071,6.81080709 C14.8518745,7.04060166 16.9192831,6.40636864 19.0270821,6.16910574 C20.418241,6.41670939 21.9634602,5.53487272 23.2230619,6.7384218 C23.3713522,6.75852882 23.5202195,6.76944407 23.6696638,6.77116753 C23.8312251,7.77364636 23.6817809,8.80887091 23.7527525,9.82054153 C23.7221712,10.43754 23.8052599,11.0803903 23.7844877,11.6985377 C23.9425871,12.1742125 23.7816027,12.7251449 24.1001094,13.1640526 C23.4423238,13.8160947 23.8808476,14.6766754 23.7054381,15.4200608 C23.4521329,15.9652484 23.8364182,16.7189746 23.3580811,17.190628 C23.2063288,17.0665389 23.0320733,16.979217 22.8301216,16.935556 C22.2334985,17.0521768 21.7165021,17.2848438 21.4349237,17.8679475 C21.0292892,18.6400573 20.5953815,17.5312985 20.1834,17.8863311 C19.9970274,17.8093499 19.8100778,17.7323687 19.6242822,17.6548131 C19.2394199,17.657111 18.8545577,17.6594089 18.4696954,17.6617069 C17.3133775,17.6829629 16.1570596,17.7047934 15.0007418,17.7260494 C13.979443,17.7536247 12.9414112,17.6737711 11.9420387,17.8346273 C10.6212744,18.0471873 9.78634826,18.6481001 10.9426661,20.049847 L10.9426661,20.0504215 C11.5352502,21.2775245 12.5467398,20.9925792 13.5991968,20.8661922 C16.1761008,20.5571185 18.7651219,20.3439841 21.349527,20.092359 C21.8561373,20.4439447 22.1573338,20.8713626 21.8855645,21.510766 C21.6605326,22.1128278 21.6997689,22.7418904 21.7291962,23.3669317 C21.8059379,24.7049106 21.5203204,26.043464 21.7193871,27.3825919 C21.7413133,27.4044224 21.7655475,27.4187845 21.7886277,27.4377426 C21.6651486,27.4704883 21.5428236,27.504383 21.4204986,27.5422991 L20.6605831,30.8576603 C20.3322673,31.6786014 20.0039515,32.4989681 19.6756357,33.3193347 C19.4904171,33.8363725 19.3046215,34.3534103 19.1199799,34.8704481 C18.8482106,34.7314224 18.656068,34.8129994 18.5354739,35.0973702 C18.545283,35.2605244 18.4875825,35.3949542 18.3623725,35.5006597 C17.9250027,35.9142899 17.3976202,36.2434707 17.1304669,36.8139357 C16.9094741,37.1115197 16.7484897,37.4320831 16.7242555,37.8083717 C16.548846,38.0105909 16.3740135,38.2128102 16.199181,38.4144549 C16.1922569,38.6063334 16.204374,38.7970629 16.2355323,38.9860689 L16.2349553,38.9860689 C15.7791214,39.7196881 14.9793926,40.2453432 14.8859178,41.1978417 L14.8859178,41.1978417 L12.7008001,42.9919628 C12.687529,43.1516701 12.6742579,43.3113773 12.6615638,43.47051 C12.093791,43.598046 11.8560649,44.4132423 11.1255767,44.2012568 C10.3091147,44.6642928 9.61670881,45.2083315 9.74884294,46.2837701 C9.72633974,46.2619396 9.70729858,46.2383857 9.68191036,46.2182786 C8.58386999,45.8597991 7.91973732,46.6146743 7.18636406,47.1862883 C6.56666077,48.0962748 5.50554872,48.2910257 4.61638413,48.7632536 C3.91993918,49.4279344 2.76419832,49.4894044 2.32452057,50.4918832 C2.15892015,50.4620099 1.99274273,50.4620099 1.82656531,50.4913088 C1.66788896,50.6958259 1.50921261,50.8997686 1.34995925,51.1042858 C0.950671839,51.8706507 -0.332587115,52.2745147 0.0811254166,53.317782 C0.454447603,54.2593653 1.56056604,53.6371965 2.30144037,53.8779063 L2.29970935,53.8784808 C3.03019759,53.5406828 3.97590866,54.0324431 4.60022799,53.2867598 L4.60715205,53.3068668 C4.80391073,53.1408402 4.87776736,52.9323016 4.82583692,52.6806766 C5.32956221,52.5037347 5.83271051,52.3279419 6.33643581,52.1515746 C7.27002978,51.5322782 8.05302546,50.6550374 9.23819358,50.4637334 C9.35128654,50.4292642 9.4638025,50.394795 9.57631846,50.3591769 C9.755767,50.2218746 9.8855931,50.0478052 9.97329785,49.8415646 C12.4982714,50.1460424 13.737678,49.3768051 14.3833465,47.0983919 C14.4670122,47.1041367 14.5501009,47.1093071 14.6337666,47.115052 C14.9003429,47.3482935 15.2130796,47.3954014 15.5506275,47.3356548 C15.7652733,47.2609715 15.9216416,47.1225203 16.0197325,46.9197266 C16.0214635,46.9151307 16.0220405,46.9111093 16.0237715,46.9065134 C16.0318496,46.9053644 16.0399276,46.9047899 16.0485827,46.903641 C17.023721,46.5147136 17.8817274,46.0281236 17.9048076,44.8182552 C20.0853092,44.444839 21.1510373,42.815021 22.1036724,41.0605394 C22.0955943,40.9439187 22.0650131,40.8416601 22.0200067,40.7485933 C22.6529811,40.9105985 22.8156965,40.4240085 23.0216872,39.997165 L23.5173345,39.4646161 L24.2282045,37.8164145 C24.2622478,37.3183348 24.2968681,36.820255 24.3309114,36.3221753 C25.5807041,35.9223327 26.6135429,35.3346331 26.5373782,33.7898391 C26.5448793,33.6749418 26.5518034,33.55947 26.5598814,33.4439983 C26.6146969,33.4520411 26.6597033,33.4709991 26.7185578,33.4750205 C27.8235222,33.0878167 28.1056776,32.1617445 28.2505059,31.1472015 C28.2453128,31.1167537 28.2435818,31.0863059 28.2383888,31.0558581 C28.2822411,31.042645 28.3260935,31.0305807 28.3716769,31.0070268 C28.5459324,30.8180208 28.6780665,30.6077587 28.7680793,30.363602 C28.8996364,30.0596987 28.8194327,29.601833 29.1864078,29.4995744 C29.4477911,29.4266146 29.5481899,29.793137 29.6814781,29.9890368 C30.1655852,30.8565113 30.6254581,31.7573061 31.6542579,32.0962531 C31.434996,32.4329021 31.3692175,32.7919562 31.5140457,33.17916 C31.6761841,33.3957414 31.8758278,33.5698108 32.1164389,33.6944743 C32.2895403,33.7726045 32.4678349,33.8375215 32.6490144,33.8938211 C32.6582465,34.5050747 33.0459938,35.0393471 33.2554466,35.6092376 C34.3846452,37.3539529 34.3765671,40.0327832 37.2131234,40.3734536 C37.3019821,40.2844082 37.3671837,40.1959373 37.4219991,40.1080409 C37.4341162,40.1476805 37.4456563,40.18732 37.4531574,40.2275341 L38.1801836,42.9385356 C38.3088557,43.6497498 38.6135143,44.1357653 39.2418727,44.2064271 C39.6498152,45.4059548 40.1766207,46.5193095 41.3814069,47.1615854 C41.6577923,47.2293748 41.9255226,47.2144381 42.1909448,47.1104561 C42.1967149,47.1081581 42.2001769,47.1041367 42.20537,47.1018388 C42.3346191,47.2121402 42.4644452,47.3224416 42.5936943,47.4333175 C42.562536,47.4982344 42.5325318,47.5637259 42.5002195,47.6269194 C42.5377248,48.7299333 43.1672372,49.2802913 44.2139241,49.4399986 C44.2837417,49.3750816 44.3656764,49.335442 44.4528042,49.3061432 C45.3275436,50.7607429 46.3269162,52.0010591 48.3262382,51.5098732 C48.8582368,51.3220161 49.4098535,51.1709262 49.7849067,50.7009963 C49.9256959,50.5280759 50.061292,50.3540065 50.1830401,50.1672984 C50.3388314,49.974271 50.529243,49.8272024 50.7335028,49.696794 C51.1275971,49.9168223 51.578238,49.9863352 52.049074,50.0001229 C55.1031611,49.3555491 58.2201417,49.6347495 61.2973089,49.3492297 C61.4484842,49.314186 61.5996595,49.2814403 61.7508348,49.2481201 C62.7403982,49.041305 63.770352,48.8907895 64,47.6343877 C63.5216629,47.4298705 63.0433258,47.2253534 62.5644117,47.0214107" id="Fill-5"></path>
                <path d="M16.133287,99.9165024 C13.5661921,99.872267 10.969093,99.2667583 8.46200655,100.324388 C8.46142955,100.324388 8.46027554,100.324388 8.45969853,100.324388 C6.98718196,99.9371839 5.51120337,99.4689775 4.1090814,100.533501 C4.24236954,101.273439 3.96136814,102.100125 4.57587838,102.739529 C5.82163202,103.789115 6.99929907,105.26612 8.71531171,103.399614 C9.65179071,103.351357 10.5882697,103.302525 11.5247487,103.253694 L11.4999375,103.237609 C11.564562,103.237609 11.6291866,103.203139 11.6938111,103.134775 C11.7624747,103.061816 11.7474726,102.964727 11.6574598,102.847532 C11.7220844,102.827425 11.7872859,102.808467 11.8513335,102.788935 C11.9886607,102.772849 12.1248338,102.753316 12.261007,102.730911 C13.1282454,102.668292 14.0035619,102.653356 14.8234859,102.320154 C14.9071516,102.316707 14.9908173,102.311536 15.07506,102.312685 C16.0075,102.094381 16.9872543,102.21847 17.9318114,102.081167 C20.6304634,102.131722 23.3452716,102.456307 25.9902622,101.570449 C26.3647384,101.508404 26.7386376,101.445785 27.1131137,101.382592 C28.074404,101.450381 29.0356942,101.518745 29.9975614,101.586535 L29.9975614,101.586535 L29.9975614,101.586535 C30.0050624,101.755434 30.0142945,101.924333 30.0258346,102.093232 L30.0223726,102.096678 C34.3337534,102.263854 38.619746,103.270354 42.958823,102.486755 C43.1140373,102.394262 43.2103971,102.283961 43.2698287,102.161021 L45.6338178,102.557417 C45.8530797,102.712528 46.0665715,102.881427 46.2812174,103.048602 C46.5229824,103.14684 46.7757106,103.214629 47.0359398,103.23646 C47.2863599,103.21348 47.4894657,103.170394 47.6712222,103.118115 C48.4496019,103.139946 49.2360596,103.235311 49.992513,103.048602 C50.0986819,103.070433 50.2123519,103.087668 50.338716,103.092838 C50.5989452,103.087093 50.8545584,103.0509 51.1038245,102.974494 C51.2890431,102.878554 51.4794547,102.792382 51.6704434,102.708507 L52.4938294,102.65393 C52.8527265,102.647036 53.2110465,102.640143 53.5699436,102.633249 C53.7782424,102.264428 53.9865411,101.895608 54.1942629,101.526213 L54.1936859,101.526213 L54.1942629,101.526213 L54.2738896,101.584237 L54.2738896,101.584237 C55.7723714,101.341229 55.3707759,100.246832 55.3061514,99.3029509 C54.669138,98.7997008 53.968077,98.5003934 53.1331508,98.6279294 C53.0264049,98.4791374 52.9242751,98.327473 52.8256072,98.1729361 C51.3398195,97.2819076 49.8061404,96.6022902 48.0070391,97.0837098 C47.9533776,97.4048477 47.9002932,97.7259857 47.8466317,98.0476981 C47.6700682,98.0844652 47.4917737,98.1120405 47.3123252,98.1298496 C47.0394018,98.7698275 46.468744,98.854277 45.9027021,98.7709765 C42.3391197,98.2453214 38.7605352,98.8496811 35.1952217,98.601503 C34.7041905,98.0752734 34.171615,97.7604548 33.4994043,98.1689147 C33.4982503,98.1344455 33.4907492,98.1091681 33.4913262,98.0729755 L33.4618989,98.1057212 C33.464784,97.9276304 33.4526669,97.7506886 33.4255476,97.5748957 C32.6310118,96.9533014 33.1006939,95.996207 32.8000743,95.2436298 C32.8000743,95.2436298 32.8000743,95.2442043 32.7994973,95.2442043 C32.7994973,95.2442043 32.7994973,95.2436298 32.8000743,95.2436298 C32.8064213,95.0540492 32.8127684,94.8638942 32.8191155,94.6737392 L32.8191155,94.6737392 C32.8514277,93.327143 32.883163,91.9805468 32.9154753,90.6339506 L32.8266165,88.3423242 C32.9708677,86.1822552 32.9633667,84.031378 32.4365612,81.9120975 C32.4059799,80.4546254 32.3748217,78.9965789 32.3448174,77.5391068 C32.527151,77.6051727 32.7175626,77.6132155 32.9172063,77.5551924 C33.704818,76.9065972 33.4336257,75.8133495 33.9765873,75.0630702 L33.9471601,75.0992629 C34.169884,72.2957691 36.1819002,72.4974138 38.1460249,72.6146091 C39.3104209,72.2216603 40.6063739,73.1069439 41.7217244,72.2440653 C41.8821318,71.9033948 41.8907869,71.5667458 41.7626918,71.2346926 C42.0119579,71.2369906 42.260647,71.2392885 42.5093362,71.241012 C43.0222935,72.3227699 44.2738172,71.4943605 44.9419889,72.1734035 C45.3810897,71.5948956 46.0457994,71.6477484 46.6620406,71.5655968 C46.7001229,71.4041661 46.6885828,71.2456079 46.6268433,71.091071 C46.6868518,70.9112568 46.7468603,70.7314425 46.8068688,70.5522028 C47.3879128,70.329302 47.290399,69.8185836 47.3175182,69.3607179 C47.1121045,69.2027341 46.9066907,69.0453248 46.7012769,68.8873411 C46.5183664,68.5650542 46.3331478,68.2450652 45.9771358,68.0767407 C45.8744289,68.0744428 45.7832621,68.0928263 45.6972884,68.1226996 C45.6707461,67.1207953 44.716957,66.7416342 44.2634311,66.0258241 C43.9328073,65.8195835 43.6010295,65.6133429 43.2704057,65.4065277 C42.6518564,65.9379277 42.0338841,66.4693277 41.4159118,67.0007276 C41.4153348,67.0013021 41.4153348,67.0013021 41.4147578,67.0013021 C41.086442,67.068517 40.7581262,67.1351574 40.4298104,67.2017979 L39.7841419,68.2266817 C39.1684776,68.8143813 37.9671534,68.2881517 37.5580569,69.2688001 C37.4039966,69.144711 37.2378192,69.038431 37.0497156,68.9689181 C36.8027575,68.9051501 36.5511833,68.8724044 36.2949931,68.8798727 C35.9026298,68.9172144 35.5489258,69.0401545 35.2742714,69.3377384 C35.2592693,69.3434833 35.2442672,69.3469302 35.229265,69.3521006 C35.2627313,69.3090141 35.2973516,69.269949 35.3296639,69.2222667 C35.1911827,68.5351809 34.6632232,68.3731757 34.0694851,68.3048118 C33.6124972,68.3185995 33.2039777,68.4501569 32.880855,68.7902529 C31.3471759,68.9131929 29.8129198,69.036133 28.2798177,69.1590731 C27.8961094,69.2527144 27.5124012,69.3469302 27.1286929,69.439997 C21.9339175,69.4308052 16.7391422,69.4227624 11.5443669,69.4106982 C10.7192498,69.4089747 10.0649262,69.6703661 9.75276657,70.498201 C9.75276657,70.4987755 9.75276657,70.4987755 9.75218956,70.4987755 C9.7094912,71.7253041 10.4370944,72.406645 11.4543541,72.8834687 C11.4780113,73.0787941 11.5010915,73.2741195 11.5241717,73.4694449 C11.8346003,73.441295 12.144452,73.4125707 12.4548806,73.3844209 C12.7399211,73.4453164 13.0359246,73.4476144 13.3376982,73.3781015 C13.5696541,73.3240998 13.8033411,73.2856092 14.0364511,73.2396503 C17.414815,72.9311511 20.7937558,72.6226519 24.1721196,72.3141527 L24.1721196,72.3141527 L24.1778897,72.320472 C24.2280891,73.8175837 24.2782886,75.3146953 24.328488,76.8123814 L24.5939102,76.8669577 L24.8627945,76.8405313 L24.8633715,76.8405313 L24.8627945,76.8405313 C24.8293283,77.044474 24.796439,77.2478422 24.7629727,77.4517848 L24.7629727,77.4523593 C24.7629727,77.4523593 24.7629727,77.4517848 24.7629727,77.4517848 C24.9608854,82.6112475 25.1599521,87.7701357 25.3578648,92.9290239 C25.2545809,93.1065402 25.2372707,93.2920993 25.3059343,93.4857013 C25.1420649,93.4954675 24.9787725,93.5081062 24.8154801,93.5236174 L24.8183652,93.5167235 C23.9857471,94.470371 23.9586278,95.5268516 24.4173467,96.6465256 C24.5079365,96.8171481 24.6308386,96.9372158 24.7797058,97.0182184 C24.6291075,97.604769 24.4779323,98.1924686 24.326757,98.7795938 C23.7762943,100.44503 22.2524243,99.1892026 21.3384485,99.765987 C19.8151555,99.8337764 18.2912855,99.9015658 16.7674154,99.9687807 C16.7679924,99.9693552 16.7679924,99.9693552 16.7679924,99.9693552 C16.7679924,99.9693552 16.7679924,99.9693552 16.7679924,99.9693552 C16.5562316,99.9515461 16.3450478,99.9343115 16.133287,99.9165024" id="Fill-7"></path>
                <path d="M52.489675,168.400743 C52.495445,168.312272 52.5046771,168.225525 52.5231412,168.142799 L52.5237182,168.142799 L52.5237182,168.142799 L52.5242952,168.142799 L52.5242952,168.138203 C52.5237182,168.138777 52.5237182,168.139926 52.5237182,168.140501 L52.5237182,168.137628 C52.5237182,168.138203 52.5237182,168.138203 52.5242952,168.138203 C52.5883428,168.193928 52.6339262,168.254249 52.6829716,168.313996 C52.6183471,168.34272 52.5537225,168.371444 52.489675,168.400743 L52.489675,168.400743 Z M51.6449397,154.255738 C51.671482,154.054093 51.7464926,153.885194 51.9519064,153.803617 C51.8497765,153.954707 51.7470696,154.105223 51.6449397,154.255738 L51.6449397,154.255738 Z M49.6133054,147.490011 C49.6104204,147.509544 49.6092664,147.528502 49.6069583,147.548035 C49.5896482,147.538268 49.5723381,147.527353 49.5556049,147.518736 L49.6133054,147.490011 C49.6133054,147.490011 49.6133054,147.490011 49.6133054,147.490011 Z M30.6915829,151.818767 C29.4844886,152.146224 28.6714887,151.390774 27.7990572,150.807096 C28.1325661,150.229737 28.1689174,149.589759 28.2191168,148.952654 C28.2998975,148.711944 28.3777931,148.470085 28.4620359,148.231673 C28.4689599,148.182842 28.4631899,148.134585 28.4660749,148.086328 C28.5820529,148.060476 28.6980309,148.034625 28.8145859,148.015667 C29.0038435,147.896748 29.0401948,147.750828 28.9045986,147.573312 C29.0569279,147.636505 29.2219513,147.611228 29.4025539,147.473926 C29.7072125,146.969527 30.1555453,146.908057 30.6229193,146.905759 C30.6206113,146.930462 30.6131102,146.954016 30.6113792,146.979293 C30.7538994,148.616579 29.9397455,150.335443 30.9714303,151.892301 C30.8831485,151.857832 30.7919818,151.82681 30.6915829,151.818767 L30.6915829,151.818767 Z M23.1247403,149.854598 C23.0976211,149.851725 23.0699248,149.848853 23.0422286,149.84598 C23.0658858,149.835065 23.090697,149.830469 23.1132002,149.814384 C23.1172392,149.827597 23.1207013,149.84081 23.1241633,149.854023 C23.1241633,149.854023 23.1247403,149.854598 23.1247403,149.854598 Z M14.4500483,125.676761 C14.5942995,125.541183 14.7039304,125.380326 14.7962512,125.208555 C15.2197728,125.217172 15.5630908,124.966696 15.9081397,124.721965 C17.0904228,123.533927 18.5652474,124.528938 19.8612005,124.192863 C19.9991046,124.114733 20.1041195,124.009027 20.1918243,123.88896 C20.1906703,123.909067 20.1900933,123.929174 20.1895163,123.949855 L20.1895163,123.949281 C20.4947519,125.237854 19.9085149,126.622366 20.5455283,127.875321 C20.4422444,128.068348 20.3655028,128.270568 20.3112643,128.481979 C20.1439329,128.545747 20.0089137,128.667538 19.8958207,128.828969 C19.0770508,128.278036 18.1117215,128.431424 17.1873596,128.394657 C16.6051617,128.388337 16.0529679,128.562407 15.4909651,128.673857 C14.4483172,127.886811 15.5688608,126.402338 14.4985167,125.623334 C14.4910156,125.658378 14.4858226,125.692847 14.4783215,125.727316 C14.4633194,125.71238 14.4477402,125.698017 14.4327381,125.683081 C14.4385082,125.680208 14.4442782,125.679634 14.4500483,125.676761 L14.4500483,125.676761 Z M19.6234744,137.061359 C17.9230409,137.055614 16.2197224,136.72988 14.5169808,137.038954 C14.5158268,137.030911 14.5152498,137.022294 14.5135188,137.013677 C15.358831,135.934217 15.2693953,134.865098 14.5014017,133.802298 C14.6271888,133.860895 14.767978,133.885024 14.9272313,133.867789 C16.1447117,132.687794 17.3102617,131.346368 19.2518832,132.60277 C19.5023034,133.201959 19.4463339,133.837916 19.4642211,134.464106 C19.4821082,135.293664 19.4324858,136.130691 19.6759819,136.94244 C19.6990621,136.99357 19.7284893,137.040678 19.7538775,137.090083 C19.7100252,137.081466 19.6673268,137.067679 19.6234744,137.061359 L19.6234744,137.061359 Z M13.132169,128.018943 C13.1771754,127.999985 13.2181427,127.989069 13.2660342,127.964941 C13.2723812,127.988495 13.2781513,128.012049 13.2844983,128.036177 C13.2285288,128.035603 13.1800604,128.028134 13.132169,128.018943 L13.132169,128.018943 Z M8.73943052,129.848107 C8.74231554,129.797553 8.74520057,129.746998 8.74750859,129.696443 C8.88829779,129.740679 8.99388969,129.796978 9.08621048,129.857874 C8.98177259,129.847533 8.8663716,129.844086 8.73943052,129.848107 L8.73943052,129.848107 Z M25.9336003,129.71655 C25.9434094,129.702762 25.9532184,129.688975 25.9624505,129.675187 L25.9624505,129.6884 C25.9624505,129.6884 25.9336003,129.71655 25.9336003,129.71655 C25.9341773,129.733785 25.9341773,129.751594 25.9341773,129.768828 C25.9110971,129.764232 25.8874399,129.758488 25.8643597,129.754466 C25.8897479,129.742976 25.9076351,129.72804 25.9336003,129.71655 L25.9336003,129.71655 Z M25.9676436,128.554364 L25.9676436,128.554939 C25.9676436,128.554939 25.9676436,128.554939 25.9676436,128.554364 L25.9676436,128.554939 C25.9676436,128.554939 25.9739906,128.550917 25.9762986,128.549194 C25.9768757,128.549194 25.9774527,128.548619 25.9780297,128.548619 L25.9762986,128.671559 C25.9503334,128.644558 25.9307153,128.614685 25.89898,128.591706 C25.9226372,128.579641 25.9434094,128.565854 25.9676436,128.554364 L25.9676436,128.554364 Z M27.5982595,123.856788 C27.6040295,123.882066 27.6092226,123.907918 27.6144156,123.93377 C27.5867194,123.932046 27.5630622,123.93377 27.537097,123.933195 C27.5584462,123.907918 27.5746023,123.880917 27.5982595,123.856788 L27.5982595,123.856788 Z M42.6863613,136.028433 C41.5110022,135.448776 40.7008873,135.508522 40.7499327,137.067104 L40.7228135,137.053891 C40.3489143,136.583386 39.9109676,136.280058 39.3045354,136.421956 C39.2676071,136.097371 39.2312558,135.771637 39.1949045,135.446478 C38.7159904,134.659431 39.4020492,133.662123 38.9450613,132.870481 C39.0016078,132.756732 39.0477682,132.637239 39.0748875,132.507405 C39.0893126,132.196034 39.027573,131.919706 38.8642807,131.688188 C39.2999194,131.671527 39.6951677,131.499181 40.0829151,131.296962 C40.1342685,131.258472 40.189084,131.234918 40.2415914,131.202172 C40.2739037,131.221705 40.3033309,131.242961 40.3379512,131.260195 C41.1913415,131.513544 42.0026104,131.539396 42.6857843,130.844267 C42.9010071,130.846565 43.1162299,130.849437 43.3314528,130.85231 C43.3885763,131.049359 43.4445457,131.247556 43.5189794,131.43886 C43.8709524,132.946313 43.4814741,134.52098 43.9309609,136.019241 C43.9534641,136.076115 43.9909694,136.121499 44.0192427,136.173778 C43.5749489,136.310505 43.1306551,136.354741 42.6863613,136.028433 L42.6863613,136.028433 Z M42.066658,122.749179 C42.1780199,122.800882 42.2928439,122.847416 42.4122839,122.886481 C43.8646053,123.262769 43.9621192,124.292249 43.823061,125.549225 C43.7290092,126.399465 43.2829844,127.343347 43.8946096,128.121776 C43.7642065,128.227481 43.6372654,128.337783 43.5230184,128.460723 C43.5028232,128.483702 43.4895521,128.507256 43.471088,128.530236 C39.5168732,128.592855 39.6605474,128.465893 39.4412856,124.575471 C39.3108825,122.254546 40.9888128,122.954845 42.066658,122.749179 L42.066658,122.749179 Z M53.5086657,164.994613 C53.314792,164.715987 53.0505237,164.587302 52.7106678,164.610856 C52.6621994,164.636708 52.6264251,164.670603 52.5831498,164.700476 C52.5854578,164.685539 52.5871888,164.671752 52.5889198,164.65739 L52.4654407,164.725179 C52.3679269,163.550929 52.9137736,162.288208 51.9876807,161.22828 C51.9946047,160.676199 52.0009518,160.124117 52.0072988,159.571461 C52.0569213,159.530098 52.1059667,159.486437 52.1515501,159.436457 C52.9328147,158.75052 52.6841256,158.035859 52.2086736,157.313729 C52.1088517,157.264898 52.022301,157.206301 51.9432513,157.141958 C51.9461363,156.029178 51.9490213,154.916398 51.9519064,153.803617 C51.9420973,153.421009 51.9322882,153.038401 51.9230561,152.656368 C51.7061023,144.423977 51.4897254,136.191587 51.2727716,127.959196 L51.2727716,127.959196 C51.2756566,127.769616 51.2779646,127.580035 51.2808496,127.390455 L51.2808496,127.38988 C51.4614522,126.834352 51.6420547,126.278823 51.8226573,125.723295 C50.9958092,124.693815 52.4539006,123.851618 52.0592293,122.857757 L52.2779141,122.861778 L52.4850589,122.789967 C52.613731,121.428434 53.549056,119.578013 50.7655842,119.982452 L50.2197376,119.288472 C49.9993217,118.966185 49.8152571,118.607706 49.4101997,118.466957 C49.4021216,118.465233 49.3946205,118.465233 49.3865425,118.46351 C48.8481969,117.465052 47.9099869,117.13817 46.7721332,117.144957 L46.5407542,117.311664 L46.5996087,117.400135 C46.5534483,117.376007 46.5055569,117.354176 46.4513184,117.338665 C45.230376,117.191597 44.8351276,118.409508 43.9667352,118.844969 C42.2599546,119.40854 40.4920115,119.37522 38.7246455,119.353964 C37.9485738,119.150596 37.2019295,118.799584 36.3670033,118.886906 C35.6936386,118.99491 35.1195187,119.275834 34.684457,119.799765 C34.6267565,119.699805 34.569633,119.598695 34.5119325,119.499309 C34.5038544,119.492989 34.4963534,119.488394 34.4882753,119.482649 C33.7635571,118.215332 33.0226828,118.358379 32.2662293,119.856639 C32.2668063,119.860086 32.2673833,119.864682 32.2685374,119.868704 C32.2004508,119.83883 32.1294792,119.814127 32.0527375,119.798042 C31.4520754,120.099073 31.2680108,120.498341 31.755003,121.055018 C31.16992,121.786339 31.8530938,122.57396 31.6534501,123.322516 C32.1462123,124.789754 31.5397801,126.398316 32.1727545,127.847746 C32.1531364,128.08903 32.1410193,128.332038 32.1375572,128.576195 C32.1392883,129.105297 32.1398653,129.634399 32.113323,130.160628 C29.9576326,132.430424 31.0054736,134.641048 32.109861,136.851672 C32.10813,136.983229 32.106399,137.114786 32.104091,137.246344 C32.0660086,137.284834 32.0267723,137.320453 31.992152,137.371007 C31.404761,138.608451 31.4647695,139.854512 31.9396445,141.105169 C32.4843372,141.99907 33.3025302,142.342038 34.3209439,142.285164 C35.7028707,141.97724 36.7253234,141.224662 37.3092524,139.922302 C37.6352602,139.41503 37.9612679,138.907759 38.2866987,138.399913 L38.2878527,138.399913 L38.4834574,138.405083 L38.6548279,138.312016 C40.54048,138.341315 42.4261321,138.371188 44.3117842,138.400487 L44.3117842,138.400487 L44.3117842,138.400487 C44.3117842,138.400487 44.3325563,138.382678 44.3533285,138.365443 C44.3013981,138.667049 44.4035279,138.927291 44.6025946,139.161682 C44.2685088,139.508097 44.0659801,139.929195 43.9776983,140.413488 C43.9159588,140.85814 43.9349999,141.300495 44.0388608,141.737679 C44.1271426,142.204162 43.9880844,142.682709 44.0319368,143.131957 C44.3302483,146.156628 43.6568836,149.283558 44.7953143,152.220333 C43.5564847,151.729721 42.5276849,150.808245 41.2080747,150.491703 C39.8151848,150.337741 39.1822104,151.208088 38.672715,152.241014 C38.1436015,152.029029 37.5942928,152.142203 37.033444,152.431169 C37.0207499,152.443233 37.0109408,152.457021 36.9982467,152.46966 C37.0213269,150.726094 35.740953,148.728604 38.0218535,147.426243 C38.0224305,147.426243 38.0206995,147.440031 38.0206995,147.440031 C38.5832793,146.929887 39.5509165,147.587674 40.0015574,146.759839 C40.0050194,146.600132 39.9738611,146.458808 39.9086596,146.335868 C41.3055885,146.204311 42.0106885,145.56778 41.5023472,144.044816 C41.3217446,143.855236 41.1411421,143.665655 40.9611166,143.476649 C39.8723083,142.638473 38.7402246,141.978389 37.2977123,142.601706 C36.2296762,143.405987 34.6769559,143.562248 34.0445585,144.944462 C33.5627594,144.375146 32.8905487,144.743392 32.3129667,144.647453 C32.1496743,144.439488 31.9482996,144.278058 31.7088426,144.165458 C31.055673,143.983346 30.4088505,143.999432 29.769529,144.227503 C29.6004666,144.313676 29.4706405,144.438339 29.3610095,144.582536 C29.0171146,144.670432 28.6980309,144.815203 28.4176065,145.051891 C28.3812552,145.132319 28.3668301,145.197811 28.3454809,145.269047 C28.3206697,145.244918 28.2958584,145.221364 28.2710472,145.197236 C28.2710472,145.197236 28.2929734,145.162767 28.2929734,145.162767 C27.4978606,144.180395 26.4661758,144.509576 25.4673803,144.656644 C25.4056408,144.833012 25.3814066,145.0134 25.3941007,145.19896 C24.6532264,145.173682 23.912929,145.14783 23.1720547,145.121978 C22.0440101,143.915557 20.6995886,145.116808 19.4659521,144.787627 C17.3194938,144.215439 16.5197649,145.196662 16.8630829,147.280898 C17.7568635,148.773414 19.4013275,147.891003 20.5957277,148.439638 C21.0515616,148.690114 21.5518249,148.860736 21.9672684,149.185321 C22.154218,149.388115 22.3411676,149.590908 22.5281172,149.793702 L22.5286942,149.793702 L22.5281172,149.793702 C22.505614,150.340613 22.4836878,150.886375 22.4611846,151.432712 C21.8743706,152.002602 21.2881336,152.571918 20.7018966,153.141235 C19.2097619,152.689688 17.7158961,152.145075 16.2560737,153.165363 C16.2289544,153.130319 16.2001042,153.102169 16.174139,153.064828 C16.0125776,152.994166 15.8550553,152.961995 15.7009949,152.957973 C15.6513725,152.466787 15.5302015,151.996283 15.234198,151.572887 C15.1337991,151.475798 15.0235912,151.404562 14.9070362,151.349411 C14.8949191,150.635899 14.882802,149.922961 14.8706849,149.209449 L14.8706849,149.209449 C14.8966501,147.685337 14.9220383,146.161224 14.9480035,144.637112 C14.767401,143.824788 14.7062385,143.012464 14.9376174,142.198417 L14.4737055,141.225237 C14.9110752,139.908514 15.6404094,139.248429 17.2098628,139.463287 C18.8225916,139.68389 20.4110861,139.662059 20.7803693,141.718146 C20.8363388,141.880151 20.864035,142.046752 20.866343,142.217949 C21.4064196,142.243801 21.9464962,142.269079 22.4865729,142.294356 C22.5235012,142.141543 22.5748546,141.9939 22.6400562,141.851427 L22.8622031,141.894514 L23.0699248,141.804319 C24.4593527,142.551152 24.5107061,140.881694 25.315051,140.57262 C25.8862859,139.803957 26.4569437,139.03472 27.0281786,138.266057 L27.077224,138.236758 C27.2607116,138.248823 27.4315051,138.208609 27.5901814,138.115542 C27.5076697,137.321027 27.7834781,136.631069 28.2145008,135.985921 C28.71361,135.552183 28.1781494,135.206917 28.1141019,134.821437 C26.8250729,132.214417 27.4799735,129.499394 27.6663461,126.810223 C28.2577761,126.230566 28.3841402,125.526246 28.2231558,124.742647 C28.1925746,124.578918 28.1354511,124.427828 28.0627485,124.284206 C28.3218237,123.97858 28.5808989,123.672378 28.8399741,123.366752 C28.9923034,122.620494 29.1452097,121.874236 29.297539,121.127403 C28.828434,120.724688 28.359329,120.321399 27.889647,119.918109 C27.301679,119.484372 26.6969778,119.08453 26.0057259,118.861629 C25.9803377,118.819117 25.9520644,118.777754 25.9272532,118.734093 C25.7599218,118.542214 25.5591241,118.396869 25.3219751,118.302654 C23.6596239,117.116914 22.4934969,118.186033 21.3100598,119.177022 C21.093106,119.418306 20.8761521,119.659591 20.6591983,119.900875 C20.741133,120.080115 20.740556,120.259354 20.6568902,120.43802 L20.6563132,120.43802 C20.0325709,120.976888 19.2593843,121.0757 18.4833127,121.165319 C17.7297443,120.983782 16.9813689,120.921737 16.2491496,121.202087 C16.2226074,121.099828 16.1960652,120.997569 16.1695229,120.895885 L13.5424195,121.030315 C13.5429965,120.995271 13.5533826,120.961951 13.5510746,120.926333 C13.3393138,120.19099 12.7530768,119.839405 12.1102933,119.549289 C11.0636064,119.237917 9.98922319,119.106935 8.90676195,119.030528 C8.6315306,119.076487 8.39668959,119.195405 8.20916299,119.402221 C7.80237452,123.135808 7.83930284,126.854459 8.38053346,130.556449 C8.34302814,131.056252 8.34014311,131.552034 8.6194135,132.023688 C8.61825949,135.634335 8.61768248,139.244408 8.61652847,142.85448 C8.61710548,142.906184 8.61768248,142.957888 8.61825949,143.009592 C7.03668899,142.839544 7.61484792,144.298739 7.30499628,145.08636 C7.25479685,146.462255 7.33903957,147.838725 7.22998564,149.211747 C7.18844128,149.72936 7.19594235,150.246972 7.25479685,150.76401 C7.26979898,154.769329 7.30211125,158.775797 7.24498776,162.78284 C7.25537385,164.111627 7.23921771,165.438117 7.2496038,166.766904 C7.30961232,168.606409 7.94777976,170.402828 7.65235324,172.266462 C7.42212828,172.475001 7.272684,172.728924 7.20632843,173.032253 C7.20921346,173.182194 7.20979046,173.329262 7.21498351,173.47748 C7.68178049,174.670688 7.96220489,176.059796 9.76188325,175.80415 C10.1663637,175.503119 10.5368009,175.180832 10.5062196,174.610942 C11.0468732,174.258207 11.5869498,173.905472 12.1276034,173.553312 C14.1246175,172.946654 15.1032178,171.156555 15.1805365,169.525013 C15.352484,165.909196 16.3074271,162.273845 15.3495989,158.636197 C15.2578552,158.485682 15.1407232,158.378827 15.002242,158.306442 C15.0287842,157.401626 15.0553264,156.496235 15.0812917,155.591419 C15.2526621,155.582802 15.4240326,155.57878 15.59598,155.578206 C15.8942916,155.951622 16.1625989,156.369274 16.7303717,156.350316 C17.3016066,156.293442 17.8641864,156.173374 18.4411913,156.172799 C18.7671991,156.172799 19.0914759,156.180842 19.4180607,156.1998 C19.7267583,156.252079 20.0204538,156.3394 20.2454857,156.574365 C20.4935978,157.741722 19.6690578,159.145767 20.864035,160.120096 C20.8473019,160.129862 20.8346078,160.140777 20.8167206,160.150544 C20.7659442,160.874396 20.7151677,161.598249 20.6643913,162.322102 C19.4919173,163.196471 19.9142849,164.668305 19.3603602,165.774191 C19.3597832,165.774191 19.3597832,165.774766 19.3597832,165.774766 C18.8826001,166.082116 19.1457143,166.345805 19.3182388,166.615239 C19.1584085,166.700838 19.0060792,166.796777 18.868752,166.918568 C18.8283616,166.968549 18.7931643,167.021976 18.756813,167.074829 C18.6973815,167.08402 18.63795,167.092638 18.5790955,167.120787 C18.4821587,167.380455 18.3846448,167.639549 18.287131,167.898642 C18.1232616,168.189332 17.937466,168.463362 17.6495406,168.66673 C17.468361,168.819544 17.2923745,168.979251 17.1313902,169.15332 C16.8290396,169.515821 16.5774654,169.913366 16.3103121,170.299995 C15.8458232,170.976166 15.3438289,171.630506 15.0524414,172.40951 C15.0374393,172.52613 15.0212831,172.642177 15.005127,172.758223 C15.0195521,172.938037 15.00455,173.114979 14.9606976,173.289623 L14.9606976,173.290197 L14.9606976,173.289623 C14.3317623,173.430372 13.5476126,173.556184 13.4968361,174.28808 C13.4333656,175.200939 14.4760135,175.204961 15.005127,175.642145 L15.2480461,175.578377 L15.4984662,175.584696 C15.9104477,175.21645 16.3224292,174.848204 16.7344108,174.479384 C16.9438635,174.292102 16.9888699,174.077244 16.8405797,173.831363 C16.8255775,173.815278 16.8099984,173.803788 16.7949963,173.79 C17.7482084,173.157491 18.0320948,171.53629 19.6430926,171.875812 C20.5045609,170.567132 21.0867589,169.046466 22.4929199,168.150267 C23.3497722,167.602207 23.9971718,166.886397 24.3110624,165.903451 C24.4593527,165.874726 24.608797,165.854619 24.7593953,165.84313 C24.9821192,165.114681 25.2054201,164.385658 25.428144,163.656634 C25.428144,163.656634 25.428721,163.65606 25.428721,163.655485 C26.5573426,162.045774 26.3092305,159.877088 27.6069146,158.335741 C27.190317,156.117074 27.8786839,154.877907 30.1613154,155.053125 C30.2951805,157.286154 29.8422316,159.55595 30.6442685,161.736701 C31.2980151,162.7725 30.819678,163.912855 30.9558511,164.990017 C31.3072471,167.768808 30.6096482,170.642389 31.7203827,173.349369 L31.7203827,173.349369 C31.7296148,173.52229 31.7907773,173.675103 31.9021392,173.80781 C32.2125679,173.812405 32.5229965,173.817576 32.8328482,173.822172 C34.2476642,173.648677 34.2309311,171.784468 35.5741986,171.5248 C35.9896421,170.677433 36.4633632,169.847875 36.4241268,168.856885 C36.9197741,168.552982 36.9947847,168.184736 36.8286073,167.780872 C36.9843986,167.797532 37.1713482,167.773979 37.3940721,167.702168 C37.7656633,167.394817 37.8031686,166.935228 37.9231856,166.515279 C38.0616668,162.871311 37.1886584,159.26009 37.5360153,155.606356 L38.6513658,155.546035 L40.4106539,155.528226 C40.9345743,155.678741 41.4758049,155.813171 41.9235608,156.032625 C42.7504088,156.217609 43.5778339,156.879992 44.3919878,156.002751 C45.0082291,155.623016 45.0082291,155.623016 45.5673469,156.678922 C45.1270921,159.16415 45.5379196,161.637889 45.6769778,164.115649 C45.6775548,164.115074 45.6775548,164.1145 45.6775548,164.113925 C45.6775548,164.1145 45.6775548,164.115074 45.6775548,164.115074 C45.6354334,164.314421 45.5933121,164.513768 45.5517677,164.713689 C45.5165704,168.745435 45.4536769,172.777181 45.4721411,176.808927 C45.4756031,177.504055 45.2990396,178.777692 46.7998294,178.023966 L46.7992524,178.022817 C46.7992524,178.022817 46.7998294,178.023391 46.7998294,178.023966 C47.5101224,177.786703 48.2209925,177.550014 48.9312856,177.313326 C49.2220961,176.977251 49.5134835,176.641177 49.804294,176.305677 C50.5440143,176.158034 50.9946552,175.663975 51.3391271,175.041806 C52.9045415,173.911217 52.7095138,172.094691 53.1197643,170.513704 C53.2917118,170.503938 53.4590432,170.472341 53.6234896,170.421212 L53.6229126,170.451085 C53.8935279,168.625942 54.6476734,166.790458 53.5086657,164.994613 L53.5086657,164.994613 Z" id="Fill-9"></path>
            </g>
        </g>
    </g>
</svg>