<?xml version="1.0" encoding="UTF-8"?>
<svg width="64px" height="252px" viewBox="0 0 64 252" version="1.1" xmlns="http://www.w3.org/2000/svg" xmlns:xlink="http://www.w3.org/1999/xlink">
    <title>编组</title>
    <defs>
        <polygon id="path-1" points="0 0 56.0335309 0 56.0335309 36.938734 0 36.938734"></polygon>
    </defs>
    <g id="home" stroke="none" stroke-width="1" fill="none" fill-rule="evenodd">
        <g id="home备份" transform="translate(-703.000000, -328.000000)">
            <g id="编组" transform="translate(703.000000, 328.000000)">
                <path d="M23.0432939,136.264097 C23.0405672,136.251142 23.0385221,136.238186 23.0357953,136.224548 C23.0248882,136.230003 23.0126177,136.235458 23.0010289,136.240913 C23.0160262,136.249778 23.0289784,136.255915 23.0432939,136.264097" id="Fill-1" fill="#111111"></path>
                <path d="M18.170956,153.625322 C18.0168932,152.133374 19.0108027,151.600145 20.0156193,151.372398 C21.2535752,151.091464 21.2188088,152.34271 21.5617007,152.963219 C21.2822063,154.364478 20.5780167,155.190232 19.3155198,155.238646 C18.288889,155.278876 18.2609396,154.496762 18.170956,153.625322 M13.7767581,176.29299 C15.2423996,174.779221 16.3419717,172.63676 18.8219735,172.196267 C19.203722,174.187351 18.6188288,176.170934 19.5663831,177.968364 C19.8049759,178.421813 19.6079664,179.119374 20.4219088,179.182788 C21.258347,179.248249 21.4798975,178.757297 21.8186993,178.074737 C22.843285,176.008647 22.0232074,173.804135 22.4765338,171.71418 C22.4588097,171.648719 22.4472209,171.586668 22.431542,171.52189 C21.7682539,168.78756 22.7860227,167.207649 25.7261679,166.864664 C26.9000445,166.727606 28.060969,166.483494 29.2259836,166.269385 C29.3745928,166.242791 29.5218387,166.214152 29.6704479,166.188241 C31.0924611,162.592699 30.2976062,161.609431 26.1481363,161.403504 C25.3103347,161.361909 23.6163257,162.536103 23.5808776,160.578431 C23.5536099,159.145124 25.024705,159.533113 25.9715776,159.472426 C27.9628051,159.345596 30.930218,159.469016 30.9240827,157.289052 C30.9179475,155.153411 28.0091603,154.738147 25.8447826,154.613364 C25.8270586,154.612682 25.8100162,154.605863 25.7929739,154.604499 C25.6055081,154.44153 25.4425833,154.284017 25.2987459,154.130594 C26.2197142,150.936678 26.2844751,150.835078 29.4768469,149.947273 C32.2452052,149.178115 30.7100309,148.22144 29.7072594,147.22658 C29.5750108,147.166575 29.4434439,147.112707 29.3125587,147.056111 C27.3881373,146.22422 25.4296311,145.757133 23.2427575,145.736677 C18.8390159,145.695082 14.4938999,146.273997 10.1181077,146.479924 C8.57475305,146.552885 7.54539548,146.959284 7.35588461,148.736258 C7.15683004,150.597103 8.05462071,151.510819 9.68659556,151.835393 C10.5612086,152.009272 11.4964925,152.000407 12.3908747,151.924037 C14.3677866,151.754931 13.9758127,153.237334 14.3152961,154.372661 C14.8770118,156.25328 13.4154604,155.796422 12.6158336,155.944389 C11.7364487,156.107358 10.8004832,156.112131 9.90678264,156.020078 C8.13574227,155.837334 7.70968367,157.274051 7.5869788,158.343918 C7.47654441,159.304684 7.96736391,160.540928 9.38869539,160.76663 C11.2374488,161.060519 13.0050807,161.860362 14.974494,161.076884 C15.9247751,160.698442 17.095925,160.45092 18.4654477,161.556926 C18.4688562,161.663299 18.4620392,161.760808 18.4484054,161.852179 C14.7618056,162.315856 11.5769323,162.653386 8.42273534,163.158657 C7.10024946,163.371403 5.83502585,163.82758 5.99249711,165.751839 C6.12133723,167.333796 6.65305836,168.046358 8.25912884,168.544129 C10.453501,169.22328 12.3820127,167.70201 14.4475447,168.255695 C15.0576606,168.419346 15.7420812,167.439487 16.1879089,168.298653 C16.6064688,169.103951 16.1606411,169.81174 15.5184856,170.377699 C13.6956365,171.984885 11.6007916,172.942924 9.15419274,173.071799 C6.86915527,173.191809 5.17923646,174.236446 3.76063176,176.06797 C2.59425375,177.573556 1.83212013,179.100281 3.19141748,180.596321 C4.3564321,181.878934 6.21268419,181.676416 7.53585177,180.798157 C9.66409966,179.385306 11.9375483,178.19202 13.7767581,176.29299" id="Fill-3" fill="#111111"></path>
                <path d="M46.8639914,153.382301 C44.4303447,153.373437 41.9435259,153.829613 38.7020721,152.779521 C43.5046046,151.500318 47.541595,152.346529 51.508371,152.036274 C54.4546514,151.805799 57.6286175,151.474407 57.5536312,148.233441 C57.4779632,144.963155 54.0551788,145.267272 51.423841,145.083847 C47.2791429,144.796095 42.9578862,146.214401 39.0204231,144.393105 C36.5179254,143.235958 35.316781,144.558119 34.3712717,146.146213 C33.2158008,148.088883 32.8040578,150.274302 33.6207269,152.635645 C34.2342513,154.407164 35.4960664,156.027306 35.1947578,158.071576 C36.1968476,160.559066 36.6774417,163.055421 35.3017837,165.577006 C33.858638,167.40853 32.0160198,169.152092 33.9322609,171.733681 C34.9016295,171.735045 35.8778149,171.763002 36.6938023,171.096807 C38.5855025,168.40339 40.2965538,165.661559 40.0804569,162.145114 C40.015696,161.089567 39.755289,159.566934 41.4206668,159.549887 C42.976292,159.533522 44.9688828,158.457518 45.9996038,160.473831 C46.7440133,161.927595 47.632942,163.347265 47.5845417,165.181516 C47.4611552,169.821014 47.6677084,174.472785 47.4625186,179.106827 C47.3895773,180.740607 47.4884229,182.023219 49.2485562,181.951622 C50.7912292,181.889571 52.6120332,181.018131 52.11167,179.101372 C51.1688875,175.490829 51.4797398,171.784822 51.1682058,168.171551 C50.5308221,160.758856 50.0243237,158.513432 56.3961152,159.551251 C57.5331804,159.517839 58.6709273,159.484427 59.8079924,159.451696 C60.2197355,158.922559 60.7398678,158.445927 61.0234524,157.85542 C62.6956472,154.362842 62.1836952,153.428669 58.2946323,153.327069 C54.4873727,153.227515 50.6739778,153.396621 46.8639914,153.382301" id="Fill-5" fill="#111111"></path>
                <path d="M11.2441294,144.463952 C17.3848268,145.03332 23.4641717,144.952176 29.4187666,143.250209 C29.7705206,143.149973 30.1209112,143.046328 30.4713018,142.9345 C31.2797905,139.999015 28.6634499,139.891279 27.1371376,138.883463 C27.0778303,138.873917 27.0178412,138.86437 26.9578522,138.854142 C25.6496818,138.640033 24.3421932,138.426605 23.0340229,138.212495 L22.5145723,138.220678 C21.2377599,138.241816 19.9616292,138.262954 18.6854985,138.284092 C18.5518865,138.286138 18.4175928,138.288184 18.2832991,138.290229 C17.4468609,138.837095 16.5442984,139.081889 15.5469804,138.881417 C14.973676,138.886872 14.4003715,138.892327 13.8270671,138.897782 C12.9817668,138.905965 12.1371483,138.913466 11.291848,138.921648 C11.1275598,138.923012 10.9625899,138.925058 10.7983017,138.926421 C6.96377437,139.989469 5.92623648,141.192983 7.3639286,143.029281 C8.30125751,144.226658 9.79212175,144.329622 11.2441294,144.463952" id="Fill-7" fill="#111111"></path>
                <path d="M29.832282,171.077851 C29.6011879,170.730775 29.286927,170.41302 29.1533151,170.032532 C29.1321825,169.972527 29.1069599,169.924796 29.084464,169.867518 C28.530247,168.440347 27.6651776,168.02372 26.1013721,168.710371 C24.3057908,169.499986 25.4776223,170.473025 25.7475731,171.416744 C26.1122792,172.697311 26.8062435,173.793771 27.6099604,174.827498 C27.6829016,174.921597 27.7503893,175.01706 27.8246939,175.109795 C28.8165583,174.90455 29.6816277,176.597653 30.7852899,175.240034 C31.7430696,174.063795 30.8255098,173.188263 30.4553501,172.219997 C30.301969,171.818371 30.0436071,171.457657 29.832282,171.077851" id="Fill-9" fill="#111111"></path>
                <g transform="translate(0.000000, 0.000000)">
                    <mask id="mask-2" fill="white">
                        <use xlink:href="#path-1"></use>
                    </mask>
                    <g id="Clip-12"></g>
                    <path d="M21.0408185,21.5894164 C21.1730671,20.1192876 22.6066691,20.4274964 23.4574229,20.4956842 C24.4758734,20.5768277 26.0362704,19.5287813 26.4596022,21.5532768 C26.6388876,22.4110792 26.9061116,23.2982024 27.3519393,24.0394037 C27.840032,24.8501565 28.1992846,26.5241668 29.1475207,26.11504 C30.3254875,25.6063591 32.0876658,24.166233 31.6629706,22.9620366 C30.8456198,20.6416061 31.3964284,19.96041 32.3596616,19.7660748 C32.5157695,19.7340266 32.6814211,19.7135702 32.8566164,19.7026602 C33.5267213,19.6631113 34.2956719,19.7381178 34.936464,19.6576562 C35.0618957,19.6419731 35.1832372,19.6194711 35.29708,19.5894685 C35.5165854,19.6276536 35.7681304,19.6092429 35.9521877,19.7122065 C37.2494509,20.4404521 36.8220289,21.6603317 36.069439,22.1001429 C34.03731,23.2886561 36.5002695,27.2080903 32.8157147,27.2121816 C30.9199244,27.2142272 29.0241341,27.2776419 27.1290255,27.3130995 C26.9081567,27.2987801 26.6859245,27.2728687 26.4650557,27.2503668 C26.1242089,27.2142272 25.7840437,27.1855884 25.4506954,27.221046 C23.9393804,27.3826511 21.7184221,28.7375425 21.1035344,27.472659 C20.3257218,25.8729734 20.8608514,23.5695898 21.0408185,21.5894164 M2.69848472,22.4697207 C5.96107103,20.7282046 9.49360806,22.7056505 12.7739184,21.7039719 C13.7357883,21.4100825 14.499967,21.0391409 14.8053658,22.3681209 C15.4488847,25.1747304 16.9431574,27.8333724 16.2491932,30.8759116 C15.9240252,32.2989908 15.8906222,33.72207 16.2594186,35.1669693 C16.6159444,36.5634552 18.0277322,37.3401142 18.7257866,36.7264241 C21.0762666,34.6576065 24.0218653,35.8733948 26.4909601,34.8546692 C29.4658716,35.9293088 32.6971,34.6426052 35.5513518,35.537229 C39.1363792,36.6616456 41.5073101,34.9460408 43.584431,32.8178999 C44.6649156,31.7118939 45.398418,29.5823892 45.1768676,28.0788484 C44.9594073,26.5944002 42.8884216,27.2687775 41.5959303,27.2108178 C40.3061657,27.1535401 39.0109476,27.198544 37.2576312,27.198544 C39.1677371,25.0308542 42.1017471,24.590361 42.5128084,22.0149082 C42.9361402,19.3589937 44.7480822,19.1707954 46.4414095,19.7858493 C50.9692194,21.4305388 53.0586108,18.2584428 55.3238791,15.5704801 C56.7963376,13.8221451 55.8658256,12.1338154 53.561019,11.5651292 C52.0715182,11.197597 50.6535952,11.265103 49.1463703,11.354429 C45.347291,11.5787668 44.4706328,10.7325563 45.6049713,7.24338705 C46.7999804,3.56738325 44.523805,2.28067963 42.2360407,0.614170025 C40.4343241,-0.697763071 39.4254174,0.333236327 38.1847347,1.46038051 C36.8472516,2.67753258 36.3489335,3.76990098 37.3292091,5.5502842 C39.9407779,10.2934269 39.4383696,10.8934795 34.0945722,10.8893882 C31.5545813,10.8873426 31.5920745,9.71587635 32.1483366,7.97981519 C32.3167149,7.45545108 32.797309,7.03745992 33.0038622,6.51855083 C33.6351106,4.93523033 32.9697775,3.57965705 31.9383749,2.48728864 C31.0705787,1.5687991 29.7031011,1.66767139 28.7610003,2.18726236 C27.5434953,2.85823022 26.8454409,4.11356745 27.2544571,5.63892833 C27.755502,7.50386441 27.419427,9.21537796 26.4541486,10.8409749 C24.5692654,10.444122 22.8220843,12.2933748 20.8853924,11.2010064 C20.9433363,10.8512031 20.959697,10.5034453 21.0592243,10.1822808 C22.3898905,5.90486072 19.3604434,1.72631289 14.9901048,2.10748264 C13.4958321,2.23703945 11.993379,2.97142195 12.0792725,5.14183934 C12.135853,6.56150914 12.7064307,7.70501839 13.1815713,8.95558248 C13.5830889,10.0124932 14.2225176,11.6694566 12.7037039,12.0738102 C10.3443619,12.7018197 7.74506358,13.6230368 5.39322013,12.6881821 C2.87299832,11.6865035 1.49120509,12.8879724 0.238251967,14.5101599 C-0.564101581,15.5493419 0.834734001,21.3596235 1.82932519,22.0421833 C2.10132099,22.228336 2.53010637,22.5597286 2.69848472,22.4697207" id="Fill-11" fill="#111111" mask="url(#mask-2)"></path>
                </g>
                <path d="M25.4152474,67.685454 C24.5201835,67.4583886 23.6251196,67.2306414 22.7300557,67.0035761 C22.6073508,66.9728916 22.4846459,66.9415252 22.361941,66.9101588 C17.7012008,67.1651811 13.0390973,67.6234031 8.37903877,67.5968098 C5.68293997,67.5824904 4.11572604,68.4989343 3.35086564,70.9898343 C3.4756156,71.2966794 3.64399396,71.5435192 3.83895837,71.7555832 C5.00124622,73.0218305 7.20720721,72.8561342 8.11658667,74.470821 C8.19361807,74.4605929 8.27133116,74.4503647 8.34904424,74.4394547 C10.7036145,74.1251089 13.0745453,73.8312196 15.9362957,74.5506008 C15.9622001,74.5574195 15.9894678,74.5656021 16.0153722,74.5724208 C16.6268515,74.7299346 17.2587816,74.9297249 17.9200245,75.1902022 C13.9409781,74.8328982 10.8740379,75.9989094 7.74983543,75.8379862 C7.40898856,75.8209393 7.06814168,75.7916185 6.72456803,75.7391139 C4.85877223,77.017635 4.7960564,78.3343413 6.77978522,79.4880787 C7.59509095,79.961302 8.58900045,80.1249527 9.50247007,80.4297521 C9.64017221,80.446799 9.77855604,80.4542997 9.91693988,80.4686191 C13.6328525,80.8606989 17.3139988,80.430434 20.9924183,79.9353906 C22.4410175,79.4294372 23.5801278,78.4632162 24.710376,77.4847214 C24.8180836,77.3913041 24.9257912,77.2978868 25.0334989,77.2051515 C24.1936522,74.82267 21.7559153,75.5727357 19.8478545,74.7428903 C25.0437243,74.0705587 26.8570296,72.0876577 26.346441,67.9220656 C26.0355887,67.8422859 25.725418,67.7638699 25.4152474,67.685454" id="Fill-13" fill="#111111"></path>
                <path d="M35.7884449,84.1803533 C37.7339988,83.6989475 38.2841257,80.8991568 40.683006,82.1579035 C41.2944853,82.4790679 41.8091641,83.1964035 41.0443037,84.1162568 C39.4668644,86.0146049 37.8696559,85.5495642 35.7884449,84.1803533 M48.3391086,102.548099 C42.5303961,102.101469 40.4525935,99.2519007 42.9414574,93.8200613 C43.6176976,92.3451594 43.4084176,91.3257519 42.0300329,90.9254896 C40.8704718,90.58796 41.3006206,90.1256468 41.5085371,89.5228667 C42.361336,89.0135039 43.1589177,88.2566195 44.0792043,88.0472829 C46.0717951,87.5958798 47.5047154,86.3746364 47.3451991,84.517201 C47.1570516,82.3263273 45.48213,80.518669 43.3661526,80.0352175 C41.664645,79.647229 40.5146277,78.8337486 39.3925597,77.714787 C39.256221,77.7563816 39.1273809,77.8068405 38.9951323,77.8532082 C34.9083782,79.2796968 32.578349,82.7559104 30.2585451,86.0268787 C28.7199623,88.1959323 29.7288691,89.4144482 32.5231318,89.4614977 C33.586574,89.4799084 34.6493346,89.4649071 35.9275104,89.4649071 C32.9185142,94.3539717 26.2672282,95.3338303 24.8002233,101.605061 C26.2420055,101.26685 27.0198181,100.389273 28.0266798,100.301311 C28.1671087,100.289037 28.3123095,100.291083 28.4643272,100.313585 C28.829715,99.3766844 29.7050098,99.8137681 30.3437569,99.613296 C30.4228333,99.5396532 30.506,99.4701017 30.5857581,99.3971407 C33.4850017,96.7480451 36.8348448,94.6076303 39.398695,91.5794105 C39.7804435,91.7451068 39.9767713,91.9292139 40.0558478,92.1255947 C40.220136,92.5340396 39.8670186,92.9908978 39.5704818,93.4259359 C38.1573307,95.4940716 38.1218826,98.0020185 37.3808815,100.283582 C36.4837725,103.046551 38.8028946,103.716837 40.3442042,104.885576 C40.4798613,104.989221 40.6114282,105.094913 40.7327697,105.207422 C44.885648,107.844244 48.9512695,110.191268 54.2071284,107.687412 C58.1541352,105.806793 60.5816467,102.078285 60.0499255,97.5710717 C59.9694857,96.8871481 60.7036699,95.9570667 59.5004804,95.7743234 C58.6981268,95.6522673 58.5372471,96.5523461 58.214806,97.1258054 C56.0490649,100.981825 53.0898323,102.912903 48.3391086,102.548099" id="Fill-15" fill="#111111"></path>
                <path d="M27.2233719,78.13271 C27.2233719,78.1449838 27.2213268,78.1565757 27.2206451,78.1695314 C27.1906506,79.2053039 25.8620294,80.0378768 26.6023489,81.1493378 C26.6125743,81.165021 26.6193912,81.1807042 26.63098,81.1963874 C27.158611,81.9355431 27.8144004,81.1772948 28.4115641,81.0688762 C31.8991093,79.232579 34.2277752,76.0093422 37.2517687,73.6179963 C37.4951333,73.4250249 37.7344079,73.2259165 37.9879979,73.0452189 C37.5189926,70.3095247 34.8324375,67.6631566 32.4758222,67.6004238 C30.942693,67.5595111 30.0114993,68.0831934 30.5629896,69.7967525 C31.7634523,73.5218516 29.7913122,75.9391087 27.2233719,78.13271" id="Fill-17" fill="#111111"></path>
                <path d="M27.4017711,81.6932037 C27.7262574,81.6441084 28.0691493,81.4429545 28.4113596,81.0686035 C28.0350646,81.1933871 27.7085333,81.42318 27.4017711,81.6932037" id="Fill-19" fill="#111111"></path>
                <path d="M46.5298252,67.0301693 C45.1957505,67.6029467 43.1704384,67.8497865 42.9277554,69.4815204 C42.6543962,71.3144082 41.795462,73.7262104 43.8112305,75.0763286 C45.350495,76.107328 46.3900779,77.5699561 47.810046,78.6384588 C48.6976113,79.3066992 49.1972928,81.2480056 50.6554358,80.2920127 C52.0508629,79.3782963 51.7372837,77.8358885 50.9717417,76.4039449 C49.6213063,73.8796329 47.7023384,71.555793 48.1652085,68.3509668 C48.2981388,67.4358867 47.5619095,66.9674365 46.5298252,67.0301693" id="Fill-21" fill="#111111"></path>
                <path d="M15.9301605,101.734686 C17.0985836,101.707411 18.1102171,101.75787 18.2056542,102.937519 C18.3031364,104.156035 17.1647079,104.413103 16.3548557,104.357189 C15.4557016,104.294456 14.2470586,104.175127 14.2047936,102.772505 C14.1543482,101.138043 15.5013751,102.064715 15.9301605,101.734686 M22.3005886,96.3335315 C22.1267567,96.313757 21.9522431,96.3008013 21.7784112,96.2892094 C18.4653795,96.0560072 15.1448493,97.0467758 11.8004597,96.12965 C10.3402717,95.7287058 9.20866007,96.4808171 9.41521327,98.3716645 C9.47315724,98.9028474 9.43975425,99.4435766 9.39476246,99.9856696 C9.36544963,100.343655 9.33204664,100.702323 9.31636768,101.059627 C9.12753851,104.282182 7.43489292,107.634294 10.1337185,110.610009 C10.2564234,110.615464 10.3784465,110.615464 10.5011514,110.620237 C14.2525121,110.769569 17.9050273,110.344759 21.3618963,108.790759 C21.522776,108.717798 21.6857008,108.657111 21.8465806,108.580059 C22.9154764,105.295453 22.1792471,101.704002 23.6135308,98.4589449 C24.0736741,97.4163536 22.689154,97.0856428 22.3005886,96.3335315" id="Fill-23" fill="#111111"></path>
                <path d="M2.61381836,91.0916632 C2.60563803,91.9890146 2.57837028,92.8904572 2.63426917,93.7843991 C2.85377456,97.2878878 3.60568277,97.7522467 6.71420628,96.3475782 C6.79396445,96.3073474 6.87440432,96.275981 6.95416249,96.2377958 C11.1411255,94.2630774 15.69893,94.6722041 20.1251675,94.2412573 C20.1728861,94.2364842 20.2199229,94.2330748 20.2669598,94.2289835 C22.3134044,93.6589336 24.2016961,92.8563633 25.2630933,90.8332315 C25.2964963,90.0538451 25.0333625,89.5874406 24.6154842,89.2840049 C24.1941975,88.9771598 23.6161212,88.836693 23.0264561,88.7078181 C18.5593169,89.3740128 14.089451,89.9188332 9.59640747,88.9573854 C9.53232826,88.9437478 9.46893074,88.9369291 9.40485153,88.9219277 C8.27187651,89.5894862 6.97734007,89.869738 5.93162186,89.0801234 C2.97034419,86.8422001 2.63699595,88.6464491 2.61381836,91.0916632" id="Fill-25" fill="#111111"></path>
                <path d="M20.73392,81.3456505 C20.0494995,81.314966 19.3664423,81.3040559 18.6833852,81.297919 C16.429024,81.2747352 14.1794346,81.3736075 11.9352987,81.5911265 C11.235881,81.6586324 10.5371449,81.7377303 9.83840876,81.8277382 C9.70479678,81.8441032 9.57118481,81.8550133 9.43757283,81.8727421 C7.47702159,82.1427658 5.20289123,82.0998075 5.09177515,84.8811874 C5.0106536,86.9288668 6.85599859,86.5347414 8.0769121,86.8736347 C8.39458139,86.9486413 8.71293237,87.0250116 9.03128335,87.1007 C13.2577846,88.1153344 17.4842859,89.1231499 21.4790113,86.1999393 C21.5417271,86.1549354 21.6037612,86.1174321 21.6664771,86.0697006 C22.343399,85.162803 23.0203209,84.2559054 23.6979245,83.3483259 C23.569766,83.2562724 23.4422893,83.1649007 23.3141309,83.0728472 C22.5131407,82.4980242 21.7135139,81.9245648 20.9125238,81.3497418 C20.8532164,81.3470142 20.7932274,81.348378 20.73392,81.3456505" id="Fill-27" fill="#111111"></path>
                <path d="M47.6195808,223.943982 C48.1526653,224.059219 48.3414945,224.515395 48.169026,224.942933 C47.5282338,226.537845 46.2650553,226.025073 45.1014041,225.824601 C45.4027127,224.423342 46.1137193,223.618726 47.6195808,223.943982 M43.4380713,217.17498 C44.2588306,217.130658 45.4783807,216.841541 45.4633835,218.251665 C45.4463411,219.772935 44.1279454,218.959454 43.4237557,219.228796 C42.6016331,219.08492 41.3875365,219.60792 41.408669,218.118017 C41.4304832,216.563335 42.6888899,217.216574 43.4380713,217.17498 M61.1811963,226.925152 C59.3828882,227.615894 57.600259,227.442015 55.8339905,227.176765 C52.6532075,226.69945 51.8508539,225.146133 53.655979,222.450669 C54.8850728,220.616418 54.5510429,219.755206 52.6259397,219.370627 C51.8644878,219.217886 50.9101165,219.573826 51.0007818,218.377812 C51.0819034,217.312719 51.835175,216.849724 52.9272484,217.016102 C53.9402453,217.170207 54.9280195,217.219984 55.9151121,216.75017 C57.6595664,215.921006 59.5158185,214.152215 59.3897051,212.906424 C59.2451861,211.480617 56.9178836,210.907158 54.9457436,211.025123 C51.2734593,211.243324 47.665936,210.354837 43.8811723,210.843743 C40.4474808,211.286964 36.6347677,210.857381 33.3592292,209.731601 C31.2057586,208.991763 30.8267369,209.991396 29.9746197,210.983528 C29.9357631,210.954208 29.8948615,210.931706 29.8539599,210.913295 C29.8641853,210.971255 29.8750924,211.021032 29.8846361,211.087856 C29.7748834,211.24196 29.6821731,211.400838 29.5915078,211.561079 C28.4421721,213.733542 30.1784461,215.775766 30.9971603,217.124521 C32.2139837,219.129924 35.0321056,215.861683 37.2162524,217.567741 C36.0785056,219.156517 34.9134909,221.455809 35.7744701,223.109363 C36.8447293,225.165907 39.2327026,223.10459 41.0937265,223.233465 C39.0056985,226.689904 36.8556364,227.72704 31.8349619,226.494887 C29.6140037,225.949385 28.7523428,226.368058 28.5021612,227.532023 C28.395817,228.025703 28.3971803,228.651667 28.4544426,229.399687 C28.8730026,231.619199 28.3167405,235.075639 32.4675737,232.273802 C33.2862879,231.722163 34.6694446,231.797852 35.7608363,231.904224 C41.0487347,232.420406 46.374808,230.795491 51.6374838,232.219934 C51.710425,232.219252 51.7833662,232.219252 51.8569892,232.21857 C56.0630396,232.187204 60.3652089,232.44359 63.3748868,228.864413 C63.5903021,228.60939 63.7989003,228.336639 64,228.040704 C63.7055083,226.060531 62.2487287,226.515343 61.1811963,226.925152" id="Fill-29" fill="#111111"></path>
                <path d="M23.4534009,206.935015 C21.2126735,206.99502 18.9712645,206.774091 16.7346273,207.35437 C14.7447632,207.870551 12.7112707,207.710992 10.8018465,206.799321 C10.7227701,206.800003 10.6436936,206.800685 10.5646171,206.800685 C9.80521027,206.80614 9.04580343,206.810231 8.28639659,206.815004 C8.21004689,206.815686 8.13369719,206.816368 8.05734749,206.816368 C7.36270155,207.298456 6.66737392,207.780543 5.9713646,208.262631 C5.99181541,208.408553 6.02112825,208.544928 6.04703261,208.684031 C6.702822,212.157518 9.34506699,213.655603 13.2913921,212.748024 C13.808116,212.630059 14.3330202,212.550279 14.8545159,212.453453 C17.3099768,213.011911 19.7749814,213.248522 22.2502114,213.140785 C23.3845498,213.091008 24.5202516,212.976453 25.6586802,212.774617 L25.6593619,212.774617 L28.381365,211.089015 C28.4297653,211.059694 28.4768022,211.030373 28.5245207,211.001053 C28.1679949,207.977606 26.2551622,206.859326 23.4534009,206.935015" id="Fill-31" fill="#111111"></path>
                <path d="M26.9271078,215.569703 C26.5283169,214.12003 25.1962873,214.441195 24.0926251,214.420739 C23.3011787,214.406419 22.5104139,214.351869 21.7182858,214.315047 C21.6623869,214.315047 21.6058063,214.315047 21.5492257,214.314366 L15.531915,214.298682 C13.4588843,214.773269 11.0456884,213.747043 9.23170132,215.365139 C9.07627514,215.503561 8.92425743,215.654256 8.77905666,215.834271 C8.81041458,216.055882 8.76474109,216.261127 8.64271791,216.448643 C8.6331742,216.639569 8.63181081,216.823676 8.63726436,217.000283 C8.71293237,219.601647 10.3210479,220.569913 12.9326167,220.540593 C14.4889235,220.524228 16.0472755,220.621736 17.604264,220.668786 C17.6472107,220.660603 17.6901574,220.653784 17.7324224,220.645602 C20.2287849,220.190789 22.7939985,219.952814 25.1056221,218.837262 C26.3735724,218.226299 27.3586199,217.136658 26.9271078,215.569703" id="Fill-33" fill="#111111"></path>
                <path d="M44.0719783,239.662495 C45.4749041,240.066167 46.8791932,240.317098 48.3618771,240.356647 C50.4560403,240.412561 49.3585134,242.163623 49.7041321,243.098478 C49.348288,244.111066 50.1745008,245.402543 48.3673307,245.832808 C45.87574,246.42536 43.518443,247.019958 41.4958576,244.847495 C40.3765165,243.644662 40.7282705,242.370232 41.4065558,241.099212 C41.9805419,240.023208 42.7194979,239.273825 44.0719783,239.662495 M53.5850147,234.651374 C52.7751625,234.461812 51.9373609,234.387487 51.0981959,234.322709 C50.5971509,234.283842 50.096106,234.248384 49.5984696,234.194516 C46.1422823,235.206423 42.7344952,235.764199 39.4330523,232.857353 C37.6381527,237.543218 36.9946338,242.234538 36.589026,247.003592 C36.3661122,249.623367 37.6899614,251.984029 40.0731628,251.600131 C44.0119893,250.963939 47.7838008,252.318149 51.6435509,251.928115 C51.7539852,251.825833 51.8494224,251.724233 51.950313,251.622633 C53.2019028,250.356386 53.7329422,249.09764 53.4364054,246.869944 C53.0471583,243.937188 53.6504573,240.540072 54.8829596,237.826198 C55.9007283,235.587593 55.3758242,235.071411 53.5850147,234.651374" id="Fill-35" fill="#111111"></path>
                <path d="M19.6541853,243.665868 C19.5205733,244.829152 18.7495777,245.206912 17.7747556,245.048717 C16.8565141,244.900749 15.485628,244.976438 15.4392728,243.682915 C15.36974,241.711606 17.0937435,242.894664 17.8626941,242.520313 C18.8443331,242.409167 19.8280172,242.153463 19.6541853,243.665868 M22.7183987,237.014831 C19.3262906,237.364635 15.9048696,237.238487 12.5509364,237.593746 C9.47240738,237.919683 11.7376757,240.989498 10.79762,242.587819 C10.9939478,244.600041 11.2079997,246.615672 11.3770597,248.634031 C11.4261417,249.208172 11.3852401,249.907779 12.1337398,249.86823 C15.401098,249.694351 18.7025408,250.30054 21.9344509,249.509562 C22.8581459,249.283179 23.5207522,248.571298 23.641412,247.583939 C23.9699884,244.898704 24.6959923,242.252335 24.4001372,239.503004 C24.2740238,238.331537 24.1008736,236.872319 22.7183987,237.014831" id="Fill-37" fill="#111111"></path>
                <path d="M25.698832,228.494085 C24.1766098,227.823117 22.6366636,228.372711 21.1001259,228.71365 C20.1621153,228.922304 19.2254681,229.049815 18.2949561,228.763427 C17.6677979,229.784198 16.7052463,229.288473 15.851084,229.31643 C13.6076299,229.388709 11.3444066,229.328022 9.12753851,229.61441 C7.40148993,229.838066 5.6147706,231.142499 5.57932252,232.635811 C5.54114767,234.283228 7.68711961,235.606071 9.18820925,235.357868 C14.0575477,234.555298 19.1961552,235.567886 23.8091769,233.47043 C25.4397883,232.729229 28.5394498,232.078035 26.3948413,228.882755 C26.1637471,228.717741 25.9312895,228.596367 25.698832,228.494085" id="Fill-39" fill="#111111"></path>
                <path d="M22.1585918,221.311728 C20.5879694,221.27968 19.05075,222.083614 17.4174117,221.914509 C17.2538052,221.89678 17.0888353,221.881778 16.9231838,221.842911 C15.3955081,222.040656 13.8678324,222.391141 12.339475,222.397278 C10.5302597,222.404779 10.1737339,223.361453 10.0919307,224.87795 C9.99649354,226.635149 11.2951201,227.732973 12.4301402,227.531137 C15.5141228,226.983589 18.6921791,227.968902 21.6895865,226.791981 C21.7393501,226.768115 21.7945673,226.746977 21.8477394,226.723793 C22.6453211,226.384218 23.783068,226.161926 23.9739423,225.610969 C24.3590992,224.498826 26.2214866,224.305854 25.4450374,222.348865 C24.6051907,220.231634 23.1763606,221.332185 22.1585918,221.311728" id="Fill-41" fill="#111111"></path>
            </g>
        </g>
    </g>
</svg>